G04 #@! TF.GenerationSoftware,KiCad,Pcbnew,(5.1.5)-3*
G04 #@! TF.CreationDate,2019-12-14T15:37:32-08:00*
G04 #@! TF.ProjectId,programmer,70726f67-7261-46d6-9d65-722e6b696361,rev?*
G04 #@! TF.SameCoordinates,Original*
G04 #@! TF.FileFunction,Copper,L1,Top*
G04 #@! TF.FilePolarity,Positive*
%FSLAX46Y46*%
G04 Gerber Fmt 4.6, Leading zero omitted, Abs format (unit mm)*
G04 Created by KiCad (PCBNEW (5.1.5)-3) date 2019-12-14 15:37:32*
%MOMM*%
%LPD*%
G04 APERTURE LIST*
%ADD10R,1.300000X1.550000*%
%ADD11O,1.700000X1.700000*%
%ADD12R,1.700000X1.700000*%
%ADD13R,1.200000X0.400000*%
%ADD14C,0.100000*%
%ADD15R,1.300000X0.600000*%
%ADD16R,1.800000X1.900000*%
%ADD17R,1.900000X1.900000*%
%ADD18R,2.100000X1.600000*%
%ADD19R,0.400000X1.350000*%
%ADD20C,0.635000*%
%ADD21C,1.016000*%
%ADD22C,0.152400*%
%ADD23C,0.762000*%
%ADD24C,0.508000*%
%ADD25C,0.254000*%
G04 APERTURE END LIST*
D10*
X126174500Y-109017000D03*
X121674500Y-109017000D03*
X121674500Y-116967000D03*
X126174500Y-116967000D03*
X126174500Y-120193000D03*
X121674500Y-120193000D03*
X121674500Y-128143000D03*
X126174500Y-128143000D03*
D11*
X147510000Y-122900000D03*
X150050000Y-122900000D03*
X147510000Y-120360000D03*
X150050000Y-120360000D03*
X147510000Y-117820000D03*
X150050000Y-117820000D03*
X147510000Y-115280000D03*
X150050000Y-115280000D03*
X147510000Y-112740000D03*
D12*
X150050000Y-112740000D03*
D13*
X134814960Y-117073680D03*
X134814960Y-116438680D03*
X134814960Y-115803680D03*
X134814960Y-115168680D03*
X134814960Y-114533680D03*
X134814960Y-113898680D03*
X134814960Y-113263680D03*
X134814960Y-112628680D03*
X140014960Y-112628680D03*
X140014960Y-113263680D03*
X140014960Y-113898680D03*
X140014960Y-114533680D03*
X140014960Y-115168680D03*
X140014960Y-115803680D03*
X140014960Y-116438680D03*
X140014960Y-117073680D03*
G04 #@! TA.AperFunction,SMDPad,CuDef*
D14*
G36*
X138629551Y-106363533D02*
G01*
X138650786Y-106366683D01*
X138671610Y-106371899D01*
X138691822Y-106379131D01*
X138711228Y-106388310D01*
X138729641Y-106399346D01*
X138746884Y-106412134D01*
X138762790Y-106426550D01*
X138777206Y-106442456D01*
X138789994Y-106459699D01*
X138801030Y-106478112D01*
X138810209Y-106497518D01*
X138817441Y-106517730D01*
X138822657Y-106538554D01*
X138825807Y-106559789D01*
X138826860Y-106581230D01*
X138826860Y-107093730D01*
X138825807Y-107115171D01*
X138822657Y-107136406D01*
X138817441Y-107157230D01*
X138810209Y-107177442D01*
X138801030Y-107196848D01*
X138789994Y-107215261D01*
X138777206Y-107232504D01*
X138762790Y-107248410D01*
X138746884Y-107262826D01*
X138729641Y-107275614D01*
X138711228Y-107286650D01*
X138691822Y-107295829D01*
X138671610Y-107303061D01*
X138650786Y-107308277D01*
X138629551Y-107311427D01*
X138608110Y-107312480D01*
X138170610Y-107312480D01*
X138149169Y-107311427D01*
X138127934Y-107308277D01*
X138107110Y-107303061D01*
X138086898Y-107295829D01*
X138067492Y-107286650D01*
X138049079Y-107275614D01*
X138031836Y-107262826D01*
X138015930Y-107248410D01*
X138001514Y-107232504D01*
X137988726Y-107215261D01*
X137977690Y-107196848D01*
X137968511Y-107177442D01*
X137961279Y-107157230D01*
X137956063Y-107136406D01*
X137952913Y-107115171D01*
X137951860Y-107093730D01*
X137951860Y-106581230D01*
X137952913Y-106559789D01*
X137956063Y-106538554D01*
X137961279Y-106517730D01*
X137968511Y-106497518D01*
X137977690Y-106478112D01*
X137988726Y-106459699D01*
X138001514Y-106442456D01*
X138015930Y-106426550D01*
X138031836Y-106412134D01*
X138049079Y-106399346D01*
X138067492Y-106388310D01*
X138086898Y-106379131D01*
X138107110Y-106371899D01*
X138127934Y-106366683D01*
X138149169Y-106363533D01*
X138170610Y-106362480D01*
X138608110Y-106362480D01*
X138629551Y-106363533D01*
G37*
G04 #@! TD.AperFunction*
G04 #@! TA.AperFunction,SMDPad,CuDef*
G36*
X140204551Y-106363533D02*
G01*
X140225786Y-106366683D01*
X140246610Y-106371899D01*
X140266822Y-106379131D01*
X140286228Y-106388310D01*
X140304641Y-106399346D01*
X140321884Y-106412134D01*
X140337790Y-106426550D01*
X140352206Y-106442456D01*
X140364994Y-106459699D01*
X140376030Y-106478112D01*
X140385209Y-106497518D01*
X140392441Y-106517730D01*
X140397657Y-106538554D01*
X140400807Y-106559789D01*
X140401860Y-106581230D01*
X140401860Y-107093730D01*
X140400807Y-107115171D01*
X140397657Y-107136406D01*
X140392441Y-107157230D01*
X140385209Y-107177442D01*
X140376030Y-107196848D01*
X140364994Y-107215261D01*
X140352206Y-107232504D01*
X140337790Y-107248410D01*
X140321884Y-107262826D01*
X140304641Y-107275614D01*
X140286228Y-107286650D01*
X140266822Y-107295829D01*
X140246610Y-107303061D01*
X140225786Y-107308277D01*
X140204551Y-107311427D01*
X140183110Y-107312480D01*
X139745610Y-107312480D01*
X139724169Y-107311427D01*
X139702934Y-107308277D01*
X139682110Y-107303061D01*
X139661898Y-107295829D01*
X139642492Y-107286650D01*
X139624079Y-107275614D01*
X139606836Y-107262826D01*
X139590930Y-107248410D01*
X139576514Y-107232504D01*
X139563726Y-107215261D01*
X139552690Y-107196848D01*
X139543511Y-107177442D01*
X139536279Y-107157230D01*
X139531063Y-107136406D01*
X139527913Y-107115171D01*
X139526860Y-107093730D01*
X139526860Y-106581230D01*
X139527913Y-106559789D01*
X139531063Y-106538554D01*
X139536279Y-106517730D01*
X139543511Y-106497518D01*
X139552690Y-106478112D01*
X139563726Y-106459699D01*
X139576514Y-106442456D01*
X139590930Y-106426550D01*
X139606836Y-106412134D01*
X139624079Y-106399346D01*
X139642492Y-106388310D01*
X139661898Y-106379131D01*
X139682110Y-106371899D01*
X139702934Y-106366683D01*
X139724169Y-106363533D01*
X139745610Y-106362480D01*
X140183110Y-106362480D01*
X140204551Y-106363533D01*
G37*
G04 #@! TD.AperFunction*
G04 #@! TA.AperFunction,SMDPad,CuDef*
G36*
X136643471Y-106353373D02*
G01*
X136664706Y-106356523D01*
X136685530Y-106361739D01*
X136705742Y-106368971D01*
X136725148Y-106378150D01*
X136743561Y-106389186D01*
X136760804Y-106401974D01*
X136776710Y-106416390D01*
X136791126Y-106432296D01*
X136803914Y-106449539D01*
X136814950Y-106467952D01*
X136824129Y-106487358D01*
X136831361Y-106507570D01*
X136836577Y-106528394D01*
X136839727Y-106549629D01*
X136840780Y-106571070D01*
X136840780Y-107083570D01*
X136839727Y-107105011D01*
X136836577Y-107126246D01*
X136831361Y-107147070D01*
X136824129Y-107167282D01*
X136814950Y-107186688D01*
X136803914Y-107205101D01*
X136791126Y-107222344D01*
X136776710Y-107238250D01*
X136760804Y-107252666D01*
X136743561Y-107265454D01*
X136725148Y-107276490D01*
X136705742Y-107285669D01*
X136685530Y-107292901D01*
X136664706Y-107298117D01*
X136643471Y-107301267D01*
X136622030Y-107302320D01*
X136184530Y-107302320D01*
X136163089Y-107301267D01*
X136141854Y-107298117D01*
X136121030Y-107292901D01*
X136100818Y-107285669D01*
X136081412Y-107276490D01*
X136062999Y-107265454D01*
X136045756Y-107252666D01*
X136029850Y-107238250D01*
X136015434Y-107222344D01*
X136002646Y-107205101D01*
X135991610Y-107186688D01*
X135982431Y-107167282D01*
X135975199Y-107147070D01*
X135969983Y-107126246D01*
X135966833Y-107105011D01*
X135965780Y-107083570D01*
X135965780Y-106571070D01*
X135966833Y-106549629D01*
X135969983Y-106528394D01*
X135975199Y-106507570D01*
X135982431Y-106487358D01*
X135991610Y-106467952D01*
X136002646Y-106449539D01*
X136015434Y-106432296D01*
X136029850Y-106416390D01*
X136045756Y-106401974D01*
X136062999Y-106389186D01*
X136081412Y-106378150D01*
X136100818Y-106368971D01*
X136121030Y-106361739D01*
X136141854Y-106356523D01*
X136163089Y-106353373D01*
X136184530Y-106352320D01*
X136622030Y-106352320D01*
X136643471Y-106353373D01*
G37*
G04 #@! TD.AperFunction*
G04 #@! TA.AperFunction,SMDPad,CuDef*
G36*
X135068471Y-106353373D02*
G01*
X135089706Y-106356523D01*
X135110530Y-106361739D01*
X135130742Y-106368971D01*
X135150148Y-106378150D01*
X135168561Y-106389186D01*
X135185804Y-106401974D01*
X135201710Y-106416390D01*
X135216126Y-106432296D01*
X135228914Y-106449539D01*
X135239950Y-106467952D01*
X135249129Y-106487358D01*
X135256361Y-106507570D01*
X135261577Y-106528394D01*
X135264727Y-106549629D01*
X135265780Y-106571070D01*
X135265780Y-107083570D01*
X135264727Y-107105011D01*
X135261577Y-107126246D01*
X135256361Y-107147070D01*
X135249129Y-107167282D01*
X135239950Y-107186688D01*
X135228914Y-107205101D01*
X135216126Y-107222344D01*
X135201710Y-107238250D01*
X135185804Y-107252666D01*
X135168561Y-107265454D01*
X135150148Y-107276490D01*
X135130742Y-107285669D01*
X135110530Y-107292901D01*
X135089706Y-107298117D01*
X135068471Y-107301267D01*
X135047030Y-107302320D01*
X134609530Y-107302320D01*
X134588089Y-107301267D01*
X134566854Y-107298117D01*
X134546030Y-107292901D01*
X134525818Y-107285669D01*
X134506412Y-107276490D01*
X134487999Y-107265454D01*
X134470756Y-107252666D01*
X134454850Y-107238250D01*
X134440434Y-107222344D01*
X134427646Y-107205101D01*
X134416610Y-107186688D01*
X134407431Y-107167282D01*
X134400199Y-107147070D01*
X134394983Y-107126246D01*
X134391833Y-107105011D01*
X134390780Y-107083570D01*
X134390780Y-106571070D01*
X134391833Y-106549629D01*
X134394983Y-106528394D01*
X134400199Y-106507570D01*
X134407431Y-106487358D01*
X134416610Y-106467952D01*
X134427646Y-106449539D01*
X134440434Y-106432296D01*
X134454850Y-106416390D01*
X134470756Y-106401974D01*
X134487999Y-106389186D01*
X134506412Y-106378150D01*
X134525818Y-106368971D01*
X134546030Y-106361739D01*
X134566854Y-106356523D01*
X134588089Y-106353373D01*
X134609530Y-106352320D01*
X135047030Y-106352320D01*
X135068471Y-106353373D01*
G37*
G04 #@! TD.AperFunction*
G04 #@! TA.AperFunction,SMDPad,CuDef*
G36*
X130528891Y-125486793D02*
G01*
X130550126Y-125489943D01*
X130570950Y-125495159D01*
X130591162Y-125502391D01*
X130610568Y-125511570D01*
X130628981Y-125522606D01*
X130646224Y-125535394D01*
X130662130Y-125549810D01*
X130676546Y-125565716D01*
X130689334Y-125582959D01*
X130700370Y-125601372D01*
X130709549Y-125620778D01*
X130716781Y-125640990D01*
X130721997Y-125661814D01*
X130725147Y-125683049D01*
X130726200Y-125704490D01*
X130726200Y-126141990D01*
X130725147Y-126163431D01*
X130721997Y-126184666D01*
X130716781Y-126205490D01*
X130709549Y-126225702D01*
X130700370Y-126245108D01*
X130689334Y-126263521D01*
X130676546Y-126280764D01*
X130662130Y-126296670D01*
X130646224Y-126311086D01*
X130628981Y-126323874D01*
X130610568Y-126334910D01*
X130591162Y-126344089D01*
X130570950Y-126351321D01*
X130550126Y-126356537D01*
X130528891Y-126359687D01*
X130507450Y-126360740D01*
X129994950Y-126360740D01*
X129973509Y-126359687D01*
X129952274Y-126356537D01*
X129931450Y-126351321D01*
X129911238Y-126344089D01*
X129891832Y-126334910D01*
X129873419Y-126323874D01*
X129856176Y-126311086D01*
X129840270Y-126296670D01*
X129825854Y-126280764D01*
X129813066Y-126263521D01*
X129802030Y-126245108D01*
X129792851Y-126225702D01*
X129785619Y-126205490D01*
X129780403Y-126184666D01*
X129777253Y-126163431D01*
X129776200Y-126141990D01*
X129776200Y-125704490D01*
X129777253Y-125683049D01*
X129780403Y-125661814D01*
X129785619Y-125640990D01*
X129792851Y-125620778D01*
X129802030Y-125601372D01*
X129813066Y-125582959D01*
X129825854Y-125565716D01*
X129840270Y-125549810D01*
X129856176Y-125535394D01*
X129873419Y-125522606D01*
X129891832Y-125511570D01*
X129911238Y-125502391D01*
X129931450Y-125495159D01*
X129952274Y-125489943D01*
X129973509Y-125486793D01*
X129994950Y-125485740D01*
X130507450Y-125485740D01*
X130528891Y-125486793D01*
G37*
G04 #@! TD.AperFunction*
G04 #@! TA.AperFunction,SMDPad,CuDef*
G36*
X130528891Y-123911793D02*
G01*
X130550126Y-123914943D01*
X130570950Y-123920159D01*
X130591162Y-123927391D01*
X130610568Y-123936570D01*
X130628981Y-123947606D01*
X130646224Y-123960394D01*
X130662130Y-123974810D01*
X130676546Y-123990716D01*
X130689334Y-124007959D01*
X130700370Y-124026372D01*
X130709549Y-124045778D01*
X130716781Y-124065990D01*
X130721997Y-124086814D01*
X130725147Y-124108049D01*
X130726200Y-124129490D01*
X130726200Y-124566990D01*
X130725147Y-124588431D01*
X130721997Y-124609666D01*
X130716781Y-124630490D01*
X130709549Y-124650702D01*
X130700370Y-124670108D01*
X130689334Y-124688521D01*
X130676546Y-124705764D01*
X130662130Y-124721670D01*
X130646224Y-124736086D01*
X130628981Y-124748874D01*
X130610568Y-124759910D01*
X130591162Y-124769089D01*
X130570950Y-124776321D01*
X130550126Y-124781537D01*
X130528891Y-124784687D01*
X130507450Y-124785740D01*
X129994950Y-124785740D01*
X129973509Y-124784687D01*
X129952274Y-124781537D01*
X129931450Y-124776321D01*
X129911238Y-124769089D01*
X129891832Y-124759910D01*
X129873419Y-124748874D01*
X129856176Y-124736086D01*
X129840270Y-124721670D01*
X129825854Y-124705764D01*
X129813066Y-124688521D01*
X129802030Y-124670108D01*
X129792851Y-124650702D01*
X129785619Y-124630490D01*
X129780403Y-124609666D01*
X129777253Y-124588431D01*
X129776200Y-124566990D01*
X129776200Y-124129490D01*
X129777253Y-124108049D01*
X129780403Y-124086814D01*
X129785619Y-124065990D01*
X129792851Y-124045778D01*
X129802030Y-124026372D01*
X129813066Y-124007959D01*
X129825854Y-123990716D01*
X129840270Y-123974810D01*
X129856176Y-123960394D01*
X129873419Y-123947606D01*
X129891832Y-123936570D01*
X129911238Y-123927391D01*
X129931450Y-123920159D01*
X129952274Y-123914943D01*
X129973509Y-123911793D01*
X129994950Y-123910740D01*
X130507450Y-123910740D01*
X130528891Y-123911793D01*
G37*
G04 #@! TD.AperFunction*
G04 #@! TA.AperFunction,SMDPad,CuDef*
G36*
X136685851Y-121280353D02*
G01*
X136707086Y-121283503D01*
X136727910Y-121288719D01*
X136748122Y-121295951D01*
X136767528Y-121305130D01*
X136785941Y-121316166D01*
X136803184Y-121328954D01*
X136819090Y-121343370D01*
X136833506Y-121359276D01*
X136846294Y-121376519D01*
X136857330Y-121394932D01*
X136866509Y-121414338D01*
X136873741Y-121434550D01*
X136878957Y-121455374D01*
X136882107Y-121476609D01*
X136883160Y-121498050D01*
X136883160Y-121935550D01*
X136882107Y-121956991D01*
X136878957Y-121978226D01*
X136873741Y-121999050D01*
X136866509Y-122019262D01*
X136857330Y-122038668D01*
X136846294Y-122057081D01*
X136833506Y-122074324D01*
X136819090Y-122090230D01*
X136803184Y-122104646D01*
X136785941Y-122117434D01*
X136767528Y-122128470D01*
X136748122Y-122137649D01*
X136727910Y-122144881D01*
X136707086Y-122150097D01*
X136685851Y-122153247D01*
X136664410Y-122154300D01*
X136151910Y-122154300D01*
X136130469Y-122153247D01*
X136109234Y-122150097D01*
X136088410Y-122144881D01*
X136068198Y-122137649D01*
X136048792Y-122128470D01*
X136030379Y-122117434D01*
X136013136Y-122104646D01*
X135997230Y-122090230D01*
X135982814Y-122074324D01*
X135970026Y-122057081D01*
X135958990Y-122038668D01*
X135949811Y-122019262D01*
X135942579Y-121999050D01*
X135937363Y-121978226D01*
X135934213Y-121956991D01*
X135933160Y-121935550D01*
X135933160Y-121498050D01*
X135934213Y-121476609D01*
X135937363Y-121455374D01*
X135942579Y-121434550D01*
X135949811Y-121414338D01*
X135958990Y-121394932D01*
X135970026Y-121376519D01*
X135982814Y-121359276D01*
X135997230Y-121343370D01*
X136013136Y-121328954D01*
X136030379Y-121316166D01*
X136048792Y-121305130D01*
X136068198Y-121295951D01*
X136088410Y-121288719D01*
X136109234Y-121283503D01*
X136130469Y-121280353D01*
X136151910Y-121279300D01*
X136664410Y-121279300D01*
X136685851Y-121280353D01*
G37*
G04 #@! TD.AperFunction*
G04 #@! TA.AperFunction,SMDPad,CuDef*
G36*
X136685851Y-119705353D02*
G01*
X136707086Y-119708503D01*
X136727910Y-119713719D01*
X136748122Y-119720951D01*
X136767528Y-119730130D01*
X136785941Y-119741166D01*
X136803184Y-119753954D01*
X136819090Y-119768370D01*
X136833506Y-119784276D01*
X136846294Y-119801519D01*
X136857330Y-119819932D01*
X136866509Y-119839338D01*
X136873741Y-119859550D01*
X136878957Y-119880374D01*
X136882107Y-119901609D01*
X136883160Y-119923050D01*
X136883160Y-120360550D01*
X136882107Y-120381991D01*
X136878957Y-120403226D01*
X136873741Y-120424050D01*
X136866509Y-120444262D01*
X136857330Y-120463668D01*
X136846294Y-120482081D01*
X136833506Y-120499324D01*
X136819090Y-120515230D01*
X136803184Y-120529646D01*
X136785941Y-120542434D01*
X136767528Y-120553470D01*
X136748122Y-120562649D01*
X136727910Y-120569881D01*
X136707086Y-120575097D01*
X136685851Y-120578247D01*
X136664410Y-120579300D01*
X136151910Y-120579300D01*
X136130469Y-120578247D01*
X136109234Y-120575097D01*
X136088410Y-120569881D01*
X136068198Y-120562649D01*
X136048792Y-120553470D01*
X136030379Y-120542434D01*
X136013136Y-120529646D01*
X135997230Y-120515230D01*
X135982814Y-120499324D01*
X135970026Y-120482081D01*
X135958990Y-120463668D01*
X135949811Y-120444262D01*
X135942579Y-120424050D01*
X135937363Y-120403226D01*
X135934213Y-120381991D01*
X135933160Y-120360550D01*
X135933160Y-119923050D01*
X135934213Y-119901609D01*
X135937363Y-119880374D01*
X135942579Y-119859550D01*
X135949811Y-119839338D01*
X135958990Y-119819932D01*
X135970026Y-119801519D01*
X135982814Y-119784276D01*
X135997230Y-119768370D01*
X136013136Y-119753954D01*
X136030379Y-119741166D01*
X136048792Y-119730130D01*
X136068198Y-119720951D01*
X136088410Y-119713719D01*
X136109234Y-119708503D01*
X136130469Y-119705353D01*
X136151910Y-119704300D01*
X136664410Y-119704300D01*
X136685851Y-119705353D01*
G37*
G04 #@! TD.AperFunction*
G04 #@! TA.AperFunction,SMDPad,CuDef*
G36*
X138687371Y-121270193D02*
G01*
X138708606Y-121273343D01*
X138729430Y-121278559D01*
X138749642Y-121285791D01*
X138769048Y-121294970D01*
X138787461Y-121306006D01*
X138804704Y-121318794D01*
X138820610Y-121333210D01*
X138835026Y-121349116D01*
X138847814Y-121366359D01*
X138858850Y-121384772D01*
X138868029Y-121404178D01*
X138875261Y-121424390D01*
X138880477Y-121445214D01*
X138883627Y-121466449D01*
X138884680Y-121487890D01*
X138884680Y-121925390D01*
X138883627Y-121946831D01*
X138880477Y-121968066D01*
X138875261Y-121988890D01*
X138868029Y-122009102D01*
X138858850Y-122028508D01*
X138847814Y-122046921D01*
X138835026Y-122064164D01*
X138820610Y-122080070D01*
X138804704Y-122094486D01*
X138787461Y-122107274D01*
X138769048Y-122118310D01*
X138749642Y-122127489D01*
X138729430Y-122134721D01*
X138708606Y-122139937D01*
X138687371Y-122143087D01*
X138665930Y-122144140D01*
X138153430Y-122144140D01*
X138131989Y-122143087D01*
X138110754Y-122139937D01*
X138089930Y-122134721D01*
X138069718Y-122127489D01*
X138050312Y-122118310D01*
X138031899Y-122107274D01*
X138014656Y-122094486D01*
X137998750Y-122080070D01*
X137984334Y-122064164D01*
X137971546Y-122046921D01*
X137960510Y-122028508D01*
X137951331Y-122009102D01*
X137944099Y-121988890D01*
X137938883Y-121968066D01*
X137935733Y-121946831D01*
X137934680Y-121925390D01*
X137934680Y-121487890D01*
X137935733Y-121466449D01*
X137938883Y-121445214D01*
X137944099Y-121424390D01*
X137951331Y-121404178D01*
X137960510Y-121384772D01*
X137971546Y-121366359D01*
X137984334Y-121349116D01*
X137998750Y-121333210D01*
X138014656Y-121318794D01*
X138031899Y-121306006D01*
X138050312Y-121294970D01*
X138069718Y-121285791D01*
X138089930Y-121278559D01*
X138110754Y-121273343D01*
X138131989Y-121270193D01*
X138153430Y-121269140D01*
X138665930Y-121269140D01*
X138687371Y-121270193D01*
G37*
G04 #@! TD.AperFunction*
G04 #@! TA.AperFunction,SMDPad,CuDef*
G36*
X138687371Y-119695193D02*
G01*
X138708606Y-119698343D01*
X138729430Y-119703559D01*
X138749642Y-119710791D01*
X138769048Y-119719970D01*
X138787461Y-119731006D01*
X138804704Y-119743794D01*
X138820610Y-119758210D01*
X138835026Y-119774116D01*
X138847814Y-119791359D01*
X138858850Y-119809772D01*
X138868029Y-119829178D01*
X138875261Y-119849390D01*
X138880477Y-119870214D01*
X138883627Y-119891449D01*
X138884680Y-119912890D01*
X138884680Y-120350390D01*
X138883627Y-120371831D01*
X138880477Y-120393066D01*
X138875261Y-120413890D01*
X138868029Y-120434102D01*
X138858850Y-120453508D01*
X138847814Y-120471921D01*
X138835026Y-120489164D01*
X138820610Y-120505070D01*
X138804704Y-120519486D01*
X138787461Y-120532274D01*
X138769048Y-120543310D01*
X138749642Y-120552489D01*
X138729430Y-120559721D01*
X138708606Y-120564937D01*
X138687371Y-120568087D01*
X138665930Y-120569140D01*
X138153430Y-120569140D01*
X138131989Y-120568087D01*
X138110754Y-120564937D01*
X138089930Y-120559721D01*
X138069718Y-120552489D01*
X138050312Y-120543310D01*
X138031899Y-120532274D01*
X138014656Y-120519486D01*
X137998750Y-120505070D01*
X137984334Y-120489164D01*
X137971546Y-120471921D01*
X137960510Y-120453508D01*
X137951331Y-120434102D01*
X137944099Y-120413890D01*
X137938883Y-120393066D01*
X137935733Y-120371831D01*
X137934680Y-120350390D01*
X137934680Y-119912890D01*
X137935733Y-119891449D01*
X137938883Y-119870214D01*
X137944099Y-119849390D01*
X137951331Y-119829178D01*
X137960510Y-119809772D01*
X137971546Y-119791359D01*
X137984334Y-119774116D01*
X137998750Y-119758210D01*
X138014656Y-119743794D01*
X138031899Y-119731006D01*
X138050312Y-119719970D01*
X138069718Y-119710791D01*
X138089930Y-119703559D01*
X138110754Y-119698343D01*
X138131989Y-119695193D01*
X138153430Y-119694140D01*
X138665930Y-119694140D01*
X138687371Y-119695193D01*
G37*
G04 #@! TD.AperFunction*
D15*
X127254000Y-106362500D03*
X127254000Y-104462500D03*
X125154000Y-105412500D03*
D16*
X133965640Y-127665480D03*
X141565640Y-127665480D03*
D17*
X136565640Y-127665480D03*
X138965640Y-127665480D03*
D18*
X134665640Y-125115480D03*
X140865640Y-125115480D03*
D19*
X136465640Y-124990480D03*
X138415640Y-124990480D03*
X139065640Y-124990480D03*
X137115640Y-124990480D03*
X137765640Y-124990480D03*
G04 #@! TA.AperFunction,SMDPad,CuDef*
D14*
G36*
X138654751Y-109015293D02*
G01*
X138675986Y-109018443D01*
X138696810Y-109023659D01*
X138717022Y-109030891D01*
X138736428Y-109040070D01*
X138754841Y-109051106D01*
X138772084Y-109063894D01*
X138787990Y-109078310D01*
X138802406Y-109094216D01*
X138815194Y-109111459D01*
X138826230Y-109129872D01*
X138835409Y-109149278D01*
X138842641Y-109169490D01*
X138847857Y-109190314D01*
X138851007Y-109211549D01*
X138852060Y-109232990D01*
X138852060Y-109745490D01*
X138851007Y-109766931D01*
X138847857Y-109788166D01*
X138842641Y-109808990D01*
X138835409Y-109829202D01*
X138826230Y-109848608D01*
X138815194Y-109867021D01*
X138802406Y-109884264D01*
X138787990Y-109900170D01*
X138772084Y-109914586D01*
X138754841Y-109927374D01*
X138736428Y-109938410D01*
X138717022Y-109947589D01*
X138696810Y-109954821D01*
X138675986Y-109960037D01*
X138654751Y-109963187D01*
X138633310Y-109964240D01*
X138195810Y-109964240D01*
X138174369Y-109963187D01*
X138153134Y-109960037D01*
X138132310Y-109954821D01*
X138112098Y-109947589D01*
X138092692Y-109938410D01*
X138074279Y-109927374D01*
X138057036Y-109914586D01*
X138041130Y-109900170D01*
X138026714Y-109884264D01*
X138013926Y-109867021D01*
X138002890Y-109848608D01*
X137993711Y-109829202D01*
X137986479Y-109808990D01*
X137981263Y-109788166D01*
X137978113Y-109766931D01*
X137977060Y-109745490D01*
X137977060Y-109232990D01*
X137978113Y-109211549D01*
X137981263Y-109190314D01*
X137986479Y-109169490D01*
X137993711Y-109149278D01*
X138002890Y-109129872D01*
X138013926Y-109111459D01*
X138026714Y-109094216D01*
X138041130Y-109078310D01*
X138057036Y-109063894D01*
X138074279Y-109051106D01*
X138092692Y-109040070D01*
X138112098Y-109030891D01*
X138132310Y-109023659D01*
X138153134Y-109018443D01*
X138174369Y-109015293D01*
X138195810Y-109014240D01*
X138633310Y-109014240D01*
X138654751Y-109015293D01*
G37*
G04 #@! TD.AperFunction*
G04 #@! TA.AperFunction,SMDPad,CuDef*
G36*
X140229751Y-109015293D02*
G01*
X140250986Y-109018443D01*
X140271810Y-109023659D01*
X140292022Y-109030891D01*
X140311428Y-109040070D01*
X140329841Y-109051106D01*
X140347084Y-109063894D01*
X140362990Y-109078310D01*
X140377406Y-109094216D01*
X140390194Y-109111459D01*
X140401230Y-109129872D01*
X140410409Y-109149278D01*
X140417641Y-109169490D01*
X140422857Y-109190314D01*
X140426007Y-109211549D01*
X140427060Y-109232990D01*
X140427060Y-109745490D01*
X140426007Y-109766931D01*
X140422857Y-109788166D01*
X140417641Y-109808990D01*
X140410409Y-109829202D01*
X140401230Y-109848608D01*
X140390194Y-109867021D01*
X140377406Y-109884264D01*
X140362990Y-109900170D01*
X140347084Y-109914586D01*
X140329841Y-109927374D01*
X140311428Y-109938410D01*
X140292022Y-109947589D01*
X140271810Y-109954821D01*
X140250986Y-109960037D01*
X140229751Y-109963187D01*
X140208310Y-109964240D01*
X139770810Y-109964240D01*
X139749369Y-109963187D01*
X139728134Y-109960037D01*
X139707310Y-109954821D01*
X139687098Y-109947589D01*
X139667692Y-109938410D01*
X139649279Y-109927374D01*
X139632036Y-109914586D01*
X139616130Y-109900170D01*
X139601714Y-109884264D01*
X139588926Y-109867021D01*
X139577890Y-109848608D01*
X139568711Y-109829202D01*
X139561479Y-109808990D01*
X139556263Y-109788166D01*
X139553113Y-109766931D01*
X139552060Y-109745490D01*
X139552060Y-109232990D01*
X139553113Y-109211549D01*
X139556263Y-109190314D01*
X139561479Y-109169490D01*
X139568711Y-109149278D01*
X139577890Y-109129872D01*
X139588926Y-109111459D01*
X139601714Y-109094216D01*
X139616130Y-109078310D01*
X139632036Y-109063894D01*
X139649279Y-109051106D01*
X139667692Y-109040070D01*
X139687098Y-109030891D01*
X139707310Y-109023659D01*
X139728134Y-109018443D01*
X139749369Y-109015293D01*
X139770810Y-109014240D01*
X140208310Y-109014240D01*
X140229751Y-109015293D01*
G37*
G04 #@! TD.AperFunction*
G04 #@! TA.AperFunction,SMDPad,CuDef*
G36*
X136638391Y-109061013D02*
G01*
X136659626Y-109064163D01*
X136680450Y-109069379D01*
X136700662Y-109076611D01*
X136720068Y-109085790D01*
X136738481Y-109096826D01*
X136755724Y-109109614D01*
X136771630Y-109124030D01*
X136786046Y-109139936D01*
X136798834Y-109157179D01*
X136809870Y-109175592D01*
X136819049Y-109194998D01*
X136826281Y-109215210D01*
X136831497Y-109236034D01*
X136834647Y-109257269D01*
X136835700Y-109278710D01*
X136835700Y-109791210D01*
X136834647Y-109812651D01*
X136831497Y-109833886D01*
X136826281Y-109854710D01*
X136819049Y-109874922D01*
X136809870Y-109894328D01*
X136798834Y-109912741D01*
X136786046Y-109929984D01*
X136771630Y-109945890D01*
X136755724Y-109960306D01*
X136738481Y-109973094D01*
X136720068Y-109984130D01*
X136700662Y-109993309D01*
X136680450Y-110000541D01*
X136659626Y-110005757D01*
X136638391Y-110008907D01*
X136616950Y-110009960D01*
X136179450Y-110009960D01*
X136158009Y-110008907D01*
X136136774Y-110005757D01*
X136115950Y-110000541D01*
X136095738Y-109993309D01*
X136076332Y-109984130D01*
X136057919Y-109973094D01*
X136040676Y-109960306D01*
X136024770Y-109945890D01*
X136010354Y-109929984D01*
X135997566Y-109912741D01*
X135986530Y-109894328D01*
X135977351Y-109874922D01*
X135970119Y-109854710D01*
X135964903Y-109833886D01*
X135961753Y-109812651D01*
X135960700Y-109791210D01*
X135960700Y-109278710D01*
X135961753Y-109257269D01*
X135964903Y-109236034D01*
X135970119Y-109215210D01*
X135977351Y-109194998D01*
X135986530Y-109175592D01*
X135997566Y-109157179D01*
X136010354Y-109139936D01*
X136024770Y-109124030D01*
X136040676Y-109109614D01*
X136057919Y-109096826D01*
X136076332Y-109085790D01*
X136095738Y-109076611D01*
X136115950Y-109069379D01*
X136136774Y-109064163D01*
X136158009Y-109061013D01*
X136179450Y-109059960D01*
X136616950Y-109059960D01*
X136638391Y-109061013D01*
G37*
G04 #@! TD.AperFunction*
G04 #@! TA.AperFunction,SMDPad,CuDef*
G36*
X135063391Y-109061013D02*
G01*
X135084626Y-109064163D01*
X135105450Y-109069379D01*
X135125662Y-109076611D01*
X135145068Y-109085790D01*
X135163481Y-109096826D01*
X135180724Y-109109614D01*
X135196630Y-109124030D01*
X135211046Y-109139936D01*
X135223834Y-109157179D01*
X135234870Y-109175592D01*
X135244049Y-109194998D01*
X135251281Y-109215210D01*
X135256497Y-109236034D01*
X135259647Y-109257269D01*
X135260700Y-109278710D01*
X135260700Y-109791210D01*
X135259647Y-109812651D01*
X135256497Y-109833886D01*
X135251281Y-109854710D01*
X135244049Y-109874922D01*
X135234870Y-109894328D01*
X135223834Y-109912741D01*
X135211046Y-109929984D01*
X135196630Y-109945890D01*
X135180724Y-109960306D01*
X135163481Y-109973094D01*
X135145068Y-109984130D01*
X135125662Y-109993309D01*
X135105450Y-110000541D01*
X135084626Y-110005757D01*
X135063391Y-110008907D01*
X135041950Y-110009960D01*
X134604450Y-110009960D01*
X134583009Y-110008907D01*
X134561774Y-110005757D01*
X134540950Y-110000541D01*
X134520738Y-109993309D01*
X134501332Y-109984130D01*
X134482919Y-109973094D01*
X134465676Y-109960306D01*
X134449770Y-109945890D01*
X134435354Y-109929984D01*
X134422566Y-109912741D01*
X134411530Y-109894328D01*
X134402351Y-109874922D01*
X134395119Y-109854710D01*
X134389903Y-109833886D01*
X134386753Y-109812651D01*
X134385700Y-109791210D01*
X134385700Y-109278710D01*
X134386753Y-109257269D01*
X134389903Y-109236034D01*
X134395119Y-109215210D01*
X134402351Y-109194998D01*
X134411530Y-109175592D01*
X134422566Y-109157179D01*
X134435354Y-109139936D01*
X134449770Y-109124030D01*
X134465676Y-109109614D01*
X134482919Y-109096826D01*
X134501332Y-109085790D01*
X134520738Y-109076611D01*
X134540950Y-109069379D01*
X134561774Y-109064163D01*
X134583009Y-109061013D01*
X134604450Y-109059960D01*
X135041950Y-109059960D01*
X135063391Y-109061013D01*
G37*
G04 #@! TD.AperFunction*
G04 #@! TA.AperFunction,SMDPad,CuDef*
G36*
X131631251Y-110211033D02*
G01*
X131652486Y-110214183D01*
X131673310Y-110219399D01*
X131693522Y-110226631D01*
X131712928Y-110235810D01*
X131731341Y-110246846D01*
X131748584Y-110259634D01*
X131764490Y-110274050D01*
X131778906Y-110289956D01*
X131791694Y-110307199D01*
X131802730Y-110325612D01*
X131811909Y-110345018D01*
X131819141Y-110365230D01*
X131824357Y-110386054D01*
X131827507Y-110407289D01*
X131828560Y-110428730D01*
X131828560Y-110866230D01*
X131827507Y-110887671D01*
X131824357Y-110908906D01*
X131819141Y-110929730D01*
X131811909Y-110949942D01*
X131802730Y-110969348D01*
X131791694Y-110987761D01*
X131778906Y-111005004D01*
X131764490Y-111020910D01*
X131748584Y-111035326D01*
X131731341Y-111048114D01*
X131712928Y-111059150D01*
X131693522Y-111068329D01*
X131673310Y-111075561D01*
X131652486Y-111080777D01*
X131631251Y-111083927D01*
X131609810Y-111084980D01*
X131097310Y-111084980D01*
X131075869Y-111083927D01*
X131054634Y-111080777D01*
X131033810Y-111075561D01*
X131013598Y-111068329D01*
X130994192Y-111059150D01*
X130975779Y-111048114D01*
X130958536Y-111035326D01*
X130942630Y-111020910D01*
X130928214Y-111005004D01*
X130915426Y-110987761D01*
X130904390Y-110969348D01*
X130895211Y-110949942D01*
X130887979Y-110929730D01*
X130882763Y-110908906D01*
X130879613Y-110887671D01*
X130878560Y-110866230D01*
X130878560Y-110428730D01*
X130879613Y-110407289D01*
X130882763Y-110386054D01*
X130887979Y-110365230D01*
X130895211Y-110345018D01*
X130904390Y-110325612D01*
X130915426Y-110307199D01*
X130928214Y-110289956D01*
X130942630Y-110274050D01*
X130958536Y-110259634D01*
X130975779Y-110246846D01*
X130994192Y-110235810D01*
X131013598Y-110226631D01*
X131033810Y-110219399D01*
X131054634Y-110214183D01*
X131075869Y-110211033D01*
X131097310Y-110209980D01*
X131609810Y-110209980D01*
X131631251Y-110211033D01*
G37*
G04 #@! TD.AperFunction*
G04 #@! TA.AperFunction,SMDPad,CuDef*
G36*
X131631251Y-111786033D02*
G01*
X131652486Y-111789183D01*
X131673310Y-111794399D01*
X131693522Y-111801631D01*
X131712928Y-111810810D01*
X131731341Y-111821846D01*
X131748584Y-111834634D01*
X131764490Y-111849050D01*
X131778906Y-111864956D01*
X131791694Y-111882199D01*
X131802730Y-111900612D01*
X131811909Y-111920018D01*
X131819141Y-111940230D01*
X131824357Y-111961054D01*
X131827507Y-111982289D01*
X131828560Y-112003730D01*
X131828560Y-112441230D01*
X131827507Y-112462671D01*
X131824357Y-112483906D01*
X131819141Y-112504730D01*
X131811909Y-112524942D01*
X131802730Y-112544348D01*
X131791694Y-112562761D01*
X131778906Y-112580004D01*
X131764490Y-112595910D01*
X131748584Y-112610326D01*
X131731341Y-112623114D01*
X131712928Y-112634150D01*
X131693522Y-112643329D01*
X131673310Y-112650561D01*
X131652486Y-112655777D01*
X131631251Y-112658927D01*
X131609810Y-112659980D01*
X131097310Y-112659980D01*
X131075869Y-112658927D01*
X131054634Y-112655777D01*
X131033810Y-112650561D01*
X131013598Y-112643329D01*
X130994192Y-112634150D01*
X130975779Y-112623114D01*
X130958536Y-112610326D01*
X130942630Y-112595910D01*
X130928214Y-112580004D01*
X130915426Y-112562761D01*
X130904390Y-112544348D01*
X130895211Y-112524942D01*
X130887979Y-112504730D01*
X130882763Y-112483906D01*
X130879613Y-112462671D01*
X130878560Y-112441230D01*
X130878560Y-112003730D01*
X130879613Y-111982289D01*
X130882763Y-111961054D01*
X130887979Y-111940230D01*
X130895211Y-111920018D01*
X130904390Y-111900612D01*
X130915426Y-111882199D01*
X130928214Y-111864956D01*
X130942630Y-111849050D01*
X130958536Y-111834634D01*
X130975779Y-111821846D01*
X130994192Y-111810810D01*
X131013598Y-111801631D01*
X131033810Y-111794399D01*
X131054634Y-111789183D01*
X131075869Y-111786033D01*
X131097310Y-111784980D01*
X131609810Y-111784980D01*
X131631251Y-111786033D01*
G37*
G04 #@! TD.AperFunction*
G04 #@! TA.AperFunction,SMDPad,CuDef*
G36*
X131692211Y-113726393D02*
G01*
X131713446Y-113729543D01*
X131734270Y-113734759D01*
X131754482Y-113741991D01*
X131773888Y-113751170D01*
X131792301Y-113762206D01*
X131809544Y-113774994D01*
X131825450Y-113789410D01*
X131839866Y-113805316D01*
X131852654Y-113822559D01*
X131863690Y-113840972D01*
X131872869Y-113860378D01*
X131880101Y-113880590D01*
X131885317Y-113901414D01*
X131888467Y-113922649D01*
X131889520Y-113944090D01*
X131889520Y-114381590D01*
X131888467Y-114403031D01*
X131885317Y-114424266D01*
X131880101Y-114445090D01*
X131872869Y-114465302D01*
X131863690Y-114484708D01*
X131852654Y-114503121D01*
X131839866Y-114520364D01*
X131825450Y-114536270D01*
X131809544Y-114550686D01*
X131792301Y-114563474D01*
X131773888Y-114574510D01*
X131754482Y-114583689D01*
X131734270Y-114590921D01*
X131713446Y-114596137D01*
X131692211Y-114599287D01*
X131670770Y-114600340D01*
X131158270Y-114600340D01*
X131136829Y-114599287D01*
X131115594Y-114596137D01*
X131094770Y-114590921D01*
X131074558Y-114583689D01*
X131055152Y-114574510D01*
X131036739Y-114563474D01*
X131019496Y-114550686D01*
X131003590Y-114536270D01*
X130989174Y-114520364D01*
X130976386Y-114503121D01*
X130965350Y-114484708D01*
X130956171Y-114465302D01*
X130948939Y-114445090D01*
X130943723Y-114424266D01*
X130940573Y-114403031D01*
X130939520Y-114381590D01*
X130939520Y-113944090D01*
X130940573Y-113922649D01*
X130943723Y-113901414D01*
X130948939Y-113880590D01*
X130956171Y-113860378D01*
X130965350Y-113840972D01*
X130976386Y-113822559D01*
X130989174Y-113805316D01*
X131003590Y-113789410D01*
X131019496Y-113774994D01*
X131036739Y-113762206D01*
X131055152Y-113751170D01*
X131074558Y-113741991D01*
X131094770Y-113734759D01*
X131115594Y-113729543D01*
X131136829Y-113726393D01*
X131158270Y-113725340D01*
X131670770Y-113725340D01*
X131692211Y-113726393D01*
G37*
G04 #@! TD.AperFunction*
G04 #@! TA.AperFunction,SMDPad,CuDef*
G36*
X131692211Y-115301393D02*
G01*
X131713446Y-115304543D01*
X131734270Y-115309759D01*
X131754482Y-115316991D01*
X131773888Y-115326170D01*
X131792301Y-115337206D01*
X131809544Y-115349994D01*
X131825450Y-115364410D01*
X131839866Y-115380316D01*
X131852654Y-115397559D01*
X131863690Y-115415972D01*
X131872869Y-115435378D01*
X131880101Y-115455590D01*
X131885317Y-115476414D01*
X131888467Y-115497649D01*
X131889520Y-115519090D01*
X131889520Y-115956590D01*
X131888467Y-115978031D01*
X131885317Y-115999266D01*
X131880101Y-116020090D01*
X131872869Y-116040302D01*
X131863690Y-116059708D01*
X131852654Y-116078121D01*
X131839866Y-116095364D01*
X131825450Y-116111270D01*
X131809544Y-116125686D01*
X131792301Y-116138474D01*
X131773888Y-116149510D01*
X131754482Y-116158689D01*
X131734270Y-116165921D01*
X131713446Y-116171137D01*
X131692211Y-116174287D01*
X131670770Y-116175340D01*
X131158270Y-116175340D01*
X131136829Y-116174287D01*
X131115594Y-116171137D01*
X131094770Y-116165921D01*
X131074558Y-116158689D01*
X131055152Y-116149510D01*
X131036739Y-116138474D01*
X131019496Y-116125686D01*
X131003590Y-116111270D01*
X130989174Y-116095364D01*
X130976386Y-116078121D01*
X130965350Y-116059708D01*
X130956171Y-116040302D01*
X130948939Y-116020090D01*
X130943723Y-115999266D01*
X130940573Y-115978031D01*
X130939520Y-115956590D01*
X130939520Y-115519090D01*
X130940573Y-115497649D01*
X130943723Y-115476414D01*
X130948939Y-115455590D01*
X130956171Y-115435378D01*
X130965350Y-115415972D01*
X130976386Y-115397559D01*
X130989174Y-115380316D01*
X131003590Y-115364410D01*
X131019496Y-115349994D01*
X131036739Y-115337206D01*
X131055152Y-115326170D01*
X131074558Y-115316991D01*
X131094770Y-115309759D01*
X131115594Y-115304543D01*
X131136829Y-115301393D01*
X131158270Y-115300340D01*
X131670770Y-115300340D01*
X131692211Y-115301393D01*
G37*
G04 #@! TD.AperFunction*
G04 #@! TA.AperFunction,SMDPad,CuDef*
G36*
X133224631Y-120562133D02*
G01*
X133245866Y-120565283D01*
X133266690Y-120570499D01*
X133286902Y-120577731D01*
X133306308Y-120586910D01*
X133324721Y-120597946D01*
X133341964Y-120610734D01*
X133357870Y-120625150D01*
X133372286Y-120641056D01*
X133385074Y-120658299D01*
X133396110Y-120676712D01*
X133405289Y-120696118D01*
X133412521Y-120716330D01*
X133417737Y-120737154D01*
X133420887Y-120758389D01*
X133421940Y-120779830D01*
X133421940Y-121292330D01*
X133420887Y-121313771D01*
X133417737Y-121335006D01*
X133412521Y-121355830D01*
X133405289Y-121376042D01*
X133396110Y-121395448D01*
X133385074Y-121413861D01*
X133372286Y-121431104D01*
X133357870Y-121447010D01*
X133341964Y-121461426D01*
X133324721Y-121474214D01*
X133306308Y-121485250D01*
X133286902Y-121494429D01*
X133266690Y-121501661D01*
X133245866Y-121506877D01*
X133224631Y-121510027D01*
X133203190Y-121511080D01*
X132765690Y-121511080D01*
X132744249Y-121510027D01*
X132723014Y-121506877D01*
X132702190Y-121501661D01*
X132681978Y-121494429D01*
X132662572Y-121485250D01*
X132644159Y-121474214D01*
X132626916Y-121461426D01*
X132611010Y-121447010D01*
X132596594Y-121431104D01*
X132583806Y-121413861D01*
X132572770Y-121395448D01*
X132563591Y-121376042D01*
X132556359Y-121355830D01*
X132551143Y-121335006D01*
X132547993Y-121313771D01*
X132546940Y-121292330D01*
X132546940Y-120779830D01*
X132547993Y-120758389D01*
X132551143Y-120737154D01*
X132556359Y-120716330D01*
X132563591Y-120696118D01*
X132572770Y-120676712D01*
X132583806Y-120658299D01*
X132596594Y-120641056D01*
X132611010Y-120625150D01*
X132626916Y-120610734D01*
X132644159Y-120597946D01*
X132662572Y-120586910D01*
X132681978Y-120577731D01*
X132702190Y-120570499D01*
X132723014Y-120565283D01*
X132744249Y-120562133D01*
X132765690Y-120561080D01*
X133203190Y-120561080D01*
X133224631Y-120562133D01*
G37*
G04 #@! TD.AperFunction*
G04 #@! TA.AperFunction,SMDPad,CuDef*
G36*
X131649631Y-120562133D02*
G01*
X131670866Y-120565283D01*
X131691690Y-120570499D01*
X131711902Y-120577731D01*
X131731308Y-120586910D01*
X131749721Y-120597946D01*
X131766964Y-120610734D01*
X131782870Y-120625150D01*
X131797286Y-120641056D01*
X131810074Y-120658299D01*
X131821110Y-120676712D01*
X131830289Y-120696118D01*
X131837521Y-120716330D01*
X131842737Y-120737154D01*
X131845887Y-120758389D01*
X131846940Y-120779830D01*
X131846940Y-121292330D01*
X131845887Y-121313771D01*
X131842737Y-121335006D01*
X131837521Y-121355830D01*
X131830289Y-121376042D01*
X131821110Y-121395448D01*
X131810074Y-121413861D01*
X131797286Y-121431104D01*
X131782870Y-121447010D01*
X131766964Y-121461426D01*
X131749721Y-121474214D01*
X131731308Y-121485250D01*
X131711902Y-121494429D01*
X131691690Y-121501661D01*
X131670866Y-121506877D01*
X131649631Y-121510027D01*
X131628190Y-121511080D01*
X131190690Y-121511080D01*
X131169249Y-121510027D01*
X131148014Y-121506877D01*
X131127190Y-121501661D01*
X131106978Y-121494429D01*
X131087572Y-121485250D01*
X131069159Y-121474214D01*
X131051916Y-121461426D01*
X131036010Y-121447010D01*
X131021594Y-121431104D01*
X131008806Y-121413861D01*
X130997770Y-121395448D01*
X130988591Y-121376042D01*
X130981359Y-121355830D01*
X130976143Y-121335006D01*
X130972993Y-121313771D01*
X130971940Y-121292330D01*
X130971940Y-120779830D01*
X130972993Y-120758389D01*
X130976143Y-120737154D01*
X130981359Y-120716330D01*
X130988591Y-120696118D01*
X130997770Y-120676712D01*
X131008806Y-120658299D01*
X131021594Y-120641056D01*
X131036010Y-120625150D01*
X131051916Y-120610734D01*
X131069159Y-120597946D01*
X131087572Y-120586910D01*
X131106978Y-120577731D01*
X131127190Y-120570499D01*
X131148014Y-120565283D01*
X131169249Y-120562133D01*
X131190690Y-120561080D01*
X131628190Y-120561080D01*
X131649631Y-120562133D01*
G37*
G04 #@! TD.AperFunction*
D20*
X132100000Y-124650000D03*
X141650000Y-122850000D03*
X134700000Y-118750000D03*
X145050000Y-111700000D03*
X133150000Y-108585000D03*
X132715000Y-113919000D03*
X133171900Y-112928100D03*
X141696320Y-115803680D03*
X130250000Y-127150000D03*
X126174500Y-111315500D03*
X144950000Y-113800000D03*
X142761356Y-116438680D03*
X142300000Y-111650000D03*
X133400000Y-110899996D03*
X133303680Y-117100000D03*
D21*
X131409440Y-115742920D02*
X131414520Y-115737840D01*
X131409440Y-121036080D02*
X131409440Y-115742920D01*
D22*
X129650000Y-123747040D02*
X130251200Y-124348240D01*
X129650000Y-121700000D02*
X129650000Y-123747040D01*
X131409440Y-121036080D02*
X130313920Y-121036080D01*
X130313920Y-121036080D02*
X129650000Y-121700000D01*
D21*
X131409440Y-121611080D02*
X132898360Y-123100000D01*
X131409440Y-121036080D02*
X131409440Y-121611080D01*
X132898360Y-123100000D02*
X134600000Y-123100000D01*
X139964360Y-106262480D02*
X139964360Y-106837480D01*
X138801880Y-105100000D02*
X139964360Y-106262480D01*
X135980600Y-105100000D02*
X138801880Y-105100000D01*
X134828280Y-106827320D02*
X134828280Y-106252320D01*
X134828280Y-106252320D02*
X135980600Y-105100000D01*
D23*
X135758160Y-123100000D02*
X134600000Y-123100000D01*
D24*
X136465640Y-123807480D02*
X135758160Y-123100000D01*
X136465640Y-124990480D02*
X136465640Y-123807480D01*
X134541410Y-114559090D02*
X134814960Y-114559090D01*
X133340910Y-114559090D02*
X134541410Y-114559090D01*
X131414520Y-115737840D02*
X132162160Y-115737840D01*
X132162160Y-115737840D02*
X133340910Y-114559090D01*
D21*
X127254000Y-106870500D02*
X127254000Y-106362500D01*
X128524000Y-108140500D02*
X127254000Y-106870500D01*
X128524000Y-113422320D02*
X128524000Y-108140500D01*
X131414520Y-115737840D02*
X130839520Y-115737840D01*
X130839520Y-115737840D02*
X128524000Y-113422320D01*
X134363460Y-106362500D02*
X134828280Y-106827320D01*
X127254000Y-106362500D02*
X134363460Y-106362500D01*
D24*
X134814960Y-113263680D02*
X134814960Y-113898680D01*
X133507480Y-113263680D02*
X134814960Y-113263680D01*
X132476240Y-112232440D02*
X133171900Y-112928100D01*
X131353560Y-112222480D02*
X131363520Y-112232440D01*
X131363520Y-112232440D02*
X132476240Y-112232440D01*
X133171900Y-112928100D02*
X133507480Y-113263680D01*
X140014960Y-115803680D02*
X141696320Y-115803680D01*
X141696320Y-115803680D02*
X141696320Y-115803680D01*
D22*
X130251200Y-126460740D02*
X130250000Y-126461940D01*
X130251200Y-125923240D02*
X130251200Y-126460740D01*
X130250000Y-126461940D02*
X130250000Y-127150000D01*
X130250000Y-127150000D02*
X130250000Y-127150000D01*
X126174500Y-120193000D02*
X126174500Y-128143000D01*
X129789588Y-125461628D02*
X129570708Y-125461628D01*
X127178000Y-120193000D02*
X126174500Y-120193000D01*
X130251200Y-125923240D02*
X129789588Y-125461628D01*
X129570708Y-125461628D02*
X127800000Y-123690920D01*
X127800000Y-123690920D02*
X127800000Y-120815000D01*
X127800000Y-120815000D02*
X127178000Y-120193000D01*
X125372100Y-109017000D02*
X126174500Y-109017000D01*
X125154000Y-108798900D02*
X125372100Y-109017000D01*
X125154000Y-105412500D02*
X125154000Y-108798900D01*
X126174500Y-109944400D02*
X126174500Y-111315500D01*
X126174500Y-109017000D02*
X126174500Y-109944400D01*
X126174500Y-111315500D02*
X126174500Y-116967000D01*
X143581320Y-115168680D02*
X144632501Y-114117499D01*
X144632501Y-114117499D02*
X144950000Y-113800000D01*
X140014960Y-115168680D02*
X143581320Y-115168680D01*
X146660001Y-113589999D02*
X147510000Y-112740000D01*
X146660001Y-114181769D02*
X146660001Y-113589999D01*
X140014960Y-117073680D02*
X143768090Y-117073680D01*
X143768090Y-117073680D02*
X146660001Y-114181769D01*
X140014960Y-116438680D02*
X142761356Y-116438680D01*
X131929900Y-104462500D02*
X127254000Y-104462500D01*
X142300000Y-111650000D02*
X142300000Y-106500000D01*
X132292400Y-104100000D02*
X131929900Y-104462500D01*
X139900000Y-104100000D02*
X132292400Y-104100000D01*
X142300000Y-106500000D02*
X139900000Y-104100000D01*
X138871320Y-112628680D02*
X140014960Y-112628680D01*
X137750000Y-113750000D02*
X138871320Y-112628680D01*
X138409680Y-120131640D02*
X137750000Y-119471960D01*
X137750000Y-119471960D02*
X137750000Y-113750000D01*
X135978680Y-112628680D02*
X134814960Y-112628680D01*
X137100000Y-113750000D02*
X135978680Y-112628680D01*
X136408160Y-120141800D02*
X137100000Y-119449960D01*
X137100000Y-119449960D02*
X137100000Y-113750000D01*
X137115640Y-122424280D02*
X136408160Y-121716800D01*
X137115640Y-124990480D02*
X137115640Y-122424280D01*
X137765640Y-122350680D02*
X138409680Y-121706640D01*
X137765640Y-124990480D02*
X137765640Y-122350680D01*
X136398200Y-109534960D02*
X135936588Y-109073348D01*
X135936588Y-109073348D02*
X135936588Y-107294012D01*
X135936588Y-107294012D02*
X135941668Y-107288932D01*
X135941668Y-107288932D02*
X136403280Y-106827320D01*
X137952948Y-109027628D02*
X137952948Y-107273892D01*
X137952948Y-107273892D02*
X138389360Y-106837480D01*
X138414560Y-109489240D02*
X137952948Y-109027628D01*
X134062560Y-115803680D02*
X134058880Y-115800000D01*
X134814960Y-115803680D02*
X134062560Y-115803680D01*
X134823200Y-109534960D02*
X133458164Y-110899996D01*
X133458164Y-110899996D02*
X133400000Y-110899996D01*
X133303680Y-117096320D02*
X133303680Y-117100000D01*
X133650000Y-116750000D02*
X133303680Y-117096320D01*
X134062560Y-115803680D02*
X133650000Y-116216240D01*
X133650000Y-116216240D02*
X133650000Y-116750000D01*
X140451172Y-109950852D02*
X139989560Y-109489240D01*
X141500000Y-110999680D02*
X140451172Y-109950852D01*
X141500000Y-112531040D02*
X141500000Y-110999680D01*
X140014960Y-113263680D02*
X140767360Y-113263680D01*
X140767360Y-113263680D02*
X141500000Y-112531040D01*
D25*
G36*
X151969000Y-129744000D02*
G01*
X118541000Y-129744000D01*
X118541000Y-128918000D01*
X120386428Y-128918000D01*
X120398688Y-129042482D01*
X120434998Y-129162180D01*
X120493963Y-129272494D01*
X120573315Y-129369185D01*
X120670006Y-129448537D01*
X120780320Y-129507502D01*
X120900018Y-129543812D01*
X121024500Y-129556072D01*
X121388750Y-129553000D01*
X121547500Y-129394250D01*
X121547500Y-128270000D01*
X121801500Y-128270000D01*
X121801500Y-129394250D01*
X121960250Y-129553000D01*
X122324500Y-129556072D01*
X122448982Y-129543812D01*
X122568680Y-129507502D01*
X122678994Y-129448537D01*
X122775685Y-129369185D01*
X122855037Y-129272494D01*
X122914002Y-129162180D01*
X122950312Y-129042482D01*
X122962572Y-128918000D01*
X122959500Y-128428750D01*
X122800750Y-128270000D01*
X121801500Y-128270000D01*
X121547500Y-128270000D01*
X120548250Y-128270000D01*
X120389500Y-128428750D01*
X120386428Y-128918000D01*
X118541000Y-128918000D01*
X118541000Y-127368000D01*
X120386428Y-127368000D01*
X120389500Y-127857250D01*
X120548250Y-128016000D01*
X121547500Y-128016000D01*
X121547500Y-126891750D01*
X121801500Y-126891750D01*
X121801500Y-128016000D01*
X122800750Y-128016000D01*
X122959500Y-127857250D01*
X122962572Y-127368000D01*
X122950312Y-127243518D01*
X122914002Y-127123820D01*
X122855037Y-127013506D01*
X122775685Y-126916815D01*
X122678994Y-126837463D01*
X122568680Y-126778498D01*
X122448982Y-126742188D01*
X122324500Y-126729928D01*
X121960250Y-126733000D01*
X121801500Y-126891750D01*
X121547500Y-126891750D01*
X121388750Y-126733000D01*
X121024500Y-126729928D01*
X120900018Y-126742188D01*
X120780320Y-126778498D01*
X120670006Y-126837463D01*
X120573315Y-126916815D01*
X120493963Y-127013506D01*
X120434998Y-127123820D01*
X120398688Y-127243518D01*
X120386428Y-127368000D01*
X118541000Y-127368000D01*
X118541000Y-120968000D01*
X120386428Y-120968000D01*
X120398688Y-121092482D01*
X120434998Y-121212180D01*
X120493963Y-121322494D01*
X120573315Y-121419185D01*
X120670006Y-121498537D01*
X120780320Y-121557502D01*
X120900018Y-121593812D01*
X121024500Y-121606072D01*
X121388750Y-121603000D01*
X121547500Y-121444250D01*
X121547500Y-120320000D01*
X121801500Y-120320000D01*
X121801500Y-121444250D01*
X121960250Y-121603000D01*
X122324500Y-121606072D01*
X122448982Y-121593812D01*
X122568680Y-121557502D01*
X122678994Y-121498537D01*
X122775685Y-121419185D01*
X122855037Y-121322494D01*
X122914002Y-121212180D01*
X122950312Y-121092482D01*
X122962572Y-120968000D01*
X122959500Y-120478750D01*
X122800750Y-120320000D01*
X121801500Y-120320000D01*
X121547500Y-120320000D01*
X120548250Y-120320000D01*
X120389500Y-120478750D01*
X120386428Y-120968000D01*
X118541000Y-120968000D01*
X118541000Y-119418000D01*
X120386428Y-119418000D01*
X120389500Y-119907250D01*
X120548250Y-120066000D01*
X121547500Y-120066000D01*
X121547500Y-118941750D01*
X121801500Y-118941750D01*
X121801500Y-120066000D01*
X122800750Y-120066000D01*
X122959500Y-119907250D01*
X122962572Y-119418000D01*
X125141657Y-119418000D01*
X125141657Y-120968000D01*
X125149013Y-121042689D01*
X125170799Y-121114508D01*
X125206178Y-121180696D01*
X125253789Y-121238711D01*
X125311804Y-121286322D01*
X125377992Y-121321701D01*
X125449811Y-121343487D01*
X125524500Y-121350843D01*
X125717300Y-121350843D01*
X125717301Y-126985157D01*
X125524500Y-126985157D01*
X125449811Y-126992513D01*
X125377992Y-127014299D01*
X125311804Y-127049678D01*
X125253789Y-127097289D01*
X125206178Y-127155304D01*
X125170799Y-127221492D01*
X125149013Y-127293311D01*
X125141657Y-127368000D01*
X125141657Y-128918000D01*
X125149013Y-128992689D01*
X125170799Y-129064508D01*
X125206178Y-129130696D01*
X125253789Y-129188711D01*
X125311804Y-129236322D01*
X125377992Y-129271701D01*
X125449811Y-129293487D01*
X125524500Y-129300843D01*
X126824500Y-129300843D01*
X126899189Y-129293487D01*
X126971008Y-129271701D01*
X127037196Y-129236322D01*
X127095211Y-129188711D01*
X127142822Y-129130696D01*
X127178201Y-129064508D01*
X127199987Y-128992689D01*
X127207343Y-128918000D01*
X127207343Y-128615480D01*
X132427568Y-128615480D01*
X132439828Y-128739962D01*
X132476138Y-128859660D01*
X132535103Y-128969974D01*
X132614455Y-129066665D01*
X132711146Y-129146017D01*
X132821460Y-129204982D01*
X132941158Y-129241292D01*
X133065640Y-129253552D01*
X133679890Y-129250480D01*
X133838640Y-129091730D01*
X133838640Y-127792480D01*
X134092640Y-127792480D01*
X134092640Y-129091730D01*
X134251390Y-129250480D01*
X134865640Y-129253552D01*
X134990122Y-129241292D01*
X135109820Y-129204982D01*
X135220134Y-129146017D01*
X135240640Y-129129188D01*
X135261146Y-129146017D01*
X135371460Y-129204982D01*
X135491158Y-129241292D01*
X135615640Y-129253552D01*
X136279890Y-129250480D01*
X136438640Y-129091730D01*
X136438640Y-127792480D01*
X136692640Y-127792480D01*
X136692640Y-129091730D01*
X136851390Y-129250480D01*
X137515640Y-129253552D01*
X137640122Y-129241292D01*
X137759820Y-129204982D01*
X137765640Y-129201871D01*
X137771460Y-129204982D01*
X137891158Y-129241292D01*
X138015640Y-129253552D01*
X138679890Y-129250480D01*
X138838640Y-129091730D01*
X138838640Y-127792480D01*
X139092640Y-127792480D01*
X139092640Y-129091730D01*
X139251390Y-129250480D01*
X139915640Y-129253552D01*
X140040122Y-129241292D01*
X140159820Y-129204982D01*
X140270134Y-129146017D01*
X140290640Y-129129188D01*
X140311146Y-129146017D01*
X140421460Y-129204982D01*
X140541158Y-129241292D01*
X140665640Y-129253552D01*
X141279890Y-129250480D01*
X141438640Y-129091730D01*
X141438640Y-127792480D01*
X141692640Y-127792480D01*
X141692640Y-129091730D01*
X141851390Y-129250480D01*
X142465640Y-129253552D01*
X142590122Y-129241292D01*
X142709820Y-129204982D01*
X142820134Y-129146017D01*
X142916825Y-129066665D01*
X142996177Y-128969974D01*
X143055142Y-128859660D01*
X143091452Y-128739962D01*
X143103712Y-128615480D01*
X143100640Y-127951230D01*
X142941890Y-127792480D01*
X141692640Y-127792480D01*
X141438640Y-127792480D01*
X139092640Y-127792480D01*
X138838640Y-127792480D01*
X136692640Y-127792480D01*
X136438640Y-127792480D01*
X134092640Y-127792480D01*
X133838640Y-127792480D01*
X132589390Y-127792480D01*
X132430640Y-127951230D01*
X132427568Y-128615480D01*
X127207343Y-128615480D01*
X127207343Y-127368000D01*
X127199987Y-127293311D01*
X127178201Y-127221492D01*
X127142822Y-127155304D01*
X127095211Y-127097289D01*
X127037196Y-127049678D01*
X126971008Y-127014299D01*
X126899189Y-126992513D01*
X126824500Y-126985157D01*
X126631700Y-126985157D01*
X126631700Y-121350843D01*
X126824500Y-121350843D01*
X126899189Y-121343487D01*
X126971008Y-121321701D01*
X127037196Y-121286322D01*
X127095211Y-121238711D01*
X127142822Y-121180696D01*
X127178201Y-121114508D01*
X127199987Y-121042689D01*
X127207343Y-120968000D01*
X127207343Y-120868921D01*
X127342801Y-121004379D01*
X127342800Y-123668470D01*
X127340589Y-123690920D01*
X127342800Y-123713370D01*
X127342800Y-123713379D01*
X127349415Y-123780546D01*
X127375559Y-123866728D01*
X127418013Y-123946155D01*
X127475147Y-124015773D01*
X127492597Y-124030094D01*
X129231537Y-125769035D01*
X129245855Y-125786481D01*
X129263300Y-125800798D01*
X129315471Y-125843615D01*
X129357925Y-125866306D01*
X129393357Y-125885245D01*
X129393357Y-126141990D01*
X129404916Y-126259355D01*
X129439151Y-126372210D01*
X129494744Y-126476217D01*
X129569560Y-126567380D01*
X129660723Y-126642196D01*
X129731920Y-126680251D01*
X129707439Y-126704732D01*
X129630997Y-126819136D01*
X129578343Y-126946255D01*
X129551500Y-127081204D01*
X129551500Y-127218796D01*
X129578343Y-127353745D01*
X129630997Y-127480864D01*
X129707439Y-127595268D01*
X129804732Y-127692561D01*
X129919136Y-127769003D01*
X130046255Y-127821657D01*
X130181204Y-127848500D01*
X130318796Y-127848500D01*
X130453745Y-127821657D01*
X130580864Y-127769003D01*
X130695268Y-127692561D01*
X130792561Y-127595268D01*
X130869003Y-127480864D01*
X130921657Y-127353745D01*
X130948500Y-127218796D01*
X130948500Y-127081204D01*
X130921657Y-126946255D01*
X130869003Y-126819136D01*
X130792561Y-126704732D01*
X130768916Y-126681087D01*
X130841677Y-126642196D01*
X130932840Y-126567380D01*
X131007656Y-126476217D01*
X131063249Y-126372210D01*
X131097484Y-126259355D01*
X131109043Y-126141990D01*
X131109043Y-125704490D01*
X131097484Y-125587125D01*
X131063249Y-125474270D01*
X131007656Y-125370263D01*
X130932840Y-125279100D01*
X130841677Y-125204284D01*
X130737670Y-125148691D01*
X130694977Y-125135740D01*
X130737670Y-125122789D01*
X130841677Y-125067196D01*
X130932840Y-124992380D01*
X131007656Y-124901217D01*
X131063249Y-124797210D01*
X131097484Y-124684355D01*
X131109043Y-124566990D01*
X131109043Y-124129490D01*
X131097484Y-124012125D01*
X131063249Y-123899270D01*
X131007656Y-123795263D01*
X130932840Y-123704100D01*
X130841677Y-123629284D01*
X130737670Y-123573691D01*
X130624815Y-123539456D01*
X130507450Y-123527897D01*
X130107200Y-123527897D01*
X130107200Y-121889377D01*
X130503299Y-121493280D01*
X130520440Y-121493280D01*
X130520440Y-121567420D01*
X130516140Y-121611080D01*
X130520440Y-121654740D01*
X130520440Y-121654747D01*
X130533304Y-121785354D01*
X130584137Y-121952931D01*
X130666688Y-122107371D01*
X130777782Y-122242739D01*
X130811699Y-122270574D01*
X132238866Y-123697741D01*
X132266701Y-123731659D01*
X132300618Y-123759494D01*
X132300619Y-123759495D01*
X132338618Y-123790680D01*
X132402069Y-123842753D01*
X132556509Y-123925303D01*
X132651118Y-123954002D01*
X132724085Y-123976136D01*
X132740685Y-123977771D01*
X132854693Y-123989000D01*
X132854700Y-123989000D01*
X132898360Y-123993300D01*
X132942020Y-123989000D01*
X133070129Y-123989000D01*
X133026138Y-124071300D01*
X132989828Y-124190998D01*
X132977568Y-124315480D01*
X132980640Y-124829730D01*
X133139390Y-124988480D01*
X134538640Y-124988480D01*
X134538640Y-124968480D01*
X134792640Y-124968480D01*
X134792640Y-124988480D01*
X134812640Y-124988480D01*
X134812640Y-125242480D01*
X134792640Y-125242480D01*
X134792640Y-125262480D01*
X134538640Y-125262480D01*
X134538640Y-125242480D01*
X133139390Y-125242480D01*
X132980640Y-125401230D01*
X132977568Y-125915480D01*
X132989828Y-126039962D01*
X133003057Y-126083572D01*
X132941158Y-126089668D01*
X132821460Y-126125978D01*
X132711146Y-126184943D01*
X132614455Y-126264295D01*
X132535103Y-126360986D01*
X132476138Y-126471300D01*
X132439828Y-126590998D01*
X132427568Y-126715480D01*
X132430640Y-127379730D01*
X132589390Y-127538480D01*
X133838640Y-127538480D01*
X133838640Y-127518480D01*
X134092640Y-127518480D01*
X134092640Y-127538480D01*
X136438640Y-127538480D01*
X136438640Y-126239230D01*
X136317693Y-126118283D01*
X136338916Y-126048323D01*
X136665640Y-126048323D01*
X136740329Y-126040967D01*
X136790640Y-126025705D01*
X136840951Y-126040967D01*
X136915640Y-126048323D01*
X137315640Y-126048323D01*
X137390329Y-126040967D01*
X137440640Y-126025705D01*
X137490951Y-126040967D01*
X137565640Y-126048323D01*
X137965640Y-126048323D01*
X138040329Y-126040967D01*
X138090640Y-126025705D01*
X138140951Y-126040967D01*
X138215640Y-126048323D01*
X138358792Y-126048323D01*
X138383244Y-126079108D01*
X138015640Y-126077408D01*
X137891158Y-126089668D01*
X137771460Y-126125978D01*
X137765640Y-126129089D01*
X137759820Y-126125978D01*
X137640122Y-126089668D01*
X137515640Y-126077408D01*
X136851390Y-126080480D01*
X136692640Y-126239230D01*
X136692640Y-127538480D01*
X138838640Y-127538480D01*
X138838640Y-127518480D01*
X139092640Y-127518480D01*
X139092640Y-127538480D01*
X141438640Y-127538480D01*
X141438640Y-127518480D01*
X141692640Y-127518480D01*
X141692640Y-127538480D01*
X142941890Y-127538480D01*
X143100640Y-127379730D01*
X143103712Y-126715480D01*
X143091452Y-126590998D01*
X143055142Y-126471300D01*
X142996177Y-126360986D01*
X142916825Y-126264295D01*
X142820134Y-126184943D01*
X142709820Y-126125978D01*
X142590122Y-126089668D01*
X142528223Y-126083572D01*
X142541452Y-126039962D01*
X142553712Y-125915480D01*
X142550640Y-125401230D01*
X142391890Y-125242480D01*
X140992640Y-125242480D01*
X140992640Y-125262480D01*
X140738640Y-125262480D01*
X140738640Y-125242480D01*
X139866890Y-125242480D01*
X139741890Y-125117480D01*
X139138640Y-125117480D01*
X139138640Y-126141730D01*
X139164390Y-126167480D01*
X139092642Y-126239228D01*
X139092642Y-126080480D01*
X138992640Y-126080480D01*
X138992640Y-125724807D01*
X138998483Y-125665480D01*
X138998483Y-124315480D01*
X138992640Y-124256153D01*
X138992640Y-123839230D01*
X139138640Y-123839230D01*
X139138640Y-124863480D01*
X139214390Y-124863480D01*
X139339390Y-124988480D01*
X140738640Y-124988480D01*
X140738640Y-123839230D01*
X140992640Y-123839230D01*
X140992640Y-124988480D01*
X142391890Y-124988480D01*
X142550640Y-124829730D01*
X142553712Y-124315480D01*
X142541452Y-124190998D01*
X142505142Y-124071300D01*
X142446177Y-123960986D01*
X142366825Y-123864295D01*
X142270134Y-123784943D01*
X142159820Y-123725978D01*
X142040122Y-123689668D01*
X141915640Y-123677408D01*
X141151390Y-123680480D01*
X140992640Y-123839230D01*
X140738640Y-123839230D01*
X140579890Y-123680480D01*
X139815640Y-123677408D01*
X139691158Y-123689668D01*
X139571460Y-123725978D01*
X139541188Y-123742159D01*
X139519216Y-123729959D01*
X139400114Y-123691739D01*
X139297390Y-123680480D01*
X139138640Y-123839230D01*
X138992640Y-123839230D01*
X138833890Y-123680480D01*
X138731166Y-123691739D01*
X138612064Y-123729959D01*
X138502707Y-123790680D01*
X138407297Y-123871568D01*
X138358792Y-123932637D01*
X138222840Y-123932637D01*
X138222840Y-123256890D01*
X146068524Y-123256890D01*
X146113175Y-123404099D01*
X146238359Y-123666920D01*
X146412412Y-123900269D01*
X146628645Y-124095178D01*
X146878748Y-124244157D01*
X147153109Y-124341481D01*
X147383000Y-124220814D01*
X147383000Y-123027000D01*
X146189845Y-123027000D01*
X146068524Y-123256890D01*
X138222840Y-123256890D01*
X138222840Y-122543110D01*
X146068524Y-122543110D01*
X146189845Y-122773000D01*
X147383000Y-122773000D01*
X147383000Y-122753000D01*
X147637000Y-122753000D01*
X147637000Y-122773000D01*
X147657000Y-122773000D01*
X147657000Y-123027000D01*
X147637000Y-123027000D01*
X147637000Y-124220814D01*
X147866891Y-124341481D01*
X148141252Y-124244157D01*
X148391355Y-124095178D01*
X148607588Y-123900269D01*
X148781641Y-123666920D01*
X148906825Y-123404099D01*
X148915091Y-123376846D01*
X148959102Y-123483097D01*
X149093820Y-123684717D01*
X149265283Y-123856180D01*
X149466903Y-123990898D01*
X149690931Y-124083693D01*
X149928757Y-124131000D01*
X150171243Y-124131000D01*
X150409069Y-124083693D01*
X150633097Y-123990898D01*
X150834717Y-123856180D01*
X151006180Y-123684717D01*
X151140898Y-123483097D01*
X151233693Y-123259069D01*
X151281000Y-123021243D01*
X151281000Y-122778757D01*
X151233693Y-122540931D01*
X151140898Y-122316903D01*
X151006180Y-122115283D01*
X150834717Y-121943820D01*
X150633097Y-121809102D01*
X150409069Y-121716307D01*
X150171243Y-121669000D01*
X149928757Y-121669000D01*
X149690931Y-121716307D01*
X149466903Y-121809102D01*
X149265283Y-121943820D01*
X149093820Y-122115283D01*
X148959102Y-122316903D01*
X148915091Y-122423154D01*
X148906825Y-122395901D01*
X148781641Y-122133080D01*
X148607588Y-121899731D01*
X148391355Y-121704822D01*
X148141252Y-121555843D01*
X147978832Y-121498228D01*
X148093097Y-121450898D01*
X148294717Y-121316180D01*
X148466180Y-121144717D01*
X148600898Y-120943097D01*
X148693693Y-120719069D01*
X148741000Y-120481243D01*
X148741000Y-120238757D01*
X148819000Y-120238757D01*
X148819000Y-120481243D01*
X148866307Y-120719069D01*
X148959102Y-120943097D01*
X149093820Y-121144717D01*
X149265283Y-121316180D01*
X149466903Y-121450898D01*
X149690931Y-121543693D01*
X149928757Y-121591000D01*
X150171243Y-121591000D01*
X150409069Y-121543693D01*
X150633097Y-121450898D01*
X150834717Y-121316180D01*
X151006180Y-121144717D01*
X151140898Y-120943097D01*
X151233693Y-120719069D01*
X151281000Y-120481243D01*
X151281000Y-120238757D01*
X151233693Y-120000931D01*
X151140898Y-119776903D01*
X151006180Y-119575283D01*
X150834717Y-119403820D01*
X150633097Y-119269102D01*
X150409069Y-119176307D01*
X150171243Y-119129000D01*
X149928757Y-119129000D01*
X149690931Y-119176307D01*
X149466903Y-119269102D01*
X149265283Y-119403820D01*
X149093820Y-119575283D01*
X148959102Y-119776903D01*
X148866307Y-120000931D01*
X148819000Y-120238757D01*
X148741000Y-120238757D01*
X148693693Y-120000931D01*
X148600898Y-119776903D01*
X148466180Y-119575283D01*
X148294717Y-119403820D01*
X148093097Y-119269102D01*
X147869069Y-119176307D01*
X147631243Y-119129000D01*
X147388757Y-119129000D01*
X147150931Y-119176307D01*
X146926903Y-119269102D01*
X146725283Y-119403820D01*
X146553820Y-119575283D01*
X146419102Y-119776903D01*
X146326307Y-120000931D01*
X146279000Y-120238757D01*
X146279000Y-120481243D01*
X146326307Y-120719069D01*
X146419102Y-120943097D01*
X146553820Y-121144717D01*
X146725283Y-121316180D01*
X146926903Y-121450898D01*
X147041168Y-121498228D01*
X146878748Y-121555843D01*
X146628645Y-121704822D01*
X146412412Y-121899731D01*
X146238359Y-122133080D01*
X146113175Y-122395901D01*
X146068524Y-122543110D01*
X138222840Y-122543110D01*
X138222840Y-122540057D01*
X138235914Y-122526983D01*
X138665930Y-122526983D01*
X138783295Y-122515424D01*
X138896150Y-122481189D01*
X139000157Y-122425596D01*
X139091320Y-122350780D01*
X139166136Y-122259617D01*
X139221729Y-122155610D01*
X139255964Y-122042755D01*
X139267523Y-121925390D01*
X139267523Y-121487890D01*
X139255964Y-121370525D01*
X139221729Y-121257670D01*
X139166136Y-121153663D01*
X139091320Y-121062500D01*
X139000157Y-120987684D01*
X138896150Y-120932091D01*
X138853457Y-120919140D01*
X138896150Y-120906189D01*
X139000157Y-120850596D01*
X139091320Y-120775780D01*
X139166136Y-120684617D01*
X139221729Y-120580610D01*
X139255964Y-120467755D01*
X139267523Y-120350390D01*
X139267523Y-119912890D01*
X139255964Y-119795525D01*
X139221729Y-119682670D01*
X139166136Y-119578663D01*
X139091320Y-119487500D01*
X139000157Y-119412684D01*
X138896150Y-119357091D01*
X138783295Y-119322856D01*
X138665930Y-119311297D01*
X138235914Y-119311297D01*
X138207200Y-119282583D01*
X138207200Y-117698757D01*
X146279000Y-117698757D01*
X146279000Y-117941243D01*
X146326307Y-118179069D01*
X146419102Y-118403097D01*
X146553820Y-118604717D01*
X146725283Y-118776180D01*
X146926903Y-118910898D01*
X147150931Y-119003693D01*
X147388757Y-119051000D01*
X147631243Y-119051000D01*
X147869069Y-119003693D01*
X148093097Y-118910898D01*
X148294717Y-118776180D01*
X148466180Y-118604717D01*
X148600898Y-118403097D01*
X148693693Y-118179069D01*
X148741000Y-117941243D01*
X148741000Y-117698757D01*
X148819000Y-117698757D01*
X148819000Y-117941243D01*
X148866307Y-118179069D01*
X148959102Y-118403097D01*
X149093820Y-118604717D01*
X149265283Y-118776180D01*
X149466903Y-118910898D01*
X149690931Y-119003693D01*
X149928757Y-119051000D01*
X150171243Y-119051000D01*
X150409069Y-119003693D01*
X150633097Y-118910898D01*
X150834717Y-118776180D01*
X151006180Y-118604717D01*
X151140898Y-118403097D01*
X151233693Y-118179069D01*
X151281000Y-117941243D01*
X151281000Y-117698757D01*
X151233693Y-117460931D01*
X151140898Y-117236903D01*
X151006180Y-117035283D01*
X150834717Y-116863820D01*
X150633097Y-116729102D01*
X150409069Y-116636307D01*
X150171243Y-116589000D01*
X149928757Y-116589000D01*
X149690931Y-116636307D01*
X149466903Y-116729102D01*
X149265283Y-116863820D01*
X149093820Y-117035283D01*
X148959102Y-117236903D01*
X148866307Y-117460931D01*
X148819000Y-117698757D01*
X148741000Y-117698757D01*
X148693693Y-117460931D01*
X148600898Y-117236903D01*
X148466180Y-117035283D01*
X148294717Y-116863820D01*
X148093097Y-116729102D01*
X147869069Y-116636307D01*
X147631243Y-116589000D01*
X147388757Y-116589000D01*
X147150931Y-116636307D01*
X146926903Y-116729102D01*
X146725283Y-116863820D01*
X146553820Y-117035283D01*
X146419102Y-117236903D01*
X146326307Y-117460931D01*
X146279000Y-117698757D01*
X138207200Y-117698757D01*
X138207200Y-114765430D01*
X138779960Y-114765430D01*
X138791396Y-114868969D01*
X138829771Y-114988021D01*
X138890635Y-115097299D01*
X138971648Y-115192603D01*
X139032117Y-115240503D01*
X139032117Y-115368680D01*
X139039473Y-115443369D01*
X139052460Y-115486180D01*
X139039473Y-115528991D01*
X139032117Y-115603680D01*
X139032117Y-116003680D01*
X139039473Y-116078369D01*
X139052460Y-116121180D01*
X139039473Y-116163991D01*
X139032117Y-116238680D01*
X139032117Y-116638680D01*
X139039473Y-116713369D01*
X139052460Y-116756180D01*
X139039473Y-116798991D01*
X139032117Y-116873680D01*
X139032117Y-117273680D01*
X139039473Y-117348369D01*
X139061259Y-117420188D01*
X139096638Y-117486376D01*
X139144249Y-117544391D01*
X139202264Y-117592002D01*
X139268452Y-117627381D01*
X139340271Y-117649167D01*
X139414960Y-117656523D01*
X140614960Y-117656523D01*
X140689649Y-117649167D01*
X140761468Y-117627381D01*
X140827656Y-117592002D01*
X140885671Y-117544391D01*
X140896759Y-117530880D01*
X143745640Y-117530880D01*
X143768090Y-117533091D01*
X143790540Y-117530880D01*
X143790550Y-117530880D01*
X143857717Y-117524265D01*
X143943899Y-117498121D01*
X144023326Y-117455667D01*
X144092943Y-117398533D01*
X144107264Y-117381083D01*
X146279000Y-115209349D01*
X146279000Y-115401243D01*
X146326307Y-115639069D01*
X146419102Y-115863097D01*
X146553820Y-116064717D01*
X146725283Y-116236180D01*
X146926903Y-116370898D01*
X147150931Y-116463693D01*
X147388757Y-116511000D01*
X147631243Y-116511000D01*
X147869069Y-116463693D01*
X148093097Y-116370898D01*
X148294717Y-116236180D01*
X148466180Y-116064717D01*
X148600898Y-115863097D01*
X148693693Y-115639069D01*
X148741000Y-115401243D01*
X148741000Y-115158757D01*
X148819000Y-115158757D01*
X148819000Y-115401243D01*
X148866307Y-115639069D01*
X148959102Y-115863097D01*
X149093820Y-116064717D01*
X149265283Y-116236180D01*
X149466903Y-116370898D01*
X149690931Y-116463693D01*
X149928757Y-116511000D01*
X150171243Y-116511000D01*
X150409069Y-116463693D01*
X150633097Y-116370898D01*
X150834717Y-116236180D01*
X151006180Y-116064717D01*
X151140898Y-115863097D01*
X151233693Y-115639069D01*
X151281000Y-115401243D01*
X151281000Y-115158757D01*
X151233693Y-114920931D01*
X151140898Y-114696903D01*
X151006180Y-114495283D01*
X150834717Y-114323820D01*
X150633097Y-114189102D01*
X150409069Y-114096307D01*
X150171243Y-114049000D01*
X149928757Y-114049000D01*
X149690931Y-114096307D01*
X149466903Y-114189102D01*
X149265283Y-114323820D01*
X149093820Y-114495283D01*
X148959102Y-114696903D01*
X148866307Y-114920931D01*
X148819000Y-115158757D01*
X148741000Y-115158757D01*
X148693693Y-114920931D01*
X148600898Y-114696903D01*
X148466180Y-114495283D01*
X148294717Y-114323820D01*
X148093097Y-114189102D01*
X147869069Y-114096307D01*
X147631243Y-114049000D01*
X147388757Y-114049000D01*
X147150931Y-114096307D01*
X147117201Y-114110278D01*
X147117201Y-113909722D01*
X147150931Y-113923693D01*
X147388757Y-113971000D01*
X147631243Y-113971000D01*
X147869069Y-113923693D01*
X148093097Y-113830898D01*
X148294717Y-113696180D01*
X148466180Y-113524717D01*
X148600898Y-113323097D01*
X148693693Y-113099069D01*
X148741000Y-112861243D01*
X148741000Y-112618757D01*
X148693693Y-112380931D01*
X148600898Y-112156903D01*
X148466180Y-111955283D01*
X148400897Y-111890000D01*
X148817157Y-111890000D01*
X148817157Y-113590000D01*
X148824513Y-113664689D01*
X148846299Y-113736508D01*
X148881678Y-113802696D01*
X148929289Y-113860711D01*
X148987304Y-113908322D01*
X149053492Y-113943701D01*
X149125311Y-113965487D01*
X149200000Y-113972843D01*
X150900000Y-113972843D01*
X150974689Y-113965487D01*
X151046508Y-113943701D01*
X151112696Y-113908322D01*
X151170711Y-113860711D01*
X151218322Y-113802696D01*
X151253701Y-113736508D01*
X151275487Y-113664689D01*
X151282843Y-113590000D01*
X151282843Y-111890000D01*
X151275487Y-111815311D01*
X151253701Y-111743492D01*
X151218322Y-111677304D01*
X151170711Y-111619289D01*
X151112696Y-111571678D01*
X151046508Y-111536299D01*
X150974689Y-111514513D01*
X150900000Y-111507157D01*
X149200000Y-111507157D01*
X149125311Y-111514513D01*
X149053492Y-111536299D01*
X148987304Y-111571678D01*
X148929289Y-111619289D01*
X148881678Y-111677304D01*
X148846299Y-111743492D01*
X148824513Y-111815311D01*
X148817157Y-111890000D01*
X148400897Y-111890000D01*
X148294717Y-111783820D01*
X148093097Y-111649102D01*
X147869069Y-111556307D01*
X147631243Y-111509000D01*
X147388757Y-111509000D01*
X147150931Y-111556307D01*
X146926903Y-111649102D01*
X146725283Y-111783820D01*
X146553820Y-111955283D01*
X146419102Y-112156903D01*
X146326307Y-112380931D01*
X146279000Y-112618757D01*
X146279000Y-112861243D01*
X146326307Y-113099069D01*
X146378456Y-113224967D01*
X146352593Y-113250829D01*
X146335149Y-113265146D01*
X146320832Y-113282591D01*
X146320831Y-113282592D01*
X146278014Y-113334764D01*
X146249473Y-113388162D01*
X146235561Y-113414190D01*
X146211119Y-113494764D01*
X146209417Y-113500373D01*
X146200590Y-113589999D01*
X146202802Y-113612458D01*
X146202801Y-113992390D01*
X143578713Y-116616480D01*
X143438174Y-116616480D01*
X143459856Y-116507476D01*
X143459856Y-116369884D01*
X143433013Y-116234935D01*
X143380359Y-116107816D01*
X143303917Y-115993412D01*
X143206624Y-115896119D01*
X143092220Y-115819677D01*
X142965101Y-115767023D01*
X142830152Y-115740180D01*
X142692560Y-115740180D01*
X142557611Y-115767023D01*
X142430492Y-115819677D01*
X142394820Y-115843512D01*
X142394820Y-115734884D01*
X142373138Y-115625880D01*
X143558870Y-115625880D01*
X143581320Y-115628091D01*
X143603770Y-115625880D01*
X143603780Y-115625880D01*
X143670947Y-115619265D01*
X143757129Y-115593121D01*
X143836556Y-115550667D01*
X143906173Y-115493533D01*
X143920494Y-115476083D01*
X144898078Y-114498500D01*
X145018796Y-114498500D01*
X145153745Y-114471657D01*
X145280864Y-114419003D01*
X145395268Y-114342561D01*
X145492561Y-114245268D01*
X145569003Y-114130864D01*
X145621657Y-114003745D01*
X145648500Y-113868796D01*
X145648500Y-113731204D01*
X145621657Y-113596255D01*
X145569003Y-113469136D01*
X145492561Y-113354732D01*
X145395268Y-113257439D01*
X145280864Y-113180997D01*
X145153745Y-113128343D01*
X145018796Y-113101500D01*
X144881204Y-113101500D01*
X144746255Y-113128343D01*
X144619136Y-113180997D01*
X144504732Y-113257439D01*
X144407439Y-113354732D01*
X144330997Y-113469136D01*
X144278343Y-113596255D01*
X144251500Y-113731204D01*
X144251500Y-113851922D01*
X143391943Y-114711480D01*
X141196010Y-114711480D01*
X141091210Y-114606680D01*
X140734110Y-114606680D01*
X140689649Y-114593193D01*
X140614960Y-114585837D01*
X139414960Y-114585837D01*
X139340271Y-114593193D01*
X139295810Y-114606680D01*
X138938710Y-114606680D01*
X138779960Y-114765430D01*
X138207200Y-114765430D01*
X138207200Y-113939377D01*
X139032117Y-113114461D01*
X139032117Y-113463680D01*
X139039473Y-113538369D01*
X139052460Y-113581180D01*
X139039473Y-113623991D01*
X139032117Y-113698680D01*
X139032117Y-113826857D01*
X138971648Y-113874757D01*
X138890635Y-113970061D01*
X138829771Y-114079339D01*
X138791396Y-114198391D01*
X138779960Y-114301930D01*
X138938710Y-114460680D01*
X139295810Y-114460680D01*
X139340271Y-114474167D01*
X139414960Y-114481523D01*
X140614960Y-114481523D01*
X140689649Y-114474167D01*
X140734110Y-114460680D01*
X141091210Y-114460680D01*
X141249960Y-114301930D01*
X141238524Y-114198391D01*
X141200149Y-114079339D01*
X141139285Y-113970061D01*
X141058272Y-113874757D01*
X140997803Y-113826857D01*
X140997803Y-113698680D01*
X140994083Y-113660907D01*
X141022596Y-113645667D01*
X141092213Y-113588533D01*
X141106534Y-113571083D01*
X141807409Y-112870209D01*
X141824853Y-112855893D01*
X141846409Y-112829627D01*
X141881987Y-112786277D01*
X141915084Y-112724355D01*
X141924441Y-112706849D01*
X141950585Y-112620667D01*
X141957200Y-112553500D01*
X141957200Y-112553491D01*
X141959411Y-112531041D01*
X141957200Y-112508591D01*
X141957200Y-112261028D01*
X141969136Y-112269003D01*
X142096255Y-112321657D01*
X142231204Y-112348500D01*
X142368796Y-112348500D01*
X142503745Y-112321657D01*
X142630864Y-112269003D01*
X142745268Y-112192561D01*
X142842561Y-112095268D01*
X142919003Y-111980864D01*
X142971657Y-111853745D01*
X142998500Y-111718796D01*
X142998500Y-111581204D01*
X142971657Y-111446255D01*
X142919003Y-111319136D01*
X142842561Y-111204732D01*
X142757200Y-111119371D01*
X142757200Y-106522452D01*
X142759411Y-106500000D01*
X142757200Y-106477548D01*
X142757200Y-106477540D01*
X142750585Y-106410373D01*
X142737703Y-106367909D01*
X142724441Y-106324190D01*
X142681987Y-106244764D01*
X142639171Y-106192592D01*
X142639165Y-106192586D01*
X142624853Y-106175147D01*
X142607414Y-106160835D01*
X140239174Y-103792597D01*
X140224853Y-103775147D01*
X140155236Y-103718013D01*
X140075809Y-103675559D01*
X139989627Y-103649415D01*
X139922460Y-103642800D01*
X139922450Y-103642800D01*
X139900000Y-103640589D01*
X139877550Y-103642800D01*
X132314849Y-103642800D01*
X132292399Y-103640589D01*
X132269949Y-103642800D01*
X132269940Y-103642800D01*
X132202773Y-103649415D01*
X132116591Y-103675559D01*
X132079617Y-103695322D01*
X132037163Y-103718013D01*
X131984992Y-103760830D01*
X131967547Y-103775147D01*
X131953230Y-103792592D01*
X131740523Y-104005300D01*
X128251986Y-104005300D01*
X128222322Y-103949804D01*
X128174711Y-103891789D01*
X128116696Y-103844178D01*
X128050508Y-103808799D01*
X127978689Y-103787013D01*
X127904000Y-103779657D01*
X126604000Y-103779657D01*
X126529311Y-103787013D01*
X126457492Y-103808799D01*
X126391304Y-103844178D01*
X126333289Y-103891789D01*
X126285678Y-103949804D01*
X126250299Y-104015992D01*
X126228513Y-104087811D01*
X126221157Y-104162500D01*
X126221157Y-104762500D01*
X126228513Y-104837189D01*
X126250299Y-104909008D01*
X126285678Y-104975196D01*
X126333289Y-105033211D01*
X126391304Y-105080822D01*
X126457492Y-105116201D01*
X126529311Y-105137987D01*
X126604000Y-105145343D01*
X127904000Y-105145343D01*
X127978689Y-105137987D01*
X128050508Y-105116201D01*
X128116696Y-105080822D01*
X128174711Y-105033211D01*
X128222322Y-104975196D01*
X128251986Y-104919700D01*
X131907450Y-104919700D01*
X131929900Y-104921911D01*
X131952350Y-104919700D01*
X131952360Y-104919700D01*
X132019527Y-104913085D01*
X132105709Y-104886941D01*
X132185136Y-104844487D01*
X132254753Y-104787353D01*
X132269074Y-104769903D01*
X132481778Y-104557200D01*
X135266164Y-104557200D01*
X134353149Y-105470215D01*
X134319800Y-105473500D01*
X127297667Y-105473500D01*
X127254000Y-105469199D01*
X127210333Y-105473500D01*
X127079726Y-105486364D01*
X126912149Y-105537197D01*
X126757709Y-105619747D01*
X126684709Y-105679657D01*
X126604000Y-105679657D01*
X126529311Y-105687013D01*
X126457492Y-105708799D01*
X126391304Y-105744178D01*
X126333289Y-105791789D01*
X126285678Y-105849804D01*
X126250299Y-105915992D01*
X126228513Y-105987811D01*
X126221157Y-106062500D01*
X126221157Y-106662500D01*
X126228513Y-106737189D01*
X126250299Y-106809008D01*
X126285678Y-106875196D01*
X126333289Y-106933211D01*
X126369829Y-106963199D01*
X126377864Y-107044773D01*
X126428697Y-107212350D01*
X126511247Y-107366790D01*
X126622341Y-107502159D01*
X126656264Y-107529999D01*
X127635001Y-108508737D01*
X127635000Y-113378660D01*
X127630700Y-113422320D01*
X127635000Y-113465980D01*
X127635000Y-113465986D01*
X127642759Y-113544765D01*
X127647864Y-113596594D01*
X127656966Y-113626600D01*
X127689773Y-113734749D01*
X127698698Y-113764172D01*
X127706265Y-113778329D01*
X127781247Y-113918610D01*
X127892341Y-114053979D01*
X127926264Y-114081819D01*
X130180024Y-116335580D01*
X130207861Y-116369499D01*
X130343229Y-116480593D01*
X130466764Y-116546624D01*
X130488390Y-116558183D01*
X130497669Y-116563143D01*
X130520441Y-116570051D01*
X130520440Y-120578880D01*
X130336370Y-120578880D01*
X130313920Y-120576669D01*
X130291470Y-120578880D01*
X130291460Y-120578880D01*
X130224293Y-120585495D01*
X130158169Y-120605554D01*
X130138110Y-120611639D01*
X130058684Y-120654093D01*
X130006512Y-120696909D01*
X130006506Y-120696915D01*
X129989067Y-120711227D01*
X129974754Y-120728667D01*
X129342597Y-121360826D01*
X129325147Y-121375147D01*
X129268013Y-121444765D01*
X129225559Y-121524192D01*
X129199415Y-121610374D01*
X129192800Y-121677541D01*
X129192800Y-121677550D01*
X129190589Y-121700000D01*
X129192800Y-121722450D01*
X129192801Y-123724580D01*
X129190589Y-123747040D01*
X129192801Y-123769500D01*
X129199416Y-123836667D01*
X129218407Y-123899270D01*
X129225560Y-123922849D01*
X129268013Y-124002275D01*
X129302888Y-124044769D01*
X129325148Y-124071893D01*
X129342592Y-124086209D01*
X129393357Y-124136974D01*
X129393357Y-124566990D01*
X129401082Y-124645424D01*
X128257200Y-123501543D01*
X128257200Y-120837450D01*
X128259411Y-120815000D01*
X128257200Y-120792550D01*
X128257200Y-120792540D01*
X128250585Y-120725373D01*
X128224441Y-120639191D01*
X128181987Y-120559764D01*
X128124853Y-120490147D01*
X128107408Y-120475830D01*
X127517174Y-119885597D01*
X127502853Y-119868147D01*
X127433236Y-119811013D01*
X127353809Y-119768559D01*
X127267627Y-119742415D01*
X127207343Y-119736478D01*
X127207343Y-119418000D01*
X127199987Y-119343311D01*
X127178201Y-119271492D01*
X127142822Y-119205304D01*
X127095211Y-119147289D01*
X127037196Y-119099678D01*
X126971008Y-119064299D01*
X126899189Y-119042513D01*
X126824500Y-119035157D01*
X125524500Y-119035157D01*
X125449811Y-119042513D01*
X125377992Y-119064299D01*
X125311804Y-119099678D01*
X125253789Y-119147289D01*
X125206178Y-119205304D01*
X125170799Y-119271492D01*
X125149013Y-119343311D01*
X125141657Y-119418000D01*
X122962572Y-119418000D01*
X122950312Y-119293518D01*
X122914002Y-119173820D01*
X122855037Y-119063506D01*
X122775685Y-118966815D01*
X122678994Y-118887463D01*
X122568680Y-118828498D01*
X122448982Y-118792188D01*
X122324500Y-118779928D01*
X121960250Y-118783000D01*
X121801500Y-118941750D01*
X121547500Y-118941750D01*
X121388750Y-118783000D01*
X121024500Y-118779928D01*
X120900018Y-118792188D01*
X120780320Y-118828498D01*
X120670006Y-118887463D01*
X120573315Y-118966815D01*
X120493963Y-119063506D01*
X120434998Y-119173820D01*
X120398688Y-119293518D01*
X120386428Y-119418000D01*
X118541000Y-119418000D01*
X118541000Y-117742000D01*
X120386428Y-117742000D01*
X120398688Y-117866482D01*
X120434998Y-117986180D01*
X120493963Y-118096494D01*
X120573315Y-118193185D01*
X120670006Y-118272537D01*
X120780320Y-118331502D01*
X120900018Y-118367812D01*
X121024500Y-118380072D01*
X121388750Y-118377000D01*
X121547500Y-118218250D01*
X121547500Y-117094000D01*
X121801500Y-117094000D01*
X121801500Y-118218250D01*
X121960250Y-118377000D01*
X122324500Y-118380072D01*
X122448982Y-118367812D01*
X122568680Y-118331502D01*
X122678994Y-118272537D01*
X122775685Y-118193185D01*
X122855037Y-118096494D01*
X122914002Y-117986180D01*
X122950312Y-117866482D01*
X122962572Y-117742000D01*
X122959500Y-117252750D01*
X122800750Y-117094000D01*
X121801500Y-117094000D01*
X121547500Y-117094000D01*
X120548250Y-117094000D01*
X120389500Y-117252750D01*
X120386428Y-117742000D01*
X118541000Y-117742000D01*
X118541000Y-116192000D01*
X120386428Y-116192000D01*
X120389500Y-116681250D01*
X120548250Y-116840000D01*
X121547500Y-116840000D01*
X121547500Y-115715750D01*
X121801500Y-115715750D01*
X121801500Y-116840000D01*
X122800750Y-116840000D01*
X122959500Y-116681250D01*
X122962572Y-116192000D01*
X122950312Y-116067518D01*
X122914002Y-115947820D01*
X122855037Y-115837506D01*
X122775685Y-115740815D01*
X122678994Y-115661463D01*
X122568680Y-115602498D01*
X122448982Y-115566188D01*
X122324500Y-115553928D01*
X121960250Y-115557000D01*
X121801500Y-115715750D01*
X121547500Y-115715750D01*
X121388750Y-115557000D01*
X121024500Y-115553928D01*
X120900018Y-115566188D01*
X120780320Y-115602498D01*
X120670006Y-115661463D01*
X120573315Y-115740815D01*
X120493963Y-115837506D01*
X120434998Y-115947820D01*
X120398688Y-116067518D01*
X120386428Y-116192000D01*
X118541000Y-116192000D01*
X118541000Y-109792000D01*
X120386428Y-109792000D01*
X120398688Y-109916482D01*
X120434998Y-110036180D01*
X120493963Y-110146494D01*
X120573315Y-110243185D01*
X120670006Y-110322537D01*
X120780320Y-110381502D01*
X120900018Y-110417812D01*
X121024500Y-110430072D01*
X121388750Y-110427000D01*
X121547500Y-110268250D01*
X121547500Y-109144000D01*
X121801500Y-109144000D01*
X121801500Y-110268250D01*
X121960250Y-110427000D01*
X122324500Y-110430072D01*
X122448982Y-110417812D01*
X122568680Y-110381502D01*
X122678994Y-110322537D01*
X122775685Y-110243185D01*
X122855037Y-110146494D01*
X122914002Y-110036180D01*
X122950312Y-109916482D01*
X122962572Y-109792000D01*
X122959500Y-109302750D01*
X122800750Y-109144000D01*
X121801500Y-109144000D01*
X121547500Y-109144000D01*
X120548250Y-109144000D01*
X120389500Y-109302750D01*
X120386428Y-109792000D01*
X118541000Y-109792000D01*
X118541000Y-108242000D01*
X120386428Y-108242000D01*
X120389500Y-108731250D01*
X120548250Y-108890000D01*
X121547500Y-108890000D01*
X121547500Y-107765750D01*
X121801500Y-107765750D01*
X121801500Y-108890000D01*
X122800750Y-108890000D01*
X122959500Y-108731250D01*
X122962572Y-108242000D01*
X122950312Y-108117518D01*
X122914002Y-107997820D01*
X122855037Y-107887506D01*
X122775685Y-107790815D01*
X122678994Y-107711463D01*
X122568680Y-107652498D01*
X122448982Y-107616188D01*
X122324500Y-107603928D01*
X121960250Y-107607000D01*
X121801500Y-107765750D01*
X121547500Y-107765750D01*
X121388750Y-107607000D01*
X121024500Y-107603928D01*
X120900018Y-107616188D01*
X120780320Y-107652498D01*
X120670006Y-107711463D01*
X120573315Y-107790815D01*
X120493963Y-107887506D01*
X120434998Y-107997820D01*
X120398688Y-108117518D01*
X120386428Y-108242000D01*
X118541000Y-108242000D01*
X118541000Y-105112500D01*
X124121157Y-105112500D01*
X124121157Y-105712500D01*
X124128513Y-105787189D01*
X124150299Y-105859008D01*
X124185678Y-105925196D01*
X124233289Y-105983211D01*
X124291304Y-106030822D01*
X124357492Y-106066201D01*
X124429311Y-106087987D01*
X124504000Y-106095343D01*
X124696800Y-106095343D01*
X124696801Y-108776440D01*
X124694589Y-108798900D01*
X124703416Y-108888526D01*
X124729560Y-108974709D01*
X124772013Y-109054135D01*
X124796832Y-109084376D01*
X124829148Y-109123753D01*
X124846593Y-109138070D01*
X125032926Y-109324403D01*
X125047247Y-109341853D01*
X125116864Y-109398987D01*
X125141657Y-109412239D01*
X125141657Y-109792000D01*
X125149013Y-109866689D01*
X125170799Y-109938508D01*
X125206178Y-110004696D01*
X125253789Y-110062711D01*
X125311804Y-110110322D01*
X125377992Y-110145701D01*
X125449811Y-110167487D01*
X125524500Y-110174843D01*
X125717300Y-110174843D01*
X125717301Y-110784870D01*
X125631939Y-110870232D01*
X125555497Y-110984636D01*
X125502843Y-111111755D01*
X125476000Y-111246704D01*
X125476000Y-111384296D01*
X125502843Y-111519245D01*
X125555497Y-111646364D01*
X125631939Y-111760768D01*
X125717300Y-111846129D01*
X125717301Y-115809157D01*
X125524500Y-115809157D01*
X125449811Y-115816513D01*
X125377992Y-115838299D01*
X125311804Y-115873678D01*
X125253789Y-115921289D01*
X125206178Y-115979304D01*
X125170799Y-116045492D01*
X125149013Y-116117311D01*
X125141657Y-116192000D01*
X125141657Y-117742000D01*
X125149013Y-117816689D01*
X125170799Y-117888508D01*
X125206178Y-117954696D01*
X125253789Y-118012711D01*
X125311804Y-118060322D01*
X125377992Y-118095701D01*
X125449811Y-118117487D01*
X125524500Y-118124843D01*
X126824500Y-118124843D01*
X126899189Y-118117487D01*
X126971008Y-118095701D01*
X127037196Y-118060322D01*
X127095211Y-118012711D01*
X127142822Y-117954696D01*
X127178201Y-117888508D01*
X127199987Y-117816689D01*
X127207343Y-117742000D01*
X127207343Y-116192000D01*
X127199987Y-116117311D01*
X127178201Y-116045492D01*
X127142822Y-115979304D01*
X127095211Y-115921289D01*
X127037196Y-115873678D01*
X126971008Y-115838299D01*
X126899189Y-115816513D01*
X126824500Y-115809157D01*
X126631700Y-115809157D01*
X126631700Y-111846129D01*
X126717061Y-111760768D01*
X126793503Y-111646364D01*
X126846157Y-111519245D01*
X126873000Y-111384296D01*
X126873000Y-111246704D01*
X126846157Y-111111755D01*
X126793503Y-110984636D01*
X126717061Y-110870232D01*
X126631700Y-110784871D01*
X126631700Y-110174843D01*
X126824500Y-110174843D01*
X126899189Y-110167487D01*
X126971008Y-110145701D01*
X127037196Y-110110322D01*
X127095211Y-110062711D01*
X127142822Y-110004696D01*
X127178201Y-109938508D01*
X127199987Y-109866689D01*
X127207343Y-109792000D01*
X127207343Y-108242000D01*
X127199987Y-108167311D01*
X127178201Y-108095492D01*
X127142822Y-108029304D01*
X127095211Y-107971289D01*
X127037196Y-107923678D01*
X126971008Y-107888299D01*
X126899189Y-107866513D01*
X126824500Y-107859157D01*
X125611200Y-107859157D01*
X125611200Y-106095343D01*
X125804000Y-106095343D01*
X125878689Y-106087987D01*
X125950508Y-106066201D01*
X126016696Y-106030822D01*
X126074711Y-105983211D01*
X126122322Y-105925196D01*
X126157701Y-105859008D01*
X126179487Y-105787189D01*
X126186843Y-105712500D01*
X126186843Y-105112500D01*
X126179487Y-105037811D01*
X126157701Y-104965992D01*
X126122322Y-104899804D01*
X126074711Y-104841789D01*
X126016696Y-104794178D01*
X125950508Y-104758799D01*
X125878689Y-104737013D01*
X125804000Y-104729657D01*
X124504000Y-104729657D01*
X124429311Y-104737013D01*
X124357492Y-104758799D01*
X124291304Y-104794178D01*
X124233289Y-104841789D01*
X124185678Y-104899804D01*
X124150299Y-104965992D01*
X124128513Y-105037811D01*
X124121157Y-105112500D01*
X118541000Y-105112500D01*
X118541000Y-103301000D01*
X151969001Y-103301000D01*
X151969000Y-129744000D01*
G37*
X151969000Y-129744000D02*
X118541000Y-129744000D01*
X118541000Y-128918000D01*
X120386428Y-128918000D01*
X120398688Y-129042482D01*
X120434998Y-129162180D01*
X120493963Y-129272494D01*
X120573315Y-129369185D01*
X120670006Y-129448537D01*
X120780320Y-129507502D01*
X120900018Y-129543812D01*
X121024500Y-129556072D01*
X121388750Y-129553000D01*
X121547500Y-129394250D01*
X121547500Y-128270000D01*
X121801500Y-128270000D01*
X121801500Y-129394250D01*
X121960250Y-129553000D01*
X122324500Y-129556072D01*
X122448982Y-129543812D01*
X122568680Y-129507502D01*
X122678994Y-129448537D01*
X122775685Y-129369185D01*
X122855037Y-129272494D01*
X122914002Y-129162180D01*
X122950312Y-129042482D01*
X122962572Y-128918000D01*
X122959500Y-128428750D01*
X122800750Y-128270000D01*
X121801500Y-128270000D01*
X121547500Y-128270000D01*
X120548250Y-128270000D01*
X120389500Y-128428750D01*
X120386428Y-128918000D01*
X118541000Y-128918000D01*
X118541000Y-127368000D01*
X120386428Y-127368000D01*
X120389500Y-127857250D01*
X120548250Y-128016000D01*
X121547500Y-128016000D01*
X121547500Y-126891750D01*
X121801500Y-126891750D01*
X121801500Y-128016000D01*
X122800750Y-128016000D01*
X122959500Y-127857250D01*
X122962572Y-127368000D01*
X122950312Y-127243518D01*
X122914002Y-127123820D01*
X122855037Y-127013506D01*
X122775685Y-126916815D01*
X122678994Y-126837463D01*
X122568680Y-126778498D01*
X122448982Y-126742188D01*
X122324500Y-126729928D01*
X121960250Y-126733000D01*
X121801500Y-126891750D01*
X121547500Y-126891750D01*
X121388750Y-126733000D01*
X121024500Y-126729928D01*
X120900018Y-126742188D01*
X120780320Y-126778498D01*
X120670006Y-126837463D01*
X120573315Y-126916815D01*
X120493963Y-127013506D01*
X120434998Y-127123820D01*
X120398688Y-127243518D01*
X120386428Y-127368000D01*
X118541000Y-127368000D01*
X118541000Y-120968000D01*
X120386428Y-120968000D01*
X120398688Y-121092482D01*
X120434998Y-121212180D01*
X120493963Y-121322494D01*
X120573315Y-121419185D01*
X120670006Y-121498537D01*
X120780320Y-121557502D01*
X120900018Y-121593812D01*
X121024500Y-121606072D01*
X121388750Y-121603000D01*
X121547500Y-121444250D01*
X121547500Y-120320000D01*
X121801500Y-120320000D01*
X121801500Y-121444250D01*
X121960250Y-121603000D01*
X122324500Y-121606072D01*
X122448982Y-121593812D01*
X122568680Y-121557502D01*
X122678994Y-121498537D01*
X122775685Y-121419185D01*
X122855037Y-121322494D01*
X122914002Y-121212180D01*
X122950312Y-121092482D01*
X122962572Y-120968000D01*
X122959500Y-120478750D01*
X122800750Y-120320000D01*
X121801500Y-120320000D01*
X121547500Y-120320000D01*
X120548250Y-120320000D01*
X120389500Y-120478750D01*
X120386428Y-120968000D01*
X118541000Y-120968000D01*
X118541000Y-119418000D01*
X120386428Y-119418000D01*
X120389500Y-119907250D01*
X120548250Y-120066000D01*
X121547500Y-120066000D01*
X121547500Y-118941750D01*
X121801500Y-118941750D01*
X121801500Y-120066000D01*
X122800750Y-120066000D01*
X122959500Y-119907250D01*
X122962572Y-119418000D01*
X125141657Y-119418000D01*
X125141657Y-120968000D01*
X125149013Y-121042689D01*
X125170799Y-121114508D01*
X125206178Y-121180696D01*
X125253789Y-121238711D01*
X125311804Y-121286322D01*
X125377992Y-121321701D01*
X125449811Y-121343487D01*
X125524500Y-121350843D01*
X125717300Y-121350843D01*
X125717301Y-126985157D01*
X125524500Y-126985157D01*
X125449811Y-126992513D01*
X125377992Y-127014299D01*
X125311804Y-127049678D01*
X125253789Y-127097289D01*
X125206178Y-127155304D01*
X125170799Y-127221492D01*
X125149013Y-127293311D01*
X125141657Y-127368000D01*
X125141657Y-128918000D01*
X125149013Y-128992689D01*
X125170799Y-129064508D01*
X125206178Y-129130696D01*
X125253789Y-129188711D01*
X125311804Y-129236322D01*
X125377992Y-129271701D01*
X125449811Y-129293487D01*
X125524500Y-129300843D01*
X126824500Y-129300843D01*
X126899189Y-129293487D01*
X126971008Y-129271701D01*
X127037196Y-129236322D01*
X127095211Y-129188711D01*
X127142822Y-129130696D01*
X127178201Y-129064508D01*
X127199987Y-128992689D01*
X127207343Y-128918000D01*
X127207343Y-128615480D01*
X132427568Y-128615480D01*
X132439828Y-128739962D01*
X132476138Y-128859660D01*
X132535103Y-128969974D01*
X132614455Y-129066665D01*
X132711146Y-129146017D01*
X132821460Y-129204982D01*
X132941158Y-129241292D01*
X133065640Y-129253552D01*
X133679890Y-129250480D01*
X133838640Y-129091730D01*
X133838640Y-127792480D01*
X134092640Y-127792480D01*
X134092640Y-129091730D01*
X134251390Y-129250480D01*
X134865640Y-129253552D01*
X134990122Y-129241292D01*
X135109820Y-129204982D01*
X135220134Y-129146017D01*
X135240640Y-129129188D01*
X135261146Y-129146017D01*
X135371460Y-129204982D01*
X135491158Y-129241292D01*
X135615640Y-129253552D01*
X136279890Y-129250480D01*
X136438640Y-129091730D01*
X136438640Y-127792480D01*
X136692640Y-127792480D01*
X136692640Y-129091730D01*
X136851390Y-129250480D01*
X137515640Y-129253552D01*
X137640122Y-129241292D01*
X137759820Y-129204982D01*
X137765640Y-129201871D01*
X137771460Y-129204982D01*
X137891158Y-129241292D01*
X138015640Y-129253552D01*
X138679890Y-129250480D01*
X138838640Y-129091730D01*
X138838640Y-127792480D01*
X139092640Y-127792480D01*
X139092640Y-129091730D01*
X139251390Y-129250480D01*
X139915640Y-129253552D01*
X140040122Y-129241292D01*
X140159820Y-129204982D01*
X140270134Y-129146017D01*
X140290640Y-129129188D01*
X140311146Y-129146017D01*
X140421460Y-129204982D01*
X140541158Y-129241292D01*
X140665640Y-129253552D01*
X141279890Y-129250480D01*
X141438640Y-129091730D01*
X141438640Y-127792480D01*
X141692640Y-127792480D01*
X141692640Y-129091730D01*
X141851390Y-129250480D01*
X142465640Y-129253552D01*
X142590122Y-129241292D01*
X142709820Y-129204982D01*
X142820134Y-129146017D01*
X142916825Y-129066665D01*
X142996177Y-128969974D01*
X143055142Y-128859660D01*
X143091452Y-128739962D01*
X143103712Y-128615480D01*
X143100640Y-127951230D01*
X142941890Y-127792480D01*
X141692640Y-127792480D01*
X141438640Y-127792480D01*
X139092640Y-127792480D01*
X138838640Y-127792480D01*
X136692640Y-127792480D01*
X136438640Y-127792480D01*
X134092640Y-127792480D01*
X133838640Y-127792480D01*
X132589390Y-127792480D01*
X132430640Y-127951230D01*
X132427568Y-128615480D01*
X127207343Y-128615480D01*
X127207343Y-127368000D01*
X127199987Y-127293311D01*
X127178201Y-127221492D01*
X127142822Y-127155304D01*
X127095211Y-127097289D01*
X127037196Y-127049678D01*
X126971008Y-127014299D01*
X126899189Y-126992513D01*
X126824500Y-126985157D01*
X126631700Y-126985157D01*
X126631700Y-121350843D01*
X126824500Y-121350843D01*
X126899189Y-121343487D01*
X126971008Y-121321701D01*
X127037196Y-121286322D01*
X127095211Y-121238711D01*
X127142822Y-121180696D01*
X127178201Y-121114508D01*
X127199987Y-121042689D01*
X127207343Y-120968000D01*
X127207343Y-120868921D01*
X127342801Y-121004379D01*
X127342800Y-123668470D01*
X127340589Y-123690920D01*
X127342800Y-123713370D01*
X127342800Y-123713379D01*
X127349415Y-123780546D01*
X127375559Y-123866728D01*
X127418013Y-123946155D01*
X127475147Y-124015773D01*
X127492597Y-124030094D01*
X129231537Y-125769035D01*
X129245855Y-125786481D01*
X129263300Y-125800798D01*
X129315471Y-125843615D01*
X129357925Y-125866306D01*
X129393357Y-125885245D01*
X129393357Y-126141990D01*
X129404916Y-126259355D01*
X129439151Y-126372210D01*
X129494744Y-126476217D01*
X129569560Y-126567380D01*
X129660723Y-126642196D01*
X129731920Y-126680251D01*
X129707439Y-126704732D01*
X129630997Y-126819136D01*
X129578343Y-126946255D01*
X129551500Y-127081204D01*
X129551500Y-127218796D01*
X129578343Y-127353745D01*
X129630997Y-127480864D01*
X129707439Y-127595268D01*
X129804732Y-127692561D01*
X129919136Y-127769003D01*
X130046255Y-127821657D01*
X130181204Y-127848500D01*
X130318796Y-127848500D01*
X130453745Y-127821657D01*
X130580864Y-127769003D01*
X130695268Y-127692561D01*
X130792561Y-127595268D01*
X130869003Y-127480864D01*
X130921657Y-127353745D01*
X130948500Y-127218796D01*
X130948500Y-127081204D01*
X130921657Y-126946255D01*
X130869003Y-126819136D01*
X130792561Y-126704732D01*
X130768916Y-126681087D01*
X130841677Y-126642196D01*
X130932840Y-126567380D01*
X131007656Y-126476217D01*
X131063249Y-126372210D01*
X131097484Y-126259355D01*
X131109043Y-126141990D01*
X131109043Y-125704490D01*
X131097484Y-125587125D01*
X131063249Y-125474270D01*
X131007656Y-125370263D01*
X130932840Y-125279100D01*
X130841677Y-125204284D01*
X130737670Y-125148691D01*
X130694977Y-125135740D01*
X130737670Y-125122789D01*
X130841677Y-125067196D01*
X130932840Y-124992380D01*
X131007656Y-124901217D01*
X131063249Y-124797210D01*
X131097484Y-124684355D01*
X131109043Y-124566990D01*
X131109043Y-124129490D01*
X131097484Y-124012125D01*
X131063249Y-123899270D01*
X131007656Y-123795263D01*
X130932840Y-123704100D01*
X130841677Y-123629284D01*
X130737670Y-123573691D01*
X130624815Y-123539456D01*
X130507450Y-123527897D01*
X130107200Y-123527897D01*
X130107200Y-121889377D01*
X130503299Y-121493280D01*
X130520440Y-121493280D01*
X130520440Y-121567420D01*
X130516140Y-121611080D01*
X130520440Y-121654740D01*
X130520440Y-121654747D01*
X130533304Y-121785354D01*
X130584137Y-121952931D01*
X130666688Y-122107371D01*
X130777782Y-122242739D01*
X130811699Y-122270574D01*
X132238866Y-123697741D01*
X132266701Y-123731659D01*
X132300618Y-123759494D01*
X132300619Y-123759495D01*
X132338618Y-123790680D01*
X132402069Y-123842753D01*
X132556509Y-123925303D01*
X132651118Y-123954002D01*
X132724085Y-123976136D01*
X132740685Y-123977771D01*
X132854693Y-123989000D01*
X132854700Y-123989000D01*
X132898360Y-123993300D01*
X132942020Y-123989000D01*
X133070129Y-123989000D01*
X133026138Y-124071300D01*
X132989828Y-124190998D01*
X132977568Y-124315480D01*
X132980640Y-124829730D01*
X133139390Y-124988480D01*
X134538640Y-124988480D01*
X134538640Y-124968480D01*
X134792640Y-124968480D01*
X134792640Y-124988480D01*
X134812640Y-124988480D01*
X134812640Y-125242480D01*
X134792640Y-125242480D01*
X134792640Y-125262480D01*
X134538640Y-125262480D01*
X134538640Y-125242480D01*
X133139390Y-125242480D01*
X132980640Y-125401230D01*
X132977568Y-125915480D01*
X132989828Y-126039962D01*
X133003057Y-126083572D01*
X132941158Y-126089668D01*
X132821460Y-126125978D01*
X132711146Y-126184943D01*
X132614455Y-126264295D01*
X132535103Y-126360986D01*
X132476138Y-126471300D01*
X132439828Y-126590998D01*
X132427568Y-126715480D01*
X132430640Y-127379730D01*
X132589390Y-127538480D01*
X133838640Y-127538480D01*
X133838640Y-127518480D01*
X134092640Y-127518480D01*
X134092640Y-127538480D01*
X136438640Y-127538480D01*
X136438640Y-126239230D01*
X136317693Y-126118283D01*
X136338916Y-126048323D01*
X136665640Y-126048323D01*
X136740329Y-126040967D01*
X136790640Y-126025705D01*
X136840951Y-126040967D01*
X136915640Y-126048323D01*
X137315640Y-126048323D01*
X137390329Y-126040967D01*
X137440640Y-126025705D01*
X137490951Y-126040967D01*
X137565640Y-126048323D01*
X137965640Y-126048323D01*
X138040329Y-126040967D01*
X138090640Y-126025705D01*
X138140951Y-126040967D01*
X138215640Y-126048323D01*
X138358792Y-126048323D01*
X138383244Y-126079108D01*
X138015640Y-126077408D01*
X137891158Y-126089668D01*
X137771460Y-126125978D01*
X137765640Y-126129089D01*
X137759820Y-126125978D01*
X137640122Y-126089668D01*
X137515640Y-126077408D01*
X136851390Y-126080480D01*
X136692640Y-126239230D01*
X136692640Y-127538480D01*
X138838640Y-127538480D01*
X138838640Y-127518480D01*
X139092640Y-127518480D01*
X139092640Y-127538480D01*
X141438640Y-127538480D01*
X141438640Y-127518480D01*
X141692640Y-127518480D01*
X141692640Y-127538480D01*
X142941890Y-127538480D01*
X143100640Y-127379730D01*
X143103712Y-126715480D01*
X143091452Y-126590998D01*
X143055142Y-126471300D01*
X142996177Y-126360986D01*
X142916825Y-126264295D01*
X142820134Y-126184943D01*
X142709820Y-126125978D01*
X142590122Y-126089668D01*
X142528223Y-126083572D01*
X142541452Y-126039962D01*
X142553712Y-125915480D01*
X142550640Y-125401230D01*
X142391890Y-125242480D01*
X140992640Y-125242480D01*
X140992640Y-125262480D01*
X140738640Y-125262480D01*
X140738640Y-125242480D01*
X139866890Y-125242480D01*
X139741890Y-125117480D01*
X139138640Y-125117480D01*
X139138640Y-126141730D01*
X139164390Y-126167480D01*
X139092642Y-126239228D01*
X139092642Y-126080480D01*
X138992640Y-126080480D01*
X138992640Y-125724807D01*
X138998483Y-125665480D01*
X138998483Y-124315480D01*
X138992640Y-124256153D01*
X138992640Y-123839230D01*
X139138640Y-123839230D01*
X139138640Y-124863480D01*
X139214390Y-124863480D01*
X139339390Y-124988480D01*
X140738640Y-124988480D01*
X140738640Y-123839230D01*
X140992640Y-123839230D01*
X140992640Y-124988480D01*
X142391890Y-124988480D01*
X142550640Y-124829730D01*
X142553712Y-124315480D01*
X142541452Y-124190998D01*
X142505142Y-124071300D01*
X142446177Y-123960986D01*
X142366825Y-123864295D01*
X142270134Y-123784943D01*
X142159820Y-123725978D01*
X142040122Y-123689668D01*
X141915640Y-123677408D01*
X141151390Y-123680480D01*
X140992640Y-123839230D01*
X140738640Y-123839230D01*
X140579890Y-123680480D01*
X139815640Y-123677408D01*
X139691158Y-123689668D01*
X139571460Y-123725978D01*
X139541188Y-123742159D01*
X139519216Y-123729959D01*
X139400114Y-123691739D01*
X139297390Y-123680480D01*
X139138640Y-123839230D01*
X138992640Y-123839230D01*
X138833890Y-123680480D01*
X138731166Y-123691739D01*
X138612064Y-123729959D01*
X138502707Y-123790680D01*
X138407297Y-123871568D01*
X138358792Y-123932637D01*
X138222840Y-123932637D01*
X138222840Y-123256890D01*
X146068524Y-123256890D01*
X146113175Y-123404099D01*
X146238359Y-123666920D01*
X146412412Y-123900269D01*
X146628645Y-124095178D01*
X146878748Y-124244157D01*
X147153109Y-124341481D01*
X147383000Y-124220814D01*
X147383000Y-123027000D01*
X146189845Y-123027000D01*
X146068524Y-123256890D01*
X138222840Y-123256890D01*
X138222840Y-122543110D01*
X146068524Y-122543110D01*
X146189845Y-122773000D01*
X147383000Y-122773000D01*
X147383000Y-122753000D01*
X147637000Y-122753000D01*
X147637000Y-122773000D01*
X147657000Y-122773000D01*
X147657000Y-123027000D01*
X147637000Y-123027000D01*
X147637000Y-124220814D01*
X147866891Y-124341481D01*
X148141252Y-124244157D01*
X148391355Y-124095178D01*
X148607588Y-123900269D01*
X148781641Y-123666920D01*
X148906825Y-123404099D01*
X148915091Y-123376846D01*
X148959102Y-123483097D01*
X149093820Y-123684717D01*
X149265283Y-123856180D01*
X149466903Y-123990898D01*
X149690931Y-124083693D01*
X149928757Y-124131000D01*
X150171243Y-124131000D01*
X150409069Y-124083693D01*
X150633097Y-123990898D01*
X150834717Y-123856180D01*
X151006180Y-123684717D01*
X151140898Y-123483097D01*
X151233693Y-123259069D01*
X151281000Y-123021243D01*
X151281000Y-122778757D01*
X151233693Y-122540931D01*
X151140898Y-122316903D01*
X151006180Y-122115283D01*
X150834717Y-121943820D01*
X150633097Y-121809102D01*
X150409069Y-121716307D01*
X150171243Y-121669000D01*
X149928757Y-121669000D01*
X149690931Y-121716307D01*
X149466903Y-121809102D01*
X149265283Y-121943820D01*
X149093820Y-122115283D01*
X148959102Y-122316903D01*
X148915091Y-122423154D01*
X148906825Y-122395901D01*
X148781641Y-122133080D01*
X148607588Y-121899731D01*
X148391355Y-121704822D01*
X148141252Y-121555843D01*
X147978832Y-121498228D01*
X148093097Y-121450898D01*
X148294717Y-121316180D01*
X148466180Y-121144717D01*
X148600898Y-120943097D01*
X148693693Y-120719069D01*
X148741000Y-120481243D01*
X148741000Y-120238757D01*
X148819000Y-120238757D01*
X148819000Y-120481243D01*
X148866307Y-120719069D01*
X148959102Y-120943097D01*
X149093820Y-121144717D01*
X149265283Y-121316180D01*
X149466903Y-121450898D01*
X149690931Y-121543693D01*
X149928757Y-121591000D01*
X150171243Y-121591000D01*
X150409069Y-121543693D01*
X150633097Y-121450898D01*
X150834717Y-121316180D01*
X151006180Y-121144717D01*
X151140898Y-120943097D01*
X151233693Y-120719069D01*
X151281000Y-120481243D01*
X151281000Y-120238757D01*
X151233693Y-120000931D01*
X151140898Y-119776903D01*
X151006180Y-119575283D01*
X150834717Y-119403820D01*
X150633097Y-119269102D01*
X150409069Y-119176307D01*
X150171243Y-119129000D01*
X149928757Y-119129000D01*
X149690931Y-119176307D01*
X149466903Y-119269102D01*
X149265283Y-119403820D01*
X149093820Y-119575283D01*
X148959102Y-119776903D01*
X148866307Y-120000931D01*
X148819000Y-120238757D01*
X148741000Y-120238757D01*
X148693693Y-120000931D01*
X148600898Y-119776903D01*
X148466180Y-119575283D01*
X148294717Y-119403820D01*
X148093097Y-119269102D01*
X147869069Y-119176307D01*
X147631243Y-119129000D01*
X147388757Y-119129000D01*
X147150931Y-119176307D01*
X146926903Y-119269102D01*
X146725283Y-119403820D01*
X146553820Y-119575283D01*
X146419102Y-119776903D01*
X146326307Y-120000931D01*
X146279000Y-120238757D01*
X146279000Y-120481243D01*
X146326307Y-120719069D01*
X146419102Y-120943097D01*
X146553820Y-121144717D01*
X146725283Y-121316180D01*
X146926903Y-121450898D01*
X147041168Y-121498228D01*
X146878748Y-121555843D01*
X146628645Y-121704822D01*
X146412412Y-121899731D01*
X146238359Y-122133080D01*
X146113175Y-122395901D01*
X146068524Y-122543110D01*
X138222840Y-122543110D01*
X138222840Y-122540057D01*
X138235914Y-122526983D01*
X138665930Y-122526983D01*
X138783295Y-122515424D01*
X138896150Y-122481189D01*
X139000157Y-122425596D01*
X139091320Y-122350780D01*
X139166136Y-122259617D01*
X139221729Y-122155610D01*
X139255964Y-122042755D01*
X139267523Y-121925390D01*
X139267523Y-121487890D01*
X139255964Y-121370525D01*
X139221729Y-121257670D01*
X139166136Y-121153663D01*
X139091320Y-121062500D01*
X139000157Y-120987684D01*
X138896150Y-120932091D01*
X138853457Y-120919140D01*
X138896150Y-120906189D01*
X139000157Y-120850596D01*
X139091320Y-120775780D01*
X139166136Y-120684617D01*
X139221729Y-120580610D01*
X139255964Y-120467755D01*
X139267523Y-120350390D01*
X139267523Y-119912890D01*
X139255964Y-119795525D01*
X139221729Y-119682670D01*
X139166136Y-119578663D01*
X139091320Y-119487500D01*
X139000157Y-119412684D01*
X138896150Y-119357091D01*
X138783295Y-119322856D01*
X138665930Y-119311297D01*
X138235914Y-119311297D01*
X138207200Y-119282583D01*
X138207200Y-117698757D01*
X146279000Y-117698757D01*
X146279000Y-117941243D01*
X146326307Y-118179069D01*
X146419102Y-118403097D01*
X146553820Y-118604717D01*
X146725283Y-118776180D01*
X146926903Y-118910898D01*
X147150931Y-119003693D01*
X147388757Y-119051000D01*
X147631243Y-119051000D01*
X147869069Y-119003693D01*
X148093097Y-118910898D01*
X148294717Y-118776180D01*
X148466180Y-118604717D01*
X148600898Y-118403097D01*
X148693693Y-118179069D01*
X148741000Y-117941243D01*
X148741000Y-117698757D01*
X148819000Y-117698757D01*
X148819000Y-117941243D01*
X148866307Y-118179069D01*
X148959102Y-118403097D01*
X149093820Y-118604717D01*
X149265283Y-118776180D01*
X149466903Y-118910898D01*
X149690931Y-119003693D01*
X149928757Y-119051000D01*
X150171243Y-119051000D01*
X150409069Y-119003693D01*
X150633097Y-118910898D01*
X150834717Y-118776180D01*
X151006180Y-118604717D01*
X151140898Y-118403097D01*
X151233693Y-118179069D01*
X151281000Y-117941243D01*
X151281000Y-117698757D01*
X151233693Y-117460931D01*
X151140898Y-117236903D01*
X151006180Y-117035283D01*
X150834717Y-116863820D01*
X150633097Y-116729102D01*
X150409069Y-116636307D01*
X150171243Y-116589000D01*
X149928757Y-116589000D01*
X149690931Y-116636307D01*
X149466903Y-116729102D01*
X149265283Y-116863820D01*
X149093820Y-117035283D01*
X148959102Y-117236903D01*
X148866307Y-117460931D01*
X148819000Y-117698757D01*
X148741000Y-117698757D01*
X148693693Y-117460931D01*
X148600898Y-117236903D01*
X148466180Y-117035283D01*
X148294717Y-116863820D01*
X148093097Y-116729102D01*
X147869069Y-116636307D01*
X147631243Y-116589000D01*
X147388757Y-116589000D01*
X147150931Y-116636307D01*
X146926903Y-116729102D01*
X146725283Y-116863820D01*
X146553820Y-117035283D01*
X146419102Y-117236903D01*
X146326307Y-117460931D01*
X146279000Y-117698757D01*
X138207200Y-117698757D01*
X138207200Y-114765430D01*
X138779960Y-114765430D01*
X138791396Y-114868969D01*
X138829771Y-114988021D01*
X138890635Y-115097299D01*
X138971648Y-115192603D01*
X139032117Y-115240503D01*
X139032117Y-115368680D01*
X139039473Y-115443369D01*
X139052460Y-115486180D01*
X139039473Y-115528991D01*
X139032117Y-115603680D01*
X139032117Y-116003680D01*
X139039473Y-116078369D01*
X139052460Y-116121180D01*
X139039473Y-116163991D01*
X139032117Y-116238680D01*
X139032117Y-116638680D01*
X139039473Y-116713369D01*
X139052460Y-116756180D01*
X139039473Y-116798991D01*
X139032117Y-116873680D01*
X139032117Y-117273680D01*
X139039473Y-117348369D01*
X139061259Y-117420188D01*
X139096638Y-117486376D01*
X139144249Y-117544391D01*
X139202264Y-117592002D01*
X139268452Y-117627381D01*
X139340271Y-117649167D01*
X139414960Y-117656523D01*
X140614960Y-117656523D01*
X140689649Y-117649167D01*
X140761468Y-117627381D01*
X140827656Y-117592002D01*
X140885671Y-117544391D01*
X140896759Y-117530880D01*
X143745640Y-117530880D01*
X143768090Y-117533091D01*
X143790540Y-117530880D01*
X143790550Y-117530880D01*
X143857717Y-117524265D01*
X143943899Y-117498121D01*
X144023326Y-117455667D01*
X144092943Y-117398533D01*
X144107264Y-117381083D01*
X146279000Y-115209349D01*
X146279000Y-115401243D01*
X146326307Y-115639069D01*
X146419102Y-115863097D01*
X146553820Y-116064717D01*
X146725283Y-116236180D01*
X146926903Y-116370898D01*
X147150931Y-116463693D01*
X147388757Y-116511000D01*
X147631243Y-116511000D01*
X147869069Y-116463693D01*
X148093097Y-116370898D01*
X148294717Y-116236180D01*
X148466180Y-116064717D01*
X148600898Y-115863097D01*
X148693693Y-115639069D01*
X148741000Y-115401243D01*
X148741000Y-115158757D01*
X148819000Y-115158757D01*
X148819000Y-115401243D01*
X148866307Y-115639069D01*
X148959102Y-115863097D01*
X149093820Y-116064717D01*
X149265283Y-116236180D01*
X149466903Y-116370898D01*
X149690931Y-116463693D01*
X149928757Y-116511000D01*
X150171243Y-116511000D01*
X150409069Y-116463693D01*
X150633097Y-116370898D01*
X150834717Y-116236180D01*
X151006180Y-116064717D01*
X151140898Y-115863097D01*
X151233693Y-115639069D01*
X151281000Y-115401243D01*
X151281000Y-115158757D01*
X151233693Y-114920931D01*
X151140898Y-114696903D01*
X151006180Y-114495283D01*
X150834717Y-114323820D01*
X150633097Y-114189102D01*
X150409069Y-114096307D01*
X150171243Y-114049000D01*
X149928757Y-114049000D01*
X149690931Y-114096307D01*
X149466903Y-114189102D01*
X149265283Y-114323820D01*
X149093820Y-114495283D01*
X148959102Y-114696903D01*
X148866307Y-114920931D01*
X148819000Y-115158757D01*
X148741000Y-115158757D01*
X148693693Y-114920931D01*
X148600898Y-114696903D01*
X148466180Y-114495283D01*
X148294717Y-114323820D01*
X148093097Y-114189102D01*
X147869069Y-114096307D01*
X147631243Y-114049000D01*
X147388757Y-114049000D01*
X147150931Y-114096307D01*
X147117201Y-114110278D01*
X147117201Y-113909722D01*
X147150931Y-113923693D01*
X147388757Y-113971000D01*
X147631243Y-113971000D01*
X147869069Y-113923693D01*
X148093097Y-113830898D01*
X148294717Y-113696180D01*
X148466180Y-113524717D01*
X148600898Y-113323097D01*
X148693693Y-113099069D01*
X148741000Y-112861243D01*
X148741000Y-112618757D01*
X148693693Y-112380931D01*
X148600898Y-112156903D01*
X148466180Y-111955283D01*
X148400897Y-111890000D01*
X148817157Y-111890000D01*
X148817157Y-113590000D01*
X148824513Y-113664689D01*
X148846299Y-113736508D01*
X148881678Y-113802696D01*
X148929289Y-113860711D01*
X148987304Y-113908322D01*
X149053492Y-113943701D01*
X149125311Y-113965487D01*
X149200000Y-113972843D01*
X150900000Y-113972843D01*
X150974689Y-113965487D01*
X151046508Y-113943701D01*
X151112696Y-113908322D01*
X151170711Y-113860711D01*
X151218322Y-113802696D01*
X151253701Y-113736508D01*
X151275487Y-113664689D01*
X151282843Y-113590000D01*
X151282843Y-111890000D01*
X151275487Y-111815311D01*
X151253701Y-111743492D01*
X151218322Y-111677304D01*
X151170711Y-111619289D01*
X151112696Y-111571678D01*
X151046508Y-111536299D01*
X150974689Y-111514513D01*
X150900000Y-111507157D01*
X149200000Y-111507157D01*
X149125311Y-111514513D01*
X149053492Y-111536299D01*
X148987304Y-111571678D01*
X148929289Y-111619289D01*
X148881678Y-111677304D01*
X148846299Y-111743492D01*
X148824513Y-111815311D01*
X148817157Y-111890000D01*
X148400897Y-111890000D01*
X148294717Y-111783820D01*
X148093097Y-111649102D01*
X147869069Y-111556307D01*
X147631243Y-111509000D01*
X147388757Y-111509000D01*
X147150931Y-111556307D01*
X146926903Y-111649102D01*
X146725283Y-111783820D01*
X146553820Y-111955283D01*
X146419102Y-112156903D01*
X146326307Y-112380931D01*
X146279000Y-112618757D01*
X146279000Y-112861243D01*
X146326307Y-113099069D01*
X146378456Y-113224967D01*
X146352593Y-113250829D01*
X146335149Y-113265146D01*
X146320832Y-113282591D01*
X146320831Y-113282592D01*
X146278014Y-113334764D01*
X146249473Y-113388162D01*
X146235561Y-113414190D01*
X146211119Y-113494764D01*
X146209417Y-113500373D01*
X146200590Y-113589999D01*
X146202802Y-113612458D01*
X146202801Y-113992390D01*
X143578713Y-116616480D01*
X143438174Y-116616480D01*
X143459856Y-116507476D01*
X143459856Y-116369884D01*
X143433013Y-116234935D01*
X143380359Y-116107816D01*
X143303917Y-115993412D01*
X143206624Y-115896119D01*
X143092220Y-115819677D01*
X142965101Y-115767023D01*
X142830152Y-115740180D01*
X142692560Y-115740180D01*
X142557611Y-115767023D01*
X142430492Y-115819677D01*
X142394820Y-115843512D01*
X142394820Y-115734884D01*
X142373138Y-115625880D01*
X143558870Y-115625880D01*
X143581320Y-115628091D01*
X143603770Y-115625880D01*
X143603780Y-115625880D01*
X143670947Y-115619265D01*
X143757129Y-115593121D01*
X143836556Y-115550667D01*
X143906173Y-115493533D01*
X143920494Y-115476083D01*
X144898078Y-114498500D01*
X145018796Y-114498500D01*
X145153745Y-114471657D01*
X145280864Y-114419003D01*
X145395268Y-114342561D01*
X145492561Y-114245268D01*
X145569003Y-114130864D01*
X145621657Y-114003745D01*
X145648500Y-113868796D01*
X145648500Y-113731204D01*
X145621657Y-113596255D01*
X145569003Y-113469136D01*
X145492561Y-113354732D01*
X145395268Y-113257439D01*
X145280864Y-113180997D01*
X145153745Y-113128343D01*
X145018796Y-113101500D01*
X144881204Y-113101500D01*
X144746255Y-113128343D01*
X144619136Y-113180997D01*
X144504732Y-113257439D01*
X144407439Y-113354732D01*
X144330997Y-113469136D01*
X144278343Y-113596255D01*
X144251500Y-113731204D01*
X144251500Y-113851922D01*
X143391943Y-114711480D01*
X141196010Y-114711480D01*
X141091210Y-114606680D01*
X140734110Y-114606680D01*
X140689649Y-114593193D01*
X140614960Y-114585837D01*
X139414960Y-114585837D01*
X139340271Y-114593193D01*
X139295810Y-114606680D01*
X138938710Y-114606680D01*
X138779960Y-114765430D01*
X138207200Y-114765430D01*
X138207200Y-113939377D01*
X139032117Y-113114461D01*
X139032117Y-113463680D01*
X139039473Y-113538369D01*
X139052460Y-113581180D01*
X139039473Y-113623991D01*
X139032117Y-113698680D01*
X139032117Y-113826857D01*
X138971648Y-113874757D01*
X138890635Y-113970061D01*
X138829771Y-114079339D01*
X138791396Y-114198391D01*
X138779960Y-114301930D01*
X138938710Y-114460680D01*
X139295810Y-114460680D01*
X139340271Y-114474167D01*
X139414960Y-114481523D01*
X140614960Y-114481523D01*
X140689649Y-114474167D01*
X140734110Y-114460680D01*
X141091210Y-114460680D01*
X141249960Y-114301930D01*
X141238524Y-114198391D01*
X141200149Y-114079339D01*
X141139285Y-113970061D01*
X141058272Y-113874757D01*
X140997803Y-113826857D01*
X140997803Y-113698680D01*
X140994083Y-113660907D01*
X141022596Y-113645667D01*
X141092213Y-113588533D01*
X141106534Y-113571083D01*
X141807409Y-112870209D01*
X141824853Y-112855893D01*
X141846409Y-112829627D01*
X141881987Y-112786277D01*
X141915084Y-112724355D01*
X141924441Y-112706849D01*
X141950585Y-112620667D01*
X141957200Y-112553500D01*
X141957200Y-112553491D01*
X141959411Y-112531041D01*
X141957200Y-112508591D01*
X141957200Y-112261028D01*
X141969136Y-112269003D01*
X142096255Y-112321657D01*
X142231204Y-112348500D01*
X142368796Y-112348500D01*
X142503745Y-112321657D01*
X142630864Y-112269003D01*
X142745268Y-112192561D01*
X142842561Y-112095268D01*
X142919003Y-111980864D01*
X142971657Y-111853745D01*
X142998500Y-111718796D01*
X142998500Y-111581204D01*
X142971657Y-111446255D01*
X142919003Y-111319136D01*
X142842561Y-111204732D01*
X142757200Y-111119371D01*
X142757200Y-106522452D01*
X142759411Y-106500000D01*
X142757200Y-106477548D01*
X142757200Y-106477540D01*
X142750585Y-106410373D01*
X142737703Y-106367909D01*
X142724441Y-106324190D01*
X142681987Y-106244764D01*
X142639171Y-106192592D01*
X142639165Y-106192586D01*
X142624853Y-106175147D01*
X142607414Y-106160835D01*
X140239174Y-103792597D01*
X140224853Y-103775147D01*
X140155236Y-103718013D01*
X140075809Y-103675559D01*
X139989627Y-103649415D01*
X139922460Y-103642800D01*
X139922450Y-103642800D01*
X139900000Y-103640589D01*
X139877550Y-103642800D01*
X132314849Y-103642800D01*
X132292399Y-103640589D01*
X132269949Y-103642800D01*
X132269940Y-103642800D01*
X132202773Y-103649415D01*
X132116591Y-103675559D01*
X132079617Y-103695322D01*
X132037163Y-103718013D01*
X131984992Y-103760830D01*
X131967547Y-103775147D01*
X131953230Y-103792592D01*
X131740523Y-104005300D01*
X128251986Y-104005300D01*
X128222322Y-103949804D01*
X128174711Y-103891789D01*
X128116696Y-103844178D01*
X128050508Y-103808799D01*
X127978689Y-103787013D01*
X127904000Y-103779657D01*
X126604000Y-103779657D01*
X126529311Y-103787013D01*
X126457492Y-103808799D01*
X126391304Y-103844178D01*
X126333289Y-103891789D01*
X126285678Y-103949804D01*
X126250299Y-104015992D01*
X126228513Y-104087811D01*
X126221157Y-104162500D01*
X126221157Y-104762500D01*
X126228513Y-104837189D01*
X126250299Y-104909008D01*
X126285678Y-104975196D01*
X126333289Y-105033211D01*
X126391304Y-105080822D01*
X126457492Y-105116201D01*
X126529311Y-105137987D01*
X126604000Y-105145343D01*
X127904000Y-105145343D01*
X127978689Y-105137987D01*
X128050508Y-105116201D01*
X128116696Y-105080822D01*
X128174711Y-105033211D01*
X128222322Y-104975196D01*
X128251986Y-104919700D01*
X131907450Y-104919700D01*
X131929900Y-104921911D01*
X131952350Y-104919700D01*
X131952360Y-104919700D01*
X132019527Y-104913085D01*
X132105709Y-104886941D01*
X132185136Y-104844487D01*
X132254753Y-104787353D01*
X132269074Y-104769903D01*
X132481778Y-104557200D01*
X135266164Y-104557200D01*
X134353149Y-105470215D01*
X134319800Y-105473500D01*
X127297667Y-105473500D01*
X127254000Y-105469199D01*
X127210333Y-105473500D01*
X127079726Y-105486364D01*
X126912149Y-105537197D01*
X126757709Y-105619747D01*
X126684709Y-105679657D01*
X126604000Y-105679657D01*
X126529311Y-105687013D01*
X126457492Y-105708799D01*
X126391304Y-105744178D01*
X126333289Y-105791789D01*
X126285678Y-105849804D01*
X126250299Y-105915992D01*
X126228513Y-105987811D01*
X126221157Y-106062500D01*
X126221157Y-106662500D01*
X126228513Y-106737189D01*
X126250299Y-106809008D01*
X126285678Y-106875196D01*
X126333289Y-106933211D01*
X126369829Y-106963199D01*
X126377864Y-107044773D01*
X126428697Y-107212350D01*
X126511247Y-107366790D01*
X126622341Y-107502159D01*
X126656264Y-107529999D01*
X127635001Y-108508737D01*
X127635000Y-113378660D01*
X127630700Y-113422320D01*
X127635000Y-113465980D01*
X127635000Y-113465986D01*
X127642759Y-113544765D01*
X127647864Y-113596594D01*
X127656966Y-113626600D01*
X127689773Y-113734749D01*
X127698698Y-113764172D01*
X127706265Y-113778329D01*
X127781247Y-113918610D01*
X127892341Y-114053979D01*
X127926264Y-114081819D01*
X130180024Y-116335580D01*
X130207861Y-116369499D01*
X130343229Y-116480593D01*
X130466764Y-116546624D01*
X130488390Y-116558183D01*
X130497669Y-116563143D01*
X130520441Y-116570051D01*
X130520440Y-120578880D01*
X130336370Y-120578880D01*
X130313920Y-120576669D01*
X130291470Y-120578880D01*
X130291460Y-120578880D01*
X130224293Y-120585495D01*
X130158169Y-120605554D01*
X130138110Y-120611639D01*
X130058684Y-120654093D01*
X130006512Y-120696909D01*
X130006506Y-120696915D01*
X129989067Y-120711227D01*
X129974754Y-120728667D01*
X129342597Y-121360826D01*
X129325147Y-121375147D01*
X129268013Y-121444765D01*
X129225559Y-121524192D01*
X129199415Y-121610374D01*
X129192800Y-121677541D01*
X129192800Y-121677550D01*
X129190589Y-121700000D01*
X129192800Y-121722450D01*
X129192801Y-123724580D01*
X129190589Y-123747040D01*
X129192801Y-123769500D01*
X129199416Y-123836667D01*
X129218407Y-123899270D01*
X129225560Y-123922849D01*
X129268013Y-124002275D01*
X129302888Y-124044769D01*
X129325148Y-124071893D01*
X129342592Y-124086209D01*
X129393357Y-124136974D01*
X129393357Y-124566990D01*
X129401082Y-124645424D01*
X128257200Y-123501543D01*
X128257200Y-120837450D01*
X128259411Y-120815000D01*
X128257200Y-120792550D01*
X128257200Y-120792540D01*
X128250585Y-120725373D01*
X128224441Y-120639191D01*
X128181987Y-120559764D01*
X128124853Y-120490147D01*
X128107408Y-120475830D01*
X127517174Y-119885597D01*
X127502853Y-119868147D01*
X127433236Y-119811013D01*
X127353809Y-119768559D01*
X127267627Y-119742415D01*
X127207343Y-119736478D01*
X127207343Y-119418000D01*
X127199987Y-119343311D01*
X127178201Y-119271492D01*
X127142822Y-119205304D01*
X127095211Y-119147289D01*
X127037196Y-119099678D01*
X126971008Y-119064299D01*
X126899189Y-119042513D01*
X126824500Y-119035157D01*
X125524500Y-119035157D01*
X125449811Y-119042513D01*
X125377992Y-119064299D01*
X125311804Y-119099678D01*
X125253789Y-119147289D01*
X125206178Y-119205304D01*
X125170799Y-119271492D01*
X125149013Y-119343311D01*
X125141657Y-119418000D01*
X122962572Y-119418000D01*
X122950312Y-119293518D01*
X122914002Y-119173820D01*
X122855037Y-119063506D01*
X122775685Y-118966815D01*
X122678994Y-118887463D01*
X122568680Y-118828498D01*
X122448982Y-118792188D01*
X122324500Y-118779928D01*
X121960250Y-118783000D01*
X121801500Y-118941750D01*
X121547500Y-118941750D01*
X121388750Y-118783000D01*
X121024500Y-118779928D01*
X120900018Y-118792188D01*
X120780320Y-118828498D01*
X120670006Y-118887463D01*
X120573315Y-118966815D01*
X120493963Y-119063506D01*
X120434998Y-119173820D01*
X120398688Y-119293518D01*
X120386428Y-119418000D01*
X118541000Y-119418000D01*
X118541000Y-117742000D01*
X120386428Y-117742000D01*
X120398688Y-117866482D01*
X120434998Y-117986180D01*
X120493963Y-118096494D01*
X120573315Y-118193185D01*
X120670006Y-118272537D01*
X120780320Y-118331502D01*
X120900018Y-118367812D01*
X121024500Y-118380072D01*
X121388750Y-118377000D01*
X121547500Y-118218250D01*
X121547500Y-117094000D01*
X121801500Y-117094000D01*
X121801500Y-118218250D01*
X121960250Y-118377000D01*
X122324500Y-118380072D01*
X122448982Y-118367812D01*
X122568680Y-118331502D01*
X122678994Y-118272537D01*
X122775685Y-118193185D01*
X122855037Y-118096494D01*
X122914002Y-117986180D01*
X122950312Y-117866482D01*
X122962572Y-117742000D01*
X122959500Y-117252750D01*
X122800750Y-117094000D01*
X121801500Y-117094000D01*
X121547500Y-117094000D01*
X120548250Y-117094000D01*
X120389500Y-117252750D01*
X120386428Y-117742000D01*
X118541000Y-117742000D01*
X118541000Y-116192000D01*
X120386428Y-116192000D01*
X120389500Y-116681250D01*
X120548250Y-116840000D01*
X121547500Y-116840000D01*
X121547500Y-115715750D01*
X121801500Y-115715750D01*
X121801500Y-116840000D01*
X122800750Y-116840000D01*
X122959500Y-116681250D01*
X122962572Y-116192000D01*
X122950312Y-116067518D01*
X122914002Y-115947820D01*
X122855037Y-115837506D01*
X122775685Y-115740815D01*
X122678994Y-115661463D01*
X122568680Y-115602498D01*
X122448982Y-115566188D01*
X122324500Y-115553928D01*
X121960250Y-115557000D01*
X121801500Y-115715750D01*
X121547500Y-115715750D01*
X121388750Y-115557000D01*
X121024500Y-115553928D01*
X120900018Y-115566188D01*
X120780320Y-115602498D01*
X120670006Y-115661463D01*
X120573315Y-115740815D01*
X120493963Y-115837506D01*
X120434998Y-115947820D01*
X120398688Y-116067518D01*
X120386428Y-116192000D01*
X118541000Y-116192000D01*
X118541000Y-109792000D01*
X120386428Y-109792000D01*
X120398688Y-109916482D01*
X120434998Y-110036180D01*
X120493963Y-110146494D01*
X120573315Y-110243185D01*
X120670006Y-110322537D01*
X120780320Y-110381502D01*
X120900018Y-110417812D01*
X121024500Y-110430072D01*
X121388750Y-110427000D01*
X121547500Y-110268250D01*
X121547500Y-109144000D01*
X121801500Y-109144000D01*
X121801500Y-110268250D01*
X121960250Y-110427000D01*
X122324500Y-110430072D01*
X122448982Y-110417812D01*
X122568680Y-110381502D01*
X122678994Y-110322537D01*
X122775685Y-110243185D01*
X122855037Y-110146494D01*
X122914002Y-110036180D01*
X122950312Y-109916482D01*
X122962572Y-109792000D01*
X122959500Y-109302750D01*
X122800750Y-109144000D01*
X121801500Y-109144000D01*
X121547500Y-109144000D01*
X120548250Y-109144000D01*
X120389500Y-109302750D01*
X120386428Y-109792000D01*
X118541000Y-109792000D01*
X118541000Y-108242000D01*
X120386428Y-108242000D01*
X120389500Y-108731250D01*
X120548250Y-108890000D01*
X121547500Y-108890000D01*
X121547500Y-107765750D01*
X121801500Y-107765750D01*
X121801500Y-108890000D01*
X122800750Y-108890000D01*
X122959500Y-108731250D01*
X122962572Y-108242000D01*
X122950312Y-108117518D01*
X122914002Y-107997820D01*
X122855037Y-107887506D01*
X122775685Y-107790815D01*
X122678994Y-107711463D01*
X122568680Y-107652498D01*
X122448982Y-107616188D01*
X122324500Y-107603928D01*
X121960250Y-107607000D01*
X121801500Y-107765750D01*
X121547500Y-107765750D01*
X121388750Y-107607000D01*
X121024500Y-107603928D01*
X120900018Y-107616188D01*
X120780320Y-107652498D01*
X120670006Y-107711463D01*
X120573315Y-107790815D01*
X120493963Y-107887506D01*
X120434998Y-107997820D01*
X120398688Y-108117518D01*
X120386428Y-108242000D01*
X118541000Y-108242000D01*
X118541000Y-105112500D01*
X124121157Y-105112500D01*
X124121157Y-105712500D01*
X124128513Y-105787189D01*
X124150299Y-105859008D01*
X124185678Y-105925196D01*
X124233289Y-105983211D01*
X124291304Y-106030822D01*
X124357492Y-106066201D01*
X124429311Y-106087987D01*
X124504000Y-106095343D01*
X124696800Y-106095343D01*
X124696801Y-108776440D01*
X124694589Y-108798900D01*
X124703416Y-108888526D01*
X124729560Y-108974709D01*
X124772013Y-109054135D01*
X124796832Y-109084376D01*
X124829148Y-109123753D01*
X124846593Y-109138070D01*
X125032926Y-109324403D01*
X125047247Y-109341853D01*
X125116864Y-109398987D01*
X125141657Y-109412239D01*
X125141657Y-109792000D01*
X125149013Y-109866689D01*
X125170799Y-109938508D01*
X125206178Y-110004696D01*
X125253789Y-110062711D01*
X125311804Y-110110322D01*
X125377992Y-110145701D01*
X125449811Y-110167487D01*
X125524500Y-110174843D01*
X125717300Y-110174843D01*
X125717301Y-110784870D01*
X125631939Y-110870232D01*
X125555497Y-110984636D01*
X125502843Y-111111755D01*
X125476000Y-111246704D01*
X125476000Y-111384296D01*
X125502843Y-111519245D01*
X125555497Y-111646364D01*
X125631939Y-111760768D01*
X125717300Y-111846129D01*
X125717301Y-115809157D01*
X125524500Y-115809157D01*
X125449811Y-115816513D01*
X125377992Y-115838299D01*
X125311804Y-115873678D01*
X125253789Y-115921289D01*
X125206178Y-115979304D01*
X125170799Y-116045492D01*
X125149013Y-116117311D01*
X125141657Y-116192000D01*
X125141657Y-117742000D01*
X125149013Y-117816689D01*
X125170799Y-117888508D01*
X125206178Y-117954696D01*
X125253789Y-118012711D01*
X125311804Y-118060322D01*
X125377992Y-118095701D01*
X125449811Y-118117487D01*
X125524500Y-118124843D01*
X126824500Y-118124843D01*
X126899189Y-118117487D01*
X126971008Y-118095701D01*
X127037196Y-118060322D01*
X127095211Y-118012711D01*
X127142822Y-117954696D01*
X127178201Y-117888508D01*
X127199987Y-117816689D01*
X127207343Y-117742000D01*
X127207343Y-116192000D01*
X127199987Y-116117311D01*
X127178201Y-116045492D01*
X127142822Y-115979304D01*
X127095211Y-115921289D01*
X127037196Y-115873678D01*
X126971008Y-115838299D01*
X126899189Y-115816513D01*
X126824500Y-115809157D01*
X126631700Y-115809157D01*
X126631700Y-111846129D01*
X126717061Y-111760768D01*
X126793503Y-111646364D01*
X126846157Y-111519245D01*
X126873000Y-111384296D01*
X126873000Y-111246704D01*
X126846157Y-111111755D01*
X126793503Y-110984636D01*
X126717061Y-110870232D01*
X126631700Y-110784871D01*
X126631700Y-110174843D01*
X126824500Y-110174843D01*
X126899189Y-110167487D01*
X126971008Y-110145701D01*
X127037196Y-110110322D01*
X127095211Y-110062711D01*
X127142822Y-110004696D01*
X127178201Y-109938508D01*
X127199987Y-109866689D01*
X127207343Y-109792000D01*
X127207343Y-108242000D01*
X127199987Y-108167311D01*
X127178201Y-108095492D01*
X127142822Y-108029304D01*
X127095211Y-107971289D01*
X127037196Y-107923678D01*
X126971008Y-107888299D01*
X126899189Y-107866513D01*
X126824500Y-107859157D01*
X125611200Y-107859157D01*
X125611200Y-106095343D01*
X125804000Y-106095343D01*
X125878689Y-106087987D01*
X125950508Y-106066201D01*
X126016696Y-106030822D01*
X126074711Y-105983211D01*
X126122322Y-105925196D01*
X126157701Y-105859008D01*
X126179487Y-105787189D01*
X126186843Y-105712500D01*
X126186843Y-105112500D01*
X126179487Y-105037811D01*
X126157701Y-104965992D01*
X126122322Y-104899804D01*
X126074711Y-104841789D01*
X126016696Y-104794178D01*
X125950508Y-104758799D01*
X125878689Y-104737013D01*
X125804000Y-104729657D01*
X124504000Y-104729657D01*
X124429311Y-104737013D01*
X124357492Y-104758799D01*
X124291304Y-104794178D01*
X124233289Y-104841789D01*
X124185678Y-104899804D01*
X124150299Y-104965992D01*
X124128513Y-105037811D01*
X124121157Y-105112500D01*
X118541000Y-105112500D01*
X118541000Y-103301000D01*
X151969001Y-103301000D01*
X151969000Y-129744000D01*
G36*
X136642801Y-113939379D02*
G01*
X136642800Y-119260581D01*
X136581925Y-119321457D01*
X136151910Y-119321457D01*
X136034545Y-119333016D01*
X135921690Y-119367251D01*
X135817683Y-119422844D01*
X135726520Y-119497660D01*
X135651704Y-119588823D01*
X135596111Y-119692830D01*
X135561876Y-119805685D01*
X135550317Y-119923050D01*
X135550317Y-120360550D01*
X135561876Y-120477915D01*
X135596111Y-120590770D01*
X135651704Y-120694777D01*
X135726520Y-120785940D01*
X135817683Y-120860756D01*
X135921690Y-120916349D01*
X135964383Y-120929300D01*
X135921690Y-120942251D01*
X135817683Y-120997844D01*
X135726520Y-121072660D01*
X135651704Y-121163823D01*
X135596111Y-121267830D01*
X135561876Y-121380685D01*
X135550317Y-121498050D01*
X135550317Y-121935550D01*
X135561876Y-122052915D01*
X135596111Y-122165770D01*
X135651704Y-122269777D01*
X135707694Y-122338000D01*
X135060282Y-122338000D01*
X134941851Y-122274697D01*
X134774274Y-122223864D01*
X134643667Y-122211000D01*
X133266596Y-122211000D01*
X133111442Y-122055846D01*
X133111442Y-121987332D01*
X133270190Y-122146080D01*
X133421940Y-122149152D01*
X133546422Y-122136892D01*
X133666120Y-122100582D01*
X133776434Y-122041617D01*
X133873125Y-121962265D01*
X133952477Y-121865574D01*
X134011442Y-121755260D01*
X134047752Y-121635562D01*
X134060012Y-121511080D01*
X134056940Y-121321830D01*
X133898190Y-121163080D01*
X133111440Y-121163080D01*
X133111440Y-121183080D01*
X132857440Y-121183080D01*
X132857440Y-121163080D01*
X132837440Y-121163080D01*
X132837440Y-120909080D01*
X132857440Y-120909080D01*
X132857440Y-120084830D01*
X133111440Y-120084830D01*
X133111440Y-120909080D01*
X133898190Y-120909080D01*
X134056940Y-120750330D01*
X134060012Y-120561080D01*
X134047752Y-120436598D01*
X134011442Y-120316900D01*
X133952477Y-120206586D01*
X133873125Y-120109895D01*
X133776434Y-120030543D01*
X133666120Y-119971578D01*
X133546422Y-119935268D01*
X133421940Y-119923008D01*
X133270190Y-119926080D01*
X133111440Y-120084830D01*
X132857440Y-120084830D01*
X132698690Y-119926080D01*
X132546940Y-119923008D01*
X132422458Y-119935268D01*
X132302760Y-119971578D01*
X132298440Y-119973887D01*
X132298440Y-116360073D01*
X132406340Y-116327342D01*
X132516654Y-116268377D01*
X132613345Y-116189025D01*
X132633234Y-116164790D01*
X133579960Y-115218065D01*
X133579960Y-115295682D01*
X133684708Y-115295682D01*
X133579960Y-115400430D01*
X133591396Y-115503969D01*
X133621695Y-115597967D01*
X133342597Y-115877066D01*
X133325147Y-115891387D01*
X133268013Y-115961005D01*
X133225559Y-116040432D01*
X133199415Y-116126614D01*
X133192800Y-116193781D01*
X133192800Y-116193790D01*
X133190589Y-116216240D01*
X133192800Y-116238690D01*
X133192800Y-116409871D01*
X133099935Y-116428343D01*
X132972816Y-116480997D01*
X132858412Y-116557439D01*
X132761119Y-116654732D01*
X132684677Y-116769136D01*
X132632023Y-116896255D01*
X132605180Y-117031204D01*
X132605180Y-117168796D01*
X132632023Y-117303745D01*
X132684677Y-117430864D01*
X132761119Y-117545268D01*
X132858412Y-117642561D01*
X132972816Y-117719003D01*
X133099935Y-117771657D01*
X133234884Y-117798500D01*
X133372476Y-117798500D01*
X133507425Y-117771657D01*
X133634544Y-117719003D01*
X133748948Y-117642561D01*
X133846241Y-117545268D01*
X133891728Y-117477191D01*
X133896638Y-117486376D01*
X133944249Y-117544391D01*
X134002264Y-117592002D01*
X134068452Y-117627381D01*
X134140271Y-117649167D01*
X134214960Y-117656523D01*
X135414960Y-117656523D01*
X135489649Y-117649167D01*
X135561468Y-117627381D01*
X135627656Y-117592002D01*
X135685671Y-117544391D01*
X135733282Y-117486376D01*
X135768661Y-117420188D01*
X135790447Y-117348369D01*
X135797803Y-117273680D01*
X135797803Y-116873680D01*
X135790447Y-116798991D01*
X135777460Y-116756180D01*
X135790447Y-116713369D01*
X135797803Y-116638680D01*
X135797803Y-116238680D01*
X135790447Y-116163991D01*
X135777460Y-116121180D01*
X135790447Y-116078369D01*
X135797803Y-116003680D01*
X135797803Y-115875503D01*
X135858272Y-115827603D01*
X135939285Y-115732299D01*
X136000149Y-115623021D01*
X136038524Y-115503969D01*
X136049960Y-115400430D01*
X135891210Y-115241680D01*
X135534110Y-115241680D01*
X135489649Y-115228193D01*
X135414960Y-115220837D01*
X134667960Y-115220837D01*
X134667960Y-115194090D01*
X134846152Y-115194090D01*
X134939442Y-115184902D01*
X135059140Y-115148592D01*
X135119136Y-115116523D01*
X135414960Y-115116523D01*
X135489649Y-115109167D01*
X135534110Y-115095680D01*
X135891210Y-115095680D01*
X136049960Y-114936930D01*
X136038524Y-114833391D01*
X136000149Y-114714339D01*
X135939285Y-114605061D01*
X135858272Y-114509757D01*
X135797803Y-114461857D01*
X135797803Y-114333680D01*
X135790447Y-114258991D01*
X135777460Y-114216180D01*
X135790447Y-114173369D01*
X135797803Y-114098680D01*
X135797803Y-113698680D01*
X135790447Y-113623991D01*
X135777460Y-113581180D01*
X135790447Y-113538369D01*
X135797803Y-113463680D01*
X135797803Y-113094380D01*
X136642801Y-113939379D01*
G37*
X136642801Y-113939379D02*
X136642800Y-119260581D01*
X136581925Y-119321457D01*
X136151910Y-119321457D01*
X136034545Y-119333016D01*
X135921690Y-119367251D01*
X135817683Y-119422844D01*
X135726520Y-119497660D01*
X135651704Y-119588823D01*
X135596111Y-119692830D01*
X135561876Y-119805685D01*
X135550317Y-119923050D01*
X135550317Y-120360550D01*
X135561876Y-120477915D01*
X135596111Y-120590770D01*
X135651704Y-120694777D01*
X135726520Y-120785940D01*
X135817683Y-120860756D01*
X135921690Y-120916349D01*
X135964383Y-120929300D01*
X135921690Y-120942251D01*
X135817683Y-120997844D01*
X135726520Y-121072660D01*
X135651704Y-121163823D01*
X135596111Y-121267830D01*
X135561876Y-121380685D01*
X135550317Y-121498050D01*
X135550317Y-121935550D01*
X135561876Y-122052915D01*
X135596111Y-122165770D01*
X135651704Y-122269777D01*
X135707694Y-122338000D01*
X135060282Y-122338000D01*
X134941851Y-122274697D01*
X134774274Y-122223864D01*
X134643667Y-122211000D01*
X133266596Y-122211000D01*
X133111442Y-122055846D01*
X133111442Y-121987332D01*
X133270190Y-122146080D01*
X133421940Y-122149152D01*
X133546422Y-122136892D01*
X133666120Y-122100582D01*
X133776434Y-122041617D01*
X133873125Y-121962265D01*
X133952477Y-121865574D01*
X134011442Y-121755260D01*
X134047752Y-121635562D01*
X134060012Y-121511080D01*
X134056940Y-121321830D01*
X133898190Y-121163080D01*
X133111440Y-121163080D01*
X133111440Y-121183080D01*
X132857440Y-121183080D01*
X132857440Y-121163080D01*
X132837440Y-121163080D01*
X132837440Y-120909080D01*
X132857440Y-120909080D01*
X132857440Y-120084830D01*
X133111440Y-120084830D01*
X133111440Y-120909080D01*
X133898190Y-120909080D01*
X134056940Y-120750330D01*
X134060012Y-120561080D01*
X134047752Y-120436598D01*
X134011442Y-120316900D01*
X133952477Y-120206586D01*
X133873125Y-120109895D01*
X133776434Y-120030543D01*
X133666120Y-119971578D01*
X133546422Y-119935268D01*
X133421940Y-119923008D01*
X133270190Y-119926080D01*
X133111440Y-120084830D01*
X132857440Y-120084830D01*
X132698690Y-119926080D01*
X132546940Y-119923008D01*
X132422458Y-119935268D01*
X132302760Y-119971578D01*
X132298440Y-119973887D01*
X132298440Y-116360073D01*
X132406340Y-116327342D01*
X132516654Y-116268377D01*
X132613345Y-116189025D01*
X132633234Y-116164790D01*
X133579960Y-115218065D01*
X133579960Y-115295682D01*
X133684708Y-115295682D01*
X133579960Y-115400430D01*
X133591396Y-115503969D01*
X133621695Y-115597967D01*
X133342597Y-115877066D01*
X133325147Y-115891387D01*
X133268013Y-115961005D01*
X133225559Y-116040432D01*
X133199415Y-116126614D01*
X133192800Y-116193781D01*
X133192800Y-116193790D01*
X133190589Y-116216240D01*
X133192800Y-116238690D01*
X133192800Y-116409871D01*
X133099935Y-116428343D01*
X132972816Y-116480997D01*
X132858412Y-116557439D01*
X132761119Y-116654732D01*
X132684677Y-116769136D01*
X132632023Y-116896255D01*
X132605180Y-117031204D01*
X132605180Y-117168796D01*
X132632023Y-117303745D01*
X132684677Y-117430864D01*
X132761119Y-117545268D01*
X132858412Y-117642561D01*
X132972816Y-117719003D01*
X133099935Y-117771657D01*
X133234884Y-117798500D01*
X133372476Y-117798500D01*
X133507425Y-117771657D01*
X133634544Y-117719003D01*
X133748948Y-117642561D01*
X133846241Y-117545268D01*
X133891728Y-117477191D01*
X133896638Y-117486376D01*
X133944249Y-117544391D01*
X134002264Y-117592002D01*
X134068452Y-117627381D01*
X134140271Y-117649167D01*
X134214960Y-117656523D01*
X135414960Y-117656523D01*
X135489649Y-117649167D01*
X135561468Y-117627381D01*
X135627656Y-117592002D01*
X135685671Y-117544391D01*
X135733282Y-117486376D01*
X135768661Y-117420188D01*
X135790447Y-117348369D01*
X135797803Y-117273680D01*
X135797803Y-116873680D01*
X135790447Y-116798991D01*
X135777460Y-116756180D01*
X135790447Y-116713369D01*
X135797803Y-116638680D01*
X135797803Y-116238680D01*
X135790447Y-116163991D01*
X135777460Y-116121180D01*
X135790447Y-116078369D01*
X135797803Y-116003680D01*
X135797803Y-115875503D01*
X135858272Y-115827603D01*
X135939285Y-115732299D01*
X136000149Y-115623021D01*
X136038524Y-115503969D01*
X136049960Y-115400430D01*
X135891210Y-115241680D01*
X135534110Y-115241680D01*
X135489649Y-115228193D01*
X135414960Y-115220837D01*
X134667960Y-115220837D01*
X134667960Y-115194090D01*
X134846152Y-115194090D01*
X134939442Y-115184902D01*
X135059140Y-115148592D01*
X135119136Y-115116523D01*
X135414960Y-115116523D01*
X135489649Y-115109167D01*
X135534110Y-115095680D01*
X135891210Y-115095680D01*
X136049960Y-114936930D01*
X136038524Y-114833391D01*
X136000149Y-114714339D01*
X135939285Y-114605061D01*
X135858272Y-114509757D01*
X135797803Y-114461857D01*
X135797803Y-114333680D01*
X135790447Y-114258991D01*
X135777460Y-114216180D01*
X135790447Y-114173369D01*
X135797803Y-114098680D01*
X135797803Y-113698680D01*
X135790447Y-113623991D01*
X135777460Y-113581180D01*
X135790447Y-113538369D01*
X135797803Y-113463680D01*
X135797803Y-113094380D01*
X136642801Y-113939379D01*
G36*
X138053245Y-105991196D02*
G01*
X137940390Y-106025431D01*
X137836383Y-106081024D01*
X137745220Y-106155840D01*
X137670404Y-106247003D01*
X137614811Y-106351010D01*
X137580576Y-106463865D01*
X137569017Y-106581230D01*
X137569017Y-107022294D01*
X137539444Y-107077622D01*
X137528508Y-107098083D01*
X137502364Y-107184265D01*
X137500382Y-107204386D01*
X137493537Y-107273892D01*
X137495749Y-107296352D01*
X137495748Y-109005178D01*
X137493537Y-109027628D01*
X137495748Y-109050078D01*
X137495748Y-109050087D01*
X137502363Y-109117254D01*
X137528507Y-109203436D01*
X137570961Y-109282863D01*
X137594217Y-109311201D01*
X137594217Y-109745490D01*
X137605776Y-109862855D01*
X137640011Y-109975710D01*
X137695604Y-110079717D01*
X137770420Y-110170880D01*
X137861583Y-110245696D01*
X137965590Y-110301289D01*
X138078445Y-110335524D01*
X138195810Y-110347083D01*
X138633310Y-110347083D01*
X138750675Y-110335524D01*
X138863530Y-110301289D01*
X138967537Y-110245696D01*
X139058700Y-110170880D01*
X139133516Y-110079717D01*
X139189109Y-109975710D01*
X139202060Y-109933017D01*
X139215011Y-109975710D01*
X139270604Y-110079717D01*
X139345420Y-110170880D01*
X139436583Y-110245696D01*
X139540590Y-110301289D01*
X139653445Y-110335524D01*
X139770810Y-110347083D01*
X140200826Y-110347083D01*
X141042801Y-111189059D01*
X141042800Y-112341662D01*
X140994035Y-112390427D01*
X140990447Y-112353991D01*
X140968661Y-112282172D01*
X140933282Y-112215984D01*
X140885671Y-112157969D01*
X140827656Y-112110358D01*
X140761468Y-112074979D01*
X140689649Y-112053193D01*
X140614960Y-112045837D01*
X139414960Y-112045837D01*
X139340271Y-112053193D01*
X139268452Y-112074979D01*
X139202264Y-112110358D01*
X139144249Y-112157969D01*
X139133161Y-112171480D01*
X138893770Y-112171480D01*
X138871320Y-112169269D01*
X138848870Y-112171480D01*
X138848860Y-112171480D01*
X138781693Y-112178095D01*
X138695511Y-112204239D01*
X138616084Y-112246693D01*
X138546467Y-112303827D01*
X138532150Y-112321272D01*
X137442593Y-113410830D01*
X137425148Y-113425147D01*
X137425001Y-113425327D01*
X137424853Y-113425147D01*
X137407408Y-113410830D01*
X136317854Y-112321277D01*
X136303533Y-112303827D01*
X136233916Y-112246693D01*
X136154489Y-112204239D01*
X136068307Y-112178095D01*
X136001140Y-112171480D01*
X136001130Y-112171480D01*
X135978680Y-112169269D01*
X135956230Y-112171480D01*
X135696759Y-112171480D01*
X135685671Y-112157969D01*
X135627656Y-112110358D01*
X135561468Y-112074979D01*
X135489649Y-112053193D01*
X135414960Y-112045837D01*
X134214960Y-112045837D01*
X134140271Y-112053193D01*
X134068452Y-112074979D01*
X134002264Y-112110358D01*
X133944249Y-112157969D01*
X133896638Y-112215984D01*
X133861259Y-112282172D01*
X133839473Y-112353991D01*
X133832117Y-112428680D01*
X133832117Y-112628680D01*
X133803927Y-112628680D01*
X133790903Y-112597236D01*
X133714461Y-112482832D01*
X133617168Y-112385539D01*
X133502764Y-112309097D01*
X133414265Y-112272440D01*
X132947314Y-111805490D01*
X132927425Y-111781255D01*
X132830734Y-111701903D01*
X132720420Y-111642938D01*
X132600722Y-111606628D01*
X132507432Y-111597440D01*
X132507421Y-111597440D01*
X132476240Y-111594369D01*
X132445059Y-111597440D01*
X132205081Y-111597440D01*
X132279745Y-111536165D01*
X132359097Y-111439474D01*
X132418062Y-111329160D01*
X132454372Y-111209462D01*
X132466632Y-111084980D01*
X132463560Y-110933230D01*
X132304810Y-110774480D01*
X131480560Y-110774480D01*
X131480560Y-110794480D01*
X131226560Y-110794480D01*
X131226560Y-110774480D01*
X130402310Y-110774480D01*
X130243560Y-110933230D01*
X130240488Y-111084980D01*
X130252748Y-111209462D01*
X130289058Y-111329160D01*
X130348023Y-111439474D01*
X130427375Y-111536165D01*
X130524066Y-111615517D01*
X130605630Y-111659114D01*
X130597104Y-111669503D01*
X130541511Y-111773510D01*
X130507276Y-111886365D01*
X130495717Y-112003730D01*
X130495717Y-112441230D01*
X130507276Y-112558595D01*
X130541511Y-112671450D01*
X130597104Y-112775457D01*
X130671920Y-112866620D01*
X130763083Y-112941436D01*
X130867090Y-112997029D01*
X130979945Y-113031264D01*
X131097310Y-113042823D01*
X131609810Y-113042823D01*
X131727175Y-113031264D01*
X131840030Y-112997029D01*
X131944037Y-112941436D01*
X132034201Y-112867440D01*
X132213215Y-112867440D01*
X132516240Y-113170465D01*
X132552897Y-113258964D01*
X132629339Y-113373368D01*
X132726632Y-113470661D01*
X132841036Y-113547103D01*
X132929536Y-113583761D01*
X133036410Y-113690634D01*
X133056295Y-113714865D01*
X133115032Y-113763069D01*
X133152987Y-113794218D01*
X133250842Y-113846523D01*
X133263300Y-113853182D01*
X133382998Y-113889492D01*
X133476288Y-113898680D01*
X133476291Y-113898680D01*
X133507480Y-113901752D01*
X133538669Y-113898680D01*
X133832117Y-113898680D01*
X133832117Y-113924090D01*
X133372090Y-113924090D01*
X133340909Y-113921019D01*
X133309728Y-113924090D01*
X133309718Y-113924090D01*
X133216428Y-113933278D01*
X133096730Y-113969588D01*
X132986415Y-114028553D01*
X132955434Y-114053979D01*
X132889725Y-114107905D01*
X132869840Y-114132135D01*
X132525093Y-114476883D01*
X132524520Y-114448590D01*
X132365770Y-114289840D01*
X131541520Y-114289840D01*
X131541520Y-114309840D01*
X131287520Y-114309840D01*
X131287520Y-114289840D01*
X131267520Y-114289840D01*
X131267520Y-114035840D01*
X131287520Y-114035840D01*
X131287520Y-113249090D01*
X131541520Y-113249090D01*
X131541520Y-114035840D01*
X132365770Y-114035840D01*
X132524520Y-113877090D01*
X132527592Y-113725340D01*
X132515332Y-113600858D01*
X132479022Y-113481160D01*
X132420057Y-113370846D01*
X132340705Y-113274155D01*
X132244014Y-113194803D01*
X132133700Y-113135838D01*
X132014002Y-113099528D01*
X131889520Y-113087268D01*
X131700270Y-113090340D01*
X131541520Y-113249090D01*
X131287520Y-113249090D01*
X131128770Y-113090340D01*
X130939520Y-113087268D01*
X130815038Y-113099528D01*
X130695340Y-113135838D01*
X130585026Y-113194803D01*
X130488335Y-113274155D01*
X130408983Y-113370846D01*
X130350018Y-113481160D01*
X130313708Y-113600858D01*
X130301448Y-113725340D01*
X130304520Y-113877090D01*
X130463268Y-114035838D01*
X130394754Y-114035838D01*
X129413000Y-113054085D01*
X129413000Y-110209980D01*
X130240488Y-110209980D01*
X130243560Y-110361730D01*
X130402310Y-110520480D01*
X131226560Y-110520480D01*
X131226560Y-109733730D01*
X131480560Y-109733730D01*
X131480560Y-110520480D01*
X132304810Y-110520480D01*
X132463560Y-110361730D01*
X132466632Y-110209980D01*
X132454372Y-110085498D01*
X132418062Y-109965800D01*
X132359097Y-109855486D01*
X132279745Y-109758795D01*
X132183054Y-109679443D01*
X132072740Y-109620478D01*
X131953042Y-109584168D01*
X131828560Y-109571908D01*
X131639310Y-109574980D01*
X131480560Y-109733730D01*
X131226560Y-109733730D01*
X131067810Y-109574980D01*
X130878560Y-109571908D01*
X130754078Y-109584168D01*
X130634380Y-109620478D01*
X130524066Y-109679443D01*
X130427375Y-109758795D01*
X130348023Y-109855486D01*
X130289058Y-109965800D01*
X130252748Y-110085498D01*
X130240488Y-110209980D01*
X129413000Y-110209980D01*
X129413000Y-108184159D01*
X129417300Y-108140499D01*
X129413000Y-108096839D01*
X129413000Y-108096833D01*
X129400136Y-107966226D01*
X129400136Y-107966224D01*
X129349302Y-107798647D01*
X129325129Y-107753423D01*
X129266753Y-107644209D01*
X129188819Y-107549247D01*
X129183495Y-107542759D01*
X129183494Y-107542758D01*
X129155659Y-107508841D01*
X129121741Y-107481006D01*
X128892236Y-107251500D01*
X133995225Y-107251500D01*
X134052083Y-107308358D01*
X134053731Y-107313790D01*
X134109324Y-107417797D01*
X134184140Y-107508960D01*
X134275303Y-107583776D01*
X134379310Y-107639369D01*
X134492165Y-107673604D01*
X134586091Y-107682855D01*
X134654005Y-107703456D01*
X134669631Y-107704995D01*
X134828280Y-107720621D01*
X134973874Y-107706281D01*
X135002555Y-107703456D01*
X135070469Y-107682855D01*
X135164395Y-107673604D01*
X135277250Y-107639369D01*
X135381257Y-107583776D01*
X135472420Y-107508960D01*
X135479389Y-107500468D01*
X135479388Y-108868001D01*
X135467340Y-108853320D01*
X135376177Y-108778504D01*
X135272170Y-108722911D01*
X135159315Y-108688676D01*
X135041950Y-108677117D01*
X134604450Y-108677117D01*
X134487085Y-108688676D01*
X134374230Y-108722911D01*
X134270223Y-108778504D01*
X134179060Y-108853320D01*
X134104244Y-108944483D01*
X134048651Y-109048490D01*
X134014416Y-109161345D01*
X134002857Y-109278710D01*
X134002857Y-109708725D01*
X133503236Y-110208347D01*
X133468796Y-110201496D01*
X133331204Y-110201496D01*
X133196255Y-110228339D01*
X133069136Y-110280993D01*
X132954732Y-110357435D01*
X132857439Y-110454728D01*
X132780997Y-110569132D01*
X132728343Y-110696251D01*
X132701500Y-110831200D01*
X132701500Y-110968792D01*
X132728343Y-111103741D01*
X132780997Y-111230860D01*
X132857439Y-111345264D01*
X132954732Y-111442557D01*
X133069136Y-111518999D01*
X133196255Y-111571653D01*
X133331204Y-111598496D01*
X133468796Y-111598496D01*
X133603745Y-111571653D01*
X133730864Y-111518999D01*
X133845268Y-111442557D01*
X133942561Y-111345264D01*
X134019003Y-111230860D01*
X134071657Y-111103741D01*
X134098500Y-110968792D01*
X134098500Y-110906237D01*
X134611935Y-110392803D01*
X135041950Y-110392803D01*
X135159315Y-110381244D01*
X135272170Y-110347009D01*
X135376177Y-110291416D01*
X135467340Y-110216600D01*
X135542156Y-110125437D01*
X135597749Y-110021430D01*
X135610700Y-109978737D01*
X135623651Y-110021430D01*
X135679244Y-110125437D01*
X135754060Y-110216600D01*
X135845223Y-110291416D01*
X135949230Y-110347009D01*
X136062085Y-110381244D01*
X136179450Y-110392803D01*
X136616950Y-110392803D01*
X136734315Y-110381244D01*
X136847170Y-110347009D01*
X136951177Y-110291416D01*
X137042340Y-110216600D01*
X137117156Y-110125437D01*
X137172749Y-110021430D01*
X137206984Y-109908575D01*
X137218543Y-109791210D01*
X137218543Y-109278710D01*
X137206984Y-109161345D01*
X137172749Y-109048490D01*
X137117156Y-108944483D01*
X137042340Y-108853320D01*
X136951177Y-108778504D01*
X136847170Y-108722911D01*
X136734315Y-108688676D01*
X136616950Y-108677117D01*
X136393788Y-108677117D01*
X136393788Y-107685163D01*
X136622030Y-107685163D01*
X136739395Y-107673604D01*
X136852250Y-107639369D01*
X136956257Y-107583776D01*
X137047420Y-107508960D01*
X137122236Y-107417797D01*
X137177829Y-107313790D01*
X137212064Y-107200935D01*
X137223623Y-107083570D01*
X137223623Y-106571070D01*
X137212064Y-106453705D01*
X137177829Y-106340850D01*
X137122236Y-106236843D01*
X137047420Y-106145680D01*
X136956257Y-106070864D01*
X136852250Y-106015271D01*
X136765648Y-105989000D01*
X138075542Y-105989000D01*
X138053245Y-105991196D01*
G37*
X138053245Y-105991196D02*
X137940390Y-106025431D01*
X137836383Y-106081024D01*
X137745220Y-106155840D01*
X137670404Y-106247003D01*
X137614811Y-106351010D01*
X137580576Y-106463865D01*
X137569017Y-106581230D01*
X137569017Y-107022294D01*
X137539444Y-107077622D01*
X137528508Y-107098083D01*
X137502364Y-107184265D01*
X137500382Y-107204386D01*
X137493537Y-107273892D01*
X137495749Y-107296352D01*
X137495748Y-109005178D01*
X137493537Y-109027628D01*
X137495748Y-109050078D01*
X137495748Y-109050087D01*
X137502363Y-109117254D01*
X137528507Y-109203436D01*
X137570961Y-109282863D01*
X137594217Y-109311201D01*
X137594217Y-109745490D01*
X137605776Y-109862855D01*
X137640011Y-109975710D01*
X137695604Y-110079717D01*
X137770420Y-110170880D01*
X137861583Y-110245696D01*
X137965590Y-110301289D01*
X138078445Y-110335524D01*
X138195810Y-110347083D01*
X138633310Y-110347083D01*
X138750675Y-110335524D01*
X138863530Y-110301289D01*
X138967537Y-110245696D01*
X139058700Y-110170880D01*
X139133516Y-110079717D01*
X139189109Y-109975710D01*
X139202060Y-109933017D01*
X139215011Y-109975710D01*
X139270604Y-110079717D01*
X139345420Y-110170880D01*
X139436583Y-110245696D01*
X139540590Y-110301289D01*
X139653445Y-110335524D01*
X139770810Y-110347083D01*
X140200826Y-110347083D01*
X141042801Y-111189059D01*
X141042800Y-112341662D01*
X140994035Y-112390427D01*
X140990447Y-112353991D01*
X140968661Y-112282172D01*
X140933282Y-112215984D01*
X140885671Y-112157969D01*
X140827656Y-112110358D01*
X140761468Y-112074979D01*
X140689649Y-112053193D01*
X140614960Y-112045837D01*
X139414960Y-112045837D01*
X139340271Y-112053193D01*
X139268452Y-112074979D01*
X139202264Y-112110358D01*
X139144249Y-112157969D01*
X139133161Y-112171480D01*
X138893770Y-112171480D01*
X138871320Y-112169269D01*
X138848870Y-112171480D01*
X138848860Y-112171480D01*
X138781693Y-112178095D01*
X138695511Y-112204239D01*
X138616084Y-112246693D01*
X138546467Y-112303827D01*
X138532150Y-112321272D01*
X137442593Y-113410830D01*
X137425148Y-113425147D01*
X137425001Y-113425327D01*
X137424853Y-113425147D01*
X137407408Y-113410830D01*
X136317854Y-112321277D01*
X136303533Y-112303827D01*
X136233916Y-112246693D01*
X136154489Y-112204239D01*
X136068307Y-112178095D01*
X136001140Y-112171480D01*
X136001130Y-112171480D01*
X135978680Y-112169269D01*
X135956230Y-112171480D01*
X135696759Y-112171480D01*
X135685671Y-112157969D01*
X135627656Y-112110358D01*
X135561468Y-112074979D01*
X135489649Y-112053193D01*
X135414960Y-112045837D01*
X134214960Y-112045837D01*
X134140271Y-112053193D01*
X134068452Y-112074979D01*
X134002264Y-112110358D01*
X133944249Y-112157969D01*
X133896638Y-112215984D01*
X133861259Y-112282172D01*
X133839473Y-112353991D01*
X133832117Y-112428680D01*
X133832117Y-112628680D01*
X133803927Y-112628680D01*
X133790903Y-112597236D01*
X133714461Y-112482832D01*
X133617168Y-112385539D01*
X133502764Y-112309097D01*
X133414265Y-112272440D01*
X132947314Y-111805490D01*
X132927425Y-111781255D01*
X132830734Y-111701903D01*
X132720420Y-111642938D01*
X132600722Y-111606628D01*
X132507432Y-111597440D01*
X132507421Y-111597440D01*
X132476240Y-111594369D01*
X132445059Y-111597440D01*
X132205081Y-111597440D01*
X132279745Y-111536165D01*
X132359097Y-111439474D01*
X132418062Y-111329160D01*
X132454372Y-111209462D01*
X132466632Y-111084980D01*
X132463560Y-110933230D01*
X132304810Y-110774480D01*
X131480560Y-110774480D01*
X131480560Y-110794480D01*
X131226560Y-110794480D01*
X131226560Y-110774480D01*
X130402310Y-110774480D01*
X130243560Y-110933230D01*
X130240488Y-111084980D01*
X130252748Y-111209462D01*
X130289058Y-111329160D01*
X130348023Y-111439474D01*
X130427375Y-111536165D01*
X130524066Y-111615517D01*
X130605630Y-111659114D01*
X130597104Y-111669503D01*
X130541511Y-111773510D01*
X130507276Y-111886365D01*
X130495717Y-112003730D01*
X130495717Y-112441230D01*
X130507276Y-112558595D01*
X130541511Y-112671450D01*
X130597104Y-112775457D01*
X130671920Y-112866620D01*
X130763083Y-112941436D01*
X130867090Y-112997029D01*
X130979945Y-113031264D01*
X131097310Y-113042823D01*
X131609810Y-113042823D01*
X131727175Y-113031264D01*
X131840030Y-112997029D01*
X131944037Y-112941436D01*
X132034201Y-112867440D01*
X132213215Y-112867440D01*
X132516240Y-113170465D01*
X132552897Y-113258964D01*
X132629339Y-113373368D01*
X132726632Y-113470661D01*
X132841036Y-113547103D01*
X132929536Y-113583761D01*
X133036410Y-113690634D01*
X133056295Y-113714865D01*
X133115032Y-113763069D01*
X133152987Y-113794218D01*
X133250842Y-113846523D01*
X133263300Y-113853182D01*
X133382998Y-113889492D01*
X133476288Y-113898680D01*
X133476291Y-113898680D01*
X133507480Y-113901752D01*
X133538669Y-113898680D01*
X133832117Y-113898680D01*
X133832117Y-113924090D01*
X133372090Y-113924090D01*
X133340909Y-113921019D01*
X133309728Y-113924090D01*
X133309718Y-113924090D01*
X133216428Y-113933278D01*
X133096730Y-113969588D01*
X132986415Y-114028553D01*
X132955434Y-114053979D01*
X132889725Y-114107905D01*
X132869840Y-114132135D01*
X132525093Y-114476883D01*
X132524520Y-114448590D01*
X132365770Y-114289840D01*
X131541520Y-114289840D01*
X131541520Y-114309840D01*
X131287520Y-114309840D01*
X131287520Y-114289840D01*
X131267520Y-114289840D01*
X131267520Y-114035840D01*
X131287520Y-114035840D01*
X131287520Y-113249090D01*
X131541520Y-113249090D01*
X131541520Y-114035840D01*
X132365770Y-114035840D01*
X132524520Y-113877090D01*
X132527592Y-113725340D01*
X132515332Y-113600858D01*
X132479022Y-113481160D01*
X132420057Y-113370846D01*
X132340705Y-113274155D01*
X132244014Y-113194803D01*
X132133700Y-113135838D01*
X132014002Y-113099528D01*
X131889520Y-113087268D01*
X131700270Y-113090340D01*
X131541520Y-113249090D01*
X131287520Y-113249090D01*
X131128770Y-113090340D01*
X130939520Y-113087268D01*
X130815038Y-113099528D01*
X130695340Y-113135838D01*
X130585026Y-113194803D01*
X130488335Y-113274155D01*
X130408983Y-113370846D01*
X130350018Y-113481160D01*
X130313708Y-113600858D01*
X130301448Y-113725340D01*
X130304520Y-113877090D01*
X130463268Y-114035838D01*
X130394754Y-114035838D01*
X129413000Y-113054085D01*
X129413000Y-110209980D01*
X130240488Y-110209980D01*
X130243560Y-110361730D01*
X130402310Y-110520480D01*
X131226560Y-110520480D01*
X131226560Y-109733730D01*
X131480560Y-109733730D01*
X131480560Y-110520480D01*
X132304810Y-110520480D01*
X132463560Y-110361730D01*
X132466632Y-110209980D01*
X132454372Y-110085498D01*
X132418062Y-109965800D01*
X132359097Y-109855486D01*
X132279745Y-109758795D01*
X132183054Y-109679443D01*
X132072740Y-109620478D01*
X131953042Y-109584168D01*
X131828560Y-109571908D01*
X131639310Y-109574980D01*
X131480560Y-109733730D01*
X131226560Y-109733730D01*
X131067810Y-109574980D01*
X130878560Y-109571908D01*
X130754078Y-109584168D01*
X130634380Y-109620478D01*
X130524066Y-109679443D01*
X130427375Y-109758795D01*
X130348023Y-109855486D01*
X130289058Y-109965800D01*
X130252748Y-110085498D01*
X130240488Y-110209980D01*
X129413000Y-110209980D01*
X129413000Y-108184159D01*
X129417300Y-108140499D01*
X129413000Y-108096839D01*
X129413000Y-108096833D01*
X129400136Y-107966226D01*
X129400136Y-107966224D01*
X129349302Y-107798647D01*
X129325129Y-107753423D01*
X129266753Y-107644209D01*
X129188819Y-107549247D01*
X129183495Y-107542759D01*
X129183494Y-107542758D01*
X129155659Y-107508841D01*
X129121741Y-107481006D01*
X128892236Y-107251500D01*
X133995225Y-107251500D01*
X134052083Y-107308358D01*
X134053731Y-107313790D01*
X134109324Y-107417797D01*
X134184140Y-107508960D01*
X134275303Y-107583776D01*
X134379310Y-107639369D01*
X134492165Y-107673604D01*
X134586091Y-107682855D01*
X134654005Y-107703456D01*
X134669631Y-107704995D01*
X134828280Y-107720621D01*
X134973874Y-107706281D01*
X135002555Y-107703456D01*
X135070469Y-107682855D01*
X135164395Y-107673604D01*
X135277250Y-107639369D01*
X135381257Y-107583776D01*
X135472420Y-107508960D01*
X135479389Y-107500468D01*
X135479388Y-108868001D01*
X135467340Y-108853320D01*
X135376177Y-108778504D01*
X135272170Y-108722911D01*
X135159315Y-108688676D01*
X135041950Y-108677117D01*
X134604450Y-108677117D01*
X134487085Y-108688676D01*
X134374230Y-108722911D01*
X134270223Y-108778504D01*
X134179060Y-108853320D01*
X134104244Y-108944483D01*
X134048651Y-109048490D01*
X134014416Y-109161345D01*
X134002857Y-109278710D01*
X134002857Y-109708725D01*
X133503236Y-110208347D01*
X133468796Y-110201496D01*
X133331204Y-110201496D01*
X133196255Y-110228339D01*
X133069136Y-110280993D01*
X132954732Y-110357435D01*
X132857439Y-110454728D01*
X132780997Y-110569132D01*
X132728343Y-110696251D01*
X132701500Y-110831200D01*
X132701500Y-110968792D01*
X132728343Y-111103741D01*
X132780997Y-111230860D01*
X132857439Y-111345264D01*
X132954732Y-111442557D01*
X133069136Y-111518999D01*
X133196255Y-111571653D01*
X133331204Y-111598496D01*
X133468796Y-111598496D01*
X133603745Y-111571653D01*
X133730864Y-111518999D01*
X133845268Y-111442557D01*
X133942561Y-111345264D01*
X134019003Y-111230860D01*
X134071657Y-111103741D01*
X134098500Y-110968792D01*
X134098500Y-110906237D01*
X134611935Y-110392803D01*
X135041950Y-110392803D01*
X135159315Y-110381244D01*
X135272170Y-110347009D01*
X135376177Y-110291416D01*
X135467340Y-110216600D01*
X135542156Y-110125437D01*
X135597749Y-110021430D01*
X135610700Y-109978737D01*
X135623651Y-110021430D01*
X135679244Y-110125437D01*
X135754060Y-110216600D01*
X135845223Y-110291416D01*
X135949230Y-110347009D01*
X136062085Y-110381244D01*
X136179450Y-110392803D01*
X136616950Y-110392803D01*
X136734315Y-110381244D01*
X136847170Y-110347009D01*
X136951177Y-110291416D01*
X137042340Y-110216600D01*
X137117156Y-110125437D01*
X137172749Y-110021430D01*
X137206984Y-109908575D01*
X137218543Y-109791210D01*
X137218543Y-109278710D01*
X137206984Y-109161345D01*
X137172749Y-109048490D01*
X137117156Y-108944483D01*
X137042340Y-108853320D01*
X136951177Y-108778504D01*
X136847170Y-108722911D01*
X136734315Y-108688676D01*
X136616950Y-108677117D01*
X136393788Y-108677117D01*
X136393788Y-107685163D01*
X136622030Y-107685163D01*
X136739395Y-107673604D01*
X136852250Y-107639369D01*
X136956257Y-107583776D01*
X137047420Y-107508960D01*
X137122236Y-107417797D01*
X137177829Y-107313790D01*
X137212064Y-107200935D01*
X137223623Y-107083570D01*
X137223623Y-106571070D01*
X137212064Y-106453705D01*
X137177829Y-106340850D01*
X137122236Y-106236843D01*
X137047420Y-106145680D01*
X136956257Y-106070864D01*
X136852250Y-106015271D01*
X136765648Y-105989000D01*
X138075542Y-105989000D01*
X138053245Y-105991196D01*
M02*
