G04 #@! TF.GenerationSoftware,KiCad,Pcbnew,(5.1.5)-3*
G04 #@! TF.CreationDate,2019-12-14T15:37:32-08:00*
G04 #@! TF.ProjectId,programmer,70726f67-7261-46d6-9d65-722e6b696361,rev?*
G04 #@! TF.SameCoordinates,Original*
G04 #@! TF.FileFunction,Legend,Top*
G04 #@! TF.FilePolarity,Positive*
%FSLAX46Y46*%
G04 Gerber Fmt 4.6, Leading zero omitted, Abs format (unit mm)*
G04 Created by KiCad (PCBNEW (5.1.5)-3) date 2019-12-14 15:37:32*
%MOMM*%
%LPD*%
G04 APERTURE LIST*
%ADD10C,0.150000*%
%ADD11C,0.120000*%
%ADD12C,0.100000*%
G04 APERTURE END LIST*
D10*
X140843095Y-109180380D02*
X141414523Y-109180380D01*
X141128809Y-110180380D02*
X141128809Y-109180380D01*
X141652619Y-109180380D02*
X142319285Y-110180380D01*
X142319285Y-109180380D02*
X141652619Y-110180380D01*
X132929333Y-110180380D02*
X132596000Y-109704190D01*
X132357904Y-110180380D02*
X132357904Y-109180380D01*
X132738857Y-109180380D01*
X132834095Y-109228000D01*
X132881714Y-109275619D01*
X132929333Y-109370857D01*
X132929333Y-109513714D01*
X132881714Y-109608952D01*
X132834095Y-109656571D01*
X132738857Y-109704190D01*
X132357904Y-109704190D01*
X133262666Y-109180380D02*
X133929333Y-110180380D01*
X133929333Y-109180380D02*
X133262666Y-110180380D01*
X119753071Y-113831595D02*
X119753071Y-113498261D01*
X120276880Y-113355404D02*
X120276880Y-113831595D01*
X119276880Y-113831595D01*
X119276880Y-113355404D01*
X120276880Y-112926833D02*
X119276880Y-112926833D01*
X120276880Y-112355404D01*
X119276880Y-112355404D01*
X119816571Y-125499642D02*
X119864190Y-125356785D01*
X119911809Y-125309166D01*
X120007047Y-125261547D01*
X120149904Y-125261547D01*
X120245142Y-125309166D01*
X120292761Y-125356785D01*
X120340380Y-125452023D01*
X120340380Y-125832976D01*
X119340380Y-125832976D01*
X119340380Y-125499642D01*
X119388000Y-125404404D01*
X119435619Y-125356785D01*
X119530857Y-125309166D01*
X119626095Y-125309166D01*
X119721333Y-125356785D01*
X119768952Y-125404404D01*
X119816571Y-125499642D01*
X119816571Y-125832976D01*
X119340380Y-124642500D02*
X119340380Y-124452023D01*
X119388000Y-124356785D01*
X119483238Y-124261547D01*
X119673714Y-124213928D01*
X120007047Y-124213928D01*
X120197523Y-124261547D01*
X120292761Y-124356785D01*
X120340380Y-124452023D01*
X120340380Y-124642500D01*
X120292761Y-124737738D01*
X120197523Y-124832976D01*
X120007047Y-124880595D01*
X119673714Y-124880595D01*
X119483238Y-124832976D01*
X119388000Y-124737738D01*
X119340380Y-124642500D01*
X119340380Y-123594880D02*
X119340380Y-123404404D01*
X119388000Y-123309166D01*
X119483238Y-123213928D01*
X119673714Y-123166309D01*
X120007047Y-123166309D01*
X120197523Y-123213928D01*
X120292761Y-123309166D01*
X120340380Y-123404404D01*
X120340380Y-123594880D01*
X120292761Y-123690119D01*
X120197523Y-123785357D01*
X120007047Y-123832976D01*
X119673714Y-123832976D01*
X119483238Y-123785357D01*
X119388000Y-123690119D01*
X119340380Y-123594880D01*
X119340380Y-122880595D02*
X119340380Y-122309166D01*
X120340380Y-122594880D02*
X119340380Y-122594880D01*
D11*
X127154500Y-116222000D02*
X127154500Y-109762000D01*
X122624500Y-116222000D02*
X125224500Y-116222000D01*
X120694500Y-116222000D02*
X120694500Y-109762000D01*
X122624500Y-109762000D02*
X125224500Y-109762000D01*
X120724500Y-116222000D02*
X120694500Y-116222000D01*
X127154500Y-116222000D02*
X127124500Y-116222000D01*
X127154500Y-109762000D02*
X127124500Y-109762000D01*
X120694500Y-109762000D02*
X120724500Y-109762000D01*
X127154500Y-127398000D02*
X127154500Y-120938000D01*
X122624500Y-127398000D02*
X125224500Y-127398000D01*
X120694500Y-127398000D02*
X120694500Y-120938000D01*
X122624500Y-120938000D02*
X125224500Y-120938000D01*
X120724500Y-127398000D02*
X120694500Y-127398000D01*
X127154500Y-127398000D02*
X127124500Y-127398000D01*
X127154500Y-120938000D02*
X127124500Y-120938000D01*
X120694500Y-120938000D02*
X120724500Y-120938000D01*
X150050000Y-111410000D02*
X151380000Y-111410000D01*
X151380000Y-111410000D02*
X151380000Y-112740000D01*
X148780000Y-111410000D02*
X148780000Y-114010000D01*
X148780000Y-114010000D02*
X151380000Y-114010000D01*
X151380000Y-114010000D02*
X151380000Y-124230000D01*
X146180000Y-124230000D02*
X151380000Y-124230000D01*
X146180000Y-111410000D02*
X146180000Y-124230000D01*
X146180000Y-111410000D02*
X148780000Y-111410000D01*
D10*
X140689960Y-117576180D02*
X135414960Y-117576180D01*
X139414960Y-112176180D02*
X135414960Y-112176180D01*
D11*
X139339639Y-106327480D02*
X139014081Y-106327480D01*
X139339639Y-107347480D02*
X139014081Y-107347480D01*
X135453001Y-107337320D02*
X135778559Y-107337320D01*
X135453001Y-106317320D02*
X135778559Y-106317320D01*
X129741200Y-124972961D02*
X129741200Y-125298519D01*
X130761200Y-124972961D02*
X130761200Y-125298519D01*
X135898160Y-120766521D02*
X135898160Y-121092079D01*
X136918160Y-120766521D02*
X136918160Y-121092079D01*
X137899680Y-120756361D02*
X137899680Y-121081919D01*
X138919680Y-120756361D02*
X138919680Y-121081919D01*
D12*
X125379000Y-107062500D02*
X125379000Y-106762500D01*
X125754000Y-107062500D02*
X125379000Y-107062500D01*
X125379000Y-103762500D02*
X125829000Y-103762500D01*
X125379000Y-104062500D02*
X125379000Y-103762500D01*
X125379000Y-103987500D02*
X125379000Y-104112500D01*
X127029000Y-103762500D02*
X127029000Y-104112500D01*
X126554000Y-103762500D02*
X127029000Y-103762500D01*
X127029000Y-106737500D02*
X127804000Y-106737500D01*
X127029000Y-106787500D02*
X127029000Y-106737500D01*
X126654000Y-107062500D02*
X127029000Y-106787500D01*
X126379000Y-107062500D02*
X126654000Y-107062500D01*
X141815640Y-130065480D02*
X141815640Y-129215480D01*
X141365640Y-130065480D02*
X141815640Y-130065480D01*
X133715640Y-130065480D02*
X134215640Y-130065480D01*
X133715640Y-129265480D02*
X133715640Y-130065480D01*
X135865640Y-124315480D02*
X136165640Y-124315480D01*
X133715640Y-126065480D02*
X133715640Y-126515480D01*
X139415640Y-124315480D02*
X139715640Y-124315480D01*
X141815640Y-126065480D02*
X141815640Y-126565480D01*
D11*
X139364839Y-108979240D02*
X139039281Y-108979240D01*
X139364839Y-109999240D02*
X139039281Y-109999240D01*
X135447921Y-110044960D02*
X135773479Y-110044960D01*
X135447921Y-109024960D02*
X135773479Y-109024960D01*
X131863560Y-111597759D02*
X131863560Y-111272201D01*
X130843560Y-111597759D02*
X130843560Y-111272201D01*
X131924520Y-115113119D02*
X131924520Y-114787561D01*
X130904520Y-115113119D02*
X130904520Y-114787561D01*
X132034161Y-121546080D02*
X132359719Y-121546080D01*
X132034161Y-120526080D02*
X132359719Y-120526080D01*
D10*
X148446666Y-109422380D02*
X148446666Y-110136666D01*
X148399047Y-110279523D01*
X148303809Y-110374761D01*
X148160952Y-110422380D01*
X148065714Y-110422380D01*
X148875238Y-109517619D02*
X148922857Y-109470000D01*
X149018095Y-109422380D01*
X149256190Y-109422380D01*
X149351428Y-109470000D01*
X149399047Y-109517619D01*
X149446666Y-109612857D01*
X149446666Y-109708095D01*
X149399047Y-109850952D01*
X148827619Y-110422380D01*
X149446666Y-110422380D01*
X136814655Y-110846620D02*
X136814655Y-111656144D01*
X136862274Y-111751382D01*
X136909893Y-111799001D01*
X137005131Y-111846620D01*
X137195607Y-111846620D01*
X137290845Y-111799001D01*
X137338464Y-111751382D01*
X137386083Y-111656144D01*
X137386083Y-110846620D01*
X138386083Y-111846620D02*
X137814655Y-111846620D01*
X138100369Y-111846620D02*
X138100369Y-110846620D01*
X138005131Y-110989478D01*
X137909893Y-111084716D01*
X137814655Y-111132335D01*
X141494213Y-107259380D02*
X141160880Y-106783190D01*
X140922784Y-107259380D02*
X140922784Y-106259380D01*
X141303737Y-106259380D01*
X141398975Y-106307000D01*
X141446594Y-106354619D01*
X141494213Y-106449857D01*
X141494213Y-106592714D01*
X141446594Y-106687952D01*
X141398975Y-106735571D01*
X141303737Y-106783190D01*
X140922784Y-106783190D01*
X142398975Y-106259380D02*
X141922784Y-106259380D01*
X141875165Y-106735571D01*
X141922784Y-106687952D01*
X142018022Y-106640333D01*
X142256118Y-106640333D01*
X142351356Y-106687952D01*
X142398975Y-106735571D01*
X142446594Y-106830809D01*
X142446594Y-107068904D01*
X142398975Y-107164142D01*
X142351356Y-107211761D01*
X142256118Y-107259380D01*
X142018022Y-107259380D01*
X141922784Y-107211761D01*
X141875165Y-107164142D01*
X132909013Y-107269540D02*
X132575680Y-106793350D01*
X132337584Y-107269540D02*
X132337584Y-106269540D01*
X132718537Y-106269540D01*
X132813775Y-106317160D01*
X132861394Y-106364779D01*
X132909013Y-106460017D01*
X132909013Y-106602874D01*
X132861394Y-106698112D01*
X132813775Y-106745731D01*
X132718537Y-106793350D01*
X132337584Y-106793350D01*
X133766156Y-106602874D02*
X133766156Y-107269540D01*
X133528060Y-106221921D02*
X133289965Y-106936207D01*
X133909013Y-106936207D01*
X132133580Y-125302406D02*
X131657390Y-125635740D01*
X132133580Y-125873835D02*
X131133580Y-125873835D01*
X131133580Y-125492882D01*
X131181200Y-125397644D01*
X131228819Y-125350025D01*
X131324057Y-125302406D01*
X131466914Y-125302406D01*
X131562152Y-125350025D01*
X131609771Y-125397644D01*
X131657390Y-125492882D01*
X131657390Y-125873835D01*
X131133580Y-124969073D02*
X131133580Y-124350025D01*
X131514533Y-124683359D01*
X131514533Y-124540501D01*
X131562152Y-124445263D01*
X131609771Y-124397644D01*
X131705009Y-124350025D01*
X131943104Y-124350025D01*
X132038342Y-124397644D01*
X132085961Y-124445263D01*
X132133580Y-124540501D01*
X132133580Y-124826216D01*
X132085961Y-124921454D01*
X132038342Y-124969073D01*
X135458460Y-121111306D02*
X134982270Y-121444640D01*
X135458460Y-121682735D02*
X134458460Y-121682735D01*
X134458460Y-121301782D01*
X134506080Y-121206544D01*
X134553699Y-121158925D01*
X134648937Y-121111306D01*
X134791794Y-121111306D01*
X134887032Y-121158925D01*
X134934651Y-121206544D01*
X134982270Y-121301782D01*
X134982270Y-121682735D01*
X134553699Y-120730354D02*
X134506080Y-120682735D01*
X134458460Y-120587497D01*
X134458460Y-120349401D01*
X134506080Y-120254163D01*
X134553699Y-120206544D01*
X134648937Y-120158925D01*
X134744175Y-120158925D01*
X134887032Y-120206544D01*
X135458460Y-120777973D01*
X135458460Y-120158925D01*
X140292060Y-121085806D02*
X139815870Y-121419140D01*
X140292060Y-121657235D02*
X139292060Y-121657235D01*
X139292060Y-121276282D01*
X139339680Y-121181044D01*
X139387299Y-121133425D01*
X139482537Y-121085806D01*
X139625394Y-121085806D01*
X139720632Y-121133425D01*
X139768251Y-121181044D01*
X139815870Y-121276282D01*
X139815870Y-121657235D01*
X140292060Y-120133425D02*
X140292060Y-120704854D01*
X140292060Y-120419140D02*
X139292060Y-120419140D01*
X139434918Y-120514378D01*
X139530156Y-120609616D01*
X139577775Y-120704854D01*
X123801119Y-105441738D02*
X123753500Y-105536976D01*
X123658261Y-105632214D01*
X123515404Y-105775071D01*
X123467785Y-105870309D01*
X123467785Y-105965547D01*
X123705880Y-105917928D02*
X123658261Y-106013166D01*
X123563023Y-106108404D01*
X123372547Y-106156023D01*
X123039214Y-106156023D01*
X122848738Y-106108404D01*
X122753500Y-106013166D01*
X122705880Y-105917928D01*
X122705880Y-105727452D01*
X122753500Y-105632214D01*
X122848738Y-105536976D01*
X123039214Y-105489357D01*
X123372547Y-105489357D01*
X123563023Y-105536976D01*
X123658261Y-105632214D01*
X123705880Y-105727452D01*
X123705880Y-105917928D01*
X123705880Y-104536976D02*
X123705880Y-105108404D01*
X123705880Y-104822690D02*
X122705880Y-104822690D01*
X122848738Y-104917928D01*
X122943976Y-105013166D01*
X122991595Y-105108404D01*
X131410460Y-127744813D02*
X132124746Y-127744813D01*
X132267603Y-127792432D01*
X132362841Y-127887670D01*
X132410460Y-128030527D01*
X132410460Y-128125765D01*
X132410460Y-126744813D02*
X132410460Y-127316241D01*
X132410460Y-127030527D02*
X131410460Y-127030527D01*
X131553318Y-127125765D01*
X131648556Y-127221003D01*
X131696175Y-127316241D01*
X130280702Y-111601646D02*
X130328321Y-111649265D01*
X130375940Y-111792122D01*
X130375940Y-111887360D01*
X130328321Y-112030218D01*
X130233083Y-112125456D01*
X130137845Y-112173075D01*
X129947369Y-112220694D01*
X129804512Y-112220694D01*
X129614036Y-112173075D01*
X129518798Y-112125456D01*
X129423560Y-112030218D01*
X129375940Y-111887360D01*
X129375940Y-111792122D01*
X129423560Y-111649265D01*
X129471179Y-111601646D01*
X129375940Y-110696884D02*
X129375940Y-111173075D01*
X129852131Y-111220694D01*
X129804512Y-111173075D01*
X129756893Y-111077837D01*
X129756893Y-110839741D01*
X129804512Y-110744503D01*
X129852131Y-110696884D01*
X129947369Y-110649265D01*
X130185464Y-110649265D01*
X130280702Y-110696884D01*
X130328321Y-110744503D01*
X130375940Y-110839741D01*
X130375940Y-111077837D01*
X130328321Y-111173075D01*
X130280702Y-111220694D01*
X130341662Y-115117006D02*
X130389281Y-115164625D01*
X130436900Y-115307482D01*
X130436900Y-115402720D01*
X130389281Y-115545578D01*
X130294043Y-115640816D01*
X130198805Y-115688435D01*
X130008329Y-115736054D01*
X129865472Y-115736054D01*
X129674996Y-115688435D01*
X129579758Y-115640816D01*
X129484520Y-115545578D01*
X129436900Y-115402720D01*
X129436900Y-115307482D01*
X129484520Y-115164625D01*
X129532139Y-115117006D01*
X129770234Y-114259863D02*
X130436900Y-114259863D01*
X129389281Y-114497959D02*
X130103567Y-114736054D01*
X130103567Y-114117006D01*
X132030273Y-119963222D02*
X131982654Y-120010841D01*
X131839797Y-120058460D01*
X131744559Y-120058460D01*
X131601701Y-120010841D01*
X131506463Y-119915603D01*
X131458844Y-119820365D01*
X131411225Y-119629889D01*
X131411225Y-119487032D01*
X131458844Y-119296556D01*
X131506463Y-119201318D01*
X131601701Y-119106080D01*
X131744559Y-119058460D01*
X131839797Y-119058460D01*
X131982654Y-119106080D01*
X132030273Y-119153699D01*
X132363606Y-119058460D02*
X132982654Y-119058460D01*
X132649320Y-119439413D01*
X132792178Y-119439413D01*
X132887416Y-119487032D01*
X132935035Y-119534651D01*
X132982654Y-119629889D01*
X132982654Y-119867984D01*
X132935035Y-119963222D01*
X132887416Y-120010841D01*
X132792178Y-120058460D01*
X132506463Y-120058460D01*
X132411225Y-120010841D01*
X132363606Y-119963222D01*
M02*
