G04 #@! TF.GenerationSoftware,KiCad,Pcbnew,(5.1.5)-3*
G04 #@! TF.CreationDate,2019-12-14T15:37:32-08:00*
G04 #@! TF.ProjectId,programmer,70726f67-7261-46d6-9d65-722e6b696361,rev?*
G04 #@! TF.SameCoordinates,Original*
G04 #@! TF.FileFunction,Copper,L2,Bot*
G04 #@! TF.FilePolarity,Positive*
%FSLAX46Y46*%
G04 Gerber Fmt 4.6, Leading zero omitted, Abs format (unit mm)*
G04 Created by KiCad (PCBNEW (5.1.5)-3) date 2019-12-14 15:37:32*
%MOMM*%
%LPD*%
G04 APERTURE LIST*
%ADD10O,1.700000X1.700000*%
%ADD11R,1.700000X1.700000*%
%ADD12C,0.635000*%
%ADD13C,0.508000*%
%ADD14C,0.152400*%
%ADD15C,0.254000*%
G04 APERTURE END LIST*
D10*
X147510000Y-122900000D03*
X150050000Y-122900000D03*
X147510000Y-120360000D03*
X150050000Y-120360000D03*
X147510000Y-117820000D03*
X150050000Y-117820000D03*
X147510000Y-115280000D03*
X150050000Y-115280000D03*
X147510000Y-112740000D03*
D11*
X150050000Y-112740000D03*
D12*
X132100000Y-124650000D03*
X141650000Y-122850000D03*
X134700000Y-118750000D03*
X145050000Y-111700000D03*
X133150000Y-108585000D03*
X132715000Y-113919000D03*
X133171900Y-112928100D03*
X141696320Y-115803680D03*
X130250000Y-127150000D03*
X126174500Y-111315500D03*
X144950000Y-113800000D03*
X142761356Y-116438680D03*
X142300000Y-111650000D03*
X133400000Y-110899996D03*
X133303680Y-117100000D03*
D13*
X140398500Y-111506000D02*
X134594000Y-111506000D01*
X141696320Y-115803680D02*
X141696320Y-112803820D01*
X134594000Y-111506000D02*
X133171900Y-112928100D01*
X141696320Y-112803820D02*
X140398500Y-111506000D01*
D14*
X131050000Y-126350000D02*
X130250000Y-127150000D01*
X147510000Y-120360000D02*
X141520000Y-126350000D01*
X141520000Y-126350000D02*
X131050000Y-126350000D01*
X126174500Y-110490000D02*
X126174500Y-111315500D01*
X129014500Y-107650000D02*
X126174500Y-110490000D01*
X144770000Y-117820000D02*
X143750000Y-116800000D01*
X147510000Y-117820000D02*
X144770000Y-117820000D01*
X143750000Y-116800000D02*
X143750000Y-109200000D01*
X142200000Y-107650000D02*
X129014500Y-107650000D01*
X143750000Y-109200000D02*
X142200000Y-107650000D01*
X145399012Y-113800000D02*
X144950000Y-113800000D01*
X146030000Y-113800000D02*
X145399012Y-113800000D01*
X147510000Y-115280000D02*
X146030000Y-113800000D01*
X142761356Y-112111356D02*
X142617499Y-111967499D01*
X142617499Y-111967499D02*
X142300000Y-111650000D01*
X142761356Y-116438680D02*
X142761356Y-112111356D01*
X133400000Y-110899996D02*
X132000000Y-112299996D01*
X132000000Y-112299996D02*
X132000000Y-115796320D01*
X132000000Y-115796320D02*
X132986181Y-116782501D01*
X132986181Y-116782501D02*
X133303680Y-117100000D01*
D15*
G36*
X151969000Y-129744000D02*
G01*
X118541000Y-129744000D01*
X118541000Y-127081204D01*
X129551500Y-127081204D01*
X129551500Y-127218796D01*
X129578343Y-127353745D01*
X129630997Y-127480864D01*
X129707439Y-127595268D01*
X129804732Y-127692561D01*
X129919136Y-127769003D01*
X130046255Y-127821657D01*
X130181204Y-127848500D01*
X130318796Y-127848500D01*
X130453745Y-127821657D01*
X130580864Y-127769003D01*
X130695268Y-127692561D01*
X130792561Y-127595268D01*
X130869003Y-127480864D01*
X130921657Y-127353745D01*
X130948500Y-127218796D01*
X130948500Y-127098077D01*
X131239378Y-126807200D01*
X141497550Y-126807200D01*
X141520000Y-126809411D01*
X141542450Y-126807200D01*
X141542460Y-126807200D01*
X141609627Y-126800585D01*
X141695809Y-126774441D01*
X141775236Y-126731987D01*
X141844853Y-126674853D01*
X141859174Y-126657403D01*
X145259687Y-123256890D01*
X146068524Y-123256890D01*
X146113175Y-123404099D01*
X146238359Y-123666920D01*
X146412412Y-123900269D01*
X146628645Y-124095178D01*
X146878748Y-124244157D01*
X147153109Y-124341481D01*
X147383000Y-124220814D01*
X147383000Y-123027000D01*
X146189845Y-123027000D01*
X146068524Y-123256890D01*
X145259687Y-123256890D01*
X146109909Y-122406669D01*
X146068524Y-122543110D01*
X146189845Y-122773000D01*
X147383000Y-122773000D01*
X147383000Y-122753000D01*
X147637000Y-122753000D01*
X147637000Y-122773000D01*
X147657000Y-122773000D01*
X147657000Y-123027000D01*
X147637000Y-123027000D01*
X147637000Y-124220814D01*
X147866891Y-124341481D01*
X148141252Y-124244157D01*
X148391355Y-124095178D01*
X148607588Y-123900269D01*
X148781641Y-123666920D01*
X148906825Y-123404099D01*
X148915091Y-123376846D01*
X148959102Y-123483097D01*
X149093820Y-123684717D01*
X149265283Y-123856180D01*
X149466903Y-123990898D01*
X149690931Y-124083693D01*
X149928757Y-124131000D01*
X150171243Y-124131000D01*
X150409069Y-124083693D01*
X150633097Y-123990898D01*
X150834717Y-123856180D01*
X151006180Y-123684717D01*
X151140898Y-123483097D01*
X151233693Y-123259069D01*
X151281000Y-123021243D01*
X151281000Y-122778757D01*
X151233693Y-122540931D01*
X151140898Y-122316903D01*
X151006180Y-122115283D01*
X150834717Y-121943820D01*
X150633097Y-121809102D01*
X150409069Y-121716307D01*
X150171243Y-121669000D01*
X149928757Y-121669000D01*
X149690931Y-121716307D01*
X149466903Y-121809102D01*
X149265283Y-121943820D01*
X149093820Y-122115283D01*
X148959102Y-122316903D01*
X148915091Y-122423154D01*
X148906825Y-122395901D01*
X148781641Y-122133080D01*
X148607588Y-121899731D01*
X148391355Y-121704822D01*
X148141252Y-121555843D01*
X147978832Y-121498228D01*
X148093097Y-121450898D01*
X148294717Y-121316180D01*
X148466180Y-121144717D01*
X148600898Y-120943097D01*
X148693693Y-120719069D01*
X148741000Y-120481243D01*
X148741000Y-120238757D01*
X148819000Y-120238757D01*
X148819000Y-120481243D01*
X148866307Y-120719069D01*
X148959102Y-120943097D01*
X149093820Y-121144717D01*
X149265283Y-121316180D01*
X149466903Y-121450898D01*
X149690931Y-121543693D01*
X149928757Y-121591000D01*
X150171243Y-121591000D01*
X150409069Y-121543693D01*
X150633097Y-121450898D01*
X150834717Y-121316180D01*
X151006180Y-121144717D01*
X151140898Y-120943097D01*
X151233693Y-120719069D01*
X151281000Y-120481243D01*
X151281000Y-120238757D01*
X151233693Y-120000931D01*
X151140898Y-119776903D01*
X151006180Y-119575283D01*
X150834717Y-119403820D01*
X150633097Y-119269102D01*
X150409069Y-119176307D01*
X150171243Y-119129000D01*
X149928757Y-119129000D01*
X149690931Y-119176307D01*
X149466903Y-119269102D01*
X149265283Y-119403820D01*
X149093820Y-119575283D01*
X148959102Y-119776903D01*
X148866307Y-120000931D01*
X148819000Y-120238757D01*
X148741000Y-120238757D01*
X148693693Y-120000931D01*
X148600898Y-119776903D01*
X148466180Y-119575283D01*
X148294717Y-119403820D01*
X148093097Y-119269102D01*
X147869069Y-119176307D01*
X147631243Y-119129000D01*
X147388757Y-119129000D01*
X147150931Y-119176307D01*
X146926903Y-119269102D01*
X146725283Y-119403820D01*
X146553820Y-119575283D01*
X146419102Y-119776903D01*
X146326307Y-120000931D01*
X146279000Y-120238757D01*
X146279000Y-120481243D01*
X146326307Y-120719069D01*
X146378455Y-120844967D01*
X141330623Y-125892800D01*
X131072450Y-125892800D01*
X131050000Y-125890589D01*
X131027550Y-125892800D01*
X131027540Y-125892800D01*
X130960373Y-125899415D01*
X130874191Y-125925559D01*
X130794764Y-125968013D01*
X130725147Y-126025147D01*
X130710830Y-126042592D01*
X130301923Y-126451500D01*
X130181204Y-126451500D01*
X130046255Y-126478343D01*
X129919136Y-126530997D01*
X129804732Y-126607439D01*
X129707439Y-126704732D01*
X129630997Y-126819136D01*
X129578343Y-126946255D01*
X129551500Y-127081204D01*
X118541000Y-127081204D01*
X118541000Y-111246704D01*
X125476000Y-111246704D01*
X125476000Y-111384296D01*
X125502843Y-111519245D01*
X125555497Y-111646364D01*
X125631939Y-111760768D01*
X125729232Y-111858061D01*
X125843636Y-111934503D01*
X125970755Y-111987157D01*
X126105704Y-112014000D01*
X126243296Y-112014000D01*
X126378245Y-111987157D01*
X126505364Y-111934503D01*
X126619768Y-111858061D01*
X126717061Y-111760768D01*
X126793503Y-111646364D01*
X126846157Y-111519245D01*
X126873000Y-111384296D01*
X126873000Y-111246704D01*
X126846157Y-111111755D01*
X126793503Y-110984636D01*
X126717061Y-110870232D01*
X126631700Y-110784871D01*
X126631700Y-110679377D01*
X129203879Y-108107200D01*
X142010623Y-108107200D01*
X143292801Y-109389379D01*
X143292800Y-115982295D01*
X143218556Y-115908051D01*
X143218556Y-112133808D01*
X143220767Y-112111356D01*
X143218556Y-112088904D01*
X143218556Y-112088896D01*
X143211941Y-112021729D01*
X143185797Y-111935547D01*
X143143343Y-111856120D01*
X143086209Y-111786503D01*
X143068763Y-111772185D01*
X142998500Y-111701923D01*
X142998500Y-111581204D01*
X142971657Y-111446255D01*
X142919003Y-111319136D01*
X142842561Y-111204732D01*
X142745268Y-111107439D01*
X142630864Y-111030997D01*
X142503745Y-110978343D01*
X142368796Y-110951500D01*
X142231204Y-110951500D01*
X142096255Y-110978343D01*
X141969136Y-111030997D01*
X141854732Y-111107439D01*
X141757439Y-111204732D01*
X141680997Y-111319136D01*
X141628343Y-111446255D01*
X141601500Y-111581204D01*
X141601500Y-111718796D01*
X141624388Y-111833863D01*
X140869574Y-111079050D01*
X140849685Y-111054815D01*
X140752994Y-110975463D01*
X140642680Y-110916498D01*
X140522982Y-110880188D01*
X140429692Y-110871000D01*
X140429681Y-110871000D01*
X140398500Y-110867929D01*
X140367319Y-110871000D01*
X134625180Y-110871000D01*
X134593999Y-110867929D01*
X134562818Y-110871000D01*
X134562808Y-110871000D01*
X134469518Y-110880188D01*
X134349820Y-110916498D01*
X134239506Y-110975463D01*
X134142815Y-111054815D01*
X134122930Y-111079045D01*
X134052864Y-111149111D01*
X134071657Y-111103741D01*
X134098500Y-110968792D01*
X134098500Y-110831200D01*
X134071657Y-110696251D01*
X134019003Y-110569132D01*
X133942561Y-110454728D01*
X133845268Y-110357435D01*
X133730864Y-110280993D01*
X133603745Y-110228339D01*
X133468796Y-110201496D01*
X133331204Y-110201496D01*
X133196255Y-110228339D01*
X133069136Y-110280993D01*
X132954732Y-110357435D01*
X132857439Y-110454728D01*
X132780997Y-110569132D01*
X132728343Y-110696251D01*
X132701500Y-110831200D01*
X132701500Y-110951918D01*
X131692597Y-111960822D01*
X131675147Y-111975143D01*
X131618013Y-112044761D01*
X131575559Y-112124188D01*
X131549415Y-112210370D01*
X131542800Y-112277537D01*
X131542800Y-112277546D01*
X131540589Y-112299996D01*
X131542800Y-112322446D01*
X131542801Y-115773860D01*
X131540589Y-115796320D01*
X131549416Y-115885946D01*
X131575560Y-115972129D01*
X131616038Y-116047859D01*
X131618014Y-116051556D01*
X131675148Y-116121173D01*
X131692592Y-116135489D01*
X132605180Y-117048079D01*
X132605180Y-117168796D01*
X132632023Y-117303745D01*
X132684677Y-117430864D01*
X132761119Y-117545268D01*
X132858412Y-117642561D01*
X132972816Y-117719003D01*
X133099935Y-117771657D01*
X133234884Y-117798500D01*
X133372476Y-117798500D01*
X133507425Y-117771657D01*
X133634544Y-117719003D01*
X133748948Y-117642561D01*
X133846241Y-117545268D01*
X133922683Y-117430864D01*
X133975337Y-117303745D01*
X134002180Y-117168796D01*
X134002180Y-117031204D01*
X133975337Y-116896255D01*
X133922683Y-116769136D01*
X133846241Y-116654732D01*
X133748948Y-116557439D01*
X133634544Y-116480997D01*
X133507425Y-116428343D01*
X133372476Y-116401500D01*
X133251759Y-116401500D01*
X132457200Y-115606943D01*
X132457200Y-112489373D01*
X133348078Y-111598496D01*
X133468796Y-111598496D01*
X133603745Y-111571653D01*
X133649115Y-111552860D01*
X132929537Y-112272439D01*
X132841036Y-112309097D01*
X132726632Y-112385539D01*
X132629339Y-112482832D01*
X132552897Y-112597236D01*
X132500243Y-112724355D01*
X132473400Y-112859304D01*
X132473400Y-112996896D01*
X132500243Y-113131845D01*
X132552897Y-113258964D01*
X132629339Y-113373368D01*
X132726632Y-113470661D01*
X132841036Y-113547103D01*
X132968155Y-113599757D01*
X133103104Y-113626600D01*
X133240696Y-113626600D01*
X133375645Y-113599757D01*
X133502764Y-113547103D01*
X133617168Y-113470661D01*
X133714461Y-113373368D01*
X133790903Y-113258964D01*
X133827561Y-113170463D01*
X134857025Y-112141000D01*
X140135476Y-112141000D01*
X141061321Y-113066847D01*
X141061320Y-115511436D01*
X141024663Y-115599935D01*
X140997820Y-115734884D01*
X140997820Y-115872476D01*
X141024663Y-116007425D01*
X141077317Y-116134544D01*
X141153759Y-116248948D01*
X141251052Y-116346241D01*
X141365456Y-116422683D01*
X141492575Y-116475337D01*
X141627524Y-116502180D01*
X141765116Y-116502180D01*
X141900065Y-116475337D01*
X142027184Y-116422683D01*
X142062856Y-116398848D01*
X142062856Y-116507476D01*
X142089699Y-116642425D01*
X142142353Y-116769544D01*
X142218795Y-116883948D01*
X142316088Y-116981241D01*
X142430492Y-117057683D01*
X142557611Y-117110337D01*
X142692560Y-117137180D01*
X142830152Y-117137180D01*
X142965101Y-117110337D01*
X143092220Y-117057683D01*
X143206624Y-116981241D01*
X143299310Y-116888555D01*
X143299415Y-116889626D01*
X143325559Y-116975808D01*
X143368013Y-117055235D01*
X143425147Y-117124853D01*
X143442597Y-117139174D01*
X144430830Y-118127408D01*
X144445147Y-118144853D01*
X144514764Y-118201987D01*
X144594191Y-118244441D01*
X144680373Y-118270585D01*
X144747540Y-118277200D01*
X144747550Y-118277200D01*
X144770000Y-118279411D01*
X144792450Y-118277200D01*
X146366954Y-118277200D01*
X146419102Y-118403097D01*
X146553820Y-118604717D01*
X146725283Y-118776180D01*
X146926903Y-118910898D01*
X147150931Y-119003693D01*
X147388757Y-119051000D01*
X147631243Y-119051000D01*
X147869069Y-119003693D01*
X148093097Y-118910898D01*
X148294717Y-118776180D01*
X148466180Y-118604717D01*
X148600898Y-118403097D01*
X148693693Y-118179069D01*
X148741000Y-117941243D01*
X148741000Y-117698757D01*
X148819000Y-117698757D01*
X148819000Y-117941243D01*
X148866307Y-118179069D01*
X148959102Y-118403097D01*
X149093820Y-118604717D01*
X149265283Y-118776180D01*
X149466903Y-118910898D01*
X149690931Y-119003693D01*
X149928757Y-119051000D01*
X150171243Y-119051000D01*
X150409069Y-119003693D01*
X150633097Y-118910898D01*
X150834717Y-118776180D01*
X151006180Y-118604717D01*
X151140898Y-118403097D01*
X151233693Y-118179069D01*
X151281000Y-117941243D01*
X151281000Y-117698757D01*
X151233693Y-117460931D01*
X151140898Y-117236903D01*
X151006180Y-117035283D01*
X150834717Y-116863820D01*
X150633097Y-116729102D01*
X150409069Y-116636307D01*
X150171243Y-116589000D01*
X149928757Y-116589000D01*
X149690931Y-116636307D01*
X149466903Y-116729102D01*
X149265283Y-116863820D01*
X149093820Y-117035283D01*
X148959102Y-117236903D01*
X148866307Y-117460931D01*
X148819000Y-117698757D01*
X148741000Y-117698757D01*
X148693693Y-117460931D01*
X148600898Y-117236903D01*
X148466180Y-117035283D01*
X148294717Y-116863820D01*
X148093097Y-116729102D01*
X147869069Y-116636307D01*
X147631243Y-116589000D01*
X147388757Y-116589000D01*
X147150931Y-116636307D01*
X146926903Y-116729102D01*
X146725283Y-116863820D01*
X146553820Y-117035283D01*
X146419102Y-117236903D01*
X146366954Y-117362800D01*
X144959378Y-117362800D01*
X144207200Y-116610623D01*
X144207200Y-113731204D01*
X144251500Y-113731204D01*
X144251500Y-113868796D01*
X144278343Y-114003745D01*
X144330997Y-114130864D01*
X144407439Y-114245268D01*
X144504732Y-114342561D01*
X144619136Y-114419003D01*
X144746255Y-114471657D01*
X144881204Y-114498500D01*
X145018796Y-114498500D01*
X145153745Y-114471657D01*
X145280864Y-114419003D01*
X145395268Y-114342561D01*
X145480629Y-114257200D01*
X145840623Y-114257200D01*
X146378455Y-114795033D01*
X146326307Y-114920931D01*
X146279000Y-115158757D01*
X146279000Y-115401243D01*
X146326307Y-115639069D01*
X146419102Y-115863097D01*
X146553820Y-116064717D01*
X146725283Y-116236180D01*
X146926903Y-116370898D01*
X147150931Y-116463693D01*
X147388757Y-116511000D01*
X147631243Y-116511000D01*
X147869069Y-116463693D01*
X148093097Y-116370898D01*
X148294717Y-116236180D01*
X148466180Y-116064717D01*
X148600898Y-115863097D01*
X148693693Y-115639069D01*
X148741000Y-115401243D01*
X148741000Y-115158757D01*
X148819000Y-115158757D01*
X148819000Y-115401243D01*
X148866307Y-115639069D01*
X148959102Y-115863097D01*
X149093820Y-116064717D01*
X149265283Y-116236180D01*
X149466903Y-116370898D01*
X149690931Y-116463693D01*
X149928757Y-116511000D01*
X150171243Y-116511000D01*
X150409069Y-116463693D01*
X150633097Y-116370898D01*
X150834717Y-116236180D01*
X151006180Y-116064717D01*
X151140898Y-115863097D01*
X151233693Y-115639069D01*
X151281000Y-115401243D01*
X151281000Y-115158757D01*
X151233693Y-114920931D01*
X151140898Y-114696903D01*
X151006180Y-114495283D01*
X150834717Y-114323820D01*
X150633097Y-114189102D01*
X150409069Y-114096307D01*
X150171243Y-114049000D01*
X149928757Y-114049000D01*
X149690931Y-114096307D01*
X149466903Y-114189102D01*
X149265283Y-114323820D01*
X149093820Y-114495283D01*
X148959102Y-114696903D01*
X148866307Y-114920931D01*
X148819000Y-115158757D01*
X148741000Y-115158757D01*
X148693693Y-114920931D01*
X148600898Y-114696903D01*
X148466180Y-114495283D01*
X148294717Y-114323820D01*
X148093097Y-114189102D01*
X147869069Y-114096307D01*
X147631243Y-114049000D01*
X147388757Y-114049000D01*
X147150931Y-114096307D01*
X147025033Y-114148455D01*
X146369174Y-113492597D01*
X146354853Y-113475147D01*
X146285236Y-113418013D01*
X146205809Y-113375559D01*
X146119627Y-113349415D01*
X146052460Y-113342800D01*
X146052450Y-113342800D01*
X146030000Y-113340589D01*
X146007550Y-113342800D01*
X145480629Y-113342800D01*
X145395268Y-113257439D01*
X145280864Y-113180997D01*
X145153745Y-113128343D01*
X145018796Y-113101500D01*
X144881204Y-113101500D01*
X144746255Y-113128343D01*
X144619136Y-113180997D01*
X144504732Y-113257439D01*
X144407439Y-113354732D01*
X144330997Y-113469136D01*
X144278343Y-113596255D01*
X144251500Y-113731204D01*
X144207200Y-113731204D01*
X144207200Y-112618757D01*
X146279000Y-112618757D01*
X146279000Y-112861243D01*
X146326307Y-113099069D01*
X146419102Y-113323097D01*
X146553820Y-113524717D01*
X146725283Y-113696180D01*
X146926903Y-113830898D01*
X147150931Y-113923693D01*
X147388757Y-113971000D01*
X147631243Y-113971000D01*
X147869069Y-113923693D01*
X148093097Y-113830898D01*
X148294717Y-113696180D01*
X148466180Y-113524717D01*
X148600898Y-113323097D01*
X148693693Y-113099069D01*
X148741000Y-112861243D01*
X148741000Y-112618757D01*
X148693693Y-112380931D01*
X148600898Y-112156903D01*
X148466180Y-111955283D01*
X148400897Y-111890000D01*
X148817157Y-111890000D01*
X148817157Y-113590000D01*
X148824513Y-113664689D01*
X148846299Y-113736508D01*
X148881678Y-113802696D01*
X148929289Y-113860711D01*
X148987304Y-113908322D01*
X149053492Y-113943701D01*
X149125311Y-113965487D01*
X149200000Y-113972843D01*
X150900000Y-113972843D01*
X150974689Y-113965487D01*
X151046508Y-113943701D01*
X151112696Y-113908322D01*
X151170711Y-113860711D01*
X151218322Y-113802696D01*
X151253701Y-113736508D01*
X151275487Y-113664689D01*
X151282843Y-113590000D01*
X151282843Y-111890000D01*
X151275487Y-111815311D01*
X151253701Y-111743492D01*
X151218322Y-111677304D01*
X151170711Y-111619289D01*
X151112696Y-111571678D01*
X151046508Y-111536299D01*
X150974689Y-111514513D01*
X150900000Y-111507157D01*
X149200000Y-111507157D01*
X149125311Y-111514513D01*
X149053492Y-111536299D01*
X148987304Y-111571678D01*
X148929289Y-111619289D01*
X148881678Y-111677304D01*
X148846299Y-111743492D01*
X148824513Y-111815311D01*
X148817157Y-111890000D01*
X148400897Y-111890000D01*
X148294717Y-111783820D01*
X148093097Y-111649102D01*
X147869069Y-111556307D01*
X147631243Y-111509000D01*
X147388757Y-111509000D01*
X147150931Y-111556307D01*
X146926903Y-111649102D01*
X146725283Y-111783820D01*
X146553820Y-111955283D01*
X146419102Y-112156903D01*
X146326307Y-112380931D01*
X146279000Y-112618757D01*
X144207200Y-112618757D01*
X144207200Y-109222449D01*
X144209411Y-109199999D01*
X144207200Y-109177549D01*
X144207200Y-109177540D01*
X144200585Y-109110373D01*
X144174441Y-109024191D01*
X144131987Y-108944764D01*
X144074853Y-108875147D01*
X144057408Y-108860830D01*
X142539174Y-107342597D01*
X142524853Y-107325147D01*
X142455236Y-107268013D01*
X142375809Y-107225559D01*
X142289627Y-107199415D01*
X142222460Y-107192800D01*
X142222450Y-107192800D01*
X142200000Y-107190589D01*
X142177550Y-107192800D01*
X129036952Y-107192800D01*
X129014500Y-107190589D01*
X128992048Y-107192800D01*
X128992040Y-107192800D01*
X128924873Y-107199415D01*
X128838690Y-107225559D01*
X128759264Y-107268013D01*
X128707092Y-107310829D01*
X128707086Y-107310835D01*
X128689647Y-107325147D01*
X128675335Y-107342586D01*
X125867097Y-110150826D01*
X125849647Y-110165147D01*
X125792513Y-110234765D01*
X125750059Y-110314192D01*
X125723915Y-110400374D01*
X125717300Y-110467541D01*
X125717300Y-110467550D01*
X125715089Y-110490000D01*
X125717300Y-110512450D01*
X125717300Y-110784871D01*
X125631939Y-110870232D01*
X125555497Y-110984636D01*
X125502843Y-111111755D01*
X125476000Y-111246704D01*
X118541000Y-111246704D01*
X118541000Y-103301000D01*
X151969001Y-103301000D01*
X151969000Y-129744000D01*
G37*
X151969000Y-129744000D02*
X118541000Y-129744000D01*
X118541000Y-127081204D01*
X129551500Y-127081204D01*
X129551500Y-127218796D01*
X129578343Y-127353745D01*
X129630997Y-127480864D01*
X129707439Y-127595268D01*
X129804732Y-127692561D01*
X129919136Y-127769003D01*
X130046255Y-127821657D01*
X130181204Y-127848500D01*
X130318796Y-127848500D01*
X130453745Y-127821657D01*
X130580864Y-127769003D01*
X130695268Y-127692561D01*
X130792561Y-127595268D01*
X130869003Y-127480864D01*
X130921657Y-127353745D01*
X130948500Y-127218796D01*
X130948500Y-127098077D01*
X131239378Y-126807200D01*
X141497550Y-126807200D01*
X141520000Y-126809411D01*
X141542450Y-126807200D01*
X141542460Y-126807200D01*
X141609627Y-126800585D01*
X141695809Y-126774441D01*
X141775236Y-126731987D01*
X141844853Y-126674853D01*
X141859174Y-126657403D01*
X145259687Y-123256890D01*
X146068524Y-123256890D01*
X146113175Y-123404099D01*
X146238359Y-123666920D01*
X146412412Y-123900269D01*
X146628645Y-124095178D01*
X146878748Y-124244157D01*
X147153109Y-124341481D01*
X147383000Y-124220814D01*
X147383000Y-123027000D01*
X146189845Y-123027000D01*
X146068524Y-123256890D01*
X145259687Y-123256890D01*
X146109909Y-122406669D01*
X146068524Y-122543110D01*
X146189845Y-122773000D01*
X147383000Y-122773000D01*
X147383000Y-122753000D01*
X147637000Y-122753000D01*
X147637000Y-122773000D01*
X147657000Y-122773000D01*
X147657000Y-123027000D01*
X147637000Y-123027000D01*
X147637000Y-124220814D01*
X147866891Y-124341481D01*
X148141252Y-124244157D01*
X148391355Y-124095178D01*
X148607588Y-123900269D01*
X148781641Y-123666920D01*
X148906825Y-123404099D01*
X148915091Y-123376846D01*
X148959102Y-123483097D01*
X149093820Y-123684717D01*
X149265283Y-123856180D01*
X149466903Y-123990898D01*
X149690931Y-124083693D01*
X149928757Y-124131000D01*
X150171243Y-124131000D01*
X150409069Y-124083693D01*
X150633097Y-123990898D01*
X150834717Y-123856180D01*
X151006180Y-123684717D01*
X151140898Y-123483097D01*
X151233693Y-123259069D01*
X151281000Y-123021243D01*
X151281000Y-122778757D01*
X151233693Y-122540931D01*
X151140898Y-122316903D01*
X151006180Y-122115283D01*
X150834717Y-121943820D01*
X150633097Y-121809102D01*
X150409069Y-121716307D01*
X150171243Y-121669000D01*
X149928757Y-121669000D01*
X149690931Y-121716307D01*
X149466903Y-121809102D01*
X149265283Y-121943820D01*
X149093820Y-122115283D01*
X148959102Y-122316903D01*
X148915091Y-122423154D01*
X148906825Y-122395901D01*
X148781641Y-122133080D01*
X148607588Y-121899731D01*
X148391355Y-121704822D01*
X148141252Y-121555843D01*
X147978832Y-121498228D01*
X148093097Y-121450898D01*
X148294717Y-121316180D01*
X148466180Y-121144717D01*
X148600898Y-120943097D01*
X148693693Y-120719069D01*
X148741000Y-120481243D01*
X148741000Y-120238757D01*
X148819000Y-120238757D01*
X148819000Y-120481243D01*
X148866307Y-120719069D01*
X148959102Y-120943097D01*
X149093820Y-121144717D01*
X149265283Y-121316180D01*
X149466903Y-121450898D01*
X149690931Y-121543693D01*
X149928757Y-121591000D01*
X150171243Y-121591000D01*
X150409069Y-121543693D01*
X150633097Y-121450898D01*
X150834717Y-121316180D01*
X151006180Y-121144717D01*
X151140898Y-120943097D01*
X151233693Y-120719069D01*
X151281000Y-120481243D01*
X151281000Y-120238757D01*
X151233693Y-120000931D01*
X151140898Y-119776903D01*
X151006180Y-119575283D01*
X150834717Y-119403820D01*
X150633097Y-119269102D01*
X150409069Y-119176307D01*
X150171243Y-119129000D01*
X149928757Y-119129000D01*
X149690931Y-119176307D01*
X149466903Y-119269102D01*
X149265283Y-119403820D01*
X149093820Y-119575283D01*
X148959102Y-119776903D01*
X148866307Y-120000931D01*
X148819000Y-120238757D01*
X148741000Y-120238757D01*
X148693693Y-120000931D01*
X148600898Y-119776903D01*
X148466180Y-119575283D01*
X148294717Y-119403820D01*
X148093097Y-119269102D01*
X147869069Y-119176307D01*
X147631243Y-119129000D01*
X147388757Y-119129000D01*
X147150931Y-119176307D01*
X146926903Y-119269102D01*
X146725283Y-119403820D01*
X146553820Y-119575283D01*
X146419102Y-119776903D01*
X146326307Y-120000931D01*
X146279000Y-120238757D01*
X146279000Y-120481243D01*
X146326307Y-120719069D01*
X146378455Y-120844967D01*
X141330623Y-125892800D01*
X131072450Y-125892800D01*
X131050000Y-125890589D01*
X131027550Y-125892800D01*
X131027540Y-125892800D01*
X130960373Y-125899415D01*
X130874191Y-125925559D01*
X130794764Y-125968013D01*
X130725147Y-126025147D01*
X130710830Y-126042592D01*
X130301923Y-126451500D01*
X130181204Y-126451500D01*
X130046255Y-126478343D01*
X129919136Y-126530997D01*
X129804732Y-126607439D01*
X129707439Y-126704732D01*
X129630997Y-126819136D01*
X129578343Y-126946255D01*
X129551500Y-127081204D01*
X118541000Y-127081204D01*
X118541000Y-111246704D01*
X125476000Y-111246704D01*
X125476000Y-111384296D01*
X125502843Y-111519245D01*
X125555497Y-111646364D01*
X125631939Y-111760768D01*
X125729232Y-111858061D01*
X125843636Y-111934503D01*
X125970755Y-111987157D01*
X126105704Y-112014000D01*
X126243296Y-112014000D01*
X126378245Y-111987157D01*
X126505364Y-111934503D01*
X126619768Y-111858061D01*
X126717061Y-111760768D01*
X126793503Y-111646364D01*
X126846157Y-111519245D01*
X126873000Y-111384296D01*
X126873000Y-111246704D01*
X126846157Y-111111755D01*
X126793503Y-110984636D01*
X126717061Y-110870232D01*
X126631700Y-110784871D01*
X126631700Y-110679377D01*
X129203879Y-108107200D01*
X142010623Y-108107200D01*
X143292801Y-109389379D01*
X143292800Y-115982295D01*
X143218556Y-115908051D01*
X143218556Y-112133808D01*
X143220767Y-112111356D01*
X143218556Y-112088904D01*
X143218556Y-112088896D01*
X143211941Y-112021729D01*
X143185797Y-111935547D01*
X143143343Y-111856120D01*
X143086209Y-111786503D01*
X143068763Y-111772185D01*
X142998500Y-111701923D01*
X142998500Y-111581204D01*
X142971657Y-111446255D01*
X142919003Y-111319136D01*
X142842561Y-111204732D01*
X142745268Y-111107439D01*
X142630864Y-111030997D01*
X142503745Y-110978343D01*
X142368796Y-110951500D01*
X142231204Y-110951500D01*
X142096255Y-110978343D01*
X141969136Y-111030997D01*
X141854732Y-111107439D01*
X141757439Y-111204732D01*
X141680997Y-111319136D01*
X141628343Y-111446255D01*
X141601500Y-111581204D01*
X141601500Y-111718796D01*
X141624388Y-111833863D01*
X140869574Y-111079050D01*
X140849685Y-111054815D01*
X140752994Y-110975463D01*
X140642680Y-110916498D01*
X140522982Y-110880188D01*
X140429692Y-110871000D01*
X140429681Y-110871000D01*
X140398500Y-110867929D01*
X140367319Y-110871000D01*
X134625180Y-110871000D01*
X134593999Y-110867929D01*
X134562818Y-110871000D01*
X134562808Y-110871000D01*
X134469518Y-110880188D01*
X134349820Y-110916498D01*
X134239506Y-110975463D01*
X134142815Y-111054815D01*
X134122930Y-111079045D01*
X134052864Y-111149111D01*
X134071657Y-111103741D01*
X134098500Y-110968792D01*
X134098500Y-110831200D01*
X134071657Y-110696251D01*
X134019003Y-110569132D01*
X133942561Y-110454728D01*
X133845268Y-110357435D01*
X133730864Y-110280993D01*
X133603745Y-110228339D01*
X133468796Y-110201496D01*
X133331204Y-110201496D01*
X133196255Y-110228339D01*
X133069136Y-110280993D01*
X132954732Y-110357435D01*
X132857439Y-110454728D01*
X132780997Y-110569132D01*
X132728343Y-110696251D01*
X132701500Y-110831200D01*
X132701500Y-110951918D01*
X131692597Y-111960822D01*
X131675147Y-111975143D01*
X131618013Y-112044761D01*
X131575559Y-112124188D01*
X131549415Y-112210370D01*
X131542800Y-112277537D01*
X131542800Y-112277546D01*
X131540589Y-112299996D01*
X131542800Y-112322446D01*
X131542801Y-115773860D01*
X131540589Y-115796320D01*
X131549416Y-115885946D01*
X131575560Y-115972129D01*
X131616038Y-116047859D01*
X131618014Y-116051556D01*
X131675148Y-116121173D01*
X131692592Y-116135489D01*
X132605180Y-117048079D01*
X132605180Y-117168796D01*
X132632023Y-117303745D01*
X132684677Y-117430864D01*
X132761119Y-117545268D01*
X132858412Y-117642561D01*
X132972816Y-117719003D01*
X133099935Y-117771657D01*
X133234884Y-117798500D01*
X133372476Y-117798500D01*
X133507425Y-117771657D01*
X133634544Y-117719003D01*
X133748948Y-117642561D01*
X133846241Y-117545268D01*
X133922683Y-117430864D01*
X133975337Y-117303745D01*
X134002180Y-117168796D01*
X134002180Y-117031204D01*
X133975337Y-116896255D01*
X133922683Y-116769136D01*
X133846241Y-116654732D01*
X133748948Y-116557439D01*
X133634544Y-116480997D01*
X133507425Y-116428343D01*
X133372476Y-116401500D01*
X133251759Y-116401500D01*
X132457200Y-115606943D01*
X132457200Y-112489373D01*
X133348078Y-111598496D01*
X133468796Y-111598496D01*
X133603745Y-111571653D01*
X133649115Y-111552860D01*
X132929537Y-112272439D01*
X132841036Y-112309097D01*
X132726632Y-112385539D01*
X132629339Y-112482832D01*
X132552897Y-112597236D01*
X132500243Y-112724355D01*
X132473400Y-112859304D01*
X132473400Y-112996896D01*
X132500243Y-113131845D01*
X132552897Y-113258964D01*
X132629339Y-113373368D01*
X132726632Y-113470661D01*
X132841036Y-113547103D01*
X132968155Y-113599757D01*
X133103104Y-113626600D01*
X133240696Y-113626600D01*
X133375645Y-113599757D01*
X133502764Y-113547103D01*
X133617168Y-113470661D01*
X133714461Y-113373368D01*
X133790903Y-113258964D01*
X133827561Y-113170463D01*
X134857025Y-112141000D01*
X140135476Y-112141000D01*
X141061321Y-113066847D01*
X141061320Y-115511436D01*
X141024663Y-115599935D01*
X140997820Y-115734884D01*
X140997820Y-115872476D01*
X141024663Y-116007425D01*
X141077317Y-116134544D01*
X141153759Y-116248948D01*
X141251052Y-116346241D01*
X141365456Y-116422683D01*
X141492575Y-116475337D01*
X141627524Y-116502180D01*
X141765116Y-116502180D01*
X141900065Y-116475337D01*
X142027184Y-116422683D01*
X142062856Y-116398848D01*
X142062856Y-116507476D01*
X142089699Y-116642425D01*
X142142353Y-116769544D01*
X142218795Y-116883948D01*
X142316088Y-116981241D01*
X142430492Y-117057683D01*
X142557611Y-117110337D01*
X142692560Y-117137180D01*
X142830152Y-117137180D01*
X142965101Y-117110337D01*
X143092220Y-117057683D01*
X143206624Y-116981241D01*
X143299310Y-116888555D01*
X143299415Y-116889626D01*
X143325559Y-116975808D01*
X143368013Y-117055235D01*
X143425147Y-117124853D01*
X143442597Y-117139174D01*
X144430830Y-118127408D01*
X144445147Y-118144853D01*
X144514764Y-118201987D01*
X144594191Y-118244441D01*
X144680373Y-118270585D01*
X144747540Y-118277200D01*
X144747550Y-118277200D01*
X144770000Y-118279411D01*
X144792450Y-118277200D01*
X146366954Y-118277200D01*
X146419102Y-118403097D01*
X146553820Y-118604717D01*
X146725283Y-118776180D01*
X146926903Y-118910898D01*
X147150931Y-119003693D01*
X147388757Y-119051000D01*
X147631243Y-119051000D01*
X147869069Y-119003693D01*
X148093097Y-118910898D01*
X148294717Y-118776180D01*
X148466180Y-118604717D01*
X148600898Y-118403097D01*
X148693693Y-118179069D01*
X148741000Y-117941243D01*
X148741000Y-117698757D01*
X148819000Y-117698757D01*
X148819000Y-117941243D01*
X148866307Y-118179069D01*
X148959102Y-118403097D01*
X149093820Y-118604717D01*
X149265283Y-118776180D01*
X149466903Y-118910898D01*
X149690931Y-119003693D01*
X149928757Y-119051000D01*
X150171243Y-119051000D01*
X150409069Y-119003693D01*
X150633097Y-118910898D01*
X150834717Y-118776180D01*
X151006180Y-118604717D01*
X151140898Y-118403097D01*
X151233693Y-118179069D01*
X151281000Y-117941243D01*
X151281000Y-117698757D01*
X151233693Y-117460931D01*
X151140898Y-117236903D01*
X151006180Y-117035283D01*
X150834717Y-116863820D01*
X150633097Y-116729102D01*
X150409069Y-116636307D01*
X150171243Y-116589000D01*
X149928757Y-116589000D01*
X149690931Y-116636307D01*
X149466903Y-116729102D01*
X149265283Y-116863820D01*
X149093820Y-117035283D01*
X148959102Y-117236903D01*
X148866307Y-117460931D01*
X148819000Y-117698757D01*
X148741000Y-117698757D01*
X148693693Y-117460931D01*
X148600898Y-117236903D01*
X148466180Y-117035283D01*
X148294717Y-116863820D01*
X148093097Y-116729102D01*
X147869069Y-116636307D01*
X147631243Y-116589000D01*
X147388757Y-116589000D01*
X147150931Y-116636307D01*
X146926903Y-116729102D01*
X146725283Y-116863820D01*
X146553820Y-117035283D01*
X146419102Y-117236903D01*
X146366954Y-117362800D01*
X144959378Y-117362800D01*
X144207200Y-116610623D01*
X144207200Y-113731204D01*
X144251500Y-113731204D01*
X144251500Y-113868796D01*
X144278343Y-114003745D01*
X144330997Y-114130864D01*
X144407439Y-114245268D01*
X144504732Y-114342561D01*
X144619136Y-114419003D01*
X144746255Y-114471657D01*
X144881204Y-114498500D01*
X145018796Y-114498500D01*
X145153745Y-114471657D01*
X145280864Y-114419003D01*
X145395268Y-114342561D01*
X145480629Y-114257200D01*
X145840623Y-114257200D01*
X146378455Y-114795033D01*
X146326307Y-114920931D01*
X146279000Y-115158757D01*
X146279000Y-115401243D01*
X146326307Y-115639069D01*
X146419102Y-115863097D01*
X146553820Y-116064717D01*
X146725283Y-116236180D01*
X146926903Y-116370898D01*
X147150931Y-116463693D01*
X147388757Y-116511000D01*
X147631243Y-116511000D01*
X147869069Y-116463693D01*
X148093097Y-116370898D01*
X148294717Y-116236180D01*
X148466180Y-116064717D01*
X148600898Y-115863097D01*
X148693693Y-115639069D01*
X148741000Y-115401243D01*
X148741000Y-115158757D01*
X148819000Y-115158757D01*
X148819000Y-115401243D01*
X148866307Y-115639069D01*
X148959102Y-115863097D01*
X149093820Y-116064717D01*
X149265283Y-116236180D01*
X149466903Y-116370898D01*
X149690931Y-116463693D01*
X149928757Y-116511000D01*
X150171243Y-116511000D01*
X150409069Y-116463693D01*
X150633097Y-116370898D01*
X150834717Y-116236180D01*
X151006180Y-116064717D01*
X151140898Y-115863097D01*
X151233693Y-115639069D01*
X151281000Y-115401243D01*
X151281000Y-115158757D01*
X151233693Y-114920931D01*
X151140898Y-114696903D01*
X151006180Y-114495283D01*
X150834717Y-114323820D01*
X150633097Y-114189102D01*
X150409069Y-114096307D01*
X150171243Y-114049000D01*
X149928757Y-114049000D01*
X149690931Y-114096307D01*
X149466903Y-114189102D01*
X149265283Y-114323820D01*
X149093820Y-114495283D01*
X148959102Y-114696903D01*
X148866307Y-114920931D01*
X148819000Y-115158757D01*
X148741000Y-115158757D01*
X148693693Y-114920931D01*
X148600898Y-114696903D01*
X148466180Y-114495283D01*
X148294717Y-114323820D01*
X148093097Y-114189102D01*
X147869069Y-114096307D01*
X147631243Y-114049000D01*
X147388757Y-114049000D01*
X147150931Y-114096307D01*
X147025033Y-114148455D01*
X146369174Y-113492597D01*
X146354853Y-113475147D01*
X146285236Y-113418013D01*
X146205809Y-113375559D01*
X146119627Y-113349415D01*
X146052460Y-113342800D01*
X146052450Y-113342800D01*
X146030000Y-113340589D01*
X146007550Y-113342800D01*
X145480629Y-113342800D01*
X145395268Y-113257439D01*
X145280864Y-113180997D01*
X145153745Y-113128343D01*
X145018796Y-113101500D01*
X144881204Y-113101500D01*
X144746255Y-113128343D01*
X144619136Y-113180997D01*
X144504732Y-113257439D01*
X144407439Y-113354732D01*
X144330997Y-113469136D01*
X144278343Y-113596255D01*
X144251500Y-113731204D01*
X144207200Y-113731204D01*
X144207200Y-112618757D01*
X146279000Y-112618757D01*
X146279000Y-112861243D01*
X146326307Y-113099069D01*
X146419102Y-113323097D01*
X146553820Y-113524717D01*
X146725283Y-113696180D01*
X146926903Y-113830898D01*
X147150931Y-113923693D01*
X147388757Y-113971000D01*
X147631243Y-113971000D01*
X147869069Y-113923693D01*
X148093097Y-113830898D01*
X148294717Y-113696180D01*
X148466180Y-113524717D01*
X148600898Y-113323097D01*
X148693693Y-113099069D01*
X148741000Y-112861243D01*
X148741000Y-112618757D01*
X148693693Y-112380931D01*
X148600898Y-112156903D01*
X148466180Y-111955283D01*
X148400897Y-111890000D01*
X148817157Y-111890000D01*
X148817157Y-113590000D01*
X148824513Y-113664689D01*
X148846299Y-113736508D01*
X148881678Y-113802696D01*
X148929289Y-113860711D01*
X148987304Y-113908322D01*
X149053492Y-113943701D01*
X149125311Y-113965487D01*
X149200000Y-113972843D01*
X150900000Y-113972843D01*
X150974689Y-113965487D01*
X151046508Y-113943701D01*
X151112696Y-113908322D01*
X151170711Y-113860711D01*
X151218322Y-113802696D01*
X151253701Y-113736508D01*
X151275487Y-113664689D01*
X151282843Y-113590000D01*
X151282843Y-111890000D01*
X151275487Y-111815311D01*
X151253701Y-111743492D01*
X151218322Y-111677304D01*
X151170711Y-111619289D01*
X151112696Y-111571678D01*
X151046508Y-111536299D01*
X150974689Y-111514513D01*
X150900000Y-111507157D01*
X149200000Y-111507157D01*
X149125311Y-111514513D01*
X149053492Y-111536299D01*
X148987304Y-111571678D01*
X148929289Y-111619289D01*
X148881678Y-111677304D01*
X148846299Y-111743492D01*
X148824513Y-111815311D01*
X148817157Y-111890000D01*
X148400897Y-111890000D01*
X148294717Y-111783820D01*
X148093097Y-111649102D01*
X147869069Y-111556307D01*
X147631243Y-111509000D01*
X147388757Y-111509000D01*
X147150931Y-111556307D01*
X146926903Y-111649102D01*
X146725283Y-111783820D01*
X146553820Y-111955283D01*
X146419102Y-112156903D01*
X146326307Y-112380931D01*
X146279000Y-112618757D01*
X144207200Y-112618757D01*
X144207200Y-109222449D01*
X144209411Y-109199999D01*
X144207200Y-109177549D01*
X144207200Y-109177540D01*
X144200585Y-109110373D01*
X144174441Y-109024191D01*
X144131987Y-108944764D01*
X144074853Y-108875147D01*
X144057408Y-108860830D01*
X142539174Y-107342597D01*
X142524853Y-107325147D01*
X142455236Y-107268013D01*
X142375809Y-107225559D01*
X142289627Y-107199415D01*
X142222460Y-107192800D01*
X142222450Y-107192800D01*
X142200000Y-107190589D01*
X142177550Y-107192800D01*
X129036952Y-107192800D01*
X129014500Y-107190589D01*
X128992048Y-107192800D01*
X128992040Y-107192800D01*
X128924873Y-107199415D01*
X128838690Y-107225559D01*
X128759264Y-107268013D01*
X128707092Y-107310829D01*
X128707086Y-107310835D01*
X128689647Y-107325147D01*
X128675335Y-107342586D01*
X125867097Y-110150826D01*
X125849647Y-110165147D01*
X125792513Y-110234765D01*
X125750059Y-110314192D01*
X125723915Y-110400374D01*
X125717300Y-110467541D01*
X125717300Y-110467550D01*
X125715089Y-110490000D01*
X125717300Y-110512450D01*
X125717300Y-110784871D01*
X125631939Y-110870232D01*
X125555497Y-110984636D01*
X125502843Y-111111755D01*
X125476000Y-111246704D01*
X118541000Y-111246704D01*
X118541000Y-103301000D01*
X151969001Y-103301000D01*
X151969000Y-129744000D01*
M02*
