M48
; DRILL file {KiCad (5.1.5)-3} date 12/14/2019 3:37:29 PM
; FORMAT={-:-/ absolute / inch / decimal}
; #@! TF.CreationDate,2019-12-14T15:37:29-08:00
; #@! TF.GenerationSoftware,Kicad,Pcbnew,(5.1.5)-3
; #@! TF.FileFunction,Plated,1,2,PTH
FMAT,2
INCH
T1C0.0130
T2C0.0394
%
G90
G05
T1
X4.9675Y-4.3825
X5.128Y-5.0059
X5.2008Y-4.9075
X5.225Y-4.485
X5.2421Y-4.275
X5.243Y-4.446
X5.2482Y-4.6102
X5.252Y-4.3661
X5.3031Y-4.6752
X5.5768Y-4.8366
X5.5786Y-4.5592
X5.6024Y-4.3957
X5.6205Y-4.5842
X5.7067Y-4.4803
X5.7106Y-4.3976
T2
X5.8075Y-4.4386
X5.8075Y-4.5386
X5.8075Y-4.6386
X5.8075Y-4.7386
X5.8075Y-4.8386
X5.9075Y-4.4386
X5.9075Y-4.5386
X5.9075Y-4.6386
X5.9075Y-4.7386
X5.9075Y-4.8386
T0
M30
