G04 #@! TF.GenerationSoftware,KiCad,Pcbnew,(5.1.5)-3*
G04 #@! TF.CreationDate,2019-12-14T15:37:32-08:00*
G04 #@! TF.ProjectId,programmer,70726f67-7261-46d6-9d65-722e6b696361,rev?*
G04 #@! TF.SameCoordinates,Original*
G04 #@! TF.FileFunction,Paste,Top*
G04 #@! TF.FilePolarity,Positive*
%FSLAX46Y46*%
G04 Gerber Fmt 4.6, Leading zero omitted, Abs format (unit mm)*
G04 Created by KiCad (PCBNEW (5.1.5)-3) date 2019-12-14 15:37:32*
%MOMM*%
%LPD*%
G04 APERTURE LIST*
%ADD10R,1.300000X1.550000*%
%ADD11R,1.200000X0.400000*%
%ADD12C,0.100000*%
%ADD13R,1.300000X0.600000*%
%ADD14R,1.800000X1.900000*%
%ADD15R,1.900000X1.900000*%
%ADD16R,2.100000X1.600000*%
%ADD17R,0.400000X1.350000*%
G04 APERTURE END LIST*
D10*
X126174500Y-109017000D03*
X121674500Y-109017000D03*
X121674500Y-116967000D03*
X126174500Y-116967000D03*
X126174500Y-120193000D03*
X121674500Y-120193000D03*
X121674500Y-128143000D03*
X126174500Y-128143000D03*
D11*
X134814960Y-117073680D03*
X134814960Y-116438680D03*
X134814960Y-115803680D03*
X134814960Y-115168680D03*
X134814960Y-114533680D03*
X134814960Y-113898680D03*
X134814960Y-113263680D03*
X134814960Y-112628680D03*
X140014960Y-112628680D03*
X140014960Y-113263680D03*
X140014960Y-113898680D03*
X140014960Y-114533680D03*
X140014960Y-115168680D03*
X140014960Y-115803680D03*
X140014960Y-116438680D03*
X140014960Y-117073680D03*
D12*
G36*
X138629551Y-106363533D02*
G01*
X138650786Y-106366683D01*
X138671610Y-106371899D01*
X138691822Y-106379131D01*
X138711228Y-106388310D01*
X138729641Y-106399346D01*
X138746884Y-106412134D01*
X138762790Y-106426550D01*
X138777206Y-106442456D01*
X138789994Y-106459699D01*
X138801030Y-106478112D01*
X138810209Y-106497518D01*
X138817441Y-106517730D01*
X138822657Y-106538554D01*
X138825807Y-106559789D01*
X138826860Y-106581230D01*
X138826860Y-107093730D01*
X138825807Y-107115171D01*
X138822657Y-107136406D01*
X138817441Y-107157230D01*
X138810209Y-107177442D01*
X138801030Y-107196848D01*
X138789994Y-107215261D01*
X138777206Y-107232504D01*
X138762790Y-107248410D01*
X138746884Y-107262826D01*
X138729641Y-107275614D01*
X138711228Y-107286650D01*
X138691822Y-107295829D01*
X138671610Y-107303061D01*
X138650786Y-107308277D01*
X138629551Y-107311427D01*
X138608110Y-107312480D01*
X138170610Y-107312480D01*
X138149169Y-107311427D01*
X138127934Y-107308277D01*
X138107110Y-107303061D01*
X138086898Y-107295829D01*
X138067492Y-107286650D01*
X138049079Y-107275614D01*
X138031836Y-107262826D01*
X138015930Y-107248410D01*
X138001514Y-107232504D01*
X137988726Y-107215261D01*
X137977690Y-107196848D01*
X137968511Y-107177442D01*
X137961279Y-107157230D01*
X137956063Y-107136406D01*
X137952913Y-107115171D01*
X137951860Y-107093730D01*
X137951860Y-106581230D01*
X137952913Y-106559789D01*
X137956063Y-106538554D01*
X137961279Y-106517730D01*
X137968511Y-106497518D01*
X137977690Y-106478112D01*
X137988726Y-106459699D01*
X138001514Y-106442456D01*
X138015930Y-106426550D01*
X138031836Y-106412134D01*
X138049079Y-106399346D01*
X138067492Y-106388310D01*
X138086898Y-106379131D01*
X138107110Y-106371899D01*
X138127934Y-106366683D01*
X138149169Y-106363533D01*
X138170610Y-106362480D01*
X138608110Y-106362480D01*
X138629551Y-106363533D01*
G37*
G36*
X140204551Y-106363533D02*
G01*
X140225786Y-106366683D01*
X140246610Y-106371899D01*
X140266822Y-106379131D01*
X140286228Y-106388310D01*
X140304641Y-106399346D01*
X140321884Y-106412134D01*
X140337790Y-106426550D01*
X140352206Y-106442456D01*
X140364994Y-106459699D01*
X140376030Y-106478112D01*
X140385209Y-106497518D01*
X140392441Y-106517730D01*
X140397657Y-106538554D01*
X140400807Y-106559789D01*
X140401860Y-106581230D01*
X140401860Y-107093730D01*
X140400807Y-107115171D01*
X140397657Y-107136406D01*
X140392441Y-107157230D01*
X140385209Y-107177442D01*
X140376030Y-107196848D01*
X140364994Y-107215261D01*
X140352206Y-107232504D01*
X140337790Y-107248410D01*
X140321884Y-107262826D01*
X140304641Y-107275614D01*
X140286228Y-107286650D01*
X140266822Y-107295829D01*
X140246610Y-107303061D01*
X140225786Y-107308277D01*
X140204551Y-107311427D01*
X140183110Y-107312480D01*
X139745610Y-107312480D01*
X139724169Y-107311427D01*
X139702934Y-107308277D01*
X139682110Y-107303061D01*
X139661898Y-107295829D01*
X139642492Y-107286650D01*
X139624079Y-107275614D01*
X139606836Y-107262826D01*
X139590930Y-107248410D01*
X139576514Y-107232504D01*
X139563726Y-107215261D01*
X139552690Y-107196848D01*
X139543511Y-107177442D01*
X139536279Y-107157230D01*
X139531063Y-107136406D01*
X139527913Y-107115171D01*
X139526860Y-107093730D01*
X139526860Y-106581230D01*
X139527913Y-106559789D01*
X139531063Y-106538554D01*
X139536279Y-106517730D01*
X139543511Y-106497518D01*
X139552690Y-106478112D01*
X139563726Y-106459699D01*
X139576514Y-106442456D01*
X139590930Y-106426550D01*
X139606836Y-106412134D01*
X139624079Y-106399346D01*
X139642492Y-106388310D01*
X139661898Y-106379131D01*
X139682110Y-106371899D01*
X139702934Y-106366683D01*
X139724169Y-106363533D01*
X139745610Y-106362480D01*
X140183110Y-106362480D01*
X140204551Y-106363533D01*
G37*
G36*
X136643471Y-106353373D02*
G01*
X136664706Y-106356523D01*
X136685530Y-106361739D01*
X136705742Y-106368971D01*
X136725148Y-106378150D01*
X136743561Y-106389186D01*
X136760804Y-106401974D01*
X136776710Y-106416390D01*
X136791126Y-106432296D01*
X136803914Y-106449539D01*
X136814950Y-106467952D01*
X136824129Y-106487358D01*
X136831361Y-106507570D01*
X136836577Y-106528394D01*
X136839727Y-106549629D01*
X136840780Y-106571070D01*
X136840780Y-107083570D01*
X136839727Y-107105011D01*
X136836577Y-107126246D01*
X136831361Y-107147070D01*
X136824129Y-107167282D01*
X136814950Y-107186688D01*
X136803914Y-107205101D01*
X136791126Y-107222344D01*
X136776710Y-107238250D01*
X136760804Y-107252666D01*
X136743561Y-107265454D01*
X136725148Y-107276490D01*
X136705742Y-107285669D01*
X136685530Y-107292901D01*
X136664706Y-107298117D01*
X136643471Y-107301267D01*
X136622030Y-107302320D01*
X136184530Y-107302320D01*
X136163089Y-107301267D01*
X136141854Y-107298117D01*
X136121030Y-107292901D01*
X136100818Y-107285669D01*
X136081412Y-107276490D01*
X136062999Y-107265454D01*
X136045756Y-107252666D01*
X136029850Y-107238250D01*
X136015434Y-107222344D01*
X136002646Y-107205101D01*
X135991610Y-107186688D01*
X135982431Y-107167282D01*
X135975199Y-107147070D01*
X135969983Y-107126246D01*
X135966833Y-107105011D01*
X135965780Y-107083570D01*
X135965780Y-106571070D01*
X135966833Y-106549629D01*
X135969983Y-106528394D01*
X135975199Y-106507570D01*
X135982431Y-106487358D01*
X135991610Y-106467952D01*
X136002646Y-106449539D01*
X136015434Y-106432296D01*
X136029850Y-106416390D01*
X136045756Y-106401974D01*
X136062999Y-106389186D01*
X136081412Y-106378150D01*
X136100818Y-106368971D01*
X136121030Y-106361739D01*
X136141854Y-106356523D01*
X136163089Y-106353373D01*
X136184530Y-106352320D01*
X136622030Y-106352320D01*
X136643471Y-106353373D01*
G37*
G36*
X135068471Y-106353373D02*
G01*
X135089706Y-106356523D01*
X135110530Y-106361739D01*
X135130742Y-106368971D01*
X135150148Y-106378150D01*
X135168561Y-106389186D01*
X135185804Y-106401974D01*
X135201710Y-106416390D01*
X135216126Y-106432296D01*
X135228914Y-106449539D01*
X135239950Y-106467952D01*
X135249129Y-106487358D01*
X135256361Y-106507570D01*
X135261577Y-106528394D01*
X135264727Y-106549629D01*
X135265780Y-106571070D01*
X135265780Y-107083570D01*
X135264727Y-107105011D01*
X135261577Y-107126246D01*
X135256361Y-107147070D01*
X135249129Y-107167282D01*
X135239950Y-107186688D01*
X135228914Y-107205101D01*
X135216126Y-107222344D01*
X135201710Y-107238250D01*
X135185804Y-107252666D01*
X135168561Y-107265454D01*
X135150148Y-107276490D01*
X135130742Y-107285669D01*
X135110530Y-107292901D01*
X135089706Y-107298117D01*
X135068471Y-107301267D01*
X135047030Y-107302320D01*
X134609530Y-107302320D01*
X134588089Y-107301267D01*
X134566854Y-107298117D01*
X134546030Y-107292901D01*
X134525818Y-107285669D01*
X134506412Y-107276490D01*
X134487999Y-107265454D01*
X134470756Y-107252666D01*
X134454850Y-107238250D01*
X134440434Y-107222344D01*
X134427646Y-107205101D01*
X134416610Y-107186688D01*
X134407431Y-107167282D01*
X134400199Y-107147070D01*
X134394983Y-107126246D01*
X134391833Y-107105011D01*
X134390780Y-107083570D01*
X134390780Y-106571070D01*
X134391833Y-106549629D01*
X134394983Y-106528394D01*
X134400199Y-106507570D01*
X134407431Y-106487358D01*
X134416610Y-106467952D01*
X134427646Y-106449539D01*
X134440434Y-106432296D01*
X134454850Y-106416390D01*
X134470756Y-106401974D01*
X134487999Y-106389186D01*
X134506412Y-106378150D01*
X134525818Y-106368971D01*
X134546030Y-106361739D01*
X134566854Y-106356523D01*
X134588089Y-106353373D01*
X134609530Y-106352320D01*
X135047030Y-106352320D01*
X135068471Y-106353373D01*
G37*
G36*
X130528891Y-125486793D02*
G01*
X130550126Y-125489943D01*
X130570950Y-125495159D01*
X130591162Y-125502391D01*
X130610568Y-125511570D01*
X130628981Y-125522606D01*
X130646224Y-125535394D01*
X130662130Y-125549810D01*
X130676546Y-125565716D01*
X130689334Y-125582959D01*
X130700370Y-125601372D01*
X130709549Y-125620778D01*
X130716781Y-125640990D01*
X130721997Y-125661814D01*
X130725147Y-125683049D01*
X130726200Y-125704490D01*
X130726200Y-126141990D01*
X130725147Y-126163431D01*
X130721997Y-126184666D01*
X130716781Y-126205490D01*
X130709549Y-126225702D01*
X130700370Y-126245108D01*
X130689334Y-126263521D01*
X130676546Y-126280764D01*
X130662130Y-126296670D01*
X130646224Y-126311086D01*
X130628981Y-126323874D01*
X130610568Y-126334910D01*
X130591162Y-126344089D01*
X130570950Y-126351321D01*
X130550126Y-126356537D01*
X130528891Y-126359687D01*
X130507450Y-126360740D01*
X129994950Y-126360740D01*
X129973509Y-126359687D01*
X129952274Y-126356537D01*
X129931450Y-126351321D01*
X129911238Y-126344089D01*
X129891832Y-126334910D01*
X129873419Y-126323874D01*
X129856176Y-126311086D01*
X129840270Y-126296670D01*
X129825854Y-126280764D01*
X129813066Y-126263521D01*
X129802030Y-126245108D01*
X129792851Y-126225702D01*
X129785619Y-126205490D01*
X129780403Y-126184666D01*
X129777253Y-126163431D01*
X129776200Y-126141990D01*
X129776200Y-125704490D01*
X129777253Y-125683049D01*
X129780403Y-125661814D01*
X129785619Y-125640990D01*
X129792851Y-125620778D01*
X129802030Y-125601372D01*
X129813066Y-125582959D01*
X129825854Y-125565716D01*
X129840270Y-125549810D01*
X129856176Y-125535394D01*
X129873419Y-125522606D01*
X129891832Y-125511570D01*
X129911238Y-125502391D01*
X129931450Y-125495159D01*
X129952274Y-125489943D01*
X129973509Y-125486793D01*
X129994950Y-125485740D01*
X130507450Y-125485740D01*
X130528891Y-125486793D01*
G37*
G36*
X130528891Y-123911793D02*
G01*
X130550126Y-123914943D01*
X130570950Y-123920159D01*
X130591162Y-123927391D01*
X130610568Y-123936570D01*
X130628981Y-123947606D01*
X130646224Y-123960394D01*
X130662130Y-123974810D01*
X130676546Y-123990716D01*
X130689334Y-124007959D01*
X130700370Y-124026372D01*
X130709549Y-124045778D01*
X130716781Y-124065990D01*
X130721997Y-124086814D01*
X130725147Y-124108049D01*
X130726200Y-124129490D01*
X130726200Y-124566990D01*
X130725147Y-124588431D01*
X130721997Y-124609666D01*
X130716781Y-124630490D01*
X130709549Y-124650702D01*
X130700370Y-124670108D01*
X130689334Y-124688521D01*
X130676546Y-124705764D01*
X130662130Y-124721670D01*
X130646224Y-124736086D01*
X130628981Y-124748874D01*
X130610568Y-124759910D01*
X130591162Y-124769089D01*
X130570950Y-124776321D01*
X130550126Y-124781537D01*
X130528891Y-124784687D01*
X130507450Y-124785740D01*
X129994950Y-124785740D01*
X129973509Y-124784687D01*
X129952274Y-124781537D01*
X129931450Y-124776321D01*
X129911238Y-124769089D01*
X129891832Y-124759910D01*
X129873419Y-124748874D01*
X129856176Y-124736086D01*
X129840270Y-124721670D01*
X129825854Y-124705764D01*
X129813066Y-124688521D01*
X129802030Y-124670108D01*
X129792851Y-124650702D01*
X129785619Y-124630490D01*
X129780403Y-124609666D01*
X129777253Y-124588431D01*
X129776200Y-124566990D01*
X129776200Y-124129490D01*
X129777253Y-124108049D01*
X129780403Y-124086814D01*
X129785619Y-124065990D01*
X129792851Y-124045778D01*
X129802030Y-124026372D01*
X129813066Y-124007959D01*
X129825854Y-123990716D01*
X129840270Y-123974810D01*
X129856176Y-123960394D01*
X129873419Y-123947606D01*
X129891832Y-123936570D01*
X129911238Y-123927391D01*
X129931450Y-123920159D01*
X129952274Y-123914943D01*
X129973509Y-123911793D01*
X129994950Y-123910740D01*
X130507450Y-123910740D01*
X130528891Y-123911793D01*
G37*
G36*
X136685851Y-121280353D02*
G01*
X136707086Y-121283503D01*
X136727910Y-121288719D01*
X136748122Y-121295951D01*
X136767528Y-121305130D01*
X136785941Y-121316166D01*
X136803184Y-121328954D01*
X136819090Y-121343370D01*
X136833506Y-121359276D01*
X136846294Y-121376519D01*
X136857330Y-121394932D01*
X136866509Y-121414338D01*
X136873741Y-121434550D01*
X136878957Y-121455374D01*
X136882107Y-121476609D01*
X136883160Y-121498050D01*
X136883160Y-121935550D01*
X136882107Y-121956991D01*
X136878957Y-121978226D01*
X136873741Y-121999050D01*
X136866509Y-122019262D01*
X136857330Y-122038668D01*
X136846294Y-122057081D01*
X136833506Y-122074324D01*
X136819090Y-122090230D01*
X136803184Y-122104646D01*
X136785941Y-122117434D01*
X136767528Y-122128470D01*
X136748122Y-122137649D01*
X136727910Y-122144881D01*
X136707086Y-122150097D01*
X136685851Y-122153247D01*
X136664410Y-122154300D01*
X136151910Y-122154300D01*
X136130469Y-122153247D01*
X136109234Y-122150097D01*
X136088410Y-122144881D01*
X136068198Y-122137649D01*
X136048792Y-122128470D01*
X136030379Y-122117434D01*
X136013136Y-122104646D01*
X135997230Y-122090230D01*
X135982814Y-122074324D01*
X135970026Y-122057081D01*
X135958990Y-122038668D01*
X135949811Y-122019262D01*
X135942579Y-121999050D01*
X135937363Y-121978226D01*
X135934213Y-121956991D01*
X135933160Y-121935550D01*
X135933160Y-121498050D01*
X135934213Y-121476609D01*
X135937363Y-121455374D01*
X135942579Y-121434550D01*
X135949811Y-121414338D01*
X135958990Y-121394932D01*
X135970026Y-121376519D01*
X135982814Y-121359276D01*
X135997230Y-121343370D01*
X136013136Y-121328954D01*
X136030379Y-121316166D01*
X136048792Y-121305130D01*
X136068198Y-121295951D01*
X136088410Y-121288719D01*
X136109234Y-121283503D01*
X136130469Y-121280353D01*
X136151910Y-121279300D01*
X136664410Y-121279300D01*
X136685851Y-121280353D01*
G37*
G36*
X136685851Y-119705353D02*
G01*
X136707086Y-119708503D01*
X136727910Y-119713719D01*
X136748122Y-119720951D01*
X136767528Y-119730130D01*
X136785941Y-119741166D01*
X136803184Y-119753954D01*
X136819090Y-119768370D01*
X136833506Y-119784276D01*
X136846294Y-119801519D01*
X136857330Y-119819932D01*
X136866509Y-119839338D01*
X136873741Y-119859550D01*
X136878957Y-119880374D01*
X136882107Y-119901609D01*
X136883160Y-119923050D01*
X136883160Y-120360550D01*
X136882107Y-120381991D01*
X136878957Y-120403226D01*
X136873741Y-120424050D01*
X136866509Y-120444262D01*
X136857330Y-120463668D01*
X136846294Y-120482081D01*
X136833506Y-120499324D01*
X136819090Y-120515230D01*
X136803184Y-120529646D01*
X136785941Y-120542434D01*
X136767528Y-120553470D01*
X136748122Y-120562649D01*
X136727910Y-120569881D01*
X136707086Y-120575097D01*
X136685851Y-120578247D01*
X136664410Y-120579300D01*
X136151910Y-120579300D01*
X136130469Y-120578247D01*
X136109234Y-120575097D01*
X136088410Y-120569881D01*
X136068198Y-120562649D01*
X136048792Y-120553470D01*
X136030379Y-120542434D01*
X136013136Y-120529646D01*
X135997230Y-120515230D01*
X135982814Y-120499324D01*
X135970026Y-120482081D01*
X135958990Y-120463668D01*
X135949811Y-120444262D01*
X135942579Y-120424050D01*
X135937363Y-120403226D01*
X135934213Y-120381991D01*
X135933160Y-120360550D01*
X135933160Y-119923050D01*
X135934213Y-119901609D01*
X135937363Y-119880374D01*
X135942579Y-119859550D01*
X135949811Y-119839338D01*
X135958990Y-119819932D01*
X135970026Y-119801519D01*
X135982814Y-119784276D01*
X135997230Y-119768370D01*
X136013136Y-119753954D01*
X136030379Y-119741166D01*
X136048792Y-119730130D01*
X136068198Y-119720951D01*
X136088410Y-119713719D01*
X136109234Y-119708503D01*
X136130469Y-119705353D01*
X136151910Y-119704300D01*
X136664410Y-119704300D01*
X136685851Y-119705353D01*
G37*
G36*
X138687371Y-121270193D02*
G01*
X138708606Y-121273343D01*
X138729430Y-121278559D01*
X138749642Y-121285791D01*
X138769048Y-121294970D01*
X138787461Y-121306006D01*
X138804704Y-121318794D01*
X138820610Y-121333210D01*
X138835026Y-121349116D01*
X138847814Y-121366359D01*
X138858850Y-121384772D01*
X138868029Y-121404178D01*
X138875261Y-121424390D01*
X138880477Y-121445214D01*
X138883627Y-121466449D01*
X138884680Y-121487890D01*
X138884680Y-121925390D01*
X138883627Y-121946831D01*
X138880477Y-121968066D01*
X138875261Y-121988890D01*
X138868029Y-122009102D01*
X138858850Y-122028508D01*
X138847814Y-122046921D01*
X138835026Y-122064164D01*
X138820610Y-122080070D01*
X138804704Y-122094486D01*
X138787461Y-122107274D01*
X138769048Y-122118310D01*
X138749642Y-122127489D01*
X138729430Y-122134721D01*
X138708606Y-122139937D01*
X138687371Y-122143087D01*
X138665930Y-122144140D01*
X138153430Y-122144140D01*
X138131989Y-122143087D01*
X138110754Y-122139937D01*
X138089930Y-122134721D01*
X138069718Y-122127489D01*
X138050312Y-122118310D01*
X138031899Y-122107274D01*
X138014656Y-122094486D01*
X137998750Y-122080070D01*
X137984334Y-122064164D01*
X137971546Y-122046921D01*
X137960510Y-122028508D01*
X137951331Y-122009102D01*
X137944099Y-121988890D01*
X137938883Y-121968066D01*
X137935733Y-121946831D01*
X137934680Y-121925390D01*
X137934680Y-121487890D01*
X137935733Y-121466449D01*
X137938883Y-121445214D01*
X137944099Y-121424390D01*
X137951331Y-121404178D01*
X137960510Y-121384772D01*
X137971546Y-121366359D01*
X137984334Y-121349116D01*
X137998750Y-121333210D01*
X138014656Y-121318794D01*
X138031899Y-121306006D01*
X138050312Y-121294970D01*
X138069718Y-121285791D01*
X138089930Y-121278559D01*
X138110754Y-121273343D01*
X138131989Y-121270193D01*
X138153430Y-121269140D01*
X138665930Y-121269140D01*
X138687371Y-121270193D01*
G37*
G36*
X138687371Y-119695193D02*
G01*
X138708606Y-119698343D01*
X138729430Y-119703559D01*
X138749642Y-119710791D01*
X138769048Y-119719970D01*
X138787461Y-119731006D01*
X138804704Y-119743794D01*
X138820610Y-119758210D01*
X138835026Y-119774116D01*
X138847814Y-119791359D01*
X138858850Y-119809772D01*
X138868029Y-119829178D01*
X138875261Y-119849390D01*
X138880477Y-119870214D01*
X138883627Y-119891449D01*
X138884680Y-119912890D01*
X138884680Y-120350390D01*
X138883627Y-120371831D01*
X138880477Y-120393066D01*
X138875261Y-120413890D01*
X138868029Y-120434102D01*
X138858850Y-120453508D01*
X138847814Y-120471921D01*
X138835026Y-120489164D01*
X138820610Y-120505070D01*
X138804704Y-120519486D01*
X138787461Y-120532274D01*
X138769048Y-120543310D01*
X138749642Y-120552489D01*
X138729430Y-120559721D01*
X138708606Y-120564937D01*
X138687371Y-120568087D01*
X138665930Y-120569140D01*
X138153430Y-120569140D01*
X138131989Y-120568087D01*
X138110754Y-120564937D01*
X138089930Y-120559721D01*
X138069718Y-120552489D01*
X138050312Y-120543310D01*
X138031899Y-120532274D01*
X138014656Y-120519486D01*
X137998750Y-120505070D01*
X137984334Y-120489164D01*
X137971546Y-120471921D01*
X137960510Y-120453508D01*
X137951331Y-120434102D01*
X137944099Y-120413890D01*
X137938883Y-120393066D01*
X137935733Y-120371831D01*
X137934680Y-120350390D01*
X137934680Y-119912890D01*
X137935733Y-119891449D01*
X137938883Y-119870214D01*
X137944099Y-119849390D01*
X137951331Y-119829178D01*
X137960510Y-119809772D01*
X137971546Y-119791359D01*
X137984334Y-119774116D01*
X137998750Y-119758210D01*
X138014656Y-119743794D01*
X138031899Y-119731006D01*
X138050312Y-119719970D01*
X138069718Y-119710791D01*
X138089930Y-119703559D01*
X138110754Y-119698343D01*
X138131989Y-119695193D01*
X138153430Y-119694140D01*
X138665930Y-119694140D01*
X138687371Y-119695193D01*
G37*
D13*
X127254000Y-106362500D03*
X127254000Y-104462500D03*
X125154000Y-105412500D03*
D14*
X133965640Y-127665480D03*
X141565640Y-127665480D03*
D15*
X136565640Y-127665480D03*
X138965640Y-127665480D03*
D16*
X134665640Y-125115480D03*
X140865640Y-125115480D03*
D17*
X136465640Y-124990480D03*
X138415640Y-124990480D03*
X139065640Y-124990480D03*
X137115640Y-124990480D03*
X137765640Y-124990480D03*
D12*
G36*
X138654751Y-109015293D02*
G01*
X138675986Y-109018443D01*
X138696810Y-109023659D01*
X138717022Y-109030891D01*
X138736428Y-109040070D01*
X138754841Y-109051106D01*
X138772084Y-109063894D01*
X138787990Y-109078310D01*
X138802406Y-109094216D01*
X138815194Y-109111459D01*
X138826230Y-109129872D01*
X138835409Y-109149278D01*
X138842641Y-109169490D01*
X138847857Y-109190314D01*
X138851007Y-109211549D01*
X138852060Y-109232990D01*
X138852060Y-109745490D01*
X138851007Y-109766931D01*
X138847857Y-109788166D01*
X138842641Y-109808990D01*
X138835409Y-109829202D01*
X138826230Y-109848608D01*
X138815194Y-109867021D01*
X138802406Y-109884264D01*
X138787990Y-109900170D01*
X138772084Y-109914586D01*
X138754841Y-109927374D01*
X138736428Y-109938410D01*
X138717022Y-109947589D01*
X138696810Y-109954821D01*
X138675986Y-109960037D01*
X138654751Y-109963187D01*
X138633310Y-109964240D01*
X138195810Y-109964240D01*
X138174369Y-109963187D01*
X138153134Y-109960037D01*
X138132310Y-109954821D01*
X138112098Y-109947589D01*
X138092692Y-109938410D01*
X138074279Y-109927374D01*
X138057036Y-109914586D01*
X138041130Y-109900170D01*
X138026714Y-109884264D01*
X138013926Y-109867021D01*
X138002890Y-109848608D01*
X137993711Y-109829202D01*
X137986479Y-109808990D01*
X137981263Y-109788166D01*
X137978113Y-109766931D01*
X137977060Y-109745490D01*
X137977060Y-109232990D01*
X137978113Y-109211549D01*
X137981263Y-109190314D01*
X137986479Y-109169490D01*
X137993711Y-109149278D01*
X138002890Y-109129872D01*
X138013926Y-109111459D01*
X138026714Y-109094216D01*
X138041130Y-109078310D01*
X138057036Y-109063894D01*
X138074279Y-109051106D01*
X138092692Y-109040070D01*
X138112098Y-109030891D01*
X138132310Y-109023659D01*
X138153134Y-109018443D01*
X138174369Y-109015293D01*
X138195810Y-109014240D01*
X138633310Y-109014240D01*
X138654751Y-109015293D01*
G37*
G36*
X140229751Y-109015293D02*
G01*
X140250986Y-109018443D01*
X140271810Y-109023659D01*
X140292022Y-109030891D01*
X140311428Y-109040070D01*
X140329841Y-109051106D01*
X140347084Y-109063894D01*
X140362990Y-109078310D01*
X140377406Y-109094216D01*
X140390194Y-109111459D01*
X140401230Y-109129872D01*
X140410409Y-109149278D01*
X140417641Y-109169490D01*
X140422857Y-109190314D01*
X140426007Y-109211549D01*
X140427060Y-109232990D01*
X140427060Y-109745490D01*
X140426007Y-109766931D01*
X140422857Y-109788166D01*
X140417641Y-109808990D01*
X140410409Y-109829202D01*
X140401230Y-109848608D01*
X140390194Y-109867021D01*
X140377406Y-109884264D01*
X140362990Y-109900170D01*
X140347084Y-109914586D01*
X140329841Y-109927374D01*
X140311428Y-109938410D01*
X140292022Y-109947589D01*
X140271810Y-109954821D01*
X140250986Y-109960037D01*
X140229751Y-109963187D01*
X140208310Y-109964240D01*
X139770810Y-109964240D01*
X139749369Y-109963187D01*
X139728134Y-109960037D01*
X139707310Y-109954821D01*
X139687098Y-109947589D01*
X139667692Y-109938410D01*
X139649279Y-109927374D01*
X139632036Y-109914586D01*
X139616130Y-109900170D01*
X139601714Y-109884264D01*
X139588926Y-109867021D01*
X139577890Y-109848608D01*
X139568711Y-109829202D01*
X139561479Y-109808990D01*
X139556263Y-109788166D01*
X139553113Y-109766931D01*
X139552060Y-109745490D01*
X139552060Y-109232990D01*
X139553113Y-109211549D01*
X139556263Y-109190314D01*
X139561479Y-109169490D01*
X139568711Y-109149278D01*
X139577890Y-109129872D01*
X139588926Y-109111459D01*
X139601714Y-109094216D01*
X139616130Y-109078310D01*
X139632036Y-109063894D01*
X139649279Y-109051106D01*
X139667692Y-109040070D01*
X139687098Y-109030891D01*
X139707310Y-109023659D01*
X139728134Y-109018443D01*
X139749369Y-109015293D01*
X139770810Y-109014240D01*
X140208310Y-109014240D01*
X140229751Y-109015293D01*
G37*
G36*
X136638391Y-109061013D02*
G01*
X136659626Y-109064163D01*
X136680450Y-109069379D01*
X136700662Y-109076611D01*
X136720068Y-109085790D01*
X136738481Y-109096826D01*
X136755724Y-109109614D01*
X136771630Y-109124030D01*
X136786046Y-109139936D01*
X136798834Y-109157179D01*
X136809870Y-109175592D01*
X136819049Y-109194998D01*
X136826281Y-109215210D01*
X136831497Y-109236034D01*
X136834647Y-109257269D01*
X136835700Y-109278710D01*
X136835700Y-109791210D01*
X136834647Y-109812651D01*
X136831497Y-109833886D01*
X136826281Y-109854710D01*
X136819049Y-109874922D01*
X136809870Y-109894328D01*
X136798834Y-109912741D01*
X136786046Y-109929984D01*
X136771630Y-109945890D01*
X136755724Y-109960306D01*
X136738481Y-109973094D01*
X136720068Y-109984130D01*
X136700662Y-109993309D01*
X136680450Y-110000541D01*
X136659626Y-110005757D01*
X136638391Y-110008907D01*
X136616950Y-110009960D01*
X136179450Y-110009960D01*
X136158009Y-110008907D01*
X136136774Y-110005757D01*
X136115950Y-110000541D01*
X136095738Y-109993309D01*
X136076332Y-109984130D01*
X136057919Y-109973094D01*
X136040676Y-109960306D01*
X136024770Y-109945890D01*
X136010354Y-109929984D01*
X135997566Y-109912741D01*
X135986530Y-109894328D01*
X135977351Y-109874922D01*
X135970119Y-109854710D01*
X135964903Y-109833886D01*
X135961753Y-109812651D01*
X135960700Y-109791210D01*
X135960700Y-109278710D01*
X135961753Y-109257269D01*
X135964903Y-109236034D01*
X135970119Y-109215210D01*
X135977351Y-109194998D01*
X135986530Y-109175592D01*
X135997566Y-109157179D01*
X136010354Y-109139936D01*
X136024770Y-109124030D01*
X136040676Y-109109614D01*
X136057919Y-109096826D01*
X136076332Y-109085790D01*
X136095738Y-109076611D01*
X136115950Y-109069379D01*
X136136774Y-109064163D01*
X136158009Y-109061013D01*
X136179450Y-109059960D01*
X136616950Y-109059960D01*
X136638391Y-109061013D01*
G37*
G36*
X135063391Y-109061013D02*
G01*
X135084626Y-109064163D01*
X135105450Y-109069379D01*
X135125662Y-109076611D01*
X135145068Y-109085790D01*
X135163481Y-109096826D01*
X135180724Y-109109614D01*
X135196630Y-109124030D01*
X135211046Y-109139936D01*
X135223834Y-109157179D01*
X135234870Y-109175592D01*
X135244049Y-109194998D01*
X135251281Y-109215210D01*
X135256497Y-109236034D01*
X135259647Y-109257269D01*
X135260700Y-109278710D01*
X135260700Y-109791210D01*
X135259647Y-109812651D01*
X135256497Y-109833886D01*
X135251281Y-109854710D01*
X135244049Y-109874922D01*
X135234870Y-109894328D01*
X135223834Y-109912741D01*
X135211046Y-109929984D01*
X135196630Y-109945890D01*
X135180724Y-109960306D01*
X135163481Y-109973094D01*
X135145068Y-109984130D01*
X135125662Y-109993309D01*
X135105450Y-110000541D01*
X135084626Y-110005757D01*
X135063391Y-110008907D01*
X135041950Y-110009960D01*
X134604450Y-110009960D01*
X134583009Y-110008907D01*
X134561774Y-110005757D01*
X134540950Y-110000541D01*
X134520738Y-109993309D01*
X134501332Y-109984130D01*
X134482919Y-109973094D01*
X134465676Y-109960306D01*
X134449770Y-109945890D01*
X134435354Y-109929984D01*
X134422566Y-109912741D01*
X134411530Y-109894328D01*
X134402351Y-109874922D01*
X134395119Y-109854710D01*
X134389903Y-109833886D01*
X134386753Y-109812651D01*
X134385700Y-109791210D01*
X134385700Y-109278710D01*
X134386753Y-109257269D01*
X134389903Y-109236034D01*
X134395119Y-109215210D01*
X134402351Y-109194998D01*
X134411530Y-109175592D01*
X134422566Y-109157179D01*
X134435354Y-109139936D01*
X134449770Y-109124030D01*
X134465676Y-109109614D01*
X134482919Y-109096826D01*
X134501332Y-109085790D01*
X134520738Y-109076611D01*
X134540950Y-109069379D01*
X134561774Y-109064163D01*
X134583009Y-109061013D01*
X134604450Y-109059960D01*
X135041950Y-109059960D01*
X135063391Y-109061013D01*
G37*
G36*
X131631251Y-110211033D02*
G01*
X131652486Y-110214183D01*
X131673310Y-110219399D01*
X131693522Y-110226631D01*
X131712928Y-110235810D01*
X131731341Y-110246846D01*
X131748584Y-110259634D01*
X131764490Y-110274050D01*
X131778906Y-110289956D01*
X131791694Y-110307199D01*
X131802730Y-110325612D01*
X131811909Y-110345018D01*
X131819141Y-110365230D01*
X131824357Y-110386054D01*
X131827507Y-110407289D01*
X131828560Y-110428730D01*
X131828560Y-110866230D01*
X131827507Y-110887671D01*
X131824357Y-110908906D01*
X131819141Y-110929730D01*
X131811909Y-110949942D01*
X131802730Y-110969348D01*
X131791694Y-110987761D01*
X131778906Y-111005004D01*
X131764490Y-111020910D01*
X131748584Y-111035326D01*
X131731341Y-111048114D01*
X131712928Y-111059150D01*
X131693522Y-111068329D01*
X131673310Y-111075561D01*
X131652486Y-111080777D01*
X131631251Y-111083927D01*
X131609810Y-111084980D01*
X131097310Y-111084980D01*
X131075869Y-111083927D01*
X131054634Y-111080777D01*
X131033810Y-111075561D01*
X131013598Y-111068329D01*
X130994192Y-111059150D01*
X130975779Y-111048114D01*
X130958536Y-111035326D01*
X130942630Y-111020910D01*
X130928214Y-111005004D01*
X130915426Y-110987761D01*
X130904390Y-110969348D01*
X130895211Y-110949942D01*
X130887979Y-110929730D01*
X130882763Y-110908906D01*
X130879613Y-110887671D01*
X130878560Y-110866230D01*
X130878560Y-110428730D01*
X130879613Y-110407289D01*
X130882763Y-110386054D01*
X130887979Y-110365230D01*
X130895211Y-110345018D01*
X130904390Y-110325612D01*
X130915426Y-110307199D01*
X130928214Y-110289956D01*
X130942630Y-110274050D01*
X130958536Y-110259634D01*
X130975779Y-110246846D01*
X130994192Y-110235810D01*
X131013598Y-110226631D01*
X131033810Y-110219399D01*
X131054634Y-110214183D01*
X131075869Y-110211033D01*
X131097310Y-110209980D01*
X131609810Y-110209980D01*
X131631251Y-110211033D01*
G37*
G36*
X131631251Y-111786033D02*
G01*
X131652486Y-111789183D01*
X131673310Y-111794399D01*
X131693522Y-111801631D01*
X131712928Y-111810810D01*
X131731341Y-111821846D01*
X131748584Y-111834634D01*
X131764490Y-111849050D01*
X131778906Y-111864956D01*
X131791694Y-111882199D01*
X131802730Y-111900612D01*
X131811909Y-111920018D01*
X131819141Y-111940230D01*
X131824357Y-111961054D01*
X131827507Y-111982289D01*
X131828560Y-112003730D01*
X131828560Y-112441230D01*
X131827507Y-112462671D01*
X131824357Y-112483906D01*
X131819141Y-112504730D01*
X131811909Y-112524942D01*
X131802730Y-112544348D01*
X131791694Y-112562761D01*
X131778906Y-112580004D01*
X131764490Y-112595910D01*
X131748584Y-112610326D01*
X131731341Y-112623114D01*
X131712928Y-112634150D01*
X131693522Y-112643329D01*
X131673310Y-112650561D01*
X131652486Y-112655777D01*
X131631251Y-112658927D01*
X131609810Y-112659980D01*
X131097310Y-112659980D01*
X131075869Y-112658927D01*
X131054634Y-112655777D01*
X131033810Y-112650561D01*
X131013598Y-112643329D01*
X130994192Y-112634150D01*
X130975779Y-112623114D01*
X130958536Y-112610326D01*
X130942630Y-112595910D01*
X130928214Y-112580004D01*
X130915426Y-112562761D01*
X130904390Y-112544348D01*
X130895211Y-112524942D01*
X130887979Y-112504730D01*
X130882763Y-112483906D01*
X130879613Y-112462671D01*
X130878560Y-112441230D01*
X130878560Y-112003730D01*
X130879613Y-111982289D01*
X130882763Y-111961054D01*
X130887979Y-111940230D01*
X130895211Y-111920018D01*
X130904390Y-111900612D01*
X130915426Y-111882199D01*
X130928214Y-111864956D01*
X130942630Y-111849050D01*
X130958536Y-111834634D01*
X130975779Y-111821846D01*
X130994192Y-111810810D01*
X131013598Y-111801631D01*
X131033810Y-111794399D01*
X131054634Y-111789183D01*
X131075869Y-111786033D01*
X131097310Y-111784980D01*
X131609810Y-111784980D01*
X131631251Y-111786033D01*
G37*
G36*
X131692211Y-113726393D02*
G01*
X131713446Y-113729543D01*
X131734270Y-113734759D01*
X131754482Y-113741991D01*
X131773888Y-113751170D01*
X131792301Y-113762206D01*
X131809544Y-113774994D01*
X131825450Y-113789410D01*
X131839866Y-113805316D01*
X131852654Y-113822559D01*
X131863690Y-113840972D01*
X131872869Y-113860378D01*
X131880101Y-113880590D01*
X131885317Y-113901414D01*
X131888467Y-113922649D01*
X131889520Y-113944090D01*
X131889520Y-114381590D01*
X131888467Y-114403031D01*
X131885317Y-114424266D01*
X131880101Y-114445090D01*
X131872869Y-114465302D01*
X131863690Y-114484708D01*
X131852654Y-114503121D01*
X131839866Y-114520364D01*
X131825450Y-114536270D01*
X131809544Y-114550686D01*
X131792301Y-114563474D01*
X131773888Y-114574510D01*
X131754482Y-114583689D01*
X131734270Y-114590921D01*
X131713446Y-114596137D01*
X131692211Y-114599287D01*
X131670770Y-114600340D01*
X131158270Y-114600340D01*
X131136829Y-114599287D01*
X131115594Y-114596137D01*
X131094770Y-114590921D01*
X131074558Y-114583689D01*
X131055152Y-114574510D01*
X131036739Y-114563474D01*
X131019496Y-114550686D01*
X131003590Y-114536270D01*
X130989174Y-114520364D01*
X130976386Y-114503121D01*
X130965350Y-114484708D01*
X130956171Y-114465302D01*
X130948939Y-114445090D01*
X130943723Y-114424266D01*
X130940573Y-114403031D01*
X130939520Y-114381590D01*
X130939520Y-113944090D01*
X130940573Y-113922649D01*
X130943723Y-113901414D01*
X130948939Y-113880590D01*
X130956171Y-113860378D01*
X130965350Y-113840972D01*
X130976386Y-113822559D01*
X130989174Y-113805316D01*
X131003590Y-113789410D01*
X131019496Y-113774994D01*
X131036739Y-113762206D01*
X131055152Y-113751170D01*
X131074558Y-113741991D01*
X131094770Y-113734759D01*
X131115594Y-113729543D01*
X131136829Y-113726393D01*
X131158270Y-113725340D01*
X131670770Y-113725340D01*
X131692211Y-113726393D01*
G37*
G36*
X131692211Y-115301393D02*
G01*
X131713446Y-115304543D01*
X131734270Y-115309759D01*
X131754482Y-115316991D01*
X131773888Y-115326170D01*
X131792301Y-115337206D01*
X131809544Y-115349994D01*
X131825450Y-115364410D01*
X131839866Y-115380316D01*
X131852654Y-115397559D01*
X131863690Y-115415972D01*
X131872869Y-115435378D01*
X131880101Y-115455590D01*
X131885317Y-115476414D01*
X131888467Y-115497649D01*
X131889520Y-115519090D01*
X131889520Y-115956590D01*
X131888467Y-115978031D01*
X131885317Y-115999266D01*
X131880101Y-116020090D01*
X131872869Y-116040302D01*
X131863690Y-116059708D01*
X131852654Y-116078121D01*
X131839866Y-116095364D01*
X131825450Y-116111270D01*
X131809544Y-116125686D01*
X131792301Y-116138474D01*
X131773888Y-116149510D01*
X131754482Y-116158689D01*
X131734270Y-116165921D01*
X131713446Y-116171137D01*
X131692211Y-116174287D01*
X131670770Y-116175340D01*
X131158270Y-116175340D01*
X131136829Y-116174287D01*
X131115594Y-116171137D01*
X131094770Y-116165921D01*
X131074558Y-116158689D01*
X131055152Y-116149510D01*
X131036739Y-116138474D01*
X131019496Y-116125686D01*
X131003590Y-116111270D01*
X130989174Y-116095364D01*
X130976386Y-116078121D01*
X130965350Y-116059708D01*
X130956171Y-116040302D01*
X130948939Y-116020090D01*
X130943723Y-115999266D01*
X130940573Y-115978031D01*
X130939520Y-115956590D01*
X130939520Y-115519090D01*
X130940573Y-115497649D01*
X130943723Y-115476414D01*
X130948939Y-115455590D01*
X130956171Y-115435378D01*
X130965350Y-115415972D01*
X130976386Y-115397559D01*
X130989174Y-115380316D01*
X131003590Y-115364410D01*
X131019496Y-115349994D01*
X131036739Y-115337206D01*
X131055152Y-115326170D01*
X131074558Y-115316991D01*
X131094770Y-115309759D01*
X131115594Y-115304543D01*
X131136829Y-115301393D01*
X131158270Y-115300340D01*
X131670770Y-115300340D01*
X131692211Y-115301393D01*
G37*
G36*
X133224631Y-120562133D02*
G01*
X133245866Y-120565283D01*
X133266690Y-120570499D01*
X133286902Y-120577731D01*
X133306308Y-120586910D01*
X133324721Y-120597946D01*
X133341964Y-120610734D01*
X133357870Y-120625150D01*
X133372286Y-120641056D01*
X133385074Y-120658299D01*
X133396110Y-120676712D01*
X133405289Y-120696118D01*
X133412521Y-120716330D01*
X133417737Y-120737154D01*
X133420887Y-120758389D01*
X133421940Y-120779830D01*
X133421940Y-121292330D01*
X133420887Y-121313771D01*
X133417737Y-121335006D01*
X133412521Y-121355830D01*
X133405289Y-121376042D01*
X133396110Y-121395448D01*
X133385074Y-121413861D01*
X133372286Y-121431104D01*
X133357870Y-121447010D01*
X133341964Y-121461426D01*
X133324721Y-121474214D01*
X133306308Y-121485250D01*
X133286902Y-121494429D01*
X133266690Y-121501661D01*
X133245866Y-121506877D01*
X133224631Y-121510027D01*
X133203190Y-121511080D01*
X132765690Y-121511080D01*
X132744249Y-121510027D01*
X132723014Y-121506877D01*
X132702190Y-121501661D01*
X132681978Y-121494429D01*
X132662572Y-121485250D01*
X132644159Y-121474214D01*
X132626916Y-121461426D01*
X132611010Y-121447010D01*
X132596594Y-121431104D01*
X132583806Y-121413861D01*
X132572770Y-121395448D01*
X132563591Y-121376042D01*
X132556359Y-121355830D01*
X132551143Y-121335006D01*
X132547993Y-121313771D01*
X132546940Y-121292330D01*
X132546940Y-120779830D01*
X132547993Y-120758389D01*
X132551143Y-120737154D01*
X132556359Y-120716330D01*
X132563591Y-120696118D01*
X132572770Y-120676712D01*
X132583806Y-120658299D01*
X132596594Y-120641056D01*
X132611010Y-120625150D01*
X132626916Y-120610734D01*
X132644159Y-120597946D01*
X132662572Y-120586910D01*
X132681978Y-120577731D01*
X132702190Y-120570499D01*
X132723014Y-120565283D01*
X132744249Y-120562133D01*
X132765690Y-120561080D01*
X133203190Y-120561080D01*
X133224631Y-120562133D01*
G37*
G36*
X131649631Y-120562133D02*
G01*
X131670866Y-120565283D01*
X131691690Y-120570499D01*
X131711902Y-120577731D01*
X131731308Y-120586910D01*
X131749721Y-120597946D01*
X131766964Y-120610734D01*
X131782870Y-120625150D01*
X131797286Y-120641056D01*
X131810074Y-120658299D01*
X131821110Y-120676712D01*
X131830289Y-120696118D01*
X131837521Y-120716330D01*
X131842737Y-120737154D01*
X131845887Y-120758389D01*
X131846940Y-120779830D01*
X131846940Y-121292330D01*
X131845887Y-121313771D01*
X131842737Y-121335006D01*
X131837521Y-121355830D01*
X131830289Y-121376042D01*
X131821110Y-121395448D01*
X131810074Y-121413861D01*
X131797286Y-121431104D01*
X131782870Y-121447010D01*
X131766964Y-121461426D01*
X131749721Y-121474214D01*
X131731308Y-121485250D01*
X131711902Y-121494429D01*
X131691690Y-121501661D01*
X131670866Y-121506877D01*
X131649631Y-121510027D01*
X131628190Y-121511080D01*
X131190690Y-121511080D01*
X131169249Y-121510027D01*
X131148014Y-121506877D01*
X131127190Y-121501661D01*
X131106978Y-121494429D01*
X131087572Y-121485250D01*
X131069159Y-121474214D01*
X131051916Y-121461426D01*
X131036010Y-121447010D01*
X131021594Y-121431104D01*
X131008806Y-121413861D01*
X130997770Y-121395448D01*
X130988591Y-121376042D01*
X130981359Y-121355830D01*
X130976143Y-121335006D01*
X130972993Y-121313771D01*
X130971940Y-121292330D01*
X130971940Y-120779830D01*
X130972993Y-120758389D01*
X130976143Y-120737154D01*
X130981359Y-120716330D01*
X130988591Y-120696118D01*
X130997770Y-120676712D01*
X131008806Y-120658299D01*
X131021594Y-120641056D01*
X131036010Y-120625150D01*
X131051916Y-120610734D01*
X131069159Y-120597946D01*
X131087572Y-120586910D01*
X131106978Y-120577731D01*
X131127190Y-120570499D01*
X131148014Y-120565283D01*
X131169249Y-120562133D01*
X131190690Y-120561080D01*
X131628190Y-120561080D01*
X131649631Y-120562133D01*
G37*
M02*
