G04 #@! TF.GenerationSoftware,KiCad,Pcbnew,(5.1.5)-3*
G04 #@! TF.CreationDate,2020-09-29T21:06:49-07:00*
G04 #@! TF.ProjectId,EsperDNS,45737065-7244-44e5-932e-6b696361645f,rev?*
G04 #@! TF.SameCoordinates,Original*
G04 #@! TF.FileFunction,Paste,Top*
G04 #@! TF.FilePolarity,Positive*
%FSLAX46Y46*%
G04 Gerber Fmt 4.6, Leading zero omitted, Abs format (unit mm)*
G04 Created by KiCad (PCBNEW (5.1.5)-3) date 2020-09-29 21:06:49*
%MOMM*%
%LPD*%
G04 APERTURE LIST*
%ADD10C,0.100000*%
%ADD11R,0.400000X1.350000*%
%ADD12R,2.100000X1.600000*%
%ADD13R,1.900000X1.900000*%
%ADD14R,1.800000X1.900000*%
%ADD15R,1.500000X1.600000*%
%ADD16R,1.300000X0.600000*%
%ADD17R,2.000000X0.900000*%
%ADD18R,0.900000X2.000000*%
%ADD19R,5.000000X5.000000*%
%ADD20R,2.000000X3.800000*%
%ADD21R,2.000000X1.500000*%
G04 APERTURE END LIST*
D10*
G36*
X27818626Y-13125301D02*
G01*
X27824693Y-13126201D01*
X27830643Y-13127691D01*
X27836418Y-13129758D01*
X27841962Y-13132380D01*
X27847223Y-13135533D01*
X27852150Y-13139187D01*
X27856694Y-13143306D01*
X27860813Y-13147850D01*
X27864467Y-13152777D01*
X27867620Y-13158038D01*
X27870242Y-13163582D01*
X27872309Y-13169357D01*
X27873799Y-13175307D01*
X27874699Y-13181374D01*
X27875000Y-13187500D01*
X27875000Y-13887500D01*
X27874699Y-13893626D01*
X27873799Y-13899693D01*
X27872309Y-13905643D01*
X27870242Y-13911418D01*
X27867620Y-13916962D01*
X27864467Y-13922223D01*
X27860813Y-13927150D01*
X27856694Y-13931694D01*
X27852150Y-13935813D01*
X27847223Y-13939467D01*
X27841962Y-13942620D01*
X27836418Y-13945242D01*
X27830643Y-13947309D01*
X27824693Y-13948799D01*
X27818626Y-13949699D01*
X27812500Y-13950000D01*
X27687500Y-13950000D01*
X27681374Y-13949699D01*
X27675307Y-13948799D01*
X27669357Y-13947309D01*
X27663582Y-13945242D01*
X27658038Y-13942620D01*
X27652777Y-13939467D01*
X27647850Y-13935813D01*
X27643306Y-13931694D01*
X27639187Y-13927150D01*
X27635533Y-13922223D01*
X27632380Y-13916962D01*
X27629758Y-13911418D01*
X27627691Y-13905643D01*
X27626201Y-13899693D01*
X27625301Y-13893626D01*
X27625000Y-13887500D01*
X27625000Y-13187500D01*
X27625301Y-13181374D01*
X27626201Y-13175307D01*
X27627691Y-13169357D01*
X27629758Y-13163582D01*
X27632380Y-13158038D01*
X27635533Y-13152777D01*
X27639187Y-13147850D01*
X27643306Y-13143306D01*
X27647850Y-13139187D01*
X27652777Y-13135533D01*
X27658038Y-13132380D01*
X27663582Y-13129758D01*
X27669357Y-13127691D01*
X27675307Y-13126201D01*
X27681374Y-13125301D01*
X27687500Y-13125000D01*
X27812500Y-13125000D01*
X27818626Y-13125301D01*
G37*
G36*
X27318626Y-13125301D02*
G01*
X27324693Y-13126201D01*
X27330643Y-13127691D01*
X27336418Y-13129758D01*
X27341962Y-13132380D01*
X27347223Y-13135533D01*
X27352150Y-13139187D01*
X27356694Y-13143306D01*
X27360813Y-13147850D01*
X27364467Y-13152777D01*
X27367620Y-13158038D01*
X27370242Y-13163582D01*
X27372309Y-13169357D01*
X27373799Y-13175307D01*
X27374699Y-13181374D01*
X27375000Y-13187500D01*
X27375000Y-13887500D01*
X27374699Y-13893626D01*
X27373799Y-13899693D01*
X27372309Y-13905643D01*
X27370242Y-13911418D01*
X27367620Y-13916962D01*
X27364467Y-13922223D01*
X27360813Y-13927150D01*
X27356694Y-13931694D01*
X27352150Y-13935813D01*
X27347223Y-13939467D01*
X27341962Y-13942620D01*
X27336418Y-13945242D01*
X27330643Y-13947309D01*
X27324693Y-13948799D01*
X27318626Y-13949699D01*
X27312500Y-13950000D01*
X27187500Y-13950000D01*
X27181374Y-13949699D01*
X27175307Y-13948799D01*
X27169357Y-13947309D01*
X27163582Y-13945242D01*
X27158038Y-13942620D01*
X27152777Y-13939467D01*
X27147850Y-13935813D01*
X27143306Y-13931694D01*
X27139187Y-13927150D01*
X27135533Y-13922223D01*
X27132380Y-13916962D01*
X27129758Y-13911418D01*
X27127691Y-13905643D01*
X27126201Y-13899693D01*
X27125301Y-13893626D01*
X27125000Y-13887500D01*
X27125000Y-13187500D01*
X27125301Y-13181374D01*
X27126201Y-13175307D01*
X27127691Y-13169357D01*
X27129758Y-13163582D01*
X27132380Y-13158038D01*
X27135533Y-13152777D01*
X27139187Y-13147850D01*
X27143306Y-13143306D01*
X27147850Y-13139187D01*
X27152777Y-13135533D01*
X27158038Y-13132380D01*
X27163582Y-13129758D01*
X27169357Y-13127691D01*
X27175307Y-13126201D01*
X27181374Y-13125301D01*
X27187500Y-13125000D01*
X27312500Y-13125000D01*
X27318626Y-13125301D01*
G37*
G36*
X26818626Y-13125301D02*
G01*
X26824693Y-13126201D01*
X26830643Y-13127691D01*
X26836418Y-13129758D01*
X26841962Y-13132380D01*
X26847223Y-13135533D01*
X26852150Y-13139187D01*
X26856694Y-13143306D01*
X26860813Y-13147850D01*
X26864467Y-13152777D01*
X26867620Y-13158038D01*
X26870242Y-13163582D01*
X26872309Y-13169357D01*
X26873799Y-13175307D01*
X26874699Y-13181374D01*
X26875000Y-13187500D01*
X26875000Y-13887500D01*
X26874699Y-13893626D01*
X26873799Y-13899693D01*
X26872309Y-13905643D01*
X26870242Y-13911418D01*
X26867620Y-13916962D01*
X26864467Y-13922223D01*
X26860813Y-13927150D01*
X26856694Y-13931694D01*
X26852150Y-13935813D01*
X26847223Y-13939467D01*
X26841962Y-13942620D01*
X26836418Y-13945242D01*
X26830643Y-13947309D01*
X26824693Y-13948799D01*
X26818626Y-13949699D01*
X26812500Y-13950000D01*
X26687500Y-13950000D01*
X26681374Y-13949699D01*
X26675307Y-13948799D01*
X26669357Y-13947309D01*
X26663582Y-13945242D01*
X26658038Y-13942620D01*
X26652777Y-13939467D01*
X26647850Y-13935813D01*
X26643306Y-13931694D01*
X26639187Y-13927150D01*
X26635533Y-13922223D01*
X26632380Y-13916962D01*
X26629758Y-13911418D01*
X26627691Y-13905643D01*
X26626201Y-13899693D01*
X26625301Y-13893626D01*
X26625000Y-13887500D01*
X26625000Y-13187500D01*
X26625301Y-13181374D01*
X26626201Y-13175307D01*
X26627691Y-13169357D01*
X26629758Y-13163582D01*
X26632380Y-13158038D01*
X26635533Y-13152777D01*
X26639187Y-13147850D01*
X26643306Y-13143306D01*
X26647850Y-13139187D01*
X26652777Y-13135533D01*
X26658038Y-13132380D01*
X26663582Y-13129758D01*
X26669357Y-13127691D01*
X26675307Y-13126201D01*
X26681374Y-13125301D01*
X26687500Y-13125000D01*
X26812500Y-13125000D01*
X26818626Y-13125301D01*
G37*
G36*
X26318626Y-13125301D02*
G01*
X26324693Y-13126201D01*
X26330643Y-13127691D01*
X26336418Y-13129758D01*
X26341962Y-13132380D01*
X26347223Y-13135533D01*
X26352150Y-13139187D01*
X26356694Y-13143306D01*
X26360813Y-13147850D01*
X26364467Y-13152777D01*
X26367620Y-13158038D01*
X26370242Y-13163582D01*
X26372309Y-13169357D01*
X26373799Y-13175307D01*
X26374699Y-13181374D01*
X26375000Y-13187500D01*
X26375000Y-13887500D01*
X26374699Y-13893626D01*
X26373799Y-13899693D01*
X26372309Y-13905643D01*
X26370242Y-13911418D01*
X26367620Y-13916962D01*
X26364467Y-13922223D01*
X26360813Y-13927150D01*
X26356694Y-13931694D01*
X26352150Y-13935813D01*
X26347223Y-13939467D01*
X26341962Y-13942620D01*
X26336418Y-13945242D01*
X26330643Y-13947309D01*
X26324693Y-13948799D01*
X26318626Y-13949699D01*
X26312500Y-13950000D01*
X26187500Y-13950000D01*
X26181374Y-13949699D01*
X26175307Y-13948799D01*
X26169357Y-13947309D01*
X26163582Y-13945242D01*
X26158038Y-13942620D01*
X26152777Y-13939467D01*
X26147850Y-13935813D01*
X26143306Y-13931694D01*
X26139187Y-13927150D01*
X26135533Y-13922223D01*
X26132380Y-13916962D01*
X26129758Y-13911418D01*
X26127691Y-13905643D01*
X26126201Y-13899693D01*
X26125301Y-13893626D01*
X26125000Y-13887500D01*
X26125000Y-13187500D01*
X26125301Y-13181374D01*
X26126201Y-13175307D01*
X26127691Y-13169357D01*
X26129758Y-13163582D01*
X26132380Y-13158038D01*
X26135533Y-13152777D01*
X26139187Y-13147850D01*
X26143306Y-13143306D01*
X26147850Y-13139187D01*
X26152777Y-13135533D01*
X26158038Y-13132380D01*
X26163582Y-13129758D01*
X26169357Y-13127691D01*
X26175307Y-13126201D01*
X26181374Y-13125301D01*
X26187500Y-13125000D01*
X26312500Y-13125000D01*
X26318626Y-13125301D01*
G37*
G36*
X25818626Y-13125301D02*
G01*
X25824693Y-13126201D01*
X25830643Y-13127691D01*
X25836418Y-13129758D01*
X25841962Y-13132380D01*
X25847223Y-13135533D01*
X25852150Y-13139187D01*
X25856694Y-13143306D01*
X25860813Y-13147850D01*
X25864467Y-13152777D01*
X25867620Y-13158038D01*
X25870242Y-13163582D01*
X25872309Y-13169357D01*
X25873799Y-13175307D01*
X25874699Y-13181374D01*
X25875000Y-13187500D01*
X25875000Y-13887500D01*
X25874699Y-13893626D01*
X25873799Y-13899693D01*
X25872309Y-13905643D01*
X25870242Y-13911418D01*
X25867620Y-13916962D01*
X25864467Y-13922223D01*
X25860813Y-13927150D01*
X25856694Y-13931694D01*
X25852150Y-13935813D01*
X25847223Y-13939467D01*
X25841962Y-13942620D01*
X25836418Y-13945242D01*
X25830643Y-13947309D01*
X25824693Y-13948799D01*
X25818626Y-13949699D01*
X25812500Y-13950000D01*
X25687500Y-13950000D01*
X25681374Y-13949699D01*
X25675307Y-13948799D01*
X25669357Y-13947309D01*
X25663582Y-13945242D01*
X25658038Y-13942620D01*
X25652777Y-13939467D01*
X25647850Y-13935813D01*
X25643306Y-13931694D01*
X25639187Y-13927150D01*
X25635533Y-13922223D01*
X25632380Y-13916962D01*
X25629758Y-13911418D01*
X25627691Y-13905643D01*
X25626201Y-13899693D01*
X25625301Y-13893626D01*
X25625000Y-13887500D01*
X25625000Y-13187500D01*
X25625301Y-13181374D01*
X25626201Y-13175307D01*
X25627691Y-13169357D01*
X25629758Y-13163582D01*
X25632380Y-13158038D01*
X25635533Y-13152777D01*
X25639187Y-13147850D01*
X25643306Y-13143306D01*
X25647850Y-13139187D01*
X25652777Y-13135533D01*
X25658038Y-13132380D01*
X25663582Y-13129758D01*
X25669357Y-13127691D01*
X25675307Y-13126201D01*
X25681374Y-13125301D01*
X25687500Y-13125000D01*
X25812500Y-13125000D01*
X25818626Y-13125301D01*
G37*
G36*
X25318626Y-13125301D02*
G01*
X25324693Y-13126201D01*
X25330643Y-13127691D01*
X25336418Y-13129758D01*
X25341962Y-13132380D01*
X25347223Y-13135533D01*
X25352150Y-13139187D01*
X25356694Y-13143306D01*
X25360813Y-13147850D01*
X25364467Y-13152777D01*
X25367620Y-13158038D01*
X25370242Y-13163582D01*
X25372309Y-13169357D01*
X25373799Y-13175307D01*
X25374699Y-13181374D01*
X25375000Y-13187500D01*
X25375000Y-13887500D01*
X25374699Y-13893626D01*
X25373799Y-13899693D01*
X25372309Y-13905643D01*
X25370242Y-13911418D01*
X25367620Y-13916962D01*
X25364467Y-13922223D01*
X25360813Y-13927150D01*
X25356694Y-13931694D01*
X25352150Y-13935813D01*
X25347223Y-13939467D01*
X25341962Y-13942620D01*
X25336418Y-13945242D01*
X25330643Y-13947309D01*
X25324693Y-13948799D01*
X25318626Y-13949699D01*
X25312500Y-13950000D01*
X25187500Y-13950000D01*
X25181374Y-13949699D01*
X25175307Y-13948799D01*
X25169357Y-13947309D01*
X25163582Y-13945242D01*
X25158038Y-13942620D01*
X25152777Y-13939467D01*
X25147850Y-13935813D01*
X25143306Y-13931694D01*
X25139187Y-13927150D01*
X25135533Y-13922223D01*
X25132380Y-13916962D01*
X25129758Y-13911418D01*
X25127691Y-13905643D01*
X25126201Y-13899693D01*
X25125301Y-13893626D01*
X25125000Y-13887500D01*
X25125000Y-13187500D01*
X25125301Y-13181374D01*
X25126201Y-13175307D01*
X25127691Y-13169357D01*
X25129758Y-13163582D01*
X25132380Y-13158038D01*
X25135533Y-13152777D01*
X25139187Y-13147850D01*
X25143306Y-13143306D01*
X25147850Y-13139187D01*
X25152777Y-13135533D01*
X25158038Y-13132380D01*
X25163582Y-13129758D01*
X25169357Y-13127691D01*
X25175307Y-13126201D01*
X25181374Y-13125301D01*
X25187500Y-13125000D01*
X25312500Y-13125000D01*
X25318626Y-13125301D01*
G37*
G36*
X24918626Y-12725301D02*
G01*
X24924693Y-12726201D01*
X24930643Y-12727691D01*
X24936418Y-12729758D01*
X24941962Y-12732380D01*
X24947223Y-12735533D01*
X24952150Y-12739187D01*
X24956694Y-12743306D01*
X24960813Y-12747850D01*
X24964467Y-12752777D01*
X24967620Y-12758038D01*
X24970242Y-12763582D01*
X24972309Y-12769357D01*
X24973799Y-12775307D01*
X24974699Y-12781374D01*
X24975000Y-12787500D01*
X24975000Y-12912500D01*
X24974699Y-12918626D01*
X24973799Y-12924693D01*
X24972309Y-12930643D01*
X24970242Y-12936418D01*
X24967620Y-12941962D01*
X24964467Y-12947223D01*
X24960813Y-12952150D01*
X24956694Y-12956694D01*
X24952150Y-12960813D01*
X24947223Y-12964467D01*
X24941962Y-12967620D01*
X24936418Y-12970242D01*
X24930643Y-12972309D01*
X24924693Y-12973799D01*
X24918626Y-12974699D01*
X24912500Y-12975000D01*
X24212500Y-12975000D01*
X24206374Y-12974699D01*
X24200307Y-12973799D01*
X24194357Y-12972309D01*
X24188582Y-12970242D01*
X24183038Y-12967620D01*
X24177777Y-12964467D01*
X24172850Y-12960813D01*
X24168306Y-12956694D01*
X24164187Y-12952150D01*
X24160533Y-12947223D01*
X24157380Y-12941962D01*
X24154758Y-12936418D01*
X24152691Y-12930643D01*
X24151201Y-12924693D01*
X24150301Y-12918626D01*
X24150000Y-12912500D01*
X24150000Y-12787500D01*
X24150301Y-12781374D01*
X24151201Y-12775307D01*
X24152691Y-12769357D01*
X24154758Y-12763582D01*
X24157380Y-12758038D01*
X24160533Y-12752777D01*
X24164187Y-12747850D01*
X24168306Y-12743306D01*
X24172850Y-12739187D01*
X24177777Y-12735533D01*
X24183038Y-12732380D01*
X24188582Y-12729758D01*
X24194357Y-12727691D01*
X24200307Y-12726201D01*
X24206374Y-12725301D01*
X24212500Y-12725000D01*
X24912500Y-12725000D01*
X24918626Y-12725301D01*
G37*
G36*
X24918626Y-12225301D02*
G01*
X24924693Y-12226201D01*
X24930643Y-12227691D01*
X24936418Y-12229758D01*
X24941962Y-12232380D01*
X24947223Y-12235533D01*
X24952150Y-12239187D01*
X24956694Y-12243306D01*
X24960813Y-12247850D01*
X24964467Y-12252777D01*
X24967620Y-12258038D01*
X24970242Y-12263582D01*
X24972309Y-12269357D01*
X24973799Y-12275307D01*
X24974699Y-12281374D01*
X24975000Y-12287500D01*
X24975000Y-12412500D01*
X24974699Y-12418626D01*
X24973799Y-12424693D01*
X24972309Y-12430643D01*
X24970242Y-12436418D01*
X24967620Y-12441962D01*
X24964467Y-12447223D01*
X24960813Y-12452150D01*
X24956694Y-12456694D01*
X24952150Y-12460813D01*
X24947223Y-12464467D01*
X24941962Y-12467620D01*
X24936418Y-12470242D01*
X24930643Y-12472309D01*
X24924693Y-12473799D01*
X24918626Y-12474699D01*
X24912500Y-12475000D01*
X24212500Y-12475000D01*
X24206374Y-12474699D01*
X24200307Y-12473799D01*
X24194357Y-12472309D01*
X24188582Y-12470242D01*
X24183038Y-12467620D01*
X24177777Y-12464467D01*
X24172850Y-12460813D01*
X24168306Y-12456694D01*
X24164187Y-12452150D01*
X24160533Y-12447223D01*
X24157380Y-12441962D01*
X24154758Y-12436418D01*
X24152691Y-12430643D01*
X24151201Y-12424693D01*
X24150301Y-12418626D01*
X24150000Y-12412500D01*
X24150000Y-12287500D01*
X24150301Y-12281374D01*
X24151201Y-12275307D01*
X24152691Y-12269357D01*
X24154758Y-12263582D01*
X24157380Y-12258038D01*
X24160533Y-12252777D01*
X24164187Y-12247850D01*
X24168306Y-12243306D01*
X24172850Y-12239187D01*
X24177777Y-12235533D01*
X24183038Y-12232380D01*
X24188582Y-12229758D01*
X24194357Y-12227691D01*
X24200307Y-12226201D01*
X24206374Y-12225301D01*
X24212500Y-12225000D01*
X24912500Y-12225000D01*
X24918626Y-12225301D01*
G37*
G36*
X24918626Y-11725301D02*
G01*
X24924693Y-11726201D01*
X24930643Y-11727691D01*
X24936418Y-11729758D01*
X24941962Y-11732380D01*
X24947223Y-11735533D01*
X24952150Y-11739187D01*
X24956694Y-11743306D01*
X24960813Y-11747850D01*
X24964467Y-11752777D01*
X24967620Y-11758038D01*
X24970242Y-11763582D01*
X24972309Y-11769357D01*
X24973799Y-11775307D01*
X24974699Y-11781374D01*
X24975000Y-11787500D01*
X24975000Y-11912500D01*
X24974699Y-11918626D01*
X24973799Y-11924693D01*
X24972309Y-11930643D01*
X24970242Y-11936418D01*
X24967620Y-11941962D01*
X24964467Y-11947223D01*
X24960813Y-11952150D01*
X24956694Y-11956694D01*
X24952150Y-11960813D01*
X24947223Y-11964467D01*
X24941962Y-11967620D01*
X24936418Y-11970242D01*
X24930643Y-11972309D01*
X24924693Y-11973799D01*
X24918626Y-11974699D01*
X24912500Y-11975000D01*
X24212500Y-11975000D01*
X24206374Y-11974699D01*
X24200307Y-11973799D01*
X24194357Y-11972309D01*
X24188582Y-11970242D01*
X24183038Y-11967620D01*
X24177777Y-11964467D01*
X24172850Y-11960813D01*
X24168306Y-11956694D01*
X24164187Y-11952150D01*
X24160533Y-11947223D01*
X24157380Y-11941962D01*
X24154758Y-11936418D01*
X24152691Y-11930643D01*
X24151201Y-11924693D01*
X24150301Y-11918626D01*
X24150000Y-11912500D01*
X24150000Y-11787500D01*
X24150301Y-11781374D01*
X24151201Y-11775307D01*
X24152691Y-11769357D01*
X24154758Y-11763582D01*
X24157380Y-11758038D01*
X24160533Y-11752777D01*
X24164187Y-11747850D01*
X24168306Y-11743306D01*
X24172850Y-11739187D01*
X24177777Y-11735533D01*
X24183038Y-11732380D01*
X24188582Y-11729758D01*
X24194357Y-11727691D01*
X24200307Y-11726201D01*
X24206374Y-11725301D01*
X24212500Y-11725000D01*
X24912500Y-11725000D01*
X24918626Y-11725301D01*
G37*
G36*
X24918626Y-11225301D02*
G01*
X24924693Y-11226201D01*
X24930643Y-11227691D01*
X24936418Y-11229758D01*
X24941962Y-11232380D01*
X24947223Y-11235533D01*
X24952150Y-11239187D01*
X24956694Y-11243306D01*
X24960813Y-11247850D01*
X24964467Y-11252777D01*
X24967620Y-11258038D01*
X24970242Y-11263582D01*
X24972309Y-11269357D01*
X24973799Y-11275307D01*
X24974699Y-11281374D01*
X24975000Y-11287500D01*
X24975000Y-11412500D01*
X24974699Y-11418626D01*
X24973799Y-11424693D01*
X24972309Y-11430643D01*
X24970242Y-11436418D01*
X24967620Y-11441962D01*
X24964467Y-11447223D01*
X24960813Y-11452150D01*
X24956694Y-11456694D01*
X24952150Y-11460813D01*
X24947223Y-11464467D01*
X24941962Y-11467620D01*
X24936418Y-11470242D01*
X24930643Y-11472309D01*
X24924693Y-11473799D01*
X24918626Y-11474699D01*
X24912500Y-11475000D01*
X24212500Y-11475000D01*
X24206374Y-11474699D01*
X24200307Y-11473799D01*
X24194357Y-11472309D01*
X24188582Y-11470242D01*
X24183038Y-11467620D01*
X24177777Y-11464467D01*
X24172850Y-11460813D01*
X24168306Y-11456694D01*
X24164187Y-11452150D01*
X24160533Y-11447223D01*
X24157380Y-11441962D01*
X24154758Y-11436418D01*
X24152691Y-11430643D01*
X24151201Y-11424693D01*
X24150301Y-11418626D01*
X24150000Y-11412500D01*
X24150000Y-11287500D01*
X24150301Y-11281374D01*
X24151201Y-11275307D01*
X24152691Y-11269357D01*
X24154758Y-11263582D01*
X24157380Y-11258038D01*
X24160533Y-11252777D01*
X24164187Y-11247850D01*
X24168306Y-11243306D01*
X24172850Y-11239187D01*
X24177777Y-11235533D01*
X24183038Y-11232380D01*
X24188582Y-11229758D01*
X24194357Y-11227691D01*
X24200307Y-11226201D01*
X24206374Y-11225301D01*
X24212500Y-11225000D01*
X24912500Y-11225000D01*
X24918626Y-11225301D01*
G37*
G36*
X24918626Y-10725301D02*
G01*
X24924693Y-10726201D01*
X24930643Y-10727691D01*
X24936418Y-10729758D01*
X24941962Y-10732380D01*
X24947223Y-10735533D01*
X24952150Y-10739187D01*
X24956694Y-10743306D01*
X24960813Y-10747850D01*
X24964467Y-10752777D01*
X24967620Y-10758038D01*
X24970242Y-10763582D01*
X24972309Y-10769357D01*
X24973799Y-10775307D01*
X24974699Y-10781374D01*
X24975000Y-10787500D01*
X24975000Y-10912500D01*
X24974699Y-10918626D01*
X24973799Y-10924693D01*
X24972309Y-10930643D01*
X24970242Y-10936418D01*
X24967620Y-10941962D01*
X24964467Y-10947223D01*
X24960813Y-10952150D01*
X24956694Y-10956694D01*
X24952150Y-10960813D01*
X24947223Y-10964467D01*
X24941962Y-10967620D01*
X24936418Y-10970242D01*
X24930643Y-10972309D01*
X24924693Y-10973799D01*
X24918626Y-10974699D01*
X24912500Y-10975000D01*
X24212500Y-10975000D01*
X24206374Y-10974699D01*
X24200307Y-10973799D01*
X24194357Y-10972309D01*
X24188582Y-10970242D01*
X24183038Y-10967620D01*
X24177777Y-10964467D01*
X24172850Y-10960813D01*
X24168306Y-10956694D01*
X24164187Y-10952150D01*
X24160533Y-10947223D01*
X24157380Y-10941962D01*
X24154758Y-10936418D01*
X24152691Y-10930643D01*
X24151201Y-10924693D01*
X24150301Y-10918626D01*
X24150000Y-10912500D01*
X24150000Y-10787500D01*
X24150301Y-10781374D01*
X24151201Y-10775307D01*
X24152691Y-10769357D01*
X24154758Y-10763582D01*
X24157380Y-10758038D01*
X24160533Y-10752777D01*
X24164187Y-10747850D01*
X24168306Y-10743306D01*
X24172850Y-10739187D01*
X24177777Y-10735533D01*
X24183038Y-10732380D01*
X24188582Y-10729758D01*
X24194357Y-10727691D01*
X24200307Y-10726201D01*
X24206374Y-10725301D01*
X24212500Y-10725000D01*
X24912500Y-10725000D01*
X24918626Y-10725301D01*
G37*
G36*
X24918626Y-10225301D02*
G01*
X24924693Y-10226201D01*
X24930643Y-10227691D01*
X24936418Y-10229758D01*
X24941962Y-10232380D01*
X24947223Y-10235533D01*
X24952150Y-10239187D01*
X24956694Y-10243306D01*
X24960813Y-10247850D01*
X24964467Y-10252777D01*
X24967620Y-10258038D01*
X24970242Y-10263582D01*
X24972309Y-10269357D01*
X24973799Y-10275307D01*
X24974699Y-10281374D01*
X24975000Y-10287500D01*
X24975000Y-10412500D01*
X24974699Y-10418626D01*
X24973799Y-10424693D01*
X24972309Y-10430643D01*
X24970242Y-10436418D01*
X24967620Y-10441962D01*
X24964467Y-10447223D01*
X24960813Y-10452150D01*
X24956694Y-10456694D01*
X24952150Y-10460813D01*
X24947223Y-10464467D01*
X24941962Y-10467620D01*
X24936418Y-10470242D01*
X24930643Y-10472309D01*
X24924693Y-10473799D01*
X24918626Y-10474699D01*
X24912500Y-10475000D01*
X24212500Y-10475000D01*
X24206374Y-10474699D01*
X24200307Y-10473799D01*
X24194357Y-10472309D01*
X24188582Y-10470242D01*
X24183038Y-10467620D01*
X24177777Y-10464467D01*
X24172850Y-10460813D01*
X24168306Y-10456694D01*
X24164187Y-10452150D01*
X24160533Y-10447223D01*
X24157380Y-10441962D01*
X24154758Y-10436418D01*
X24152691Y-10430643D01*
X24151201Y-10424693D01*
X24150301Y-10418626D01*
X24150000Y-10412500D01*
X24150000Y-10287500D01*
X24150301Y-10281374D01*
X24151201Y-10275307D01*
X24152691Y-10269357D01*
X24154758Y-10263582D01*
X24157380Y-10258038D01*
X24160533Y-10252777D01*
X24164187Y-10247850D01*
X24168306Y-10243306D01*
X24172850Y-10239187D01*
X24177777Y-10235533D01*
X24183038Y-10232380D01*
X24188582Y-10229758D01*
X24194357Y-10227691D01*
X24200307Y-10226201D01*
X24206374Y-10225301D01*
X24212500Y-10225000D01*
X24912500Y-10225000D01*
X24918626Y-10225301D01*
G37*
G36*
X25318626Y-9250301D02*
G01*
X25324693Y-9251201D01*
X25330643Y-9252691D01*
X25336418Y-9254758D01*
X25341962Y-9257380D01*
X25347223Y-9260533D01*
X25352150Y-9264187D01*
X25356694Y-9268306D01*
X25360813Y-9272850D01*
X25364467Y-9277777D01*
X25367620Y-9283038D01*
X25370242Y-9288582D01*
X25372309Y-9294357D01*
X25373799Y-9300307D01*
X25374699Y-9306374D01*
X25375000Y-9312500D01*
X25375000Y-10012500D01*
X25374699Y-10018626D01*
X25373799Y-10024693D01*
X25372309Y-10030643D01*
X25370242Y-10036418D01*
X25367620Y-10041962D01*
X25364467Y-10047223D01*
X25360813Y-10052150D01*
X25356694Y-10056694D01*
X25352150Y-10060813D01*
X25347223Y-10064467D01*
X25341962Y-10067620D01*
X25336418Y-10070242D01*
X25330643Y-10072309D01*
X25324693Y-10073799D01*
X25318626Y-10074699D01*
X25312500Y-10075000D01*
X25187500Y-10075000D01*
X25181374Y-10074699D01*
X25175307Y-10073799D01*
X25169357Y-10072309D01*
X25163582Y-10070242D01*
X25158038Y-10067620D01*
X25152777Y-10064467D01*
X25147850Y-10060813D01*
X25143306Y-10056694D01*
X25139187Y-10052150D01*
X25135533Y-10047223D01*
X25132380Y-10041962D01*
X25129758Y-10036418D01*
X25127691Y-10030643D01*
X25126201Y-10024693D01*
X25125301Y-10018626D01*
X25125000Y-10012500D01*
X25125000Y-9312500D01*
X25125301Y-9306374D01*
X25126201Y-9300307D01*
X25127691Y-9294357D01*
X25129758Y-9288582D01*
X25132380Y-9283038D01*
X25135533Y-9277777D01*
X25139187Y-9272850D01*
X25143306Y-9268306D01*
X25147850Y-9264187D01*
X25152777Y-9260533D01*
X25158038Y-9257380D01*
X25163582Y-9254758D01*
X25169357Y-9252691D01*
X25175307Y-9251201D01*
X25181374Y-9250301D01*
X25187500Y-9250000D01*
X25312500Y-9250000D01*
X25318626Y-9250301D01*
G37*
G36*
X25818626Y-9250301D02*
G01*
X25824693Y-9251201D01*
X25830643Y-9252691D01*
X25836418Y-9254758D01*
X25841962Y-9257380D01*
X25847223Y-9260533D01*
X25852150Y-9264187D01*
X25856694Y-9268306D01*
X25860813Y-9272850D01*
X25864467Y-9277777D01*
X25867620Y-9283038D01*
X25870242Y-9288582D01*
X25872309Y-9294357D01*
X25873799Y-9300307D01*
X25874699Y-9306374D01*
X25875000Y-9312500D01*
X25875000Y-10012500D01*
X25874699Y-10018626D01*
X25873799Y-10024693D01*
X25872309Y-10030643D01*
X25870242Y-10036418D01*
X25867620Y-10041962D01*
X25864467Y-10047223D01*
X25860813Y-10052150D01*
X25856694Y-10056694D01*
X25852150Y-10060813D01*
X25847223Y-10064467D01*
X25841962Y-10067620D01*
X25836418Y-10070242D01*
X25830643Y-10072309D01*
X25824693Y-10073799D01*
X25818626Y-10074699D01*
X25812500Y-10075000D01*
X25687500Y-10075000D01*
X25681374Y-10074699D01*
X25675307Y-10073799D01*
X25669357Y-10072309D01*
X25663582Y-10070242D01*
X25658038Y-10067620D01*
X25652777Y-10064467D01*
X25647850Y-10060813D01*
X25643306Y-10056694D01*
X25639187Y-10052150D01*
X25635533Y-10047223D01*
X25632380Y-10041962D01*
X25629758Y-10036418D01*
X25627691Y-10030643D01*
X25626201Y-10024693D01*
X25625301Y-10018626D01*
X25625000Y-10012500D01*
X25625000Y-9312500D01*
X25625301Y-9306374D01*
X25626201Y-9300307D01*
X25627691Y-9294357D01*
X25629758Y-9288582D01*
X25632380Y-9283038D01*
X25635533Y-9277777D01*
X25639187Y-9272850D01*
X25643306Y-9268306D01*
X25647850Y-9264187D01*
X25652777Y-9260533D01*
X25658038Y-9257380D01*
X25663582Y-9254758D01*
X25669357Y-9252691D01*
X25675307Y-9251201D01*
X25681374Y-9250301D01*
X25687500Y-9250000D01*
X25812500Y-9250000D01*
X25818626Y-9250301D01*
G37*
G36*
X26318626Y-9250301D02*
G01*
X26324693Y-9251201D01*
X26330643Y-9252691D01*
X26336418Y-9254758D01*
X26341962Y-9257380D01*
X26347223Y-9260533D01*
X26352150Y-9264187D01*
X26356694Y-9268306D01*
X26360813Y-9272850D01*
X26364467Y-9277777D01*
X26367620Y-9283038D01*
X26370242Y-9288582D01*
X26372309Y-9294357D01*
X26373799Y-9300307D01*
X26374699Y-9306374D01*
X26375000Y-9312500D01*
X26375000Y-10012500D01*
X26374699Y-10018626D01*
X26373799Y-10024693D01*
X26372309Y-10030643D01*
X26370242Y-10036418D01*
X26367620Y-10041962D01*
X26364467Y-10047223D01*
X26360813Y-10052150D01*
X26356694Y-10056694D01*
X26352150Y-10060813D01*
X26347223Y-10064467D01*
X26341962Y-10067620D01*
X26336418Y-10070242D01*
X26330643Y-10072309D01*
X26324693Y-10073799D01*
X26318626Y-10074699D01*
X26312500Y-10075000D01*
X26187500Y-10075000D01*
X26181374Y-10074699D01*
X26175307Y-10073799D01*
X26169357Y-10072309D01*
X26163582Y-10070242D01*
X26158038Y-10067620D01*
X26152777Y-10064467D01*
X26147850Y-10060813D01*
X26143306Y-10056694D01*
X26139187Y-10052150D01*
X26135533Y-10047223D01*
X26132380Y-10041962D01*
X26129758Y-10036418D01*
X26127691Y-10030643D01*
X26126201Y-10024693D01*
X26125301Y-10018626D01*
X26125000Y-10012500D01*
X26125000Y-9312500D01*
X26125301Y-9306374D01*
X26126201Y-9300307D01*
X26127691Y-9294357D01*
X26129758Y-9288582D01*
X26132380Y-9283038D01*
X26135533Y-9277777D01*
X26139187Y-9272850D01*
X26143306Y-9268306D01*
X26147850Y-9264187D01*
X26152777Y-9260533D01*
X26158038Y-9257380D01*
X26163582Y-9254758D01*
X26169357Y-9252691D01*
X26175307Y-9251201D01*
X26181374Y-9250301D01*
X26187500Y-9250000D01*
X26312500Y-9250000D01*
X26318626Y-9250301D01*
G37*
G36*
X26818626Y-9250301D02*
G01*
X26824693Y-9251201D01*
X26830643Y-9252691D01*
X26836418Y-9254758D01*
X26841962Y-9257380D01*
X26847223Y-9260533D01*
X26852150Y-9264187D01*
X26856694Y-9268306D01*
X26860813Y-9272850D01*
X26864467Y-9277777D01*
X26867620Y-9283038D01*
X26870242Y-9288582D01*
X26872309Y-9294357D01*
X26873799Y-9300307D01*
X26874699Y-9306374D01*
X26875000Y-9312500D01*
X26875000Y-10012500D01*
X26874699Y-10018626D01*
X26873799Y-10024693D01*
X26872309Y-10030643D01*
X26870242Y-10036418D01*
X26867620Y-10041962D01*
X26864467Y-10047223D01*
X26860813Y-10052150D01*
X26856694Y-10056694D01*
X26852150Y-10060813D01*
X26847223Y-10064467D01*
X26841962Y-10067620D01*
X26836418Y-10070242D01*
X26830643Y-10072309D01*
X26824693Y-10073799D01*
X26818626Y-10074699D01*
X26812500Y-10075000D01*
X26687500Y-10075000D01*
X26681374Y-10074699D01*
X26675307Y-10073799D01*
X26669357Y-10072309D01*
X26663582Y-10070242D01*
X26658038Y-10067620D01*
X26652777Y-10064467D01*
X26647850Y-10060813D01*
X26643306Y-10056694D01*
X26639187Y-10052150D01*
X26635533Y-10047223D01*
X26632380Y-10041962D01*
X26629758Y-10036418D01*
X26627691Y-10030643D01*
X26626201Y-10024693D01*
X26625301Y-10018626D01*
X26625000Y-10012500D01*
X26625000Y-9312500D01*
X26625301Y-9306374D01*
X26626201Y-9300307D01*
X26627691Y-9294357D01*
X26629758Y-9288582D01*
X26632380Y-9283038D01*
X26635533Y-9277777D01*
X26639187Y-9272850D01*
X26643306Y-9268306D01*
X26647850Y-9264187D01*
X26652777Y-9260533D01*
X26658038Y-9257380D01*
X26663582Y-9254758D01*
X26669357Y-9252691D01*
X26675307Y-9251201D01*
X26681374Y-9250301D01*
X26687500Y-9250000D01*
X26812500Y-9250000D01*
X26818626Y-9250301D01*
G37*
G36*
X27318626Y-9250301D02*
G01*
X27324693Y-9251201D01*
X27330643Y-9252691D01*
X27336418Y-9254758D01*
X27341962Y-9257380D01*
X27347223Y-9260533D01*
X27352150Y-9264187D01*
X27356694Y-9268306D01*
X27360813Y-9272850D01*
X27364467Y-9277777D01*
X27367620Y-9283038D01*
X27370242Y-9288582D01*
X27372309Y-9294357D01*
X27373799Y-9300307D01*
X27374699Y-9306374D01*
X27375000Y-9312500D01*
X27375000Y-10012500D01*
X27374699Y-10018626D01*
X27373799Y-10024693D01*
X27372309Y-10030643D01*
X27370242Y-10036418D01*
X27367620Y-10041962D01*
X27364467Y-10047223D01*
X27360813Y-10052150D01*
X27356694Y-10056694D01*
X27352150Y-10060813D01*
X27347223Y-10064467D01*
X27341962Y-10067620D01*
X27336418Y-10070242D01*
X27330643Y-10072309D01*
X27324693Y-10073799D01*
X27318626Y-10074699D01*
X27312500Y-10075000D01*
X27187500Y-10075000D01*
X27181374Y-10074699D01*
X27175307Y-10073799D01*
X27169357Y-10072309D01*
X27163582Y-10070242D01*
X27158038Y-10067620D01*
X27152777Y-10064467D01*
X27147850Y-10060813D01*
X27143306Y-10056694D01*
X27139187Y-10052150D01*
X27135533Y-10047223D01*
X27132380Y-10041962D01*
X27129758Y-10036418D01*
X27127691Y-10030643D01*
X27126201Y-10024693D01*
X27125301Y-10018626D01*
X27125000Y-10012500D01*
X27125000Y-9312500D01*
X27125301Y-9306374D01*
X27126201Y-9300307D01*
X27127691Y-9294357D01*
X27129758Y-9288582D01*
X27132380Y-9283038D01*
X27135533Y-9277777D01*
X27139187Y-9272850D01*
X27143306Y-9268306D01*
X27147850Y-9264187D01*
X27152777Y-9260533D01*
X27158038Y-9257380D01*
X27163582Y-9254758D01*
X27169357Y-9252691D01*
X27175307Y-9251201D01*
X27181374Y-9250301D01*
X27187500Y-9250000D01*
X27312500Y-9250000D01*
X27318626Y-9250301D01*
G37*
G36*
X27818626Y-9250301D02*
G01*
X27824693Y-9251201D01*
X27830643Y-9252691D01*
X27836418Y-9254758D01*
X27841962Y-9257380D01*
X27847223Y-9260533D01*
X27852150Y-9264187D01*
X27856694Y-9268306D01*
X27860813Y-9272850D01*
X27864467Y-9277777D01*
X27867620Y-9283038D01*
X27870242Y-9288582D01*
X27872309Y-9294357D01*
X27873799Y-9300307D01*
X27874699Y-9306374D01*
X27875000Y-9312500D01*
X27875000Y-10012500D01*
X27874699Y-10018626D01*
X27873799Y-10024693D01*
X27872309Y-10030643D01*
X27870242Y-10036418D01*
X27867620Y-10041962D01*
X27864467Y-10047223D01*
X27860813Y-10052150D01*
X27856694Y-10056694D01*
X27852150Y-10060813D01*
X27847223Y-10064467D01*
X27841962Y-10067620D01*
X27836418Y-10070242D01*
X27830643Y-10072309D01*
X27824693Y-10073799D01*
X27818626Y-10074699D01*
X27812500Y-10075000D01*
X27687500Y-10075000D01*
X27681374Y-10074699D01*
X27675307Y-10073799D01*
X27669357Y-10072309D01*
X27663582Y-10070242D01*
X27658038Y-10067620D01*
X27652777Y-10064467D01*
X27647850Y-10060813D01*
X27643306Y-10056694D01*
X27639187Y-10052150D01*
X27635533Y-10047223D01*
X27632380Y-10041962D01*
X27629758Y-10036418D01*
X27627691Y-10030643D01*
X27626201Y-10024693D01*
X27625301Y-10018626D01*
X27625000Y-10012500D01*
X27625000Y-9312500D01*
X27625301Y-9306374D01*
X27626201Y-9300307D01*
X27627691Y-9294357D01*
X27629758Y-9288582D01*
X27632380Y-9283038D01*
X27635533Y-9277777D01*
X27639187Y-9272850D01*
X27643306Y-9268306D01*
X27647850Y-9264187D01*
X27652777Y-9260533D01*
X27658038Y-9257380D01*
X27663582Y-9254758D01*
X27669357Y-9252691D01*
X27675307Y-9251201D01*
X27681374Y-9250301D01*
X27687500Y-9250000D01*
X27812500Y-9250000D01*
X27818626Y-9250301D01*
G37*
G36*
X28793626Y-10225301D02*
G01*
X28799693Y-10226201D01*
X28805643Y-10227691D01*
X28811418Y-10229758D01*
X28816962Y-10232380D01*
X28822223Y-10235533D01*
X28827150Y-10239187D01*
X28831694Y-10243306D01*
X28835813Y-10247850D01*
X28839467Y-10252777D01*
X28842620Y-10258038D01*
X28845242Y-10263582D01*
X28847309Y-10269357D01*
X28848799Y-10275307D01*
X28849699Y-10281374D01*
X28850000Y-10287500D01*
X28850000Y-10412500D01*
X28849699Y-10418626D01*
X28848799Y-10424693D01*
X28847309Y-10430643D01*
X28845242Y-10436418D01*
X28842620Y-10441962D01*
X28839467Y-10447223D01*
X28835813Y-10452150D01*
X28831694Y-10456694D01*
X28827150Y-10460813D01*
X28822223Y-10464467D01*
X28816962Y-10467620D01*
X28811418Y-10470242D01*
X28805643Y-10472309D01*
X28799693Y-10473799D01*
X28793626Y-10474699D01*
X28787500Y-10475000D01*
X28087500Y-10475000D01*
X28081374Y-10474699D01*
X28075307Y-10473799D01*
X28069357Y-10472309D01*
X28063582Y-10470242D01*
X28058038Y-10467620D01*
X28052777Y-10464467D01*
X28047850Y-10460813D01*
X28043306Y-10456694D01*
X28039187Y-10452150D01*
X28035533Y-10447223D01*
X28032380Y-10441962D01*
X28029758Y-10436418D01*
X28027691Y-10430643D01*
X28026201Y-10424693D01*
X28025301Y-10418626D01*
X28025000Y-10412500D01*
X28025000Y-10287500D01*
X28025301Y-10281374D01*
X28026201Y-10275307D01*
X28027691Y-10269357D01*
X28029758Y-10263582D01*
X28032380Y-10258038D01*
X28035533Y-10252777D01*
X28039187Y-10247850D01*
X28043306Y-10243306D01*
X28047850Y-10239187D01*
X28052777Y-10235533D01*
X28058038Y-10232380D01*
X28063582Y-10229758D01*
X28069357Y-10227691D01*
X28075307Y-10226201D01*
X28081374Y-10225301D01*
X28087500Y-10225000D01*
X28787500Y-10225000D01*
X28793626Y-10225301D01*
G37*
G36*
X28793626Y-10725301D02*
G01*
X28799693Y-10726201D01*
X28805643Y-10727691D01*
X28811418Y-10729758D01*
X28816962Y-10732380D01*
X28822223Y-10735533D01*
X28827150Y-10739187D01*
X28831694Y-10743306D01*
X28835813Y-10747850D01*
X28839467Y-10752777D01*
X28842620Y-10758038D01*
X28845242Y-10763582D01*
X28847309Y-10769357D01*
X28848799Y-10775307D01*
X28849699Y-10781374D01*
X28850000Y-10787500D01*
X28850000Y-10912500D01*
X28849699Y-10918626D01*
X28848799Y-10924693D01*
X28847309Y-10930643D01*
X28845242Y-10936418D01*
X28842620Y-10941962D01*
X28839467Y-10947223D01*
X28835813Y-10952150D01*
X28831694Y-10956694D01*
X28827150Y-10960813D01*
X28822223Y-10964467D01*
X28816962Y-10967620D01*
X28811418Y-10970242D01*
X28805643Y-10972309D01*
X28799693Y-10973799D01*
X28793626Y-10974699D01*
X28787500Y-10975000D01*
X28087500Y-10975000D01*
X28081374Y-10974699D01*
X28075307Y-10973799D01*
X28069357Y-10972309D01*
X28063582Y-10970242D01*
X28058038Y-10967620D01*
X28052777Y-10964467D01*
X28047850Y-10960813D01*
X28043306Y-10956694D01*
X28039187Y-10952150D01*
X28035533Y-10947223D01*
X28032380Y-10941962D01*
X28029758Y-10936418D01*
X28027691Y-10930643D01*
X28026201Y-10924693D01*
X28025301Y-10918626D01*
X28025000Y-10912500D01*
X28025000Y-10787500D01*
X28025301Y-10781374D01*
X28026201Y-10775307D01*
X28027691Y-10769357D01*
X28029758Y-10763582D01*
X28032380Y-10758038D01*
X28035533Y-10752777D01*
X28039187Y-10747850D01*
X28043306Y-10743306D01*
X28047850Y-10739187D01*
X28052777Y-10735533D01*
X28058038Y-10732380D01*
X28063582Y-10729758D01*
X28069357Y-10727691D01*
X28075307Y-10726201D01*
X28081374Y-10725301D01*
X28087500Y-10725000D01*
X28787500Y-10725000D01*
X28793626Y-10725301D01*
G37*
G36*
X28793626Y-11225301D02*
G01*
X28799693Y-11226201D01*
X28805643Y-11227691D01*
X28811418Y-11229758D01*
X28816962Y-11232380D01*
X28822223Y-11235533D01*
X28827150Y-11239187D01*
X28831694Y-11243306D01*
X28835813Y-11247850D01*
X28839467Y-11252777D01*
X28842620Y-11258038D01*
X28845242Y-11263582D01*
X28847309Y-11269357D01*
X28848799Y-11275307D01*
X28849699Y-11281374D01*
X28850000Y-11287500D01*
X28850000Y-11412500D01*
X28849699Y-11418626D01*
X28848799Y-11424693D01*
X28847309Y-11430643D01*
X28845242Y-11436418D01*
X28842620Y-11441962D01*
X28839467Y-11447223D01*
X28835813Y-11452150D01*
X28831694Y-11456694D01*
X28827150Y-11460813D01*
X28822223Y-11464467D01*
X28816962Y-11467620D01*
X28811418Y-11470242D01*
X28805643Y-11472309D01*
X28799693Y-11473799D01*
X28793626Y-11474699D01*
X28787500Y-11475000D01*
X28087500Y-11475000D01*
X28081374Y-11474699D01*
X28075307Y-11473799D01*
X28069357Y-11472309D01*
X28063582Y-11470242D01*
X28058038Y-11467620D01*
X28052777Y-11464467D01*
X28047850Y-11460813D01*
X28043306Y-11456694D01*
X28039187Y-11452150D01*
X28035533Y-11447223D01*
X28032380Y-11441962D01*
X28029758Y-11436418D01*
X28027691Y-11430643D01*
X28026201Y-11424693D01*
X28025301Y-11418626D01*
X28025000Y-11412500D01*
X28025000Y-11287500D01*
X28025301Y-11281374D01*
X28026201Y-11275307D01*
X28027691Y-11269357D01*
X28029758Y-11263582D01*
X28032380Y-11258038D01*
X28035533Y-11252777D01*
X28039187Y-11247850D01*
X28043306Y-11243306D01*
X28047850Y-11239187D01*
X28052777Y-11235533D01*
X28058038Y-11232380D01*
X28063582Y-11229758D01*
X28069357Y-11227691D01*
X28075307Y-11226201D01*
X28081374Y-11225301D01*
X28087500Y-11225000D01*
X28787500Y-11225000D01*
X28793626Y-11225301D01*
G37*
G36*
X28793626Y-11725301D02*
G01*
X28799693Y-11726201D01*
X28805643Y-11727691D01*
X28811418Y-11729758D01*
X28816962Y-11732380D01*
X28822223Y-11735533D01*
X28827150Y-11739187D01*
X28831694Y-11743306D01*
X28835813Y-11747850D01*
X28839467Y-11752777D01*
X28842620Y-11758038D01*
X28845242Y-11763582D01*
X28847309Y-11769357D01*
X28848799Y-11775307D01*
X28849699Y-11781374D01*
X28850000Y-11787500D01*
X28850000Y-11912500D01*
X28849699Y-11918626D01*
X28848799Y-11924693D01*
X28847309Y-11930643D01*
X28845242Y-11936418D01*
X28842620Y-11941962D01*
X28839467Y-11947223D01*
X28835813Y-11952150D01*
X28831694Y-11956694D01*
X28827150Y-11960813D01*
X28822223Y-11964467D01*
X28816962Y-11967620D01*
X28811418Y-11970242D01*
X28805643Y-11972309D01*
X28799693Y-11973799D01*
X28793626Y-11974699D01*
X28787500Y-11975000D01*
X28087500Y-11975000D01*
X28081374Y-11974699D01*
X28075307Y-11973799D01*
X28069357Y-11972309D01*
X28063582Y-11970242D01*
X28058038Y-11967620D01*
X28052777Y-11964467D01*
X28047850Y-11960813D01*
X28043306Y-11956694D01*
X28039187Y-11952150D01*
X28035533Y-11947223D01*
X28032380Y-11941962D01*
X28029758Y-11936418D01*
X28027691Y-11930643D01*
X28026201Y-11924693D01*
X28025301Y-11918626D01*
X28025000Y-11912500D01*
X28025000Y-11787500D01*
X28025301Y-11781374D01*
X28026201Y-11775307D01*
X28027691Y-11769357D01*
X28029758Y-11763582D01*
X28032380Y-11758038D01*
X28035533Y-11752777D01*
X28039187Y-11747850D01*
X28043306Y-11743306D01*
X28047850Y-11739187D01*
X28052777Y-11735533D01*
X28058038Y-11732380D01*
X28063582Y-11729758D01*
X28069357Y-11727691D01*
X28075307Y-11726201D01*
X28081374Y-11725301D01*
X28087500Y-11725000D01*
X28787500Y-11725000D01*
X28793626Y-11725301D01*
G37*
G36*
X28793626Y-12225301D02*
G01*
X28799693Y-12226201D01*
X28805643Y-12227691D01*
X28811418Y-12229758D01*
X28816962Y-12232380D01*
X28822223Y-12235533D01*
X28827150Y-12239187D01*
X28831694Y-12243306D01*
X28835813Y-12247850D01*
X28839467Y-12252777D01*
X28842620Y-12258038D01*
X28845242Y-12263582D01*
X28847309Y-12269357D01*
X28848799Y-12275307D01*
X28849699Y-12281374D01*
X28850000Y-12287500D01*
X28850000Y-12412500D01*
X28849699Y-12418626D01*
X28848799Y-12424693D01*
X28847309Y-12430643D01*
X28845242Y-12436418D01*
X28842620Y-12441962D01*
X28839467Y-12447223D01*
X28835813Y-12452150D01*
X28831694Y-12456694D01*
X28827150Y-12460813D01*
X28822223Y-12464467D01*
X28816962Y-12467620D01*
X28811418Y-12470242D01*
X28805643Y-12472309D01*
X28799693Y-12473799D01*
X28793626Y-12474699D01*
X28787500Y-12475000D01*
X28087500Y-12475000D01*
X28081374Y-12474699D01*
X28075307Y-12473799D01*
X28069357Y-12472309D01*
X28063582Y-12470242D01*
X28058038Y-12467620D01*
X28052777Y-12464467D01*
X28047850Y-12460813D01*
X28043306Y-12456694D01*
X28039187Y-12452150D01*
X28035533Y-12447223D01*
X28032380Y-12441962D01*
X28029758Y-12436418D01*
X28027691Y-12430643D01*
X28026201Y-12424693D01*
X28025301Y-12418626D01*
X28025000Y-12412500D01*
X28025000Y-12287500D01*
X28025301Y-12281374D01*
X28026201Y-12275307D01*
X28027691Y-12269357D01*
X28029758Y-12263582D01*
X28032380Y-12258038D01*
X28035533Y-12252777D01*
X28039187Y-12247850D01*
X28043306Y-12243306D01*
X28047850Y-12239187D01*
X28052777Y-12235533D01*
X28058038Y-12232380D01*
X28063582Y-12229758D01*
X28069357Y-12227691D01*
X28075307Y-12226201D01*
X28081374Y-12225301D01*
X28087500Y-12225000D01*
X28787500Y-12225000D01*
X28793626Y-12225301D01*
G37*
G36*
X28793626Y-12725301D02*
G01*
X28799693Y-12726201D01*
X28805643Y-12727691D01*
X28811418Y-12729758D01*
X28816962Y-12732380D01*
X28822223Y-12735533D01*
X28827150Y-12739187D01*
X28831694Y-12743306D01*
X28835813Y-12747850D01*
X28839467Y-12752777D01*
X28842620Y-12758038D01*
X28845242Y-12763582D01*
X28847309Y-12769357D01*
X28848799Y-12775307D01*
X28849699Y-12781374D01*
X28850000Y-12787500D01*
X28850000Y-12912500D01*
X28849699Y-12918626D01*
X28848799Y-12924693D01*
X28847309Y-12930643D01*
X28845242Y-12936418D01*
X28842620Y-12941962D01*
X28839467Y-12947223D01*
X28835813Y-12952150D01*
X28831694Y-12956694D01*
X28827150Y-12960813D01*
X28822223Y-12964467D01*
X28816962Y-12967620D01*
X28811418Y-12970242D01*
X28805643Y-12972309D01*
X28799693Y-12973799D01*
X28793626Y-12974699D01*
X28787500Y-12975000D01*
X28087500Y-12975000D01*
X28081374Y-12974699D01*
X28075307Y-12973799D01*
X28069357Y-12972309D01*
X28063582Y-12970242D01*
X28058038Y-12967620D01*
X28052777Y-12964467D01*
X28047850Y-12960813D01*
X28043306Y-12956694D01*
X28039187Y-12952150D01*
X28035533Y-12947223D01*
X28032380Y-12941962D01*
X28029758Y-12936418D01*
X28027691Y-12930643D01*
X28026201Y-12924693D01*
X28025301Y-12918626D01*
X28025000Y-12912500D01*
X28025000Y-12787500D01*
X28025301Y-12781374D01*
X28026201Y-12775307D01*
X28027691Y-12769357D01*
X28029758Y-12763582D01*
X28032380Y-12758038D01*
X28035533Y-12752777D01*
X28039187Y-12747850D01*
X28043306Y-12743306D01*
X28047850Y-12739187D01*
X28052777Y-12735533D01*
X28058038Y-12732380D01*
X28063582Y-12729758D01*
X28069357Y-12727691D01*
X28075307Y-12726201D01*
X28081374Y-12725301D01*
X28087500Y-12725000D01*
X28787500Y-12725000D01*
X28793626Y-12725301D01*
G37*
G36*
X26149505Y-10426204D02*
G01*
X26173773Y-10429804D01*
X26197572Y-10435765D01*
X26220671Y-10444030D01*
X26242850Y-10454520D01*
X26263893Y-10467132D01*
X26283599Y-10481747D01*
X26301777Y-10498223D01*
X26318253Y-10516401D01*
X26332868Y-10536107D01*
X26345480Y-10557150D01*
X26355970Y-10579329D01*
X26364235Y-10602428D01*
X26370196Y-10626227D01*
X26373796Y-10650495D01*
X26375000Y-10674999D01*
X26375000Y-11225001D01*
X26373796Y-11249505D01*
X26370196Y-11273773D01*
X26364235Y-11297572D01*
X26355970Y-11320671D01*
X26345480Y-11342850D01*
X26332868Y-11363893D01*
X26318253Y-11383599D01*
X26301777Y-11401777D01*
X26283599Y-11418253D01*
X26263893Y-11432868D01*
X26242850Y-11445480D01*
X26220671Y-11455970D01*
X26197572Y-11464235D01*
X26173773Y-11470196D01*
X26149505Y-11473796D01*
X26125001Y-11475000D01*
X25574999Y-11475000D01*
X25550495Y-11473796D01*
X25526227Y-11470196D01*
X25502428Y-11464235D01*
X25479329Y-11455970D01*
X25457150Y-11445480D01*
X25436107Y-11432868D01*
X25416401Y-11418253D01*
X25398223Y-11401777D01*
X25381747Y-11383599D01*
X25367132Y-11363893D01*
X25354520Y-11342850D01*
X25344030Y-11320671D01*
X25335765Y-11297572D01*
X25329804Y-11273773D01*
X25326204Y-11249505D01*
X25325000Y-11225001D01*
X25325000Y-10674999D01*
X25326204Y-10650495D01*
X25329804Y-10626227D01*
X25335765Y-10602428D01*
X25344030Y-10579329D01*
X25354520Y-10557150D01*
X25367132Y-10536107D01*
X25381747Y-10516401D01*
X25398223Y-10498223D01*
X25416401Y-10481747D01*
X25436107Y-10467132D01*
X25457150Y-10454520D01*
X25479329Y-10444030D01*
X25502428Y-10435765D01*
X25526227Y-10429804D01*
X25550495Y-10426204D01*
X25574999Y-10425000D01*
X26125001Y-10425000D01*
X26149505Y-10426204D01*
G37*
G36*
X26149505Y-11726204D02*
G01*
X26173773Y-11729804D01*
X26197572Y-11735765D01*
X26220671Y-11744030D01*
X26242850Y-11754520D01*
X26263893Y-11767132D01*
X26283599Y-11781747D01*
X26301777Y-11798223D01*
X26318253Y-11816401D01*
X26332868Y-11836107D01*
X26345480Y-11857150D01*
X26355970Y-11879329D01*
X26364235Y-11902428D01*
X26370196Y-11926227D01*
X26373796Y-11950495D01*
X26375000Y-11974999D01*
X26375000Y-12525001D01*
X26373796Y-12549505D01*
X26370196Y-12573773D01*
X26364235Y-12597572D01*
X26355970Y-12620671D01*
X26345480Y-12642850D01*
X26332868Y-12663893D01*
X26318253Y-12683599D01*
X26301777Y-12701777D01*
X26283599Y-12718253D01*
X26263893Y-12732868D01*
X26242850Y-12745480D01*
X26220671Y-12755970D01*
X26197572Y-12764235D01*
X26173773Y-12770196D01*
X26149505Y-12773796D01*
X26125001Y-12775000D01*
X25574999Y-12775000D01*
X25550495Y-12773796D01*
X25526227Y-12770196D01*
X25502428Y-12764235D01*
X25479329Y-12755970D01*
X25457150Y-12745480D01*
X25436107Y-12732868D01*
X25416401Y-12718253D01*
X25398223Y-12701777D01*
X25381747Y-12683599D01*
X25367132Y-12663893D01*
X25354520Y-12642850D01*
X25344030Y-12620671D01*
X25335765Y-12597572D01*
X25329804Y-12573773D01*
X25326204Y-12549505D01*
X25325000Y-12525001D01*
X25325000Y-11974999D01*
X25326204Y-11950495D01*
X25329804Y-11926227D01*
X25335765Y-11902428D01*
X25344030Y-11879329D01*
X25354520Y-11857150D01*
X25367132Y-11836107D01*
X25381747Y-11816401D01*
X25398223Y-11798223D01*
X25416401Y-11781747D01*
X25436107Y-11767132D01*
X25457150Y-11754520D01*
X25479329Y-11744030D01*
X25502428Y-11735765D01*
X25526227Y-11729804D01*
X25550495Y-11726204D01*
X25574999Y-11725000D01*
X26125001Y-11725000D01*
X26149505Y-11726204D01*
G37*
G36*
X27449505Y-10426204D02*
G01*
X27473773Y-10429804D01*
X27497572Y-10435765D01*
X27520671Y-10444030D01*
X27542850Y-10454520D01*
X27563893Y-10467132D01*
X27583599Y-10481747D01*
X27601777Y-10498223D01*
X27618253Y-10516401D01*
X27632868Y-10536107D01*
X27645480Y-10557150D01*
X27655970Y-10579329D01*
X27664235Y-10602428D01*
X27670196Y-10626227D01*
X27673796Y-10650495D01*
X27675000Y-10674999D01*
X27675000Y-11225001D01*
X27673796Y-11249505D01*
X27670196Y-11273773D01*
X27664235Y-11297572D01*
X27655970Y-11320671D01*
X27645480Y-11342850D01*
X27632868Y-11363893D01*
X27618253Y-11383599D01*
X27601777Y-11401777D01*
X27583599Y-11418253D01*
X27563893Y-11432868D01*
X27542850Y-11445480D01*
X27520671Y-11455970D01*
X27497572Y-11464235D01*
X27473773Y-11470196D01*
X27449505Y-11473796D01*
X27425001Y-11475000D01*
X26874999Y-11475000D01*
X26850495Y-11473796D01*
X26826227Y-11470196D01*
X26802428Y-11464235D01*
X26779329Y-11455970D01*
X26757150Y-11445480D01*
X26736107Y-11432868D01*
X26716401Y-11418253D01*
X26698223Y-11401777D01*
X26681747Y-11383599D01*
X26667132Y-11363893D01*
X26654520Y-11342850D01*
X26644030Y-11320671D01*
X26635765Y-11297572D01*
X26629804Y-11273773D01*
X26626204Y-11249505D01*
X26625000Y-11225001D01*
X26625000Y-10674999D01*
X26626204Y-10650495D01*
X26629804Y-10626227D01*
X26635765Y-10602428D01*
X26644030Y-10579329D01*
X26654520Y-10557150D01*
X26667132Y-10536107D01*
X26681747Y-10516401D01*
X26698223Y-10498223D01*
X26716401Y-10481747D01*
X26736107Y-10467132D01*
X26757150Y-10454520D01*
X26779329Y-10444030D01*
X26802428Y-10435765D01*
X26826227Y-10429804D01*
X26850495Y-10426204D01*
X26874999Y-10425000D01*
X27425001Y-10425000D01*
X27449505Y-10426204D01*
G37*
G36*
X27449505Y-11726204D02*
G01*
X27473773Y-11729804D01*
X27497572Y-11735765D01*
X27520671Y-11744030D01*
X27542850Y-11754520D01*
X27563893Y-11767132D01*
X27583599Y-11781747D01*
X27601777Y-11798223D01*
X27618253Y-11816401D01*
X27632868Y-11836107D01*
X27645480Y-11857150D01*
X27655970Y-11879329D01*
X27664235Y-11902428D01*
X27670196Y-11926227D01*
X27673796Y-11950495D01*
X27675000Y-11974999D01*
X27675000Y-12525001D01*
X27673796Y-12549505D01*
X27670196Y-12573773D01*
X27664235Y-12597572D01*
X27655970Y-12620671D01*
X27645480Y-12642850D01*
X27632868Y-12663893D01*
X27618253Y-12683599D01*
X27601777Y-12701777D01*
X27583599Y-12718253D01*
X27563893Y-12732868D01*
X27542850Y-12745480D01*
X27520671Y-12755970D01*
X27497572Y-12764235D01*
X27473773Y-12770196D01*
X27449505Y-12773796D01*
X27425001Y-12775000D01*
X26874999Y-12775000D01*
X26850495Y-12773796D01*
X26826227Y-12770196D01*
X26802428Y-12764235D01*
X26779329Y-12755970D01*
X26757150Y-12745480D01*
X26736107Y-12732868D01*
X26716401Y-12718253D01*
X26698223Y-12701777D01*
X26681747Y-12683599D01*
X26667132Y-12663893D01*
X26654520Y-12642850D01*
X26644030Y-12620671D01*
X26635765Y-12597572D01*
X26629804Y-12573773D01*
X26626204Y-12549505D01*
X26625000Y-12525001D01*
X26625000Y-11974999D01*
X26626204Y-11950495D01*
X26629804Y-11926227D01*
X26635765Y-11902428D01*
X26644030Y-11879329D01*
X26654520Y-11857150D01*
X26667132Y-11836107D01*
X26681747Y-11816401D01*
X26698223Y-11798223D01*
X26716401Y-11781747D01*
X26736107Y-11767132D01*
X26757150Y-11754520D01*
X26779329Y-11744030D01*
X26802428Y-11735765D01*
X26826227Y-11729804D01*
X26850495Y-11726204D01*
X26874999Y-11725000D01*
X27425001Y-11725000D01*
X27449505Y-11726204D01*
G37*
D11*
X8500000Y-37825000D03*
X5900000Y-37825000D03*
D12*
X10300000Y-37950000D03*
X4100000Y-37950000D03*
D13*
X8400000Y-40500000D03*
X6000000Y-40500000D03*
D14*
X11000000Y-40500000D03*
X3400000Y-40500000D03*
D15*
X41500000Y-10570000D03*
X39400000Y-10570000D03*
X37300000Y-10570000D03*
X41500000Y-14770000D03*
X39400000Y-14770000D03*
X37300000Y-14770000D03*
D16*
X39370000Y-5290000D03*
X39370000Y-7190000D03*
X41470000Y-6240000D03*
X23580000Y4300000D03*
X23580000Y2400000D03*
X25680000Y3350000D03*
X29240000Y4310000D03*
X29240000Y2410000D03*
X31340000Y3360000D03*
D10*
G36*
X-1322309Y-27563553D02*
G01*
X-1301074Y-27566703D01*
X-1280250Y-27571919D01*
X-1260038Y-27579151D01*
X-1240632Y-27588330D01*
X-1222219Y-27599366D01*
X-1204976Y-27612154D01*
X-1189070Y-27626570D01*
X-1174654Y-27642476D01*
X-1161866Y-27659719D01*
X-1150830Y-27678132D01*
X-1141651Y-27697538D01*
X-1134419Y-27717750D01*
X-1129203Y-27738574D01*
X-1126053Y-27759809D01*
X-1125000Y-27781250D01*
X-1125000Y-28218750D01*
X-1126053Y-28240191D01*
X-1129203Y-28261426D01*
X-1134419Y-28282250D01*
X-1141651Y-28302462D01*
X-1150830Y-28321868D01*
X-1161866Y-28340281D01*
X-1174654Y-28357524D01*
X-1189070Y-28373430D01*
X-1204976Y-28387846D01*
X-1222219Y-28400634D01*
X-1240632Y-28411670D01*
X-1260038Y-28420849D01*
X-1280250Y-28428081D01*
X-1301074Y-28433297D01*
X-1322309Y-28436447D01*
X-1343750Y-28437500D01*
X-1856250Y-28437500D01*
X-1877691Y-28436447D01*
X-1898926Y-28433297D01*
X-1919750Y-28428081D01*
X-1939962Y-28420849D01*
X-1959368Y-28411670D01*
X-1977781Y-28400634D01*
X-1995024Y-28387846D01*
X-2010930Y-28373430D01*
X-2025346Y-28357524D01*
X-2038134Y-28340281D01*
X-2049170Y-28321868D01*
X-2058349Y-28302462D01*
X-2065581Y-28282250D01*
X-2070797Y-28261426D01*
X-2073947Y-28240191D01*
X-2075000Y-28218750D01*
X-2075000Y-27781250D01*
X-2073947Y-27759809D01*
X-2070797Y-27738574D01*
X-2065581Y-27717750D01*
X-2058349Y-27697538D01*
X-2049170Y-27678132D01*
X-2038134Y-27659719D01*
X-2025346Y-27642476D01*
X-2010930Y-27626570D01*
X-1995024Y-27612154D01*
X-1977781Y-27599366D01*
X-1959368Y-27588330D01*
X-1939962Y-27579151D01*
X-1919750Y-27571919D01*
X-1898926Y-27566703D01*
X-1877691Y-27563553D01*
X-1856250Y-27562500D01*
X-1343750Y-27562500D01*
X-1322309Y-27563553D01*
G37*
G36*
X-1322309Y-25988553D02*
G01*
X-1301074Y-25991703D01*
X-1280250Y-25996919D01*
X-1260038Y-26004151D01*
X-1240632Y-26013330D01*
X-1222219Y-26024366D01*
X-1204976Y-26037154D01*
X-1189070Y-26051570D01*
X-1174654Y-26067476D01*
X-1161866Y-26084719D01*
X-1150830Y-26103132D01*
X-1141651Y-26122538D01*
X-1134419Y-26142750D01*
X-1129203Y-26163574D01*
X-1126053Y-26184809D01*
X-1125000Y-26206250D01*
X-1125000Y-26643750D01*
X-1126053Y-26665191D01*
X-1129203Y-26686426D01*
X-1134419Y-26707250D01*
X-1141651Y-26727462D01*
X-1150830Y-26746868D01*
X-1161866Y-26765281D01*
X-1174654Y-26782524D01*
X-1189070Y-26798430D01*
X-1204976Y-26812846D01*
X-1222219Y-26825634D01*
X-1240632Y-26836670D01*
X-1260038Y-26845849D01*
X-1280250Y-26853081D01*
X-1301074Y-26858297D01*
X-1322309Y-26861447D01*
X-1343750Y-26862500D01*
X-1856250Y-26862500D01*
X-1877691Y-26861447D01*
X-1898926Y-26858297D01*
X-1919750Y-26853081D01*
X-1939962Y-26845849D01*
X-1959368Y-26836670D01*
X-1977781Y-26825634D01*
X-1995024Y-26812846D01*
X-2010930Y-26798430D01*
X-2025346Y-26782524D01*
X-2038134Y-26765281D01*
X-2049170Y-26746868D01*
X-2058349Y-26727462D01*
X-2065581Y-26707250D01*
X-2070797Y-26686426D01*
X-2073947Y-26665191D01*
X-2075000Y-26643750D01*
X-2075000Y-26206250D01*
X-2073947Y-26184809D01*
X-2070797Y-26163574D01*
X-2065581Y-26142750D01*
X-2058349Y-26122538D01*
X-2049170Y-26103132D01*
X-2038134Y-26084719D01*
X-2025346Y-26067476D01*
X-2010930Y-26051570D01*
X-1995024Y-26037154D01*
X-1977781Y-26024366D01*
X-1959368Y-26013330D01*
X-1939962Y-26004151D01*
X-1919750Y-25996919D01*
X-1898926Y-25991703D01*
X-1877691Y-25988553D01*
X-1856250Y-25987500D01*
X-1343750Y-25987500D01*
X-1322309Y-25988553D01*
G37*
G36*
X37857691Y-28956053D02*
G01*
X37878926Y-28959203D01*
X37899750Y-28964419D01*
X37919962Y-28971651D01*
X37939368Y-28980830D01*
X37957781Y-28991866D01*
X37975024Y-29004654D01*
X37990930Y-29019070D01*
X38005346Y-29034976D01*
X38018134Y-29052219D01*
X38029170Y-29070632D01*
X38038349Y-29090038D01*
X38045581Y-29110250D01*
X38050797Y-29131074D01*
X38053947Y-29152309D01*
X38055000Y-29173750D01*
X38055000Y-29611250D01*
X38053947Y-29632691D01*
X38050797Y-29653926D01*
X38045581Y-29674750D01*
X38038349Y-29694962D01*
X38029170Y-29714368D01*
X38018134Y-29732781D01*
X38005346Y-29750024D01*
X37990930Y-29765930D01*
X37975024Y-29780346D01*
X37957781Y-29793134D01*
X37939368Y-29804170D01*
X37919962Y-29813349D01*
X37899750Y-29820581D01*
X37878926Y-29825797D01*
X37857691Y-29828947D01*
X37836250Y-29830000D01*
X37323750Y-29830000D01*
X37302309Y-29828947D01*
X37281074Y-29825797D01*
X37260250Y-29820581D01*
X37240038Y-29813349D01*
X37220632Y-29804170D01*
X37202219Y-29793134D01*
X37184976Y-29780346D01*
X37169070Y-29765930D01*
X37154654Y-29750024D01*
X37141866Y-29732781D01*
X37130830Y-29714368D01*
X37121651Y-29694962D01*
X37114419Y-29674750D01*
X37109203Y-29653926D01*
X37106053Y-29632691D01*
X37105000Y-29611250D01*
X37105000Y-29173750D01*
X37106053Y-29152309D01*
X37109203Y-29131074D01*
X37114419Y-29110250D01*
X37121651Y-29090038D01*
X37130830Y-29070632D01*
X37141866Y-29052219D01*
X37154654Y-29034976D01*
X37169070Y-29019070D01*
X37184976Y-29004654D01*
X37202219Y-28991866D01*
X37220632Y-28980830D01*
X37240038Y-28971651D01*
X37260250Y-28964419D01*
X37281074Y-28959203D01*
X37302309Y-28956053D01*
X37323750Y-28955000D01*
X37836250Y-28955000D01*
X37857691Y-28956053D01*
G37*
G36*
X37857691Y-30531053D02*
G01*
X37878926Y-30534203D01*
X37899750Y-30539419D01*
X37919962Y-30546651D01*
X37939368Y-30555830D01*
X37957781Y-30566866D01*
X37975024Y-30579654D01*
X37990930Y-30594070D01*
X38005346Y-30609976D01*
X38018134Y-30627219D01*
X38029170Y-30645632D01*
X38038349Y-30665038D01*
X38045581Y-30685250D01*
X38050797Y-30706074D01*
X38053947Y-30727309D01*
X38055000Y-30748750D01*
X38055000Y-31186250D01*
X38053947Y-31207691D01*
X38050797Y-31228926D01*
X38045581Y-31249750D01*
X38038349Y-31269962D01*
X38029170Y-31289368D01*
X38018134Y-31307781D01*
X38005346Y-31325024D01*
X37990930Y-31340930D01*
X37975024Y-31355346D01*
X37957781Y-31368134D01*
X37939368Y-31379170D01*
X37919962Y-31388349D01*
X37899750Y-31395581D01*
X37878926Y-31400797D01*
X37857691Y-31403947D01*
X37836250Y-31405000D01*
X37323750Y-31405000D01*
X37302309Y-31403947D01*
X37281074Y-31400797D01*
X37260250Y-31395581D01*
X37240038Y-31388349D01*
X37220632Y-31379170D01*
X37202219Y-31368134D01*
X37184976Y-31355346D01*
X37169070Y-31340930D01*
X37154654Y-31325024D01*
X37141866Y-31307781D01*
X37130830Y-31289368D01*
X37121651Y-31269962D01*
X37114419Y-31249750D01*
X37109203Y-31228926D01*
X37106053Y-31207691D01*
X37105000Y-31186250D01*
X37105000Y-30748750D01*
X37106053Y-30727309D01*
X37109203Y-30706074D01*
X37114419Y-30685250D01*
X37121651Y-30665038D01*
X37130830Y-30645632D01*
X37141866Y-30627219D01*
X37154654Y-30609976D01*
X37169070Y-30594070D01*
X37184976Y-30579654D01*
X37202219Y-30566866D01*
X37220632Y-30555830D01*
X37240038Y-30546651D01*
X37260250Y-30539419D01*
X37281074Y-30534203D01*
X37302309Y-30531053D01*
X37323750Y-30530000D01*
X37836250Y-30530000D01*
X37857691Y-30531053D01*
G37*
G36*
X39482691Y-28911053D02*
G01*
X39503926Y-28914203D01*
X39524750Y-28919419D01*
X39544962Y-28926651D01*
X39564368Y-28935830D01*
X39582781Y-28946866D01*
X39600024Y-28959654D01*
X39615930Y-28974070D01*
X39630346Y-28989976D01*
X39643134Y-29007219D01*
X39654170Y-29025632D01*
X39663349Y-29045038D01*
X39670581Y-29065250D01*
X39675797Y-29086074D01*
X39678947Y-29107309D01*
X39680000Y-29128750D01*
X39680000Y-29566250D01*
X39678947Y-29587691D01*
X39675797Y-29608926D01*
X39670581Y-29629750D01*
X39663349Y-29649962D01*
X39654170Y-29669368D01*
X39643134Y-29687781D01*
X39630346Y-29705024D01*
X39615930Y-29720930D01*
X39600024Y-29735346D01*
X39582781Y-29748134D01*
X39564368Y-29759170D01*
X39544962Y-29768349D01*
X39524750Y-29775581D01*
X39503926Y-29780797D01*
X39482691Y-29783947D01*
X39461250Y-29785000D01*
X38948750Y-29785000D01*
X38927309Y-29783947D01*
X38906074Y-29780797D01*
X38885250Y-29775581D01*
X38865038Y-29768349D01*
X38845632Y-29759170D01*
X38827219Y-29748134D01*
X38809976Y-29735346D01*
X38794070Y-29720930D01*
X38779654Y-29705024D01*
X38766866Y-29687781D01*
X38755830Y-29669368D01*
X38746651Y-29649962D01*
X38739419Y-29629750D01*
X38734203Y-29608926D01*
X38731053Y-29587691D01*
X38730000Y-29566250D01*
X38730000Y-29128750D01*
X38731053Y-29107309D01*
X38734203Y-29086074D01*
X38739419Y-29065250D01*
X38746651Y-29045038D01*
X38755830Y-29025632D01*
X38766866Y-29007219D01*
X38779654Y-28989976D01*
X38794070Y-28974070D01*
X38809976Y-28959654D01*
X38827219Y-28946866D01*
X38845632Y-28935830D01*
X38865038Y-28926651D01*
X38885250Y-28919419D01*
X38906074Y-28914203D01*
X38927309Y-28911053D01*
X38948750Y-28910000D01*
X39461250Y-28910000D01*
X39482691Y-28911053D01*
G37*
G36*
X39482691Y-30486053D02*
G01*
X39503926Y-30489203D01*
X39524750Y-30494419D01*
X39544962Y-30501651D01*
X39564368Y-30510830D01*
X39582781Y-30521866D01*
X39600024Y-30534654D01*
X39615930Y-30549070D01*
X39630346Y-30564976D01*
X39643134Y-30582219D01*
X39654170Y-30600632D01*
X39663349Y-30620038D01*
X39670581Y-30640250D01*
X39675797Y-30661074D01*
X39678947Y-30682309D01*
X39680000Y-30703750D01*
X39680000Y-31141250D01*
X39678947Y-31162691D01*
X39675797Y-31183926D01*
X39670581Y-31204750D01*
X39663349Y-31224962D01*
X39654170Y-31244368D01*
X39643134Y-31262781D01*
X39630346Y-31280024D01*
X39615930Y-31295930D01*
X39600024Y-31310346D01*
X39582781Y-31323134D01*
X39564368Y-31334170D01*
X39544962Y-31343349D01*
X39524750Y-31350581D01*
X39503926Y-31355797D01*
X39482691Y-31358947D01*
X39461250Y-31360000D01*
X38948750Y-31360000D01*
X38927309Y-31358947D01*
X38906074Y-31355797D01*
X38885250Y-31350581D01*
X38865038Y-31343349D01*
X38845632Y-31334170D01*
X38827219Y-31323134D01*
X38809976Y-31310346D01*
X38794070Y-31295930D01*
X38779654Y-31280024D01*
X38766866Y-31262781D01*
X38755830Y-31244368D01*
X38746651Y-31224962D01*
X38739419Y-31204750D01*
X38734203Y-31183926D01*
X38731053Y-31162691D01*
X38730000Y-31141250D01*
X38730000Y-30703750D01*
X38731053Y-30682309D01*
X38734203Y-30661074D01*
X38739419Y-30640250D01*
X38746651Y-30620038D01*
X38755830Y-30600632D01*
X38766866Y-30582219D01*
X38779654Y-30564976D01*
X38794070Y-30549070D01*
X38809976Y-30534654D01*
X38827219Y-30521866D01*
X38845632Y-30510830D01*
X38865038Y-30501651D01*
X38885250Y-30494419D01*
X38906074Y-30489203D01*
X38927309Y-30486053D01*
X38948750Y-30485000D01*
X39461250Y-30485000D01*
X39482691Y-30486053D01*
G37*
G36*
X41107691Y-28911053D02*
G01*
X41128926Y-28914203D01*
X41149750Y-28919419D01*
X41169962Y-28926651D01*
X41189368Y-28935830D01*
X41207781Y-28946866D01*
X41225024Y-28959654D01*
X41240930Y-28974070D01*
X41255346Y-28989976D01*
X41268134Y-29007219D01*
X41279170Y-29025632D01*
X41288349Y-29045038D01*
X41295581Y-29065250D01*
X41300797Y-29086074D01*
X41303947Y-29107309D01*
X41305000Y-29128750D01*
X41305000Y-29566250D01*
X41303947Y-29587691D01*
X41300797Y-29608926D01*
X41295581Y-29629750D01*
X41288349Y-29649962D01*
X41279170Y-29669368D01*
X41268134Y-29687781D01*
X41255346Y-29705024D01*
X41240930Y-29720930D01*
X41225024Y-29735346D01*
X41207781Y-29748134D01*
X41189368Y-29759170D01*
X41169962Y-29768349D01*
X41149750Y-29775581D01*
X41128926Y-29780797D01*
X41107691Y-29783947D01*
X41086250Y-29785000D01*
X40573750Y-29785000D01*
X40552309Y-29783947D01*
X40531074Y-29780797D01*
X40510250Y-29775581D01*
X40490038Y-29768349D01*
X40470632Y-29759170D01*
X40452219Y-29748134D01*
X40434976Y-29735346D01*
X40419070Y-29720930D01*
X40404654Y-29705024D01*
X40391866Y-29687781D01*
X40380830Y-29669368D01*
X40371651Y-29649962D01*
X40364419Y-29629750D01*
X40359203Y-29608926D01*
X40356053Y-29587691D01*
X40355000Y-29566250D01*
X40355000Y-29128750D01*
X40356053Y-29107309D01*
X40359203Y-29086074D01*
X40364419Y-29065250D01*
X40371651Y-29045038D01*
X40380830Y-29025632D01*
X40391866Y-29007219D01*
X40404654Y-28989976D01*
X40419070Y-28974070D01*
X40434976Y-28959654D01*
X40452219Y-28946866D01*
X40470632Y-28935830D01*
X40490038Y-28926651D01*
X40510250Y-28919419D01*
X40531074Y-28914203D01*
X40552309Y-28911053D01*
X40573750Y-28910000D01*
X41086250Y-28910000D01*
X41107691Y-28911053D01*
G37*
G36*
X41107691Y-30486053D02*
G01*
X41128926Y-30489203D01*
X41149750Y-30494419D01*
X41169962Y-30501651D01*
X41189368Y-30510830D01*
X41207781Y-30521866D01*
X41225024Y-30534654D01*
X41240930Y-30549070D01*
X41255346Y-30564976D01*
X41268134Y-30582219D01*
X41279170Y-30600632D01*
X41288349Y-30620038D01*
X41295581Y-30640250D01*
X41300797Y-30661074D01*
X41303947Y-30682309D01*
X41305000Y-30703750D01*
X41305000Y-31141250D01*
X41303947Y-31162691D01*
X41300797Y-31183926D01*
X41295581Y-31204750D01*
X41288349Y-31224962D01*
X41279170Y-31244368D01*
X41268134Y-31262781D01*
X41255346Y-31280024D01*
X41240930Y-31295930D01*
X41225024Y-31310346D01*
X41207781Y-31323134D01*
X41189368Y-31334170D01*
X41169962Y-31343349D01*
X41149750Y-31350581D01*
X41128926Y-31355797D01*
X41107691Y-31358947D01*
X41086250Y-31360000D01*
X40573750Y-31360000D01*
X40552309Y-31358947D01*
X40531074Y-31355797D01*
X40510250Y-31350581D01*
X40490038Y-31343349D01*
X40470632Y-31334170D01*
X40452219Y-31323134D01*
X40434976Y-31310346D01*
X40419070Y-31295930D01*
X40404654Y-31280024D01*
X40391866Y-31262781D01*
X40380830Y-31244368D01*
X40371651Y-31224962D01*
X40364419Y-31204750D01*
X40359203Y-31183926D01*
X40356053Y-31162691D01*
X40355000Y-31141250D01*
X40355000Y-30703750D01*
X40356053Y-30682309D01*
X40359203Y-30661074D01*
X40364419Y-30640250D01*
X40371651Y-30620038D01*
X40380830Y-30600632D01*
X40391866Y-30582219D01*
X40404654Y-30564976D01*
X40419070Y-30549070D01*
X40434976Y-30534654D01*
X40452219Y-30521866D01*
X40470632Y-30510830D01*
X40490038Y-30501651D01*
X40510250Y-30494419D01*
X40531074Y-30489203D01*
X40552309Y-30486053D01*
X40573750Y-30485000D01*
X41086250Y-30485000D01*
X41107691Y-30486053D01*
G37*
G36*
X17352691Y-13526053D02*
G01*
X17373926Y-13529203D01*
X17394750Y-13534419D01*
X17414962Y-13541651D01*
X17434368Y-13550830D01*
X17452781Y-13561866D01*
X17470024Y-13574654D01*
X17485930Y-13589070D01*
X17500346Y-13604976D01*
X17513134Y-13622219D01*
X17524170Y-13640632D01*
X17533349Y-13660038D01*
X17540581Y-13680250D01*
X17545797Y-13701074D01*
X17548947Y-13722309D01*
X17550000Y-13743750D01*
X17550000Y-14256250D01*
X17548947Y-14277691D01*
X17545797Y-14298926D01*
X17540581Y-14319750D01*
X17533349Y-14339962D01*
X17524170Y-14359368D01*
X17513134Y-14377781D01*
X17500346Y-14395024D01*
X17485930Y-14410930D01*
X17470024Y-14425346D01*
X17452781Y-14438134D01*
X17434368Y-14449170D01*
X17414962Y-14458349D01*
X17394750Y-14465581D01*
X17373926Y-14470797D01*
X17352691Y-14473947D01*
X17331250Y-14475000D01*
X16893750Y-14475000D01*
X16872309Y-14473947D01*
X16851074Y-14470797D01*
X16830250Y-14465581D01*
X16810038Y-14458349D01*
X16790632Y-14449170D01*
X16772219Y-14438134D01*
X16754976Y-14425346D01*
X16739070Y-14410930D01*
X16724654Y-14395024D01*
X16711866Y-14377781D01*
X16700830Y-14359368D01*
X16691651Y-14339962D01*
X16684419Y-14319750D01*
X16679203Y-14298926D01*
X16676053Y-14277691D01*
X16675000Y-14256250D01*
X16675000Y-13743750D01*
X16676053Y-13722309D01*
X16679203Y-13701074D01*
X16684419Y-13680250D01*
X16691651Y-13660038D01*
X16700830Y-13640632D01*
X16711866Y-13622219D01*
X16724654Y-13604976D01*
X16739070Y-13589070D01*
X16754976Y-13574654D01*
X16772219Y-13561866D01*
X16790632Y-13550830D01*
X16810038Y-13541651D01*
X16830250Y-13534419D01*
X16851074Y-13529203D01*
X16872309Y-13526053D01*
X16893750Y-13525000D01*
X17331250Y-13525000D01*
X17352691Y-13526053D01*
G37*
G36*
X18927691Y-13526053D02*
G01*
X18948926Y-13529203D01*
X18969750Y-13534419D01*
X18989962Y-13541651D01*
X19009368Y-13550830D01*
X19027781Y-13561866D01*
X19045024Y-13574654D01*
X19060930Y-13589070D01*
X19075346Y-13604976D01*
X19088134Y-13622219D01*
X19099170Y-13640632D01*
X19108349Y-13660038D01*
X19115581Y-13680250D01*
X19120797Y-13701074D01*
X19123947Y-13722309D01*
X19125000Y-13743750D01*
X19125000Y-14256250D01*
X19123947Y-14277691D01*
X19120797Y-14298926D01*
X19115581Y-14319750D01*
X19108349Y-14339962D01*
X19099170Y-14359368D01*
X19088134Y-14377781D01*
X19075346Y-14395024D01*
X19060930Y-14410930D01*
X19045024Y-14425346D01*
X19027781Y-14438134D01*
X19009368Y-14449170D01*
X18989962Y-14458349D01*
X18969750Y-14465581D01*
X18948926Y-14470797D01*
X18927691Y-14473947D01*
X18906250Y-14475000D01*
X18468750Y-14475000D01*
X18447309Y-14473947D01*
X18426074Y-14470797D01*
X18405250Y-14465581D01*
X18385038Y-14458349D01*
X18365632Y-14449170D01*
X18347219Y-14438134D01*
X18329976Y-14425346D01*
X18314070Y-14410930D01*
X18299654Y-14395024D01*
X18286866Y-14377781D01*
X18275830Y-14359368D01*
X18266651Y-14339962D01*
X18259419Y-14319750D01*
X18254203Y-14298926D01*
X18251053Y-14277691D01*
X18250000Y-14256250D01*
X18250000Y-13743750D01*
X18251053Y-13722309D01*
X18254203Y-13701074D01*
X18259419Y-13680250D01*
X18266651Y-13660038D01*
X18275830Y-13640632D01*
X18286866Y-13622219D01*
X18299654Y-13604976D01*
X18314070Y-13589070D01*
X18329976Y-13574654D01*
X18347219Y-13561866D01*
X18365632Y-13550830D01*
X18385038Y-13541651D01*
X18405250Y-13534419D01*
X18426074Y-13529203D01*
X18447309Y-13526053D01*
X18468750Y-13525000D01*
X18906250Y-13525000D01*
X18927691Y-13526053D01*
G37*
D17*
X14000000Y-2095000D03*
X14000000Y-3365000D03*
X14000000Y-4635000D03*
X14000000Y-5905000D03*
X14000000Y-7175000D03*
X14000000Y-8445000D03*
X14000000Y-9715000D03*
X14000000Y-10985000D03*
X14000000Y-12255000D03*
X14000000Y-13525000D03*
X14000000Y-14795000D03*
X14000000Y-16065000D03*
X14000000Y-17335000D03*
X14000000Y-18605000D03*
D18*
X11215000Y-19605000D03*
X9945000Y-19605000D03*
X8675000Y-19605000D03*
X7405000Y-19605000D03*
X6135000Y-19605000D03*
X4865000Y-19605000D03*
X3595000Y-19605000D03*
X2325000Y-19605000D03*
X1055000Y-19605000D03*
X-215000Y-19605000D03*
D17*
X-3000000Y-18605000D03*
X-3000000Y-17335000D03*
X-3000000Y-16065000D03*
X-3000000Y-14795000D03*
X-3000000Y-13525000D03*
X-3000000Y-12255000D03*
X-3000000Y-10985000D03*
X-3000000Y-9715000D03*
X-3000000Y-8445000D03*
X-3000000Y-7175000D03*
X-3000000Y-5905000D03*
X-3000000Y-4635000D03*
X-3000000Y-3365000D03*
X-3000000Y-2095000D03*
D19*
X4500000Y-9595000D03*
D10*
G36*
X25559691Y-4438553D02*
G01*
X25580926Y-4441703D01*
X25601750Y-4446919D01*
X25621962Y-4454151D01*
X25641368Y-4463330D01*
X25659781Y-4474366D01*
X25677024Y-4487154D01*
X25692930Y-4501570D01*
X25707346Y-4517476D01*
X25720134Y-4534719D01*
X25731170Y-4553132D01*
X25740349Y-4572538D01*
X25747581Y-4592750D01*
X25752797Y-4613574D01*
X25755947Y-4634809D01*
X25757000Y-4656250D01*
X25757000Y-5093750D01*
X25755947Y-5115191D01*
X25752797Y-5136426D01*
X25747581Y-5157250D01*
X25740349Y-5177462D01*
X25731170Y-5196868D01*
X25720134Y-5215281D01*
X25707346Y-5232524D01*
X25692930Y-5248430D01*
X25677024Y-5262846D01*
X25659781Y-5275634D01*
X25641368Y-5286670D01*
X25621962Y-5295849D01*
X25601750Y-5303081D01*
X25580926Y-5308297D01*
X25559691Y-5311447D01*
X25538250Y-5312500D01*
X25025750Y-5312500D01*
X25004309Y-5311447D01*
X24983074Y-5308297D01*
X24962250Y-5303081D01*
X24942038Y-5295849D01*
X24922632Y-5286670D01*
X24904219Y-5275634D01*
X24886976Y-5262846D01*
X24871070Y-5248430D01*
X24856654Y-5232524D01*
X24843866Y-5215281D01*
X24832830Y-5196868D01*
X24823651Y-5177462D01*
X24816419Y-5157250D01*
X24811203Y-5136426D01*
X24808053Y-5115191D01*
X24807000Y-5093750D01*
X24807000Y-4656250D01*
X24808053Y-4634809D01*
X24811203Y-4613574D01*
X24816419Y-4592750D01*
X24823651Y-4572538D01*
X24832830Y-4553132D01*
X24843866Y-4534719D01*
X24856654Y-4517476D01*
X24871070Y-4501570D01*
X24886976Y-4487154D01*
X24904219Y-4474366D01*
X24922632Y-4463330D01*
X24942038Y-4454151D01*
X24962250Y-4446919D01*
X24983074Y-4441703D01*
X25004309Y-4438553D01*
X25025750Y-4437500D01*
X25538250Y-4437500D01*
X25559691Y-4438553D01*
G37*
G36*
X25559691Y-6013553D02*
G01*
X25580926Y-6016703D01*
X25601750Y-6021919D01*
X25621962Y-6029151D01*
X25641368Y-6038330D01*
X25659781Y-6049366D01*
X25677024Y-6062154D01*
X25692930Y-6076570D01*
X25707346Y-6092476D01*
X25720134Y-6109719D01*
X25731170Y-6128132D01*
X25740349Y-6147538D01*
X25747581Y-6167750D01*
X25752797Y-6188574D01*
X25755947Y-6209809D01*
X25757000Y-6231250D01*
X25757000Y-6668750D01*
X25755947Y-6690191D01*
X25752797Y-6711426D01*
X25747581Y-6732250D01*
X25740349Y-6752462D01*
X25731170Y-6771868D01*
X25720134Y-6790281D01*
X25707346Y-6807524D01*
X25692930Y-6823430D01*
X25677024Y-6837846D01*
X25659781Y-6850634D01*
X25641368Y-6861670D01*
X25621962Y-6870849D01*
X25601750Y-6878081D01*
X25580926Y-6883297D01*
X25559691Y-6886447D01*
X25538250Y-6887500D01*
X25025750Y-6887500D01*
X25004309Y-6886447D01*
X24983074Y-6883297D01*
X24962250Y-6878081D01*
X24942038Y-6870849D01*
X24922632Y-6861670D01*
X24904219Y-6850634D01*
X24886976Y-6837846D01*
X24871070Y-6823430D01*
X24856654Y-6807524D01*
X24843866Y-6790281D01*
X24832830Y-6771868D01*
X24823651Y-6752462D01*
X24816419Y-6732250D01*
X24811203Y-6711426D01*
X24808053Y-6690191D01*
X24807000Y-6668750D01*
X24807000Y-6231250D01*
X24808053Y-6209809D01*
X24811203Y-6188574D01*
X24816419Y-6167750D01*
X24823651Y-6147538D01*
X24832830Y-6128132D01*
X24843866Y-6109719D01*
X24856654Y-6092476D01*
X24871070Y-6076570D01*
X24886976Y-6062154D01*
X24904219Y-6049366D01*
X24922632Y-6038330D01*
X24942038Y-6029151D01*
X24962250Y-6021919D01*
X24983074Y-6016703D01*
X25004309Y-6013553D01*
X25025750Y-6012500D01*
X25538250Y-6012500D01*
X25559691Y-6013553D01*
G37*
G36*
X32927691Y-14926053D02*
G01*
X32948926Y-14929203D01*
X32969750Y-14934419D01*
X32989962Y-14941651D01*
X33009368Y-14950830D01*
X33027781Y-14961866D01*
X33045024Y-14974654D01*
X33060930Y-14989070D01*
X33075346Y-15004976D01*
X33088134Y-15022219D01*
X33099170Y-15040632D01*
X33108349Y-15060038D01*
X33115581Y-15080250D01*
X33120797Y-15101074D01*
X33123947Y-15122309D01*
X33125000Y-15143750D01*
X33125000Y-15656250D01*
X33123947Y-15677691D01*
X33120797Y-15698926D01*
X33115581Y-15719750D01*
X33108349Y-15739962D01*
X33099170Y-15759368D01*
X33088134Y-15777781D01*
X33075346Y-15795024D01*
X33060930Y-15810930D01*
X33045024Y-15825346D01*
X33027781Y-15838134D01*
X33009368Y-15849170D01*
X32989962Y-15858349D01*
X32969750Y-15865581D01*
X32948926Y-15870797D01*
X32927691Y-15873947D01*
X32906250Y-15875000D01*
X32468750Y-15875000D01*
X32447309Y-15873947D01*
X32426074Y-15870797D01*
X32405250Y-15865581D01*
X32385038Y-15858349D01*
X32365632Y-15849170D01*
X32347219Y-15838134D01*
X32329976Y-15825346D01*
X32314070Y-15810930D01*
X32299654Y-15795024D01*
X32286866Y-15777781D01*
X32275830Y-15759368D01*
X32266651Y-15739962D01*
X32259419Y-15719750D01*
X32254203Y-15698926D01*
X32251053Y-15677691D01*
X32250000Y-15656250D01*
X32250000Y-15143750D01*
X32251053Y-15122309D01*
X32254203Y-15101074D01*
X32259419Y-15080250D01*
X32266651Y-15060038D01*
X32275830Y-15040632D01*
X32286866Y-15022219D01*
X32299654Y-15004976D01*
X32314070Y-14989070D01*
X32329976Y-14974654D01*
X32347219Y-14961866D01*
X32365632Y-14950830D01*
X32385038Y-14941651D01*
X32405250Y-14934419D01*
X32426074Y-14929203D01*
X32447309Y-14926053D01*
X32468750Y-14925000D01*
X32906250Y-14925000D01*
X32927691Y-14926053D01*
G37*
G36*
X31352691Y-14926053D02*
G01*
X31373926Y-14929203D01*
X31394750Y-14934419D01*
X31414962Y-14941651D01*
X31434368Y-14950830D01*
X31452781Y-14961866D01*
X31470024Y-14974654D01*
X31485930Y-14989070D01*
X31500346Y-15004976D01*
X31513134Y-15022219D01*
X31524170Y-15040632D01*
X31533349Y-15060038D01*
X31540581Y-15080250D01*
X31545797Y-15101074D01*
X31548947Y-15122309D01*
X31550000Y-15143750D01*
X31550000Y-15656250D01*
X31548947Y-15677691D01*
X31545797Y-15698926D01*
X31540581Y-15719750D01*
X31533349Y-15739962D01*
X31524170Y-15759368D01*
X31513134Y-15777781D01*
X31500346Y-15795024D01*
X31485930Y-15810930D01*
X31470024Y-15825346D01*
X31452781Y-15838134D01*
X31434368Y-15849170D01*
X31414962Y-15858349D01*
X31394750Y-15865581D01*
X31373926Y-15870797D01*
X31352691Y-15873947D01*
X31331250Y-15875000D01*
X30893750Y-15875000D01*
X30872309Y-15873947D01*
X30851074Y-15870797D01*
X30830250Y-15865581D01*
X30810038Y-15858349D01*
X30790632Y-15849170D01*
X30772219Y-15838134D01*
X30754976Y-15825346D01*
X30739070Y-15810930D01*
X30724654Y-15795024D01*
X30711866Y-15777781D01*
X30700830Y-15759368D01*
X30691651Y-15739962D01*
X30684419Y-15719750D01*
X30679203Y-15698926D01*
X30676053Y-15677691D01*
X30675000Y-15656250D01*
X30675000Y-15143750D01*
X30676053Y-15122309D01*
X30679203Y-15101074D01*
X30684419Y-15080250D01*
X30691651Y-15060038D01*
X30700830Y-15040632D01*
X30711866Y-15022219D01*
X30724654Y-15004976D01*
X30739070Y-14989070D01*
X30754976Y-14974654D01*
X30772219Y-14961866D01*
X30790632Y-14950830D01*
X30810038Y-14941651D01*
X30830250Y-14934419D01*
X30851074Y-14929203D01*
X30872309Y-14926053D01*
X30893750Y-14925000D01*
X31331250Y-14925000D01*
X31352691Y-14926053D01*
G37*
G36*
X32915191Y-8576053D02*
G01*
X32936426Y-8579203D01*
X32957250Y-8584419D01*
X32977462Y-8591651D01*
X32996868Y-8600830D01*
X33015281Y-8611866D01*
X33032524Y-8624654D01*
X33048430Y-8639070D01*
X33062846Y-8654976D01*
X33075634Y-8672219D01*
X33086670Y-8690632D01*
X33095849Y-8710038D01*
X33103081Y-8730250D01*
X33108297Y-8751074D01*
X33111447Y-8772309D01*
X33112500Y-8793750D01*
X33112500Y-9306250D01*
X33111447Y-9327691D01*
X33108297Y-9348926D01*
X33103081Y-9369750D01*
X33095849Y-9389962D01*
X33086670Y-9409368D01*
X33075634Y-9427781D01*
X33062846Y-9445024D01*
X33048430Y-9460930D01*
X33032524Y-9475346D01*
X33015281Y-9488134D01*
X32996868Y-9499170D01*
X32977462Y-9508349D01*
X32957250Y-9515581D01*
X32936426Y-9520797D01*
X32915191Y-9523947D01*
X32893750Y-9525000D01*
X32456250Y-9525000D01*
X32434809Y-9523947D01*
X32413574Y-9520797D01*
X32392750Y-9515581D01*
X32372538Y-9508349D01*
X32353132Y-9499170D01*
X32334719Y-9488134D01*
X32317476Y-9475346D01*
X32301570Y-9460930D01*
X32287154Y-9445024D01*
X32274366Y-9427781D01*
X32263330Y-9409368D01*
X32254151Y-9389962D01*
X32246919Y-9369750D01*
X32241703Y-9348926D01*
X32238553Y-9327691D01*
X32237500Y-9306250D01*
X32237500Y-8793750D01*
X32238553Y-8772309D01*
X32241703Y-8751074D01*
X32246919Y-8730250D01*
X32254151Y-8710038D01*
X32263330Y-8690632D01*
X32274366Y-8672219D01*
X32287154Y-8654976D01*
X32301570Y-8639070D01*
X32317476Y-8624654D01*
X32334719Y-8611866D01*
X32353132Y-8600830D01*
X32372538Y-8591651D01*
X32392750Y-8584419D01*
X32413574Y-8579203D01*
X32434809Y-8576053D01*
X32456250Y-8575000D01*
X32893750Y-8575000D01*
X32915191Y-8576053D01*
G37*
G36*
X31340191Y-8576053D02*
G01*
X31361426Y-8579203D01*
X31382250Y-8584419D01*
X31402462Y-8591651D01*
X31421868Y-8600830D01*
X31440281Y-8611866D01*
X31457524Y-8624654D01*
X31473430Y-8639070D01*
X31487846Y-8654976D01*
X31500634Y-8672219D01*
X31511670Y-8690632D01*
X31520849Y-8710038D01*
X31528081Y-8730250D01*
X31533297Y-8751074D01*
X31536447Y-8772309D01*
X31537500Y-8793750D01*
X31537500Y-9306250D01*
X31536447Y-9327691D01*
X31533297Y-9348926D01*
X31528081Y-9369750D01*
X31520849Y-9389962D01*
X31511670Y-9409368D01*
X31500634Y-9427781D01*
X31487846Y-9445024D01*
X31473430Y-9460930D01*
X31457524Y-9475346D01*
X31440281Y-9488134D01*
X31421868Y-9499170D01*
X31402462Y-9508349D01*
X31382250Y-9515581D01*
X31361426Y-9520797D01*
X31340191Y-9523947D01*
X31318750Y-9525000D01*
X30881250Y-9525000D01*
X30859809Y-9523947D01*
X30838574Y-9520797D01*
X30817750Y-9515581D01*
X30797538Y-9508349D01*
X30778132Y-9499170D01*
X30759719Y-9488134D01*
X30742476Y-9475346D01*
X30726570Y-9460930D01*
X30712154Y-9445024D01*
X30699366Y-9427781D01*
X30688330Y-9409368D01*
X30679151Y-9389962D01*
X30671919Y-9369750D01*
X30666703Y-9348926D01*
X30663553Y-9327691D01*
X30662500Y-9306250D01*
X30662500Y-8793750D01*
X30663553Y-8772309D01*
X30666703Y-8751074D01*
X30671919Y-8730250D01*
X30679151Y-8710038D01*
X30688330Y-8690632D01*
X30699366Y-8672219D01*
X30712154Y-8654976D01*
X30726570Y-8639070D01*
X30742476Y-8624654D01*
X30759719Y-8611866D01*
X30778132Y-8600830D01*
X30797538Y-8591651D01*
X30817750Y-8584419D01*
X30838574Y-8579203D01*
X30859809Y-8576053D01*
X30881250Y-8575000D01*
X31318750Y-8575000D01*
X31340191Y-8576053D01*
G37*
G36*
X18427691Y-4126053D02*
G01*
X18448926Y-4129203D01*
X18469750Y-4134419D01*
X18489962Y-4141651D01*
X18509368Y-4150830D01*
X18527781Y-4161866D01*
X18545024Y-4174654D01*
X18560930Y-4189070D01*
X18575346Y-4204976D01*
X18588134Y-4222219D01*
X18599170Y-4240632D01*
X18608349Y-4260038D01*
X18615581Y-4280250D01*
X18620797Y-4301074D01*
X18623947Y-4322309D01*
X18625000Y-4343750D01*
X18625000Y-4856250D01*
X18623947Y-4877691D01*
X18620797Y-4898926D01*
X18615581Y-4919750D01*
X18608349Y-4939962D01*
X18599170Y-4959368D01*
X18588134Y-4977781D01*
X18575346Y-4995024D01*
X18560930Y-5010930D01*
X18545024Y-5025346D01*
X18527781Y-5038134D01*
X18509368Y-5049170D01*
X18489962Y-5058349D01*
X18469750Y-5065581D01*
X18448926Y-5070797D01*
X18427691Y-5073947D01*
X18406250Y-5075000D01*
X17968750Y-5075000D01*
X17947309Y-5073947D01*
X17926074Y-5070797D01*
X17905250Y-5065581D01*
X17885038Y-5058349D01*
X17865632Y-5049170D01*
X17847219Y-5038134D01*
X17829976Y-5025346D01*
X17814070Y-5010930D01*
X17799654Y-4995024D01*
X17786866Y-4977781D01*
X17775830Y-4959368D01*
X17766651Y-4939962D01*
X17759419Y-4919750D01*
X17754203Y-4898926D01*
X17751053Y-4877691D01*
X17750000Y-4856250D01*
X17750000Y-4343750D01*
X17751053Y-4322309D01*
X17754203Y-4301074D01*
X17759419Y-4280250D01*
X17766651Y-4260038D01*
X17775830Y-4240632D01*
X17786866Y-4222219D01*
X17799654Y-4204976D01*
X17814070Y-4189070D01*
X17829976Y-4174654D01*
X17847219Y-4161866D01*
X17865632Y-4150830D01*
X17885038Y-4141651D01*
X17905250Y-4134419D01*
X17926074Y-4129203D01*
X17947309Y-4126053D01*
X17968750Y-4125000D01*
X18406250Y-4125000D01*
X18427691Y-4126053D01*
G37*
G36*
X16852691Y-4126053D02*
G01*
X16873926Y-4129203D01*
X16894750Y-4134419D01*
X16914962Y-4141651D01*
X16934368Y-4150830D01*
X16952781Y-4161866D01*
X16970024Y-4174654D01*
X16985930Y-4189070D01*
X17000346Y-4204976D01*
X17013134Y-4222219D01*
X17024170Y-4240632D01*
X17033349Y-4260038D01*
X17040581Y-4280250D01*
X17045797Y-4301074D01*
X17048947Y-4322309D01*
X17050000Y-4343750D01*
X17050000Y-4856250D01*
X17048947Y-4877691D01*
X17045797Y-4898926D01*
X17040581Y-4919750D01*
X17033349Y-4939962D01*
X17024170Y-4959368D01*
X17013134Y-4977781D01*
X17000346Y-4995024D01*
X16985930Y-5010930D01*
X16970024Y-5025346D01*
X16952781Y-5038134D01*
X16934368Y-5049170D01*
X16914962Y-5058349D01*
X16894750Y-5065581D01*
X16873926Y-5070797D01*
X16852691Y-5073947D01*
X16831250Y-5075000D01*
X16393750Y-5075000D01*
X16372309Y-5073947D01*
X16351074Y-5070797D01*
X16330250Y-5065581D01*
X16310038Y-5058349D01*
X16290632Y-5049170D01*
X16272219Y-5038134D01*
X16254976Y-5025346D01*
X16239070Y-5010930D01*
X16224654Y-4995024D01*
X16211866Y-4977781D01*
X16200830Y-4959368D01*
X16191651Y-4939962D01*
X16184419Y-4919750D01*
X16179203Y-4898926D01*
X16176053Y-4877691D01*
X16175000Y-4856250D01*
X16175000Y-4343750D01*
X16176053Y-4322309D01*
X16179203Y-4301074D01*
X16184419Y-4280250D01*
X16191651Y-4260038D01*
X16200830Y-4240632D01*
X16211866Y-4222219D01*
X16224654Y-4204976D01*
X16239070Y-4189070D01*
X16254976Y-4174654D01*
X16272219Y-4161866D01*
X16290632Y-4150830D01*
X16310038Y-4141651D01*
X16330250Y-4134419D01*
X16351074Y-4129203D01*
X16372309Y-4126053D01*
X16393750Y-4125000D01*
X16831250Y-4125000D01*
X16852691Y-4126053D01*
G37*
G36*
X18427691Y-7976053D02*
G01*
X18448926Y-7979203D01*
X18469750Y-7984419D01*
X18489962Y-7991651D01*
X18509368Y-8000830D01*
X18527781Y-8011866D01*
X18545024Y-8024654D01*
X18560930Y-8039070D01*
X18575346Y-8054976D01*
X18588134Y-8072219D01*
X18599170Y-8090632D01*
X18608349Y-8110038D01*
X18615581Y-8130250D01*
X18620797Y-8151074D01*
X18623947Y-8172309D01*
X18625000Y-8193750D01*
X18625000Y-8706250D01*
X18623947Y-8727691D01*
X18620797Y-8748926D01*
X18615581Y-8769750D01*
X18608349Y-8789962D01*
X18599170Y-8809368D01*
X18588134Y-8827781D01*
X18575346Y-8845024D01*
X18560930Y-8860930D01*
X18545024Y-8875346D01*
X18527781Y-8888134D01*
X18509368Y-8899170D01*
X18489962Y-8908349D01*
X18469750Y-8915581D01*
X18448926Y-8920797D01*
X18427691Y-8923947D01*
X18406250Y-8925000D01*
X17968750Y-8925000D01*
X17947309Y-8923947D01*
X17926074Y-8920797D01*
X17905250Y-8915581D01*
X17885038Y-8908349D01*
X17865632Y-8899170D01*
X17847219Y-8888134D01*
X17829976Y-8875346D01*
X17814070Y-8860930D01*
X17799654Y-8845024D01*
X17786866Y-8827781D01*
X17775830Y-8809368D01*
X17766651Y-8789962D01*
X17759419Y-8769750D01*
X17754203Y-8748926D01*
X17751053Y-8727691D01*
X17750000Y-8706250D01*
X17750000Y-8193750D01*
X17751053Y-8172309D01*
X17754203Y-8151074D01*
X17759419Y-8130250D01*
X17766651Y-8110038D01*
X17775830Y-8090632D01*
X17786866Y-8072219D01*
X17799654Y-8054976D01*
X17814070Y-8039070D01*
X17829976Y-8024654D01*
X17847219Y-8011866D01*
X17865632Y-8000830D01*
X17885038Y-7991651D01*
X17905250Y-7984419D01*
X17926074Y-7979203D01*
X17947309Y-7976053D01*
X17968750Y-7975000D01*
X18406250Y-7975000D01*
X18427691Y-7976053D01*
G37*
G36*
X16852691Y-7976053D02*
G01*
X16873926Y-7979203D01*
X16894750Y-7984419D01*
X16914962Y-7991651D01*
X16934368Y-8000830D01*
X16952781Y-8011866D01*
X16970024Y-8024654D01*
X16985930Y-8039070D01*
X17000346Y-8054976D01*
X17013134Y-8072219D01*
X17024170Y-8090632D01*
X17033349Y-8110038D01*
X17040581Y-8130250D01*
X17045797Y-8151074D01*
X17048947Y-8172309D01*
X17050000Y-8193750D01*
X17050000Y-8706250D01*
X17048947Y-8727691D01*
X17045797Y-8748926D01*
X17040581Y-8769750D01*
X17033349Y-8789962D01*
X17024170Y-8809368D01*
X17013134Y-8827781D01*
X17000346Y-8845024D01*
X16985930Y-8860930D01*
X16970024Y-8875346D01*
X16952781Y-8888134D01*
X16934368Y-8899170D01*
X16914962Y-8908349D01*
X16894750Y-8915581D01*
X16873926Y-8920797D01*
X16852691Y-8923947D01*
X16831250Y-8925000D01*
X16393750Y-8925000D01*
X16372309Y-8923947D01*
X16351074Y-8920797D01*
X16330250Y-8915581D01*
X16310038Y-8908349D01*
X16290632Y-8899170D01*
X16272219Y-8888134D01*
X16254976Y-8875346D01*
X16239070Y-8860930D01*
X16224654Y-8845024D01*
X16211866Y-8827781D01*
X16200830Y-8809368D01*
X16191651Y-8789962D01*
X16184419Y-8769750D01*
X16179203Y-8748926D01*
X16176053Y-8727691D01*
X16175000Y-8706250D01*
X16175000Y-8193750D01*
X16176053Y-8172309D01*
X16179203Y-8151074D01*
X16184419Y-8130250D01*
X16191651Y-8110038D01*
X16200830Y-8090632D01*
X16211866Y-8072219D01*
X16224654Y-8054976D01*
X16239070Y-8039070D01*
X16254976Y-8024654D01*
X16272219Y-8011866D01*
X16290632Y-8000830D01*
X16310038Y-7991651D01*
X16330250Y-7984419D01*
X16351074Y-7979203D01*
X16372309Y-7976053D01*
X16393750Y-7975000D01*
X16831250Y-7975000D01*
X16852691Y-7976053D01*
G37*
G36*
X18427691Y-10476053D02*
G01*
X18448926Y-10479203D01*
X18469750Y-10484419D01*
X18489962Y-10491651D01*
X18509368Y-10500830D01*
X18527781Y-10511866D01*
X18545024Y-10524654D01*
X18560930Y-10539070D01*
X18575346Y-10554976D01*
X18588134Y-10572219D01*
X18599170Y-10590632D01*
X18608349Y-10610038D01*
X18615581Y-10630250D01*
X18620797Y-10651074D01*
X18623947Y-10672309D01*
X18625000Y-10693750D01*
X18625000Y-11206250D01*
X18623947Y-11227691D01*
X18620797Y-11248926D01*
X18615581Y-11269750D01*
X18608349Y-11289962D01*
X18599170Y-11309368D01*
X18588134Y-11327781D01*
X18575346Y-11345024D01*
X18560930Y-11360930D01*
X18545024Y-11375346D01*
X18527781Y-11388134D01*
X18509368Y-11399170D01*
X18489962Y-11408349D01*
X18469750Y-11415581D01*
X18448926Y-11420797D01*
X18427691Y-11423947D01*
X18406250Y-11425000D01*
X17968750Y-11425000D01*
X17947309Y-11423947D01*
X17926074Y-11420797D01*
X17905250Y-11415581D01*
X17885038Y-11408349D01*
X17865632Y-11399170D01*
X17847219Y-11388134D01*
X17829976Y-11375346D01*
X17814070Y-11360930D01*
X17799654Y-11345024D01*
X17786866Y-11327781D01*
X17775830Y-11309368D01*
X17766651Y-11289962D01*
X17759419Y-11269750D01*
X17754203Y-11248926D01*
X17751053Y-11227691D01*
X17750000Y-11206250D01*
X17750000Y-10693750D01*
X17751053Y-10672309D01*
X17754203Y-10651074D01*
X17759419Y-10630250D01*
X17766651Y-10610038D01*
X17775830Y-10590632D01*
X17786866Y-10572219D01*
X17799654Y-10554976D01*
X17814070Y-10539070D01*
X17829976Y-10524654D01*
X17847219Y-10511866D01*
X17865632Y-10500830D01*
X17885038Y-10491651D01*
X17905250Y-10484419D01*
X17926074Y-10479203D01*
X17947309Y-10476053D01*
X17968750Y-10475000D01*
X18406250Y-10475000D01*
X18427691Y-10476053D01*
G37*
G36*
X16852691Y-10476053D02*
G01*
X16873926Y-10479203D01*
X16894750Y-10484419D01*
X16914962Y-10491651D01*
X16934368Y-10500830D01*
X16952781Y-10511866D01*
X16970024Y-10524654D01*
X16985930Y-10539070D01*
X17000346Y-10554976D01*
X17013134Y-10572219D01*
X17024170Y-10590632D01*
X17033349Y-10610038D01*
X17040581Y-10630250D01*
X17045797Y-10651074D01*
X17048947Y-10672309D01*
X17050000Y-10693750D01*
X17050000Y-11206250D01*
X17048947Y-11227691D01*
X17045797Y-11248926D01*
X17040581Y-11269750D01*
X17033349Y-11289962D01*
X17024170Y-11309368D01*
X17013134Y-11327781D01*
X17000346Y-11345024D01*
X16985930Y-11360930D01*
X16970024Y-11375346D01*
X16952781Y-11388134D01*
X16934368Y-11399170D01*
X16914962Y-11408349D01*
X16894750Y-11415581D01*
X16873926Y-11420797D01*
X16852691Y-11423947D01*
X16831250Y-11425000D01*
X16393750Y-11425000D01*
X16372309Y-11423947D01*
X16351074Y-11420797D01*
X16330250Y-11415581D01*
X16310038Y-11408349D01*
X16290632Y-11399170D01*
X16272219Y-11388134D01*
X16254976Y-11375346D01*
X16239070Y-11360930D01*
X16224654Y-11345024D01*
X16211866Y-11327781D01*
X16200830Y-11309368D01*
X16191651Y-11289962D01*
X16184419Y-11269750D01*
X16179203Y-11248926D01*
X16176053Y-11227691D01*
X16175000Y-11206250D01*
X16175000Y-10693750D01*
X16176053Y-10672309D01*
X16179203Y-10651074D01*
X16184419Y-10630250D01*
X16191651Y-10610038D01*
X16200830Y-10590632D01*
X16211866Y-10572219D01*
X16224654Y-10554976D01*
X16239070Y-10539070D01*
X16254976Y-10524654D01*
X16272219Y-10511866D01*
X16290632Y-10500830D01*
X16310038Y-10491651D01*
X16330250Y-10484419D01*
X16351074Y-10479203D01*
X16372309Y-10476053D01*
X16393750Y-10475000D01*
X16831250Y-10475000D01*
X16852691Y-10476053D01*
G37*
G36*
X-5109809Y-6076053D02*
G01*
X-5088574Y-6079203D01*
X-5067750Y-6084419D01*
X-5047538Y-6091651D01*
X-5028132Y-6100830D01*
X-5009719Y-6111866D01*
X-4992476Y-6124654D01*
X-4976570Y-6139070D01*
X-4962154Y-6154976D01*
X-4949366Y-6172219D01*
X-4938330Y-6190632D01*
X-4929151Y-6210038D01*
X-4921919Y-6230250D01*
X-4916703Y-6251074D01*
X-4913553Y-6272309D01*
X-4912500Y-6293750D01*
X-4912500Y-6806250D01*
X-4913553Y-6827691D01*
X-4916703Y-6848926D01*
X-4921919Y-6869750D01*
X-4929151Y-6889962D01*
X-4938330Y-6909368D01*
X-4949366Y-6927781D01*
X-4962154Y-6945024D01*
X-4976570Y-6960930D01*
X-4992476Y-6975346D01*
X-5009719Y-6988134D01*
X-5028132Y-6999170D01*
X-5047538Y-7008349D01*
X-5067750Y-7015581D01*
X-5088574Y-7020797D01*
X-5109809Y-7023947D01*
X-5131250Y-7025000D01*
X-5568750Y-7025000D01*
X-5590191Y-7023947D01*
X-5611426Y-7020797D01*
X-5632250Y-7015581D01*
X-5652462Y-7008349D01*
X-5671868Y-6999170D01*
X-5690281Y-6988134D01*
X-5707524Y-6975346D01*
X-5723430Y-6960930D01*
X-5737846Y-6945024D01*
X-5750634Y-6927781D01*
X-5761670Y-6909368D01*
X-5770849Y-6889962D01*
X-5778081Y-6869750D01*
X-5783297Y-6848926D01*
X-5786447Y-6827691D01*
X-5787500Y-6806250D01*
X-5787500Y-6293750D01*
X-5786447Y-6272309D01*
X-5783297Y-6251074D01*
X-5778081Y-6230250D01*
X-5770849Y-6210038D01*
X-5761670Y-6190632D01*
X-5750634Y-6172219D01*
X-5737846Y-6154976D01*
X-5723430Y-6139070D01*
X-5707524Y-6124654D01*
X-5690281Y-6111866D01*
X-5671868Y-6100830D01*
X-5652462Y-6091651D01*
X-5632250Y-6084419D01*
X-5611426Y-6079203D01*
X-5590191Y-6076053D01*
X-5568750Y-6075000D01*
X-5131250Y-6075000D01*
X-5109809Y-6076053D01*
G37*
G36*
X-6684809Y-6076053D02*
G01*
X-6663574Y-6079203D01*
X-6642750Y-6084419D01*
X-6622538Y-6091651D01*
X-6603132Y-6100830D01*
X-6584719Y-6111866D01*
X-6567476Y-6124654D01*
X-6551570Y-6139070D01*
X-6537154Y-6154976D01*
X-6524366Y-6172219D01*
X-6513330Y-6190632D01*
X-6504151Y-6210038D01*
X-6496919Y-6230250D01*
X-6491703Y-6251074D01*
X-6488553Y-6272309D01*
X-6487500Y-6293750D01*
X-6487500Y-6806250D01*
X-6488553Y-6827691D01*
X-6491703Y-6848926D01*
X-6496919Y-6869750D01*
X-6504151Y-6889962D01*
X-6513330Y-6909368D01*
X-6524366Y-6927781D01*
X-6537154Y-6945024D01*
X-6551570Y-6960930D01*
X-6567476Y-6975346D01*
X-6584719Y-6988134D01*
X-6603132Y-6999170D01*
X-6622538Y-7008349D01*
X-6642750Y-7015581D01*
X-6663574Y-7020797D01*
X-6684809Y-7023947D01*
X-6706250Y-7025000D01*
X-7143750Y-7025000D01*
X-7165191Y-7023947D01*
X-7186426Y-7020797D01*
X-7207250Y-7015581D01*
X-7227462Y-7008349D01*
X-7246868Y-6999170D01*
X-7265281Y-6988134D01*
X-7282524Y-6975346D01*
X-7298430Y-6960930D01*
X-7312846Y-6945024D01*
X-7325634Y-6927781D01*
X-7336670Y-6909368D01*
X-7345849Y-6889962D01*
X-7353081Y-6869750D01*
X-7358297Y-6848926D01*
X-7361447Y-6827691D01*
X-7362500Y-6806250D01*
X-7362500Y-6293750D01*
X-7361447Y-6272309D01*
X-7358297Y-6251074D01*
X-7353081Y-6230250D01*
X-7345849Y-6210038D01*
X-7336670Y-6190632D01*
X-7325634Y-6172219D01*
X-7312846Y-6154976D01*
X-7298430Y-6139070D01*
X-7282524Y-6124654D01*
X-7265281Y-6111866D01*
X-7246868Y-6100830D01*
X-7227462Y-6091651D01*
X-7207250Y-6084419D01*
X-7186426Y-6079203D01*
X-7165191Y-6076053D01*
X-7143750Y-6075000D01*
X-6706250Y-6075000D01*
X-6684809Y-6076053D01*
G37*
G36*
X39027691Y-24686053D02*
G01*
X39048926Y-24689203D01*
X39069750Y-24694419D01*
X39089962Y-24701651D01*
X39109368Y-24710830D01*
X39127781Y-24721866D01*
X39145024Y-24734654D01*
X39160930Y-24749070D01*
X39175346Y-24764976D01*
X39188134Y-24782219D01*
X39199170Y-24800632D01*
X39208349Y-24820038D01*
X39215581Y-24840250D01*
X39220797Y-24861074D01*
X39223947Y-24882309D01*
X39225000Y-24903750D01*
X39225000Y-25416250D01*
X39223947Y-25437691D01*
X39220797Y-25458926D01*
X39215581Y-25479750D01*
X39208349Y-25499962D01*
X39199170Y-25519368D01*
X39188134Y-25537781D01*
X39175346Y-25555024D01*
X39160930Y-25570930D01*
X39145024Y-25585346D01*
X39127781Y-25598134D01*
X39109368Y-25609170D01*
X39089962Y-25618349D01*
X39069750Y-25625581D01*
X39048926Y-25630797D01*
X39027691Y-25633947D01*
X39006250Y-25635000D01*
X38568750Y-25635000D01*
X38547309Y-25633947D01*
X38526074Y-25630797D01*
X38505250Y-25625581D01*
X38485038Y-25618349D01*
X38465632Y-25609170D01*
X38447219Y-25598134D01*
X38429976Y-25585346D01*
X38414070Y-25570930D01*
X38399654Y-25555024D01*
X38386866Y-25537781D01*
X38375830Y-25519368D01*
X38366651Y-25499962D01*
X38359419Y-25479750D01*
X38354203Y-25458926D01*
X38351053Y-25437691D01*
X38350000Y-25416250D01*
X38350000Y-24903750D01*
X38351053Y-24882309D01*
X38354203Y-24861074D01*
X38359419Y-24840250D01*
X38366651Y-24820038D01*
X38375830Y-24800632D01*
X38386866Y-24782219D01*
X38399654Y-24764976D01*
X38414070Y-24749070D01*
X38429976Y-24734654D01*
X38447219Y-24721866D01*
X38465632Y-24710830D01*
X38485038Y-24701651D01*
X38505250Y-24694419D01*
X38526074Y-24689203D01*
X38547309Y-24686053D01*
X38568750Y-24685000D01*
X39006250Y-24685000D01*
X39027691Y-24686053D01*
G37*
G36*
X37452691Y-24686053D02*
G01*
X37473926Y-24689203D01*
X37494750Y-24694419D01*
X37514962Y-24701651D01*
X37534368Y-24710830D01*
X37552781Y-24721866D01*
X37570024Y-24734654D01*
X37585930Y-24749070D01*
X37600346Y-24764976D01*
X37613134Y-24782219D01*
X37624170Y-24800632D01*
X37633349Y-24820038D01*
X37640581Y-24840250D01*
X37645797Y-24861074D01*
X37648947Y-24882309D01*
X37650000Y-24903750D01*
X37650000Y-25416250D01*
X37648947Y-25437691D01*
X37645797Y-25458926D01*
X37640581Y-25479750D01*
X37633349Y-25499962D01*
X37624170Y-25519368D01*
X37613134Y-25537781D01*
X37600346Y-25555024D01*
X37585930Y-25570930D01*
X37570024Y-25585346D01*
X37552781Y-25598134D01*
X37534368Y-25609170D01*
X37514962Y-25618349D01*
X37494750Y-25625581D01*
X37473926Y-25630797D01*
X37452691Y-25633947D01*
X37431250Y-25635000D01*
X36993750Y-25635000D01*
X36972309Y-25633947D01*
X36951074Y-25630797D01*
X36930250Y-25625581D01*
X36910038Y-25618349D01*
X36890632Y-25609170D01*
X36872219Y-25598134D01*
X36854976Y-25585346D01*
X36839070Y-25570930D01*
X36824654Y-25555024D01*
X36811866Y-25537781D01*
X36800830Y-25519368D01*
X36791651Y-25499962D01*
X36784419Y-25479750D01*
X36779203Y-25458926D01*
X36776053Y-25437691D01*
X36775000Y-25416250D01*
X36775000Y-24903750D01*
X36776053Y-24882309D01*
X36779203Y-24861074D01*
X36784419Y-24840250D01*
X36791651Y-24820038D01*
X36800830Y-24800632D01*
X36811866Y-24782219D01*
X36824654Y-24764976D01*
X36839070Y-24749070D01*
X36854976Y-24734654D01*
X36872219Y-24721866D01*
X36890632Y-24710830D01*
X36910038Y-24701651D01*
X36930250Y-24694419D01*
X36951074Y-24689203D01*
X36972309Y-24686053D01*
X36993750Y-24685000D01*
X37431250Y-24685000D01*
X37452691Y-24686053D01*
G37*
G36*
X37492691Y-19996053D02*
G01*
X37513926Y-19999203D01*
X37534750Y-20004419D01*
X37554962Y-20011651D01*
X37574368Y-20020830D01*
X37592781Y-20031866D01*
X37610024Y-20044654D01*
X37625930Y-20059070D01*
X37640346Y-20074976D01*
X37653134Y-20092219D01*
X37664170Y-20110632D01*
X37673349Y-20130038D01*
X37680581Y-20150250D01*
X37685797Y-20171074D01*
X37688947Y-20192309D01*
X37690000Y-20213750D01*
X37690000Y-20726250D01*
X37688947Y-20747691D01*
X37685797Y-20768926D01*
X37680581Y-20789750D01*
X37673349Y-20809962D01*
X37664170Y-20829368D01*
X37653134Y-20847781D01*
X37640346Y-20865024D01*
X37625930Y-20880930D01*
X37610024Y-20895346D01*
X37592781Y-20908134D01*
X37574368Y-20919170D01*
X37554962Y-20928349D01*
X37534750Y-20935581D01*
X37513926Y-20940797D01*
X37492691Y-20943947D01*
X37471250Y-20945000D01*
X37033750Y-20945000D01*
X37012309Y-20943947D01*
X36991074Y-20940797D01*
X36970250Y-20935581D01*
X36950038Y-20928349D01*
X36930632Y-20919170D01*
X36912219Y-20908134D01*
X36894976Y-20895346D01*
X36879070Y-20880930D01*
X36864654Y-20865024D01*
X36851866Y-20847781D01*
X36840830Y-20829368D01*
X36831651Y-20809962D01*
X36824419Y-20789750D01*
X36819203Y-20768926D01*
X36816053Y-20747691D01*
X36815000Y-20726250D01*
X36815000Y-20213750D01*
X36816053Y-20192309D01*
X36819203Y-20171074D01*
X36824419Y-20150250D01*
X36831651Y-20130038D01*
X36840830Y-20110632D01*
X36851866Y-20092219D01*
X36864654Y-20074976D01*
X36879070Y-20059070D01*
X36894976Y-20044654D01*
X36912219Y-20031866D01*
X36930632Y-20020830D01*
X36950038Y-20011651D01*
X36970250Y-20004419D01*
X36991074Y-19999203D01*
X37012309Y-19996053D01*
X37033750Y-19995000D01*
X37471250Y-19995000D01*
X37492691Y-19996053D01*
G37*
G36*
X39067691Y-19996053D02*
G01*
X39088926Y-19999203D01*
X39109750Y-20004419D01*
X39129962Y-20011651D01*
X39149368Y-20020830D01*
X39167781Y-20031866D01*
X39185024Y-20044654D01*
X39200930Y-20059070D01*
X39215346Y-20074976D01*
X39228134Y-20092219D01*
X39239170Y-20110632D01*
X39248349Y-20130038D01*
X39255581Y-20150250D01*
X39260797Y-20171074D01*
X39263947Y-20192309D01*
X39265000Y-20213750D01*
X39265000Y-20726250D01*
X39263947Y-20747691D01*
X39260797Y-20768926D01*
X39255581Y-20789750D01*
X39248349Y-20809962D01*
X39239170Y-20829368D01*
X39228134Y-20847781D01*
X39215346Y-20865024D01*
X39200930Y-20880930D01*
X39185024Y-20895346D01*
X39167781Y-20908134D01*
X39149368Y-20919170D01*
X39129962Y-20928349D01*
X39109750Y-20935581D01*
X39088926Y-20940797D01*
X39067691Y-20943947D01*
X39046250Y-20945000D01*
X38608750Y-20945000D01*
X38587309Y-20943947D01*
X38566074Y-20940797D01*
X38545250Y-20935581D01*
X38525038Y-20928349D01*
X38505632Y-20919170D01*
X38487219Y-20908134D01*
X38469976Y-20895346D01*
X38454070Y-20880930D01*
X38439654Y-20865024D01*
X38426866Y-20847781D01*
X38415830Y-20829368D01*
X38406651Y-20809962D01*
X38399419Y-20789750D01*
X38394203Y-20768926D01*
X38391053Y-20747691D01*
X38390000Y-20726250D01*
X38390000Y-20213750D01*
X38391053Y-20192309D01*
X38394203Y-20171074D01*
X38399419Y-20150250D01*
X38406651Y-20130038D01*
X38415830Y-20110632D01*
X38426866Y-20092219D01*
X38439654Y-20074976D01*
X38454070Y-20059070D01*
X38469976Y-20044654D01*
X38487219Y-20031866D01*
X38505632Y-20020830D01*
X38525038Y-20011651D01*
X38545250Y-20004419D01*
X38566074Y-19999203D01*
X38587309Y-19996053D01*
X38608750Y-19995000D01*
X39046250Y-19995000D01*
X39067691Y-19996053D01*
G37*
G36*
X28227691Y-17576053D02*
G01*
X28248926Y-17579203D01*
X28269750Y-17584419D01*
X28289962Y-17591651D01*
X28309368Y-17600830D01*
X28327781Y-17611866D01*
X28345024Y-17624654D01*
X28360930Y-17639070D01*
X28375346Y-17654976D01*
X28388134Y-17672219D01*
X28399170Y-17690632D01*
X28408349Y-17710038D01*
X28415581Y-17730250D01*
X28420797Y-17751074D01*
X28423947Y-17772309D01*
X28425000Y-17793750D01*
X28425000Y-18231250D01*
X28423947Y-18252691D01*
X28420797Y-18273926D01*
X28415581Y-18294750D01*
X28408349Y-18314962D01*
X28399170Y-18334368D01*
X28388134Y-18352781D01*
X28375346Y-18370024D01*
X28360930Y-18385930D01*
X28345024Y-18400346D01*
X28327781Y-18413134D01*
X28309368Y-18424170D01*
X28289962Y-18433349D01*
X28269750Y-18440581D01*
X28248926Y-18445797D01*
X28227691Y-18448947D01*
X28206250Y-18450000D01*
X27693750Y-18450000D01*
X27672309Y-18448947D01*
X27651074Y-18445797D01*
X27630250Y-18440581D01*
X27610038Y-18433349D01*
X27590632Y-18424170D01*
X27572219Y-18413134D01*
X27554976Y-18400346D01*
X27539070Y-18385930D01*
X27524654Y-18370024D01*
X27511866Y-18352781D01*
X27500830Y-18334368D01*
X27491651Y-18314962D01*
X27484419Y-18294750D01*
X27479203Y-18273926D01*
X27476053Y-18252691D01*
X27475000Y-18231250D01*
X27475000Y-17793750D01*
X27476053Y-17772309D01*
X27479203Y-17751074D01*
X27484419Y-17730250D01*
X27491651Y-17710038D01*
X27500830Y-17690632D01*
X27511866Y-17672219D01*
X27524654Y-17654976D01*
X27539070Y-17639070D01*
X27554976Y-17624654D01*
X27572219Y-17611866D01*
X27590632Y-17600830D01*
X27610038Y-17591651D01*
X27630250Y-17584419D01*
X27651074Y-17579203D01*
X27672309Y-17576053D01*
X27693750Y-17575000D01*
X28206250Y-17575000D01*
X28227691Y-17576053D01*
G37*
G36*
X28227691Y-19151053D02*
G01*
X28248926Y-19154203D01*
X28269750Y-19159419D01*
X28289962Y-19166651D01*
X28309368Y-19175830D01*
X28327781Y-19186866D01*
X28345024Y-19199654D01*
X28360930Y-19214070D01*
X28375346Y-19229976D01*
X28388134Y-19247219D01*
X28399170Y-19265632D01*
X28408349Y-19285038D01*
X28415581Y-19305250D01*
X28420797Y-19326074D01*
X28423947Y-19347309D01*
X28425000Y-19368750D01*
X28425000Y-19806250D01*
X28423947Y-19827691D01*
X28420797Y-19848926D01*
X28415581Y-19869750D01*
X28408349Y-19889962D01*
X28399170Y-19909368D01*
X28388134Y-19927781D01*
X28375346Y-19945024D01*
X28360930Y-19960930D01*
X28345024Y-19975346D01*
X28327781Y-19988134D01*
X28309368Y-19999170D01*
X28289962Y-20008349D01*
X28269750Y-20015581D01*
X28248926Y-20020797D01*
X28227691Y-20023947D01*
X28206250Y-20025000D01*
X27693750Y-20025000D01*
X27672309Y-20023947D01*
X27651074Y-20020797D01*
X27630250Y-20015581D01*
X27610038Y-20008349D01*
X27590632Y-19999170D01*
X27572219Y-19988134D01*
X27554976Y-19975346D01*
X27539070Y-19960930D01*
X27524654Y-19945024D01*
X27511866Y-19927781D01*
X27500830Y-19909368D01*
X27491651Y-19889962D01*
X27484419Y-19869750D01*
X27479203Y-19848926D01*
X27476053Y-19827691D01*
X27475000Y-19806250D01*
X27475000Y-19368750D01*
X27476053Y-19347309D01*
X27479203Y-19326074D01*
X27484419Y-19305250D01*
X27491651Y-19285038D01*
X27500830Y-19265632D01*
X27511866Y-19247219D01*
X27524654Y-19229976D01*
X27539070Y-19214070D01*
X27554976Y-19199654D01*
X27572219Y-19186866D01*
X27590632Y-19175830D01*
X27610038Y-19166651D01*
X27630250Y-19159419D01*
X27651074Y-19154203D01*
X27672309Y-19151053D01*
X27693750Y-19150000D01*
X28206250Y-19150000D01*
X28227691Y-19151053D01*
G37*
G36*
X30527691Y-17576053D02*
G01*
X30548926Y-17579203D01*
X30569750Y-17584419D01*
X30589962Y-17591651D01*
X30609368Y-17600830D01*
X30627781Y-17611866D01*
X30645024Y-17624654D01*
X30660930Y-17639070D01*
X30675346Y-17654976D01*
X30688134Y-17672219D01*
X30699170Y-17690632D01*
X30708349Y-17710038D01*
X30715581Y-17730250D01*
X30720797Y-17751074D01*
X30723947Y-17772309D01*
X30725000Y-17793750D01*
X30725000Y-18231250D01*
X30723947Y-18252691D01*
X30720797Y-18273926D01*
X30715581Y-18294750D01*
X30708349Y-18314962D01*
X30699170Y-18334368D01*
X30688134Y-18352781D01*
X30675346Y-18370024D01*
X30660930Y-18385930D01*
X30645024Y-18400346D01*
X30627781Y-18413134D01*
X30609368Y-18424170D01*
X30589962Y-18433349D01*
X30569750Y-18440581D01*
X30548926Y-18445797D01*
X30527691Y-18448947D01*
X30506250Y-18450000D01*
X29993750Y-18450000D01*
X29972309Y-18448947D01*
X29951074Y-18445797D01*
X29930250Y-18440581D01*
X29910038Y-18433349D01*
X29890632Y-18424170D01*
X29872219Y-18413134D01*
X29854976Y-18400346D01*
X29839070Y-18385930D01*
X29824654Y-18370024D01*
X29811866Y-18352781D01*
X29800830Y-18334368D01*
X29791651Y-18314962D01*
X29784419Y-18294750D01*
X29779203Y-18273926D01*
X29776053Y-18252691D01*
X29775000Y-18231250D01*
X29775000Y-17793750D01*
X29776053Y-17772309D01*
X29779203Y-17751074D01*
X29784419Y-17730250D01*
X29791651Y-17710038D01*
X29800830Y-17690632D01*
X29811866Y-17672219D01*
X29824654Y-17654976D01*
X29839070Y-17639070D01*
X29854976Y-17624654D01*
X29872219Y-17611866D01*
X29890632Y-17600830D01*
X29910038Y-17591651D01*
X29930250Y-17584419D01*
X29951074Y-17579203D01*
X29972309Y-17576053D01*
X29993750Y-17575000D01*
X30506250Y-17575000D01*
X30527691Y-17576053D01*
G37*
G36*
X30527691Y-19151053D02*
G01*
X30548926Y-19154203D01*
X30569750Y-19159419D01*
X30589962Y-19166651D01*
X30609368Y-19175830D01*
X30627781Y-19186866D01*
X30645024Y-19199654D01*
X30660930Y-19214070D01*
X30675346Y-19229976D01*
X30688134Y-19247219D01*
X30699170Y-19265632D01*
X30708349Y-19285038D01*
X30715581Y-19305250D01*
X30720797Y-19326074D01*
X30723947Y-19347309D01*
X30725000Y-19368750D01*
X30725000Y-19806250D01*
X30723947Y-19827691D01*
X30720797Y-19848926D01*
X30715581Y-19869750D01*
X30708349Y-19889962D01*
X30699170Y-19909368D01*
X30688134Y-19927781D01*
X30675346Y-19945024D01*
X30660930Y-19960930D01*
X30645024Y-19975346D01*
X30627781Y-19988134D01*
X30609368Y-19999170D01*
X30589962Y-20008349D01*
X30569750Y-20015581D01*
X30548926Y-20020797D01*
X30527691Y-20023947D01*
X30506250Y-20025000D01*
X29993750Y-20025000D01*
X29972309Y-20023947D01*
X29951074Y-20020797D01*
X29930250Y-20015581D01*
X29910038Y-20008349D01*
X29890632Y-19999170D01*
X29872219Y-19988134D01*
X29854976Y-19975346D01*
X29839070Y-19960930D01*
X29824654Y-19945024D01*
X29811866Y-19927781D01*
X29800830Y-19909368D01*
X29791651Y-19889962D01*
X29784419Y-19869750D01*
X29779203Y-19848926D01*
X29776053Y-19827691D01*
X29775000Y-19806250D01*
X29775000Y-19368750D01*
X29776053Y-19347309D01*
X29779203Y-19326074D01*
X29784419Y-19305250D01*
X29791651Y-19285038D01*
X29800830Y-19265632D01*
X29811866Y-19247219D01*
X29824654Y-19229976D01*
X29839070Y-19214070D01*
X29854976Y-19199654D01*
X29872219Y-19186866D01*
X29890632Y-19175830D01*
X29910038Y-19166651D01*
X29930250Y-19159419D01*
X29951074Y-19154203D01*
X29972309Y-19151053D01*
X29993750Y-19150000D01*
X30506250Y-19150000D01*
X30527691Y-19151053D01*
G37*
G36*
X23077691Y-17576053D02*
G01*
X23098926Y-17579203D01*
X23119750Y-17584419D01*
X23139962Y-17591651D01*
X23159368Y-17600830D01*
X23177781Y-17611866D01*
X23195024Y-17624654D01*
X23210930Y-17639070D01*
X23225346Y-17654976D01*
X23238134Y-17672219D01*
X23249170Y-17690632D01*
X23258349Y-17710038D01*
X23265581Y-17730250D01*
X23270797Y-17751074D01*
X23273947Y-17772309D01*
X23275000Y-17793750D01*
X23275000Y-18231250D01*
X23273947Y-18252691D01*
X23270797Y-18273926D01*
X23265581Y-18294750D01*
X23258349Y-18314962D01*
X23249170Y-18334368D01*
X23238134Y-18352781D01*
X23225346Y-18370024D01*
X23210930Y-18385930D01*
X23195024Y-18400346D01*
X23177781Y-18413134D01*
X23159368Y-18424170D01*
X23139962Y-18433349D01*
X23119750Y-18440581D01*
X23098926Y-18445797D01*
X23077691Y-18448947D01*
X23056250Y-18450000D01*
X22543750Y-18450000D01*
X22522309Y-18448947D01*
X22501074Y-18445797D01*
X22480250Y-18440581D01*
X22460038Y-18433349D01*
X22440632Y-18424170D01*
X22422219Y-18413134D01*
X22404976Y-18400346D01*
X22389070Y-18385930D01*
X22374654Y-18370024D01*
X22361866Y-18352781D01*
X22350830Y-18334368D01*
X22341651Y-18314962D01*
X22334419Y-18294750D01*
X22329203Y-18273926D01*
X22326053Y-18252691D01*
X22325000Y-18231250D01*
X22325000Y-17793750D01*
X22326053Y-17772309D01*
X22329203Y-17751074D01*
X22334419Y-17730250D01*
X22341651Y-17710038D01*
X22350830Y-17690632D01*
X22361866Y-17672219D01*
X22374654Y-17654976D01*
X22389070Y-17639070D01*
X22404976Y-17624654D01*
X22422219Y-17611866D01*
X22440632Y-17600830D01*
X22460038Y-17591651D01*
X22480250Y-17584419D01*
X22501074Y-17579203D01*
X22522309Y-17576053D01*
X22543750Y-17575000D01*
X23056250Y-17575000D01*
X23077691Y-17576053D01*
G37*
G36*
X23077691Y-19151053D02*
G01*
X23098926Y-19154203D01*
X23119750Y-19159419D01*
X23139962Y-19166651D01*
X23159368Y-19175830D01*
X23177781Y-19186866D01*
X23195024Y-19199654D01*
X23210930Y-19214070D01*
X23225346Y-19229976D01*
X23238134Y-19247219D01*
X23249170Y-19265632D01*
X23258349Y-19285038D01*
X23265581Y-19305250D01*
X23270797Y-19326074D01*
X23273947Y-19347309D01*
X23275000Y-19368750D01*
X23275000Y-19806250D01*
X23273947Y-19827691D01*
X23270797Y-19848926D01*
X23265581Y-19869750D01*
X23258349Y-19889962D01*
X23249170Y-19909368D01*
X23238134Y-19927781D01*
X23225346Y-19945024D01*
X23210930Y-19960930D01*
X23195024Y-19975346D01*
X23177781Y-19988134D01*
X23159368Y-19999170D01*
X23139962Y-20008349D01*
X23119750Y-20015581D01*
X23098926Y-20020797D01*
X23077691Y-20023947D01*
X23056250Y-20025000D01*
X22543750Y-20025000D01*
X22522309Y-20023947D01*
X22501074Y-20020797D01*
X22480250Y-20015581D01*
X22460038Y-20008349D01*
X22440632Y-19999170D01*
X22422219Y-19988134D01*
X22404976Y-19975346D01*
X22389070Y-19960930D01*
X22374654Y-19945024D01*
X22361866Y-19927781D01*
X22350830Y-19909368D01*
X22341651Y-19889962D01*
X22334419Y-19869750D01*
X22329203Y-19848926D01*
X22326053Y-19827691D01*
X22325000Y-19806250D01*
X22325000Y-19368750D01*
X22326053Y-19347309D01*
X22329203Y-19326074D01*
X22334419Y-19305250D01*
X22341651Y-19285038D01*
X22350830Y-19265632D01*
X22361866Y-19247219D01*
X22374654Y-19229976D01*
X22389070Y-19214070D01*
X22404976Y-19199654D01*
X22422219Y-19186866D01*
X22440632Y-19175830D01*
X22460038Y-19166651D01*
X22480250Y-19159419D01*
X22501074Y-19154203D01*
X22522309Y-19151053D01*
X22543750Y-19150000D01*
X23056250Y-19150000D01*
X23077691Y-19151053D01*
G37*
G36*
X25427691Y-17576053D02*
G01*
X25448926Y-17579203D01*
X25469750Y-17584419D01*
X25489962Y-17591651D01*
X25509368Y-17600830D01*
X25527781Y-17611866D01*
X25545024Y-17624654D01*
X25560930Y-17639070D01*
X25575346Y-17654976D01*
X25588134Y-17672219D01*
X25599170Y-17690632D01*
X25608349Y-17710038D01*
X25615581Y-17730250D01*
X25620797Y-17751074D01*
X25623947Y-17772309D01*
X25625000Y-17793750D01*
X25625000Y-18231250D01*
X25623947Y-18252691D01*
X25620797Y-18273926D01*
X25615581Y-18294750D01*
X25608349Y-18314962D01*
X25599170Y-18334368D01*
X25588134Y-18352781D01*
X25575346Y-18370024D01*
X25560930Y-18385930D01*
X25545024Y-18400346D01*
X25527781Y-18413134D01*
X25509368Y-18424170D01*
X25489962Y-18433349D01*
X25469750Y-18440581D01*
X25448926Y-18445797D01*
X25427691Y-18448947D01*
X25406250Y-18450000D01*
X24893750Y-18450000D01*
X24872309Y-18448947D01*
X24851074Y-18445797D01*
X24830250Y-18440581D01*
X24810038Y-18433349D01*
X24790632Y-18424170D01*
X24772219Y-18413134D01*
X24754976Y-18400346D01*
X24739070Y-18385930D01*
X24724654Y-18370024D01*
X24711866Y-18352781D01*
X24700830Y-18334368D01*
X24691651Y-18314962D01*
X24684419Y-18294750D01*
X24679203Y-18273926D01*
X24676053Y-18252691D01*
X24675000Y-18231250D01*
X24675000Y-17793750D01*
X24676053Y-17772309D01*
X24679203Y-17751074D01*
X24684419Y-17730250D01*
X24691651Y-17710038D01*
X24700830Y-17690632D01*
X24711866Y-17672219D01*
X24724654Y-17654976D01*
X24739070Y-17639070D01*
X24754976Y-17624654D01*
X24772219Y-17611866D01*
X24790632Y-17600830D01*
X24810038Y-17591651D01*
X24830250Y-17584419D01*
X24851074Y-17579203D01*
X24872309Y-17576053D01*
X24893750Y-17575000D01*
X25406250Y-17575000D01*
X25427691Y-17576053D01*
G37*
G36*
X25427691Y-19151053D02*
G01*
X25448926Y-19154203D01*
X25469750Y-19159419D01*
X25489962Y-19166651D01*
X25509368Y-19175830D01*
X25527781Y-19186866D01*
X25545024Y-19199654D01*
X25560930Y-19214070D01*
X25575346Y-19229976D01*
X25588134Y-19247219D01*
X25599170Y-19265632D01*
X25608349Y-19285038D01*
X25615581Y-19305250D01*
X25620797Y-19326074D01*
X25623947Y-19347309D01*
X25625000Y-19368750D01*
X25625000Y-19806250D01*
X25623947Y-19827691D01*
X25620797Y-19848926D01*
X25615581Y-19869750D01*
X25608349Y-19889962D01*
X25599170Y-19909368D01*
X25588134Y-19927781D01*
X25575346Y-19945024D01*
X25560930Y-19960930D01*
X25545024Y-19975346D01*
X25527781Y-19988134D01*
X25509368Y-19999170D01*
X25489962Y-20008349D01*
X25469750Y-20015581D01*
X25448926Y-20020797D01*
X25427691Y-20023947D01*
X25406250Y-20025000D01*
X24893750Y-20025000D01*
X24872309Y-20023947D01*
X24851074Y-20020797D01*
X24830250Y-20015581D01*
X24810038Y-20008349D01*
X24790632Y-19999170D01*
X24772219Y-19988134D01*
X24754976Y-19975346D01*
X24739070Y-19960930D01*
X24724654Y-19945024D01*
X24711866Y-19927781D01*
X24700830Y-19909368D01*
X24691651Y-19889962D01*
X24684419Y-19869750D01*
X24679203Y-19848926D01*
X24676053Y-19827691D01*
X24675000Y-19806250D01*
X24675000Y-19368750D01*
X24676053Y-19347309D01*
X24679203Y-19326074D01*
X24684419Y-19305250D01*
X24691651Y-19285038D01*
X24700830Y-19265632D01*
X24711866Y-19247219D01*
X24724654Y-19229976D01*
X24739070Y-19214070D01*
X24754976Y-19199654D01*
X24772219Y-19186866D01*
X24790632Y-19175830D01*
X24810038Y-19166651D01*
X24830250Y-19159419D01*
X24851074Y-19154203D01*
X24872309Y-19151053D01*
X24893750Y-19150000D01*
X25406250Y-19150000D01*
X25427691Y-19151053D01*
G37*
G36*
X32915191Y-13326053D02*
G01*
X32936426Y-13329203D01*
X32957250Y-13334419D01*
X32977462Y-13341651D01*
X32996868Y-13350830D01*
X33015281Y-13361866D01*
X33032524Y-13374654D01*
X33048430Y-13389070D01*
X33062846Y-13404976D01*
X33075634Y-13422219D01*
X33086670Y-13440632D01*
X33095849Y-13460038D01*
X33103081Y-13480250D01*
X33108297Y-13501074D01*
X33111447Y-13522309D01*
X33112500Y-13543750D01*
X33112500Y-14056250D01*
X33111447Y-14077691D01*
X33108297Y-14098926D01*
X33103081Y-14119750D01*
X33095849Y-14139962D01*
X33086670Y-14159368D01*
X33075634Y-14177781D01*
X33062846Y-14195024D01*
X33048430Y-14210930D01*
X33032524Y-14225346D01*
X33015281Y-14238134D01*
X32996868Y-14249170D01*
X32977462Y-14258349D01*
X32957250Y-14265581D01*
X32936426Y-14270797D01*
X32915191Y-14273947D01*
X32893750Y-14275000D01*
X32456250Y-14275000D01*
X32434809Y-14273947D01*
X32413574Y-14270797D01*
X32392750Y-14265581D01*
X32372538Y-14258349D01*
X32353132Y-14249170D01*
X32334719Y-14238134D01*
X32317476Y-14225346D01*
X32301570Y-14210930D01*
X32287154Y-14195024D01*
X32274366Y-14177781D01*
X32263330Y-14159368D01*
X32254151Y-14139962D01*
X32246919Y-14119750D01*
X32241703Y-14098926D01*
X32238553Y-14077691D01*
X32237500Y-14056250D01*
X32237500Y-13543750D01*
X32238553Y-13522309D01*
X32241703Y-13501074D01*
X32246919Y-13480250D01*
X32254151Y-13460038D01*
X32263330Y-13440632D01*
X32274366Y-13422219D01*
X32287154Y-13404976D01*
X32301570Y-13389070D01*
X32317476Y-13374654D01*
X32334719Y-13361866D01*
X32353132Y-13350830D01*
X32372538Y-13341651D01*
X32392750Y-13334419D01*
X32413574Y-13329203D01*
X32434809Y-13326053D01*
X32456250Y-13325000D01*
X32893750Y-13325000D01*
X32915191Y-13326053D01*
G37*
G36*
X31340191Y-13326053D02*
G01*
X31361426Y-13329203D01*
X31382250Y-13334419D01*
X31402462Y-13341651D01*
X31421868Y-13350830D01*
X31440281Y-13361866D01*
X31457524Y-13374654D01*
X31473430Y-13389070D01*
X31487846Y-13404976D01*
X31500634Y-13422219D01*
X31511670Y-13440632D01*
X31520849Y-13460038D01*
X31528081Y-13480250D01*
X31533297Y-13501074D01*
X31536447Y-13522309D01*
X31537500Y-13543750D01*
X31537500Y-14056250D01*
X31536447Y-14077691D01*
X31533297Y-14098926D01*
X31528081Y-14119750D01*
X31520849Y-14139962D01*
X31511670Y-14159368D01*
X31500634Y-14177781D01*
X31487846Y-14195024D01*
X31473430Y-14210930D01*
X31457524Y-14225346D01*
X31440281Y-14238134D01*
X31421868Y-14249170D01*
X31402462Y-14258349D01*
X31382250Y-14265581D01*
X31361426Y-14270797D01*
X31340191Y-14273947D01*
X31318750Y-14275000D01*
X30881250Y-14275000D01*
X30859809Y-14273947D01*
X30838574Y-14270797D01*
X30817750Y-14265581D01*
X30797538Y-14258349D01*
X30778132Y-14249170D01*
X30759719Y-14238134D01*
X30742476Y-14225346D01*
X30726570Y-14210930D01*
X30712154Y-14195024D01*
X30699366Y-14177781D01*
X30688330Y-14159368D01*
X30679151Y-14139962D01*
X30671919Y-14119750D01*
X30666703Y-14098926D01*
X30663553Y-14077691D01*
X30662500Y-14056250D01*
X30662500Y-13543750D01*
X30663553Y-13522309D01*
X30666703Y-13501074D01*
X30671919Y-13480250D01*
X30679151Y-13460038D01*
X30688330Y-13440632D01*
X30699366Y-13422219D01*
X30712154Y-13404976D01*
X30726570Y-13389070D01*
X30742476Y-13374654D01*
X30759719Y-13361866D01*
X30778132Y-13350830D01*
X30797538Y-13341651D01*
X30817750Y-13334419D01*
X30838574Y-13329203D01*
X30859809Y-13326053D01*
X30881250Y-13325000D01*
X31318750Y-13325000D01*
X31340191Y-13326053D01*
G37*
G36*
X27109691Y-4438553D02*
G01*
X27130926Y-4441703D01*
X27151750Y-4446919D01*
X27171962Y-4454151D01*
X27191368Y-4463330D01*
X27209781Y-4474366D01*
X27227024Y-4487154D01*
X27242930Y-4501570D01*
X27257346Y-4517476D01*
X27270134Y-4534719D01*
X27281170Y-4553132D01*
X27290349Y-4572538D01*
X27297581Y-4592750D01*
X27302797Y-4613574D01*
X27305947Y-4634809D01*
X27307000Y-4656250D01*
X27307000Y-5093750D01*
X27305947Y-5115191D01*
X27302797Y-5136426D01*
X27297581Y-5157250D01*
X27290349Y-5177462D01*
X27281170Y-5196868D01*
X27270134Y-5215281D01*
X27257346Y-5232524D01*
X27242930Y-5248430D01*
X27227024Y-5262846D01*
X27209781Y-5275634D01*
X27191368Y-5286670D01*
X27171962Y-5295849D01*
X27151750Y-5303081D01*
X27130926Y-5308297D01*
X27109691Y-5311447D01*
X27088250Y-5312500D01*
X26575750Y-5312500D01*
X26554309Y-5311447D01*
X26533074Y-5308297D01*
X26512250Y-5303081D01*
X26492038Y-5295849D01*
X26472632Y-5286670D01*
X26454219Y-5275634D01*
X26436976Y-5262846D01*
X26421070Y-5248430D01*
X26406654Y-5232524D01*
X26393866Y-5215281D01*
X26382830Y-5196868D01*
X26373651Y-5177462D01*
X26366419Y-5157250D01*
X26361203Y-5136426D01*
X26358053Y-5115191D01*
X26357000Y-5093750D01*
X26357000Y-4656250D01*
X26358053Y-4634809D01*
X26361203Y-4613574D01*
X26366419Y-4592750D01*
X26373651Y-4572538D01*
X26382830Y-4553132D01*
X26393866Y-4534719D01*
X26406654Y-4517476D01*
X26421070Y-4501570D01*
X26436976Y-4487154D01*
X26454219Y-4474366D01*
X26472632Y-4463330D01*
X26492038Y-4454151D01*
X26512250Y-4446919D01*
X26533074Y-4441703D01*
X26554309Y-4438553D01*
X26575750Y-4437500D01*
X27088250Y-4437500D01*
X27109691Y-4438553D01*
G37*
G36*
X27109691Y-6013553D02*
G01*
X27130926Y-6016703D01*
X27151750Y-6021919D01*
X27171962Y-6029151D01*
X27191368Y-6038330D01*
X27209781Y-6049366D01*
X27227024Y-6062154D01*
X27242930Y-6076570D01*
X27257346Y-6092476D01*
X27270134Y-6109719D01*
X27281170Y-6128132D01*
X27290349Y-6147538D01*
X27297581Y-6167750D01*
X27302797Y-6188574D01*
X27305947Y-6209809D01*
X27307000Y-6231250D01*
X27307000Y-6668750D01*
X27305947Y-6690191D01*
X27302797Y-6711426D01*
X27297581Y-6732250D01*
X27290349Y-6752462D01*
X27281170Y-6771868D01*
X27270134Y-6790281D01*
X27257346Y-6807524D01*
X27242930Y-6823430D01*
X27227024Y-6837846D01*
X27209781Y-6850634D01*
X27191368Y-6861670D01*
X27171962Y-6870849D01*
X27151750Y-6878081D01*
X27130926Y-6883297D01*
X27109691Y-6886447D01*
X27088250Y-6887500D01*
X26575750Y-6887500D01*
X26554309Y-6886447D01*
X26533074Y-6883297D01*
X26512250Y-6878081D01*
X26492038Y-6870849D01*
X26472632Y-6861670D01*
X26454219Y-6850634D01*
X26436976Y-6837846D01*
X26421070Y-6823430D01*
X26406654Y-6807524D01*
X26393866Y-6790281D01*
X26382830Y-6771868D01*
X26373651Y-6752462D01*
X26366419Y-6732250D01*
X26361203Y-6711426D01*
X26358053Y-6690191D01*
X26357000Y-6668750D01*
X26357000Y-6231250D01*
X26358053Y-6209809D01*
X26361203Y-6188574D01*
X26366419Y-6167750D01*
X26373651Y-6147538D01*
X26382830Y-6128132D01*
X26393866Y-6109719D01*
X26406654Y-6092476D01*
X26421070Y-6076570D01*
X26436976Y-6062154D01*
X26454219Y-6049366D01*
X26472632Y-6038330D01*
X26492038Y-6029151D01*
X26512250Y-6021919D01*
X26533074Y-6016703D01*
X26554309Y-6013553D01*
X26575750Y-6012500D01*
X27088250Y-6012500D01*
X27109691Y-6013553D01*
G37*
G36*
X22413691Y-6001053D02*
G01*
X22434926Y-6004203D01*
X22455750Y-6009419D01*
X22475962Y-6016651D01*
X22495368Y-6025830D01*
X22513781Y-6036866D01*
X22531024Y-6049654D01*
X22546930Y-6064070D01*
X22561346Y-6079976D01*
X22574134Y-6097219D01*
X22585170Y-6115632D01*
X22594349Y-6135038D01*
X22601581Y-6155250D01*
X22606797Y-6176074D01*
X22609947Y-6197309D01*
X22611000Y-6218750D01*
X22611000Y-6656250D01*
X22609947Y-6677691D01*
X22606797Y-6698926D01*
X22601581Y-6719750D01*
X22594349Y-6739962D01*
X22585170Y-6759368D01*
X22574134Y-6777781D01*
X22561346Y-6795024D01*
X22546930Y-6810930D01*
X22531024Y-6825346D01*
X22513781Y-6838134D01*
X22495368Y-6849170D01*
X22475962Y-6858349D01*
X22455750Y-6865581D01*
X22434926Y-6870797D01*
X22413691Y-6873947D01*
X22392250Y-6875000D01*
X21879750Y-6875000D01*
X21858309Y-6873947D01*
X21837074Y-6870797D01*
X21816250Y-6865581D01*
X21796038Y-6858349D01*
X21776632Y-6849170D01*
X21758219Y-6838134D01*
X21740976Y-6825346D01*
X21725070Y-6810930D01*
X21710654Y-6795024D01*
X21697866Y-6777781D01*
X21686830Y-6759368D01*
X21677651Y-6739962D01*
X21670419Y-6719750D01*
X21665203Y-6698926D01*
X21662053Y-6677691D01*
X21661000Y-6656250D01*
X21661000Y-6218750D01*
X21662053Y-6197309D01*
X21665203Y-6176074D01*
X21670419Y-6155250D01*
X21677651Y-6135038D01*
X21686830Y-6115632D01*
X21697866Y-6097219D01*
X21710654Y-6079976D01*
X21725070Y-6064070D01*
X21740976Y-6049654D01*
X21758219Y-6036866D01*
X21776632Y-6025830D01*
X21796038Y-6016651D01*
X21816250Y-6009419D01*
X21837074Y-6004203D01*
X21858309Y-6001053D01*
X21879750Y-6000000D01*
X22392250Y-6000000D01*
X22413691Y-6001053D01*
G37*
G36*
X22413691Y-4426053D02*
G01*
X22434926Y-4429203D01*
X22455750Y-4434419D01*
X22475962Y-4441651D01*
X22495368Y-4450830D01*
X22513781Y-4461866D01*
X22531024Y-4474654D01*
X22546930Y-4489070D01*
X22561346Y-4504976D01*
X22574134Y-4522219D01*
X22585170Y-4540632D01*
X22594349Y-4560038D01*
X22601581Y-4580250D01*
X22606797Y-4601074D01*
X22609947Y-4622309D01*
X22611000Y-4643750D01*
X22611000Y-5081250D01*
X22609947Y-5102691D01*
X22606797Y-5123926D01*
X22601581Y-5144750D01*
X22594349Y-5164962D01*
X22585170Y-5184368D01*
X22574134Y-5202781D01*
X22561346Y-5220024D01*
X22546930Y-5235930D01*
X22531024Y-5250346D01*
X22513781Y-5263134D01*
X22495368Y-5274170D01*
X22475962Y-5283349D01*
X22455750Y-5290581D01*
X22434926Y-5295797D01*
X22413691Y-5298947D01*
X22392250Y-5300000D01*
X21879750Y-5300000D01*
X21858309Y-5298947D01*
X21837074Y-5295797D01*
X21816250Y-5290581D01*
X21796038Y-5283349D01*
X21776632Y-5274170D01*
X21758219Y-5263134D01*
X21740976Y-5250346D01*
X21725070Y-5235930D01*
X21710654Y-5220024D01*
X21697866Y-5202781D01*
X21686830Y-5184368D01*
X21677651Y-5164962D01*
X21670419Y-5144750D01*
X21665203Y-5123926D01*
X21662053Y-5102691D01*
X21661000Y-5081250D01*
X21661000Y-4643750D01*
X21662053Y-4622309D01*
X21665203Y-4601074D01*
X21670419Y-4580250D01*
X21677651Y-4560038D01*
X21686830Y-4540632D01*
X21697866Y-4522219D01*
X21710654Y-4504976D01*
X21725070Y-4489070D01*
X21740976Y-4474654D01*
X21758219Y-4461866D01*
X21776632Y-4450830D01*
X21796038Y-4441651D01*
X21816250Y-4434419D01*
X21837074Y-4429203D01*
X21858309Y-4426053D01*
X21879750Y-4425000D01*
X22392250Y-4425000D01*
X22413691Y-4426053D01*
G37*
G36*
X20863691Y-6001053D02*
G01*
X20884926Y-6004203D01*
X20905750Y-6009419D01*
X20925962Y-6016651D01*
X20945368Y-6025830D01*
X20963781Y-6036866D01*
X20981024Y-6049654D01*
X20996930Y-6064070D01*
X21011346Y-6079976D01*
X21024134Y-6097219D01*
X21035170Y-6115632D01*
X21044349Y-6135038D01*
X21051581Y-6155250D01*
X21056797Y-6176074D01*
X21059947Y-6197309D01*
X21061000Y-6218750D01*
X21061000Y-6656250D01*
X21059947Y-6677691D01*
X21056797Y-6698926D01*
X21051581Y-6719750D01*
X21044349Y-6739962D01*
X21035170Y-6759368D01*
X21024134Y-6777781D01*
X21011346Y-6795024D01*
X20996930Y-6810930D01*
X20981024Y-6825346D01*
X20963781Y-6838134D01*
X20945368Y-6849170D01*
X20925962Y-6858349D01*
X20905750Y-6865581D01*
X20884926Y-6870797D01*
X20863691Y-6873947D01*
X20842250Y-6875000D01*
X20329750Y-6875000D01*
X20308309Y-6873947D01*
X20287074Y-6870797D01*
X20266250Y-6865581D01*
X20246038Y-6858349D01*
X20226632Y-6849170D01*
X20208219Y-6838134D01*
X20190976Y-6825346D01*
X20175070Y-6810930D01*
X20160654Y-6795024D01*
X20147866Y-6777781D01*
X20136830Y-6759368D01*
X20127651Y-6739962D01*
X20120419Y-6719750D01*
X20115203Y-6698926D01*
X20112053Y-6677691D01*
X20111000Y-6656250D01*
X20111000Y-6218750D01*
X20112053Y-6197309D01*
X20115203Y-6176074D01*
X20120419Y-6155250D01*
X20127651Y-6135038D01*
X20136830Y-6115632D01*
X20147866Y-6097219D01*
X20160654Y-6079976D01*
X20175070Y-6064070D01*
X20190976Y-6049654D01*
X20208219Y-6036866D01*
X20226632Y-6025830D01*
X20246038Y-6016651D01*
X20266250Y-6009419D01*
X20287074Y-6004203D01*
X20308309Y-6001053D01*
X20329750Y-6000000D01*
X20842250Y-6000000D01*
X20863691Y-6001053D01*
G37*
G36*
X20863691Y-4426053D02*
G01*
X20884926Y-4429203D01*
X20905750Y-4434419D01*
X20925962Y-4441651D01*
X20945368Y-4450830D01*
X20963781Y-4461866D01*
X20981024Y-4474654D01*
X20996930Y-4489070D01*
X21011346Y-4504976D01*
X21024134Y-4522219D01*
X21035170Y-4540632D01*
X21044349Y-4560038D01*
X21051581Y-4580250D01*
X21056797Y-4601074D01*
X21059947Y-4622309D01*
X21061000Y-4643750D01*
X21061000Y-5081250D01*
X21059947Y-5102691D01*
X21056797Y-5123926D01*
X21051581Y-5144750D01*
X21044349Y-5164962D01*
X21035170Y-5184368D01*
X21024134Y-5202781D01*
X21011346Y-5220024D01*
X20996930Y-5235930D01*
X20981024Y-5250346D01*
X20963781Y-5263134D01*
X20945368Y-5274170D01*
X20925962Y-5283349D01*
X20905750Y-5290581D01*
X20884926Y-5295797D01*
X20863691Y-5298947D01*
X20842250Y-5300000D01*
X20329750Y-5300000D01*
X20308309Y-5298947D01*
X20287074Y-5295797D01*
X20266250Y-5290581D01*
X20246038Y-5283349D01*
X20226632Y-5274170D01*
X20208219Y-5263134D01*
X20190976Y-5250346D01*
X20175070Y-5235930D01*
X20160654Y-5220024D01*
X20147866Y-5202781D01*
X20136830Y-5184368D01*
X20127651Y-5164962D01*
X20120419Y-5144750D01*
X20115203Y-5123926D01*
X20112053Y-5102691D01*
X20111000Y-5081250D01*
X20111000Y-4643750D01*
X20112053Y-4622309D01*
X20115203Y-4601074D01*
X20120419Y-4580250D01*
X20127651Y-4560038D01*
X20136830Y-4540632D01*
X20147866Y-4522219D01*
X20160654Y-4504976D01*
X20175070Y-4489070D01*
X20190976Y-4474654D01*
X20208219Y-4461866D01*
X20226632Y-4450830D01*
X20246038Y-4441651D01*
X20266250Y-4434419D01*
X20287074Y-4429203D01*
X20308309Y-4426053D01*
X20329750Y-4425000D01*
X20842250Y-4425000D01*
X20863691Y-4426053D01*
G37*
G36*
X24009691Y-6001053D02*
G01*
X24030926Y-6004203D01*
X24051750Y-6009419D01*
X24071962Y-6016651D01*
X24091368Y-6025830D01*
X24109781Y-6036866D01*
X24127024Y-6049654D01*
X24142930Y-6064070D01*
X24157346Y-6079976D01*
X24170134Y-6097219D01*
X24181170Y-6115632D01*
X24190349Y-6135038D01*
X24197581Y-6155250D01*
X24202797Y-6176074D01*
X24205947Y-6197309D01*
X24207000Y-6218750D01*
X24207000Y-6656250D01*
X24205947Y-6677691D01*
X24202797Y-6698926D01*
X24197581Y-6719750D01*
X24190349Y-6739962D01*
X24181170Y-6759368D01*
X24170134Y-6777781D01*
X24157346Y-6795024D01*
X24142930Y-6810930D01*
X24127024Y-6825346D01*
X24109781Y-6838134D01*
X24091368Y-6849170D01*
X24071962Y-6858349D01*
X24051750Y-6865581D01*
X24030926Y-6870797D01*
X24009691Y-6873947D01*
X23988250Y-6875000D01*
X23475750Y-6875000D01*
X23454309Y-6873947D01*
X23433074Y-6870797D01*
X23412250Y-6865581D01*
X23392038Y-6858349D01*
X23372632Y-6849170D01*
X23354219Y-6838134D01*
X23336976Y-6825346D01*
X23321070Y-6810930D01*
X23306654Y-6795024D01*
X23293866Y-6777781D01*
X23282830Y-6759368D01*
X23273651Y-6739962D01*
X23266419Y-6719750D01*
X23261203Y-6698926D01*
X23258053Y-6677691D01*
X23257000Y-6656250D01*
X23257000Y-6218750D01*
X23258053Y-6197309D01*
X23261203Y-6176074D01*
X23266419Y-6155250D01*
X23273651Y-6135038D01*
X23282830Y-6115632D01*
X23293866Y-6097219D01*
X23306654Y-6079976D01*
X23321070Y-6064070D01*
X23336976Y-6049654D01*
X23354219Y-6036866D01*
X23372632Y-6025830D01*
X23392038Y-6016651D01*
X23412250Y-6009419D01*
X23433074Y-6004203D01*
X23454309Y-6001053D01*
X23475750Y-6000000D01*
X23988250Y-6000000D01*
X24009691Y-6001053D01*
G37*
G36*
X24009691Y-4426053D02*
G01*
X24030926Y-4429203D01*
X24051750Y-4434419D01*
X24071962Y-4441651D01*
X24091368Y-4450830D01*
X24109781Y-4461866D01*
X24127024Y-4474654D01*
X24142930Y-4489070D01*
X24157346Y-4504976D01*
X24170134Y-4522219D01*
X24181170Y-4540632D01*
X24190349Y-4560038D01*
X24197581Y-4580250D01*
X24202797Y-4601074D01*
X24205947Y-4622309D01*
X24207000Y-4643750D01*
X24207000Y-5081250D01*
X24205947Y-5102691D01*
X24202797Y-5123926D01*
X24197581Y-5144750D01*
X24190349Y-5164962D01*
X24181170Y-5184368D01*
X24170134Y-5202781D01*
X24157346Y-5220024D01*
X24142930Y-5235930D01*
X24127024Y-5250346D01*
X24109781Y-5263134D01*
X24091368Y-5274170D01*
X24071962Y-5283349D01*
X24051750Y-5290581D01*
X24030926Y-5295797D01*
X24009691Y-5298947D01*
X23988250Y-5300000D01*
X23475750Y-5300000D01*
X23454309Y-5298947D01*
X23433074Y-5295797D01*
X23412250Y-5290581D01*
X23392038Y-5283349D01*
X23372632Y-5274170D01*
X23354219Y-5263134D01*
X23336976Y-5250346D01*
X23321070Y-5235930D01*
X23306654Y-5220024D01*
X23293866Y-5202781D01*
X23282830Y-5184368D01*
X23273651Y-5164962D01*
X23266419Y-5144750D01*
X23261203Y-5123926D01*
X23258053Y-5102691D01*
X23257000Y-5081250D01*
X23257000Y-4643750D01*
X23258053Y-4622309D01*
X23261203Y-4601074D01*
X23266419Y-4580250D01*
X23273651Y-4560038D01*
X23282830Y-4540632D01*
X23293866Y-4522219D01*
X23306654Y-4504976D01*
X23321070Y-4489070D01*
X23336976Y-4474654D01*
X23354219Y-4461866D01*
X23372632Y-4450830D01*
X23392038Y-4441651D01*
X23412250Y-4434419D01*
X23433074Y-4429203D01*
X23454309Y-4426053D01*
X23475750Y-4425000D01*
X23988250Y-4425000D01*
X24009691Y-4426053D01*
G37*
G36*
X31759691Y-4426053D02*
G01*
X31780926Y-4429203D01*
X31801750Y-4434419D01*
X31821962Y-4441651D01*
X31841368Y-4450830D01*
X31859781Y-4461866D01*
X31877024Y-4474654D01*
X31892930Y-4489070D01*
X31907346Y-4504976D01*
X31920134Y-4522219D01*
X31931170Y-4540632D01*
X31940349Y-4560038D01*
X31947581Y-4580250D01*
X31952797Y-4601074D01*
X31955947Y-4622309D01*
X31957000Y-4643750D01*
X31957000Y-5081250D01*
X31955947Y-5102691D01*
X31952797Y-5123926D01*
X31947581Y-5144750D01*
X31940349Y-5164962D01*
X31931170Y-5184368D01*
X31920134Y-5202781D01*
X31907346Y-5220024D01*
X31892930Y-5235930D01*
X31877024Y-5250346D01*
X31859781Y-5263134D01*
X31841368Y-5274170D01*
X31821962Y-5283349D01*
X31801750Y-5290581D01*
X31780926Y-5295797D01*
X31759691Y-5298947D01*
X31738250Y-5300000D01*
X31225750Y-5300000D01*
X31204309Y-5298947D01*
X31183074Y-5295797D01*
X31162250Y-5290581D01*
X31142038Y-5283349D01*
X31122632Y-5274170D01*
X31104219Y-5263134D01*
X31086976Y-5250346D01*
X31071070Y-5235930D01*
X31056654Y-5220024D01*
X31043866Y-5202781D01*
X31032830Y-5184368D01*
X31023651Y-5164962D01*
X31016419Y-5144750D01*
X31011203Y-5123926D01*
X31008053Y-5102691D01*
X31007000Y-5081250D01*
X31007000Y-4643750D01*
X31008053Y-4622309D01*
X31011203Y-4601074D01*
X31016419Y-4580250D01*
X31023651Y-4560038D01*
X31032830Y-4540632D01*
X31043866Y-4522219D01*
X31056654Y-4504976D01*
X31071070Y-4489070D01*
X31086976Y-4474654D01*
X31104219Y-4461866D01*
X31122632Y-4450830D01*
X31142038Y-4441651D01*
X31162250Y-4434419D01*
X31183074Y-4429203D01*
X31204309Y-4426053D01*
X31225750Y-4425000D01*
X31738250Y-4425000D01*
X31759691Y-4426053D01*
G37*
G36*
X31759691Y-6001053D02*
G01*
X31780926Y-6004203D01*
X31801750Y-6009419D01*
X31821962Y-6016651D01*
X31841368Y-6025830D01*
X31859781Y-6036866D01*
X31877024Y-6049654D01*
X31892930Y-6064070D01*
X31907346Y-6079976D01*
X31920134Y-6097219D01*
X31931170Y-6115632D01*
X31940349Y-6135038D01*
X31947581Y-6155250D01*
X31952797Y-6176074D01*
X31955947Y-6197309D01*
X31957000Y-6218750D01*
X31957000Y-6656250D01*
X31955947Y-6677691D01*
X31952797Y-6698926D01*
X31947581Y-6719750D01*
X31940349Y-6739962D01*
X31931170Y-6759368D01*
X31920134Y-6777781D01*
X31907346Y-6795024D01*
X31892930Y-6810930D01*
X31877024Y-6825346D01*
X31859781Y-6838134D01*
X31841368Y-6849170D01*
X31821962Y-6858349D01*
X31801750Y-6865581D01*
X31780926Y-6870797D01*
X31759691Y-6873947D01*
X31738250Y-6875000D01*
X31225750Y-6875000D01*
X31204309Y-6873947D01*
X31183074Y-6870797D01*
X31162250Y-6865581D01*
X31142038Y-6858349D01*
X31122632Y-6849170D01*
X31104219Y-6838134D01*
X31086976Y-6825346D01*
X31071070Y-6810930D01*
X31056654Y-6795024D01*
X31043866Y-6777781D01*
X31032830Y-6759368D01*
X31023651Y-6739962D01*
X31016419Y-6719750D01*
X31011203Y-6698926D01*
X31008053Y-6677691D01*
X31007000Y-6656250D01*
X31007000Y-6218750D01*
X31008053Y-6197309D01*
X31011203Y-6176074D01*
X31016419Y-6155250D01*
X31023651Y-6135038D01*
X31032830Y-6115632D01*
X31043866Y-6097219D01*
X31056654Y-6079976D01*
X31071070Y-6064070D01*
X31086976Y-6049654D01*
X31104219Y-6036866D01*
X31122632Y-6025830D01*
X31142038Y-6016651D01*
X31162250Y-6009419D01*
X31183074Y-6004203D01*
X31204309Y-6001053D01*
X31225750Y-6000000D01*
X31738250Y-6000000D01*
X31759691Y-6001053D01*
G37*
G36*
X30209691Y-4438553D02*
G01*
X30230926Y-4441703D01*
X30251750Y-4446919D01*
X30271962Y-4454151D01*
X30291368Y-4463330D01*
X30309781Y-4474366D01*
X30327024Y-4487154D01*
X30342930Y-4501570D01*
X30357346Y-4517476D01*
X30370134Y-4534719D01*
X30381170Y-4553132D01*
X30390349Y-4572538D01*
X30397581Y-4592750D01*
X30402797Y-4613574D01*
X30405947Y-4634809D01*
X30407000Y-4656250D01*
X30407000Y-5093750D01*
X30405947Y-5115191D01*
X30402797Y-5136426D01*
X30397581Y-5157250D01*
X30390349Y-5177462D01*
X30381170Y-5196868D01*
X30370134Y-5215281D01*
X30357346Y-5232524D01*
X30342930Y-5248430D01*
X30327024Y-5262846D01*
X30309781Y-5275634D01*
X30291368Y-5286670D01*
X30271962Y-5295849D01*
X30251750Y-5303081D01*
X30230926Y-5308297D01*
X30209691Y-5311447D01*
X30188250Y-5312500D01*
X29675750Y-5312500D01*
X29654309Y-5311447D01*
X29633074Y-5308297D01*
X29612250Y-5303081D01*
X29592038Y-5295849D01*
X29572632Y-5286670D01*
X29554219Y-5275634D01*
X29536976Y-5262846D01*
X29521070Y-5248430D01*
X29506654Y-5232524D01*
X29493866Y-5215281D01*
X29482830Y-5196868D01*
X29473651Y-5177462D01*
X29466419Y-5157250D01*
X29461203Y-5136426D01*
X29458053Y-5115191D01*
X29457000Y-5093750D01*
X29457000Y-4656250D01*
X29458053Y-4634809D01*
X29461203Y-4613574D01*
X29466419Y-4592750D01*
X29473651Y-4572538D01*
X29482830Y-4553132D01*
X29493866Y-4534719D01*
X29506654Y-4517476D01*
X29521070Y-4501570D01*
X29536976Y-4487154D01*
X29554219Y-4474366D01*
X29572632Y-4463330D01*
X29592038Y-4454151D01*
X29612250Y-4446919D01*
X29633074Y-4441703D01*
X29654309Y-4438553D01*
X29675750Y-4437500D01*
X30188250Y-4437500D01*
X30209691Y-4438553D01*
G37*
G36*
X30209691Y-6013553D02*
G01*
X30230926Y-6016703D01*
X30251750Y-6021919D01*
X30271962Y-6029151D01*
X30291368Y-6038330D01*
X30309781Y-6049366D01*
X30327024Y-6062154D01*
X30342930Y-6076570D01*
X30357346Y-6092476D01*
X30370134Y-6109719D01*
X30381170Y-6128132D01*
X30390349Y-6147538D01*
X30397581Y-6167750D01*
X30402797Y-6188574D01*
X30405947Y-6209809D01*
X30407000Y-6231250D01*
X30407000Y-6668750D01*
X30405947Y-6690191D01*
X30402797Y-6711426D01*
X30397581Y-6732250D01*
X30390349Y-6752462D01*
X30381170Y-6771868D01*
X30370134Y-6790281D01*
X30357346Y-6807524D01*
X30342930Y-6823430D01*
X30327024Y-6837846D01*
X30309781Y-6850634D01*
X30291368Y-6861670D01*
X30271962Y-6870849D01*
X30251750Y-6878081D01*
X30230926Y-6883297D01*
X30209691Y-6886447D01*
X30188250Y-6887500D01*
X29675750Y-6887500D01*
X29654309Y-6886447D01*
X29633074Y-6883297D01*
X29612250Y-6878081D01*
X29592038Y-6870849D01*
X29572632Y-6861670D01*
X29554219Y-6850634D01*
X29536976Y-6837846D01*
X29521070Y-6823430D01*
X29506654Y-6807524D01*
X29493866Y-6790281D01*
X29482830Y-6771868D01*
X29473651Y-6752462D01*
X29466419Y-6732250D01*
X29461203Y-6711426D01*
X29458053Y-6690191D01*
X29457000Y-6668750D01*
X29457000Y-6231250D01*
X29458053Y-6209809D01*
X29461203Y-6188574D01*
X29466419Y-6167750D01*
X29473651Y-6147538D01*
X29482830Y-6128132D01*
X29493866Y-6109719D01*
X29506654Y-6092476D01*
X29521070Y-6076570D01*
X29536976Y-6062154D01*
X29554219Y-6049366D01*
X29572632Y-6038330D01*
X29592038Y-6029151D01*
X29612250Y-6021919D01*
X29633074Y-6016703D01*
X29654309Y-6013553D01*
X29675750Y-6012500D01*
X30188250Y-6012500D01*
X30209691Y-6013553D01*
G37*
G36*
X-5109809Y-2976053D02*
G01*
X-5088574Y-2979203D01*
X-5067750Y-2984419D01*
X-5047538Y-2991651D01*
X-5028132Y-3000830D01*
X-5009719Y-3011866D01*
X-4992476Y-3024654D01*
X-4976570Y-3039070D01*
X-4962154Y-3054976D01*
X-4949366Y-3072219D01*
X-4938330Y-3090632D01*
X-4929151Y-3110038D01*
X-4921919Y-3130250D01*
X-4916703Y-3151074D01*
X-4913553Y-3172309D01*
X-4912500Y-3193750D01*
X-4912500Y-3706250D01*
X-4913553Y-3727691D01*
X-4916703Y-3748926D01*
X-4921919Y-3769750D01*
X-4929151Y-3789962D01*
X-4938330Y-3809368D01*
X-4949366Y-3827781D01*
X-4962154Y-3845024D01*
X-4976570Y-3860930D01*
X-4992476Y-3875346D01*
X-5009719Y-3888134D01*
X-5028132Y-3899170D01*
X-5047538Y-3908349D01*
X-5067750Y-3915581D01*
X-5088574Y-3920797D01*
X-5109809Y-3923947D01*
X-5131250Y-3925000D01*
X-5568750Y-3925000D01*
X-5590191Y-3923947D01*
X-5611426Y-3920797D01*
X-5632250Y-3915581D01*
X-5652462Y-3908349D01*
X-5671868Y-3899170D01*
X-5690281Y-3888134D01*
X-5707524Y-3875346D01*
X-5723430Y-3860930D01*
X-5737846Y-3845024D01*
X-5750634Y-3827781D01*
X-5761670Y-3809368D01*
X-5770849Y-3789962D01*
X-5778081Y-3769750D01*
X-5783297Y-3748926D01*
X-5786447Y-3727691D01*
X-5787500Y-3706250D01*
X-5787500Y-3193750D01*
X-5786447Y-3172309D01*
X-5783297Y-3151074D01*
X-5778081Y-3130250D01*
X-5770849Y-3110038D01*
X-5761670Y-3090632D01*
X-5750634Y-3072219D01*
X-5737846Y-3054976D01*
X-5723430Y-3039070D01*
X-5707524Y-3024654D01*
X-5690281Y-3011866D01*
X-5671868Y-3000830D01*
X-5652462Y-2991651D01*
X-5632250Y-2984419D01*
X-5611426Y-2979203D01*
X-5590191Y-2976053D01*
X-5568750Y-2975000D01*
X-5131250Y-2975000D01*
X-5109809Y-2976053D01*
G37*
G36*
X-6684809Y-2976053D02*
G01*
X-6663574Y-2979203D01*
X-6642750Y-2984419D01*
X-6622538Y-2991651D01*
X-6603132Y-3000830D01*
X-6584719Y-3011866D01*
X-6567476Y-3024654D01*
X-6551570Y-3039070D01*
X-6537154Y-3054976D01*
X-6524366Y-3072219D01*
X-6513330Y-3090632D01*
X-6504151Y-3110038D01*
X-6496919Y-3130250D01*
X-6491703Y-3151074D01*
X-6488553Y-3172309D01*
X-6487500Y-3193750D01*
X-6487500Y-3706250D01*
X-6488553Y-3727691D01*
X-6491703Y-3748926D01*
X-6496919Y-3769750D01*
X-6504151Y-3789962D01*
X-6513330Y-3809368D01*
X-6524366Y-3827781D01*
X-6537154Y-3845024D01*
X-6551570Y-3860930D01*
X-6567476Y-3875346D01*
X-6584719Y-3888134D01*
X-6603132Y-3899170D01*
X-6622538Y-3908349D01*
X-6642750Y-3915581D01*
X-6663574Y-3920797D01*
X-6684809Y-3923947D01*
X-6706250Y-3925000D01*
X-7143750Y-3925000D01*
X-7165191Y-3923947D01*
X-7186426Y-3920797D01*
X-7207250Y-3915581D01*
X-7227462Y-3908349D01*
X-7246868Y-3899170D01*
X-7265281Y-3888134D01*
X-7282524Y-3875346D01*
X-7298430Y-3860930D01*
X-7312846Y-3845024D01*
X-7325634Y-3827781D01*
X-7336670Y-3809368D01*
X-7345849Y-3789962D01*
X-7353081Y-3769750D01*
X-7358297Y-3748926D01*
X-7361447Y-3727691D01*
X-7362500Y-3706250D01*
X-7362500Y-3193750D01*
X-7361447Y-3172309D01*
X-7358297Y-3151074D01*
X-7353081Y-3130250D01*
X-7345849Y-3110038D01*
X-7336670Y-3090632D01*
X-7325634Y-3072219D01*
X-7312846Y-3054976D01*
X-7298430Y-3039070D01*
X-7282524Y-3024654D01*
X-7265281Y-3011866D01*
X-7246868Y-3000830D01*
X-7227462Y-2991651D01*
X-7207250Y-2984419D01*
X-7186426Y-2979203D01*
X-7165191Y-2976053D01*
X-7143750Y-2975000D01*
X-6706250Y-2975000D01*
X-6684809Y-2976053D01*
G37*
G36*
X-5109809Y-4526053D02*
G01*
X-5088574Y-4529203D01*
X-5067750Y-4534419D01*
X-5047538Y-4541651D01*
X-5028132Y-4550830D01*
X-5009719Y-4561866D01*
X-4992476Y-4574654D01*
X-4976570Y-4589070D01*
X-4962154Y-4604976D01*
X-4949366Y-4622219D01*
X-4938330Y-4640632D01*
X-4929151Y-4660038D01*
X-4921919Y-4680250D01*
X-4916703Y-4701074D01*
X-4913553Y-4722309D01*
X-4912500Y-4743750D01*
X-4912500Y-5256250D01*
X-4913553Y-5277691D01*
X-4916703Y-5298926D01*
X-4921919Y-5319750D01*
X-4929151Y-5339962D01*
X-4938330Y-5359368D01*
X-4949366Y-5377781D01*
X-4962154Y-5395024D01*
X-4976570Y-5410930D01*
X-4992476Y-5425346D01*
X-5009719Y-5438134D01*
X-5028132Y-5449170D01*
X-5047538Y-5458349D01*
X-5067750Y-5465581D01*
X-5088574Y-5470797D01*
X-5109809Y-5473947D01*
X-5131250Y-5475000D01*
X-5568750Y-5475000D01*
X-5590191Y-5473947D01*
X-5611426Y-5470797D01*
X-5632250Y-5465581D01*
X-5652462Y-5458349D01*
X-5671868Y-5449170D01*
X-5690281Y-5438134D01*
X-5707524Y-5425346D01*
X-5723430Y-5410930D01*
X-5737846Y-5395024D01*
X-5750634Y-5377781D01*
X-5761670Y-5359368D01*
X-5770849Y-5339962D01*
X-5778081Y-5319750D01*
X-5783297Y-5298926D01*
X-5786447Y-5277691D01*
X-5787500Y-5256250D01*
X-5787500Y-4743750D01*
X-5786447Y-4722309D01*
X-5783297Y-4701074D01*
X-5778081Y-4680250D01*
X-5770849Y-4660038D01*
X-5761670Y-4640632D01*
X-5750634Y-4622219D01*
X-5737846Y-4604976D01*
X-5723430Y-4589070D01*
X-5707524Y-4574654D01*
X-5690281Y-4561866D01*
X-5671868Y-4550830D01*
X-5652462Y-4541651D01*
X-5632250Y-4534419D01*
X-5611426Y-4529203D01*
X-5590191Y-4526053D01*
X-5568750Y-4525000D01*
X-5131250Y-4525000D01*
X-5109809Y-4526053D01*
G37*
G36*
X-6684809Y-4526053D02*
G01*
X-6663574Y-4529203D01*
X-6642750Y-4534419D01*
X-6622538Y-4541651D01*
X-6603132Y-4550830D01*
X-6584719Y-4561866D01*
X-6567476Y-4574654D01*
X-6551570Y-4589070D01*
X-6537154Y-4604976D01*
X-6524366Y-4622219D01*
X-6513330Y-4640632D01*
X-6504151Y-4660038D01*
X-6496919Y-4680250D01*
X-6491703Y-4701074D01*
X-6488553Y-4722309D01*
X-6487500Y-4743750D01*
X-6487500Y-5256250D01*
X-6488553Y-5277691D01*
X-6491703Y-5298926D01*
X-6496919Y-5319750D01*
X-6504151Y-5339962D01*
X-6513330Y-5359368D01*
X-6524366Y-5377781D01*
X-6537154Y-5395024D01*
X-6551570Y-5410930D01*
X-6567476Y-5425346D01*
X-6584719Y-5438134D01*
X-6603132Y-5449170D01*
X-6622538Y-5458349D01*
X-6642750Y-5465581D01*
X-6663574Y-5470797D01*
X-6684809Y-5473947D01*
X-6706250Y-5475000D01*
X-7143750Y-5475000D01*
X-7165191Y-5473947D01*
X-7186426Y-5470797D01*
X-7207250Y-5465581D01*
X-7227462Y-5458349D01*
X-7246868Y-5449170D01*
X-7265281Y-5438134D01*
X-7282524Y-5425346D01*
X-7298430Y-5410930D01*
X-7312846Y-5395024D01*
X-7325634Y-5377781D01*
X-7336670Y-5359368D01*
X-7345849Y-5339962D01*
X-7353081Y-5319750D01*
X-7358297Y-5298926D01*
X-7361447Y-5277691D01*
X-7362500Y-5256250D01*
X-7362500Y-4743750D01*
X-7361447Y-4722309D01*
X-7358297Y-4701074D01*
X-7353081Y-4680250D01*
X-7345849Y-4660038D01*
X-7336670Y-4640632D01*
X-7325634Y-4622219D01*
X-7312846Y-4604976D01*
X-7298430Y-4589070D01*
X-7282524Y-4574654D01*
X-7265281Y-4561866D01*
X-7246868Y-4550830D01*
X-7227462Y-4541651D01*
X-7207250Y-4534419D01*
X-7186426Y-4529203D01*
X-7165191Y-4526053D01*
X-7143750Y-4525000D01*
X-6706250Y-4525000D01*
X-6684809Y-4526053D01*
G37*
G36*
X32915191Y-10126053D02*
G01*
X32936426Y-10129203D01*
X32957250Y-10134419D01*
X32977462Y-10141651D01*
X32996868Y-10150830D01*
X33015281Y-10161866D01*
X33032524Y-10174654D01*
X33048430Y-10189070D01*
X33062846Y-10204976D01*
X33075634Y-10222219D01*
X33086670Y-10240632D01*
X33095849Y-10260038D01*
X33103081Y-10280250D01*
X33108297Y-10301074D01*
X33111447Y-10322309D01*
X33112500Y-10343750D01*
X33112500Y-10856250D01*
X33111447Y-10877691D01*
X33108297Y-10898926D01*
X33103081Y-10919750D01*
X33095849Y-10939962D01*
X33086670Y-10959368D01*
X33075634Y-10977781D01*
X33062846Y-10995024D01*
X33048430Y-11010930D01*
X33032524Y-11025346D01*
X33015281Y-11038134D01*
X32996868Y-11049170D01*
X32977462Y-11058349D01*
X32957250Y-11065581D01*
X32936426Y-11070797D01*
X32915191Y-11073947D01*
X32893750Y-11075000D01*
X32456250Y-11075000D01*
X32434809Y-11073947D01*
X32413574Y-11070797D01*
X32392750Y-11065581D01*
X32372538Y-11058349D01*
X32353132Y-11049170D01*
X32334719Y-11038134D01*
X32317476Y-11025346D01*
X32301570Y-11010930D01*
X32287154Y-10995024D01*
X32274366Y-10977781D01*
X32263330Y-10959368D01*
X32254151Y-10939962D01*
X32246919Y-10919750D01*
X32241703Y-10898926D01*
X32238553Y-10877691D01*
X32237500Y-10856250D01*
X32237500Y-10343750D01*
X32238553Y-10322309D01*
X32241703Y-10301074D01*
X32246919Y-10280250D01*
X32254151Y-10260038D01*
X32263330Y-10240632D01*
X32274366Y-10222219D01*
X32287154Y-10204976D01*
X32301570Y-10189070D01*
X32317476Y-10174654D01*
X32334719Y-10161866D01*
X32353132Y-10150830D01*
X32372538Y-10141651D01*
X32392750Y-10134419D01*
X32413574Y-10129203D01*
X32434809Y-10126053D01*
X32456250Y-10125000D01*
X32893750Y-10125000D01*
X32915191Y-10126053D01*
G37*
G36*
X31340191Y-10126053D02*
G01*
X31361426Y-10129203D01*
X31382250Y-10134419D01*
X31402462Y-10141651D01*
X31421868Y-10150830D01*
X31440281Y-10161866D01*
X31457524Y-10174654D01*
X31473430Y-10189070D01*
X31487846Y-10204976D01*
X31500634Y-10222219D01*
X31511670Y-10240632D01*
X31520849Y-10260038D01*
X31528081Y-10280250D01*
X31533297Y-10301074D01*
X31536447Y-10322309D01*
X31537500Y-10343750D01*
X31537500Y-10856250D01*
X31536447Y-10877691D01*
X31533297Y-10898926D01*
X31528081Y-10919750D01*
X31520849Y-10939962D01*
X31511670Y-10959368D01*
X31500634Y-10977781D01*
X31487846Y-10995024D01*
X31473430Y-11010930D01*
X31457524Y-11025346D01*
X31440281Y-11038134D01*
X31421868Y-11049170D01*
X31402462Y-11058349D01*
X31382250Y-11065581D01*
X31361426Y-11070797D01*
X31340191Y-11073947D01*
X31318750Y-11075000D01*
X30881250Y-11075000D01*
X30859809Y-11073947D01*
X30838574Y-11070797D01*
X30817750Y-11065581D01*
X30797538Y-11058349D01*
X30778132Y-11049170D01*
X30759719Y-11038134D01*
X30742476Y-11025346D01*
X30726570Y-11010930D01*
X30712154Y-10995024D01*
X30699366Y-10977781D01*
X30688330Y-10959368D01*
X30679151Y-10939962D01*
X30671919Y-10919750D01*
X30666703Y-10898926D01*
X30663553Y-10877691D01*
X30662500Y-10856250D01*
X30662500Y-10343750D01*
X30663553Y-10322309D01*
X30666703Y-10301074D01*
X30671919Y-10280250D01*
X30679151Y-10260038D01*
X30688330Y-10240632D01*
X30699366Y-10222219D01*
X30712154Y-10204976D01*
X30726570Y-10189070D01*
X30742476Y-10174654D01*
X30759719Y-10161866D01*
X30778132Y-10150830D01*
X30797538Y-10141651D01*
X30817750Y-10134419D01*
X30838574Y-10129203D01*
X30859809Y-10126053D01*
X30881250Y-10125000D01*
X31318750Y-10125000D01*
X31340191Y-10126053D01*
G37*
G36*
X28659691Y-4438553D02*
G01*
X28680926Y-4441703D01*
X28701750Y-4446919D01*
X28721962Y-4454151D01*
X28741368Y-4463330D01*
X28759781Y-4474366D01*
X28777024Y-4487154D01*
X28792930Y-4501570D01*
X28807346Y-4517476D01*
X28820134Y-4534719D01*
X28831170Y-4553132D01*
X28840349Y-4572538D01*
X28847581Y-4592750D01*
X28852797Y-4613574D01*
X28855947Y-4634809D01*
X28857000Y-4656250D01*
X28857000Y-5093750D01*
X28855947Y-5115191D01*
X28852797Y-5136426D01*
X28847581Y-5157250D01*
X28840349Y-5177462D01*
X28831170Y-5196868D01*
X28820134Y-5215281D01*
X28807346Y-5232524D01*
X28792930Y-5248430D01*
X28777024Y-5262846D01*
X28759781Y-5275634D01*
X28741368Y-5286670D01*
X28721962Y-5295849D01*
X28701750Y-5303081D01*
X28680926Y-5308297D01*
X28659691Y-5311447D01*
X28638250Y-5312500D01*
X28125750Y-5312500D01*
X28104309Y-5311447D01*
X28083074Y-5308297D01*
X28062250Y-5303081D01*
X28042038Y-5295849D01*
X28022632Y-5286670D01*
X28004219Y-5275634D01*
X27986976Y-5262846D01*
X27971070Y-5248430D01*
X27956654Y-5232524D01*
X27943866Y-5215281D01*
X27932830Y-5196868D01*
X27923651Y-5177462D01*
X27916419Y-5157250D01*
X27911203Y-5136426D01*
X27908053Y-5115191D01*
X27907000Y-5093750D01*
X27907000Y-4656250D01*
X27908053Y-4634809D01*
X27911203Y-4613574D01*
X27916419Y-4592750D01*
X27923651Y-4572538D01*
X27932830Y-4553132D01*
X27943866Y-4534719D01*
X27956654Y-4517476D01*
X27971070Y-4501570D01*
X27986976Y-4487154D01*
X28004219Y-4474366D01*
X28022632Y-4463330D01*
X28042038Y-4454151D01*
X28062250Y-4446919D01*
X28083074Y-4441703D01*
X28104309Y-4438553D01*
X28125750Y-4437500D01*
X28638250Y-4437500D01*
X28659691Y-4438553D01*
G37*
G36*
X28659691Y-6013553D02*
G01*
X28680926Y-6016703D01*
X28701750Y-6021919D01*
X28721962Y-6029151D01*
X28741368Y-6038330D01*
X28759781Y-6049366D01*
X28777024Y-6062154D01*
X28792930Y-6076570D01*
X28807346Y-6092476D01*
X28820134Y-6109719D01*
X28831170Y-6128132D01*
X28840349Y-6147538D01*
X28847581Y-6167750D01*
X28852797Y-6188574D01*
X28855947Y-6209809D01*
X28857000Y-6231250D01*
X28857000Y-6668750D01*
X28855947Y-6690191D01*
X28852797Y-6711426D01*
X28847581Y-6732250D01*
X28840349Y-6752462D01*
X28831170Y-6771868D01*
X28820134Y-6790281D01*
X28807346Y-6807524D01*
X28792930Y-6823430D01*
X28777024Y-6837846D01*
X28759781Y-6850634D01*
X28741368Y-6861670D01*
X28721962Y-6870849D01*
X28701750Y-6878081D01*
X28680926Y-6883297D01*
X28659691Y-6886447D01*
X28638250Y-6887500D01*
X28125750Y-6887500D01*
X28104309Y-6886447D01*
X28083074Y-6883297D01*
X28062250Y-6878081D01*
X28042038Y-6870849D01*
X28022632Y-6861670D01*
X28004219Y-6850634D01*
X27986976Y-6837846D01*
X27971070Y-6823430D01*
X27956654Y-6807524D01*
X27943866Y-6790281D01*
X27932830Y-6771868D01*
X27923651Y-6752462D01*
X27916419Y-6732250D01*
X27911203Y-6711426D01*
X27908053Y-6690191D01*
X27907000Y-6668750D01*
X27907000Y-6231250D01*
X27908053Y-6209809D01*
X27911203Y-6188574D01*
X27916419Y-6167750D01*
X27923651Y-6147538D01*
X27932830Y-6128132D01*
X27943866Y-6109719D01*
X27956654Y-6092476D01*
X27971070Y-6076570D01*
X27986976Y-6062154D01*
X28004219Y-6049366D01*
X28022632Y-6038330D01*
X28042038Y-6029151D01*
X28062250Y-6021919D01*
X28083074Y-6016703D01*
X28104309Y-6013553D01*
X28125750Y-6012500D01*
X28638250Y-6012500D01*
X28659691Y-6013553D01*
G37*
G36*
X22777691Y-15151053D02*
G01*
X22798926Y-15154203D01*
X22819750Y-15159419D01*
X22839962Y-15166651D01*
X22859368Y-15175830D01*
X22877781Y-15186866D01*
X22895024Y-15199654D01*
X22910930Y-15214070D01*
X22925346Y-15229976D01*
X22938134Y-15247219D01*
X22949170Y-15265632D01*
X22958349Y-15285038D01*
X22965581Y-15305250D01*
X22970797Y-15326074D01*
X22973947Y-15347309D01*
X22975000Y-15368750D01*
X22975000Y-15806250D01*
X22973947Y-15827691D01*
X22970797Y-15848926D01*
X22965581Y-15869750D01*
X22958349Y-15889962D01*
X22949170Y-15909368D01*
X22938134Y-15927781D01*
X22925346Y-15945024D01*
X22910930Y-15960930D01*
X22895024Y-15975346D01*
X22877781Y-15988134D01*
X22859368Y-15999170D01*
X22839962Y-16008349D01*
X22819750Y-16015581D01*
X22798926Y-16020797D01*
X22777691Y-16023947D01*
X22756250Y-16025000D01*
X22243750Y-16025000D01*
X22222309Y-16023947D01*
X22201074Y-16020797D01*
X22180250Y-16015581D01*
X22160038Y-16008349D01*
X22140632Y-15999170D01*
X22122219Y-15988134D01*
X22104976Y-15975346D01*
X22089070Y-15960930D01*
X22074654Y-15945024D01*
X22061866Y-15927781D01*
X22050830Y-15909368D01*
X22041651Y-15889962D01*
X22034419Y-15869750D01*
X22029203Y-15848926D01*
X22026053Y-15827691D01*
X22025000Y-15806250D01*
X22025000Y-15368750D01*
X22026053Y-15347309D01*
X22029203Y-15326074D01*
X22034419Y-15305250D01*
X22041651Y-15285038D01*
X22050830Y-15265632D01*
X22061866Y-15247219D01*
X22074654Y-15229976D01*
X22089070Y-15214070D01*
X22104976Y-15199654D01*
X22122219Y-15186866D01*
X22140632Y-15175830D01*
X22160038Y-15166651D01*
X22180250Y-15159419D01*
X22201074Y-15154203D01*
X22222309Y-15151053D01*
X22243750Y-15150000D01*
X22756250Y-15150000D01*
X22777691Y-15151053D01*
G37*
G36*
X22777691Y-13576053D02*
G01*
X22798926Y-13579203D01*
X22819750Y-13584419D01*
X22839962Y-13591651D01*
X22859368Y-13600830D01*
X22877781Y-13611866D01*
X22895024Y-13624654D01*
X22910930Y-13639070D01*
X22925346Y-13654976D01*
X22938134Y-13672219D01*
X22949170Y-13690632D01*
X22958349Y-13710038D01*
X22965581Y-13730250D01*
X22970797Y-13751074D01*
X22973947Y-13772309D01*
X22975000Y-13793750D01*
X22975000Y-14231250D01*
X22973947Y-14252691D01*
X22970797Y-14273926D01*
X22965581Y-14294750D01*
X22958349Y-14314962D01*
X22949170Y-14334368D01*
X22938134Y-14352781D01*
X22925346Y-14370024D01*
X22910930Y-14385930D01*
X22895024Y-14400346D01*
X22877781Y-14413134D01*
X22859368Y-14424170D01*
X22839962Y-14433349D01*
X22819750Y-14440581D01*
X22798926Y-14445797D01*
X22777691Y-14448947D01*
X22756250Y-14450000D01*
X22243750Y-14450000D01*
X22222309Y-14448947D01*
X22201074Y-14445797D01*
X22180250Y-14440581D01*
X22160038Y-14433349D01*
X22140632Y-14424170D01*
X22122219Y-14413134D01*
X22104976Y-14400346D01*
X22089070Y-14385930D01*
X22074654Y-14370024D01*
X22061866Y-14352781D01*
X22050830Y-14334368D01*
X22041651Y-14314962D01*
X22034419Y-14294750D01*
X22029203Y-14273926D01*
X22026053Y-14252691D01*
X22025000Y-14231250D01*
X22025000Y-13793750D01*
X22026053Y-13772309D01*
X22029203Y-13751074D01*
X22034419Y-13730250D01*
X22041651Y-13710038D01*
X22050830Y-13690632D01*
X22061866Y-13672219D01*
X22074654Y-13654976D01*
X22089070Y-13639070D01*
X22104976Y-13624654D01*
X22122219Y-13611866D01*
X22140632Y-13600830D01*
X22160038Y-13591651D01*
X22180250Y-13584419D01*
X22201074Y-13579203D01*
X22222309Y-13576053D01*
X22243750Y-13575000D01*
X22756250Y-13575000D01*
X22777691Y-13576053D01*
G37*
G36*
X32915191Y-11776053D02*
G01*
X32936426Y-11779203D01*
X32957250Y-11784419D01*
X32977462Y-11791651D01*
X32996868Y-11800830D01*
X33015281Y-11811866D01*
X33032524Y-11824654D01*
X33048430Y-11839070D01*
X33062846Y-11854976D01*
X33075634Y-11872219D01*
X33086670Y-11890632D01*
X33095849Y-11910038D01*
X33103081Y-11930250D01*
X33108297Y-11951074D01*
X33111447Y-11972309D01*
X33112500Y-11993750D01*
X33112500Y-12506250D01*
X33111447Y-12527691D01*
X33108297Y-12548926D01*
X33103081Y-12569750D01*
X33095849Y-12589962D01*
X33086670Y-12609368D01*
X33075634Y-12627781D01*
X33062846Y-12645024D01*
X33048430Y-12660930D01*
X33032524Y-12675346D01*
X33015281Y-12688134D01*
X32996868Y-12699170D01*
X32977462Y-12708349D01*
X32957250Y-12715581D01*
X32936426Y-12720797D01*
X32915191Y-12723947D01*
X32893750Y-12725000D01*
X32456250Y-12725000D01*
X32434809Y-12723947D01*
X32413574Y-12720797D01*
X32392750Y-12715581D01*
X32372538Y-12708349D01*
X32353132Y-12699170D01*
X32334719Y-12688134D01*
X32317476Y-12675346D01*
X32301570Y-12660930D01*
X32287154Y-12645024D01*
X32274366Y-12627781D01*
X32263330Y-12609368D01*
X32254151Y-12589962D01*
X32246919Y-12569750D01*
X32241703Y-12548926D01*
X32238553Y-12527691D01*
X32237500Y-12506250D01*
X32237500Y-11993750D01*
X32238553Y-11972309D01*
X32241703Y-11951074D01*
X32246919Y-11930250D01*
X32254151Y-11910038D01*
X32263330Y-11890632D01*
X32274366Y-11872219D01*
X32287154Y-11854976D01*
X32301570Y-11839070D01*
X32317476Y-11824654D01*
X32334719Y-11811866D01*
X32353132Y-11800830D01*
X32372538Y-11791651D01*
X32392750Y-11784419D01*
X32413574Y-11779203D01*
X32434809Y-11776053D01*
X32456250Y-11775000D01*
X32893750Y-11775000D01*
X32915191Y-11776053D01*
G37*
G36*
X31340191Y-11776053D02*
G01*
X31361426Y-11779203D01*
X31382250Y-11784419D01*
X31402462Y-11791651D01*
X31421868Y-11800830D01*
X31440281Y-11811866D01*
X31457524Y-11824654D01*
X31473430Y-11839070D01*
X31487846Y-11854976D01*
X31500634Y-11872219D01*
X31511670Y-11890632D01*
X31520849Y-11910038D01*
X31528081Y-11930250D01*
X31533297Y-11951074D01*
X31536447Y-11972309D01*
X31537500Y-11993750D01*
X31537500Y-12506250D01*
X31536447Y-12527691D01*
X31533297Y-12548926D01*
X31528081Y-12569750D01*
X31520849Y-12589962D01*
X31511670Y-12609368D01*
X31500634Y-12627781D01*
X31487846Y-12645024D01*
X31473430Y-12660930D01*
X31457524Y-12675346D01*
X31440281Y-12688134D01*
X31421868Y-12699170D01*
X31402462Y-12708349D01*
X31382250Y-12715581D01*
X31361426Y-12720797D01*
X31340191Y-12723947D01*
X31318750Y-12725000D01*
X30881250Y-12725000D01*
X30859809Y-12723947D01*
X30838574Y-12720797D01*
X30817750Y-12715581D01*
X30797538Y-12708349D01*
X30778132Y-12699170D01*
X30759719Y-12688134D01*
X30742476Y-12675346D01*
X30726570Y-12660930D01*
X30712154Y-12645024D01*
X30699366Y-12627781D01*
X30688330Y-12609368D01*
X30679151Y-12589962D01*
X30671919Y-12569750D01*
X30666703Y-12548926D01*
X30663553Y-12527691D01*
X30662500Y-12506250D01*
X30662500Y-11993750D01*
X30663553Y-11972309D01*
X30666703Y-11951074D01*
X30671919Y-11930250D01*
X30679151Y-11910038D01*
X30688330Y-11890632D01*
X30699366Y-11872219D01*
X30712154Y-11854976D01*
X30726570Y-11839070D01*
X30742476Y-11824654D01*
X30759719Y-11811866D01*
X30778132Y-11800830D01*
X30797538Y-11791651D01*
X30817750Y-11784419D01*
X30838574Y-11779203D01*
X30859809Y-11776053D01*
X30881250Y-11775000D01*
X31318750Y-11775000D01*
X31340191Y-11776053D01*
G37*
G36*
X17352691Y-18812053D02*
G01*
X17373926Y-18815203D01*
X17394750Y-18820419D01*
X17414962Y-18827651D01*
X17434368Y-18836830D01*
X17452781Y-18847866D01*
X17470024Y-18860654D01*
X17485930Y-18875070D01*
X17500346Y-18890976D01*
X17513134Y-18908219D01*
X17524170Y-18926632D01*
X17533349Y-18946038D01*
X17540581Y-18966250D01*
X17545797Y-18987074D01*
X17548947Y-19008309D01*
X17550000Y-19029750D01*
X17550000Y-19542250D01*
X17548947Y-19563691D01*
X17545797Y-19584926D01*
X17540581Y-19605750D01*
X17533349Y-19625962D01*
X17524170Y-19645368D01*
X17513134Y-19663781D01*
X17500346Y-19681024D01*
X17485930Y-19696930D01*
X17470024Y-19711346D01*
X17452781Y-19724134D01*
X17434368Y-19735170D01*
X17414962Y-19744349D01*
X17394750Y-19751581D01*
X17373926Y-19756797D01*
X17352691Y-19759947D01*
X17331250Y-19761000D01*
X16893750Y-19761000D01*
X16872309Y-19759947D01*
X16851074Y-19756797D01*
X16830250Y-19751581D01*
X16810038Y-19744349D01*
X16790632Y-19735170D01*
X16772219Y-19724134D01*
X16754976Y-19711346D01*
X16739070Y-19696930D01*
X16724654Y-19681024D01*
X16711866Y-19663781D01*
X16700830Y-19645368D01*
X16691651Y-19625962D01*
X16684419Y-19605750D01*
X16679203Y-19584926D01*
X16676053Y-19563691D01*
X16675000Y-19542250D01*
X16675000Y-19029750D01*
X16676053Y-19008309D01*
X16679203Y-18987074D01*
X16684419Y-18966250D01*
X16691651Y-18946038D01*
X16700830Y-18926632D01*
X16711866Y-18908219D01*
X16724654Y-18890976D01*
X16739070Y-18875070D01*
X16754976Y-18860654D01*
X16772219Y-18847866D01*
X16790632Y-18836830D01*
X16810038Y-18827651D01*
X16830250Y-18820419D01*
X16851074Y-18815203D01*
X16872309Y-18812053D01*
X16893750Y-18811000D01*
X17331250Y-18811000D01*
X17352691Y-18812053D01*
G37*
G36*
X18927691Y-18812053D02*
G01*
X18948926Y-18815203D01*
X18969750Y-18820419D01*
X18989962Y-18827651D01*
X19009368Y-18836830D01*
X19027781Y-18847866D01*
X19045024Y-18860654D01*
X19060930Y-18875070D01*
X19075346Y-18890976D01*
X19088134Y-18908219D01*
X19099170Y-18926632D01*
X19108349Y-18946038D01*
X19115581Y-18966250D01*
X19120797Y-18987074D01*
X19123947Y-19008309D01*
X19125000Y-19029750D01*
X19125000Y-19542250D01*
X19123947Y-19563691D01*
X19120797Y-19584926D01*
X19115581Y-19605750D01*
X19108349Y-19625962D01*
X19099170Y-19645368D01*
X19088134Y-19663781D01*
X19075346Y-19681024D01*
X19060930Y-19696930D01*
X19045024Y-19711346D01*
X19027781Y-19724134D01*
X19009368Y-19735170D01*
X18989962Y-19744349D01*
X18969750Y-19751581D01*
X18948926Y-19756797D01*
X18927691Y-19759947D01*
X18906250Y-19761000D01*
X18468750Y-19761000D01*
X18447309Y-19759947D01*
X18426074Y-19756797D01*
X18405250Y-19751581D01*
X18385038Y-19744349D01*
X18365632Y-19735170D01*
X18347219Y-19724134D01*
X18329976Y-19711346D01*
X18314070Y-19696930D01*
X18299654Y-19681024D01*
X18286866Y-19663781D01*
X18275830Y-19645368D01*
X18266651Y-19625962D01*
X18259419Y-19605750D01*
X18254203Y-19584926D01*
X18251053Y-19563691D01*
X18250000Y-19542250D01*
X18250000Y-19029750D01*
X18251053Y-19008309D01*
X18254203Y-18987074D01*
X18259419Y-18966250D01*
X18266651Y-18946038D01*
X18275830Y-18926632D01*
X18286866Y-18908219D01*
X18299654Y-18890976D01*
X18314070Y-18875070D01*
X18329976Y-18860654D01*
X18347219Y-18847866D01*
X18365632Y-18836830D01*
X18385038Y-18827651D01*
X18405250Y-18820419D01*
X18426074Y-18815203D01*
X18447309Y-18812053D01*
X18468750Y-18811000D01*
X18906250Y-18811000D01*
X18927691Y-18812053D01*
G37*
D20*
X14950000Y-32050000D03*
D21*
X8650000Y-32050000D03*
X8650000Y-34350000D03*
X8650000Y-29750000D03*
D10*
G36*
X15777691Y-38951053D02*
G01*
X15798926Y-38954203D01*
X15819750Y-38959419D01*
X15839962Y-38966651D01*
X15859368Y-38975830D01*
X15877781Y-38986866D01*
X15895024Y-38999654D01*
X15910930Y-39014070D01*
X15925346Y-39029976D01*
X15938134Y-39047219D01*
X15949170Y-39065632D01*
X15958349Y-39085038D01*
X15965581Y-39105250D01*
X15970797Y-39126074D01*
X15973947Y-39147309D01*
X15975000Y-39168750D01*
X15975000Y-39606250D01*
X15973947Y-39627691D01*
X15970797Y-39648926D01*
X15965581Y-39669750D01*
X15958349Y-39689962D01*
X15949170Y-39709368D01*
X15938134Y-39727781D01*
X15925346Y-39745024D01*
X15910930Y-39760930D01*
X15895024Y-39775346D01*
X15877781Y-39788134D01*
X15859368Y-39799170D01*
X15839962Y-39808349D01*
X15819750Y-39815581D01*
X15798926Y-39820797D01*
X15777691Y-39823947D01*
X15756250Y-39825000D01*
X15243750Y-39825000D01*
X15222309Y-39823947D01*
X15201074Y-39820797D01*
X15180250Y-39815581D01*
X15160038Y-39808349D01*
X15140632Y-39799170D01*
X15122219Y-39788134D01*
X15104976Y-39775346D01*
X15089070Y-39760930D01*
X15074654Y-39745024D01*
X15061866Y-39727781D01*
X15050830Y-39709368D01*
X15041651Y-39689962D01*
X15034419Y-39669750D01*
X15029203Y-39648926D01*
X15026053Y-39627691D01*
X15025000Y-39606250D01*
X15025000Y-39168750D01*
X15026053Y-39147309D01*
X15029203Y-39126074D01*
X15034419Y-39105250D01*
X15041651Y-39085038D01*
X15050830Y-39065632D01*
X15061866Y-39047219D01*
X15074654Y-39029976D01*
X15089070Y-39014070D01*
X15104976Y-38999654D01*
X15122219Y-38986866D01*
X15140632Y-38975830D01*
X15160038Y-38966651D01*
X15180250Y-38959419D01*
X15201074Y-38954203D01*
X15222309Y-38951053D01*
X15243750Y-38950000D01*
X15756250Y-38950000D01*
X15777691Y-38951053D01*
G37*
G36*
X15777691Y-37376053D02*
G01*
X15798926Y-37379203D01*
X15819750Y-37384419D01*
X15839962Y-37391651D01*
X15859368Y-37400830D01*
X15877781Y-37411866D01*
X15895024Y-37424654D01*
X15910930Y-37439070D01*
X15925346Y-37454976D01*
X15938134Y-37472219D01*
X15949170Y-37490632D01*
X15958349Y-37510038D01*
X15965581Y-37530250D01*
X15970797Y-37551074D01*
X15973947Y-37572309D01*
X15975000Y-37593750D01*
X15975000Y-38031250D01*
X15973947Y-38052691D01*
X15970797Y-38073926D01*
X15965581Y-38094750D01*
X15958349Y-38114962D01*
X15949170Y-38134368D01*
X15938134Y-38152781D01*
X15925346Y-38170024D01*
X15910930Y-38185930D01*
X15895024Y-38200346D01*
X15877781Y-38213134D01*
X15859368Y-38224170D01*
X15839962Y-38233349D01*
X15819750Y-38240581D01*
X15798926Y-38245797D01*
X15777691Y-38248947D01*
X15756250Y-38250000D01*
X15243750Y-38250000D01*
X15222309Y-38248947D01*
X15201074Y-38245797D01*
X15180250Y-38240581D01*
X15160038Y-38233349D01*
X15140632Y-38224170D01*
X15122219Y-38213134D01*
X15104976Y-38200346D01*
X15089070Y-38185930D01*
X15074654Y-38170024D01*
X15061866Y-38152781D01*
X15050830Y-38134368D01*
X15041651Y-38114962D01*
X15034419Y-38094750D01*
X15029203Y-38073926D01*
X15026053Y-38052691D01*
X15025000Y-38031250D01*
X15025000Y-37593750D01*
X15026053Y-37572309D01*
X15029203Y-37551074D01*
X15034419Y-37530250D01*
X15041651Y-37510038D01*
X15050830Y-37490632D01*
X15061866Y-37472219D01*
X15074654Y-37454976D01*
X15089070Y-37439070D01*
X15104976Y-37424654D01*
X15122219Y-37411866D01*
X15140632Y-37400830D01*
X15160038Y-37391651D01*
X15180250Y-37384419D01*
X15201074Y-37379203D01*
X15222309Y-37376053D01*
X15243750Y-37375000D01*
X15756250Y-37375000D01*
X15777691Y-37376053D01*
G37*
G36*
X5952691Y-35126053D02*
G01*
X5973926Y-35129203D01*
X5994750Y-35134419D01*
X6014962Y-35141651D01*
X6034368Y-35150830D01*
X6052781Y-35161866D01*
X6070024Y-35174654D01*
X6085930Y-35189070D01*
X6100346Y-35204976D01*
X6113134Y-35222219D01*
X6124170Y-35240632D01*
X6133349Y-35260038D01*
X6140581Y-35280250D01*
X6145797Y-35301074D01*
X6148947Y-35322309D01*
X6150000Y-35343750D01*
X6150000Y-35856250D01*
X6148947Y-35877691D01*
X6145797Y-35898926D01*
X6140581Y-35919750D01*
X6133349Y-35939962D01*
X6124170Y-35959368D01*
X6113134Y-35977781D01*
X6100346Y-35995024D01*
X6085930Y-36010930D01*
X6070024Y-36025346D01*
X6052781Y-36038134D01*
X6034368Y-36049170D01*
X6014962Y-36058349D01*
X5994750Y-36065581D01*
X5973926Y-36070797D01*
X5952691Y-36073947D01*
X5931250Y-36075000D01*
X5493750Y-36075000D01*
X5472309Y-36073947D01*
X5451074Y-36070797D01*
X5430250Y-36065581D01*
X5410038Y-36058349D01*
X5390632Y-36049170D01*
X5372219Y-36038134D01*
X5354976Y-36025346D01*
X5339070Y-36010930D01*
X5324654Y-35995024D01*
X5311866Y-35977781D01*
X5300830Y-35959368D01*
X5291651Y-35939962D01*
X5284419Y-35919750D01*
X5279203Y-35898926D01*
X5276053Y-35877691D01*
X5275000Y-35856250D01*
X5275000Y-35343750D01*
X5276053Y-35322309D01*
X5279203Y-35301074D01*
X5284419Y-35280250D01*
X5291651Y-35260038D01*
X5300830Y-35240632D01*
X5311866Y-35222219D01*
X5324654Y-35204976D01*
X5339070Y-35189070D01*
X5354976Y-35174654D01*
X5372219Y-35161866D01*
X5390632Y-35150830D01*
X5410038Y-35141651D01*
X5430250Y-35134419D01*
X5451074Y-35129203D01*
X5472309Y-35126053D01*
X5493750Y-35125000D01*
X5931250Y-35125000D01*
X5952691Y-35126053D01*
G37*
G36*
X4377691Y-35126053D02*
G01*
X4398926Y-35129203D01*
X4419750Y-35134419D01*
X4439962Y-35141651D01*
X4459368Y-35150830D01*
X4477781Y-35161866D01*
X4495024Y-35174654D01*
X4510930Y-35189070D01*
X4525346Y-35204976D01*
X4538134Y-35222219D01*
X4549170Y-35240632D01*
X4558349Y-35260038D01*
X4565581Y-35280250D01*
X4570797Y-35301074D01*
X4573947Y-35322309D01*
X4575000Y-35343750D01*
X4575000Y-35856250D01*
X4573947Y-35877691D01*
X4570797Y-35898926D01*
X4565581Y-35919750D01*
X4558349Y-35939962D01*
X4549170Y-35959368D01*
X4538134Y-35977781D01*
X4525346Y-35995024D01*
X4510930Y-36010930D01*
X4495024Y-36025346D01*
X4477781Y-36038134D01*
X4459368Y-36049170D01*
X4439962Y-36058349D01*
X4419750Y-36065581D01*
X4398926Y-36070797D01*
X4377691Y-36073947D01*
X4356250Y-36075000D01*
X3918750Y-36075000D01*
X3897309Y-36073947D01*
X3876074Y-36070797D01*
X3855250Y-36065581D01*
X3835038Y-36058349D01*
X3815632Y-36049170D01*
X3797219Y-36038134D01*
X3779976Y-36025346D01*
X3764070Y-36010930D01*
X3749654Y-35995024D01*
X3736866Y-35977781D01*
X3725830Y-35959368D01*
X3716651Y-35939962D01*
X3709419Y-35919750D01*
X3704203Y-35898926D01*
X3701053Y-35877691D01*
X3700000Y-35856250D01*
X3700000Y-35343750D01*
X3701053Y-35322309D01*
X3704203Y-35301074D01*
X3709419Y-35280250D01*
X3716651Y-35260038D01*
X3725830Y-35240632D01*
X3736866Y-35222219D01*
X3749654Y-35204976D01*
X3764070Y-35189070D01*
X3779976Y-35174654D01*
X3797219Y-35161866D01*
X3815632Y-35150830D01*
X3835038Y-35141651D01*
X3855250Y-35134419D01*
X3876074Y-35129203D01*
X3897309Y-35126053D01*
X3918750Y-35125000D01*
X4356250Y-35125000D01*
X4377691Y-35126053D01*
G37*
G36*
X17352691Y-17034053D02*
G01*
X17373926Y-17037203D01*
X17394750Y-17042419D01*
X17414962Y-17049651D01*
X17434368Y-17058830D01*
X17452781Y-17069866D01*
X17470024Y-17082654D01*
X17485930Y-17097070D01*
X17500346Y-17112976D01*
X17513134Y-17130219D01*
X17524170Y-17148632D01*
X17533349Y-17168038D01*
X17540581Y-17188250D01*
X17545797Y-17209074D01*
X17548947Y-17230309D01*
X17550000Y-17251750D01*
X17550000Y-17764250D01*
X17548947Y-17785691D01*
X17545797Y-17806926D01*
X17540581Y-17827750D01*
X17533349Y-17847962D01*
X17524170Y-17867368D01*
X17513134Y-17885781D01*
X17500346Y-17903024D01*
X17485930Y-17918930D01*
X17470024Y-17933346D01*
X17452781Y-17946134D01*
X17434368Y-17957170D01*
X17414962Y-17966349D01*
X17394750Y-17973581D01*
X17373926Y-17978797D01*
X17352691Y-17981947D01*
X17331250Y-17983000D01*
X16893750Y-17983000D01*
X16872309Y-17981947D01*
X16851074Y-17978797D01*
X16830250Y-17973581D01*
X16810038Y-17966349D01*
X16790632Y-17957170D01*
X16772219Y-17946134D01*
X16754976Y-17933346D01*
X16739070Y-17918930D01*
X16724654Y-17903024D01*
X16711866Y-17885781D01*
X16700830Y-17867368D01*
X16691651Y-17847962D01*
X16684419Y-17827750D01*
X16679203Y-17806926D01*
X16676053Y-17785691D01*
X16675000Y-17764250D01*
X16675000Y-17251750D01*
X16676053Y-17230309D01*
X16679203Y-17209074D01*
X16684419Y-17188250D01*
X16691651Y-17168038D01*
X16700830Y-17148632D01*
X16711866Y-17130219D01*
X16724654Y-17112976D01*
X16739070Y-17097070D01*
X16754976Y-17082654D01*
X16772219Y-17069866D01*
X16790632Y-17058830D01*
X16810038Y-17049651D01*
X16830250Y-17042419D01*
X16851074Y-17037203D01*
X16872309Y-17034053D01*
X16893750Y-17033000D01*
X17331250Y-17033000D01*
X17352691Y-17034053D01*
G37*
G36*
X18927691Y-17034053D02*
G01*
X18948926Y-17037203D01*
X18969750Y-17042419D01*
X18989962Y-17049651D01*
X19009368Y-17058830D01*
X19027781Y-17069866D01*
X19045024Y-17082654D01*
X19060930Y-17097070D01*
X19075346Y-17112976D01*
X19088134Y-17130219D01*
X19099170Y-17148632D01*
X19108349Y-17168038D01*
X19115581Y-17188250D01*
X19120797Y-17209074D01*
X19123947Y-17230309D01*
X19125000Y-17251750D01*
X19125000Y-17764250D01*
X19123947Y-17785691D01*
X19120797Y-17806926D01*
X19115581Y-17827750D01*
X19108349Y-17847962D01*
X19099170Y-17867368D01*
X19088134Y-17885781D01*
X19075346Y-17903024D01*
X19060930Y-17918930D01*
X19045024Y-17933346D01*
X19027781Y-17946134D01*
X19009368Y-17957170D01*
X18989962Y-17966349D01*
X18969750Y-17973581D01*
X18948926Y-17978797D01*
X18927691Y-17981947D01*
X18906250Y-17983000D01*
X18468750Y-17983000D01*
X18447309Y-17981947D01*
X18426074Y-17978797D01*
X18405250Y-17973581D01*
X18385038Y-17966349D01*
X18365632Y-17957170D01*
X18347219Y-17946134D01*
X18329976Y-17933346D01*
X18314070Y-17918930D01*
X18299654Y-17903024D01*
X18286866Y-17885781D01*
X18275830Y-17867368D01*
X18266651Y-17847962D01*
X18259419Y-17827750D01*
X18254203Y-17806926D01*
X18251053Y-17785691D01*
X18250000Y-17764250D01*
X18250000Y-17251750D01*
X18251053Y-17230309D01*
X18254203Y-17209074D01*
X18259419Y-17188250D01*
X18266651Y-17168038D01*
X18275830Y-17148632D01*
X18286866Y-17130219D01*
X18299654Y-17112976D01*
X18314070Y-17097070D01*
X18329976Y-17082654D01*
X18347219Y-17069866D01*
X18365632Y-17058830D01*
X18385038Y-17049651D01*
X18405250Y-17042419D01*
X18426074Y-17037203D01*
X18447309Y-17034053D01*
X18468750Y-17033000D01*
X18906250Y-17033000D01*
X18927691Y-17034053D01*
G37*
G36*
X13702691Y-37376053D02*
G01*
X13723926Y-37379203D01*
X13744750Y-37384419D01*
X13764962Y-37391651D01*
X13784368Y-37400830D01*
X13802781Y-37411866D01*
X13820024Y-37424654D01*
X13835930Y-37439070D01*
X13850346Y-37454976D01*
X13863134Y-37472219D01*
X13874170Y-37490632D01*
X13883349Y-37510038D01*
X13890581Y-37530250D01*
X13895797Y-37551074D01*
X13898947Y-37572309D01*
X13900000Y-37593750D01*
X13900000Y-38031250D01*
X13898947Y-38052691D01*
X13895797Y-38073926D01*
X13890581Y-38094750D01*
X13883349Y-38114962D01*
X13874170Y-38134368D01*
X13863134Y-38152781D01*
X13850346Y-38170024D01*
X13835930Y-38185930D01*
X13820024Y-38200346D01*
X13802781Y-38213134D01*
X13784368Y-38224170D01*
X13764962Y-38233349D01*
X13744750Y-38240581D01*
X13723926Y-38245797D01*
X13702691Y-38248947D01*
X13681250Y-38250000D01*
X13168750Y-38250000D01*
X13147309Y-38248947D01*
X13126074Y-38245797D01*
X13105250Y-38240581D01*
X13085038Y-38233349D01*
X13065632Y-38224170D01*
X13047219Y-38213134D01*
X13029976Y-38200346D01*
X13014070Y-38185930D01*
X12999654Y-38170024D01*
X12986866Y-38152781D01*
X12975830Y-38134368D01*
X12966651Y-38114962D01*
X12959419Y-38094750D01*
X12954203Y-38073926D01*
X12951053Y-38052691D01*
X12950000Y-38031250D01*
X12950000Y-37593750D01*
X12951053Y-37572309D01*
X12954203Y-37551074D01*
X12959419Y-37530250D01*
X12966651Y-37510038D01*
X12975830Y-37490632D01*
X12986866Y-37472219D01*
X12999654Y-37454976D01*
X13014070Y-37439070D01*
X13029976Y-37424654D01*
X13047219Y-37411866D01*
X13065632Y-37400830D01*
X13085038Y-37391651D01*
X13105250Y-37384419D01*
X13126074Y-37379203D01*
X13147309Y-37376053D01*
X13168750Y-37375000D01*
X13681250Y-37375000D01*
X13702691Y-37376053D01*
G37*
G36*
X13702691Y-38951053D02*
G01*
X13723926Y-38954203D01*
X13744750Y-38959419D01*
X13764962Y-38966651D01*
X13784368Y-38975830D01*
X13802781Y-38986866D01*
X13820024Y-38999654D01*
X13835930Y-39014070D01*
X13850346Y-39029976D01*
X13863134Y-39047219D01*
X13874170Y-39065632D01*
X13883349Y-39085038D01*
X13890581Y-39105250D01*
X13895797Y-39126074D01*
X13898947Y-39147309D01*
X13900000Y-39168750D01*
X13900000Y-39606250D01*
X13898947Y-39627691D01*
X13895797Y-39648926D01*
X13890581Y-39669750D01*
X13883349Y-39689962D01*
X13874170Y-39709368D01*
X13863134Y-39727781D01*
X13850346Y-39745024D01*
X13835930Y-39760930D01*
X13820024Y-39775346D01*
X13802781Y-39788134D01*
X13784368Y-39799170D01*
X13764962Y-39808349D01*
X13744750Y-39815581D01*
X13723926Y-39820797D01*
X13702691Y-39823947D01*
X13681250Y-39825000D01*
X13168750Y-39825000D01*
X13147309Y-39823947D01*
X13126074Y-39820797D01*
X13105250Y-39815581D01*
X13085038Y-39808349D01*
X13065632Y-39799170D01*
X13047219Y-39788134D01*
X13029976Y-39775346D01*
X13014070Y-39760930D01*
X12999654Y-39745024D01*
X12986866Y-39727781D01*
X12975830Y-39709368D01*
X12966651Y-39689962D01*
X12959419Y-39669750D01*
X12954203Y-39648926D01*
X12951053Y-39627691D01*
X12950000Y-39606250D01*
X12950000Y-39168750D01*
X12951053Y-39147309D01*
X12954203Y-39126074D01*
X12959419Y-39105250D01*
X12966651Y-39085038D01*
X12975830Y-39065632D01*
X12986866Y-39047219D01*
X12999654Y-39029976D01*
X13014070Y-39014070D01*
X13029976Y-38999654D01*
X13047219Y-38986866D01*
X13065632Y-38975830D01*
X13085038Y-38966651D01*
X13105250Y-38959419D01*
X13126074Y-38954203D01*
X13147309Y-38951053D01*
X13168750Y-38950000D01*
X13681250Y-38950000D01*
X13702691Y-38951053D01*
G37*
G36*
X17352691Y-15256053D02*
G01*
X17373926Y-15259203D01*
X17394750Y-15264419D01*
X17414962Y-15271651D01*
X17434368Y-15280830D01*
X17452781Y-15291866D01*
X17470024Y-15304654D01*
X17485930Y-15319070D01*
X17500346Y-15334976D01*
X17513134Y-15352219D01*
X17524170Y-15370632D01*
X17533349Y-15390038D01*
X17540581Y-15410250D01*
X17545797Y-15431074D01*
X17548947Y-15452309D01*
X17550000Y-15473750D01*
X17550000Y-15986250D01*
X17548947Y-16007691D01*
X17545797Y-16028926D01*
X17540581Y-16049750D01*
X17533349Y-16069962D01*
X17524170Y-16089368D01*
X17513134Y-16107781D01*
X17500346Y-16125024D01*
X17485930Y-16140930D01*
X17470024Y-16155346D01*
X17452781Y-16168134D01*
X17434368Y-16179170D01*
X17414962Y-16188349D01*
X17394750Y-16195581D01*
X17373926Y-16200797D01*
X17352691Y-16203947D01*
X17331250Y-16205000D01*
X16893750Y-16205000D01*
X16872309Y-16203947D01*
X16851074Y-16200797D01*
X16830250Y-16195581D01*
X16810038Y-16188349D01*
X16790632Y-16179170D01*
X16772219Y-16168134D01*
X16754976Y-16155346D01*
X16739070Y-16140930D01*
X16724654Y-16125024D01*
X16711866Y-16107781D01*
X16700830Y-16089368D01*
X16691651Y-16069962D01*
X16684419Y-16049750D01*
X16679203Y-16028926D01*
X16676053Y-16007691D01*
X16675000Y-15986250D01*
X16675000Y-15473750D01*
X16676053Y-15452309D01*
X16679203Y-15431074D01*
X16684419Y-15410250D01*
X16691651Y-15390038D01*
X16700830Y-15370632D01*
X16711866Y-15352219D01*
X16724654Y-15334976D01*
X16739070Y-15319070D01*
X16754976Y-15304654D01*
X16772219Y-15291866D01*
X16790632Y-15280830D01*
X16810038Y-15271651D01*
X16830250Y-15264419D01*
X16851074Y-15259203D01*
X16872309Y-15256053D01*
X16893750Y-15255000D01*
X17331250Y-15255000D01*
X17352691Y-15256053D01*
G37*
G36*
X18927691Y-15256053D02*
G01*
X18948926Y-15259203D01*
X18969750Y-15264419D01*
X18989962Y-15271651D01*
X19009368Y-15280830D01*
X19027781Y-15291866D01*
X19045024Y-15304654D01*
X19060930Y-15319070D01*
X19075346Y-15334976D01*
X19088134Y-15352219D01*
X19099170Y-15370632D01*
X19108349Y-15390038D01*
X19115581Y-15410250D01*
X19120797Y-15431074D01*
X19123947Y-15452309D01*
X19125000Y-15473750D01*
X19125000Y-15986250D01*
X19123947Y-16007691D01*
X19120797Y-16028926D01*
X19115581Y-16049750D01*
X19108349Y-16069962D01*
X19099170Y-16089368D01*
X19088134Y-16107781D01*
X19075346Y-16125024D01*
X19060930Y-16140930D01*
X19045024Y-16155346D01*
X19027781Y-16168134D01*
X19009368Y-16179170D01*
X18989962Y-16188349D01*
X18969750Y-16195581D01*
X18948926Y-16200797D01*
X18927691Y-16203947D01*
X18906250Y-16205000D01*
X18468750Y-16205000D01*
X18447309Y-16203947D01*
X18426074Y-16200797D01*
X18405250Y-16195581D01*
X18385038Y-16188349D01*
X18365632Y-16179170D01*
X18347219Y-16168134D01*
X18329976Y-16155346D01*
X18314070Y-16140930D01*
X18299654Y-16125024D01*
X18286866Y-16107781D01*
X18275830Y-16089368D01*
X18266651Y-16069962D01*
X18259419Y-16049750D01*
X18254203Y-16028926D01*
X18251053Y-16007691D01*
X18250000Y-15986250D01*
X18250000Y-15473750D01*
X18251053Y-15452309D01*
X18254203Y-15431074D01*
X18259419Y-15410250D01*
X18266651Y-15390038D01*
X18275830Y-15370632D01*
X18286866Y-15352219D01*
X18299654Y-15334976D01*
X18314070Y-15319070D01*
X18329976Y-15304654D01*
X18347219Y-15291866D01*
X18365632Y-15280830D01*
X18385038Y-15271651D01*
X18405250Y-15264419D01*
X18426074Y-15259203D01*
X18447309Y-15256053D01*
X18468750Y-15255000D01*
X18906250Y-15255000D01*
X18927691Y-15256053D01*
G37*
G36*
X6577691Y-29413553D02*
G01*
X6598926Y-29416703D01*
X6619750Y-29421919D01*
X6639962Y-29429151D01*
X6659368Y-29438330D01*
X6677781Y-29449366D01*
X6695024Y-29462154D01*
X6710930Y-29476570D01*
X6725346Y-29492476D01*
X6738134Y-29509719D01*
X6749170Y-29528132D01*
X6758349Y-29547538D01*
X6765581Y-29567750D01*
X6770797Y-29588574D01*
X6773947Y-29609809D01*
X6775000Y-29631250D01*
X6775000Y-30068750D01*
X6773947Y-30090191D01*
X6770797Y-30111426D01*
X6765581Y-30132250D01*
X6758349Y-30152462D01*
X6749170Y-30171868D01*
X6738134Y-30190281D01*
X6725346Y-30207524D01*
X6710930Y-30223430D01*
X6695024Y-30237846D01*
X6677781Y-30250634D01*
X6659368Y-30261670D01*
X6639962Y-30270849D01*
X6619750Y-30278081D01*
X6598926Y-30283297D01*
X6577691Y-30286447D01*
X6556250Y-30287500D01*
X6043750Y-30287500D01*
X6022309Y-30286447D01*
X6001074Y-30283297D01*
X5980250Y-30278081D01*
X5960038Y-30270849D01*
X5940632Y-30261670D01*
X5922219Y-30250634D01*
X5904976Y-30237846D01*
X5889070Y-30223430D01*
X5874654Y-30207524D01*
X5861866Y-30190281D01*
X5850830Y-30171868D01*
X5841651Y-30152462D01*
X5834419Y-30132250D01*
X5829203Y-30111426D01*
X5826053Y-30090191D01*
X5825000Y-30068750D01*
X5825000Y-29631250D01*
X5826053Y-29609809D01*
X5829203Y-29588574D01*
X5834419Y-29567750D01*
X5841651Y-29547538D01*
X5850830Y-29528132D01*
X5861866Y-29509719D01*
X5874654Y-29492476D01*
X5889070Y-29476570D01*
X5904976Y-29462154D01*
X5922219Y-29449366D01*
X5940632Y-29438330D01*
X5960038Y-29429151D01*
X5980250Y-29421919D01*
X6001074Y-29416703D01*
X6022309Y-29413553D01*
X6043750Y-29412500D01*
X6556250Y-29412500D01*
X6577691Y-29413553D01*
G37*
G36*
X6577691Y-30988553D02*
G01*
X6598926Y-30991703D01*
X6619750Y-30996919D01*
X6639962Y-31004151D01*
X6659368Y-31013330D01*
X6677781Y-31024366D01*
X6695024Y-31037154D01*
X6710930Y-31051570D01*
X6725346Y-31067476D01*
X6738134Y-31084719D01*
X6749170Y-31103132D01*
X6758349Y-31122538D01*
X6765581Y-31142750D01*
X6770797Y-31163574D01*
X6773947Y-31184809D01*
X6775000Y-31206250D01*
X6775000Y-31643750D01*
X6773947Y-31665191D01*
X6770797Y-31686426D01*
X6765581Y-31707250D01*
X6758349Y-31727462D01*
X6749170Y-31746868D01*
X6738134Y-31765281D01*
X6725346Y-31782524D01*
X6710930Y-31798430D01*
X6695024Y-31812846D01*
X6677781Y-31825634D01*
X6659368Y-31836670D01*
X6639962Y-31845849D01*
X6619750Y-31853081D01*
X6598926Y-31858297D01*
X6577691Y-31861447D01*
X6556250Y-31862500D01*
X6043750Y-31862500D01*
X6022309Y-31861447D01*
X6001074Y-31858297D01*
X5980250Y-31853081D01*
X5960038Y-31845849D01*
X5940632Y-31836670D01*
X5922219Y-31825634D01*
X5904976Y-31812846D01*
X5889070Y-31798430D01*
X5874654Y-31782524D01*
X5861866Y-31765281D01*
X5850830Y-31746868D01*
X5841651Y-31727462D01*
X5834419Y-31707250D01*
X5829203Y-31686426D01*
X5826053Y-31665191D01*
X5825000Y-31643750D01*
X5825000Y-31206250D01*
X5826053Y-31184809D01*
X5829203Y-31163574D01*
X5834419Y-31142750D01*
X5841651Y-31122538D01*
X5850830Y-31103132D01*
X5861866Y-31084719D01*
X5874654Y-31067476D01*
X5889070Y-31051570D01*
X5904976Y-31037154D01*
X5922219Y-31024366D01*
X5940632Y-31013330D01*
X5960038Y-31004151D01*
X5980250Y-30996919D01*
X6001074Y-30991703D01*
X6022309Y-30988553D01*
X6043750Y-30987500D01*
X6556250Y-30987500D01*
X6577691Y-30988553D01*
G37*
G36*
X4315191Y-29526053D02*
G01*
X4336426Y-29529203D01*
X4357250Y-29534419D01*
X4377462Y-29541651D01*
X4396868Y-29550830D01*
X4415281Y-29561866D01*
X4432524Y-29574654D01*
X4448430Y-29589070D01*
X4462846Y-29604976D01*
X4475634Y-29622219D01*
X4486670Y-29640632D01*
X4495849Y-29660038D01*
X4503081Y-29680250D01*
X4508297Y-29701074D01*
X4511447Y-29722309D01*
X4512500Y-29743750D01*
X4512500Y-30256250D01*
X4511447Y-30277691D01*
X4508297Y-30298926D01*
X4503081Y-30319750D01*
X4495849Y-30339962D01*
X4486670Y-30359368D01*
X4475634Y-30377781D01*
X4462846Y-30395024D01*
X4448430Y-30410930D01*
X4432524Y-30425346D01*
X4415281Y-30438134D01*
X4396868Y-30449170D01*
X4377462Y-30458349D01*
X4357250Y-30465581D01*
X4336426Y-30470797D01*
X4315191Y-30473947D01*
X4293750Y-30475000D01*
X3856250Y-30475000D01*
X3834809Y-30473947D01*
X3813574Y-30470797D01*
X3792750Y-30465581D01*
X3772538Y-30458349D01*
X3753132Y-30449170D01*
X3734719Y-30438134D01*
X3717476Y-30425346D01*
X3701570Y-30410930D01*
X3687154Y-30395024D01*
X3674366Y-30377781D01*
X3663330Y-30359368D01*
X3654151Y-30339962D01*
X3646919Y-30319750D01*
X3641703Y-30298926D01*
X3638553Y-30277691D01*
X3637500Y-30256250D01*
X3637500Y-29743750D01*
X3638553Y-29722309D01*
X3641703Y-29701074D01*
X3646919Y-29680250D01*
X3654151Y-29660038D01*
X3663330Y-29640632D01*
X3674366Y-29622219D01*
X3687154Y-29604976D01*
X3701570Y-29589070D01*
X3717476Y-29574654D01*
X3734719Y-29561866D01*
X3753132Y-29550830D01*
X3772538Y-29541651D01*
X3792750Y-29534419D01*
X3813574Y-29529203D01*
X3834809Y-29526053D01*
X3856250Y-29525000D01*
X4293750Y-29525000D01*
X4315191Y-29526053D01*
G37*
G36*
X2740191Y-29526053D02*
G01*
X2761426Y-29529203D01*
X2782250Y-29534419D01*
X2802462Y-29541651D01*
X2821868Y-29550830D01*
X2840281Y-29561866D01*
X2857524Y-29574654D01*
X2873430Y-29589070D01*
X2887846Y-29604976D01*
X2900634Y-29622219D01*
X2911670Y-29640632D01*
X2920849Y-29660038D01*
X2928081Y-29680250D01*
X2933297Y-29701074D01*
X2936447Y-29722309D01*
X2937500Y-29743750D01*
X2937500Y-30256250D01*
X2936447Y-30277691D01*
X2933297Y-30298926D01*
X2928081Y-30319750D01*
X2920849Y-30339962D01*
X2911670Y-30359368D01*
X2900634Y-30377781D01*
X2887846Y-30395024D01*
X2873430Y-30410930D01*
X2857524Y-30425346D01*
X2840281Y-30438134D01*
X2821868Y-30449170D01*
X2802462Y-30458349D01*
X2782250Y-30465581D01*
X2761426Y-30470797D01*
X2740191Y-30473947D01*
X2718750Y-30475000D01*
X2281250Y-30475000D01*
X2259809Y-30473947D01*
X2238574Y-30470797D01*
X2217750Y-30465581D01*
X2197538Y-30458349D01*
X2178132Y-30449170D01*
X2159719Y-30438134D01*
X2142476Y-30425346D01*
X2126570Y-30410930D01*
X2112154Y-30395024D01*
X2099366Y-30377781D01*
X2088330Y-30359368D01*
X2079151Y-30339962D01*
X2071919Y-30319750D01*
X2066703Y-30298926D01*
X2063553Y-30277691D01*
X2062500Y-30256250D01*
X2062500Y-29743750D01*
X2063553Y-29722309D01*
X2066703Y-29701074D01*
X2071919Y-29680250D01*
X2079151Y-29660038D01*
X2088330Y-29640632D01*
X2099366Y-29622219D01*
X2112154Y-29604976D01*
X2126570Y-29589070D01*
X2142476Y-29574654D01*
X2159719Y-29561866D01*
X2178132Y-29550830D01*
X2197538Y-29541651D01*
X2217750Y-29534419D01*
X2238574Y-29529203D01*
X2259809Y-29526053D01*
X2281250Y-29525000D01*
X2718750Y-29525000D01*
X2740191Y-29526053D01*
G37*
G36*
X4315191Y-31426053D02*
G01*
X4336426Y-31429203D01*
X4357250Y-31434419D01*
X4377462Y-31441651D01*
X4396868Y-31450830D01*
X4415281Y-31461866D01*
X4432524Y-31474654D01*
X4448430Y-31489070D01*
X4462846Y-31504976D01*
X4475634Y-31522219D01*
X4486670Y-31540632D01*
X4495849Y-31560038D01*
X4503081Y-31580250D01*
X4508297Y-31601074D01*
X4511447Y-31622309D01*
X4512500Y-31643750D01*
X4512500Y-32156250D01*
X4511447Y-32177691D01*
X4508297Y-32198926D01*
X4503081Y-32219750D01*
X4495849Y-32239962D01*
X4486670Y-32259368D01*
X4475634Y-32277781D01*
X4462846Y-32295024D01*
X4448430Y-32310930D01*
X4432524Y-32325346D01*
X4415281Y-32338134D01*
X4396868Y-32349170D01*
X4377462Y-32358349D01*
X4357250Y-32365581D01*
X4336426Y-32370797D01*
X4315191Y-32373947D01*
X4293750Y-32375000D01*
X3856250Y-32375000D01*
X3834809Y-32373947D01*
X3813574Y-32370797D01*
X3792750Y-32365581D01*
X3772538Y-32358349D01*
X3753132Y-32349170D01*
X3734719Y-32338134D01*
X3717476Y-32325346D01*
X3701570Y-32310930D01*
X3687154Y-32295024D01*
X3674366Y-32277781D01*
X3663330Y-32259368D01*
X3654151Y-32239962D01*
X3646919Y-32219750D01*
X3641703Y-32198926D01*
X3638553Y-32177691D01*
X3637500Y-32156250D01*
X3637500Y-31643750D01*
X3638553Y-31622309D01*
X3641703Y-31601074D01*
X3646919Y-31580250D01*
X3654151Y-31560038D01*
X3663330Y-31540632D01*
X3674366Y-31522219D01*
X3687154Y-31504976D01*
X3701570Y-31489070D01*
X3717476Y-31474654D01*
X3734719Y-31461866D01*
X3753132Y-31450830D01*
X3772538Y-31441651D01*
X3792750Y-31434419D01*
X3813574Y-31429203D01*
X3834809Y-31426053D01*
X3856250Y-31425000D01*
X4293750Y-31425000D01*
X4315191Y-31426053D01*
G37*
G36*
X2740191Y-31426053D02*
G01*
X2761426Y-31429203D01*
X2782250Y-31434419D01*
X2802462Y-31441651D01*
X2821868Y-31450830D01*
X2840281Y-31461866D01*
X2857524Y-31474654D01*
X2873430Y-31489070D01*
X2887846Y-31504976D01*
X2900634Y-31522219D01*
X2911670Y-31540632D01*
X2920849Y-31560038D01*
X2928081Y-31580250D01*
X2933297Y-31601074D01*
X2936447Y-31622309D01*
X2937500Y-31643750D01*
X2937500Y-32156250D01*
X2936447Y-32177691D01*
X2933297Y-32198926D01*
X2928081Y-32219750D01*
X2920849Y-32239962D01*
X2911670Y-32259368D01*
X2900634Y-32277781D01*
X2887846Y-32295024D01*
X2873430Y-32310930D01*
X2857524Y-32325346D01*
X2840281Y-32338134D01*
X2821868Y-32349170D01*
X2802462Y-32358349D01*
X2782250Y-32365581D01*
X2761426Y-32370797D01*
X2740191Y-32373947D01*
X2718750Y-32375000D01*
X2281250Y-32375000D01*
X2259809Y-32373947D01*
X2238574Y-32370797D01*
X2217750Y-32365581D01*
X2197538Y-32358349D01*
X2178132Y-32349170D01*
X2159719Y-32338134D01*
X2142476Y-32325346D01*
X2126570Y-32310930D01*
X2112154Y-32295024D01*
X2099366Y-32277781D01*
X2088330Y-32259368D01*
X2079151Y-32239962D01*
X2071919Y-32219750D01*
X2066703Y-32198926D01*
X2063553Y-32177691D01*
X2062500Y-32156250D01*
X2062500Y-31643750D01*
X2063553Y-31622309D01*
X2066703Y-31601074D01*
X2071919Y-31580250D01*
X2079151Y-31560038D01*
X2088330Y-31540632D01*
X2099366Y-31522219D01*
X2112154Y-31504976D01*
X2126570Y-31489070D01*
X2142476Y-31474654D01*
X2159719Y-31461866D01*
X2178132Y-31450830D01*
X2197538Y-31441651D01*
X2217750Y-31434419D01*
X2238574Y-31429203D01*
X2259809Y-31426053D01*
X2281250Y-31425000D01*
X2718750Y-31425000D01*
X2740191Y-31426053D01*
G37*
G36*
X5952691Y-33376053D02*
G01*
X5973926Y-33379203D01*
X5994750Y-33384419D01*
X6014962Y-33391651D01*
X6034368Y-33400830D01*
X6052781Y-33411866D01*
X6070024Y-33424654D01*
X6085930Y-33439070D01*
X6100346Y-33454976D01*
X6113134Y-33472219D01*
X6124170Y-33490632D01*
X6133349Y-33510038D01*
X6140581Y-33530250D01*
X6145797Y-33551074D01*
X6148947Y-33572309D01*
X6150000Y-33593750D01*
X6150000Y-34106250D01*
X6148947Y-34127691D01*
X6145797Y-34148926D01*
X6140581Y-34169750D01*
X6133349Y-34189962D01*
X6124170Y-34209368D01*
X6113134Y-34227781D01*
X6100346Y-34245024D01*
X6085930Y-34260930D01*
X6070024Y-34275346D01*
X6052781Y-34288134D01*
X6034368Y-34299170D01*
X6014962Y-34308349D01*
X5994750Y-34315581D01*
X5973926Y-34320797D01*
X5952691Y-34323947D01*
X5931250Y-34325000D01*
X5493750Y-34325000D01*
X5472309Y-34323947D01*
X5451074Y-34320797D01*
X5430250Y-34315581D01*
X5410038Y-34308349D01*
X5390632Y-34299170D01*
X5372219Y-34288134D01*
X5354976Y-34275346D01*
X5339070Y-34260930D01*
X5324654Y-34245024D01*
X5311866Y-34227781D01*
X5300830Y-34209368D01*
X5291651Y-34189962D01*
X5284419Y-34169750D01*
X5279203Y-34148926D01*
X5276053Y-34127691D01*
X5275000Y-34106250D01*
X5275000Y-33593750D01*
X5276053Y-33572309D01*
X5279203Y-33551074D01*
X5284419Y-33530250D01*
X5291651Y-33510038D01*
X5300830Y-33490632D01*
X5311866Y-33472219D01*
X5324654Y-33454976D01*
X5339070Y-33439070D01*
X5354976Y-33424654D01*
X5372219Y-33411866D01*
X5390632Y-33400830D01*
X5410038Y-33391651D01*
X5430250Y-33384419D01*
X5451074Y-33379203D01*
X5472309Y-33376053D01*
X5493750Y-33375000D01*
X5931250Y-33375000D01*
X5952691Y-33376053D01*
G37*
G36*
X4377691Y-33376053D02*
G01*
X4398926Y-33379203D01*
X4419750Y-33384419D01*
X4439962Y-33391651D01*
X4459368Y-33400830D01*
X4477781Y-33411866D01*
X4495024Y-33424654D01*
X4510930Y-33439070D01*
X4525346Y-33454976D01*
X4538134Y-33472219D01*
X4549170Y-33490632D01*
X4558349Y-33510038D01*
X4565581Y-33530250D01*
X4570797Y-33551074D01*
X4573947Y-33572309D01*
X4575000Y-33593750D01*
X4575000Y-34106250D01*
X4573947Y-34127691D01*
X4570797Y-34148926D01*
X4565581Y-34169750D01*
X4558349Y-34189962D01*
X4549170Y-34209368D01*
X4538134Y-34227781D01*
X4525346Y-34245024D01*
X4510930Y-34260930D01*
X4495024Y-34275346D01*
X4477781Y-34288134D01*
X4459368Y-34299170D01*
X4439962Y-34308349D01*
X4419750Y-34315581D01*
X4398926Y-34320797D01*
X4377691Y-34323947D01*
X4356250Y-34325000D01*
X3918750Y-34325000D01*
X3897309Y-34323947D01*
X3876074Y-34320797D01*
X3855250Y-34315581D01*
X3835038Y-34308349D01*
X3815632Y-34299170D01*
X3797219Y-34288134D01*
X3779976Y-34275346D01*
X3764070Y-34260930D01*
X3749654Y-34245024D01*
X3736866Y-34227781D01*
X3725830Y-34209368D01*
X3716651Y-34189962D01*
X3709419Y-34169750D01*
X3704203Y-34148926D01*
X3701053Y-34127691D01*
X3700000Y-34106250D01*
X3700000Y-33593750D01*
X3701053Y-33572309D01*
X3704203Y-33551074D01*
X3709419Y-33530250D01*
X3716651Y-33510038D01*
X3725830Y-33490632D01*
X3736866Y-33472219D01*
X3749654Y-33454976D01*
X3764070Y-33439070D01*
X3779976Y-33424654D01*
X3797219Y-33411866D01*
X3815632Y-33400830D01*
X3835038Y-33391651D01*
X3855250Y-33384419D01*
X3876074Y-33379203D01*
X3897309Y-33376053D01*
X3918750Y-33375000D01*
X4356250Y-33375000D01*
X4377691Y-33376053D01*
G37*
M02*
