G04 #@! TF.GenerationSoftware,KiCad,Pcbnew,(5.1.4)-1*
G04 #@! TF.CreationDate,2020-09-03T10:31:54-07:00*
G04 #@! TF.ProjectId,EsperDNS,45737065-7244-44e5-932e-6b696361645f,rev?*
G04 #@! TF.SameCoordinates,Original*
G04 #@! TF.FileFunction,Legend,Top*
G04 #@! TF.FilePolarity,Positive*
%FSLAX46Y46*%
G04 Gerber Fmt 4.6, Leading zero omitted, Abs format (unit mm)*
G04 Created by KiCad (PCBNEW (5.1.4)-1) date 2020-09-03 10:31:54*
%MOMM*%
%LPD*%
G04 APERTURE LIST*
%ADD10C,0.150000*%
%ADD11C,0.120000*%
%ADD12C,0.152400*%
%ADD13C,0.100000*%
%ADD14C,0.127000*%
%ADD15C,0.050000*%
G04 APERTURE END LIST*
D10*
X159855445Y-50294454D02*
X159856125Y-50961120D01*
X159616962Y-49913744D02*
X159379595Y-50628272D01*
X159998642Y-50627641D01*
X160427553Y-50960537D02*
X160618029Y-50960343D01*
X160713219Y-50912627D01*
X160760789Y-50864960D01*
X160855882Y-50722005D01*
X160903307Y-50531481D01*
X160902918Y-50150529D01*
X160855202Y-50055339D01*
X160807535Y-50007769D01*
X160712248Y-49960247D01*
X160521772Y-49960441D01*
X160426582Y-50008157D01*
X160379012Y-50055825D01*
X160331490Y-50151111D01*
X160331733Y-50389206D01*
X160379449Y-50484396D01*
X160427116Y-50531966D01*
X160522403Y-50579488D01*
X160712879Y-50579294D01*
X160808068Y-50531578D01*
X160855639Y-50483910D01*
X160903161Y-50388624D01*
X161332218Y-50864377D02*
X161379885Y-50911948D01*
X161332315Y-50959615D01*
X161284647Y-50912045D01*
X161332218Y-50864377D01*
X161332315Y-50959615D01*
X161997962Y-49958936D02*
X162093200Y-49958839D01*
X162188486Y-50006361D01*
X162236154Y-50053931D01*
X162283870Y-50149121D01*
X162331683Y-50339548D01*
X162331926Y-50577644D01*
X162284501Y-50768168D01*
X162236979Y-50863455D01*
X162189408Y-50911122D01*
X162094219Y-50958838D01*
X161998981Y-50958936D01*
X161903694Y-50911414D01*
X161856027Y-50863843D01*
X161808311Y-50768654D01*
X161760497Y-50578226D01*
X161760255Y-50340131D01*
X161807680Y-50149606D01*
X161855202Y-50054320D01*
X161902772Y-50006652D01*
X161997962Y-49958936D01*
X163236056Y-49957674D02*
X162759866Y-49958159D01*
X162712732Y-50434398D01*
X162760303Y-50386731D01*
X162855492Y-50339014D01*
X163093587Y-50338772D01*
X163188874Y-50386294D01*
X163236542Y-50433864D01*
X163284258Y-50529054D01*
X163284500Y-50767149D01*
X163236978Y-50862435D01*
X163189408Y-50910103D01*
X163094218Y-50957819D01*
X162856123Y-50958062D01*
X162760837Y-50910540D01*
X162713169Y-50862969D01*
X163902722Y-49956994D02*
X163997961Y-49956897D01*
X164093247Y-50004419D01*
X164140915Y-50051990D01*
X164188631Y-50147179D01*
X164236444Y-50337607D01*
X164236687Y-50575702D01*
X164189262Y-50766227D01*
X164141740Y-50861513D01*
X164094169Y-50909181D01*
X163998980Y-50956897D01*
X163903742Y-50956994D01*
X163808455Y-50909472D01*
X163760788Y-50861901D01*
X163713072Y-50766712D01*
X163665258Y-50576284D01*
X163665016Y-50338189D01*
X163712441Y-50147665D01*
X163759962Y-50052378D01*
X163807533Y-50004711D01*
X163902722Y-49956994D01*
X165427551Y-50955441D02*
X165426871Y-50288774D01*
X165426968Y-50384012D02*
X165474539Y-50336345D01*
X165569728Y-50288629D01*
X165712585Y-50288483D01*
X165807872Y-50336005D01*
X165855588Y-50431194D01*
X165856122Y-50955004D01*
X165855588Y-50431194D02*
X165903110Y-50335908D01*
X165998299Y-50288192D01*
X166141156Y-50288046D01*
X166236443Y-50335568D01*
X166284159Y-50430758D01*
X166284693Y-50954567D01*
X166760883Y-50954081D02*
X166760204Y-50287415D01*
X166760301Y-50382653D02*
X166807871Y-50334986D01*
X166903061Y-50287269D01*
X167045918Y-50287124D01*
X167141204Y-50334646D01*
X167188920Y-50429835D01*
X167189454Y-50953645D01*
X167188920Y-50429835D02*
X167236442Y-50334549D01*
X167331632Y-50286833D01*
X167474489Y-50286687D01*
X167569776Y-50334209D01*
X167617492Y-50429398D01*
X167618026Y-50953208D01*
D11*
X138998624Y-51800001D02*
X188048624Y-51750001D01*
X139000000Y-53150000D02*
X138998026Y-51213580D01*
X188050000Y-53100000D02*
X188048026Y-51163580D01*
X188048624Y-51750001D02*
X186922719Y-52337570D01*
X188048624Y-51750001D02*
X186921523Y-51164729D01*
X138998624Y-51800001D02*
X140125725Y-52385273D01*
X138998624Y-51800001D02*
X140124529Y-51212432D01*
D10*
X123154286Y-95612020D02*
X123820950Y-95614099D01*
X122772593Y-95848926D02*
X123486133Y-96089248D01*
X123488064Y-95470203D01*
X123251603Y-94945654D02*
X123203687Y-95040743D01*
X123155920Y-95088213D01*
X123060534Y-95135535D01*
X123012915Y-95135386D01*
X122917826Y-95087471D01*
X122870355Y-95039703D01*
X122823034Y-94944317D01*
X122823628Y-94753842D01*
X122871543Y-94658753D01*
X122919311Y-94611282D01*
X123014697Y-94563961D01*
X123062316Y-94564109D01*
X123157405Y-94612025D01*
X123204875Y-94659792D01*
X123252197Y-94755178D01*
X123251603Y-94945654D01*
X123298925Y-95041040D01*
X123346395Y-95088807D01*
X123441484Y-95136723D01*
X123631960Y-95137317D01*
X123727346Y-95089995D01*
X123775113Y-95042525D01*
X123823029Y-94947436D01*
X123823623Y-94756960D01*
X123776301Y-94661574D01*
X123728831Y-94613807D01*
X123633742Y-94565891D01*
X123443266Y-94565297D01*
X123347880Y-94612619D01*
X123300113Y-94660089D01*
X123252197Y-94755178D01*
X123730316Y-94137619D02*
X123778083Y-94090148D01*
X123825553Y-94137916D01*
X123777786Y-94185386D01*
X123730316Y-94137619D01*
X123825553Y-94137916D01*
X123828672Y-93137921D02*
X123826890Y-93709346D01*
X123827781Y-93423634D02*
X122827786Y-93420515D01*
X122970345Y-93516198D01*
X123065286Y-93611733D01*
X123112608Y-93707119D01*
X122830607Y-92515758D02*
X122830904Y-92420520D01*
X122878820Y-92325431D01*
X122926587Y-92277960D01*
X123021973Y-92230639D01*
X123212597Y-92183614D01*
X123450691Y-92184356D01*
X123641018Y-92232569D01*
X123736107Y-92280485D01*
X123783577Y-92328252D01*
X123830899Y-92423638D01*
X123830602Y-92518876D01*
X123782686Y-92613965D01*
X123734919Y-92661435D01*
X123639533Y-92708757D01*
X123448909Y-92755782D01*
X123210815Y-92755040D01*
X123020488Y-92706827D01*
X122925399Y-92658911D01*
X122877929Y-92611144D01*
X122830607Y-92515758D01*
X122833577Y-91563381D02*
X122833874Y-91468144D01*
X122881790Y-91373054D01*
X122929557Y-91325584D01*
X123024943Y-91278262D01*
X123215567Y-91231238D01*
X123453661Y-91231980D01*
X123643988Y-91280193D01*
X123739077Y-91328109D01*
X123786547Y-91375876D01*
X123833869Y-91471262D01*
X123833572Y-91566500D01*
X123785656Y-91661589D01*
X123737889Y-91709059D01*
X123642503Y-91756381D01*
X123451879Y-91803406D01*
X123213785Y-91802663D01*
X123023458Y-91754450D01*
X122928369Y-91706535D01*
X122880899Y-91658767D01*
X122833577Y-91563381D01*
X123838324Y-90042698D02*
X123171661Y-90040619D01*
X123266898Y-90040916D02*
X123219428Y-89993148D01*
X123172106Y-89897762D01*
X123172552Y-89754906D01*
X123220468Y-89659817D01*
X123315854Y-89612495D01*
X123839661Y-89614128D01*
X123315854Y-89612495D02*
X123220765Y-89564579D01*
X123173443Y-89469193D01*
X123173888Y-89326336D01*
X123221804Y-89231247D01*
X123317190Y-89183925D01*
X123840997Y-89185559D01*
X123842482Y-88709371D02*
X123175819Y-88707292D01*
X123271056Y-88707589D02*
X123223586Y-88659821D01*
X123176264Y-88564435D01*
X123176710Y-88421579D01*
X123224626Y-88326490D01*
X123320012Y-88279168D01*
X123843819Y-88280801D01*
X123320012Y-88279168D02*
X123224923Y-88231252D01*
X123177601Y-88135866D01*
X123178046Y-87993010D01*
X123225962Y-87897920D01*
X123321348Y-87850599D01*
X123845155Y-87852232D01*
D11*
X124725000Y-67900000D02*
X124575000Y-116000000D01*
X126024993Y-67904054D02*
X124138582Y-67898171D01*
X125874993Y-116004054D02*
X123988582Y-115998171D01*
X124575000Y-116000000D02*
X123992095Y-114871673D01*
X124575000Y-116000000D02*
X125164931Y-114875330D01*
X124725000Y-67900000D02*
X124135069Y-69024670D01*
X124725000Y-67900000D02*
X125307905Y-69028327D01*
D12*
X144033000Y-107633001D02*
X144487199Y-107633001D01*
X141505674Y-100267001D02*
X136879899Y-100267001D01*
X144487199Y-100267001D02*
X144033000Y-100267001D01*
X144487199Y-107633001D02*
X144487199Y-100267001D01*
X136879899Y-107633001D02*
X141505674Y-107633001D01*
X136879899Y-100267001D02*
X136879899Y-107633001D01*
D11*
X145665000Y-103474721D02*
X145665000Y-103800279D01*
X146685000Y-103474721D02*
X146685000Y-103800279D01*
X140962221Y-91735000D02*
X141287779Y-91735000D01*
X140962221Y-90715000D02*
X141287779Y-90715000D01*
X140962221Y-88510000D02*
X141287779Y-88510000D01*
X140962221Y-87490000D02*
X141287779Y-87490000D01*
X140962221Y-90135000D02*
X141287779Y-90135000D01*
X140962221Y-89115000D02*
X141287779Y-89115000D01*
D13*
X152725000Y-95475000D02*
X152725000Y-95775000D01*
X152350000Y-95475000D02*
X152725000Y-95475000D01*
X152725000Y-98775000D02*
X152275000Y-98775000D01*
X152725000Y-98475000D02*
X152725000Y-98775000D01*
X152725000Y-98550000D02*
X152725000Y-98425000D01*
X151075000Y-98775000D02*
X151075000Y-98425000D01*
X151550000Y-98775000D02*
X151075000Y-98775000D01*
X151075000Y-95800000D02*
X150300000Y-95800000D01*
X151075000Y-95750000D02*
X151075000Y-95800000D01*
X151450000Y-95475000D02*
X151075000Y-95750000D01*
X151725000Y-95475000D02*
X151450000Y-95475000D01*
X147780001Y-95510000D02*
X147780001Y-95810000D01*
X147405001Y-95510000D02*
X147780001Y-95510000D01*
X147780001Y-98810000D02*
X147330001Y-98810000D01*
X147780001Y-98510000D02*
X147780001Y-98810000D01*
X147780001Y-98585000D02*
X147780001Y-98460000D01*
X146130001Y-98810000D02*
X146130001Y-98460000D01*
X146605001Y-98810000D02*
X146130001Y-98810000D01*
X146130001Y-95835000D02*
X145355001Y-95835000D01*
X146130001Y-95785000D02*
X146130001Y-95835000D01*
X146505001Y-95510000D02*
X146130001Y-95785000D01*
X146780001Y-95510000D02*
X146505001Y-95510000D01*
X142080001Y-95510000D02*
X141805001Y-95510000D01*
X141805001Y-95510000D02*
X141430001Y-95785000D01*
X141430001Y-95785000D02*
X141430001Y-95835000D01*
X141430001Y-95835000D02*
X140655001Y-95835000D01*
X141905001Y-98810000D02*
X141430001Y-98810000D01*
X141430001Y-98810000D02*
X141430001Y-98460000D01*
X143080001Y-98585000D02*
X143080001Y-98460000D01*
X143080001Y-98510000D02*
X143080001Y-98810000D01*
X143080001Y-98810000D02*
X142630001Y-98810000D01*
X142705001Y-95510000D02*
X143080001Y-95510000D01*
X143080001Y-95510000D02*
X143080001Y-95810000D01*
D11*
X154200000Y-101300000D02*
G75*
G03X154200000Y-101300000I-100000J0D01*
G01*
X154400000Y-101600000D02*
X154400000Y-96600000D01*
X160500000Y-101600000D02*
X160500000Y-96600000D01*
X165112779Y-90190000D02*
X164787221Y-90190000D01*
X165112779Y-91210000D02*
X164787221Y-91210000D01*
X179185000Y-88660000D02*
X179660000Y-88660000D01*
X175440000Y-84440000D02*
X175440000Y-84915000D01*
X175915000Y-84440000D02*
X175440000Y-84440000D01*
X179660000Y-84440000D02*
X179660000Y-84915000D01*
X179185000Y-84440000D02*
X179660000Y-84440000D01*
X175440000Y-88660000D02*
X175440000Y-88185000D01*
X175915000Y-88660000D02*
X175440000Y-88660000D01*
X143780000Y-75005000D02*
X143400000Y-75005000D01*
X143780000Y-68585000D02*
X143780000Y-75005000D01*
X162020000Y-68585000D02*
X162020000Y-75005000D01*
X143780000Y-68585000D02*
X162020000Y-68585000D01*
X162020000Y-94330000D02*
X161020000Y-94330000D01*
X162020000Y-93550000D02*
X162020000Y-94330000D01*
X143780000Y-94330000D02*
X144780000Y-94330000D01*
X143780000Y-93550000D02*
X143780000Y-94330000D01*
X175010000Y-81575279D02*
X175010000Y-81249721D01*
X173990000Y-81575279D02*
X173990000Y-81249721D01*
X182874721Y-91110000D02*
X183200279Y-91110000D01*
X182874721Y-90090000D02*
X183200279Y-90090000D01*
X182974721Y-83260000D02*
X183300279Y-83260000D01*
X182974721Y-82240000D02*
X183300279Y-82240000D01*
D14*
X167635000Y-116050000D02*
X167635000Y-95550000D01*
X167635000Y-95550000D02*
X186385000Y-95550000D01*
X186385000Y-95550000D02*
X186385000Y-116050000D01*
X186385000Y-116050000D02*
X167635000Y-116050000D01*
D11*
X164040000Y-80287221D02*
X164040000Y-80612779D01*
X165060000Y-80287221D02*
X165060000Y-80612779D01*
X164040000Y-83774721D02*
X164040000Y-84100279D01*
X165060000Y-83774721D02*
X165060000Y-84100279D01*
X164040000Y-87487221D02*
X164040000Y-87812779D01*
X165060000Y-87487221D02*
X165060000Y-87812779D01*
X141425279Y-80910000D02*
X141099721Y-80910000D01*
X141425279Y-79890000D02*
X141099721Y-79890000D01*
X166310000Y-108075279D02*
X166310000Y-107749721D01*
X165290000Y-108075279D02*
X165290000Y-107749721D01*
X165352000Y-112638721D02*
X165352000Y-112964279D01*
X166372000Y-112638721D02*
X166372000Y-112964279D01*
X179510000Y-93612779D02*
X179510000Y-93287221D01*
X178490000Y-93612779D02*
X178490000Y-93287221D01*
X181810000Y-93612779D02*
X181810000Y-93287221D01*
X180790000Y-93612779D02*
X180790000Y-93287221D01*
X174360000Y-93612779D02*
X174360000Y-93287221D01*
X173340000Y-93612779D02*
X173340000Y-93287221D01*
X176710000Y-93612779D02*
X176710000Y-93287221D01*
X175690000Y-93612779D02*
X175690000Y-93287221D01*
X182874721Y-89460000D02*
X183200279Y-89460000D01*
X182874721Y-88440000D02*
X183200279Y-88440000D01*
X176560000Y-81575279D02*
X176560000Y-81249721D01*
X175540000Y-81575279D02*
X175540000Y-81249721D01*
X172037221Y-86510000D02*
X172362779Y-86510000D01*
X172037221Y-85490000D02*
X172362779Y-85490000D01*
X172037221Y-88060000D02*
X172362779Y-88060000D01*
X172037221Y-87040000D02*
X172362779Y-87040000D01*
X172037221Y-84960000D02*
X172362779Y-84960000D01*
X172037221Y-83940000D02*
X172362779Y-83940000D01*
X181210000Y-81575279D02*
X181210000Y-81249721D01*
X180190000Y-81575279D02*
X180190000Y-81249721D01*
X179660000Y-81575279D02*
X179660000Y-81249721D01*
X178640000Y-81575279D02*
X178640000Y-81249721D01*
X141099721Y-77810000D02*
X141425279Y-77810000D01*
X141099721Y-76790000D02*
X141425279Y-76790000D01*
X141099721Y-79360000D02*
X141425279Y-79360000D01*
X141099721Y-78340000D02*
X141425279Y-78340000D01*
X182974721Y-84810000D02*
X183300279Y-84810000D01*
X182974721Y-83790000D02*
X183300279Y-83790000D01*
X178110000Y-81575279D02*
X178110000Y-81249721D01*
X177090000Y-81575279D02*
X177090000Y-81249721D01*
X172350279Y-88590000D02*
X172024721Y-88590000D01*
X172350279Y-89610000D02*
X172024721Y-89610000D01*
X182874721Y-87910000D02*
X183200279Y-87910000D01*
X182874721Y-86890000D02*
X183200279Y-86890000D01*
X165262779Y-97026000D02*
X164937221Y-97026000D01*
X165262779Y-98046000D02*
X164937221Y-98046000D01*
X162260000Y-106900000D02*
X162260000Y-112910000D01*
X155440000Y-109150000D02*
X155440000Y-112910000D01*
X162260000Y-112910000D02*
X161000000Y-112910000D01*
X155440000Y-112910000D02*
X156700000Y-112910000D01*
X153290000Y-111124721D02*
X153290000Y-111450279D01*
X154310000Y-111124721D02*
X154310000Y-111450279D01*
X148110000Y-107437779D02*
X148110000Y-107112221D01*
X147090000Y-107437779D02*
X147090000Y-107112221D01*
X183194000Y-73406000D02*
X183194000Y-74736000D01*
X183194000Y-74736000D02*
X181864000Y-74736000D01*
X183194000Y-72136000D02*
X180594000Y-72136000D01*
X180594000Y-72136000D02*
X180594000Y-74736000D01*
X180594000Y-74736000D02*
X170374000Y-74736000D01*
X170374000Y-69536000D02*
X170374000Y-74736000D01*
X183194000Y-69536000D02*
X170374000Y-69536000D01*
X183194000Y-69536000D02*
X183194000Y-72136000D01*
D13*
X149200000Y-115475000D02*
X149200000Y-114625000D01*
X148750000Y-115475000D02*
X149200000Y-115475000D01*
X141100000Y-115475000D02*
X141600000Y-115475000D01*
X141100000Y-114675000D02*
X141100000Y-115475000D01*
X143250000Y-109725000D02*
X143550000Y-109725000D01*
X141100000Y-111475000D02*
X141100000Y-111925000D01*
X146800000Y-109725000D02*
X147100000Y-109725000D01*
X149200000Y-111475000D02*
X149200000Y-111975000D01*
D11*
X165262779Y-95248000D02*
X164937221Y-95248000D01*
X165262779Y-96268000D02*
X164937221Y-96268000D01*
X152435000Y-112747500D02*
X152435000Y-110462500D01*
X150965000Y-112747500D02*
X152435000Y-112747500D01*
X150965000Y-110462500D02*
X150965000Y-112747500D01*
X165262779Y-93470000D02*
X164937221Y-93470000D01*
X165262779Y-94490000D02*
X164937221Y-94490000D01*
X158200279Y-103540000D02*
X157874721Y-103540000D01*
X158200279Y-104560000D02*
X157874721Y-104560000D01*
X153660000Y-107450279D02*
X153660000Y-107124721D01*
X152640000Y-107450279D02*
X152640000Y-107124721D01*
X151760000Y-107450279D02*
X151760000Y-107124721D01*
X150740000Y-107450279D02*
X150740000Y-107124721D01*
X149860000Y-107437779D02*
X149860000Y-107112221D01*
X148840000Y-107437779D02*
X148840000Y-107112221D01*
D10*
X183788095Y-75652380D02*
X183788095Y-74652380D01*
X183788095Y-75128571D02*
X184359523Y-75128571D01*
X184359523Y-75652380D02*
X184359523Y-74652380D01*
X184788095Y-74747619D02*
X184835714Y-74700000D01*
X184930952Y-74652380D01*
X185169047Y-74652380D01*
X185264285Y-74700000D01*
X185311904Y-74747619D01*
X185359523Y-74842857D01*
X185359523Y-74938095D01*
X185311904Y-75080952D01*
X184740476Y-75652380D01*
X185359523Y-75652380D01*
X152663095Y-103152380D02*
X152663095Y-102152380D01*
X152663095Y-102628571D02*
X153234523Y-102628571D01*
X153234523Y-103152380D02*
X153234523Y-102152380D01*
X154234523Y-103152380D02*
X153663095Y-103152380D01*
X153948809Y-103152380D02*
X153948809Y-102152380D01*
X153853571Y-102295238D01*
X153758333Y-102390476D01*
X153663095Y-102438095D01*
X145904761Y-105208333D02*
X145952380Y-105065476D01*
X145952380Y-104827380D01*
X145904761Y-104732142D01*
X145857142Y-104684523D01*
X145761904Y-104636904D01*
X145666666Y-104636904D01*
X145571428Y-104684523D01*
X145523809Y-104732142D01*
X145476190Y-104827380D01*
X145428571Y-105017857D01*
X145380952Y-105113095D01*
X145333333Y-105160714D01*
X145238095Y-105208333D01*
X145142857Y-105208333D01*
X145047619Y-105160714D01*
X145000000Y-105113095D01*
X144952380Y-105017857D01*
X144952380Y-104779761D01*
X145000000Y-104636904D01*
X144952380Y-104303571D02*
X145952380Y-104065476D01*
X145238095Y-103875000D01*
X145952380Y-103684523D01*
X144952380Y-103446428D01*
X145952380Y-102541666D02*
X145952380Y-103113095D01*
X145952380Y-102827380D02*
X144952380Y-102827380D01*
X145095238Y-102922619D01*
X145190476Y-103017857D01*
X145238095Y-103113095D01*
X139802380Y-99160000D02*
X140040476Y-99160000D01*
X139945238Y-99398095D02*
X140040476Y-99160000D01*
X139945238Y-98921904D01*
X140230952Y-99302857D02*
X140040476Y-99160000D01*
X140230952Y-99017142D01*
X139802380Y-99160000D02*
X140040476Y-99160000D01*
X139945238Y-99398095D02*
X140040476Y-99160000D01*
X139945238Y-98921904D01*
X140230952Y-99302857D02*
X140040476Y-99160000D01*
X140230952Y-99017142D01*
X151777380Y-104305357D02*
X151301190Y-104638690D01*
X151777380Y-104876785D02*
X150777380Y-104876785D01*
X150777380Y-104495833D01*
X150825000Y-104400595D01*
X150872619Y-104352976D01*
X150967857Y-104305357D01*
X151110714Y-104305357D01*
X151205952Y-104352976D01*
X151253571Y-104400595D01*
X151301190Y-104495833D01*
X151301190Y-104876785D01*
X150872619Y-103924404D02*
X150825000Y-103876785D01*
X150777380Y-103781547D01*
X150777380Y-103543452D01*
X150825000Y-103448214D01*
X150872619Y-103400595D01*
X150967857Y-103352976D01*
X151063095Y-103352976D01*
X151205952Y-103400595D01*
X151777380Y-103972023D01*
X151777380Y-103352976D01*
X150777380Y-102448214D02*
X150777380Y-102924404D01*
X151253571Y-102972023D01*
X151205952Y-102924404D01*
X151158333Y-102829166D01*
X151158333Y-102591071D01*
X151205952Y-102495833D01*
X151253571Y-102448214D01*
X151348809Y-102400595D01*
X151586904Y-102400595D01*
X151682142Y-102448214D01*
X151729761Y-102495833D01*
X151777380Y-102591071D01*
X151777380Y-102829166D01*
X151729761Y-102924404D01*
X151682142Y-102972023D01*
X140507142Y-93152380D02*
X140173809Y-92676190D01*
X139935714Y-93152380D02*
X139935714Y-92152380D01*
X140316666Y-92152380D01*
X140411904Y-92200000D01*
X140459523Y-92247619D01*
X140507142Y-92342857D01*
X140507142Y-92485714D01*
X140459523Y-92580952D01*
X140411904Y-92628571D01*
X140316666Y-92676190D01*
X139935714Y-92676190D01*
X140888095Y-92247619D02*
X140935714Y-92200000D01*
X141030952Y-92152380D01*
X141269047Y-92152380D01*
X141364285Y-92200000D01*
X141411904Y-92247619D01*
X141459523Y-92342857D01*
X141459523Y-92438095D01*
X141411904Y-92580952D01*
X140840476Y-93152380D01*
X141459523Y-93152380D01*
X142316666Y-92485714D02*
X142316666Y-93152380D01*
X142078571Y-92104761D02*
X141840476Y-92819047D01*
X142459523Y-92819047D01*
X140482142Y-83927380D02*
X140148809Y-83451190D01*
X139910714Y-83927380D02*
X139910714Y-82927380D01*
X140291666Y-82927380D01*
X140386904Y-82975000D01*
X140434523Y-83022619D01*
X140482142Y-83117857D01*
X140482142Y-83260714D01*
X140434523Y-83355952D01*
X140386904Y-83403571D01*
X140291666Y-83451190D01*
X139910714Y-83451190D01*
X140863095Y-83022619D02*
X140910714Y-82975000D01*
X141005952Y-82927380D01*
X141244047Y-82927380D01*
X141339285Y-82975000D01*
X141386904Y-83022619D01*
X141434523Y-83117857D01*
X141434523Y-83213095D01*
X141386904Y-83355952D01*
X140815476Y-83927380D01*
X141434523Y-83927380D01*
X141767857Y-82927380D02*
X142386904Y-82927380D01*
X142053571Y-83308333D01*
X142196428Y-83308333D01*
X142291666Y-83355952D01*
X142339285Y-83403571D01*
X142386904Y-83498809D01*
X142386904Y-83736904D01*
X142339285Y-83832142D01*
X142291666Y-83879761D01*
X142196428Y-83927380D01*
X141910714Y-83927380D01*
X141815476Y-83879761D01*
X141767857Y-83832142D01*
X140482142Y-85227380D02*
X140148809Y-84751190D01*
X139910714Y-85227380D02*
X139910714Y-84227380D01*
X140291666Y-84227380D01*
X140386904Y-84275000D01*
X140434523Y-84322619D01*
X140482142Y-84417857D01*
X140482142Y-84560714D01*
X140434523Y-84655952D01*
X140386904Y-84703571D01*
X140291666Y-84751190D01*
X139910714Y-84751190D01*
X140863095Y-84322619D02*
X140910714Y-84275000D01*
X141005952Y-84227380D01*
X141244047Y-84227380D01*
X141339285Y-84275000D01*
X141386904Y-84322619D01*
X141434523Y-84417857D01*
X141434523Y-84513095D01*
X141386904Y-84655952D01*
X140815476Y-85227380D01*
X141434523Y-85227380D01*
X141815476Y-84322619D02*
X141863095Y-84275000D01*
X141958333Y-84227380D01*
X142196428Y-84227380D01*
X142291666Y-84275000D01*
X142339285Y-84322619D01*
X142386904Y-84417857D01*
X142386904Y-84513095D01*
X142339285Y-84655952D01*
X141767857Y-85227380D01*
X142386904Y-85227380D01*
X153029761Y-100447619D02*
X152934523Y-100400000D01*
X152839285Y-100304761D01*
X152696428Y-100161904D01*
X152601190Y-100114285D01*
X152505952Y-100114285D01*
X152553571Y-100352380D02*
X152458333Y-100304761D01*
X152363095Y-100209523D01*
X152315476Y-100019047D01*
X152315476Y-99685714D01*
X152363095Y-99495238D01*
X152458333Y-99400000D01*
X152553571Y-99352380D01*
X152744047Y-99352380D01*
X152839285Y-99400000D01*
X152934523Y-99495238D01*
X152982142Y-99685714D01*
X152982142Y-100019047D01*
X152934523Y-100209523D01*
X152839285Y-100304761D01*
X152744047Y-100352380D01*
X152553571Y-100352380D01*
X153315476Y-99352380D02*
X153934523Y-99352380D01*
X153601190Y-99733333D01*
X153744047Y-99733333D01*
X153839285Y-99780952D01*
X153886904Y-99828571D01*
X153934523Y-99923809D01*
X153934523Y-100161904D01*
X153886904Y-100257142D01*
X153839285Y-100304761D01*
X153744047Y-100352380D01*
X153458333Y-100352380D01*
X153363095Y-100304761D01*
X153315476Y-100257142D01*
X146179761Y-100597619D02*
X146084523Y-100550000D01*
X145989285Y-100454761D01*
X145846428Y-100311904D01*
X145751190Y-100264285D01*
X145655952Y-100264285D01*
X145703571Y-100502380D02*
X145608333Y-100454761D01*
X145513095Y-100359523D01*
X145465476Y-100169047D01*
X145465476Y-99835714D01*
X145513095Y-99645238D01*
X145608333Y-99550000D01*
X145703571Y-99502380D01*
X145894047Y-99502380D01*
X145989285Y-99550000D01*
X146084523Y-99645238D01*
X146132142Y-99835714D01*
X146132142Y-100169047D01*
X146084523Y-100359523D01*
X145989285Y-100454761D01*
X145894047Y-100502380D01*
X145703571Y-100502380D01*
X146513095Y-99597619D02*
X146560714Y-99550000D01*
X146655952Y-99502380D01*
X146894047Y-99502380D01*
X146989285Y-99550000D01*
X147036904Y-99597619D01*
X147084523Y-99692857D01*
X147084523Y-99788095D01*
X147036904Y-99930952D01*
X146465476Y-100502380D01*
X147084523Y-100502380D01*
X140272619Y-96995238D02*
X140225000Y-97090476D01*
X140129761Y-97185714D01*
X139986904Y-97328571D01*
X139939285Y-97423809D01*
X139939285Y-97519047D01*
X140177380Y-97471428D02*
X140129761Y-97566666D01*
X140034523Y-97661904D01*
X139844047Y-97709523D01*
X139510714Y-97709523D01*
X139320238Y-97661904D01*
X139225000Y-97566666D01*
X139177380Y-97471428D01*
X139177380Y-97280952D01*
X139225000Y-97185714D01*
X139320238Y-97090476D01*
X139510714Y-97042857D01*
X139844047Y-97042857D01*
X140034523Y-97090476D01*
X140129761Y-97185714D01*
X140177380Y-97280952D01*
X140177380Y-97471428D01*
X140177380Y-96090476D02*
X140177380Y-96661904D01*
X140177380Y-96376190D02*
X139177380Y-96376190D01*
X139320238Y-96471428D01*
X139415476Y-96566666D01*
X139463095Y-96661904D01*
X161852380Y-101488095D02*
X160852380Y-101488095D01*
X160852380Y-101250000D01*
X160900000Y-101107142D01*
X160995238Y-101011904D01*
X161090476Y-100964285D01*
X161280952Y-100916666D01*
X161423809Y-100916666D01*
X161614285Y-100964285D01*
X161709523Y-101011904D01*
X161804761Y-101107142D01*
X161852380Y-101250000D01*
X161852380Y-101488095D01*
X160852380Y-100583333D02*
X160852380Y-99964285D01*
X161233333Y-100297619D01*
X161233333Y-100154761D01*
X161280952Y-100059523D01*
X161328571Y-100011904D01*
X161423809Y-99964285D01*
X161661904Y-99964285D01*
X161757142Y-100011904D01*
X161804761Y-100059523D01*
X161852380Y-100154761D01*
X161852380Y-100440476D01*
X161804761Y-100535714D01*
X161757142Y-100583333D01*
X164307142Y-92582380D02*
X163973809Y-92106190D01*
X163735714Y-92582380D02*
X163735714Y-91582380D01*
X164116666Y-91582380D01*
X164211904Y-91630000D01*
X164259523Y-91677619D01*
X164307142Y-91772857D01*
X164307142Y-91915714D01*
X164259523Y-92010952D01*
X164211904Y-92058571D01*
X164116666Y-92106190D01*
X163735714Y-92106190D01*
X164688095Y-91677619D02*
X164735714Y-91630000D01*
X164830952Y-91582380D01*
X165069047Y-91582380D01*
X165164285Y-91630000D01*
X165211904Y-91677619D01*
X165259523Y-91772857D01*
X165259523Y-91868095D01*
X165211904Y-92010952D01*
X164640476Y-92582380D01*
X165259523Y-92582380D01*
X165878571Y-91582380D02*
X165973809Y-91582380D01*
X166069047Y-91630000D01*
X166116666Y-91677619D01*
X166164285Y-91772857D01*
X166211904Y-91963333D01*
X166211904Y-92201428D01*
X166164285Y-92391904D01*
X166116666Y-92487142D01*
X166069047Y-92534761D01*
X165973809Y-92582380D01*
X165878571Y-92582380D01*
X165783333Y-92534761D01*
X165735714Y-92487142D01*
X165688095Y-92391904D01*
X165640476Y-92201428D01*
X165640476Y-91963333D01*
X165688095Y-91772857D01*
X165735714Y-91677619D01*
X165783333Y-91630000D01*
X165878571Y-91582380D01*
X171988095Y-90302380D02*
X171988095Y-91111904D01*
X172035714Y-91207142D01*
X172083333Y-91254761D01*
X172178571Y-91302380D01*
X172369047Y-91302380D01*
X172464285Y-91254761D01*
X172511904Y-91207142D01*
X172559523Y-91111904D01*
X172559523Y-90302380D01*
X172988095Y-90397619D02*
X173035714Y-90350000D01*
X173130952Y-90302380D01*
X173369047Y-90302380D01*
X173464285Y-90350000D01*
X173511904Y-90397619D01*
X173559523Y-90492857D01*
X173559523Y-90588095D01*
X173511904Y-90730952D01*
X172940476Y-91302380D01*
X173559523Y-91302380D01*
X141138095Y-93777380D02*
X141138095Y-94586904D01*
X141185714Y-94682142D01*
X141233333Y-94729761D01*
X141328571Y-94777380D01*
X141519047Y-94777380D01*
X141614285Y-94729761D01*
X141661904Y-94682142D01*
X141709523Y-94586904D01*
X141709523Y-93777380D01*
X142090476Y-93777380D02*
X142709523Y-93777380D01*
X142376190Y-94158333D01*
X142519047Y-94158333D01*
X142614285Y-94205952D01*
X142661904Y-94253571D01*
X142709523Y-94348809D01*
X142709523Y-94586904D01*
X142661904Y-94682142D01*
X142614285Y-94729761D01*
X142519047Y-94777380D01*
X142233333Y-94777380D01*
X142138095Y-94729761D01*
X142090476Y-94682142D01*
X174952380Y-79105357D02*
X174476190Y-79438690D01*
X174952380Y-79676785D02*
X173952380Y-79676785D01*
X173952380Y-79295833D01*
X174000000Y-79200595D01*
X174047619Y-79152976D01*
X174142857Y-79105357D01*
X174285714Y-79105357D01*
X174380952Y-79152976D01*
X174428571Y-79200595D01*
X174476190Y-79295833D01*
X174476190Y-79676785D01*
X174047619Y-78724404D02*
X174000000Y-78676785D01*
X173952380Y-78581547D01*
X173952380Y-78343452D01*
X174000000Y-78248214D01*
X174047619Y-78200595D01*
X174142857Y-78152976D01*
X174238095Y-78152976D01*
X174380952Y-78200595D01*
X174952380Y-78772023D01*
X174952380Y-78152976D01*
X174952380Y-77200595D02*
X174952380Y-77772023D01*
X174952380Y-77486309D02*
X173952380Y-77486309D01*
X174095238Y-77581547D01*
X174190476Y-77676785D01*
X174238095Y-77772023D01*
X185394642Y-90957142D02*
X185347023Y-91004761D01*
X185204166Y-91052380D01*
X185108928Y-91052380D01*
X184966071Y-91004761D01*
X184870833Y-90909523D01*
X184823214Y-90814285D01*
X184775595Y-90623809D01*
X184775595Y-90480952D01*
X184823214Y-90290476D01*
X184870833Y-90195238D01*
X184966071Y-90100000D01*
X185108928Y-90052380D01*
X185204166Y-90052380D01*
X185347023Y-90100000D01*
X185394642Y-90147619D01*
X186347023Y-91052380D02*
X185775595Y-91052380D01*
X186061309Y-91052380D02*
X186061309Y-90052380D01*
X185966071Y-90195238D01*
X185870833Y-90290476D01*
X185775595Y-90338095D01*
X186680357Y-90052380D02*
X187347023Y-90052380D01*
X186918452Y-91052380D01*
X185432142Y-83107142D02*
X185384523Y-83154761D01*
X185241666Y-83202380D01*
X185146428Y-83202380D01*
X185003571Y-83154761D01*
X184908333Y-83059523D01*
X184860714Y-82964285D01*
X184813095Y-82773809D01*
X184813095Y-82630952D01*
X184860714Y-82440476D01*
X184908333Y-82345238D01*
X185003571Y-82250000D01*
X185146428Y-82202380D01*
X185241666Y-82202380D01*
X185384523Y-82250000D01*
X185432142Y-82297619D01*
X186384523Y-83202380D02*
X185813095Y-83202380D01*
X186098809Y-83202380D02*
X186098809Y-82202380D01*
X186003571Y-82345238D01*
X185908333Y-82440476D01*
X185813095Y-82488095D01*
X187241666Y-82202380D02*
X187051190Y-82202380D01*
X186955952Y-82250000D01*
X186908333Y-82297619D01*
X186813095Y-82440476D01*
X186765476Y-82630952D01*
X186765476Y-83011904D01*
X186813095Y-83107142D01*
X186860714Y-83154761D01*
X186955952Y-83202380D01*
X187146428Y-83202380D01*
X187241666Y-83154761D01*
X187289285Y-83107142D01*
X187336904Y-83011904D01*
X187336904Y-82773809D01*
X187289285Y-82678571D01*
X187241666Y-82630952D01*
X187146428Y-82583333D01*
X186955952Y-82583333D01*
X186860714Y-82630952D01*
X186813095Y-82678571D01*
X186765476Y-82773809D01*
D15*
X169118000Y-94302380D02*
X169118000Y-95016666D01*
X169075142Y-95159523D01*
X168989428Y-95254761D01*
X168860857Y-95302380D01*
X168775142Y-95302380D01*
X169503714Y-94397619D02*
X169546571Y-94350000D01*
X169632285Y-94302380D01*
X169846571Y-94302380D01*
X169932285Y-94350000D01*
X169975142Y-94397619D01*
X170018000Y-94492857D01*
X170018000Y-94588095D01*
X169975142Y-94730952D01*
X169460857Y-95302380D01*
X170018000Y-95302380D01*
X173692142Y-105466666D02*
X174120714Y-105466666D01*
X173606428Y-105752380D02*
X173906428Y-104752380D01*
X174206428Y-105752380D01*
X175020714Y-105752380D02*
X174720714Y-105276190D01*
X174506428Y-105752380D02*
X174506428Y-104752380D01*
X174849285Y-104752380D01*
X174935000Y-104800000D01*
X174977857Y-104847619D01*
X175020714Y-104942857D01*
X175020714Y-105085714D01*
X174977857Y-105180952D01*
X174935000Y-105228571D01*
X174849285Y-105276190D01*
X174506428Y-105276190D01*
X175663571Y-104752380D02*
X175663571Y-105466666D01*
X175620714Y-105609523D01*
X175535000Y-105704761D01*
X175406428Y-105752380D01*
X175320714Y-105752380D01*
X176092142Y-105752380D02*
X176092142Y-104752380D01*
X176392142Y-105466666D01*
X176692142Y-104752380D01*
X176692142Y-105752380D01*
X177592142Y-105752380D02*
X177077857Y-105752380D01*
X177335000Y-105752380D02*
X177335000Y-104752380D01*
X177249285Y-104895238D01*
X177163571Y-104990476D01*
X177077857Y-105038095D01*
X178449285Y-105752380D02*
X177935000Y-105752380D01*
X178192142Y-105752380D02*
X178192142Y-104752380D01*
X178106428Y-104895238D01*
X178020714Y-104990476D01*
X177935000Y-105038095D01*
X178792142Y-105466666D02*
X179220714Y-105466666D01*
X178706428Y-105752380D02*
X179006428Y-104752380D01*
X179306428Y-105752380D01*
X179520714Y-104752380D02*
X180077857Y-104752380D01*
X179777857Y-105133333D01*
X179906428Y-105133333D01*
X179992142Y-105180952D01*
X180035000Y-105228571D01*
X180077857Y-105323809D01*
X180077857Y-105561904D01*
X180035000Y-105657142D01*
X179992142Y-105704761D01*
X179906428Y-105752380D01*
X179649285Y-105752380D01*
X179563571Y-105704761D01*
X179520714Y-105657142D01*
D10*
X166452380Y-81142857D02*
X165976190Y-81476190D01*
X166452380Y-81714285D02*
X165452380Y-81714285D01*
X165452380Y-81333333D01*
X165500000Y-81238095D01*
X165547619Y-81190476D01*
X165642857Y-81142857D01*
X165785714Y-81142857D01*
X165880952Y-81190476D01*
X165928571Y-81238095D01*
X165976190Y-81333333D01*
X165976190Y-81714285D01*
X166452380Y-80190476D02*
X166452380Y-80761904D01*
X166452380Y-80476190D02*
X165452380Y-80476190D01*
X165595238Y-80571428D01*
X165690476Y-80666666D01*
X165738095Y-80761904D01*
X166452380Y-79714285D02*
X166452380Y-79523809D01*
X166404761Y-79428571D01*
X166357142Y-79380952D01*
X166214285Y-79285714D01*
X166023809Y-79238095D01*
X165642857Y-79238095D01*
X165547619Y-79285714D01*
X165500000Y-79333333D01*
X165452380Y-79428571D01*
X165452380Y-79619047D01*
X165500000Y-79714285D01*
X165547619Y-79761904D01*
X165642857Y-79809523D01*
X165880952Y-79809523D01*
X165976190Y-79761904D01*
X166023809Y-79714285D01*
X166071428Y-79619047D01*
X166071428Y-79428571D01*
X166023809Y-79333333D01*
X165976190Y-79285714D01*
X165880952Y-79238095D01*
X166452380Y-84580357D02*
X165976190Y-84913690D01*
X166452380Y-85151785D02*
X165452380Y-85151785D01*
X165452380Y-84770833D01*
X165500000Y-84675595D01*
X165547619Y-84627976D01*
X165642857Y-84580357D01*
X165785714Y-84580357D01*
X165880952Y-84627976D01*
X165928571Y-84675595D01*
X165976190Y-84770833D01*
X165976190Y-85151785D01*
X166452380Y-83627976D02*
X166452380Y-84199404D01*
X166452380Y-83913690D02*
X165452380Y-83913690D01*
X165595238Y-84008928D01*
X165690476Y-84104166D01*
X165738095Y-84199404D01*
X165880952Y-83056547D02*
X165833333Y-83151785D01*
X165785714Y-83199404D01*
X165690476Y-83247023D01*
X165642857Y-83247023D01*
X165547619Y-83199404D01*
X165500000Y-83151785D01*
X165452380Y-83056547D01*
X165452380Y-82866071D01*
X165500000Y-82770833D01*
X165547619Y-82723214D01*
X165642857Y-82675595D01*
X165690476Y-82675595D01*
X165785714Y-82723214D01*
X165833333Y-82770833D01*
X165880952Y-82866071D01*
X165880952Y-83056547D01*
X165928571Y-83151785D01*
X165976190Y-83199404D01*
X166071428Y-83247023D01*
X166261904Y-83247023D01*
X166357142Y-83199404D01*
X166404761Y-83151785D01*
X166452380Y-83056547D01*
X166452380Y-82866071D01*
X166404761Y-82770833D01*
X166357142Y-82723214D01*
X166261904Y-82675595D01*
X166071428Y-82675595D01*
X165976190Y-82723214D01*
X165928571Y-82770833D01*
X165880952Y-82866071D01*
X166552380Y-88380357D02*
X166076190Y-88713690D01*
X166552380Y-88951785D02*
X165552380Y-88951785D01*
X165552380Y-88570833D01*
X165600000Y-88475595D01*
X165647619Y-88427976D01*
X165742857Y-88380357D01*
X165885714Y-88380357D01*
X165980952Y-88427976D01*
X166028571Y-88475595D01*
X166076190Y-88570833D01*
X166076190Y-88951785D01*
X166552380Y-87427976D02*
X166552380Y-87999404D01*
X166552380Y-87713690D02*
X165552380Y-87713690D01*
X165695238Y-87808928D01*
X165790476Y-87904166D01*
X165838095Y-87999404D01*
X165552380Y-87094642D02*
X165552380Y-86427976D01*
X166552380Y-86856547D01*
X140607142Y-76252380D02*
X140273809Y-75776190D01*
X140035714Y-76252380D02*
X140035714Y-75252380D01*
X140416666Y-75252380D01*
X140511904Y-75300000D01*
X140559523Y-75347619D01*
X140607142Y-75442857D01*
X140607142Y-75585714D01*
X140559523Y-75680952D01*
X140511904Y-75728571D01*
X140416666Y-75776190D01*
X140035714Y-75776190D01*
X141559523Y-76252380D02*
X140988095Y-76252380D01*
X141273809Y-76252380D02*
X141273809Y-75252380D01*
X141178571Y-75395238D01*
X141083333Y-75490476D01*
X140988095Y-75538095D01*
X142416666Y-75252380D02*
X142226190Y-75252380D01*
X142130952Y-75300000D01*
X142083333Y-75347619D01*
X141988095Y-75490476D01*
X141940476Y-75680952D01*
X141940476Y-76061904D01*
X141988095Y-76157142D01*
X142035714Y-76204761D01*
X142130952Y-76252380D01*
X142321428Y-76252380D01*
X142416666Y-76204761D01*
X142464285Y-76157142D01*
X142511904Y-76061904D01*
X142511904Y-75823809D01*
X142464285Y-75728571D01*
X142416666Y-75680952D01*
X142321428Y-75633333D01*
X142130952Y-75633333D01*
X142035714Y-75680952D01*
X141988095Y-75728571D01*
X141940476Y-75823809D01*
X164352380Y-108542857D02*
X163876190Y-108876190D01*
X164352380Y-109114285D02*
X163352380Y-109114285D01*
X163352380Y-108733333D01*
X163400000Y-108638095D01*
X163447619Y-108590476D01*
X163542857Y-108542857D01*
X163685714Y-108542857D01*
X163780952Y-108590476D01*
X163828571Y-108638095D01*
X163876190Y-108733333D01*
X163876190Y-109114285D01*
X164352380Y-107590476D02*
X164352380Y-108161904D01*
X164352380Y-107876190D02*
X163352380Y-107876190D01*
X163495238Y-107971428D01*
X163590476Y-108066666D01*
X163638095Y-108161904D01*
X163352380Y-106685714D02*
X163352380Y-107161904D01*
X163828571Y-107209523D01*
X163780952Y-107161904D01*
X163733333Y-107066666D01*
X163733333Y-106828571D01*
X163780952Y-106733333D01*
X163828571Y-106685714D01*
X163923809Y-106638095D01*
X164161904Y-106638095D01*
X164257142Y-106685714D01*
X164304761Y-106733333D01*
X164352380Y-106828571D01*
X164352380Y-107066666D01*
X164304761Y-107161904D01*
X164257142Y-107209523D01*
X164282380Y-113418857D02*
X163806190Y-113752190D01*
X164282380Y-113990285D02*
X163282380Y-113990285D01*
X163282380Y-113609333D01*
X163330000Y-113514095D01*
X163377619Y-113466476D01*
X163472857Y-113418857D01*
X163615714Y-113418857D01*
X163710952Y-113466476D01*
X163758571Y-113514095D01*
X163806190Y-113609333D01*
X163806190Y-113990285D01*
X164282380Y-112466476D02*
X164282380Y-113037904D01*
X164282380Y-112752190D02*
X163282380Y-112752190D01*
X163425238Y-112847428D01*
X163520476Y-112942666D01*
X163568095Y-113037904D01*
X163615714Y-111609333D02*
X164282380Y-111609333D01*
X163234761Y-111847428D02*
X163949047Y-112085523D01*
X163949047Y-111466476D01*
X183252380Y-94092857D02*
X182776190Y-94426190D01*
X183252380Y-94664285D02*
X182252380Y-94664285D01*
X182252380Y-94283333D01*
X182300000Y-94188095D01*
X182347619Y-94140476D01*
X182442857Y-94092857D01*
X182585714Y-94092857D01*
X182680952Y-94140476D01*
X182728571Y-94188095D01*
X182776190Y-94283333D01*
X182776190Y-94664285D01*
X183252380Y-93140476D02*
X183252380Y-93711904D01*
X183252380Y-93426190D02*
X182252380Y-93426190D01*
X182395238Y-93521428D01*
X182490476Y-93616666D01*
X182538095Y-93711904D01*
X182252380Y-92807142D02*
X182252380Y-92188095D01*
X182633333Y-92521428D01*
X182633333Y-92378571D01*
X182680952Y-92283333D01*
X182728571Y-92235714D01*
X182823809Y-92188095D01*
X183061904Y-92188095D01*
X183157142Y-92235714D01*
X183204761Y-92283333D01*
X183252380Y-92378571D01*
X183252380Y-92664285D01*
X183204761Y-92759523D01*
X183157142Y-92807142D01*
X184602380Y-94092857D02*
X184126190Y-94426190D01*
X184602380Y-94664285D02*
X183602380Y-94664285D01*
X183602380Y-94283333D01*
X183650000Y-94188095D01*
X183697619Y-94140476D01*
X183792857Y-94092857D01*
X183935714Y-94092857D01*
X184030952Y-94140476D01*
X184078571Y-94188095D01*
X184126190Y-94283333D01*
X184126190Y-94664285D01*
X184602380Y-93140476D02*
X184602380Y-93711904D01*
X184602380Y-93426190D02*
X183602380Y-93426190D01*
X183745238Y-93521428D01*
X183840476Y-93616666D01*
X183888095Y-93711904D01*
X183697619Y-92759523D02*
X183650000Y-92711904D01*
X183602380Y-92616666D01*
X183602380Y-92378571D01*
X183650000Y-92283333D01*
X183697619Y-92235714D01*
X183792857Y-92188095D01*
X183888095Y-92188095D01*
X184030952Y-92235714D01*
X184602380Y-92807142D01*
X184602380Y-92188095D01*
X171452380Y-94092857D02*
X170976190Y-94426190D01*
X171452380Y-94664285D02*
X170452380Y-94664285D01*
X170452380Y-94283333D01*
X170500000Y-94188095D01*
X170547619Y-94140476D01*
X170642857Y-94092857D01*
X170785714Y-94092857D01*
X170880952Y-94140476D01*
X170928571Y-94188095D01*
X170976190Y-94283333D01*
X170976190Y-94664285D01*
X171452380Y-93140476D02*
X171452380Y-93711904D01*
X171452380Y-93426190D02*
X170452380Y-93426190D01*
X170595238Y-93521428D01*
X170690476Y-93616666D01*
X170738095Y-93711904D01*
X171452380Y-92188095D02*
X171452380Y-92759523D01*
X171452380Y-92473809D02*
X170452380Y-92473809D01*
X170595238Y-92569047D01*
X170690476Y-92664285D01*
X170738095Y-92759523D01*
X172852380Y-94092857D02*
X172376190Y-94426190D01*
X172852380Y-94664285D02*
X171852380Y-94664285D01*
X171852380Y-94283333D01*
X171900000Y-94188095D01*
X171947619Y-94140476D01*
X172042857Y-94092857D01*
X172185714Y-94092857D01*
X172280952Y-94140476D01*
X172328571Y-94188095D01*
X172376190Y-94283333D01*
X172376190Y-94664285D01*
X172852380Y-93140476D02*
X172852380Y-93711904D01*
X172852380Y-93426190D02*
X171852380Y-93426190D01*
X171995238Y-93521428D01*
X172090476Y-93616666D01*
X172138095Y-93711904D01*
X171852380Y-92521428D02*
X171852380Y-92426190D01*
X171900000Y-92330952D01*
X171947619Y-92283333D01*
X172042857Y-92235714D01*
X172233333Y-92188095D01*
X172471428Y-92188095D01*
X172661904Y-92235714D01*
X172757142Y-92283333D01*
X172804761Y-92330952D01*
X172852380Y-92426190D01*
X172852380Y-92521428D01*
X172804761Y-92616666D01*
X172757142Y-92664285D01*
X172661904Y-92711904D01*
X172471428Y-92759523D01*
X172233333Y-92759523D01*
X172042857Y-92711904D01*
X171947619Y-92664285D01*
X171900000Y-92616666D01*
X171852380Y-92521428D01*
X185358333Y-89402380D02*
X185025000Y-88926190D01*
X184786904Y-89402380D02*
X184786904Y-88402380D01*
X185167857Y-88402380D01*
X185263095Y-88450000D01*
X185310714Y-88497619D01*
X185358333Y-88592857D01*
X185358333Y-88735714D01*
X185310714Y-88830952D01*
X185263095Y-88878571D01*
X185167857Y-88926190D01*
X184786904Y-88926190D01*
X185834523Y-89402380D02*
X186025000Y-89402380D01*
X186120238Y-89354761D01*
X186167857Y-89307142D01*
X186263095Y-89164285D01*
X186310714Y-88973809D01*
X186310714Y-88592857D01*
X186263095Y-88497619D01*
X186215476Y-88450000D01*
X186120238Y-88402380D01*
X185929761Y-88402380D01*
X185834523Y-88450000D01*
X185786904Y-88497619D01*
X185739285Y-88592857D01*
X185739285Y-88830952D01*
X185786904Y-88926190D01*
X185834523Y-88973809D01*
X185929761Y-89021428D01*
X186120238Y-89021428D01*
X186215476Y-88973809D01*
X186263095Y-88926190D01*
X186310714Y-88830952D01*
X176502380Y-79129166D02*
X176026190Y-79462500D01*
X176502380Y-79700595D02*
X175502380Y-79700595D01*
X175502380Y-79319642D01*
X175550000Y-79224404D01*
X175597619Y-79176785D01*
X175692857Y-79129166D01*
X175835714Y-79129166D01*
X175930952Y-79176785D01*
X175978571Y-79224404D01*
X176026190Y-79319642D01*
X176026190Y-79700595D01*
X175930952Y-78557738D02*
X175883333Y-78652976D01*
X175835714Y-78700595D01*
X175740476Y-78748214D01*
X175692857Y-78748214D01*
X175597619Y-78700595D01*
X175550000Y-78652976D01*
X175502380Y-78557738D01*
X175502380Y-78367261D01*
X175550000Y-78272023D01*
X175597619Y-78224404D01*
X175692857Y-78176785D01*
X175740476Y-78176785D01*
X175835714Y-78224404D01*
X175883333Y-78272023D01*
X175930952Y-78367261D01*
X175930952Y-78557738D01*
X175978571Y-78652976D01*
X176026190Y-78700595D01*
X176121428Y-78748214D01*
X176311904Y-78748214D01*
X176407142Y-78700595D01*
X176454761Y-78652976D01*
X176502380Y-78557738D01*
X176502380Y-78367261D01*
X176454761Y-78272023D01*
X176407142Y-78224404D01*
X176311904Y-78176785D01*
X176121428Y-78176785D01*
X176026190Y-78224404D01*
X175978571Y-78272023D01*
X175930952Y-78367261D01*
X169545833Y-86452380D02*
X169212500Y-85976190D01*
X168974404Y-86452380D02*
X168974404Y-85452380D01*
X169355357Y-85452380D01*
X169450595Y-85500000D01*
X169498214Y-85547619D01*
X169545833Y-85642857D01*
X169545833Y-85785714D01*
X169498214Y-85880952D01*
X169450595Y-85928571D01*
X169355357Y-85976190D01*
X168974404Y-85976190D01*
X169879166Y-85452380D02*
X170545833Y-85452380D01*
X170117261Y-86452380D01*
X169520833Y-88002380D02*
X169187500Y-87526190D01*
X168949404Y-88002380D02*
X168949404Y-87002380D01*
X169330357Y-87002380D01*
X169425595Y-87050000D01*
X169473214Y-87097619D01*
X169520833Y-87192857D01*
X169520833Y-87335714D01*
X169473214Y-87430952D01*
X169425595Y-87478571D01*
X169330357Y-87526190D01*
X168949404Y-87526190D01*
X170377976Y-87002380D02*
X170187500Y-87002380D01*
X170092261Y-87050000D01*
X170044642Y-87097619D01*
X169949404Y-87240476D01*
X169901785Y-87430952D01*
X169901785Y-87811904D01*
X169949404Y-87907142D01*
X169997023Y-87954761D01*
X170092261Y-88002380D01*
X170282738Y-88002380D01*
X170377976Y-87954761D01*
X170425595Y-87907142D01*
X170473214Y-87811904D01*
X170473214Y-87573809D01*
X170425595Y-87478571D01*
X170377976Y-87430952D01*
X170282738Y-87383333D01*
X170092261Y-87383333D01*
X169997023Y-87430952D01*
X169949404Y-87478571D01*
X169901785Y-87573809D01*
X169583333Y-84902380D02*
X169250000Y-84426190D01*
X169011904Y-84902380D02*
X169011904Y-83902380D01*
X169392857Y-83902380D01*
X169488095Y-83950000D01*
X169535714Y-83997619D01*
X169583333Y-84092857D01*
X169583333Y-84235714D01*
X169535714Y-84330952D01*
X169488095Y-84378571D01*
X169392857Y-84426190D01*
X169011904Y-84426190D01*
X170488095Y-83902380D02*
X170011904Y-83902380D01*
X169964285Y-84378571D01*
X170011904Y-84330952D01*
X170107142Y-84283333D01*
X170345238Y-84283333D01*
X170440476Y-84330952D01*
X170488095Y-84378571D01*
X170535714Y-84473809D01*
X170535714Y-84711904D01*
X170488095Y-84807142D01*
X170440476Y-84854761D01*
X170345238Y-84902380D01*
X170107142Y-84902380D01*
X170011904Y-84854761D01*
X169964285Y-84807142D01*
X181152380Y-79016666D02*
X180676190Y-79350000D01*
X181152380Y-79588095D02*
X180152380Y-79588095D01*
X180152380Y-79207142D01*
X180200000Y-79111904D01*
X180247619Y-79064285D01*
X180342857Y-79016666D01*
X180485714Y-79016666D01*
X180580952Y-79064285D01*
X180628571Y-79111904D01*
X180676190Y-79207142D01*
X180676190Y-79588095D01*
X180485714Y-78159523D02*
X181152380Y-78159523D01*
X180104761Y-78397619D02*
X180819047Y-78635714D01*
X180819047Y-78016666D01*
X179602380Y-79066666D02*
X179126190Y-79400000D01*
X179602380Y-79638095D02*
X178602380Y-79638095D01*
X178602380Y-79257142D01*
X178650000Y-79161904D01*
X178697619Y-79114285D01*
X178792857Y-79066666D01*
X178935714Y-79066666D01*
X179030952Y-79114285D01*
X179078571Y-79161904D01*
X179126190Y-79257142D01*
X179126190Y-79638095D01*
X178602380Y-78733333D02*
X178602380Y-78114285D01*
X178983333Y-78447619D01*
X178983333Y-78304761D01*
X179030952Y-78209523D01*
X179078571Y-78161904D01*
X179173809Y-78114285D01*
X179411904Y-78114285D01*
X179507142Y-78161904D01*
X179554761Y-78209523D01*
X179602380Y-78304761D01*
X179602380Y-78590476D01*
X179554761Y-78685714D01*
X179507142Y-78733333D01*
X140607142Y-73482142D02*
X140559523Y-73529761D01*
X140416666Y-73577380D01*
X140321428Y-73577380D01*
X140178571Y-73529761D01*
X140083333Y-73434523D01*
X140035714Y-73339285D01*
X139988095Y-73148809D01*
X139988095Y-73005952D01*
X140035714Y-72815476D01*
X140083333Y-72720238D01*
X140178571Y-72625000D01*
X140321428Y-72577380D01*
X140416666Y-72577380D01*
X140559523Y-72625000D01*
X140607142Y-72672619D01*
X141559523Y-73577380D02*
X140988095Y-73577380D01*
X141273809Y-73577380D02*
X141273809Y-72577380D01*
X141178571Y-72720238D01*
X141083333Y-72815476D01*
X140988095Y-72863095D01*
X142416666Y-72910714D02*
X142416666Y-73577380D01*
X142178571Y-72529761D02*
X141940476Y-73244047D01*
X142559523Y-73244047D01*
X140582142Y-74807142D02*
X140534523Y-74854761D01*
X140391666Y-74902380D01*
X140296428Y-74902380D01*
X140153571Y-74854761D01*
X140058333Y-74759523D01*
X140010714Y-74664285D01*
X139963095Y-74473809D01*
X139963095Y-74330952D01*
X140010714Y-74140476D01*
X140058333Y-74045238D01*
X140153571Y-73950000D01*
X140296428Y-73902380D01*
X140391666Y-73902380D01*
X140534523Y-73950000D01*
X140582142Y-73997619D01*
X141534523Y-74902380D02*
X140963095Y-74902380D01*
X141248809Y-74902380D02*
X141248809Y-73902380D01*
X141153571Y-74045238D01*
X141058333Y-74140476D01*
X140963095Y-74188095D01*
X141867857Y-73902380D02*
X142486904Y-73902380D01*
X142153571Y-74283333D01*
X142296428Y-74283333D01*
X142391666Y-74330952D01*
X142439285Y-74378571D01*
X142486904Y-74473809D01*
X142486904Y-74711904D01*
X142439285Y-74807142D01*
X142391666Y-74854761D01*
X142296428Y-74902380D01*
X142010714Y-74902380D01*
X141915476Y-74854761D01*
X141867857Y-74807142D01*
X185432142Y-84657142D02*
X185384523Y-84704761D01*
X185241666Y-84752380D01*
X185146428Y-84752380D01*
X185003571Y-84704761D01*
X184908333Y-84609523D01*
X184860714Y-84514285D01*
X184813095Y-84323809D01*
X184813095Y-84180952D01*
X184860714Y-83990476D01*
X184908333Y-83895238D01*
X185003571Y-83800000D01*
X185146428Y-83752380D01*
X185241666Y-83752380D01*
X185384523Y-83800000D01*
X185432142Y-83847619D01*
X186384523Y-84752380D02*
X185813095Y-84752380D01*
X186098809Y-84752380D02*
X186098809Y-83752380D01*
X186003571Y-83895238D01*
X185908333Y-83990476D01*
X185813095Y-84038095D01*
X186765476Y-83847619D02*
X186813095Y-83800000D01*
X186908333Y-83752380D01*
X187146428Y-83752380D01*
X187241666Y-83800000D01*
X187289285Y-83847619D01*
X187336904Y-83942857D01*
X187336904Y-84038095D01*
X187289285Y-84180952D01*
X186717857Y-84752380D01*
X187336904Y-84752380D01*
X177957142Y-79055357D02*
X178004761Y-79102976D01*
X178052380Y-79245833D01*
X178052380Y-79341071D01*
X178004761Y-79483928D01*
X177909523Y-79579166D01*
X177814285Y-79626785D01*
X177623809Y-79674404D01*
X177480952Y-79674404D01*
X177290476Y-79626785D01*
X177195238Y-79579166D01*
X177100000Y-79483928D01*
X177052380Y-79341071D01*
X177052380Y-79245833D01*
X177100000Y-79102976D01*
X177147619Y-79055357D01*
X178052380Y-78102976D02*
X178052380Y-78674404D01*
X178052380Y-78388690D02*
X177052380Y-78388690D01*
X177195238Y-78483928D01*
X177290476Y-78579166D01*
X177338095Y-78674404D01*
X178052380Y-77150595D02*
X178052380Y-77722023D01*
X178052380Y-77436309D02*
X177052380Y-77436309D01*
X177195238Y-77531547D01*
X177290476Y-77626785D01*
X177338095Y-77722023D01*
X168557142Y-89457142D02*
X168509523Y-89504761D01*
X168366666Y-89552380D01*
X168271428Y-89552380D01*
X168128571Y-89504761D01*
X168033333Y-89409523D01*
X167985714Y-89314285D01*
X167938095Y-89123809D01*
X167938095Y-88980952D01*
X167985714Y-88790476D01*
X168033333Y-88695238D01*
X168128571Y-88600000D01*
X168271428Y-88552380D01*
X168366666Y-88552380D01*
X168509523Y-88600000D01*
X168557142Y-88647619D01*
X169509523Y-89552380D02*
X168938095Y-89552380D01*
X169223809Y-89552380D02*
X169223809Y-88552380D01*
X169128571Y-88695238D01*
X169033333Y-88790476D01*
X168938095Y-88838095D01*
X170128571Y-88552380D02*
X170223809Y-88552380D01*
X170319047Y-88600000D01*
X170366666Y-88647619D01*
X170414285Y-88742857D01*
X170461904Y-88933333D01*
X170461904Y-89171428D01*
X170414285Y-89361904D01*
X170366666Y-89457142D01*
X170319047Y-89504761D01*
X170223809Y-89552380D01*
X170128571Y-89552380D01*
X170033333Y-89504761D01*
X169985714Y-89457142D01*
X169938095Y-89361904D01*
X169890476Y-89171428D01*
X169890476Y-88933333D01*
X169938095Y-88742857D01*
X169985714Y-88647619D01*
X170033333Y-88600000D01*
X170128571Y-88552380D01*
X185358333Y-87757142D02*
X185310714Y-87804761D01*
X185167857Y-87852380D01*
X185072619Y-87852380D01*
X184929761Y-87804761D01*
X184834523Y-87709523D01*
X184786904Y-87614285D01*
X184739285Y-87423809D01*
X184739285Y-87280952D01*
X184786904Y-87090476D01*
X184834523Y-86995238D01*
X184929761Y-86900000D01*
X185072619Y-86852380D01*
X185167857Y-86852380D01*
X185310714Y-86900000D01*
X185358333Y-86947619D01*
X185834523Y-87852380D02*
X186025000Y-87852380D01*
X186120238Y-87804761D01*
X186167857Y-87757142D01*
X186263095Y-87614285D01*
X186310714Y-87423809D01*
X186310714Y-87042857D01*
X186263095Y-86947619D01*
X186215476Y-86900000D01*
X186120238Y-86852380D01*
X185929761Y-86852380D01*
X185834523Y-86900000D01*
X185786904Y-86947619D01*
X185739285Y-87042857D01*
X185739285Y-87280952D01*
X185786904Y-87376190D01*
X185834523Y-87423809D01*
X185929761Y-87471428D01*
X186120238Y-87471428D01*
X186215476Y-87423809D01*
X186263095Y-87376190D01*
X186310714Y-87280952D01*
X161631333Y-98401142D02*
X161583714Y-98448761D01*
X161440857Y-98496380D01*
X161345619Y-98496380D01*
X161202761Y-98448761D01*
X161107523Y-98353523D01*
X161059904Y-98258285D01*
X161012285Y-98067809D01*
X161012285Y-97924952D01*
X161059904Y-97734476D01*
X161107523Y-97639238D01*
X161202761Y-97544000D01*
X161345619Y-97496380D01*
X161440857Y-97496380D01*
X161583714Y-97544000D01*
X161631333Y-97591619D01*
X162202761Y-97924952D02*
X162107523Y-97877333D01*
X162059904Y-97829714D01*
X162012285Y-97734476D01*
X162012285Y-97686857D01*
X162059904Y-97591619D01*
X162107523Y-97544000D01*
X162202761Y-97496380D01*
X162393238Y-97496380D01*
X162488476Y-97544000D01*
X162536095Y-97591619D01*
X162583714Y-97686857D01*
X162583714Y-97734476D01*
X162536095Y-97829714D01*
X162488476Y-97877333D01*
X162393238Y-97924952D01*
X162202761Y-97924952D01*
X162107523Y-97972571D01*
X162059904Y-98020190D01*
X162012285Y-98115428D01*
X162012285Y-98305904D01*
X162059904Y-98401142D01*
X162107523Y-98448761D01*
X162202761Y-98496380D01*
X162393238Y-98496380D01*
X162488476Y-98448761D01*
X162536095Y-98401142D01*
X162583714Y-98305904D01*
X162583714Y-98115428D01*
X162536095Y-98020190D01*
X162488476Y-97972571D01*
X162393238Y-97924952D01*
X153363095Y-114552380D02*
X153363095Y-115361904D01*
X153410714Y-115457142D01*
X153458333Y-115504761D01*
X153553571Y-115552380D01*
X153744047Y-115552380D01*
X153839285Y-115504761D01*
X153886904Y-115457142D01*
X153934523Y-115361904D01*
X153934523Y-114552380D01*
X154934523Y-115552380D02*
X154363095Y-115552380D01*
X154648809Y-115552380D02*
X154648809Y-114552380D01*
X154553571Y-114695238D01*
X154458333Y-114790476D01*
X154363095Y-114838095D01*
X153683333Y-113977380D02*
X153350000Y-113501190D01*
X153111904Y-113977380D02*
X153111904Y-112977380D01*
X153492857Y-112977380D01*
X153588095Y-113025000D01*
X153635714Y-113072619D01*
X153683333Y-113167857D01*
X153683333Y-113310714D01*
X153635714Y-113405952D01*
X153588095Y-113453571D01*
X153492857Y-113501190D01*
X153111904Y-113501190D01*
X154064285Y-113072619D02*
X154111904Y-113025000D01*
X154207142Y-112977380D01*
X154445238Y-112977380D01*
X154540476Y-113025000D01*
X154588095Y-113072619D01*
X154635714Y-113167857D01*
X154635714Y-113263095D01*
X154588095Y-113405952D01*
X154016666Y-113977380D01*
X154635714Y-113977380D01*
X147358333Y-105552380D02*
X147025000Y-105076190D01*
X146786904Y-105552380D02*
X146786904Y-104552380D01*
X147167857Y-104552380D01*
X147263095Y-104600000D01*
X147310714Y-104647619D01*
X147358333Y-104742857D01*
X147358333Y-104885714D01*
X147310714Y-104980952D01*
X147263095Y-105028571D01*
X147167857Y-105076190D01*
X146786904Y-105076190D01*
X147977380Y-104552380D02*
X148072619Y-104552380D01*
X148167857Y-104600000D01*
X148215476Y-104647619D01*
X148263095Y-104742857D01*
X148310714Y-104933333D01*
X148310714Y-105171428D01*
X148263095Y-105361904D01*
X148215476Y-105457142D01*
X148167857Y-105504761D01*
X148072619Y-105552380D01*
X147977380Y-105552380D01*
X147882142Y-105504761D01*
X147834523Y-105457142D01*
X147786904Y-105361904D01*
X147739285Y-105171428D01*
X147739285Y-104933333D01*
X147786904Y-104742857D01*
X147834523Y-104647619D01*
X147882142Y-104600000D01*
X147977380Y-104552380D01*
X184086380Y-72469333D02*
X184800666Y-72469333D01*
X184943523Y-72516952D01*
X185038761Y-72612190D01*
X185086380Y-72755047D01*
X185086380Y-72850285D01*
X184086380Y-72088380D02*
X184086380Y-71469333D01*
X184467333Y-71802666D01*
X184467333Y-71659809D01*
X184514952Y-71564571D01*
X184562571Y-71516952D01*
X184657809Y-71469333D01*
X184895904Y-71469333D01*
X184991142Y-71516952D01*
X185038761Y-71564571D01*
X185086380Y-71659809D01*
X185086380Y-71945523D01*
X185038761Y-72040761D01*
X184991142Y-72088380D01*
X138516666Y-112777380D02*
X138516666Y-113491666D01*
X138469047Y-113634523D01*
X138373809Y-113729761D01*
X138230952Y-113777380D01*
X138135714Y-113777380D01*
X139516666Y-113777380D02*
X138945238Y-113777380D01*
X139230952Y-113777380D02*
X139230952Y-112777380D01*
X139135714Y-112920238D01*
X139040476Y-113015476D01*
X138945238Y-113063095D01*
X161218666Y-96194571D02*
X160885333Y-96194571D01*
X160885333Y-96718380D02*
X160885333Y-95718380D01*
X161361523Y-95718380D01*
X162075809Y-96194571D02*
X162218666Y-96242190D01*
X162266285Y-96289809D01*
X162313904Y-96385047D01*
X162313904Y-96527904D01*
X162266285Y-96623142D01*
X162218666Y-96670761D01*
X162123428Y-96718380D01*
X161742476Y-96718380D01*
X161742476Y-95718380D01*
X162075809Y-95718380D01*
X162171047Y-95766000D01*
X162218666Y-95813619D01*
X162266285Y-95908857D01*
X162266285Y-96004095D01*
X162218666Y-96099333D01*
X162171047Y-96146952D01*
X162075809Y-96194571D01*
X161742476Y-96194571D01*
X163266285Y-96718380D02*
X162694857Y-96718380D01*
X162980571Y-96718380D02*
X162980571Y-95718380D01*
X162885333Y-95861238D01*
X162790095Y-95956476D01*
X162694857Y-96004095D01*
X150961904Y-113977380D02*
X150961904Y-112977380D01*
X151200000Y-112977380D01*
X151342857Y-113025000D01*
X151438095Y-113120238D01*
X151485714Y-113215476D01*
X151533333Y-113405952D01*
X151533333Y-113548809D01*
X151485714Y-113739285D01*
X151438095Y-113834523D01*
X151342857Y-113929761D01*
X151200000Y-113977380D01*
X150961904Y-113977380D01*
X151914285Y-113072619D02*
X151961904Y-113025000D01*
X152057142Y-112977380D01*
X152295238Y-112977380D01*
X152390476Y-113025000D01*
X152438095Y-113072619D01*
X152485714Y-113167857D01*
X152485714Y-113263095D01*
X152438095Y-113405952D01*
X151866666Y-113977380D01*
X152485714Y-113977380D01*
X167473333Y-94337142D02*
X167425714Y-94384761D01*
X167282857Y-94432380D01*
X167187619Y-94432380D01*
X167044761Y-94384761D01*
X166949523Y-94289523D01*
X166901904Y-94194285D01*
X166854285Y-94003809D01*
X166854285Y-93860952D01*
X166901904Y-93670476D01*
X166949523Y-93575238D01*
X167044761Y-93480000D01*
X167187619Y-93432380D01*
X167282857Y-93432380D01*
X167425714Y-93480000D01*
X167473333Y-93527619D01*
X168330476Y-93432380D02*
X168140000Y-93432380D01*
X168044761Y-93480000D01*
X167997142Y-93527619D01*
X167901904Y-93670476D01*
X167854285Y-93860952D01*
X167854285Y-94241904D01*
X167901904Y-94337142D01*
X167949523Y-94384761D01*
X168044761Y-94432380D01*
X168235238Y-94432380D01*
X168330476Y-94384761D01*
X168378095Y-94337142D01*
X168425714Y-94241904D01*
X168425714Y-94003809D01*
X168378095Y-93908571D01*
X168330476Y-93860952D01*
X168235238Y-93813333D01*
X168044761Y-93813333D01*
X167949523Y-93860952D01*
X167901904Y-93908571D01*
X167854285Y-94003809D01*
X155833333Y-105957142D02*
X155785714Y-106004761D01*
X155642857Y-106052380D01*
X155547619Y-106052380D01*
X155404761Y-106004761D01*
X155309523Y-105909523D01*
X155261904Y-105814285D01*
X155214285Y-105623809D01*
X155214285Y-105480952D01*
X155261904Y-105290476D01*
X155309523Y-105195238D01*
X155404761Y-105100000D01*
X155547619Y-105052380D01*
X155642857Y-105052380D01*
X155785714Y-105100000D01*
X155833333Y-105147619D01*
X156690476Y-105385714D02*
X156690476Y-106052380D01*
X156452380Y-105004761D02*
X156214285Y-105719047D01*
X156833333Y-105719047D01*
X152983333Y-105494642D02*
X152935714Y-105542261D01*
X152792857Y-105589880D01*
X152697619Y-105589880D01*
X152554761Y-105542261D01*
X152459523Y-105447023D01*
X152411904Y-105351785D01*
X152364285Y-105161309D01*
X152364285Y-105018452D01*
X152411904Y-104827976D01*
X152459523Y-104732738D01*
X152554761Y-104637500D01*
X152697619Y-104589880D01*
X152792857Y-104589880D01*
X152935714Y-104637500D01*
X152983333Y-104685119D01*
X153316666Y-104589880D02*
X153935714Y-104589880D01*
X153602380Y-104970833D01*
X153745238Y-104970833D01*
X153840476Y-105018452D01*
X153888095Y-105066071D01*
X153935714Y-105161309D01*
X153935714Y-105399404D01*
X153888095Y-105494642D01*
X153840476Y-105542261D01*
X153745238Y-105589880D01*
X153459523Y-105589880D01*
X153364285Y-105542261D01*
X153316666Y-105494642D01*
X151083333Y-105482142D02*
X151035714Y-105529761D01*
X150892857Y-105577380D01*
X150797619Y-105577380D01*
X150654761Y-105529761D01*
X150559523Y-105434523D01*
X150511904Y-105339285D01*
X150464285Y-105148809D01*
X150464285Y-105005952D01*
X150511904Y-104815476D01*
X150559523Y-104720238D01*
X150654761Y-104625000D01*
X150797619Y-104577380D01*
X150892857Y-104577380D01*
X151035714Y-104625000D01*
X151083333Y-104672619D01*
X151464285Y-104672619D02*
X151511904Y-104625000D01*
X151607142Y-104577380D01*
X151845238Y-104577380D01*
X151940476Y-104625000D01*
X151988095Y-104672619D01*
X152035714Y-104767857D01*
X152035714Y-104863095D01*
X151988095Y-105005952D01*
X151416666Y-105577380D01*
X152035714Y-105577380D01*
X149183333Y-105482142D02*
X149135714Y-105529761D01*
X148992857Y-105577380D01*
X148897619Y-105577380D01*
X148754761Y-105529761D01*
X148659523Y-105434523D01*
X148611904Y-105339285D01*
X148564285Y-105148809D01*
X148564285Y-105005952D01*
X148611904Y-104815476D01*
X148659523Y-104720238D01*
X148754761Y-104625000D01*
X148897619Y-104577380D01*
X148992857Y-104577380D01*
X149135714Y-104625000D01*
X149183333Y-104672619D01*
X150135714Y-105577380D02*
X149564285Y-105577380D01*
X149850000Y-105577380D02*
X149850000Y-104577380D01*
X149754761Y-104720238D01*
X149659523Y-104815476D01*
X149564285Y-104863095D01*
M02*
