G04 #@! TF.GenerationSoftware,KiCad,Pcbnew,(5.1.4)-1*
G04 #@! TF.CreationDate,2020-09-03T10:31:54-07:00*
G04 #@! TF.ProjectId,EsperDNS,45737065-7244-44e5-932e-6b696361645f,rev?*
G04 #@! TF.SameCoordinates,Original*
G04 #@! TF.FileFunction,Soldermask,Bot*
G04 #@! TF.FilePolarity,Negative*
%FSLAX46Y46*%
G04 Gerber Fmt 4.6, Leading zero omitted, Abs format (unit mm)*
G04 Created by KiCad (PCBNEW (5.1.4)-1) date 2020-09-03 10:31:54*
%MOMM*%
%LPD*%
G04 APERTURE LIST*
%ADD10C,0.100000*%
G04 APERTURE END LIST*
D10*
G36*
X180998017Y-109415358D02*
G01*
X181072270Y-109446115D01*
X181146521Y-109476870D01*
X181146522Y-109476871D01*
X181280167Y-109566169D01*
X181393831Y-109679833D01*
X181460804Y-109780067D01*
X181483130Y-109813479D01*
X181544642Y-109961983D01*
X181576000Y-110119630D01*
X181576000Y-110280370D01*
X181544642Y-110438017D01*
X181483130Y-110586521D01*
X181483129Y-110586522D01*
X181393831Y-110720167D01*
X181280167Y-110833831D01*
X181179933Y-110900804D01*
X181146521Y-110923130D01*
X181072270Y-110953885D01*
X180998017Y-110984642D01*
X180840370Y-111016000D01*
X180679630Y-111016000D01*
X180521983Y-110984642D01*
X180447730Y-110953885D01*
X180373479Y-110923130D01*
X180340067Y-110900804D01*
X180239833Y-110833831D01*
X180126169Y-110720167D01*
X180036871Y-110586522D01*
X180036870Y-110586521D01*
X179975358Y-110438017D01*
X179944000Y-110280370D01*
X179944000Y-110119630D01*
X179975358Y-109961983D01*
X180036870Y-109813479D01*
X180059196Y-109780067D01*
X180126169Y-109679833D01*
X180239833Y-109566169D01*
X180373478Y-109476871D01*
X180373479Y-109476870D01*
X180447730Y-109446115D01*
X180521983Y-109415358D01*
X180679630Y-109384000D01*
X180840370Y-109384000D01*
X180998017Y-109415358D01*
X180998017Y-109415358D01*
G37*
G36*
X170798017Y-109415358D02*
G01*
X170872270Y-109446115D01*
X170946521Y-109476870D01*
X170946522Y-109476871D01*
X171080167Y-109566169D01*
X171193831Y-109679833D01*
X171260804Y-109780067D01*
X171283130Y-109813479D01*
X171344642Y-109961983D01*
X171376000Y-110119630D01*
X171376000Y-110280370D01*
X171344642Y-110438017D01*
X171283130Y-110586521D01*
X171283129Y-110586522D01*
X171193831Y-110720167D01*
X171080167Y-110833831D01*
X170979933Y-110900804D01*
X170946521Y-110923130D01*
X170872270Y-110953885D01*
X170798017Y-110984642D01*
X170640370Y-111016000D01*
X170479630Y-111016000D01*
X170321983Y-110984642D01*
X170247730Y-110953885D01*
X170173479Y-110923130D01*
X170140067Y-110900804D01*
X170039833Y-110833831D01*
X169926169Y-110720167D01*
X169836871Y-110586522D01*
X169836870Y-110586521D01*
X169775358Y-110438017D01*
X169744000Y-110280370D01*
X169744000Y-110119630D01*
X169775358Y-109961983D01*
X169836870Y-109813479D01*
X169859196Y-109780067D01*
X169926169Y-109679833D01*
X170039833Y-109566169D01*
X170173478Y-109476871D01*
X170173479Y-109476870D01*
X170247730Y-109446115D01*
X170321983Y-109415358D01*
X170479630Y-109384000D01*
X170640370Y-109384000D01*
X170798017Y-109415358D01*
X170798017Y-109415358D01*
G37*
G36*
X183448017Y-107895358D02*
G01*
X183474370Y-107906274D01*
X183596521Y-107956870D01*
X183596522Y-107956871D01*
X183730167Y-108046169D01*
X183843831Y-108159833D01*
X183910804Y-108260067D01*
X183933130Y-108293479D01*
X183935530Y-108299274D01*
X183994642Y-108441983D01*
X184026000Y-108599630D01*
X184026000Y-108760370D01*
X183994642Y-108918017D01*
X183963885Y-108992270D01*
X183933130Y-109066521D01*
X183933129Y-109066522D01*
X183843831Y-109200167D01*
X183730167Y-109313831D01*
X183629933Y-109380805D01*
X183596521Y-109403130D01*
X183522270Y-109433885D01*
X183448017Y-109464642D01*
X183290370Y-109496000D01*
X183129630Y-109496000D01*
X182971983Y-109464642D01*
X182823479Y-109403130D01*
X182790067Y-109380805D01*
X182689833Y-109313831D01*
X182576169Y-109200167D01*
X182486871Y-109066522D01*
X182486870Y-109066521D01*
X182456115Y-108992270D01*
X182425358Y-108918017D01*
X182394000Y-108760370D01*
X182394000Y-108599630D01*
X182425358Y-108441983D01*
X182484470Y-108299274D01*
X182486870Y-108293479D01*
X182509196Y-108260067D01*
X182576169Y-108159833D01*
X182689833Y-108046169D01*
X182823478Y-107956871D01*
X182823479Y-107956870D01*
X182945630Y-107906274D01*
X182971983Y-107895358D01*
X183129630Y-107864000D01*
X183290370Y-107864000D01*
X183448017Y-107895358D01*
X183448017Y-107895358D01*
G37*
G36*
X173248017Y-107895358D02*
G01*
X173274370Y-107906274D01*
X173396521Y-107956870D01*
X173396522Y-107956871D01*
X173530167Y-108046169D01*
X173643831Y-108159833D01*
X173710804Y-108260067D01*
X173733130Y-108293479D01*
X173735530Y-108299274D01*
X173794642Y-108441983D01*
X173826000Y-108599630D01*
X173826000Y-108760370D01*
X173794642Y-108918017D01*
X173763885Y-108992270D01*
X173733130Y-109066521D01*
X173733129Y-109066522D01*
X173643831Y-109200167D01*
X173530167Y-109313831D01*
X173429933Y-109380805D01*
X173396521Y-109403130D01*
X173322270Y-109433885D01*
X173248017Y-109464642D01*
X173090370Y-109496000D01*
X172929630Y-109496000D01*
X172771983Y-109464642D01*
X172623479Y-109403130D01*
X172590067Y-109380805D01*
X172489833Y-109313831D01*
X172376169Y-109200167D01*
X172286871Y-109066522D01*
X172286870Y-109066521D01*
X172256115Y-108992270D01*
X172225358Y-108918017D01*
X172194000Y-108760370D01*
X172194000Y-108599630D01*
X172225358Y-108441983D01*
X172284470Y-108299274D01*
X172286870Y-108293479D01*
X172309196Y-108260067D01*
X172376169Y-108159833D01*
X172489833Y-108046169D01*
X172623478Y-107956871D01*
X172623479Y-107956870D01*
X172745630Y-107906274D01*
X172771983Y-107895358D01*
X172929630Y-107864000D01*
X173090370Y-107864000D01*
X173248017Y-107895358D01*
X173248017Y-107895358D01*
G37*
G36*
X143118191Y-106538912D02*
G01*
X143215180Y-106579086D01*
X143291572Y-106610729D01*
X143447610Y-106714990D01*
X143580310Y-106847690D01*
X143684571Y-107003728D01*
X143756388Y-107177109D01*
X143792999Y-107361168D01*
X143792999Y-107548834D01*
X143756388Y-107732893D01*
X143684571Y-107906274D01*
X143580310Y-108062312D01*
X143447610Y-108195012D01*
X143291572Y-108299273D01*
X143291571Y-108299274D01*
X143291570Y-108299274D01*
X143118191Y-108371090D01*
X142934133Y-108407701D01*
X142746465Y-108407701D01*
X142562407Y-108371090D01*
X142389028Y-108299274D01*
X142389027Y-108299274D01*
X142389026Y-108299273D01*
X142232988Y-108195012D01*
X142100288Y-108062312D01*
X141996027Y-107906274D01*
X141924210Y-107732893D01*
X141887599Y-107548834D01*
X141887599Y-107361168D01*
X141924210Y-107177109D01*
X141996027Y-107003728D01*
X142100288Y-106847690D01*
X142232988Y-106714990D01*
X142389026Y-106610729D01*
X142465419Y-106579086D01*
X142562407Y-106538912D01*
X142746465Y-106502301D01*
X142934133Y-106502301D01*
X143118191Y-106538912D01*
X143118191Y-106538912D01*
G37*
G36*
X183096401Y-103171953D02*
G01*
X183237049Y-103199930D01*
X183442252Y-103284928D01*
X183572028Y-103338683D01*
X183634512Y-103364565D01*
X183992219Y-103603577D01*
X184296423Y-103907781D01*
X184535435Y-104265488D01*
X184700070Y-104662951D01*
X184784000Y-105084895D01*
X184784000Y-105515105D01*
X184700070Y-105937049D01*
X184535435Y-106334512D01*
X184296423Y-106692219D01*
X183992219Y-106996423D01*
X183634512Y-107235435D01*
X183237049Y-107400070D01*
X183096401Y-107428047D01*
X182815107Y-107484000D01*
X182384893Y-107484000D01*
X182103599Y-107428047D01*
X181962951Y-107400070D01*
X181565488Y-107235435D01*
X181207781Y-106996423D01*
X180903577Y-106692219D01*
X180664565Y-106334512D01*
X180499930Y-105937049D01*
X180416000Y-105515105D01*
X180416000Y-105084895D01*
X180499930Y-104662951D01*
X180664565Y-104265488D01*
X180903577Y-103907781D01*
X181207781Y-103603577D01*
X181565488Y-103364565D01*
X181627973Y-103338683D01*
X181757748Y-103284928D01*
X181962951Y-103199930D01*
X182103599Y-103171953D01*
X182384893Y-103116000D01*
X182815107Y-103116000D01*
X183096401Y-103171953D01*
X183096401Y-103171953D01*
G37*
G36*
X171666401Y-103171953D02*
G01*
X171807049Y-103199930D01*
X172012252Y-103284928D01*
X172142028Y-103338683D01*
X172204512Y-103364565D01*
X172562219Y-103603577D01*
X172866423Y-103907781D01*
X173105435Y-104265488D01*
X173270070Y-104662951D01*
X173354000Y-105084895D01*
X173354000Y-105515105D01*
X173270070Y-105937049D01*
X173105435Y-106334512D01*
X172866423Y-106692219D01*
X172562219Y-106996423D01*
X172204512Y-107235435D01*
X171807049Y-107400070D01*
X171666401Y-107428047D01*
X171385107Y-107484000D01*
X170954893Y-107484000D01*
X170673599Y-107428047D01*
X170532951Y-107400070D01*
X170135488Y-107235435D01*
X169777781Y-106996423D01*
X169473577Y-106692219D01*
X169234565Y-106334512D01*
X169069930Y-105937049D01*
X168986000Y-105515105D01*
X168986000Y-105084895D01*
X169069930Y-104662951D01*
X169234565Y-104265488D01*
X169473577Y-103907781D01*
X169777781Y-103603577D01*
X170135488Y-103364565D01*
X170197973Y-103338683D01*
X170327748Y-103284928D01*
X170532951Y-103199930D01*
X170673599Y-103171953D01*
X170954893Y-103116000D01*
X171385107Y-103116000D01*
X171666401Y-103171953D01*
X171666401Y-103171953D01*
G37*
G36*
X140506131Y-105415078D02*
G01*
X140583439Y-105430456D01*
X140656262Y-105460621D01*
X140729085Y-105490785D01*
X140860159Y-105578365D01*
X140971636Y-105689842D01*
X141059216Y-105820916D01*
X141059216Y-105820917D01*
X141107320Y-105937048D01*
X141119545Y-105966563D01*
X141150300Y-106121177D01*
X141150300Y-106278825D01*
X141119545Y-106433439D01*
X141059216Y-106579086D01*
X140971636Y-106710160D01*
X140860159Y-106821637D01*
X140729085Y-106909217D01*
X140656261Y-106939382D01*
X140583439Y-106969546D01*
X140506131Y-106984923D01*
X140428824Y-107000301D01*
X140271176Y-107000301D01*
X140193869Y-106984923D01*
X140116561Y-106969546D01*
X140043739Y-106939382D01*
X139970915Y-106909217D01*
X139839841Y-106821637D01*
X139728364Y-106710160D01*
X139640784Y-106579086D01*
X139580455Y-106433439D01*
X139549700Y-106278825D01*
X139549700Y-106121177D01*
X139580455Y-105966563D01*
X139592681Y-105937048D01*
X139640784Y-105820917D01*
X139640784Y-105820916D01*
X139728364Y-105689842D01*
X139839841Y-105578365D01*
X139970915Y-105490785D01*
X140043738Y-105460621D01*
X140116561Y-105430456D01*
X140193869Y-105415079D01*
X140271176Y-105399701D01*
X140428824Y-105399701D01*
X140506131Y-105415078D01*
X140506131Y-105415078D01*
G37*
G36*
X150375880Y-99609776D02*
G01*
X150756593Y-99685504D01*
X151166249Y-99855189D01*
X151534929Y-100101534D01*
X151848466Y-100415071D01*
X152094811Y-100783751D01*
X152264496Y-101193407D01*
X152351000Y-101628296D01*
X152351000Y-102071704D01*
X152264496Y-102506593D01*
X152094811Y-102916249D01*
X151848466Y-103284929D01*
X151534929Y-103598466D01*
X151166249Y-103844811D01*
X150756593Y-104014496D01*
X150375880Y-104090224D01*
X150321705Y-104101000D01*
X149878295Y-104101000D01*
X149824120Y-104090224D01*
X149443407Y-104014496D01*
X149033751Y-103844811D01*
X148665071Y-103598466D01*
X148351534Y-103284929D01*
X148105189Y-102916249D01*
X147935504Y-102506593D01*
X147849000Y-102071704D01*
X147849000Y-101628296D01*
X147935504Y-101193407D01*
X148105189Y-100783751D01*
X148351534Y-100415071D01*
X148665071Y-100101534D01*
X149033751Y-99855189D01*
X149443407Y-99685504D01*
X149824120Y-99609776D01*
X149878295Y-99599000D01*
X150321705Y-99599000D01*
X150375880Y-99609776D01*
X150375880Y-99609776D01*
G37*
G36*
X185118339Y-101068710D02*
G01*
X185341911Y-101161317D01*
X185341913Y-101161318D01*
X185543123Y-101295762D01*
X185714238Y-101466877D01*
X185848682Y-101668087D01*
X185848683Y-101668089D01*
X185941290Y-101891661D01*
X185988500Y-102129002D01*
X185988500Y-102370998D01*
X185941290Y-102608339D01*
X185848683Y-102831911D01*
X185848682Y-102831913D01*
X185714238Y-103033123D01*
X185543123Y-103204238D01*
X185341913Y-103338682D01*
X185341912Y-103338683D01*
X185341911Y-103338683D01*
X185118339Y-103431290D01*
X184880998Y-103478500D01*
X184639002Y-103478500D01*
X184401661Y-103431290D01*
X184178089Y-103338683D01*
X184178088Y-103338683D01*
X184178087Y-103338682D01*
X183976877Y-103204238D01*
X183805762Y-103033123D01*
X183671318Y-102831913D01*
X183671317Y-102831911D01*
X183578710Y-102608339D01*
X183531500Y-102370998D01*
X183531500Y-102129002D01*
X183578710Y-101891661D01*
X183671317Y-101668089D01*
X183671318Y-101668087D01*
X183805762Y-101466877D01*
X183976877Y-101295762D01*
X184178087Y-101161318D01*
X184178089Y-101161317D01*
X184401661Y-101068710D01*
X184639002Y-101021500D01*
X184880998Y-101021500D01*
X185118339Y-101068710D01*
X185118339Y-101068710D01*
G37*
G36*
X169368339Y-101068710D02*
G01*
X169591911Y-101161317D01*
X169591913Y-101161318D01*
X169793123Y-101295762D01*
X169964238Y-101466877D01*
X170098682Y-101668087D01*
X170098683Y-101668089D01*
X170191290Y-101891661D01*
X170238500Y-102129002D01*
X170238500Y-102370998D01*
X170191290Y-102608339D01*
X170098683Y-102831911D01*
X170098682Y-102831913D01*
X169964238Y-103033123D01*
X169793123Y-103204238D01*
X169591913Y-103338682D01*
X169591912Y-103338683D01*
X169591911Y-103338683D01*
X169368339Y-103431290D01*
X169130998Y-103478500D01*
X168889002Y-103478500D01*
X168651661Y-103431290D01*
X168428089Y-103338683D01*
X168428088Y-103338683D01*
X168428087Y-103338682D01*
X168226877Y-103204238D01*
X168055762Y-103033123D01*
X167921318Y-102831913D01*
X167921317Y-102831911D01*
X167828710Y-102608339D01*
X167781500Y-102370998D01*
X167781500Y-102129002D01*
X167828710Y-101891661D01*
X167921317Y-101668089D01*
X167921318Y-101668087D01*
X168055762Y-101466877D01*
X168226877Y-101295762D01*
X168428087Y-101161318D01*
X168428089Y-101161317D01*
X168651661Y-101068710D01*
X168889002Y-101021500D01*
X169130998Y-101021500D01*
X169368339Y-101068710D01*
X169368339Y-101068710D01*
G37*
G36*
X140506131Y-100915078D02*
G01*
X140583439Y-100930455D01*
X140656262Y-100960620D01*
X140729085Y-100990784D01*
X140860159Y-101078364D01*
X140971636Y-101189841D01*
X141059216Y-101320915D01*
X141119545Y-101466562D01*
X141150300Y-101621176D01*
X141150300Y-101778824D01*
X141119545Y-101933438D01*
X141059216Y-102079085D01*
X140971636Y-102210159D01*
X140860159Y-102321636D01*
X140729085Y-102409216D01*
X140656262Y-102439380D01*
X140583439Y-102469545D01*
X140506131Y-102484922D01*
X140428824Y-102500300D01*
X140271176Y-102500300D01*
X140193869Y-102484922D01*
X140116561Y-102469545D01*
X140043738Y-102439380D01*
X139970915Y-102409216D01*
X139839841Y-102321636D01*
X139728364Y-102210159D01*
X139640784Y-102079085D01*
X139580455Y-101933438D01*
X139549700Y-101778824D01*
X139549700Y-101621176D01*
X139580455Y-101466562D01*
X139640784Y-101320915D01*
X139728364Y-101189841D01*
X139839841Y-101078364D01*
X139970915Y-100990784D01*
X140043739Y-100960619D01*
X140116561Y-100930455D01*
X140193869Y-100915078D01*
X140271176Y-100899700D01*
X140428824Y-100899700D01*
X140506131Y-100915078D01*
X140506131Y-100915078D01*
G37*
G36*
X143118191Y-99528911D02*
G01*
X143287401Y-99599000D01*
X143291572Y-99600728D01*
X143447610Y-99704989D01*
X143580310Y-99837689D01*
X143684571Y-99993727D01*
X143756388Y-100167108D01*
X143792999Y-100351167D01*
X143792999Y-100538833D01*
X143756388Y-100722892D01*
X143684571Y-100896273D01*
X143580310Y-101052311D01*
X143447610Y-101185011D01*
X143291572Y-101289272D01*
X143291571Y-101289273D01*
X143291570Y-101289273D01*
X143118191Y-101361089D01*
X142934133Y-101397700D01*
X142746465Y-101397700D01*
X142562407Y-101361089D01*
X142389028Y-101289273D01*
X142389027Y-101289273D01*
X142389026Y-101289272D01*
X142232988Y-101185011D01*
X142100288Y-101052311D01*
X141996027Y-100896273D01*
X141924210Y-100722892D01*
X141887599Y-100538833D01*
X141887599Y-100351167D01*
X141924210Y-100167108D01*
X141996027Y-99993727D01*
X142100288Y-99837689D01*
X142232988Y-99704989D01*
X142389026Y-99600728D01*
X142393198Y-99599000D01*
X142562407Y-99528911D01*
X142746465Y-99492300D01*
X142934133Y-99492300D01*
X143118191Y-99528911D01*
X143118191Y-99528911D01*
G37*
G36*
X177738766Y-98228821D02*
G01*
X177875257Y-98285358D01*
X177998097Y-98367437D01*
X178102563Y-98471903D01*
X178184642Y-98594743D01*
X178241179Y-98731234D01*
X178270000Y-98876130D01*
X178270000Y-99023870D01*
X178241179Y-99168766D01*
X178184642Y-99305257D01*
X178102563Y-99428097D01*
X177998097Y-99532563D01*
X177875257Y-99614642D01*
X177738766Y-99671179D01*
X177593870Y-99700000D01*
X177446130Y-99700000D01*
X177301234Y-99671179D01*
X177164743Y-99614642D01*
X177041903Y-99532563D01*
X176937437Y-99428097D01*
X176855358Y-99305257D01*
X176798821Y-99168766D01*
X176770000Y-99023870D01*
X176770000Y-98876130D01*
X176798821Y-98731234D01*
X176855358Y-98594743D01*
X176937437Y-98471903D01*
X177041903Y-98367437D01*
X177164743Y-98285358D01*
X177301234Y-98228821D01*
X177446130Y-98200000D01*
X177593870Y-98200000D01*
X177738766Y-98228821D01*
X177738766Y-98228821D01*
G37*
G36*
X180278766Y-98228821D02*
G01*
X180415257Y-98285358D01*
X180538097Y-98367437D01*
X180642563Y-98471903D01*
X180724642Y-98594743D01*
X180781179Y-98731234D01*
X180810000Y-98876130D01*
X180810000Y-99023870D01*
X180781179Y-99168766D01*
X180724642Y-99305257D01*
X180642563Y-99428097D01*
X180538097Y-99532563D01*
X180415257Y-99614642D01*
X180278766Y-99671179D01*
X180133870Y-99700000D01*
X179986130Y-99700000D01*
X179841234Y-99671179D01*
X179704743Y-99614642D01*
X179581903Y-99532563D01*
X179477437Y-99428097D01*
X179395358Y-99305257D01*
X179338821Y-99168766D01*
X179310000Y-99023870D01*
X179310000Y-98876130D01*
X179338821Y-98731234D01*
X179395358Y-98594743D01*
X179477437Y-98471903D01*
X179581903Y-98367437D01*
X179704743Y-98285358D01*
X179841234Y-98228821D01*
X179986130Y-98200000D01*
X180133870Y-98200000D01*
X180278766Y-98228821D01*
X180278766Y-98228821D01*
G37*
G36*
X175198766Y-98228821D02*
G01*
X175335257Y-98285358D01*
X175458097Y-98367437D01*
X175562563Y-98471903D01*
X175644642Y-98594743D01*
X175701179Y-98731234D01*
X175730000Y-98876130D01*
X175730000Y-99023870D01*
X175701179Y-99168766D01*
X175644642Y-99305257D01*
X175562563Y-99428097D01*
X175458097Y-99532563D01*
X175335257Y-99614642D01*
X175198766Y-99671179D01*
X175053870Y-99700000D01*
X174906130Y-99700000D01*
X174761234Y-99671179D01*
X174624743Y-99614642D01*
X174501903Y-99532563D01*
X174397437Y-99428097D01*
X174315358Y-99305257D01*
X174258821Y-99168766D01*
X174230000Y-99023870D01*
X174230000Y-98876130D01*
X174258821Y-98731234D01*
X174315358Y-98594743D01*
X174397437Y-98471903D01*
X174501903Y-98367437D01*
X174624743Y-98285358D01*
X174761234Y-98228821D01*
X174906130Y-98200000D01*
X175053870Y-98200000D01*
X175198766Y-98228821D01*
X175198766Y-98228821D01*
G37*
G36*
X172658766Y-98228821D02*
G01*
X172795257Y-98285358D01*
X172918097Y-98367437D01*
X173022563Y-98471903D01*
X173104642Y-98594743D01*
X173161179Y-98731234D01*
X173190000Y-98876130D01*
X173190000Y-99023870D01*
X173161179Y-99168766D01*
X173104642Y-99305257D01*
X173022563Y-99428097D01*
X172918097Y-99532563D01*
X172795257Y-99614642D01*
X172658766Y-99671179D01*
X172513870Y-99700000D01*
X172366130Y-99700000D01*
X172221234Y-99671179D01*
X172084743Y-99614642D01*
X171961903Y-99532563D01*
X171857437Y-99428097D01*
X171775358Y-99305257D01*
X171718821Y-99168766D01*
X171690000Y-99023870D01*
X171690000Y-98876130D01*
X171718821Y-98731234D01*
X171775358Y-98594743D01*
X171857437Y-98471903D01*
X171961903Y-98367437D01*
X172084743Y-98285358D01*
X172221234Y-98228821D01*
X172366130Y-98200000D01*
X172513870Y-98200000D01*
X172658766Y-98228821D01*
X172658766Y-98228821D01*
G37*
G36*
X173928766Y-95688821D02*
G01*
X174065257Y-95745358D01*
X174188097Y-95827437D01*
X174292563Y-95931903D01*
X174374642Y-96054743D01*
X174431179Y-96191234D01*
X174460000Y-96336130D01*
X174460000Y-96483870D01*
X174431179Y-96628766D01*
X174374642Y-96765257D01*
X174292563Y-96888097D01*
X174188097Y-96992563D01*
X174065257Y-97074642D01*
X173928766Y-97131179D01*
X173783870Y-97160000D01*
X173636130Y-97160000D01*
X173491234Y-97131179D01*
X173354743Y-97074642D01*
X173231903Y-96992563D01*
X173127437Y-96888097D01*
X173045358Y-96765257D01*
X172988821Y-96628766D01*
X172960000Y-96483870D01*
X172960000Y-96336130D01*
X172988821Y-96191234D01*
X173045358Y-96054743D01*
X173127437Y-95931903D01*
X173231903Y-95827437D01*
X173354743Y-95745358D01*
X173491234Y-95688821D01*
X173636130Y-95660000D01*
X173783870Y-95660000D01*
X173928766Y-95688821D01*
X173928766Y-95688821D01*
G37*
G36*
X181548766Y-95688821D02*
G01*
X181685257Y-95745358D01*
X181808097Y-95827437D01*
X181912563Y-95931903D01*
X181994642Y-96054743D01*
X182051179Y-96191234D01*
X182080000Y-96336130D01*
X182080000Y-96483870D01*
X182051179Y-96628766D01*
X181994642Y-96765257D01*
X181912563Y-96888097D01*
X181808097Y-96992563D01*
X181685257Y-97074642D01*
X181548766Y-97131179D01*
X181403870Y-97160000D01*
X181256130Y-97160000D01*
X181111234Y-97131179D01*
X180974743Y-97074642D01*
X180851903Y-96992563D01*
X180747437Y-96888097D01*
X180665358Y-96765257D01*
X180608821Y-96628766D01*
X180580000Y-96483870D01*
X180580000Y-96336130D01*
X180608821Y-96191234D01*
X180665358Y-96054743D01*
X180747437Y-95931903D01*
X180851903Y-95827437D01*
X180974743Y-95745358D01*
X181111234Y-95688821D01*
X181256130Y-95660000D01*
X181403870Y-95660000D01*
X181548766Y-95688821D01*
X181548766Y-95688821D01*
G37*
G36*
X179008766Y-95688821D02*
G01*
X179145257Y-95745358D01*
X179268097Y-95827437D01*
X179372563Y-95931903D01*
X179454642Y-96054743D01*
X179511179Y-96191234D01*
X179540000Y-96336130D01*
X179540000Y-96483870D01*
X179511179Y-96628766D01*
X179454642Y-96765257D01*
X179372563Y-96888097D01*
X179268097Y-96992563D01*
X179145257Y-97074642D01*
X179008766Y-97131179D01*
X178863870Y-97160000D01*
X178716130Y-97160000D01*
X178571234Y-97131179D01*
X178434743Y-97074642D01*
X178311903Y-96992563D01*
X178207437Y-96888097D01*
X178125358Y-96765257D01*
X178068821Y-96628766D01*
X178040000Y-96483870D01*
X178040000Y-96336130D01*
X178068821Y-96191234D01*
X178125358Y-96054743D01*
X178207437Y-95931903D01*
X178311903Y-95827437D01*
X178434743Y-95745358D01*
X178571234Y-95688821D01*
X178716130Y-95660000D01*
X178863870Y-95660000D01*
X179008766Y-95688821D01*
X179008766Y-95688821D01*
G37*
G36*
X176468766Y-95688821D02*
G01*
X176605257Y-95745358D01*
X176728097Y-95827437D01*
X176832563Y-95931903D01*
X176914642Y-96054743D01*
X176971179Y-96191234D01*
X177000000Y-96336130D01*
X177000000Y-96483870D01*
X176971179Y-96628766D01*
X176914642Y-96765257D01*
X176832563Y-96888097D01*
X176728097Y-96992563D01*
X176605257Y-97074642D01*
X176468766Y-97131179D01*
X176323870Y-97160000D01*
X176176130Y-97160000D01*
X176031234Y-97131179D01*
X175894743Y-97074642D01*
X175771903Y-96992563D01*
X175667437Y-96888097D01*
X175585358Y-96765257D01*
X175528821Y-96628766D01*
X175500000Y-96483870D01*
X175500000Y-96336130D01*
X175528821Y-96191234D01*
X175585358Y-96054743D01*
X175667437Y-95931903D01*
X175771903Y-95827437D01*
X175894743Y-95745358D01*
X176031234Y-95688821D01*
X176176130Y-95660000D01*
X176323870Y-95660000D01*
X176468766Y-95688821D01*
X176468766Y-95688821D01*
G37*
G36*
X184825880Y-76159776D02*
G01*
X185206593Y-76235504D01*
X185616249Y-76405189D01*
X185984929Y-76651534D01*
X186298466Y-76965071D01*
X186544811Y-77333751D01*
X186714496Y-77743407D01*
X186801000Y-78178296D01*
X186801000Y-78621704D01*
X186714496Y-79056593D01*
X186544811Y-79466249D01*
X186298466Y-79834929D01*
X185984929Y-80148466D01*
X185616249Y-80394811D01*
X185206593Y-80564496D01*
X184825880Y-80640224D01*
X184771705Y-80651000D01*
X184328295Y-80651000D01*
X184274120Y-80640224D01*
X183893407Y-80564496D01*
X183483751Y-80394811D01*
X183115071Y-80148466D01*
X182801534Y-79834929D01*
X182555189Y-79466249D01*
X182385504Y-79056593D01*
X182299000Y-78621704D01*
X182299000Y-78178296D01*
X182385504Y-77743407D01*
X182555189Y-77333751D01*
X182801534Y-76965071D01*
X183115071Y-76651534D01*
X183483751Y-76405189D01*
X183893407Y-76235504D01*
X184274120Y-76159776D01*
X184328295Y-76149000D01*
X184771705Y-76149000D01*
X184825880Y-76159776D01*
X184825880Y-76159776D01*
G37*
G36*
X179434442Y-72511518D02*
G01*
X179500627Y-72518037D01*
X179670466Y-72569557D01*
X179826991Y-72653222D01*
X179862729Y-72682552D01*
X179964186Y-72765814D01*
X180047448Y-72867271D01*
X180076778Y-72903009D01*
X180160443Y-73059534D01*
X180211963Y-73229373D01*
X180229359Y-73406000D01*
X180211963Y-73582627D01*
X180160443Y-73752466D01*
X180076778Y-73908991D01*
X180047448Y-73944729D01*
X179964186Y-74046186D01*
X179862729Y-74129448D01*
X179826991Y-74158778D01*
X179670466Y-74242443D01*
X179500627Y-74293963D01*
X179434443Y-74300481D01*
X179368260Y-74307000D01*
X179279740Y-74307000D01*
X179213557Y-74300481D01*
X179147373Y-74293963D01*
X178977534Y-74242443D01*
X178821009Y-74158778D01*
X178785271Y-74129448D01*
X178683814Y-74046186D01*
X178600552Y-73944729D01*
X178571222Y-73908991D01*
X178487557Y-73752466D01*
X178436037Y-73582627D01*
X178418641Y-73406000D01*
X178436037Y-73229373D01*
X178487557Y-73059534D01*
X178571222Y-72903009D01*
X178600552Y-72867271D01*
X178683814Y-72765814D01*
X178785271Y-72682552D01*
X178821009Y-72653222D01*
X178977534Y-72569557D01*
X179147373Y-72518037D01*
X179213558Y-72511518D01*
X179279740Y-72505000D01*
X179368260Y-72505000D01*
X179434442Y-72511518D01*
X179434442Y-72511518D01*
G37*
G36*
X171814442Y-72511518D02*
G01*
X171880627Y-72518037D01*
X172050466Y-72569557D01*
X172206991Y-72653222D01*
X172242729Y-72682552D01*
X172344186Y-72765814D01*
X172427448Y-72867271D01*
X172456778Y-72903009D01*
X172540443Y-73059534D01*
X172591963Y-73229373D01*
X172609359Y-73406000D01*
X172591963Y-73582627D01*
X172540443Y-73752466D01*
X172456778Y-73908991D01*
X172427448Y-73944729D01*
X172344186Y-74046186D01*
X172242729Y-74129448D01*
X172206991Y-74158778D01*
X172050466Y-74242443D01*
X171880627Y-74293963D01*
X171814443Y-74300481D01*
X171748260Y-74307000D01*
X171659740Y-74307000D01*
X171593557Y-74300481D01*
X171527373Y-74293963D01*
X171357534Y-74242443D01*
X171201009Y-74158778D01*
X171165271Y-74129448D01*
X171063814Y-74046186D01*
X170980552Y-73944729D01*
X170951222Y-73908991D01*
X170867557Y-73752466D01*
X170816037Y-73582627D01*
X170798641Y-73406000D01*
X170816037Y-73229373D01*
X170867557Y-73059534D01*
X170951222Y-72903009D01*
X170980552Y-72867271D01*
X171063814Y-72765814D01*
X171165271Y-72682552D01*
X171201009Y-72653222D01*
X171357534Y-72569557D01*
X171527373Y-72518037D01*
X171593558Y-72511518D01*
X171659740Y-72505000D01*
X171748260Y-72505000D01*
X171814442Y-72511518D01*
X171814442Y-72511518D01*
G37*
G36*
X174354442Y-72511518D02*
G01*
X174420627Y-72518037D01*
X174590466Y-72569557D01*
X174746991Y-72653222D01*
X174782729Y-72682552D01*
X174884186Y-72765814D01*
X174967448Y-72867271D01*
X174996778Y-72903009D01*
X175080443Y-73059534D01*
X175131963Y-73229373D01*
X175149359Y-73406000D01*
X175131963Y-73582627D01*
X175080443Y-73752466D01*
X174996778Y-73908991D01*
X174967448Y-73944729D01*
X174884186Y-74046186D01*
X174782729Y-74129448D01*
X174746991Y-74158778D01*
X174590466Y-74242443D01*
X174420627Y-74293963D01*
X174354443Y-74300481D01*
X174288260Y-74307000D01*
X174199740Y-74307000D01*
X174133557Y-74300481D01*
X174067373Y-74293963D01*
X173897534Y-74242443D01*
X173741009Y-74158778D01*
X173705271Y-74129448D01*
X173603814Y-74046186D01*
X173520552Y-73944729D01*
X173491222Y-73908991D01*
X173407557Y-73752466D01*
X173356037Y-73582627D01*
X173338641Y-73406000D01*
X173356037Y-73229373D01*
X173407557Y-73059534D01*
X173491222Y-72903009D01*
X173520552Y-72867271D01*
X173603814Y-72765814D01*
X173705271Y-72682552D01*
X173741009Y-72653222D01*
X173897534Y-72569557D01*
X174067373Y-72518037D01*
X174133558Y-72511518D01*
X174199740Y-72505000D01*
X174288260Y-72505000D01*
X174354442Y-72511518D01*
X174354442Y-72511518D01*
G37*
G36*
X176894442Y-72511518D02*
G01*
X176960627Y-72518037D01*
X177130466Y-72569557D01*
X177286991Y-72653222D01*
X177322729Y-72682552D01*
X177424186Y-72765814D01*
X177507448Y-72867271D01*
X177536778Y-72903009D01*
X177620443Y-73059534D01*
X177671963Y-73229373D01*
X177689359Y-73406000D01*
X177671963Y-73582627D01*
X177620443Y-73752466D01*
X177536778Y-73908991D01*
X177507448Y-73944729D01*
X177424186Y-74046186D01*
X177322729Y-74129448D01*
X177286991Y-74158778D01*
X177130466Y-74242443D01*
X176960627Y-74293963D01*
X176894443Y-74300481D01*
X176828260Y-74307000D01*
X176739740Y-74307000D01*
X176673557Y-74300481D01*
X176607373Y-74293963D01*
X176437534Y-74242443D01*
X176281009Y-74158778D01*
X176245271Y-74129448D01*
X176143814Y-74046186D01*
X176060552Y-73944729D01*
X176031222Y-73908991D01*
X175947557Y-73752466D01*
X175896037Y-73582627D01*
X175878641Y-73406000D01*
X175896037Y-73229373D01*
X175947557Y-73059534D01*
X176031222Y-72903009D01*
X176060552Y-72867271D01*
X176143814Y-72765814D01*
X176245271Y-72682552D01*
X176281009Y-72653222D01*
X176437534Y-72569557D01*
X176607373Y-72518037D01*
X176673558Y-72511518D01*
X176739740Y-72505000D01*
X176828260Y-72505000D01*
X176894442Y-72511518D01*
X176894442Y-72511518D01*
G37*
G36*
X182765000Y-74307000D02*
G01*
X180963000Y-74307000D01*
X180963000Y-72505000D01*
X182765000Y-72505000D01*
X182765000Y-74307000D01*
X182765000Y-74307000D01*
G37*
G36*
X171814443Y-69971519D02*
G01*
X171880627Y-69978037D01*
X172050466Y-70029557D01*
X172206991Y-70113222D01*
X172242729Y-70142552D01*
X172344186Y-70225814D01*
X172427448Y-70327271D01*
X172456778Y-70363009D01*
X172540443Y-70519534D01*
X172591963Y-70689373D01*
X172609359Y-70866000D01*
X172591963Y-71042627D01*
X172540443Y-71212466D01*
X172456778Y-71368991D01*
X172427448Y-71404729D01*
X172344186Y-71506186D01*
X172242729Y-71589448D01*
X172206991Y-71618778D01*
X172050466Y-71702443D01*
X171880627Y-71753963D01*
X171814442Y-71760482D01*
X171748260Y-71767000D01*
X171659740Y-71767000D01*
X171593558Y-71760482D01*
X171527373Y-71753963D01*
X171357534Y-71702443D01*
X171201009Y-71618778D01*
X171165271Y-71589448D01*
X171063814Y-71506186D01*
X170980552Y-71404729D01*
X170951222Y-71368991D01*
X170867557Y-71212466D01*
X170816037Y-71042627D01*
X170798641Y-70866000D01*
X170816037Y-70689373D01*
X170867557Y-70519534D01*
X170951222Y-70363009D01*
X170980552Y-70327271D01*
X171063814Y-70225814D01*
X171165271Y-70142552D01*
X171201009Y-70113222D01*
X171357534Y-70029557D01*
X171527373Y-69978037D01*
X171593557Y-69971519D01*
X171659740Y-69965000D01*
X171748260Y-69965000D01*
X171814443Y-69971519D01*
X171814443Y-69971519D01*
G37*
G36*
X181974443Y-69971519D02*
G01*
X182040627Y-69978037D01*
X182210466Y-70029557D01*
X182366991Y-70113222D01*
X182402729Y-70142552D01*
X182504186Y-70225814D01*
X182587448Y-70327271D01*
X182616778Y-70363009D01*
X182700443Y-70519534D01*
X182751963Y-70689373D01*
X182769359Y-70866000D01*
X182751963Y-71042627D01*
X182700443Y-71212466D01*
X182616778Y-71368991D01*
X182587448Y-71404729D01*
X182504186Y-71506186D01*
X182402729Y-71589448D01*
X182366991Y-71618778D01*
X182210466Y-71702443D01*
X182040627Y-71753963D01*
X181974442Y-71760482D01*
X181908260Y-71767000D01*
X181819740Y-71767000D01*
X181753558Y-71760482D01*
X181687373Y-71753963D01*
X181517534Y-71702443D01*
X181361009Y-71618778D01*
X181325271Y-71589448D01*
X181223814Y-71506186D01*
X181140552Y-71404729D01*
X181111222Y-71368991D01*
X181027557Y-71212466D01*
X180976037Y-71042627D01*
X180958641Y-70866000D01*
X180976037Y-70689373D01*
X181027557Y-70519534D01*
X181111222Y-70363009D01*
X181140552Y-70327271D01*
X181223814Y-70225814D01*
X181325271Y-70142552D01*
X181361009Y-70113222D01*
X181517534Y-70029557D01*
X181687373Y-69978037D01*
X181753557Y-69971519D01*
X181819740Y-69965000D01*
X181908260Y-69965000D01*
X181974443Y-69971519D01*
X181974443Y-69971519D01*
G37*
G36*
X174354443Y-69971519D02*
G01*
X174420627Y-69978037D01*
X174590466Y-70029557D01*
X174746991Y-70113222D01*
X174782729Y-70142552D01*
X174884186Y-70225814D01*
X174967448Y-70327271D01*
X174996778Y-70363009D01*
X175080443Y-70519534D01*
X175131963Y-70689373D01*
X175149359Y-70866000D01*
X175131963Y-71042627D01*
X175080443Y-71212466D01*
X174996778Y-71368991D01*
X174967448Y-71404729D01*
X174884186Y-71506186D01*
X174782729Y-71589448D01*
X174746991Y-71618778D01*
X174590466Y-71702443D01*
X174420627Y-71753963D01*
X174354442Y-71760482D01*
X174288260Y-71767000D01*
X174199740Y-71767000D01*
X174133558Y-71760482D01*
X174067373Y-71753963D01*
X173897534Y-71702443D01*
X173741009Y-71618778D01*
X173705271Y-71589448D01*
X173603814Y-71506186D01*
X173520552Y-71404729D01*
X173491222Y-71368991D01*
X173407557Y-71212466D01*
X173356037Y-71042627D01*
X173338641Y-70866000D01*
X173356037Y-70689373D01*
X173407557Y-70519534D01*
X173491222Y-70363009D01*
X173520552Y-70327271D01*
X173603814Y-70225814D01*
X173705271Y-70142552D01*
X173741009Y-70113222D01*
X173897534Y-70029557D01*
X174067373Y-69978037D01*
X174133557Y-69971519D01*
X174199740Y-69965000D01*
X174288260Y-69965000D01*
X174354443Y-69971519D01*
X174354443Y-69971519D01*
G37*
G36*
X179434443Y-69971519D02*
G01*
X179500627Y-69978037D01*
X179670466Y-70029557D01*
X179826991Y-70113222D01*
X179862729Y-70142552D01*
X179964186Y-70225814D01*
X180047448Y-70327271D01*
X180076778Y-70363009D01*
X180160443Y-70519534D01*
X180211963Y-70689373D01*
X180229359Y-70866000D01*
X180211963Y-71042627D01*
X180160443Y-71212466D01*
X180076778Y-71368991D01*
X180047448Y-71404729D01*
X179964186Y-71506186D01*
X179862729Y-71589448D01*
X179826991Y-71618778D01*
X179670466Y-71702443D01*
X179500627Y-71753963D01*
X179434442Y-71760482D01*
X179368260Y-71767000D01*
X179279740Y-71767000D01*
X179213558Y-71760482D01*
X179147373Y-71753963D01*
X178977534Y-71702443D01*
X178821009Y-71618778D01*
X178785271Y-71589448D01*
X178683814Y-71506186D01*
X178600552Y-71404729D01*
X178571222Y-71368991D01*
X178487557Y-71212466D01*
X178436037Y-71042627D01*
X178418641Y-70866000D01*
X178436037Y-70689373D01*
X178487557Y-70519534D01*
X178571222Y-70363009D01*
X178600552Y-70327271D01*
X178683814Y-70225814D01*
X178785271Y-70142552D01*
X178821009Y-70113222D01*
X178977534Y-70029557D01*
X179147373Y-69978037D01*
X179213557Y-69971519D01*
X179279740Y-69965000D01*
X179368260Y-69965000D01*
X179434443Y-69971519D01*
X179434443Y-69971519D01*
G37*
G36*
X176894443Y-69971519D02*
G01*
X176960627Y-69978037D01*
X177130466Y-70029557D01*
X177286991Y-70113222D01*
X177322729Y-70142552D01*
X177424186Y-70225814D01*
X177507448Y-70327271D01*
X177536778Y-70363009D01*
X177620443Y-70519534D01*
X177671963Y-70689373D01*
X177689359Y-70866000D01*
X177671963Y-71042627D01*
X177620443Y-71212466D01*
X177536778Y-71368991D01*
X177507448Y-71404729D01*
X177424186Y-71506186D01*
X177322729Y-71589448D01*
X177286991Y-71618778D01*
X177130466Y-71702443D01*
X176960627Y-71753963D01*
X176894442Y-71760482D01*
X176828260Y-71767000D01*
X176739740Y-71767000D01*
X176673558Y-71760482D01*
X176607373Y-71753963D01*
X176437534Y-71702443D01*
X176281009Y-71618778D01*
X176245271Y-71589448D01*
X176143814Y-71506186D01*
X176060552Y-71404729D01*
X176031222Y-71368991D01*
X175947557Y-71212466D01*
X175896037Y-71042627D01*
X175878641Y-70866000D01*
X175896037Y-70689373D01*
X175947557Y-70519534D01*
X176031222Y-70363009D01*
X176060552Y-70327271D01*
X176143814Y-70225814D01*
X176245271Y-70142552D01*
X176281009Y-70113222D01*
X176437534Y-70029557D01*
X176607373Y-69978037D01*
X176673557Y-69971519D01*
X176739740Y-69965000D01*
X176828260Y-69965000D01*
X176894443Y-69971519D01*
X176894443Y-69971519D01*
G37*
M02*
