G04 #@! TF.GenerationSoftware,KiCad,Pcbnew,(5.1.5)-3*
G04 #@! TF.CreationDate,2020-09-21T18:29:49-07:00*
G04 #@! TF.ProjectId,EsperDNS,45737065-7244-44e5-932e-6b696361645f,rev?*
G04 #@! TF.SameCoordinates,Original*
G04 #@! TF.FileFunction,Soldermask,Bot*
G04 #@! TF.FilePolarity,Negative*
%FSLAX46Y46*%
G04 Gerber Fmt 4.6, Leading zero omitted, Abs format (unit mm)*
G04 Created by KiCad (PCBNEW (5.1.5)-3) date 2020-09-21 18:29:49*
%MOMM*%
%LPD*%
G04 APERTURE LIST*
%ADD10C,0.100000*%
G04 APERTURE END LIST*
D10*
G36*
X33913017Y-36765358D02*
G01*
X34061521Y-36826870D01*
X34061522Y-36826871D01*
X34195167Y-36916169D01*
X34308831Y-37029833D01*
X34375804Y-37130067D01*
X34398130Y-37163479D01*
X34459642Y-37311983D01*
X34491000Y-37469630D01*
X34491000Y-37630370D01*
X34459642Y-37788017D01*
X34428885Y-37862270D01*
X34398130Y-37936521D01*
X34398129Y-37936522D01*
X34308831Y-38070167D01*
X34195167Y-38183831D01*
X34094933Y-38250804D01*
X34061521Y-38273130D01*
X33987270Y-38303885D01*
X33913017Y-38334642D01*
X33755370Y-38366000D01*
X33594630Y-38366000D01*
X33436983Y-38334642D01*
X33362730Y-38303885D01*
X33288479Y-38273130D01*
X33255067Y-38250804D01*
X33154833Y-38183831D01*
X33041169Y-38070167D01*
X32951871Y-37936522D01*
X32951870Y-37936521D01*
X32890358Y-37788017D01*
X32859000Y-37630370D01*
X32859000Y-37469630D01*
X32890358Y-37311983D01*
X32951870Y-37163479D01*
X32974196Y-37130067D01*
X33041169Y-37029833D01*
X33154833Y-36916169D01*
X33288478Y-36826871D01*
X33288479Y-36826870D01*
X33436983Y-36765358D01*
X33594630Y-36734000D01*
X33755370Y-36734000D01*
X33913017Y-36765358D01*
G37*
G36*
X23713017Y-36765358D02*
G01*
X23861521Y-36826870D01*
X23861522Y-36826871D01*
X23995167Y-36916169D01*
X24108831Y-37029833D01*
X24175804Y-37130067D01*
X24198130Y-37163479D01*
X24259642Y-37311983D01*
X24291000Y-37469630D01*
X24291000Y-37630370D01*
X24259642Y-37788017D01*
X24228885Y-37862270D01*
X24198130Y-37936521D01*
X24198129Y-37936522D01*
X24108831Y-38070167D01*
X23995167Y-38183831D01*
X23894933Y-38250804D01*
X23861521Y-38273130D01*
X23787270Y-38303885D01*
X23713017Y-38334642D01*
X23555370Y-38366000D01*
X23394630Y-38366000D01*
X23236983Y-38334642D01*
X23162730Y-38303885D01*
X23088479Y-38273130D01*
X23055067Y-38250804D01*
X22954833Y-38183831D01*
X22841169Y-38070167D01*
X22751871Y-37936522D01*
X22751870Y-37936521D01*
X22721115Y-37862270D01*
X22690358Y-37788017D01*
X22659000Y-37630370D01*
X22659000Y-37469630D01*
X22690358Y-37311983D01*
X22751870Y-37163479D01*
X22774196Y-37130067D01*
X22841169Y-37029833D01*
X22954833Y-36916169D01*
X23088478Y-36826871D01*
X23088479Y-36826870D01*
X23236983Y-36765358D01*
X23394630Y-36734000D01*
X23555370Y-36734000D01*
X23713017Y-36765358D01*
G37*
G36*
X36363017Y-35245358D02*
G01*
X36437270Y-35276115D01*
X36511521Y-35306870D01*
X36511522Y-35306871D01*
X36645167Y-35396169D01*
X36758831Y-35509833D01*
X36825804Y-35610067D01*
X36848130Y-35643479D01*
X36878885Y-35717730D01*
X36909642Y-35791983D01*
X36941000Y-35949630D01*
X36941000Y-36110370D01*
X36909642Y-36268017D01*
X36848130Y-36416521D01*
X36848129Y-36416522D01*
X36758831Y-36550167D01*
X36645167Y-36663831D01*
X36544933Y-36730804D01*
X36511521Y-36753130D01*
X36437270Y-36783885D01*
X36363017Y-36814642D01*
X36205370Y-36846000D01*
X36044630Y-36846000D01*
X35886983Y-36814642D01*
X35812730Y-36783885D01*
X35738479Y-36753130D01*
X35705067Y-36730805D01*
X35604833Y-36663831D01*
X35491169Y-36550167D01*
X35401871Y-36416522D01*
X35401870Y-36416521D01*
X35340358Y-36268017D01*
X35309000Y-36110370D01*
X35309000Y-35949630D01*
X35340358Y-35791983D01*
X35401870Y-35643479D01*
X35424195Y-35610067D01*
X35491169Y-35509833D01*
X35604833Y-35396169D01*
X35738478Y-35306871D01*
X35738479Y-35306870D01*
X35812730Y-35276115D01*
X35886983Y-35245358D01*
X36044630Y-35214000D01*
X36205370Y-35214000D01*
X36363017Y-35245358D01*
G37*
G36*
X26163017Y-35245358D02*
G01*
X26237270Y-35276115D01*
X26311521Y-35306870D01*
X26311522Y-35306871D01*
X26445167Y-35396169D01*
X26558831Y-35509833D01*
X26625804Y-35610067D01*
X26648130Y-35643479D01*
X26709642Y-35791983D01*
X26741000Y-35949630D01*
X26741000Y-36110370D01*
X26709642Y-36268017D01*
X26648130Y-36416521D01*
X26648129Y-36416522D01*
X26558831Y-36550167D01*
X26445167Y-36663831D01*
X26344933Y-36730804D01*
X26311521Y-36753130D01*
X26237270Y-36783885D01*
X26163017Y-36814642D01*
X26005370Y-36846000D01*
X25844630Y-36846000D01*
X25686983Y-36814642D01*
X25612730Y-36783885D01*
X25538479Y-36753130D01*
X25505067Y-36730805D01*
X25404833Y-36663831D01*
X25291169Y-36550167D01*
X25201871Y-36416522D01*
X25201870Y-36416521D01*
X25140358Y-36268017D01*
X25109000Y-36110370D01*
X25109000Y-35949630D01*
X25140358Y-35791983D01*
X25201870Y-35643479D01*
X25224195Y-35610067D01*
X25291169Y-35509833D01*
X25404833Y-35396169D01*
X25538478Y-35306871D01*
X25538479Y-35306870D01*
X25612730Y-35276115D01*
X25686983Y-35245358D01*
X25844630Y-35214000D01*
X26005370Y-35214000D01*
X26163017Y-35245358D01*
G37*
G36*
X-1881809Y-33038912D02*
G01*
X-1784820Y-33079086D01*
X-1708428Y-33110729D01*
X-1552390Y-33214990D01*
X-1419690Y-33347690D01*
X-1315429Y-33503728D01*
X-1243612Y-33677109D01*
X-1207001Y-33861168D01*
X-1207001Y-34048834D01*
X-1243612Y-34232893D01*
X-1315429Y-34406274D01*
X-1419690Y-34562312D01*
X-1552390Y-34695012D01*
X-1708428Y-34799273D01*
X-1708429Y-34799274D01*
X-1708430Y-34799274D01*
X-1881809Y-34871090D01*
X-2065867Y-34907701D01*
X-2253535Y-34907701D01*
X-2437593Y-34871090D01*
X-2610972Y-34799274D01*
X-2610973Y-34799274D01*
X-2610974Y-34799273D01*
X-2767012Y-34695012D01*
X-2899712Y-34562312D01*
X-3003973Y-34406274D01*
X-3075790Y-34232893D01*
X-3112401Y-34048834D01*
X-3112401Y-33861168D01*
X-3075790Y-33677109D01*
X-3003973Y-33503728D01*
X-2899712Y-33347690D01*
X-2767012Y-33214990D01*
X-2610974Y-33110729D01*
X-2534581Y-33079086D01*
X-2437593Y-33038912D01*
X-2253535Y-33002301D01*
X-2065867Y-33002301D01*
X-1881809Y-33038912D01*
G37*
G36*
X36011401Y-30521953D02*
G01*
X36152049Y-30549930D01*
X36433097Y-30666344D01*
X36487028Y-30688683D01*
X36549512Y-30714565D01*
X36907219Y-30953577D01*
X37211423Y-31257781D01*
X37450435Y-31615488D01*
X37605889Y-31990785D01*
X37615070Y-32012952D01*
X37699000Y-32434893D01*
X37699000Y-32865107D01*
X37650142Y-33110729D01*
X37615070Y-33287049D01*
X37498656Y-33568097D01*
X37453502Y-33677109D01*
X37450435Y-33684512D01*
X37211423Y-34042219D01*
X36907219Y-34346423D01*
X36549512Y-34585435D01*
X36152049Y-34750070D01*
X36011401Y-34778047D01*
X35730107Y-34834000D01*
X35299893Y-34834000D01*
X35018599Y-34778047D01*
X34877951Y-34750070D01*
X34480488Y-34585435D01*
X34122781Y-34346423D01*
X33818577Y-34042219D01*
X33579565Y-33684512D01*
X33576499Y-33677109D01*
X33531344Y-33568097D01*
X33414930Y-33287049D01*
X33379858Y-33110729D01*
X33331000Y-32865107D01*
X33331000Y-32434893D01*
X33414930Y-32012952D01*
X33424112Y-31990785D01*
X33579565Y-31615488D01*
X33818577Y-31257781D01*
X34122781Y-30953577D01*
X34480488Y-30714565D01*
X34542973Y-30688683D01*
X34596903Y-30666344D01*
X34877951Y-30549930D01*
X35018599Y-30521953D01*
X35299893Y-30466000D01*
X35730107Y-30466000D01*
X36011401Y-30521953D01*
G37*
G36*
X24581401Y-30521953D02*
G01*
X24722049Y-30549930D01*
X25003097Y-30666344D01*
X25057028Y-30688683D01*
X25119512Y-30714565D01*
X25477219Y-30953577D01*
X25781423Y-31257781D01*
X26020435Y-31615488D01*
X26175889Y-31990785D01*
X26185070Y-32012952D01*
X26269000Y-32434893D01*
X26269000Y-32865107D01*
X26220142Y-33110729D01*
X26185070Y-33287049D01*
X26068656Y-33568097D01*
X26023502Y-33677109D01*
X26020435Y-33684512D01*
X25781423Y-34042219D01*
X25477219Y-34346423D01*
X25119512Y-34585435D01*
X24722049Y-34750070D01*
X24581401Y-34778047D01*
X24300107Y-34834000D01*
X23869893Y-34834000D01*
X23588599Y-34778047D01*
X23447951Y-34750070D01*
X23050488Y-34585435D01*
X22692781Y-34346423D01*
X22388577Y-34042219D01*
X22149565Y-33684512D01*
X22146499Y-33677109D01*
X22101344Y-33568097D01*
X21984930Y-33287049D01*
X21949858Y-33110729D01*
X21901000Y-32865107D01*
X21901000Y-32434893D01*
X21984930Y-32012952D01*
X21994112Y-31990785D01*
X22149565Y-31615488D01*
X22388577Y-31257781D01*
X22692781Y-30953577D01*
X23050488Y-30714565D01*
X23112973Y-30688683D01*
X23166903Y-30666344D01*
X23447951Y-30549930D01*
X23588599Y-30521953D01*
X23869893Y-30466000D01*
X24300107Y-30466000D01*
X24581401Y-30521953D01*
G37*
G36*
X-4493869Y-31915079D02*
G01*
X-4416561Y-31930456D01*
X-4343739Y-31960620D01*
X-4270915Y-31990785D01*
X-4139841Y-32078365D01*
X-4028364Y-32189842D01*
X-3940784Y-32320916D01*
X-3880455Y-32466563D01*
X-3849700Y-32621177D01*
X-3849700Y-32778825D01*
X-3880455Y-32933439D01*
X-3940784Y-33079086D01*
X-4028364Y-33210160D01*
X-4139841Y-33321637D01*
X-4270915Y-33409217D01*
X-4343738Y-33439381D01*
X-4416561Y-33469546D01*
X-4493869Y-33484924D01*
X-4571176Y-33500301D01*
X-4728824Y-33500301D01*
X-4806131Y-33484924D01*
X-4883439Y-33469546D01*
X-4956262Y-33439381D01*
X-5029085Y-33409217D01*
X-5160159Y-33321637D01*
X-5271636Y-33210160D01*
X-5359216Y-33079086D01*
X-5419545Y-32933439D01*
X-5450300Y-32778825D01*
X-5450300Y-32621177D01*
X-5419545Y-32466563D01*
X-5359216Y-32320916D01*
X-5271636Y-32189842D01*
X-5160159Y-32078365D01*
X-5029085Y-31990785D01*
X-4956261Y-31960620D01*
X-4883439Y-31930456D01*
X-4806131Y-31915079D01*
X-4728824Y-31899701D01*
X-4571176Y-31899701D01*
X-4493869Y-31915079D01*
G37*
G36*
X22283339Y-28418710D02*
G01*
X22506911Y-28511317D01*
X22506913Y-28511318D01*
X22708123Y-28645762D01*
X22879238Y-28816877D01*
X22981247Y-28969545D01*
X23013683Y-29018089D01*
X23106290Y-29241661D01*
X23153500Y-29479002D01*
X23153500Y-29720998D01*
X23106290Y-29958339D01*
X23067908Y-30051000D01*
X23013682Y-30181913D01*
X22879238Y-30383123D01*
X22708123Y-30554238D01*
X22506913Y-30688682D01*
X22506912Y-30688683D01*
X22506911Y-30688683D01*
X22283339Y-30781290D01*
X22045998Y-30828500D01*
X21804002Y-30828500D01*
X21566661Y-30781290D01*
X21343089Y-30688683D01*
X21343088Y-30688683D01*
X21343087Y-30688682D01*
X21141877Y-30554238D01*
X20970762Y-30383123D01*
X20836318Y-30181913D01*
X20782092Y-30051000D01*
X20743710Y-29958339D01*
X20696500Y-29720998D01*
X20696500Y-29479002D01*
X20743710Y-29241661D01*
X20836317Y-29018089D01*
X20868753Y-28969545D01*
X20970762Y-28816877D01*
X21141877Y-28645762D01*
X21343087Y-28511318D01*
X21343089Y-28511317D01*
X21566661Y-28418710D01*
X21804002Y-28371500D01*
X22045998Y-28371500D01*
X22283339Y-28418710D01*
G37*
G36*
X38033339Y-28418710D02*
G01*
X38256911Y-28511317D01*
X38256913Y-28511318D01*
X38458123Y-28645762D01*
X38629238Y-28816877D01*
X38731247Y-28969545D01*
X38763683Y-29018089D01*
X38856290Y-29241661D01*
X38903500Y-29479002D01*
X38903500Y-29720998D01*
X38856290Y-29958339D01*
X38817908Y-30051000D01*
X38763682Y-30181913D01*
X38629238Y-30383123D01*
X38458123Y-30554238D01*
X38256913Y-30688682D01*
X38256912Y-30688683D01*
X38256911Y-30688683D01*
X38033339Y-30781290D01*
X37795998Y-30828500D01*
X37554002Y-30828500D01*
X37316661Y-30781290D01*
X37093089Y-30688683D01*
X37093088Y-30688683D01*
X37093087Y-30688682D01*
X36891877Y-30554238D01*
X36720762Y-30383123D01*
X36586318Y-30181913D01*
X36532092Y-30051000D01*
X36493710Y-29958339D01*
X36446500Y-29720998D01*
X36446500Y-29479002D01*
X36493710Y-29241661D01*
X36586317Y-29018089D01*
X36618753Y-28969545D01*
X36720762Y-28816877D01*
X36891877Y-28645762D01*
X37093087Y-28511318D01*
X37093089Y-28511317D01*
X37316661Y-28418710D01*
X37554002Y-28371500D01*
X37795998Y-28371500D01*
X38033339Y-28418710D01*
G37*
G36*
X5575880Y-25559776D02*
G01*
X5956593Y-25635504D01*
X6366249Y-25805189D01*
X6734929Y-26051534D01*
X7048466Y-26365071D01*
X7294811Y-26733751D01*
X7464496Y-27143407D01*
X7551000Y-27578296D01*
X7551000Y-28021704D01*
X7464496Y-28456593D01*
X7294811Y-28866249D01*
X7048466Y-29234929D01*
X6734929Y-29548466D01*
X6366249Y-29794811D01*
X5956593Y-29964496D01*
X5575880Y-30040224D01*
X5521705Y-30051000D01*
X5078295Y-30051000D01*
X5024120Y-30040224D01*
X4643407Y-29964496D01*
X4233751Y-29794811D01*
X3865071Y-29548466D01*
X3551534Y-29234929D01*
X3305189Y-28866249D01*
X3135504Y-28456593D01*
X3049000Y-28021704D01*
X3049000Y-27578296D01*
X3135504Y-27143407D01*
X3305189Y-26733751D01*
X3551534Y-26365071D01*
X3865071Y-26051534D01*
X4233751Y-25805189D01*
X4643407Y-25635504D01*
X5024120Y-25559776D01*
X5078295Y-25549000D01*
X5521705Y-25549000D01*
X5575880Y-25559776D01*
G37*
G36*
X-4493869Y-27415077D02*
G01*
X-4416561Y-27430455D01*
X-4343738Y-27460620D01*
X-4270915Y-27490784D01*
X-4139841Y-27578364D01*
X-4028364Y-27689841D01*
X-3940784Y-27820915D01*
X-3910620Y-27893738D01*
X-3880455Y-27966561D01*
X-3849700Y-28121177D01*
X-3849700Y-28278823D01*
X-3877525Y-28418711D01*
X-3880455Y-28433438D01*
X-3940784Y-28579085D01*
X-4028364Y-28710159D01*
X-4139841Y-28821636D01*
X-4270915Y-28909216D01*
X-4343738Y-28939380D01*
X-4416561Y-28969545D01*
X-4493869Y-28984923D01*
X-4571176Y-29000300D01*
X-4728824Y-29000300D01*
X-4806131Y-28984923D01*
X-4883439Y-28969545D01*
X-4956262Y-28939380D01*
X-5029085Y-28909216D01*
X-5160159Y-28821636D01*
X-5271636Y-28710159D01*
X-5359216Y-28579085D01*
X-5419545Y-28433438D01*
X-5422474Y-28418711D01*
X-5450300Y-28278823D01*
X-5450300Y-28121177D01*
X-5419545Y-27966561D01*
X-5389380Y-27893738D01*
X-5359216Y-27820915D01*
X-5271636Y-27689841D01*
X-5160159Y-27578364D01*
X-5029085Y-27490784D01*
X-4956262Y-27460620D01*
X-4883439Y-27430455D01*
X-4806131Y-27415077D01*
X-4728824Y-27399700D01*
X-4571176Y-27399700D01*
X-4493869Y-27415077D01*
G37*
G36*
X-1881809Y-26028911D02*
G01*
X-1755490Y-26081234D01*
X-1708428Y-26100728D01*
X-1552390Y-26204989D01*
X-1419690Y-26337689D01*
X-1395515Y-26373870D01*
X-1315428Y-26493729D01*
X-1243612Y-26667108D01*
X-1230355Y-26733754D01*
X-1207001Y-26851167D01*
X-1207001Y-27038833D01*
X-1243612Y-27222892D01*
X-1315429Y-27396273D01*
X-1419690Y-27552311D01*
X-1552390Y-27685011D01*
X-1708428Y-27789272D01*
X-1708429Y-27789273D01*
X-1708430Y-27789273D01*
X-1881809Y-27861089D01*
X-2065867Y-27897700D01*
X-2253535Y-27897700D01*
X-2437593Y-27861089D01*
X-2610972Y-27789273D01*
X-2610973Y-27789273D01*
X-2610974Y-27789272D01*
X-2767012Y-27685011D01*
X-2899712Y-27552311D01*
X-3003973Y-27396273D01*
X-3075790Y-27222892D01*
X-3112401Y-27038833D01*
X-3112401Y-26851167D01*
X-3089046Y-26733754D01*
X-3075790Y-26667108D01*
X-3003974Y-26493729D01*
X-2923887Y-26373870D01*
X-2899712Y-26337689D01*
X-2767012Y-26204989D01*
X-2610974Y-26100728D01*
X-2563911Y-26081234D01*
X-2437593Y-26028911D01*
X-2253535Y-25992300D01*
X-2065867Y-25992300D01*
X-1881809Y-26028911D01*
G37*
G36*
X30653766Y-25578821D02*
G01*
X30790257Y-25635358D01*
X30913097Y-25717437D01*
X31017563Y-25821903D01*
X31099642Y-25944743D01*
X31156179Y-26081234D01*
X31185000Y-26226130D01*
X31185000Y-26373870D01*
X31156179Y-26518766D01*
X31099642Y-26655257D01*
X31017563Y-26778097D01*
X30913097Y-26882563D01*
X30790257Y-26964642D01*
X30653766Y-27021179D01*
X30508870Y-27050000D01*
X30361130Y-27050000D01*
X30216234Y-27021179D01*
X30079743Y-26964642D01*
X29956903Y-26882563D01*
X29852437Y-26778097D01*
X29770358Y-26655257D01*
X29713821Y-26518766D01*
X29685000Y-26373870D01*
X29685000Y-26226130D01*
X29713821Y-26081234D01*
X29770358Y-25944743D01*
X29852437Y-25821903D01*
X29956903Y-25717437D01*
X30079743Y-25635358D01*
X30216234Y-25578821D01*
X30361130Y-25550000D01*
X30508870Y-25550000D01*
X30653766Y-25578821D01*
G37*
G36*
X28113766Y-25578821D02*
G01*
X28250257Y-25635358D01*
X28373097Y-25717437D01*
X28477563Y-25821903D01*
X28559642Y-25944743D01*
X28616179Y-26081234D01*
X28645000Y-26226130D01*
X28645000Y-26373870D01*
X28616179Y-26518766D01*
X28559642Y-26655257D01*
X28477563Y-26778097D01*
X28373097Y-26882563D01*
X28250257Y-26964642D01*
X28113766Y-27021179D01*
X27968870Y-27050000D01*
X27821130Y-27050000D01*
X27676234Y-27021179D01*
X27539743Y-26964642D01*
X27416903Y-26882563D01*
X27312437Y-26778097D01*
X27230358Y-26655257D01*
X27173821Y-26518766D01*
X27145000Y-26373870D01*
X27145000Y-26226130D01*
X27173821Y-26081234D01*
X27230358Y-25944743D01*
X27312437Y-25821903D01*
X27416903Y-25717437D01*
X27539743Y-25635358D01*
X27676234Y-25578821D01*
X27821130Y-25550000D01*
X27968870Y-25550000D01*
X28113766Y-25578821D01*
G37*
G36*
X25573766Y-25578821D02*
G01*
X25710257Y-25635358D01*
X25833097Y-25717437D01*
X25937563Y-25821903D01*
X26019642Y-25944743D01*
X26076179Y-26081234D01*
X26105000Y-26226130D01*
X26105000Y-26373870D01*
X26076179Y-26518766D01*
X26019642Y-26655257D01*
X25937563Y-26778097D01*
X25833097Y-26882563D01*
X25710257Y-26964642D01*
X25573766Y-27021179D01*
X25428870Y-27050000D01*
X25281130Y-27050000D01*
X25136234Y-27021179D01*
X24999743Y-26964642D01*
X24876903Y-26882563D01*
X24772437Y-26778097D01*
X24690358Y-26655257D01*
X24633821Y-26518766D01*
X24605000Y-26373870D01*
X24605000Y-26226130D01*
X24633821Y-26081234D01*
X24690358Y-25944743D01*
X24772437Y-25821903D01*
X24876903Y-25717437D01*
X24999743Y-25635358D01*
X25136234Y-25578821D01*
X25281130Y-25550000D01*
X25428870Y-25550000D01*
X25573766Y-25578821D01*
G37*
G36*
X33193766Y-25578821D02*
G01*
X33330257Y-25635358D01*
X33453097Y-25717437D01*
X33557563Y-25821903D01*
X33639642Y-25944743D01*
X33696179Y-26081234D01*
X33725000Y-26226130D01*
X33725000Y-26373870D01*
X33696179Y-26518766D01*
X33639642Y-26655257D01*
X33557563Y-26778097D01*
X33453097Y-26882563D01*
X33330257Y-26964642D01*
X33193766Y-27021179D01*
X33048870Y-27050000D01*
X32901130Y-27050000D01*
X32756234Y-27021179D01*
X32619743Y-26964642D01*
X32496903Y-26882563D01*
X32392437Y-26778097D01*
X32310358Y-26655257D01*
X32253821Y-26518766D01*
X32225000Y-26373870D01*
X32225000Y-26226130D01*
X32253821Y-26081234D01*
X32310358Y-25944743D01*
X32392437Y-25821903D01*
X32496903Y-25717437D01*
X32619743Y-25635358D01*
X32756234Y-25578821D01*
X32901130Y-25550000D01*
X33048870Y-25550000D01*
X33193766Y-25578821D01*
G37*
G36*
X31923766Y-23038821D02*
G01*
X32060257Y-23095358D01*
X32183097Y-23177437D01*
X32287563Y-23281903D01*
X32369642Y-23404743D01*
X32426179Y-23541234D01*
X32455000Y-23686130D01*
X32455000Y-23833870D01*
X32426179Y-23978766D01*
X32369642Y-24115257D01*
X32287563Y-24238097D01*
X32183097Y-24342563D01*
X32060257Y-24424642D01*
X31923766Y-24481179D01*
X31778870Y-24510000D01*
X31631130Y-24510000D01*
X31486234Y-24481179D01*
X31349743Y-24424642D01*
X31226903Y-24342563D01*
X31122437Y-24238097D01*
X31040358Y-24115257D01*
X30983821Y-23978766D01*
X30955000Y-23833870D01*
X30955000Y-23686130D01*
X30983821Y-23541234D01*
X31040358Y-23404743D01*
X31122437Y-23281903D01*
X31226903Y-23177437D01*
X31349743Y-23095358D01*
X31486234Y-23038821D01*
X31631130Y-23010000D01*
X31778870Y-23010000D01*
X31923766Y-23038821D01*
G37*
G36*
X29383766Y-23038821D02*
G01*
X29520257Y-23095358D01*
X29643097Y-23177437D01*
X29747563Y-23281903D01*
X29829642Y-23404743D01*
X29886179Y-23541234D01*
X29915000Y-23686130D01*
X29915000Y-23833870D01*
X29886179Y-23978766D01*
X29829642Y-24115257D01*
X29747563Y-24238097D01*
X29643097Y-24342563D01*
X29520257Y-24424642D01*
X29383766Y-24481179D01*
X29238870Y-24510000D01*
X29091130Y-24510000D01*
X28946234Y-24481179D01*
X28809743Y-24424642D01*
X28686903Y-24342563D01*
X28582437Y-24238097D01*
X28500358Y-24115257D01*
X28443821Y-23978766D01*
X28415000Y-23833870D01*
X28415000Y-23686130D01*
X28443821Y-23541234D01*
X28500358Y-23404743D01*
X28582437Y-23281903D01*
X28686903Y-23177437D01*
X28809743Y-23095358D01*
X28946234Y-23038821D01*
X29091130Y-23010000D01*
X29238870Y-23010000D01*
X29383766Y-23038821D01*
G37*
G36*
X26843766Y-23038821D02*
G01*
X26980257Y-23095358D01*
X27103097Y-23177437D01*
X27207563Y-23281903D01*
X27289642Y-23404743D01*
X27346179Y-23541234D01*
X27375000Y-23686130D01*
X27375000Y-23833870D01*
X27346179Y-23978766D01*
X27289642Y-24115257D01*
X27207563Y-24238097D01*
X27103097Y-24342563D01*
X26980257Y-24424642D01*
X26843766Y-24481179D01*
X26698870Y-24510000D01*
X26551130Y-24510000D01*
X26406234Y-24481179D01*
X26269743Y-24424642D01*
X26146903Y-24342563D01*
X26042437Y-24238097D01*
X25960358Y-24115257D01*
X25903821Y-23978766D01*
X25875000Y-23833870D01*
X25875000Y-23686130D01*
X25903821Y-23541234D01*
X25960358Y-23404743D01*
X26042437Y-23281903D01*
X26146903Y-23177437D01*
X26269743Y-23095358D01*
X26406234Y-23038821D01*
X26551130Y-23010000D01*
X26698870Y-23010000D01*
X26843766Y-23038821D01*
G37*
G36*
X34463766Y-23038821D02*
G01*
X34600257Y-23095358D01*
X34723097Y-23177437D01*
X34827563Y-23281903D01*
X34909642Y-23404743D01*
X34966179Y-23541234D01*
X34995000Y-23686130D01*
X34995000Y-23833870D01*
X34966179Y-23978766D01*
X34909642Y-24115257D01*
X34827563Y-24238097D01*
X34723097Y-24342563D01*
X34600257Y-24424642D01*
X34463766Y-24481179D01*
X34318870Y-24510000D01*
X34171130Y-24510000D01*
X34026234Y-24481179D01*
X33889743Y-24424642D01*
X33766903Y-24342563D01*
X33662437Y-24238097D01*
X33580358Y-24115257D01*
X33523821Y-23978766D01*
X33495000Y-23833870D01*
X33495000Y-23686130D01*
X33523821Y-23541234D01*
X33580358Y-23404743D01*
X33662437Y-23281903D01*
X33766903Y-23177437D01*
X33889743Y-23095358D01*
X34026234Y-23038821D01*
X34171130Y-23010000D01*
X34318870Y-23010000D01*
X34463766Y-23038821D01*
G37*
G36*
X37725880Y-2059776D02*
G01*
X38106593Y-2135504D01*
X38516249Y-2305189D01*
X38884929Y-2551534D01*
X39198466Y-2865071D01*
X39444811Y-3233751D01*
X39614496Y-3643407D01*
X39701000Y-4078296D01*
X39701000Y-4521704D01*
X39614496Y-4956593D01*
X39444811Y-5366249D01*
X39198466Y-5734929D01*
X38884929Y-6048466D01*
X38516249Y-6294811D01*
X38106593Y-6464496D01*
X37725880Y-6540224D01*
X37671705Y-6551000D01*
X37228295Y-6551000D01*
X37174120Y-6540224D01*
X36793407Y-6464496D01*
X36383751Y-6294811D01*
X36015071Y-6048466D01*
X35701534Y-5734929D01*
X35455189Y-5366249D01*
X35285504Y-4956593D01*
X35199000Y-4521704D01*
X35199000Y-4078296D01*
X35285504Y-3643407D01*
X35455189Y-3233751D01*
X35701534Y-2865071D01*
X36015071Y-2551534D01*
X36383751Y-2305189D01*
X36793407Y-2135504D01*
X37174120Y-2059776D01*
X37228295Y-2049000D01*
X37671705Y-2049000D01*
X37725880Y-2059776D01*
G37*
G36*
X24717512Y1590073D02*
G01*
X24866812Y1560376D01*
X25030784Y1492456D01*
X25178354Y1393853D01*
X25303853Y1268354D01*
X25402456Y1120784D01*
X25470376Y956812D01*
X25505000Y782741D01*
X25505000Y605259D01*
X25470376Y431188D01*
X25402456Y267216D01*
X25303853Y119646D01*
X25178354Y-5853D01*
X25030784Y-104456D01*
X24866812Y-172376D01*
X24717512Y-202073D01*
X24692742Y-207000D01*
X24515258Y-207000D01*
X24490488Y-202073D01*
X24341188Y-172376D01*
X24177216Y-104456D01*
X24029646Y-5853D01*
X23904147Y119646D01*
X23805544Y267216D01*
X23737624Y431188D01*
X23703000Y605259D01*
X23703000Y782741D01*
X23737624Y956812D01*
X23805544Y1120784D01*
X23904147Y1268354D01*
X24029646Y1393853D01*
X24177216Y1492456D01*
X24341188Y1560376D01*
X24490488Y1590073D01*
X24515258Y1595000D01*
X24692742Y1595000D01*
X24717512Y1590073D01*
G37*
G36*
X32337512Y1590073D02*
G01*
X32486812Y1560376D01*
X32650784Y1492456D01*
X32798354Y1393853D01*
X32923853Y1268354D01*
X33022456Y1120784D01*
X33090376Y956812D01*
X33125000Y782741D01*
X33125000Y605259D01*
X33090376Y431188D01*
X33022456Y267216D01*
X32923853Y119646D01*
X32798354Y-5853D01*
X32650784Y-104456D01*
X32486812Y-172376D01*
X32337512Y-202073D01*
X32312742Y-207000D01*
X32135258Y-207000D01*
X32110488Y-202073D01*
X31961188Y-172376D01*
X31797216Y-104456D01*
X31649646Y-5853D01*
X31524147Y119646D01*
X31425544Y267216D01*
X31357624Y431188D01*
X31323000Y605259D01*
X31323000Y782741D01*
X31357624Y956812D01*
X31425544Y1120784D01*
X31524147Y1268354D01*
X31649646Y1393853D01*
X31797216Y1492456D01*
X31961188Y1560376D01*
X32110488Y1590073D01*
X32135258Y1595000D01*
X32312742Y1595000D01*
X32337512Y1590073D01*
G37*
G36*
X29797512Y1590073D02*
G01*
X29946812Y1560376D01*
X30110784Y1492456D01*
X30258354Y1393853D01*
X30383853Y1268354D01*
X30482456Y1120784D01*
X30550376Y956812D01*
X30585000Y782741D01*
X30585000Y605259D01*
X30550376Y431188D01*
X30482456Y267216D01*
X30383853Y119646D01*
X30258354Y-5853D01*
X30110784Y-104456D01*
X29946812Y-172376D01*
X29797512Y-202073D01*
X29772742Y-207000D01*
X29595258Y-207000D01*
X29570488Y-202073D01*
X29421188Y-172376D01*
X29257216Y-104456D01*
X29109646Y-5853D01*
X28984147Y119646D01*
X28885544Y267216D01*
X28817624Y431188D01*
X28783000Y605259D01*
X28783000Y782741D01*
X28817624Y956812D01*
X28885544Y1120784D01*
X28984147Y1268354D01*
X29109646Y1393853D01*
X29257216Y1492456D01*
X29421188Y1560376D01*
X29570488Y1590073D01*
X29595258Y1595000D01*
X29772742Y1595000D01*
X29797512Y1590073D01*
G37*
G36*
X27257512Y1590073D02*
G01*
X27406812Y1560376D01*
X27570784Y1492456D01*
X27718354Y1393853D01*
X27843853Y1268354D01*
X27942456Y1120784D01*
X28010376Y956812D01*
X28045000Y782741D01*
X28045000Y605259D01*
X28010376Y431188D01*
X27942456Y267216D01*
X27843853Y119646D01*
X27718354Y-5853D01*
X27570784Y-104456D01*
X27406812Y-172376D01*
X27257512Y-202073D01*
X27232742Y-207000D01*
X27055258Y-207000D01*
X27030488Y-202073D01*
X26881188Y-172376D01*
X26717216Y-104456D01*
X26569646Y-5853D01*
X26444147Y119646D01*
X26345544Y267216D01*
X26277624Y431188D01*
X26243000Y605259D01*
X26243000Y782741D01*
X26277624Y956812D01*
X26345544Y1120784D01*
X26444147Y1268354D01*
X26569646Y1393853D01*
X26717216Y1492456D01*
X26881188Y1560376D01*
X27030488Y1590073D01*
X27055258Y1595000D01*
X27232742Y1595000D01*
X27257512Y1590073D01*
G37*
G36*
X35665000Y-207000D02*
G01*
X33863000Y-207000D01*
X33863000Y1595000D01*
X35665000Y1595000D01*
X35665000Y-207000D01*
G37*
G36*
X24717512Y4130073D02*
G01*
X24866812Y4100376D01*
X25030784Y4032456D01*
X25178354Y3933853D01*
X25303853Y3808354D01*
X25402456Y3660784D01*
X25470376Y3496812D01*
X25505000Y3322741D01*
X25505000Y3145259D01*
X25470376Y2971188D01*
X25402456Y2807216D01*
X25303853Y2659646D01*
X25178354Y2534147D01*
X25030784Y2435544D01*
X24866812Y2367624D01*
X24717512Y2337927D01*
X24692742Y2333000D01*
X24515258Y2333000D01*
X24490488Y2337927D01*
X24341188Y2367624D01*
X24177216Y2435544D01*
X24029646Y2534147D01*
X23904147Y2659646D01*
X23805544Y2807216D01*
X23737624Y2971188D01*
X23703000Y3145259D01*
X23703000Y3322741D01*
X23737624Y3496812D01*
X23805544Y3660784D01*
X23904147Y3808354D01*
X24029646Y3933853D01*
X24177216Y4032456D01*
X24341188Y4100376D01*
X24490488Y4130073D01*
X24515258Y4135000D01*
X24692742Y4135000D01*
X24717512Y4130073D01*
G37*
G36*
X27257512Y4130073D02*
G01*
X27406812Y4100376D01*
X27570784Y4032456D01*
X27718354Y3933853D01*
X27843853Y3808354D01*
X27942456Y3660784D01*
X28010376Y3496812D01*
X28045000Y3322741D01*
X28045000Y3145259D01*
X28010376Y2971188D01*
X27942456Y2807216D01*
X27843853Y2659646D01*
X27718354Y2534147D01*
X27570784Y2435544D01*
X27406812Y2367624D01*
X27257512Y2337927D01*
X27232742Y2333000D01*
X27055258Y2333000D01*
X27030488Y2337927D01*
X26881188Y2367624D01*
X26717216Y2435544D01*
X26569646Y2534147D01*
X26444147Y2659646D01*
X26345544Y2807216D01*
X26277624Y2971188D01*
X26243000Y3145259D01*
X26243000Y3322741D01*
X26277624Y3496812D01*
X26345544Y3660784D01*
X26444147Y3808354D01*
X26569646Y3933853D01*
X26717216Y4032456D01*
X26881188Y4100376D01*
X27030488Y4130073D01*
X27055258Y4135000D01*
X27232742Y4135000D01*
X27257512Y4130073D01*
G37*
G36*
X29797512Y4130073D02*
G01*
X29946812Y4100376D01*
X30110784Y4032456D01*
X30258354Y3933853D01*
X30383853Y3808354D01*
X30482456Y3660784D01*
X30550376Y3496812D01*
X30585000Y3322741D01*
X30585000Y3145259D01*
X30550376Y2971188D01*
X30482456Y2807216D01*
X30383853Y2659646D01*
X30258354Y2534147D01*
X30110784Y2435544D01*
X29946812Y2367624D01*
X29797512Y2337927D01*
X29772742Y2333000D01*
X29595258Y2333000D01*
X29570488Y2337927D01*
X29421188Y2367624D01*
X29257216Y2435544D01*
X29109646Y2534147D01*
X28984147Y2659646D01*
X28885544Y2807216D01*
X28817624Y2971188D01*
X28783000Y3145259D01*
X28783000Y3322741D01*
X28817624Y3496812D01*
X28885544Y3660784D01*
X28984147Y3808354D01*
X29109646Y3933853D01*
X29257216Y4032456D01*
X29421188Y4100376D01*
X29570488Y4130073D01*
X29595258Y4135000D01*
X29772742Y4135000D01*
X29797512Y4130073D01*
G37*
G36*
X32337512Y4130073D02*
G01*
X32486812Y4100376D01*
X32650784Y4032456D01*
X32798354Y3933853D01*
X32923853Y3808354D01*
X33022456Y3660784D01*
X33090376Y3496812D01*
X33125000Y3322741D01*
X33125000Y3145259D01*
X33090376Y2971188D01*
X33022456Y2807216D01*
X32923853Y2659646D01*
X32798354Y2534147D01*
X32650784Y2435544D01*
X32486812Y2367624D01*
X32337512Y2337927D01*
X32312742Y2333000D01*
X32135258Y2333000D01*
X32110488Y2337927D01*
X31961188Y2367624D01*
X31797216Y2435544D01*
X31649646Y2534147D01*
X31524147Y2659646D01*
X31425544Y2807216D01*
X31357624Y2971188D01*
X31323000Y3145259D01*
X31323000Y3322741D01*
X31357624Y3496812D01*
X31425544Y3660784D01*
X31524147Y3808354D01*
X31649646Y3933853D01*
X31797216Y4032456D01*
X31961188Y4100376D01*
X32110488Y4130073D01*
X32135258Y4135000D01*
X32312742Y4135000D01*
X32337512Y4130073D01*
G37*
G36*
X34877512Y4130073D02*
G01*
X35026812Y4100376D01*
X35190784Y4032456D01*
X35338354Y3933853D01*
X35463853Y3808354D01*
X35562456Y3660784D01*
X35630376Y3496812D01*
X35665000Y3322741D01*
X35665000Y3145259D01*
X35630376Y2971188D01*
X35562456Y2807216D01*
X35463853Y2659646D01*
X35338354Y2534147D01*
X35190784Y2435544D01*
X35026812Y2367624D01*
X34877512Y2337927D01*
X34852742Y2333000D01*
X34675258Y2333000D01*
X34650488Y2337927D01*
X34501188Y2367624D01*
X34337216Y2435544D01*
X34189646Y2534147D01*
X34064147Y2659646D01*
X33965544Y2807216D01*
X33897624Y2971188D01*
X33863000Y3145259D01*
X33863000Y3322741D01*
X33897624Y3496812D01*
X33965544Y3660784D01*
X34064147Y3808354D01*
X34189646Y3933853D01*
X34337216Y4032456D01*
X34501188Y4100376D01*
X34650488Y4130073D01*
X34675258Y4135000D01*
X34852742Y4135000D01*
X34877512Y4130073D01*
G37*
M02*
