M48
; DRILL file {KiCad (5.1.5)-3} date 9/21/2020 7:37:12 PM
; FORMAT={-:-/ absolute / inch / decimal}
; #@! TF.CreationDate,2020-09-21T19:37:12-07:00
; #@! TF.GenerationSoftware,Kicad,Pcbnew,(5.1.5)-3
FMAT,2
INCH
T1C0.0118
T2C0.0350
T3C0.0390
T4C0.0394
T5C0.0402
T6C0.0510
T7C0.0618
T8C0.0866
T9C0.1280
%
G90
G05
T1
X-0.3001Y-0.7441
X-0.2854Y-0.4715
X-0.2628Y-0.312
X-0.2549Y-0.7766
X-0.2382Y-1.4173
X-0.2313Y-0.4813
X-0.1742Y-0.4803
X-0.1161Y-1.1594
X-0.0413Y-0.4627
X-0.0113Y-0.0827
X-0.0098Y-0.5315
X-0.0039Y-1.2835
X0.0236Y-0.8514
X0.0374Y-0.4783
X0.0374Y-0.6841
X0.1287Y-0.3227
X0.1287Y-0.4527
X0.1634Y-1.5984
X0.1887Y-0.2027
X0.1887Y-0.3827
X0.1887Y-0.5827
X0.2587Y-0.3227
X0.2587Y-0.4527
X0.3287Y-1.2382
X0.3681Y-1.0098
X0.4287Y-0.5027
X0.4528Y-1.0108
X0.4783Y-0.3524
X0.4902Y-0.6811
X0.5197Y-0.815
X0.5374Y-1.0079
X0.5487Y-1.4527
X0.5512Y-0.9685
X0.6191Y-0.7894
X0.6299Y-0.4823
X0.6299Y-1.1791
X0.6319Y-0.2185
X0.6835Y-1.4562
X0.7421Y-0.4587
X0.7461Y-0.1122
X0.7487Y-1.0727
X0.7628Y-0.5758
X0.7677Y-0.9803
X0.7815Y-0.6535
X0.7887Y-0.4227
X0.815Y-0.5827
X0.8563Y-0.313
X0.8602Y-0.4193
X0.8602Y-0.561
X0.8681Y-0.2087
X0.878Y-0.7638
X0.8987Y-0.0127
X0.9055Y-0.622
X0.9528Y-0.2579
X0.9685Y-0.187
X0.9847Y-0.3543
X1.0039Y-0.6969
X1.0276Y-0.1417
X1.0617Y-0.5197
X1.0768Y-0.435
X1.0846Y-0.5
X1.0846Y-0.5394
X1.1693Y-0.4646
X1.1987Y-0.5027
X1.1988Y-0.6693
X1.2047Y-0.8465
X1.2087Y-0.3642
X1.2224Y-0.4626
X1.3169Y-0.5197
X1.3187Y0.0773
X1.3209Y-0.624
X1.3248Y-0.4606
X1.3387Y-0.1427
X1.3387Y-0.4927
X1.4687Y-0.9127
X1.5687Y-0.4027
T2
X0.9982Y-1.0354
X1.0482Y-0.9354
X1.0982Y-1.0354
X1.1482Y-0.9354
X1.1982Y-1.0354
X1.2482Y-0.9354
X1.2982Y-1.0354
X1.3482Y-0.9354
T3
X-0.1831Y-1.1102
X-0.1831Y-1.2874
T4
X0.9687Y0.1273
X0.9687Y0.0273
X1.0687Y0.1273
X1.0687Y0.0273
X1.1687Y0.1273
X1.1687Y0.0273
X1.2687Y0.1273
X1.2687Y0.0273
X1.3687Y0.1273
X1.3687Y0.0273
T5
X0.9242Y-1.4783
X1.0207Y-1.4185
X1.3258Y-1.4783
X1.4222Y-1.4185
T6
X-0.085Y-1.0608
X-0.085Y-1.3368
T7
X0.8632Y-1.1654
X1.4833Y-1.1654
T8
X0.2087Y-1.0945
X1.4744Y-0.1693
T9
X0.9482Y-1.2854
X1.3982Y-1.2854
T0
M30
