G04 #@! TF.GenerationSoftware,KiCad,Pcbnew,(5.1.5)-3*
G04 #@! TF.CreationDate,2020-09-21T18:29:49-07:00*
G04 #@! TF.ProjectId,EsperDNS,45737065-7244-44e5-932e-6b696361645f,rev?*
G04 #@! TF.SameCoordinates,Original*
G04 #@! TF.FileFunction,Soldermask,Top*
G04 #@! TF.FilePolarity,Negative*
%FSLAX46Y46*%
G04 Gerber Fmt 4.6, Leading zero omitted, Abs format (unit mm)*
G04 Created by KiCad (PCBNEW (5.1.5)-3) date 2020-09-21 18:29:49*
%MOMM*%
%LPD*%
G04 APERTURE LIST*
%ADD10C,0.100000*%
G04 APERTURE END LIST*
D10*
G36*
X2801000Y-41501000D02*
G01*
X899000Y-41501000D01*
X899000Y-39499000D01*
X2801000Y-39499000D01*
X2801000Y-41501000D01*
G37*
G36*
X251000Y-41501000D02*
G01*
X-1751000Y-41501000D01*
X-1751000Y-39499000D01*
X251000Y-39499000D01*
X251000Y-41501000D01*
G37*
G36*
X-2149000Y-41501000D02*
G01*
X-4151000Y-41501000D01*
X-4151000Y-39499000D01*
X-2149000Y-39499000D01*
X-2149000Y-41501000D01*
G37*
G36*
X-4799000Y-41501000D02*
G01*
X-6701000Y-41501000D01*
X-6701000Y-39499000D01*
X-4799000Y-39499000D01*
X-4799000Y-41501000D01*
G37*
G36*
X13701000Y-41101000D02*
G01*
X9799000Y-41101000D01*
X9799000Y-38999000D01*
X13701000Y-38999000D01*
X13701000Y-41101000D01*
G37*
G36*
X19141591Y-39004585D02*
G01*
X19175569Y-39014893D01*
X19206890Y-39031634D01*
X19234339Y-39054161D01*
X19256866Y-39081610D01*
X19273607Y-39112931D01*
X19283915Y-39146909D01*
X19288000Y-39188390D01*
X19288000Y-39789610D01*
X19283915Y-39831091D01*
X19273607Y-39865069D01*
X19256866Y-39896390D01*
X19234339Y-39923839D01*
X19206890Y-39946366D01*
X19175569Y-39963107D01*
X19141591Y-39973415D01*
X19100110Y-39977500D01*
X18423890Y-39977500D01*
X18382409Y-39973415D01*
X18348431Y-39963107D01*
X18317110Y-39946366D01*
X18289661Y-39923839D01*
X18267134Y-39896390D01*
X18250393Y-39865069D01*
X18240085Y-39831091D01*
X18236000Y-39789610D01*
X18236000Y-39188390D01*
X18240085Y-39146909D01*
X18250393Y-39112931D01*
X18267134Y-39081610D01*
X18289661Y-39054161D01*
X18317110Y-39031634D01*
X18348431Y-39014893D01*
X18382409Y-39004585D01*
X18423890Y-39000500D01*
X19100110Y-39000500D01*
X19141591Y-39004585D01*
G37*
G36*
X2251000Y-38801000D02*
G01*
X49000Y-38801000D01*
X49000Y-37099000D01*
X2251000Y-37099000D01*
X2251000Y-38801000D01*
G37*
G36*
X-3949000Y-38801000D02*
G01*
X-6151000Y-38801000D01*
X-6151000Y-37099000D01*
X-3949000Y-37099000D01*
X-3949000Y-38801000D01*
G37*
G36*
X-2999000Y-38551000D02*
G01*
X-3501000Y-38551000D01*
X-3501000Y-37099000D01*
X-2999000Y-37099000D01*
X-2999000Y-38551000D01*
G37*
G36*
X-399000Y-38551000D02*
G01*
X-901000Y-38551000D01*
X-901000Y-37099000D01*
X-399000Y-37099000D01*
X-399000Y-38551000D01*
G37*
G36*
X7079591Y-37490585D02*
G01*
X7113569Y-37500893D01*
X7144890Y-37517634D01*
X7172339Y-37540161D01*
X7194866Y-37567610D01*
X7211607Y-37598931D01*
X7221915Y-37632909D01*
X7226000Y-37674390D01*
X7226000Y-38275610D01*
X7221915Y-38317091D01*
X7211607Y-38351069D01*
X7194866Y-38382390D01*
X7172339Y-38409839D01*
X7144890Y-38432366D01*
X7113569Y-38449107D01*
X7079591Y-38459415D01*
X7038110Y-38463500D01*
X6361890Y-38463500D01*
X6320409Y-38459415D01*
X6286431Y-38449107D01*
X6255110Y-38432366D01*
X6227661Y-38409839D01*
X6205134Y-38382390D01*
X6188393Y-38351069D01*
X6178085Y-38317091D01*
X6174000Y-38275610D01*
X6174000Y-37674390D01*
X6178085Y-37632909D01*
X6188393Y-37598931D01*
X6205134Y-37567610D01*
X6227661Y-37540161D01*
X6255110Y-37517634D01*
X6286431Y-37500893D01*
X6320409Y-37490585D01*
X6361890Y-37486500D01*
X7038110Y-37486500D01*
X7079591Y-37490585D01*
G37*
G36*
X4979591Y-37465585D02*
G01*
X5013569Y-37475893D01*
X5044890Y-37492634D01*
X5072339Y-37515161D01*
X5094866Y-37542610D01*
X5111607Y-37573931D01*
X5121915Y-37607909D01*
X5126000Y-37649390D01*
X5126000Y-38250610D01*
X5121915Y-38292091D01*
X5111607Y-38326069D01*
X5094866Y-38357390D01*
X5072339Y-38384839D01*
X5044890Y-38407366D01*
X5013569Y-38424107D01*
X4979591Y-38434415D01*
X4938110Y-38438500D01*
X4261890Y-38438500D01*
X4220409Y-38434415D01*
X4186431Y-38424107D01*
X4155110Y-38407366D01*
X4127661Y-38384839D01*
X4105134Y-38357390D01*
X4088393Y-38326069D01*
X4078085Y-38292091D01*
X4074000Y-38250610D01*
X4074000Y-37649390D01*
X4078085Y-37607909D01*
X4088393Y-37573931D01*
X4105134Y-37542610D01*
X4127661Y-37515161D01*
X4155110Y-37492634D01*
X4186431Y-37475893D01*
X4220409Y-37465585D01*
X4261890Y-37461500D01*
X4938110Y-37461500D01*
X4979591Y-37465585D01*
G37*
G36*
X19141591Y-37429585D02*
G01*
X19175569Y-37439893D01*
X19206890Y-37456634D01*
X19234339Y-37479161D01*
X19256866Y-37506610D01*
X19273607Y-37537931D01*
X19283915Y-37571909D01*
X19288000Y-37613390D01*
X19288000Y-38214610D01*
X19283915Y-38256091D01*
X19273607Y-38290069D01*
X19256866Y-38321390D01*
X19234339Y-38348839D01*
X19206890Y-38371366D01*
X19175569Y-38388107D01*
X19141591Y-38398415D01*
X19100110Y-38402500D01*
X18423890Y-38402500D01*
X18382409Y-38398415D01*
X18348431Y-38388107D01*
X18317110Y-38371366D01*
X18289661Y-38348839D01*
X18267134Y-38321390D01*
X18250393Y-38290069D01*
X18240085Y-38256091D01*
X18236000Y-38214610D01*
X18236000Y-37613390D01*
X18240085Y-37571909D01*
X18250393Y-37537931D01*
X18267134Y-37506610D01*
X18289661Y-37479161D01*
X18317110Y-37456634D01*
X18348431Y-37439893D01*
X18382409Y-37429585D01*
X18423890Y-37425500D01*
X19100110Y-37425500D01*
X19141591Y-37429585D01*
G37*
G36*
X23713017Y-36765358D02*
G01*
X23777242Y-36791961D01*
X23861521Y-36826870D01*
X23861522Y-36826871D01*
X23995167Y-36916169D01*
X24108831Y-37029833D01*
X24175804Y-37130067D01*
X24198130Y-37163479D01*
X24259642Y-37311983D01*
X24291000Y-37469630D01*
X24291000Y-37630370D01*
X24259642Y-37788017D01*
X24228885Y-37862270D01*
X24198130Y-37936521D01*
X24198129Y-37936522D01*
X24108831Y-38070167D01*
X23995167Y-38183831D01*
X23942158Y-38219250D01*
X23861521Y-38273130D01*
X23815744Y-38292091D01*
X23713017Y-38334642D01*
X23555370Y-38366000D01*
X23394630Y-38366000D01*
X23236983Y-38334642D01*
X23134256Y-38292091D01*
X23088479Y-38273130D01*
X23007842Y-38219250D01*
X22954833Y-38183831D01*
X22841169Y-38070167D01*
X22751871Y-37936522D01*
X22751870Y-37936521D01*
X22721115Y-37862270D01*
X22690358Y-37788017D01*
X22659000Y-37630370D01*
X22659000Y-37469630D01*
X22690358Y-37311983D01*
X22751870Y-37163479D01*
X22774196Y-37130067D01*
X22841169Y-37029833D01*
X22954833Y-36916169D01*
X23088478Y-36826871D01*
X23088479Y-36826870D01*
X23172758Y-36791961D01*
X23236983Y-36765358D01*
X23394630Y-36734000D01*
X23555370Y-36734000D01*
X23713017Y-36765358D01*
G37*
G36*
X33913017Y-36765358D02*
G01*
X33977242Y-36791961D01*
X34061521Y-36826870D01*
X34061522Y-36826871D01*
X34195167Y-36916169D01*
X34308831Y-37029833D01*
X34375804Y-37130067D01*
X34398130Y-37163479D01*
X34459642Y-37311983D01*
X34491000Y-37469630D01*
X34491000Y-37630370D01*
X34459642Y-37788017D01*
X34428885Y-37862270D01*
X34398130Y-37936521D01*
X34398129Y-37936522D01*
X34308831Y-38070167D01*
X34195167Y-38183831D01*
X34142158Y-38219250D01*
X34061521Y-38273130D01*
X34015744Y-38292091D01*
X33913017Y-38334642D01*
X33755370Y-38366000D01*
X33594630Y-38366000D01*
X33436983Y-38334642D01*
X33334256Y-38292091D01*
X33288479Y-38273130D01*
X33207842Y-38219250D01*
X33154833Y-38183831D01*
X33041169Y-38070167D01*
X32951871Y-37936522D01*
X32951870Y-37936521D01*
X32890358Y-37788017D01*
X32859000Y-37630370D01*
X32859000Y-37469630D01*
X32890358Y-37311983D01*
X32951870Y-37163479D01*
X32974196Y-37130067D01*
X33041169Y-37029833D01*
X33154833Y-36916169D01*
X33288478Y-36826871D01*
X33288479Y-36826870D01*
X33372758Y-36791961D01*
X33436983Y-36765358D01*
X33594630Y-36734000D01*
X33755370Y-36734000D01*
X33913017Y-36765358D01*
G37*
G36*
X7079591Y-35915585D02*
G01*
X7113569Y-35925893D01*
X7144890Y-35942634D01*
X7172339Y-35965161D01*
X7194866Y-35992610D01*
X7211607Y-36023931D01*
X7221915Y-36057909D01*
X7226000Y-36099390D01*
X7226000Y-36700610D01*
X7221915Y-36742091D01*
X7211607Y-36776069D01*
X7194866Y-36807390D01*
X7172339Y-36834839D01*
X7144890Y-36857366D01*
X7113569Y-36874107D01*
X7079591Y-36884415D01*
X7038110Y-36888500D01*
X6361890Y-36888500D01*
X6320409Y-36884415D01*
X6286431Y-36874107D01*
X6255110Y-36857366D01*
X6227661Y-36834839D01*
X6205134Y-36807390D01*
X6188393Y-36776069D01*
X6178085Y-36742091D01*
X6174000Y-36700610D01*
X6174000Y-36099390D01*
X6178085Y-36057909D01*
X6188393Y-36023931D01*
X6205134Y-35992610D01*
X6227661Y-35965161D01*
X6255110Y-35942634D01*
X6286431Y-35925893D01*
X6320409Y-35915585D01*
X6361890Y-35911500D01*
X7038110Y-35911500D01*
X7079591Y-35915585D01*
G37*
G36*
X4979591Y-35890585D02*
G01*
X5013569Y-35900893D01*
X5044890Y-35917634D01*
X5072339Y-35940161D01*
X5094866Y-35967610D01*
X5111607Y-35998931D01*
X5121915Y-36032909D01*
X5126000Y-36074390D01*
X5126000Y-36675610D01*
X5121915Y-36717091D01*
X5111607Y-36751069D01*
X5094866Y-36782390D01*
X5072339Y-36809839D01*
X5044890Y-36832366D01*
X5013569Y-36849107D01*
X4979591Y-36859415D01*
X4938110Y-36863500D01*
X4261890Y-36863500D01*
X4220409Y-36859415D01*
X4186431Y-36849107D01*
X4155110Y-36832366D01*
X4127661Y-36809839D01*
X4105134Y-36782390D01*
X4088393Y-36751069D01*
X4078085Y-36717091D01*
X4074000Y-36675610D01*
X4074000Y-36074390D01*
X4078085Y-36032909D01*
X4088393Y-35998931D01*
X4105134Y-35967610D01*
X4127661Y-35940161D01*
X4155110Y-35917634D01*
X4186431Y-35900893D01*
X4220409Y-35890585D01*
X4261890Y-35886500D01*
X4938110Y-35886500D01*
X4979591Y-35890585D01*
G37*
G36*
X26163017Y-35245358D02*
G01*
X26237270Y-35276115D01*
X26311521Y-35306870D01*
X26311522Y-35306871D01*
X26445167Y-35396169D01*
X26558831Y-35509833D01*
X26625804Y-35610067D01*
X26648130Y-35643479D01*
X26709642Y-35791983D01*
X26741000Y-35949630D01*
X26741000Y-36110370D01*
X26709642Y-36268017D01*
X26648130Y-36416521D01*
X26648129Y-36416522D01*
X26558831Y-36550167D01*
X26445167Y-36663831D01*
X26365457Y-36717091D01*
X26311521Y-36753130D01*
X26240880Y-36782390D01*
X26163017Y-36814642D01*
X26005370Y-36846000D01*
X25844630Y-36846000D01*
X25686983Y-36814642D01*
X25609120Y-36782390D01*
X25538479Y-36753130D01*
X25484543Y-36717091D01*
X25404833Y-36663831D01*
X25291169Y-36550167D01*
X25201871Y-36416522D01*
X25201870Y-36416521D01*
X25140358Y-36268017D01*
X25109000Y-36110370D01*
X25109000Y-35949630D01*
X25140358Y-35791983D01*
X25201870Y-35643479D01*
X25224195Y-35610067D01*
X25291169Y-35509833D01*
X25404833Y-35396169D01*
X25538478Y-35306871D01*
X25538479Y-35306870D01*
X25612730Y-35276115D01*
X25686983Y-35245358D01*
X25844630Y-35214000D01*
X26005370Y-35214000D01*
X26163017Y-35245358D01*
G37*
G36*
X36363017Y-35245358D02*
G01*
X36437270Y-35276115D01*
X36511521Y-35306870D01*
X36511522Y-35306871D01*
X36645167Y-35396169D01*
X36758831Y-35509833D01*
X36825804Y-35610067D01*
X36848130Y-35643479D01*
X36878885Y-35717730D01*
X36909642Y-35791983D01*
X36941000Y-35949630D01*
X36941000Y-36110370D01*
X36909642Y-36268017D01*
X36848130Y-36416521D01*
X36848129Y-36416522D01*
X36758831Y-36550167D01*
X36645167Y-36663831D01*
X36565457Y-36717091D01*
X36511521Y-36753130D01*
X36440880Y-36782390D01*
X36363017Y-36814642D01*
X36205370Y-36846000D01*
X36044630Y-36846000D01*
X35886983Y-36814642D01*
X35809120Y-36782390D01*
X35738479Y-36753130D01*
X35684543Y-36717091D01*
X35604833Y-36663831D01*
X35491169Y-36550167D01*
X35401871Y-36416522D01*
X35401870Y-36416521D01*
X35340358Y-36268017D01*
X35309000Y-36110370D01*
X35309000Y-35949630D01*
X35340358Y-35791983D01*
X35401870Y-35643479D01*
X35424195Y-35610067D01*
X35491169Y-35509833D01*
X35604833Y-35396169D01*
X35738478Y-35306871D01*
X35738479Y-35306870D01*
X35812730Y-35276115D01*
X35886983Y-35245358D01*
X36044630Y-35214000D01*
X36205370Y-35214000D01*
X36363017Y-35245358D01*
G37*
G36*
X19079591Y-34115585D02*
G01*
X19113569Y-34125893D01*
X19144890Y-34142634D01*
X19172339Y-34165161D01*
X19194866Y-34192610D01*
X19211607Y-34223931D01*
X19221915Y-34257909D01*
X19226000Y-34299390D01*
X19226000Y-34900610D01*
X19221915Y-34942091D01*
X19211607Y-34976069D01*
X19194866Y-35007390D01*
X19172339Y-35034839D01*
X19144890Y-35057366D01*
X19113569Y-35074107D01*
X19079591Y-35084415D01*
X19038110Y-35088500D01*
X18361890Y-35088500D01*
X18320409Y-35084415D01*
X18286431Y-35074107D01*
X18255110Y-35057366D01*
X18227661Y-35034839D01*
X18205134Y-35007390D01*
X18188393Y-34976069D01*
X18178085Y-34942091D01*
X18174000Y-34900610D01*
X18174000Y-34299390D01*
X18178085Y-34257909D01*
X18188393Y-34223931D01*
X18205134Y-34192610D01*
X18227661Y-34165161D01*
X18255110Y-34142634D01*
X18286431Y-34125893D01*
X18320409Y-34115585D01*
X18361890Y-34111500D01*
X19038110Y-34111500D01*
X19079591Y-34115585D01*
G37*
G36*
X-1881809Y-33038912D02*
G01*
X-1784820Y-33079086D01*
X-1708428Y-33110729D01*
X-1552390Y-33214990D01*
X-1419690Y-33347690D01*
X-1318517Y-33499107D01*
X-1315428Y-33503730D01*
X-1243612Y-33677109D01*
X-1211752Y-33837280D01*
X-1207001Y-33861168D01*
X-1207001Y-34048834D01*
X-1243612Y-34232893D01*
X-1315429Y-34406274D01*
X-1419690Y-34562312D01*
X-1552390Y-34695012D01*
X-1708428Y-34799273D01*
X-1708429Y-34799274D01*
X-1708430Y-34799274D01*
X-1881809Y-34871090D01*
X-2065867Y-34907701D01*
X-2253535Y-34907701D01*
X-2437593Y-34871090D01*
X-2610972Y-34799274D01*
X-2610973Y-34799274D01*
X-2610974Y-34799273D01*
X-2767012Y-34695012D01*
X-2899712Y-34562312D01*
X-3003973Y-34406274D01*
X-3075790Y-34232893D01*
X-3112401Y-34048834D01*
X-3112401Y-33861168D01*
X-3107649Y-33837280D01*
X-3075790Y-33677109D01*
X-3003974Y-33503730D01*
X-3000885Y-33499107D01*
X-2899712Y-33347690D01*
X-2767012Y-33214990D01*
X-2610974Y-33110729D01*
X-2534581Y-33079086D01*
X-2437593Y-33038912D01*
X-2253535Y-33002301D01*
X-2065867Y-33002301D01*
X-1881809Y-33038912D01*
G37*
G36*
X24581401Y-30521953D02*
G01*
X24722049Y-30549930D01*
X24879530Y-30615161D01*
X25057028Y-30688683D01*
X25119512Y-30714565D01*
X25477219Y-30953577D01*
X25781423Y-31257781D01*
X26020435Y-31615488D01*
X26175889Y-31990785D01*
X26185070Y-32012952D01*
X26269000Y-32434893D01*
X26269000Y-32865107D01*
X26220142Y-33110729D01*
X26185070Y-33287049D01*
X26092963Y-33509415D01*
X26023502Y-33677109D01*
X26020435Y-33684512D01*
X25781423Y-34042219D01*
X25477219Y-34346423D01*
X25119512Y-34585435D01*
X25119511Y-34585436D01*
X25119510Y-34585436D01*
X25030425Y-34622336D01*
X24722049Y-34750070D01*
X24581401Y-34778047D01*
X24300107Y-34834000D01*
X23869893Y-34834000D01*
X23588599Y-34778047D01*
X23447951Y-34750070D01*
X23139575Y-34622336D01*
X23050490Y-34585436D01*
X23050489Y-34585436D01*
X23050488Y-34585435D01*
X22692781Y-34346423D01*
X22388577Y-34042219D01*
X22149565Y-33684512D01*
X22146499Y-33677109D01*
X22077037Y-33509415D01*
X21984930Y-33287049D01*
X21949858Y-33110729D01*
X21901000Y-32865107D01*
X21901000Y-32434893D01*
X21984930Y-32012952D01*
X21994112Y-31990785D01*
X22149565Y-31615488D01*
X22388577Y-31257781D01*
X22692781Y-30953577D01*
X23050488Y-30714565D01*
X23112973Y-30688683D01*
X23290470Y-30615161D01*
X23447951Y-30549930D01*
X23588599Y-30521953D01*
X23869893Y-30466000D01*
X24300107Y-30466000D01*
X24581401Y-30521953D01*
G37*
G36*
X36011401Y-30521953D02*
G01*
X36152049Y-30549930D01*
X36309530Y-30615161D01*
X36487028Y-30688683D01*
X36549512Y-30714565D01*
X36907219Y-30953577D01*
X37211423Y-31257781D01*
X37450435Y-31615488D01*
X37605889Y-31990785D01*
X37615070Y-32012952D01*
X37699000Y-32434893D01*
X37699000Y-32865107D01*
X37650142Y-33110729D01*
X37615070Y-33287049D01*
X37522963Y-33509415D01*
X37453502Y-33677109D01*
X37450435Y-33684512D01*
X37211423Y-34042219D01*
X36907219Y-34346423D01*
X36549512Y-34585435D01*
X36549511Y-34585436D01*
X36549510Y-34585436D01*
X36460425Y-34622336D01*
X36152049Y-34750070D01*
X36011401Y-34778047D01*
X35730107Y-34834000D01*
X35299893Y-34834000D01*
X35018599Y-34778047D01*
X34877951Y-34750070D01*
X34569575Y-34622336D01*
X34480490Y-34585436D01*
X34480489Y-34585436D01*
X34480488Y-34585435D01*
X34122781Y-34346423D01*
X33818577Y-34042219D01*
X33579565Y-33684512D01*
X33576499Y-33677109D01*
X33507037Y-33509415D01*
X33414930Y-33287049D01*
X33379858Y-33110729D01*
X33331000Y-32865107D01*
X33331000Y-32434893D01*
X33414930Y-32012952D01*
X33424112Y-31990785D01*
X33579565Y-31615488D01*
X33818577Y-31257781D01*
X34122781Y-30953577D01*
X34480488Y-30714565D01*
X34542973Y-30688683D01*
X34720470Y-30615161D01*
X34877951Y-30549930D01*
X35018599Y-30521953D01*
X35299893Y-30466000D01*
X35730107Y-30466000D01*
X36011401Y-30521953D01*
G37*
G36*
X12551000Y-34801000D02*
G01*
X10949000Y-34801000D01*
X10949000Y-32699000D01*
X12551000Y-32699000D01*
X12551000Y-34801000D01*
G37*
G36*
X10251000Y-34801000D02*
G01*
X8649000Y-34801000D01*
X8649000Y-32699000D01*
X10251000Y-32699000D01*
X10251000Y-34801000D01*
G37*
G36*
X14851000Y-34801000D02*
G01*
X13249000Y-34801000D01*
X13249000Y-32699000D01*
X14851000Y-32699000D01*
X14851000Y-34801000D01*
G37*
G36*
X5179591Y-33690585D02*
G01*
X5213569Y-33700893D01*
X5244890Y-33717634D01*
X5272339Y-33740161D01*
X5294866Y-33767610D01*
X5311607Y-33798931D01*
X5321915Y-33832909D01*
X5326000Y-33874390D01*
X5326000Y-34475610D01*
X5321915Y-34517091D01*
X5311607Y-34551069D01*
X5294866Y-34582390D01*
X5272339Y-34609839D01*
X5244890Y-34632366D01*
X5213569Y-34649107D01*
X5179591Y-34659415D01*
X5138110Y-34663500D01*
X4461890Y-34663500D01*
X4420409Y-34659415D01*
X4386431Y-34649107D01*
X4355110Y-34632366D01*
X4327661Y-34609839D01*
X4305134Y-34582390D01*
X4288393Y-34551069D01*
X4278085Y-34517091D01*
X4274000Y-34475610D01*
X4274000Y-33874390D01*
X4278085Y-33832909D01*
X4288393Y-33798931D01*
X4305134Y-33767610D01*
X4327661Y-33740161D01*
X4355110Y-33717634D01*
X4386431Y-33700893D01*
X4420409Y-33690585D01*
X4461890Y-33686500D01*
X5138110Y-33686500D01*
X5179591Y-33690585D01*
G37*
G36*
X7079591Y-33690585D02*
G01*
X7113569Y-33700893D01*
X7144890Y-33717634D01*
X7172339Y-33740161D01*
X7194866Y-33767610D01*
X7211607Y-33798931D01*
X7221915Y-33832909D01*
X7226000Y-33874390D01*
X7226000Y-34475610D01*
X7221915Y-34517091D01*
X7211607Y-34551069D01*
X7194866Y-34582390D01*
X7172339Y-34609839D01*
X7144890Y-34632366D01*
X7113569Y-34649107D01*
X7079591Y-34659415D01*
X7038110Y-34663500D01*
X6361890Y-34663500D01*
X6320409Y-34659415D01*
X6286431Y-34649107D01*
X6255110Y-34632366D01*
X6227661Y-34609839D01*
X6205134Y-34582390D01*
X6188393Y-34551069D01*
X6178085Y-34517091D01*
X6174000Y-34475610D01*
X6174000Y-33874390D01*
X6178085Y-33832909D01*
X6188393Y-33798931D01*
X6205134Y-33767610D01*
X6227661Y-33740161D01*
X6255110Y-33717634D01*
X6286431Y-33700893D01*
X6320409Y-33690585D01*
X6361890Y-33686500D01*
X7038110Y-33686500D01*
X7079591Y-33690585D01*
G37*
G36*
X1529591Y-33678085D02*
G01*
X1563569Y-33688393D01*
X1594890Y-33705134D01*
X1622339Y-33727661D01*
X1644866Y-33755110D01*
X1661607Y-33786431D01*
X1671915Y-33820409D01*
X1676000Y-33861890D01*
X1676000Y-34463110D01*
X1671915Y-34504591D01*
X1661607Y-34538569D01*
X1644866Y-34569890D01*
X1622339Y-34597339D01*
X1594890Y-34619866D01*
X1563569Y-34636607D01*
X1529591Y-34646915D01*
X1488110Y-34651000D01*
X811890Y-34651000D01*
X770409Y-34646915D01*
X736431Y-34636607D01*
X705110Y-34619866D01*
X677661Y-34597339D01*
X655134Y-34569890D01*
X638393Y-34538569D01*
X628085Y-34504591D01*
X624000Y-34463110D01*
X624000Y-33861890D01*
X628085Y-33820409D01*
X638393Y-33786431D01*
X655134Y-33755110D01*
X677661Y-33727661D01*
X705110Y-33705134D01*
X736431Y-33688393D01*
X770409Y-33678085D01*
X811890Y-33674000D01*
X1488110Y-33674000D01*
X1529591Y-33678085D01*
G37*
G36*
X3279591Y-33678085D02*
G01*
X3313569Y-33688393D01*
X3344890Y-33705134D01*
X3372339Y-33727661D01*
X3394866Y-33755110D01*
X3411607Y-33786431D01*
X3421915Y-33820409D01*
X3426000Y-33861890D01*
X3426000Y-34463110D01*
X3421915Y-34504591D01*
X3411607Y-34538569D01*
X3394866Y-34569890D01*
X3372339Y-34597339D01*
X3344890Y-34619866D01*
X3313569Y-34636607D01*
X3279591Y-34646915D01*
X3238110Y-34651000D01*
X2561890Y-34651000D01*
X2520409Y-34646915D01*
X2486431Y-34636607D01*
X2455110Y-34619866D01*
X2427661Y-34597339D01*
X2405134Y-34569890D01*
X2388393Y-34538569D01*
X2378085Y-34504591D01*
X2374000Y-34463110D01*
X2374000Y-33861890D01*
X2378085Y-33820409D01*
X2388393Y-33786431D01*
X2405134Y-33755110D01*
X2427661Y-33727661D01*
X2455110Y-33705134D01*
X2486431Y-33688393D01*
X2520409Y-33678085D01*
X2561890Y-33674000D01*
X3238110Y-33674000D01*
X3279591Y-33678085D01*
G37*
G36*
X19079591Y-32540585D02*
G01*
X19113569Y-32550893D01*
X19144890Y-32567634D01*
X19172339Y-32590161D01*
X19194866Y-32617610D01*
X19211607Y-32648931D01*
X19221915Y-32682909D01*
X19226000Y-32724390D01*
X19226000Y-33325610D01*
X19221915Y-33367091D01*
X19211607Y-33401069D01*
X19194866Y-33432390D01*
X19172339Y-33459839D01*
X19144890Y-33482366D01*
X19113569Y-33499107D01*
X19079591Y-33509415D01*
X19038110Y-33513500D01*
X18361890Y-33513500D01*
X18320409Y-33509415D01*
X18286431Y-33499107D01*
X18255110Y-33482366D01*
X18227661Y-33459839D01*
X18205134Y-33432390D01*
X18188393Y-33401069D01*
X18178085Y-33367091D01*
X18174000Y-33325610D01*
X18174000Y-32724390D01*
X18178085Y-32682909D01*
X18188393Y-32648931D01*
X18205134Y-32617610D01*
X18227661Y-32590161D01*
X18255110Y-32567634D01*
X18286431Y-32550893D01*
X18320409Y-32540585D01*
X18361890Y-32536500D01*
X19038110Y-32536500D01*
X19079591Y-32540585D01*
G37*
G36*
X-4493869Y-31915079D02*
G01*
X-4416561Y-31930456D01*
X-4343739Y-31960620D01*
X-4270915Y-31990785D01*
X-4139841Y-32078365D01*
X-4028364Y-32189842D01*
X-3940784Y-32320916D01*
X-3940784Y-32320917D01*
X-3880455Y-32466562D01*
X-3865731Y-32540585D01*
X-3852313Y-32608039D01*
X-3849700Y-32621178D01*
X-3849700Y-32778824D01*
X-3880455Y-32933440D01*
X-3892935Y-32963569D01*
X-3940784Y-33079086D01*
X-4028364Y-33210160D01*
X-4139841Y-33321637D01*
X-4270915Y-33409217D01*
X-4326860Y-33432390D01*
X-4416561Y-33469546D01*
X-4481012Y-33482366D01*
X-4571176Y-33500301D01*
X-4728824Y-33500301D01*
X-4818988Y-33482366D01*
X-4883439Y-33469546D01*
X-4973140Y-33432390D01*
X-5029085Y-33409217D01*
X-5160159Y-33321637D01*
X-5271636Y-33210160D01*
X-5359216Y-33079086D01*
X-5407065Y-32963569D01*
X-5419545Y-32933440D01*
X-5450300Y-32778824D01*
X-5450300Y-32621178D01*
X-5447686Y-32608039D01*
X-5434269Y-32540585D01*
X-5419545Y-32466562D01*
X-5359216Y-32320917D01*
X-5359216Y-32320916D01*
X-5271636Y-32189842D01*
X-5160159Y-32078365D01*
X-5029085Y-31990785D01*
X-4956261Y-31960620D01*
X-4883439Y-31930456D01*
X-4806131Y-31915079D01*
X-4728824Y-31899701D01*
X-4571176Y-31899701D01*
X-4493869Y-31915079D01*
G37*
G36*
X5179591Y-32115585D02*
G01*
X5213569Y-32125893D01*
X5244890Y-32142634D01*
X5272339Y-32165161D01*
X5294866Y-32192610D01*
X5311607Y-32223931D01*
X5321915Y-32257909D01*
X5326000Y-32299390D01*
X5326000Y-32900610D01*
X5321915Y-32942091D01*
X5311607Y-32976069D01*
X5294866Y-33007390D01*
X5272339Y-33034839D01*
X5244890Y-33057366D01*
X5213569Y-33074107D01*
X5179591Y-33084415D01*
X5138110Y-33088500D01*
X4461890Y-33088500D01*
X4420409Y-33084415D01*
X4386431Y-33074107D01*
X4355110Y-33057366D01*
X4327661Y-33034839D01*
X4305134Y-33007390D01*
X4288393Y-32976069D01*
X4278085Y-32942091D01*
X4274000Y-32900610D01*
X4274000Y-32299390D01*
X4278085Y-32257909D01*
X4288393Y-32223931D01*
X4305134Y-32192610D01*
X4327661Y-32165161D01*
X4355110Y-32142634D01*
X4386431Y-32125893D01*
X4420409Y-32115585D01*
X4461890Y-32111500D01*
X5138110Y-32111500D01*
X5179591Y-32115585D01*
G37*
G36*
X7079591Y-32115585D02*
G01*
X7113569Y-32125893D01*
X7144890Y-32142634D01*
X7172339Y-32165161D01*
X7194866Y-32192610D01*
X7211607Y-32223931D01*
X7221915Y-32257909D01*
X7226000Y-32299390D01*
X7226000Y-32900610D01*
X7221915Y-32942091D01*
X7211607Y-32976069D01*
X7194866Y-33007390D01*
X7172339Y-33034839D01*
X7144890Y-33057366D01*
X7113569Y-33074107D01*
X7079591Y-33084415D01*
X7038110Y-33088500D01*
X6361890Y-33088500D01*
X6320409Y-33084415D01*
X6286431Y-33074107D01*
X6255110Y-33057366D01*
X6227661Y-33034839D01*
X6205134Y-33007390D01*
X6188393Y-32976069D01*
X6178085Y-32942091D01*
X6174000Y-32900610D01*
X6174000Y-32299390D01*
X6178085Y-32257909D01*
X6188393Y-32223931D01*
X6205134Y-32192610D01*
X6227661Y-32165161D01*
X6255110Y-32142634D01*
X6286431Y-32125893D01*
X6320409Y-32115585D01*
X6361890Y-32111500D01*
X7038110Y-32111500D01*
X7079591Y-32115585D01*
G37*
G36*
X3279591Y-32103085D02*
G01*
X3313569Y-32113393D01*
X3344890Y-32130134D01*
X3372339Y-32152661D01*
X3394866Y-32180110D01*
X3411607Y-32211431D01*
X3421915Y-32245409D01*
X3426000Y-32286890D01*
X3426000Y-32888110D01*
X3421915Y-32929591D01*
X3411607Y-32963569D01*
X3394866Y-32994890D01*
X3372339Y-33022339D01*
X3344890Y-33044866D01*
X3313569Y-33061607D01*
X3279591Y-33071915D01*
X3238110Y-33076000D01*
X2561890Y-33076000D01*
X2520409Y-33071915D01*
X2486431Y-33061607D01*
X2455110Y-33044866D01*
X2427661Y-33022339D01*
X2405134Y-32994890D01*
X2388393Y-32963569D01*
X2378085Y-32929591D01*
X2374000Y-32888110D01*
X2374000Y-32286890D01*
X2378085Y-32245409D01*
X2388393Y-32211431D01*
X2405134Y-32180110D01*
X2427661Y-32152661D01*
X2455110Y-32130134D01*
X2486431Y-32113393D01*
X2520409Y-32103085D01*
X2561890Y-32099000D01*
X3238110Y-32099000D01*
X3279591Y-32103085D01*
G37*
G36*
X1529591Y-32103085D02*
G01*
X1563569Y-32113393D01*
X1594890Y-32130134D01*
X1622339Y-32152661D01*
X1644866Y-32180110D01*
X1661607Y-32211431D01*
X1671915Y-32245409D01*
X1676000Y-32286890D01*
X1676000Y-32888110D01*
X1671915Y-32929591D01*
X1661607Y-32963569D01*
X1644866Y-32994890D01*
X1622339Y-33022339D01*
X1594890Y-33044866D01*
X1563569Y-33061607D01*
X1529591Y-33071915D01*
X1488110Y-33076000D01*
X811890Y-33076000D01*
X770409Y-33071915D01*
X736431Y-33061607D01*
X705110Y-33044866D01*
X677661Y-33022339D01*
X655134Y-32994890D01*
X638393Y-32963569D01*
X628085Y-32929591D01*
X624000Y-32888110D01*
X624000Y-32286890D01*
X628085Y-32245409D01*
X638393Y-32211431D01*
X655134Y-32180110D01*
X677661Y-32152661D01*
X705110Y-32130134D01*
X736431Y-32113393D01*
X770409Y-32103085D01*
X811890Y-32099000D01*
X1488110Y-32099000D01*
X1529591Y-32103085D01*
G37*
G36*
X10454591Y-30678085D02*
G01*
X10488569Y-30688393D01*
X10519890Y-30705134D01*
X10547339Y-30727661D01*
X10569866Y-30755110D01*
X10586607Y-30786431D01*
X10596915Y-30820409D01*
X10601000Y-30861890D01*
X10601000Y-31538110D01*
X10596915Y-31579591D01*
X10586607Y-31613569D01*
X10569866Y-31644890D01*
X10547339Y-31672339D01*
X10519890Y-31694866D01*
X10488569Y-31711607D01*
X10454591Y-31721915D01*
X10413110Y-31726000D01*
X9811890Y-31726000D01*
X9770409Y-31721915D01*
X9736431Y-31711607D01*
X9705110Y-31694866D01*
X9677661Y-31672339D01*
X9655134Y-31644890D01*
X9638393Y-31613569D01*
X9628085Y-31579591D01*
X9624000Y-31538110D01*
X9624000Y-30861890D01*
X9628085Y-30820409D01*
X9638393Y-30786431D01*
X9655134Y-30755110D01*
X9677661Y-30727661D01*
X9705110Y-30705134D01*
X9736431Y-30688393D01*
X9770409Y-30678085D01*
X9811890Y-30674000D01*
X10413110Y-30674000D01*
X10454591Y-30678085D01*
G37*
G36*
X12029591Y-30678085D02*
G01*
X12063569Y-30688393D01*
X12094890Y-30705134D01*
X12122339Y-30727661D01*
X12144866Y-30755110D01*
X12161607Y-30786431D01*
X12171915Y-30820409D01*
X12176000Y-30861890D01*
X12176000Y-31538110D01*
X12171915Y-31579591D01*
X12161607Y-31613569D01*
X12144866Y-31644890D01*
X12122339Y-31672339D01*
X12094890Y-31694866D01*
X12063569Y-31711607D01*
X12029591Y-31721915D01*
X11988110Y-31726000D01*
X11386890Y-31726000D01*
X11345409Y-31721915D01*
X11311431Y-31711607D01*
X11280110Y-31694866D01*
X11252661Y-31672339D01*
X11230134Y-31644890D01*
X11213393Y-31613569D01*
X11203085Y-31579591D01*
X11199000Y-31538110D01*
X11199000Y-30861890D01*
X11203085Y-30820409D01*
X11213393Y-30786431D01*
X11230134Y-30755110D01*
X11252661Y-30727661D01*
X11280110Y-30705134D01*
X11311431Y-30688393D01*
X11345409Y-30678085D01*
X11386890Y-30674000D01*
X11988110Y-30674000D01*
X12029591Y-30678085D01*
G37*
G36*
X-1320409Y-30565585D02*
G01*
X-1286431Y-30575893D01*
X-1255110Y-30592634D01*
X-1227661Y-30615161D01*
X-1205134Y-30642610D01*
X-1188393Y-30673931D01*
X-1178085Y-30707909D01*
X-1174000Y-30749390D01*
X-1174000Y-31350610D01*
X-1178085Y-31392091D01*
X-1188393Y-31426069D01*
X-1205134Y-31457390D01*
X-1227661Y-31484839D01*
X-1255110Y-31507366D01*
X-1286431Y-31524107D01*
X-1320409Y-31534415D01*
X-1361890Y-31538500D01*
X-2038110Y-31538500D01*
X-2079591Y-31534415D01*
X-2113569Y-31524107D01*
X-2144890Y-31507366D01*
X-2172339Y-31484839D01*
X-2194866Y-31457390D01*
X-2211607Y-31426069D01*
X-2221915Y-31392091D01*
X-2226000Y-31350610D01*
X-2226000Y-30749390D01*
X-2221915Y-30707909D01*
X-2211607Y-30673931D01*
X-2194866Y-30642610D01*
X-2172339Y-30615161D01*
X-2144890Y-30592634D01*
X-2113569Y-30575893D01*
X-2079591Y-30565585D01*
X-2038110Y-30561500D01*
X-1361890Y-30561500D01*
X-1320409Y-30565585D01*
G37*
G36*
X22283339Y-28418710D02*
G01*
X22506911Y-28511317D01*
X22506913Y-28511318D01*
X22708123Y-28645762D01*
X22879238Y-28816877D01*
X22995712Y-28991193D01*
X23013683Y-29018089D01*
X23106290Y-29241661D01*
X23153500Y-29479002D01*
X23153500Y-29720998D01*
X23106290Y-29958339D01*
X23067908Y-30051000D01*
X23013682Y-30181913D01*
X22879238Y-30383123D01*
X22708123Y-30554238D01*
X22506913Y-30688682D01*
X22506912Y-30688683D01*
X22506911Y-30688683D01*
X22283339Y-30781290D01*
X22045998Y-30828500D01*
X21804002Y-30828500D01*
X21566661Y-30781290D01*
X21343089Y-30688683D01*
X21343088Y-30688683D01*
X21343087Y-30688682D01*
X21141877Y-30554238D01*
X20970762Y-30383123D01*
X20836318Y-30181913D01*
X20782092Y-30051000D01*
X20743710Y-29958339D01*
X20696500Y-29720998D01*
X20696500Y-29479002D01*
X20743710Y-29241661D01*
X20836317Y-29018089D01*
X20854288Y-28991193D01*
X20970762Y-28816877D01*
X21141877Y-28645762D01*
X21343087Y-28511318D01*
X21343089Y-28511317D01*
X21566661Y-28418710D01*
X21804002Y-28371500D01*
X22045998Y-28371500D01*
X22283339Y-28418710D01*
G37*
G36*
X38033339Y-28418710D02*
G01*
X38256911Y-28511317D01*
X38256913Y-28511318D01*
X38458123Y-28645762D01*
X38629238Y-28816877D01*
X38745712Y-28991193D01*
X38763683Y-29018089D01*
X38856290Y-29241661D01*
X38903500Y-29479002D01*
X38903500Y-29720998D01*
X38856290Y-29958339D01*
X38817908Y-30051000D01*
X38763682Y-30181913D01*
X38629238Y-30383123D01*
X38458123Y-30554238D01*
X38256913Y-30688682D01*
X38256912Y-30688683D01*
X38256911Y-30688683D01*
X38033339Y-30781290D01*
X37795998Y-30828500D01*
X37554002Y-30828500D01*
X37316661Y-30781290D01*
X37093089Y-30688683D01*
X37093088Y-30688683D01*
X37093087Y-30688682D01*
X36891877Y-30554238D01*
X36720762Y-30383123D01*
X36586318Y-30181913D01*
X36532092Y-30051000D01*
X36493710Y-29958339D01*
X36446500Y-29720998D01*
X36446500Y-29479002D01*
X36493710Y-29241661D01*
X36586317Y-29018089D01*
X36604288Y-28991193D01*
X36720762Y-28816877D01*
X36891877Y-28645762D01*
X37093087Y-28511318D01*
X37093089Y-28511317D01*
X37316661Y-28418710D01*
X37554002Y-28371500D01*
X37795998Y-28371500D01*
X38033339Y-28418710D01*
G37*
G36*
X5575880Y-25559776D02*
G01*
X5956593Y-25635504D01*
X6366249Y-25805189D01*
X6734929Y-26051534D01*
X7048466Y-26365071D01*
X7294811Y-26733751D01*
X7464496Y-27143407D01*
X7551000Y-27578296D01*
X7551000Y-28021704D01*
X7464496Y-28456593D01*
X7294811Y-28866249D01*
X7048466Y-29234929D01*
X6734929Y-29548466D01*
X6366249Y-29794811D01*
X5956593Y-29964496D01*
X5575880Y-30040224D01*
X5521705Y-30051000D01*
X5078295Y-30051000D01*
X5024120Y-30040224D01*
X4643407Y-29964496D01*
X4233751Y-29794811D01*
X3865071Y-29548466D01*
X3551534Y-29234929D01*
X3305189Y-28866249D01*
X3135504Y-28456593D01*
X3049000Y-28021704D01*
X3049000Y-27578296D01*
X3135504Y-27143407D01*
X3305189Y-26733751D01*
X3551534Y-26365071D01*
X3865071Y-26051534D01*
X4233751Y-25805189D01*
X4643407Y-25635504D01*
X5024120Y-25559776D01*
X5078295Y-25549000D01*
X5521705Y-25549000D01*
X5575880Y-25559776D01*
G37*
G36*
X-1320409Y-28990585D02*
G01*
X-1286431Y-29000893D01*
X-1255110Y-29017634D01*
X-1227661Y-29040161D01*
X-1205134Y-29067610D01*
X-1188393Y-29098931D01*
X-1178085Y-29132909D01*
X-1174000Y-29174390D01*
X-1174000Y-29775610D01*
X-1178085Y-29817091D01*
X-1188393Y-29851069D01*
X-1205134Y-29882390D01*
X-1227661Y-29909839D01*
X-1255110Y-29932366D01*
X-1286431Y-29949107D01*
X-1320409Y-29959415D01*
X-1361890Y-29963500D01*
X-2038110Y-29963500D01*
X-2079591Y-29959415D01*
X-2113569Y-29949107D01*
X-2144890Y-29932366D01*
X-2172339Y-29909839D01*
X-2194866Y-29882390D01*
X-2211607Y-29851069D01*
X-2221915Y-29817091D01*
X-2226000Y-29775610D01*
X-2226000Y-29174390D01*
X-2221915Y-29132909D01*
X-2211607Y-29098931D01*
X-2194866Y-29067610D01*
X-2172339Y-29040161D01*
X-2144890Y-29017634D01*
X-2113569Y-29000893D01*
X-2079591Y-28990585D01*
X-2038110Y-28986500D01*
X-1361890Y-28986500D01*
X-1320409Y-28990585D01*
G37*
G36*
X-4493869Y-27415077D02*
G01*
X-4416561Y-27430455D01*
X-4343738Y-27460620D01*
X-4270915Y-27490784D01*
X-4139841Y-27578364D01*
X-4028364Y-27689841D01*
X-3940784Y-27820915D01*
X-3910620Y-27893738D01*
X-3880455Y-27966561D01*
X-3849700Y-28121177D01*
X-3849700Y-28278823D01*
X-3877525Y-28418711D01*
X-3880455Y-28433438D01*
X-3940784Y-28579085D01*
X-4028364Y-28710159D01*
X-4139841Y-28821636D01*
X-4270915Y-28909216D01*
X-4343738Y-28939380D01*
X-4416561Y-28969545D01*
X-4493869Y-28984923D01*
X-4571176Y-29000300D01*
X-4728824Y-29000300D01*
X-4806131Y-28984923D01*
X-4883439Y-28969545D01*
X-4956262Y-28939380D01*
X-5029085Y-28909216D01*
X-5160159Y-28821636D01*
X-5271636Y-28710159D01*
X-5359216Y-28579085D01*
X-5419545Y-28433438D01*
X-5422474Y-28418711D01*
X-5450300Y-28278823D01*
X-5450300Y-28121177D01*
X-5419545Y-27966561D01*
X-5389380Y-27893738D01*
X-5359216Y-27820915D01*
X-5271636Y-27689841D01*
X-5160159Y-27578364D01*
X-5029085Y-27490784D01*
X-4956262Y-27460620D01*
X-4883439Y-27430455D01*
X-4806131Y-27415077D01*
X-4728824Y-27399700D01*
X-4571176Y-27399700D01*
X-4493869Y-27415077D01*
G37*
G36*
X14401000Y-27951000D02*
G01*
X12799000Y-27951000D01*
X12799000Y-26249000D01*
X14401000Y-26249000D01*
X14401000Y-27951000D01*
G37*
G36*
X12301000Y-27951000D02*
G01*
X10699000Y-27951000D01*
X10699000Y-26249000D01*
X12301000Y-26249000D01*
X12301000Y-27951000D01*
G37*
G36*
X10201000Y-27951000D02*
G01*
X8599000Y-27951000D01*
X8599000Y-26249000D01*
X10201000Y-26249000D01*
X10201000Y-27951000D01*
G37*
G36*
X-1881809Y-26028911D02*
G01*
X-1755490Y-26081234D01*
X-1708428Y-26100728D01*
X-1552390Y-26204989D01*
X-1419690Y-26337689D01*
X-1395515Y-26373870D01*
X-1315428Y-26493729D01*
X-1243612Y-26667108D01*
X-1230355Y-26733754D01*
X-1207001Y-26851167D01*
X-1207001Y-27038833D01*
X-1243612Y-27222892D01*
X-1315429Y-27396273D01*
X-1419690Y-27552311D01*
X-1552390Y-27685011D01*
X-1708428Y-27789272D01*
X-1708429Y-27789273D01*
X-1708430Y-27789273D01*
X-1881809Y-27861089D01*
X-2065867Y-27897700D01*
X-2253535Y-27897700D01*
X-2437593Y-27861089D01*
X-2610972Y-27789273D01*
X-2610973Y-27789273D01*
X-2610974Y-27789272D01*
X-2767012Y-27685011D01*
X-2899712Y-27552311D01*
X-3003973Y-27396273D01*
X-3075790Y-27222892D01*
X-3112401Y-27038833D01*
X-3112401Y-26851167D01*
X-3089046Y-26733754D01*
X-3075790Y-26667108D01*
X-3003974Y-26493729D01*
X-2923887Y-26373870D01*
X-2899712Y-26337689D01*
X-2767012Y-26204989D01*
X-2610974Y-26100728D01*
X-2563911Y-26081234D01*
X-2437593Y-26028911D01*
X-2253535Y-25992300D01*
X-2065867Y-25992300D01*
X-1881809Y-26028911D01*
G37*
G36*
X28113766Y-25578821D02*
G01*
X28250257Y-25635358D01*
X28373097Y-25717437D01*
X28477563Y-25821903D01*
X28559642Y-25944743D01*
X28616179Y-26081234D01*
X28645000Y-26226130D01*
X28645000Y-26373870D01*
X28616179Y-26518766D01*
X28559642Y-26655257D01*
X28477563Y-26778097D01*
X28373097Y-26882563D01*
X28250257Y-26964642D01*
X28113766Y-27021179D01*
X27968870Y-27050000D01*
X27821130Y-27050000D01*
X27676234Y-27021179D01*
X27539743Y-26964642D01*
X27416903Y-26882563D01*
X27312437Y-26778097D01*
X27230358Y-26655257D01*
X27173821Y-26518766D01*
X27145000Y-26373870D01*
X27145000Y-26226130D01*
X27173821Y-26081234D01*
X27230358Y-25944743D01*
X27312437Y-25821903D01*
X27416903Y-25717437D01*
X27539743Y-25635358D01*
X27676234Y-25578821D01*
X27821130Y-25550000D01*
X27968870Y-25550000D01*
X28113766Y-25578821D01*
G37*
G36*
X25573766Y-25578821D02*
G01*
X25710257Y-25635358D01*
X25833097Y-25717437D01*
X25937563Y-25821903D01*
X26019642Y-25944743D01*
X26076179Y-26081234D01*
X26105000Y-26226130D01*
X26105000Y-26373870D01*
X26076179Y-26518766D01*
X26019642Y-26655257D01*
X25937563Y-26778097D01*
X25833097Y-26882563D01*
X25710257Y-26964642D01*
X25573766Y-27021179D01*
X25428870Y-27050000D01*
X25281130Y-27050000D01*
X25136234Y-27021179D01*
X24999743Y-26964642D01*
X24876903Y-26882563D01*
X24772437Y-26778097D01*
X24690358Y-26655257D01*
X24633821Y-26518766D01*
X24605000Y-26373870D01*
X24605000Y-26226130D01*
X24633821Y-26081234D01*
X24690358Y-25944743D01*
X24772437Y-25821903D01*
X24876903Y-25717437D01*
X24999743Y-25635358D01*
X25136234Y-25578821D01*
X25281130Y-25550000D01*
X25428870Y-25550000D01*
X25573766Y-25578821D01*
G37*
G36*
X30653766Y-25578821D02*
G01*
X30790257Y-25635358D01*
X30913097Y-25717437D01*
X31017563Y-25821903D01*
X31099642Y-25944743D01*
X31156179Y-26081234D01*
X31185000Y-26226130D01*
X31185000Y-26373870D01*
X31156179Y-26518766D01*
X31099642Y-26655257D01*
X31017563Y-26778097D01*
X30913097Y-26882563D01*
X30790257Y-26964642D01*
X30653766Y-27021179D01*
X30508870Y-27050000D01*
X30361130Y-27050000D01*
X30216234Y-27021179D01*
X30079743Y-26964642D01*
X29956903Y-26882563D01*
X29852437Y-26778097D01*
X29770358Y-26655257D01*
X29713821Y-26518766D01*
X29685000Y-26373870D01*
X29685000Y-26226130D01*
X29713821Y-26081234D01*
X29770358Y-25944743D01*
X29852437Y-25821903D01*
X29956903Y-25717437D01*
X30079743Y-25635358D01*
X30216234Y-25578821D01*
X30361130Y-25550000D01*
X30508870Y-25550000D01*
X30653766Y-25578821D01*
G37*
G36*
X33193766Y-25578821D02*
G01*
X33330257Y-25635358D01*
X33453097Y-25717437D01*
X33557563Y-25821903D01*
X33639642Y-25944743D01*
X33696179Y-26081234D01*
X33725000Y-26226130D01*
X33725000Y-26373870D01*
X33696179Y-26518766D01*
X33639642Y-26655257D01*
X33557563Y-26778097D01*
X33453097Y-26882563D01*
X33330257Y-26964642D01*
X33193766Y-27021179D01*
X33048870Y-27050000D01*
X32901130Y-27050000D01*
X32756234Y-27021179D01*
X32619743Y-26964642D01*
X32496903Y-26882563D01*
X32392437Y-26778097D01*
X32310358Y-26655257D01*
X32253821Y-26518766D01*
X32225000Y-26373870D01*
X32225000Y-26226130D01*
X32253821Y-26081234D01*
X32310358Y-25944743D01*
X32392437Y-25821903D01*
X32496903Y-25717437D01*
X32619743Y-25635358D01*
X32756234Y-25578821D01*
X32901130Y-25550000D01*
X33048870Y-25550000D01*
X33193766Y-25578821D01*
G37*
G36*
X34463766Y-23038821D02*
G01*
X34600257Y-23095358D01*
X34723097Y-23177437D01*
X34827563Y-23281903D01*
X34909642Y-23404743D01*
X34966179Y-23541234D01*
X34995000Y-23686130D01*
X34995000Y-23833870D01*
X34966179Y-23978766D01*
X34909642Y-24115257D01*
X34827563Y-24238097D01*
X34723097Y-24342563D01*
X34600257Y-24424642D01*
X34463766Y-24481179D01*
X34318870Y-24510000D01*
X34171130Y-24510000D01*
X34026234Y-24481179D01*
X33889743Y-24424642D01*
X33766903Y-24342563D01*
X33662437Y-24238097D01*
X33580358Y-24115257D01*
X33523821Y-23978766D01*
X33495000Y-23833870D01*
X33495000Y-23686130D01*
X33523821Y-23541234D01*
X33580358Y-23404743D01*
X33662437Y-23281903D01*
X33766903Y-23177437D01*
X33889743Y-23095358D01*
X34026234Y-23038821D01*
X34171130Y-23010000D01*
X34318870Y-23010000D01*
X34463766Y-23038821D01*
G37*
G36*
X26843766Y-23038821D02*
G01*
X26980257Y-23095358D01*
X27103097Y-23177437D01*
X27207563Y-23281903D01*
X27289642Y-23404743D01*
X27346179Y-23541234D01*
X27375000Y-23686130D01*
X27375000Y-23833870D01*
X27346179Y-23978766D01*
X27289642Y-24115257D01*
X27207563Y-24238097D01*
X27103097Y-24342563D01*
X26980257Y-24424642D01*
X26843766Y-24481179D01*
X26698870Y-24510000D01*
X26551130Y-24510000D01*
X26406234Y-24481179D01*
X26269743Y-24424642D01*
X26146903Y-24342563D01*
X26042437Y-24238097D01*
X25960358Y-24115257D01*
X25903821Y-23978766D01*
X25875000Y-23833870D01*
X25875000Y-23686130D01*
X25903821Y-23541234D01*
X25960358Y-23404743D01*
X26042437Y-23281903D01*
X26146903Y-23177437D01*
X26269743Y-23095358D01*
X26406234Y-23038821D01*
X26551130Y-23010000D01*
X26698870Y-23010000D01*
X26843766Y-23038821D01*
G37*
G36*
X31923766Y-23038821D02*
G01*
X32060257Y-23095358D01*
X32183097Y-23177437D01*
X32287563Y-23281903D01*
X32369642Y-23404743D01*
X32426179Y-23541234D01*
X32455000Y-23686130D01*
X32455000Y-23833870D01*
X32426179Y-23978766D01*
X32369642Y-24115257D01*
X32287563Y-24238097D01*
X32183097Y-24342563D01*
X32060257Y-24424642D01*
X31923766Y-24481179D01*
X31778870Y-24510000D01*
X31631130Y-24510000D01*
X31486234Y-24481179D01*
X31349743Y-24424642D01*
X31226903Y-24342563D01*
X31122437Y-24238097D01*
X31040358Y-24115257D01*
X30983821Y-23978766D01*
X30955000Y-23833870D01*
X30955000Y-23686130D01*
X30983821Y-23541234D01*
X31040358Y-23404743D01*
X31122437Y-23281903D01*
X31226903Y-23177437D01*
X31349743Y-23095358D01*
X31486234Y-23038821D01*
X31631130Y-23010000D01*
X31778870Y-23010000D01*
X31923766Y-23038821D01*
G37*
G36*
X29383766Y-23038821D02*
G01*
X29520257Y-23095358D01*
X29643097Y-23177437D01*
X29747563Y-23281903D01*
X29829642Y-23404743D01*
X29886179Y-23541234D01*
X29915000Y-23686130D01*
X29915000Y-23833870D01*
X29886179Y-23978766D01*
X29829642Y-24115257D01*
X29747563Y-24238097D01*
X29643097Y-24342563D01*
X29520257Y-24424642D01*
X29383766Y-24481179D01*
X29238870Y-24510000D01*
X29091130Y-24510000D01*
X28946234Y-24481179D01*
X28809743Y-24424642D01*
X28686903Y-24342563D01*
X28582437Y-24238097D01*
X28500358Y-24115257D01*
X28443821Y-23978766D01*
X28415000Y-23833870D01*
X28415000Y-23686130D01*
X28443821Y-23541234D01*
X28500358Y-23404743D01*
X28582437Y-23281903D01*
X28686903Y-23177437D01*
X28809743Y-23095358D01*
X28946234Y-23038821D01*
X29091130Y-23010000D01*
X29238870Y-23010000D01*
X29383766Y-23038821D01*
G37*
G36*
X-474999Y-24380000D02*
G01*
X-1914999Y-24380000D01*
X-1914999Y-23640000D01*
X-474999Y-23640000D01*
X-474999Y-24380000D01*
G37*
G36*
X-5174999Y-24380000D02*
G01*
X-6614999Y-24380000D01*
X-6614999Y-23640000D01*
X-5174999Y-23640000D01*
X-5174999Y-24380000D01*
G37*
G36*
X4470000Y-24345000D02*
G01*
X3030000Y-24345000D01*
X3030000Y-23605000D01*
X4470000Y-23605000D01*
X4470000Y-24345000D01*
G37*
G36*
X19129591Y-22914085D02*
G01*
X19163569Y-22924393D01*
X19194890Y-22941134D01*
X19222339Y-22963661D01*
X19244866Y-22991110D01*
X19261607Y-23022431D01*
X19271915Y-23056409D01*
X19276000Y-23097890D01*
X19276000Y-23774110D01*
X19271915Y-23815591D01*
X19261607Y-23849569D01*
X19244866Y-23880890D01*
X19222339Y-23908339D01*
X19194890Y-23930866D01*
X19163569Y-23947607D01*
X19129591Y-23957915D01*
X19088110Y-23962000D01*
X18486890Y-23962000D01*
X18445409Y-23957915D01*
X18411431Y-23947607D01*
X18380110Y-23930866D01*
X18352661Y-23908339D01*
X18330134Y-23880890D01*
X18313393Y-23849569D01*
X18303085Y-23815591D01*
X18299000Y-23774110D01*
X18299000Y-23097890D01*
X18303085Y-23056409D01*
X18313393Y-23022431D01*
X18330134Y-22991110D01*
X18352661Y-22963661D01*
X18380110Y-22941134D01*
X18411431Y-22924393D01*
X18445409Y-22914085D01*
X18486890Y-22910000D01*
X19088110Y-22910000D01*
X19129591Y-22914085D01*
G37*
G36*
X17554591Y-22914085D02*
G01*
X17588569Y-22924393D01*
X17619890Y-22941134D01*
X17647339Y-22963661D01*
X17669866Y-22991110D01*
X17686607Y-23022431D01*
X17696915Y-23056409D01*
X17701000Y-23097890D01*
X17701000Y-23774110D01*
X17696915Y-23815591D01*
X17686607Y-23849569D01*
X17669866Y-23880890D01*
X17647339Y-23908339D01*
X17619890Y-23930866D01*
X17588569Y-23947607D01*
X17554591Y-23957915D01*
X17513110Y-23962000D01*
X16911890Y-23962000D01*
X16870409Y-23957915D01*
X16836431Y-23947607D01*
X16805110Y-23930866D01*
X16777661Y-23908339D01*
X16755134Y-23880890D01*
X16738393Y-23849569D01*
X16728085Y-23815591D01*
X16724000Y-23774110D01*
X16724000Y-23097890D01*
X16728085Y-23056409D01*
X16738393Y-23022431D01*
X16755134Y-22991110D01*
X16777661Y-22963661D01*
X16805110Y-22941134D01*
X16836431Y-22924393D01*
X16870409Y-22914085D01*
X16911890Y-22910000D01*
X17513110Y-22910000D01*
X17554591Y-22914085D01*
G37*
G36*
X12301000Y-23751000D02*
G01*
X10699000Y-23751000D01*
X10699000Y-22049000D01*
X12301000Y-22049000D01*
X12301000Y-23751000D01*
G37*
G36*
X10201000Y-23751000D02*
G01*
X8599000Y-23751000D01*
X8599000Y-22049000D01*
X10201000Y-22049000D01*
X10201000Y-23751000D01*
G37*
G36*
X14401000Y-23751000D02*
G01*
X12799000Y-23751000D01*
X12799000Y-22049000D01*
X14401000Y-22049000D01*
X14401000Y-23751000D01*
G37*
G36*
X1625001Y-23430000D02*
G01*
X185001Y-23430000D01*
X185001Y-22690000D01*
X1625001Y-22690000D01*
X1625001Y-23430000D01*
G37*
G36*
X-3074999Y-23430000D02*
G01*
X-4514999Y-23430000D01*
X-4514999Y-22690000D01*
X-3074999Y-22690000D01*
X-3074999Y-23430000D01*
G37*
G36*
X6570000Y-23395000D02*
G01*
X5130000Y-23395000D01*
X5130000Y-22655000D01*
X6570000Y-22655000D01*
X6570000Y-23395000D01*
G37*
G36*
X-474999Y-22480000D02*
G01*
X-1914999Y-22480000D01*
X-1914999Y-21740000D01*
X-474999Y-21740000D01*
X-474999Y-22480000D01*
G37*
G36*
X-5174999Y-22480000D02*
G01*
X-6614999Y-22480000D01*
X-6614999Y-21740000D01*
X-5174999Y-21740000D01*
X-5174999Y-22480000D01*
G37*
G36*
X4470000Y-22445000D02*
G01*
X3030000Y-22445000D01*
X3030000Y-21705000D01*
X4470000Y-21705000D01*
X4470000Y-22445000D01*
G37*
G36*
X19129591Y-21136085D02*
G01*
X19163569Y-21146393D01*
X19194890Y-21163134D01*
X19222339Y-21185661D01*
X19244866Y-21213110D01*
X19261607Y-21244431D01*
X19271915Y-21278409D01*
X19276000Y-21319890D01*
X19276000Y-21996110D01*
X19271915Y-22037591D01*
X19261607Y-22071569D01*
X19244866Y-22102890D01*
X19222339Y-22130339D01*
X19194890Y-22152866D01*
X19163569Y-22169607D01*
X19129591Y-22179915D01*
X19088110Y-22184000D01*
X18486890Y-22184000D01*
X18445409Y-22179915D01*
X18411431Y-22169607D01*
X18380110Y-22152866D01*
X18352661Y-22130339D01*
X18330134Y-22102890D01*
X18313393Y-22071569D01*
X18303085Y-22037591D01*
X18299000Y-21996110D01*
X18299000Y-21319890D01*
X18303085Y-21278409D01*
X18313393Y-21244431D01*
X18330134Y-21213110D01*
X18352661Y-21185661D01*
X18380110Y-21163134D01*
X18411431Y-21146393D01*
X18445409Y-21136085D01*
X18486890Y-21132000D01*
X19088110Y-21132000D01*
X19129591Y-21136085D01*
G37*
G36*
X17554591Y-21136085D02*
G01*
X17588569Y-21146393D01*
X17619890Y-21163134D01*
X17647339Y-21185661D01*
X17669866Y-21213110D01*
X17686607Y-21244431D01*
X17696915Y-21278409D01*
X17701000Y-21319890D01*
X17701000Y-21996110D01*
X17696915Y-22037591D01*
X17686607Y-22071569D01*
X17669866Y-22102890D01*
X17647339Y-22130339D01*
X17619890Y-22152866D01*
X17588569Y-22169607D01*
X17554591Y-22179915D01*
X17513110Y-22184000D01*
X16911890Y-22184000D01*
X16870409Y-22179915D01*
X16836431Y-22169607D01*
X16805110Y-22152866D01*
X16777661Y-22130339D01*
X16755134Y-22102890D01*
X16738393Y-22071569D01*
X16728085Y-22037591D01*
X16724000Y-21996110D01*
X16724000Y-21319890D01*
X16728085Y-21278409D01*
X16738393Y-21244431D01*
X16755134Y-21213110D01*
X16777661Y-21185661D01*
X16805110Y-21163134D01*
X16836431Y-21146393D01*
X16870409Y-21136085D01*
X16911890Y-21132000D01*
X17513110Y-21132000D01*
X17554591Y-21136085D01*
G37*
G36*
X12016000Y-20656000D02*
G01*
X11014000Y-20656000D01*
X11014000Y-18554000D01*
X12016000Y-18554000D01*
X12016000Y-20656000D01*
G37*
G36*
X8206000Y-20656000D02*
G01*
X7204000Y-20656000D01*
X7204000Y-18554000D01*
X8206000Y-18554000D01*
X8206000Y-20656000D01*
G37*
G36*
X9476000Y-20656000D02*
G01*
X8474000Y-20656000D01*
X8474000Y-18554000D01*
X9476000Y-18554000D01*
X9476000Y-20656000D01*
G37*
G36*
X10746000Y-20656000D02*
G01*
X9744000Y-20656000D01*
X9744000Y-18554000D01*
X10746000Y-18554000D01*
X10746000Y-20656000D01*
G37*
G36*
X6936000Y-20656000D02*
G01*
X5934000Y-20656000D01*
X5934000Y-18554000D01*
X6936000Y-18554000D01*
X6936000Y-20656000D01*
G37*
G36*
X4396000Y-20656000D02*
G01*
X3394000Y-20656000D01*
X3394000Y-18554000D01*
X4396000Y-18554000D01*
X4396000Y-20656000D01*
G37*
G36*
X586000Y-20656000D02*
G01*
X-416000Y-20656000D01*
X-416000Y-18554000D01*
X586000Y-18554000D01*
X586000Y-20656000D01*
G37*
G36*
X3126000Y-20656000D02*
G01*
X2124000Y-20656000D01*
X2124000Y-18554000D01*
X3126000Y-18554000D01*
X3126000Y-20656000D01*
G37*
G36*
X1856000Y-20656000D02*
G01*
X854000Y-20656000D01*
X854000Y-18554000D01*
X1856000Y-18554000D01*
X1856000Y-20656000D01*
G37*
G36*
X5666000Y-20656000D02*
G01*
X4664000Y-20656000D01*
X4664000Y-18554000D01*
X5666000Y-18554000D01*
X5666000Y-20656000D01*
G37*
G36*
X27129591Y-19653085D02*
G01*
X27163569Y-19663393D01*
X27194890Y-19680134D01*
X27222339Y-19702661D01*
X27244866Y-19730110D01*
X27261607Y-19761431D01*
X27271915Y-19795409D01*
X27276000Y-19836890D01*
X27276000Y-20438110D01*
X27271915Y-20479591D01*
X27261607Y-20513569D01*
X27244866Y-20544890D01*
X27222339Y-20572339D01*
X27194890Y-20594866D01*
X27163569Y-20611607D01*
X27129591Y-20621915D01*
X27088110Y-20626000D01*
X26411890Y-20626000D01*
X26370409Y-20621915D01*
X26336431Y-20611607D01*
X26305110Y-20594866D01*
X26277661Y-20572339D01*
X26255134Y-20544890D01*
X26238393Y-20513569D01*
X26228085Y-20479591D01*
X26224000Y-20438110D01*
X26224000Y-19836890D01*
X26228085Y-19795409D01*
X26238393Y-19761431D01*
X26255134Y-19730110D01*
X26277661Y-19702661D01*
X26305110Y-19680134D01*
X26336431Y-19663393D01*
X26370409Y-19653085D01*
X26411890Y-19649000D01*
X27088110Y-19649000D01*
X27129591Y-19653085D01*
G37*
G36*
X29479591Y-19653085D02*
G01*
X29513569Y-19663393D01*
X29544890Y-19680134D01*
X29572339Y-19702661D01*
X29594866Y-19730110D01*
X29611607Y-19761431D01*
X29621915Y-19795409D01*
X29626000Y-19836890D01*
X29626000Y-20438110D01*
X29621915Y-20479591D01*
X29611607Y-20513569D01*
X29594866Y-20544890D01*
X29572339Y-20572339D01*
X29544890Y-20594866D01*
X29513569Y-20611607D01*
X29479591Y-20621915D01*
X29438110Y-20626000D01*
X28761890Y-20626000D01*
X28720409Y-20621915D01*
X28686431Y-20611607D01*
X28655110Y-20594866D01*
X28627661Y-20572339D01*
X28605134Y-20544890D01*
X28588393Y-20513569D01*
X28578085Y-20479591D01*
X28574000Y-20438110D01*
X28574000Y-19836890D01*
X28578085Y-19795409D01*
X28588393Y-19761431D01*
X28605134Y-19730110D01*
X28627661Y-19702661D01*
X28655110Y-19680134D01*
X28686431Y-19663393D01*
X28720409Y-19653085D01*
X28761890Y-19649000D01*
X29438110Y-19649000D01*
X29479591Y-19653085D01*
G37*
G36*
X32279591Y-19653085D02*
G01*
X32313569Y-19663393D01*
X32344890Y-19680134D01*
X32372339Y-19702661D01*
X32394866Y-19730110D01*
X32411607Y-19761431D01*
X32421915Y-19795409D01*
X32426000Y-19836890D01*
X32426000Y-20438110D01*
X32421915Y-20479591D01*
X32411607Y-20513569D01*
X32394866Y-20544890D01*
X32372339Y-20572339D01*
X32344890Y-20594866D01*
X32313569Y-20611607D01*
X32279591Y-20621915D01*
X32238110Y-20626000D01*
X31561890Y-20626000D01*
X31520409Y-20621915D01*
X31486431Y-20611607D01*
X31455110Y-20594866D01*
X31427661Y-20572339D01*
X31405134Y-20544890D01*
X31388393Y-20513569D01*
X31378085Y-20479591D01*
X31374000Y-20438110D01*
X31374000Y-19836890D01*
X31378085Y-19795409D01*
X31388393Y-19761431D01*
X31405134Y-19730110D01*
X31427661Y-19702661D01*
X31455110Y-19680134D01*
X31486431Y-19663393D01*
X31520409Y-19653085D01*
X31561890Y-19649000D01*
X32238110Y-19649000D01*
X32279591Y-19653085D01*
G37*
G36*
X34579591Y-19653085D02*
G01*
X34613569Y-19663393D01*
X34644890Y-19680134D01*
X34672339Y-19702661D01*
X34694866Y-19730110D01*
X34711607Y-19761431D01*
X34721915Y-19795409D01*
X34726000Y-19836890D01*
X34726000Y-20438110D01*
X34721915Y-20479591D01*
X34711607Y-20513569D01*
X34694866Y-20544890D01*
X34672339Y-20572339D01*
X34644890Y-20594866D01*
X34613569Y-20611607D01*
X34579591Y-20621915D01*
X34538110Y-20626000D01*
X33861890Y-20626000D01*
X33820409Y-20621915D01*
X33786431Y-20611607D01*
X33755110Y-20594866D01*
X33727661Y-20572339D01*
X33705134Y-20544890D01*
X33688393Y-20513569D01*
X33678085Y-20479591D01*
X33674000Y-20438110D01*
X33674000Y-19836890D01*
X33678085Y-19795409D01*
X33688393Y-19761431D01*
X33705134Y-19730110D01*
X33727661Y-19702661D01*
X33755110Y-19680134D01*
X33786431Y-19663393D01*
X33820409Y-19653085D01*
X33861890Y-19649000D01*
X34538110Y-19649000D01*
X34579591Y-19653085D01*
G37*
G36*
X17554591Y-19358085D02*
G01*
X17588569Y-19368393D01*
X17619890Y-19385134D01*
X17647339Y-19407661D01*
X17669866Y-19435110D01*
X17686607Y-19466431D01*
X17696915Y-19500409D01*
X17701000Y-19541890D01*
X17701000Y-20218110D01*
X17696915Y-20259591D01*
X17686607Y-20293569D01*
X17669866Y-20324890D01*
X17647339Y-20352339D01*
X17619890Y-20374866D01*
X17588569Y-20391607D01*
X17554591Y-20401915D01*
X17513110Y-20406000D01*
X16911890Y-20406000D01*
X16870409Y-20401915D01*
X16836431Y-20391607D01*
X16805110Y-20374866D01*
X16777661Y-20352339D01*
X16755134Y-20324890D01*
X16738393Y-20293569D01*
X16728085Y-20259591D01*
X16724000Y-20218110D01*
X16724000Y-19541890D01*
X16728085Y-19500409D01*
X16738393Y-19466431D01*
X16755134Y-19435110D01*
X16777661Y-19407661D01*
X16805110Y-19385134D01*
X16836431Y-19368393D01*
X16870409Y-19358085D01*
X16911890Y-19354000D01*
X17513110Y-19354000D01*
X17554591Y-19358085D01*
G37*
G36*
X19129591Y-19358085D02*
G01*
X19163569Y-19368393D01*
X19194890Y-19385134D01*
X19222339Y-19407661D01*
X19244866Y-19435110D01*
X19261607Y-19466431D01*
X19271915Y-19500409D01*
X19276000Y-19541890D01*
X19276000Y-20218110D01*
X19271915Y-20259591D01*
X19261607Y-20293569D01*
X19244866Y-20324890D01*
X19222339Y-20352339D01*
X19194890Y-20374866D01*
X19163569Y-20391607D01*
X19129591Y-20401915D01*
X19088110Y-20406000D01*
X18486890Y-20406000D01*
X18445409Y-20401915D01*
X18411431Y-20391607D01*
X18380110Y-20374866D01*
X18352661Y-20352339D01*
X18330134Y-20324890D01*
X18313393Y-20293569D01*
X18303085Y-20259591D01*
X18299000Y-20218110D01*
X18299000Y-19541890D01*
X18303085Y-19500409D01*
X18313393Y-19466431D01*
X18330134Y-19435110D01*
X18352661Y-19407661D01*
X18380110Y-19385134D01*
X18411431Y-19368393D01*
X18445409Y-19358085D01*
X18486890Y-19354000D01*
X19088110Y-19354000D01*
X19129591Y-19358085D01*
G37*
G36*
X15351000Y-19106000D02*
G01*
X13249000Y-19106000D01*
X13249000Y-18104000D01*
X15351000Y-18104000D01*
X15351000Y-19106000D01*
G37*
G36*
X-1649000Y-19106000D02*
G01*
X-3751000Y-19106000D01*
X-3751000Y-18104000D01*
X-1649000Y-18104000D01*
X-1649000Y-19106000D01*
G37*
G36*
X34579591Y-18078085D02*
G01*
X34613569Y-18088393D01*
X34644890Y-18105134D01*
X34672339Y-18127661D01*
X34694866Y-18155110D01*
X34711607Y-18186431D01*
X34721915Y-18220409D01*
X34726000Y-18261890D01*
X34726000Y-18863110D01*
X34721915Y-18904591D01*
X34711607Y-18938569D01*
X34694866Y-18969890D01*
X34672339Y-18997339D01*
X34644890Y-19019866D01*
X34613569Y-19036607D01*
X34579591Y-19046915D01*
X34538110Y-19051000D01*
X33861890Y-19051000D01*
X33820409Y-19046915D01*
X33786431Y-19036607D01*
X33755110Y-19019866D01*
X33727661Y-18997339D01*
X33705134Y-18969890D01*
X33688393Y-18938569D01*
X33678085Y-18904591D01*
X33674000Y-18863110D01*
X33674000Y-18261890D01*
X33678085Y-18220409D01*
X33688393Y-18186431D01*
X33705134Y-18155110D01*
X33727661Y-18127661D01*
X33755110Y-18105134D01*
X33786431Y-18088393D01*
X33820409Y-18078085D01*
X33861890Y-18074000D01*
X34538110Y-18074000D01*
X34579591Y-18078085D01*
G37*
G36*
X27129591Y-18078085D02*
G01*
X27163569Y-18088393D01*
X27194890Y-18105134D01*
X27222339Y-18127661D01*
X27244866Y-18155110D01*
X27261607Y-18186431D01*
X27271915Y-18220409D01*
X27276000Y-18261890D01*
X27276000Y-18863110D01*
X27271915Y-18904591D01*
X27261607Y-18938569D01*
X27244866Y-18969890D01*
X27222339Y-18997339D01*
X27194890Y-19019866D01*
X27163569Y-19036607D01*
X27129591Y-19046915D01*
X27088110Y-19051000D01*
X26411890Y-19051000D01*
X26370409Y-19046915D01*
X26336431Y-19036607D01*
X26305110Y-19019866D01*
X26277661Y-18997339D01*
X26255134Y-18969890D01*
X26238393Y-18938569D01*
X26228085Y-18904591D01*
X26224000Y-18863110D01*
X26224000Y-18261890D01*
X26228085Y-18220409D01*
X26238393Y-18186431D01*
X26255134Y-18155110D01*
X26277661Y-18127661D01*
X26305110Y-18105134D01*
X26336431Y-18088393D01*
X26370409Y-18078085D01*
X26411890Y-18074000D01*
X27088110Y-18074000D01*
X27129591Y-18078085D01*
G37*
G36*
X29479591Y-18078085D02*
G01*
X29513569Y-18088393D01*
X29544890Y-18105134D01*
X29572339Y-18127661D01*
X29594866Y-18155110D01*
X29611607Y-18186431D01*
X29621915Y-18220409D01*
X29626000Y-18261890D01*
X29626000Y-18863110D01*
X29621915Y-18904591D01*
X29611607Y-18938569D01*
X29594866Y-18969890D01*
X29572339Y-18997339D01*
X29544890Y-19019866D01*
X29513569Y-19036607D01*
X29479591Y-19046915D01*
X29438110Y-19051000D01*
X28761890Y-19051000D01*
X28720409Y-19046915D01*
X28686431Y-19036607D01*
X28655110Y-19019866D01*
X28627661Y-18997339D01*
X28605134Y-18969890D01*
X28588393Y-18938569D01*
X28578085Y-18904591D01*
X28574000Y-18863110D01*
X28574000Y-18261890D01*
X28578085Y-18220409D01*
X28588393Y-18186431D01*
X28605134Y-18155110D01*
X28627661Y-18127661D01*
X28655110Y-18105134D01*
X28686431Y-18088393D01*
X28720409Y-18078085D01*
X28761890Y-18074000D01*
X29438110Y-18074000D01*
X29479591Y-18078085D01*
G37*
G36*
X32279591Y-18078085D02*
G01*
X32313569Y-18088393D01*
X32344890Y-18105134D01*
X32372339Y-18127661D01*
X32394866Y-18155110D01*
X32411607Y-18186431D01*
X32421915Y-18220409D01*
X32426000Y-18261890D01*
X32426000Y-18863110D01*
X32421915Y-18904591D01*
X32411607Y-18938569D01*
X32394866Y-18969890D01*
X32372339Y-18997339D01*
X32344890Y-19019866D01*
X32313569Y-19036607D01*
X32279591Y-19046915D01*
X32238110Y-19051000D01*
X31561890Y-19051000D01*
X31520409Y-19046915D01*
X31486431Y-19036607D01*
X31455110Y-19019866D01*
X31427661Y-18997339D01*
X31405134Y-18969890D01*
X31388393Y-18938569D01*
X31378085Y-18904591D01*
X31374000Y-18863110D01*
X31374000Y-18261890D01*
X31378085Y-18220409D01*
X31388393Y-18186431D01*
X31405134Y-18155110D01*
X31427661Y-18127661D01*
X31455110Y-18105134D01*
X31486431Y-18088393D01*
X31520409Y-18078085D01*
X31561890Y-18074000D01*
X32238110Y-18074000D01*
X32279591Y-18078085D01*
G37*
G36*
X15351000Y-17836000D02*
G01*
X13249000Y-17836000D01*
X13249000Y-16834000D01*
X15351000Y-16834000D01*
X15351000Y-17836000D01*
G37*
G36*
X-1649000Y-17836000D02*
G01*
X-3751000Y-17836000D01*
X-3751000Y-16834000D01*
X-1649000Y-16834000D01*
X-1649000Y-17836000D01*
G37*
G36*
X-4845409Y-16603085D02*
G01*
X-4811431Y-16613393D01*
X-4780110Y-16630134D01*
X-4752661Y-16652661D01*
X-4730134Y-16680110D01*
X-4713393Y-16711431D01*
X-4703085Y-16745409D01*
X-4699000Y-16786890D01*
X-4699000Y-17463110D01*
X-4703085Y-17504591D01*
X-4713393Y-17538569D01*
X-4730134Y-17569890D01*
X-4752661Y-17597339D01*
X-4780110Y-17619866D01*
X-4811431Y-17636607D01*
X-4845409Y-17646915D01*
X-4886890Y-17651000D01*
X-5488110Y-17651000D01*
X-5529591Y-17646915D01*
X-5563569Y-17636607D01*
X-5594890Y-17619866D01*
X-5622339Y-17597339D01*
X-5644866Y-17569890D01*
X-5661607Y-17538569D01*
X-5671915Y-17504591D01*
X-5676000Y-17463110D01*
X-5676000Y-16786890D01*
X-5671915Y-16745409D01*
X-5661607Y-16711431D01*
X-5644866Y-16680110D01*
X-5622339Y-16652661D01*
X-5594890Y-16630134D01*
X-5563569Y-16613393D01*
X-5529591Y-16603085D01*
X-5488110Y-16599000D01*
X-4886890Y-16599000D01*
X-4845409Y-16603085D01*
G37*
G36*
X-6420409Y-16603085D02*
G01*
X-6386431Y-16613393D01*
X-6355110Y-16630134D01*
X-6327661Y-16652661D01*
X-6305134Y-16680110D01*
X-6288393Y-16711431D01*
X-6278085Y-16745409D01*
X-6274000Y-16786890D01*
X-6274000Y-17463110D01*
X-6278085Y-17504591D01*
X-6288393Y-17538569D01*
X-6305134Y-17569890D01*
X-6327661Y-17597339D01*
X-6355110Y-17619866D01*
X-6386431Y-17636607D01*
X-6420409Y-17646915D01*
X-6461890Y-17651000D01*
X-7063110Y-17651000D01*
X-7104591Y-17646915D01*
X-7138569Y-17636607D01*
X-7169890Y-17619866D01*
X-7197339Y-17597339D01*
X-7219866Y-17569890D01*
X-7236607Y-17538569D01*
X-7246915Y-17504591D01*
X-7251000Y-17463110D01*
X-7251000Y-16786890D01*
X-7246915Y-16745409D01*
X-7236607Y-16711431D01*
X-7219866Y-16680110D01*
X-7197339Y-16652661D01*
X-7169890Y-16630134D01*
X-7138569Y-16613393D01*
X-7104591Y-16603085D01*
X-7063110Y-16599000D01*
X-6461890Y-16599000D01*
X-6420409Y-16603085D01*
G37*
G36*
X18979591Y-16078085D02*
G01*
X19013569Y-16088393D01*
X19044890Y-16105134D01*
X19072339Y-16127661D01*
X19094866Y-16155110D01*
X19111607Y-16186431D01*
X19121915Y-16220409D01*
X19126000Y-16261890D01*
X19126000Y-16938110D01*
X19121915Y-16979591D01*
X19111607Y-17013569D01*
X19094866Y-17044890D01*
X19072339Y-17072339D01*
X19044890Y-17094866D01*
X19013569Y-17111607D01*
X18979591Y-17121915D01*
X18938110Y-17126000D01*
X18336890Y-17126000D01*
X18295409Y-17121915D01*
X18261431Y-17111607D01*
X18230110Y-17094866D01*
X18202661Y-17072339D01*
X18180134Y-17044890D01*
X18163393Y-17013569D01*
X18153085Y-16979591D01*
X18149000Y-16938110D01*
X18149000Y-16261890D01*
X18153085Y-16220409D01*
X18163393Y-16186431D01*
X18180134Y-16155110D01*
X18202661Y-16127661D01*
X18230110Y-16105134D01*
X18261431Y-16088393D01*
X18295409Y-16078085D01*
X18336890Y-16074000D01*
X18938110Y-16074000D01*
X18979591Y-16078085D01*
G37*
G36*
X17404591Y-16078085D02*
G01*
X17438569Y-16088393D01*
X17469890Y-16105134D01*
X17497339Y-16127661D01*
X17519866Y-16155110D01*
X17536607Y-16186431D01*
X17546915Y-16220409D01*
X17551000Y-16261890D01*
X17551000Y-16938110D01*
X17546915Y-16979591D01*
X17536607Y-17013569D01*
X17519866Y-17044890D01*
X17497339Y-17072339D01*
X17469890Y-17094866D01*
X17438569Y-17111607D01*
X17404591Y-17121915D01*
X17363110Y-17126000D01*
X16761890Y-17126000D01*
X16720409Y-17121915D01*
X16686431Y-17111607D01*
X16655110Y-17094866D01*
X16627661Y-17072339D01*
X16605134Y-17044890D01*
X16588393Y-17013569D01*
X16578085Y-16979591D01*
X16574000Y-16938110D01*
X16574000Y-16261890D01*
X16578085Y-16220409D01*
X16588393Y-16186431D01*
X16605134Y-16155110D01*
X16627661Y-16127661D01*
X16655110Y-16105134D01*
X16686431Y-16088393D01*
X16720409Y-16078085D01*
X16761890Y-16074000D01*
X17363110Y-16074000D01*
X17404591Y-16078085D01*
G37*
G36*
X37067091Y-15978085D02*
G01*
X37101069Y-15988393D01*
X37132390Y-16005134D01*
X37159839Y-16027661D01*
X37182366Y-16055110D01*
X37199107Y-16086431D01*
X37209415Y-16120409D01*
X37213500Y-16161890D01*
X37213500Y-16838110D01*
X37209415Y-16879591D01*
X37199107Y-16913569D01*
X37182366Y-16944890D01*
X37159839Y-16972339D01*
X37132390Y-16994866D01*
X37101069Y-17011607D01*
X37067091Y-17021915D01*
X37025610Y-17026000D01*
X36424390Y-17026000D01*
X36382909Y-17021915D01*
X36348931Y-17011607D01*
X36317610Y-16994866D01*
X36290161Y-16972339D01*
X36267634Y-16944890D01*
X36250893Y-16913569D01*
X36240585Y-16879591D01*
X36236500Y-16838110D01*
X36236500Y-16161890D01*
X36240585Y-16120409D01*
X36250893Y-16086431D01*
X36267634Y-16055110D01*
X36290161Y-16027661D01*
X36317610Y-16005134D01*
X36348931Y-15988393D01*
X36382909Y-15978085D01*
X36424390Y-15974000D01*
X37025610Y-15974000D01*
X37067091Y-15978085D01*
G37*
G36*
X35492091Y-15978085D02*
G01*
X35526069Y-15988393D01*
X35557390Y-16005134D01*
X35584839Y-16027661D01*
X35607366Y-16055110D01*
X35624107Y-16086431D01*
X35634415Y-16120409D01*
X35638500Y-16161890D01*
X35638500Y-16838110D01*
X35634415Y-16879591D01*
X35624107Y-16913569D01*
X35607366Y-16944890D01*
X35584839Y-16972339D01*
X35557390Y-16994866D01*
X35526069Y-17011607D01*
X35492091Y-17021915D01*
X35450610Y-17026000D01*
X34849390Y-17026000D01*
X34807909Y-17021915D01*
X34773931Y-17011607D01*
X34742610Y-16994866D01*
X34715161Y-16972339D01*
X34692634Y-16944890D01*
X34675893Y-16913569D01*
X34665585Y-16879591D01*
X34661500Y-16838110D01*
X34661500Y-16161890D01*
X34665585Y-16120409D01*
X34675893Y-16086431D01*
X34692634Y-16055110D01*
X34715161Y-16027661D01*
X34742610Y-16005134D01*
X34773931Y-15988393D01*
X34807909Y-15978085D01*
X34849390Y-15974000D01*
X35450610Y-15974000D01*
X35492091Y-15978085D01*
G37*
G36*
X15351000Y-16566000D02*
G01*
X13249000Y-16566000D01*
X13249000Y-15564000D01*
X15351000Y-15564000D01*
X15351000Y-16566000D01*
G37*
G36*
X-1649000Y-16566000D02*
G01*
X-3751000Y-16566000D01*
X-3751000Y-15564000D01*
X-1649000Y-15564000D01*
X-1649000Y-16566000D01*
G37*
G36*
X-6420409Y-15003085D02*
G01*
X-6386431Y-15013393D01*
X-6355110Y-15030134D01*
X-6327661Y-15052661D01*
X-6305134Y-15080110D01*
X-6288393Y-15111431D01*
X-6278085Y-15145409D01*
X-6274000Y-15186890D01*
X-6274000Y-15863110D01*
X-6278085Y-15904591D01*
X-6288393Y-15938569D01*
X-6305134Y-15969890D01*
X-6327661Y-15997339D01*
X-6355110Y-16019866D01*
X-6386431Y-16036607D01*
X-6420409Y-16046915D01*
X-6461890Y-16051000D01*
X-7063110Y-16051000D01*
X-7104591Y-16046915D01*
X-7138569Y-16036607D01*
X-7169890Y-16019866D01*
X-7197339Y-15997339D01*
X-7219866Y-15969890D01*
X-7236607Y-15938569D01*
X-7246915Y-15904591D01*
X-7251000Y-15863110D01*
X-7251000Y-15186890D01*
X-7246915Y-15145409D01*
X-7236607Y-15111431D01*
X-7219866Y-15080110D01*
X-7197339Y-15052661D01*
X-7169890Y-15030134D01*
X-7138569Y-15013393D01*
X-7104591Y-15003085D01*
X-7063110Y-14999000D01*
X-6461890Y-14999000D01*
X-6420409Y-15003085D01*
G37*
G36*
X-4845409Y-15003085D02*
G01*
X-4811431Y-15013393D01*
X-4780110Y-15030134D01*
X-4752661Y-15052661D01*
X-4730134Y-15080110D01*
X-4713393Y-15111431D01*
X-4703085Y-15145409D01*
X-4699000Y-15186890D01*
X-4699000Y-15863110D01*
X-4703085Y-15904591D01*
X-4713393Y-15938569D01*
X-4730134Y-15969890D01*
X-4752661Y-15997339D01*
X-4780110Y-16019866D01*
X-4811431Y-16036607D01*
X-4845409Y-16046915D01*
X-4886890Y-16051000D01*
X-5488110Y-16051000D01*
X-5529591Y-16046915D01*
X-5563569Y-16036607D01*
X-5594890Y-16019866D01*
X-5622339Y-15997339D01*
X-5644866Y-15969890D01*
X-5661607Y-15938569D01*
X-5671915Y-15904591D01*
X-5676000Y-15863110D01*
X-5676000Y-15186890D01*
X-5671915Y-15145409D01*
X-5661607Y-15111431D01*
X-5644866Y-15080110D01*
X-5622339Y-15052661D01*
X-5594890Y-15030134D01*
X-5563569Y-15013393D01*
X-5529591Y-15003085D01*
X-5488110Y-14999000D01*
X-4886890Y-14999000D01*
X-4845409Y-15003085D01*
G37*
G36*
X26217091Y-14478085D02*
G01*
X26251069Y-14488393D01*
X26282390Y-14505134D01*
X26309839Y-14527661D01*
X26332366Y-14555110D01*
X26349107Y-14586431D01*
X26359415Y-14620409D01*
X26363500Y-14661890D01*
X26363500Y-15338110D01*
X26359415Y-15379591D01*
X26349107Y-15413569D01*
X26332366Y-15444890D01*
X26309839Y-15472339D01*
X26282390Y-15494866D01*
X26251069Y-15511607D01*
X26217091Y-15521915D01*
X26175610Y-15526000D01*
X25574390Y-15526000D01*
X25532909Y-15521915D01*
X25498931Y-15511607D01*
X25467610Y-15494866D01*
X25440161Y-15472339D01*
X25417634Y-15444890D01*
X25400893Y-15413569D01*
X25390585Y-15379591D01*
X25386500Y-15338110D01*
X25386500Y-14661890D01*
X25390585Y-14620409D01*
X25400893Y-14586431D01*
X25417634Y-14555110D01*
X25440161Y-14527661D01*
X25467610Y-14505134D01*
X25498931Y-14488393D01*
X25532909Y-14478085D01*
X25574390Y-14474000D01*
X26175610Y-14474000D01*
X26217091Y-14478085D01*
G37*
G36*
X24642091Y-14478085D02*
G01*
X24676069Y-14488393D01*
X24707390Y-14505134D01*
X24734839Y-14527661D01*
X24757366Y-14555110D01*
X24774107Y-14586431D01*
X24784415Y-14620409D01*
X24788500Y-14661890D01*
X24788500Y-15338110D01*
X24784415Y-15379591D01*
X24774107Y-15413569D01*
X24757366Y-15444890D01*
X24734839Y-15472339D01*
X24707390Y-15494866D01*
X24676069Y-15511607D01*
X24642091Y-15521915D01*
X24600610Y-15526000D01*
X23999390Y-15526000D01*
X23957909Y-15521915D01*
X23923931Y-15511607D01*
X23892610Y-15494866D01*
X23865161Y-15472339D01*
X23842634Y-15444890D01*
X23825893Y-15413569D01*
X23815585Y-15379591D01*
X23811500Y-15338110D01*
X23811500Y-14661890D01*
X23815585Y-14620409D01*
X23825893Y-14586431D01*
X23842634Y-14555110D01*
X23865161Y-14527661D01*
X23892610Y-14505134D01*
X23923931Y-14488393D01*
X23957909Y-14478085D01*
X23999390Y-14474000D01*
X24600610Y-14474000D01*
X24642091Y-14478085D01*
G37*
G36*
X35492091Y-14328085D02*
G01*
X35526069Y-14338393D01*
X35557390Y-14355134D01*
X35584839Y-14377661D01*
X35607366Y-14405110D01*
X35624107Y-14436431D01*
X35634415Y-14470409D01*
X35638500Y-14511890D01*
X35638500Y-15188110D01*
X35634415Y-15229591D01*
X35624107Y-15263569D01*
X35607366Y-15294890D01*
X35584839Y-15322339D01*
X35557390Y-15344866D01*
X35526069Y-15361607D01*
X35492091Y-15371915D01*
X35450610Y-15376000D01*
X34849390Y-15376000D01*
X34807909Y-15371915D01*
X34773931Y-15361607D01*
X34742610Y-15344866D01*
X34715161Y-15322339D01*
X34692634Y-15294890D01*
X34675893Y-15263569D01*
X34665585Y-15229591D01*
X34661500Y-15188110D01*
X34661500Y-14511890D01*
X34665585Y-14470409D01*
X34675893Y-14436431D01*
X34692634Y-14405110D01*
X34715161Y-14377661D01*
X34742610Y-14355134D01*
X34773931Y-14338393D01*
X34807909Y-14328085D01*
X34849390Y-14324000D01*
X35450610Y-14324000D01*
X35492091Y-14328085D01*
G37*
G36*
X37067091Y-14328085D02*
G01*
X37101069Y-14338393D01*
X37132390Y-14355134D01*
X37159839Y-14377661D01*
X37182366Y-14405110D01*
X37199107Y-14436431D01*
X37209415Y-14470409D01*
X37213500Y-14511890D01*
X37213500Y-15188110D01*
X37209415Y-15229591D01*
X37199107Y-15263569D01*
X37182366Y-15294890D01*
X37159839Y-15322339D01*
X37132390Y-15344866D01*
X37101069Y-15361607D01*
X37067091Y-15371915D01*
X37025610Y-15376000D01*
X36424390Y-15376000D01*
X36382909Y-15371915D01*
X36348931Y-15361607D01*
X36317610Y-15344866D01*
X36290161Y-15322339D01*
X36267634Y-15294890D01*
X36250893Y-15263569D01*
X36240585Y-15229591D01*
X36236500Y-15188110D01*
X36236500Y-14511890D01*
X36240585Y-14470409D01*
X36250893Y-14436431D01*
X36267634Y-14405110D01*
X36290161Y-14377661D01*
X36317610Y-14355134D01*
X36348931Y-14338393D01*
X36382909Y-14328085D01*
X36424390Y-14324000D01*
X37025610Y-14324000D01*
X37067091Y-14328085D01*
G37*
G36*
X-1649000Y-15296000D02*
G01*
X-3751000Y-15296000D01*
X-3751000Y-14294000D01*
X-1649000Y-14294000D01*
X-1649000Y-15296000D01*
G37*
G36*
X15351000Y-15296000D02*
G01*
X13249000Y-15296000D01*
X13249000Y-14294000D01*
X15351000Y-14294000D01*
X15351000Y-15296000D01*
G37*
G36*
X29355355Y-10050083D02*
G01*
X29360029Y-10051501D01*
X29364330Y-10053800D01*
X29370702Y-10059029D01*
X29391076Y-10072643D01*
X29413715Y-10082020D01*
X29437749Y-10086800D01*
X29462253Y-10086800D01*
X29486286Y-10082019D01*
X29508925Y-10072642D01*
X29529298Y-10059029D01*
X29535670Y-10053800D01*
X29539971Y-10051501D01*
X29544645Y-10050083D01*
X29555641Y-10049000D01*
X29844359Y-10049000D01*
X29855355Y-10050083D01*
X29860029Y-10051501D01*
X29864330Y-10053800D01*
X29870702Y-10059029D01*
X29891076Y-10072643D01*
X29913715Y-10082020D01*
X29937749Y-10086800D01*
X29962253Y-10086800D01*
X29986286Y-10082019D01*
X30008925Y-10072642D01*
X30029298Y-10059029D01*
X30035670Y-10053800D01*
X30039971Y-10051501D01*
X30044645Y-10050083D01*
X30055641Y-10049000D01*
X30344359Y-10049000D01*
X30355355Y-10050083D01*
X30360029Y-10051501D01*
X30364330Y-10053800D01*
X30370702Y-10059029D01*
X30391076Y-10072643D01*
X30413715Y-10082020D01*
X30437749Y-10086800D01*
X30462253Y-10086800D01*
X30486286Y-10082019D01*
X30508925Y-10072642D01*
X30529298Y-10059029D01*
X30535670Y-10053800D01*
X30539971Y-10051501D01*
X30544645Y-10050083D01*
X30555641Y-10049000D01*
X30844359Y-10049000D01*
X30855355Y-10050083D01*
X30860029Y-10051501D01*
X30864330Y-10053800D01*
X30870702Y-10059029D01*
X30891076Y-10072643D01*
X30913715Y-10082020D01*
X30937749Y-10086800D01*
X30962253Y-10086800D01*
X30986286Y-10082019D01*
X31008925Y-10072642D01*
X31029298Y-10059029D01*
X31035670Y-10053800D01*
X31039971Y-10051501D01*
X31044645Y-10050083D01*
X31055641Y-10049000D01*
X31344359Y-10049000D01*
X31355355Y-10050083D01*
X31360029Y-10051501D01*
X31364330Y-10053800D01*
X31370702Y-10059029D01*
X31391076Y-10072643D01*
X31413715Y-10082020D01*
X31437749Y-10086800D01*
X31462253Y-10086800D01*
X31486286Y-10082019D01*
X31508925Y-10072642D01*
X31529298Y-10059029D01*
X31535670Y-10053800D01*
X31539971Y-10051501D01*
X31544645Y-10050083D01*
X31555641Y-10049000D01*
X31844359Y-10049000D01*
X31855355Y-10050083D01*
X31860029Y-10051501D01*
X31864331Y-10053800D01*
X31868104Y-10056896D01*
X31871200Y-10060669D01*
X31873499Y-10064971D01*
X31874917Y-10069645D01*
X31876000Y-10080641D01*
X31876000Y-10899001D01*
X31878402Y-10923387D01*
X31885515Y-10946836D01*
X31897066Y-10968447D01*
X31912611Y-10987389D01*
X31931553Y-11002934D01*
X31953164Y-11014485D01*
X31976613Y-11021598D01*
X32000999Y-11024000D01*
X32819359Y-11024000D01*
X32830355Y-11025083D01*
X32835029Y-11026501D01*
X32839331Y-11028800D01*
X32843104Y-11031896D01*
X32846200Y-11035669D01*
X32848499Y-11039971D01*
X32849917Y-11044645D01*
X32851000Y-11055641D01*
X32851000Y-11344359D01*
X32849917Y-11355355D01*
X32848499Y-11360029D01*
X32846200Y-11364330D01*
X32840971Y-11370702D01*
X32827357Y-11391076D01*
X32817980Y-11413715D01*
X32813200Y-11437749D01*
X32813200Y-11462253D01*
X32817981Y-11486286D01*
X32827358Y-11508925D01*
X32840971Y-11529298D01*
X32846200Y-11535670D01*
X32848499Y-11539971D01*
X32849917Y-11544645D01*
X32851000Y-11555641D01*
X32851000Y-11844359D01*
X32849917Y-11855355D01*
X32848499Y-11860029D01*
X32846200Y-11864330D01*
X32840971Y-11870702D01*
X32827357Y-11891076D01*
X32817980Y-11913715D01*
X32813200Y-11937749D01*
X32813200Y-11962253D01*
X32817981Y-11986286D01*
X32827358Y-12008925D01*
X32840971Y-12029298D01*
X32846200Y-12035670D01*
X32848499Y-12039971D01*
X32849917Y-12044645D01*
X32851000Y-12055641D01*
X32851000Y-12344359D01*
X32849917Y-12355355D01*
X32848499Y-12360029D01*
X32846200Y-12364330D01*
X32840971Y-12370702D01*
X32827357Y-12391076D01*
X32817980Y-12413715D01*
X32813200Y-12437749D01*
X32813200Y-12462253D01*
X32817981Y-12486286D01*
X32827358Y-12508925D01*
X32840971Y-12529298D01*
X32846200Y-12535670D01*
X32848499Y-12539971D01*
X32849917Y-12544645D01*
X32851000Y-12555641D01*
X32851000Y-12844359D01*
X32849917Y-12855355D01*
X32848499Y-12860029D01*
X32846200Y-12864330D01*
X32840971Y-12870702D01*
X32827357Y-12891076D01*
X32817980Y-12913715D01*
X32813200Y-12937749D01*
X32813200Y-12962253D01*
X32817981Y-12986286D01*
X32827358Y-13008925D01*
X32840971Y-13029298D01*
X32846200Y-13035670D01*
X32848499Y-13039971D01*
X32849917Y-13044645D01*
X32851000Y-13055641D01*
X32851000Y-13344359D01*
X32849917Y-13355355D01*
X32848499Y-13360029D01*
X32846200Y-13364330D01*
X32840971Y-13370702D01*
X32827357Y-13391076D01*
X32817980Y-13413715D01*
X32813200Y-13437749D01*
X32813200Y-13462253D01*
X32817981Y-13486286D01*
X32827358Y-13508925D01*
X32840971Y-13529298D01*
X32846200Y-13535670D01*
X32848499Y-13539971D01*
X32849917Y-13544645D01*
X32851000Y-13555641D01*
X32851000Y-13844359D01*
X32849917Y-13855355D01*
X32848499Y-13860029D01*
X32846200Y-13864331D01*
X32843104Y-13868104D01*
X32839331Y-13871200D01*
X32835029Y-13873499D01*
X32830355Y-13874917D01*
X32819359Y-13876000D01*
X32000999Y-13876000D01*
X31976613Y-13878402D01*
X31953164Y-13885515D01*
X31931553Y-13897066D01*
X31912611Y-13912611D01*
X31897066Y-13931553D01*
X31885515Y-13953164D01*
X31878402Y-13976613D01*
X31876000Y-14000999D01*
X31876000Y-14819359D01*
X31874917Y-14830355D01*
X31873499Y-14835029D01*
X31871200Y-14839331D01*
X31868104Y-14843104D01*
X31864331Y-14846200D01*
X31860029Y-14848499D01*
X31855355Y-14849917D01*
X31844359Y-14851000D01*
X31555641Y-14851000D01*
X31544645Y-14849917D01*
X31539971Y-14848499D01*
X31535670Y-14846200D01*
X31529298Y-14840971D01*
X31508924Y-14827357D01*
X31486285Y-14817980D01*
X31462251Y-14813200D01*
X31437747Y-14813200D01*
X31413714Y-14817981D01*
X31391075Y-14827358D01*
X31370702Y-14840971D01*
X31364330Y-14846200D01*
X31360029Y-14848499D01*
X31355355Y-14849917D01*
X31344359Y-14851000D01*
X31055641Y-14851000D01*
X31044645Y-14849917D01*
X31039971Y-14848499D01*
X31035670Y-14846200D01*
X31029298Y-14840971D01*
X31008924Y-14827357D01*
X30986285Y-14817980D01*
X30962251Y-14813200D01*
X30937747Y-14813200D01*
X30913714Y-14817981D01*
X30891075Y-14827358D01*
X30870702Y-14840971D01*
X30864330Y-14846200D01*
X30860029Y-14848499D01*
X30855355Y-14849917D01*
X30844359Y-14851000D01*
X30555641Y-14851000D01*
X30544645Y-14849917D01*
X30539971Y-14848499D01*
X30535670Y-14846200D01*
X30529298Y-14840971D01*
X30508924Y-14827357D01*
X30486285Y-14817980D01*
X30462251Y-14813200D01*
X30437747Y-14813200D01*
X30413714Y-14817981D01*
X30391075Y-14827358D01*
X30370702Y-14840971D01*
X30364330Y-14846200D01*
X30360029Y-14848499D01*
X30355355Y-14849917D01*
X30344359Y-14851000D01*
X30055641Y-14851000D01*
X30044645Y-14849917D01*
X30039971Y-14848499D01*
X30035670Y-14846200D01*
X30029298Y-14840971D01*
X30008924Y-14827357D01*
X29986285Y-14817980D01*
X29962251Y-14813200D01*
X29937747Y-14813200D01*
X29913714Y-14817981D01*
X29891075Y-14827358D01*
X29870702Y-14840971D01*
X29864330Y-14846200D01*
X29860029Y-14848499D01*
X29855355Y-14849917D01*
X29844359Y-14851000D01*
X29555641Y-14851000D01*
X29544645Y-14849917D01*
X29539971Y-14848499D01*
X29535670Y-14846200D01*
X29529298Y-14840971D01*
X29508924Y-14827357D01*
X29486285Y-14817980D01*
X29462251Y-14813200D01*
X29437747Y-14813200D01*
X29413714Y-14817981D01*
X29391075Y-14827358D01*
X29370702Y-14840971D01*
X29364330Y-14846200D01*
X29360029Y-14848499D01*
X29355355Y-14849917D01*
X29344359Y-14851000D01*
X29055641Y-14851000D01*
X29044645Y-14849917D01*
X29039971Y-14848499D01*
X29035669Y-14846200D01*
X29031896Y-14843104D01*
X29028800Y-14839331D01*
X29026501Y-14835029D01*
X29025083Y-14830355D01*
X29024000Y-14819359D01*
X29024000Y-14000999D01*
X29021598Y-13976613D01*
X29014485Y-13953164D01*
X29002934Y-13931553D01*
X28987389Y-13912611D01*
X28968447Y-13897066D01*
X28946836Y-13885515D01*
X28923387Y-13878402D01*
X28899001Y-13876000D01*
X28080641Y-13876000D01*
X28069645Y-13874917D01*
X28064971Y-13873499D01*
X28060669Y-13871200D01*
X28056896Y-13868104D01*
X28053800Y-13864331D01*
X28051501Y-13860029D01*
X28050083Y-13855355D01*
X28049000Y-13844359D01*
X28049000Y-13555641D01*
X28050083Y-13544645D01*
X28051501Y-13539971D01*
X28053800Y-13535670D01*
X28059029Y-13529298D01*
X28072643Y-13508924D01*
X28082020Y-13486285D01*
X28086800Y-13462251D01*
X28086800Y-13437747D01*
X28082019Y-13413714D01*
X28072642Y-13391075D01*
X28059029Y-13370702D01*
X28053800Y-13364330D01*
X28051501Y-13360029D01*
X28050083Y-13355355D01*
X28049000Y-13344359D01*
X28049000Y-13055641D01*
X28050083Y-13044645D01*
X28051501Y-13039971D01*
X28053800Y-13035670D01*
X28059029Y-13029298D01*
X28072643Y-13008924D01*
X28082020Y-12986285D01*
X28086800Y-12962251D01*
X28086800Y-12937747D01*
X28082019Y-12913714D01*
X28072642Y-12891075D01*
X28059029Y-12870702D01*
X28053800Y-12864330D01*
X28051501Y-12860029D01*
X28050083Y-12855355D01*
X28049000Y-12844359D01*
X28049000Y-12555641D01*
X28050083Y-12544645D01*
X28051501Y-12539971D01*
X28053800Y-12535670D01*
X28059029Y-12529298D01*
X28072643Y-12508924D01*
X28082020Y-12486285D01*
X28086800Y-12462251D01*
X28086800Y-12437747D01*
X28082019Y-12413714D01*
X28072642Y-12391075D01*
X28059029Y-12370702D01*
X28053800Y-12364330D01*
X28051501Y-12360029D01*
X28050083Y-12355355D01*
X28049000Y-12344359D01*
X28049000Y-12055641D01*
X28050083Y-12044645D01*
X28051501Y-12039971D01*
X28053800Y-12035670D01*
X28059029Y-12029298D01*
X28072643Y-12008924D01*
X28082020Y-11986285D01*
X28086800Y-11962251D01*
X28086800Y-11937747D01*
X28082019Y-11913714D01*
X28072642Y-11891075D01*
X28059029Y-11870702D01*
X28053800Y-11864330D01*
X28051501Y-11860029D01*
X28050083Y-11855355D01*
X28049000Y-11844359D01*
X28049000Y-11555641D01*
X28050083Y-11544645D01*
X28051501Y-11539971D01*
X28053800Y-11535670D01*
X28059029Y-11529298D01*
X28072643Y-11508924D01*
X28082020Y-11486285D01*
X28086800Y-11462251D01*
X28086800Y-11437747D01*
X28082019Y-11413714D01*
X28072642Y-11391075D01*
X28059029Y-11370702D01*
X28053800Y-11364330D01*
X28051501Y-11360029D01*
X28050083Y-11355355D01*
X28049000Y-11344359D01*
X28049000Y-11055641D01*
X28050083Y-11044645D01*
X28051501Y-11039971D01*
X28053800Y-11035669D01*
X28056896Y-11031896D01*
X28060669Y-11028800D01*
X28064971Y-11026501D01*
X28069645Y-11025083D01*
X28080641Y-11024000D01*
X28899001Y-11024000D01*
X28923387Y-11021598D01*
X28946836Y-11014485D01*
X28968447Y-11002934D01*
X28987389Y-10987389D01*
X29002934Y-10968447D01*
X29014485Y-10946836D01*
X29021598Y-10923387D01*
X29024000Y-10899001D01*
X29024000Y-10080641D01*
X29025083Y-10069645D01*
X29026501Y-10064971D01*
X29028800Y-10060669D01*
X29031896Y-10056896D01*
X29035669Y-10053800D01*
X29039971Y-10051501D01*
X29044645Y-10050083D01*
X29055641Y-10049000D01*
X29344359Y-10049000D01*
X29355355Y-10050083D01*
G37*
G36*
X17829591Y-13853085D02*
G01*
X17863569Y-13863393D01*
X17894890Y-13880134D01*
X17922339Y-13902661D01*
X17944866Y-13930110D01*
X17961607Y-13961431D01*
X17971915Y-13995409D01*
X17976000Y-14036890D01*
X17976000Y-14638110D01*
X17971915Y-14679591D01*
X17961607Y-14713569D01*
X17944866Y-14744890D01*
X17922339Y-14772339D01*
X17894890Y-14794866D01*
X17863569Y-14811607D01*
X17829591Y-14821915D01*
X17788110Y-14826000D01*
X17111890Y-14826000D01*
X17070409Y-14821915D01*
X17036431Y-14811607D01*
X17005110Y-14794866D01*
X16977661Y-14772339D01*
X16955134Y-14744890D01*
X16938393Y-14713569D01*
X16928085Y-14679591D01*
X16924000Y-14638110D01*
X16924000Y-14036890D01*
X16928085Y-13995409D01*
X16938393Y-13961431D01*
X16955134Y-13930110D01*
X16977661Y-13902661D01*
X17005110Y-13880134D01*
X17036431Y-13863393D01*
X17070409Y-13853085D01*
X17111890Y-13849000D01*
X17788110Y-13849000D01*
X17829591Y-13853085D01*
G37*
G36*
X-4845409Y-13378085D02*
G01*
X-4811431Y-13388393D01*
X-4780110Y-13405134D01*
X-4752661Y-13427661D01*
X-4730134Y-13455110D01*
X-4713393Y-13486431D01*
X-4703085Y-13520409D01*
X-4699000Y-13561890D01*
X-4699000Y-14238110D01*
X-4703085Y-14279591D01*
X-4713393Y-14313569D01*
X-4730134Y-14344890D01*
X-4752661Y-14372339D01*
X-4780110Y-14394866D01*
X-4811431Y-14411607D01*
X-4845409Y-14421915D01*
X-4886890Y-14426000D01*
X-5488110Y-14426000D01*
X-5529591Y-14421915D01*
X-5563569Y-14411607D01*
X-5594890Y-14394866D01*
X-5622339Y-14372339D01*
X-5644866Y-14344890D01*
X-5661607Y-14313569D01*
X-5671915Y-14279591D01*
X-5676000Y-14238110D01*
X-5676000Y-13561890D01*
X-5671915Y-13520409D01*
X-5661607Y-13486431D01*
X-5644866Y-13455110D01*
X-5622339Y-13427661D01*
X-5594890Y-13405134D01*
X-5563569Y-13388393D01*
X-5529591Y-13378085D01*
X-5488110Y-13374000D01*
X-4886890Y-13374000D01*
X-4845409Y-13378085D01*
G37*
G36*
X-6420409Y-13378085D02*
G01*
X-6386431Y-13388393D01*
X-6355110Y-13405134D01*
X-6327661Y-13427661D01*
X-6305134Y-13455110D01*
X-6288393Y-13486431D01*
X-6278085Y-13520409D01*
X-6274000Y-13561890D01*
X-6274000Y-14238110D01*
X-6278085Y-14279591D01*
X-6288393Y-14313569D01*
X-6305134Y-14344890D01*
X-6327661Y-14372339D01*
X-6355110Y-14394866D01*
X-6386431Y-14411607D01*
X-6420409Y-14421915D01*
X-6461890Y-14426000D01*
X-7063110Y-14426000D01*
X-7104591Y-14421915D01*
X-7138569Y-14411607D01*
X-7169890Y-14394866D01*
X-7197339Y-14372339D01*
X-7219866Y-14344890D01*
X-7236607Y-14313569D01*
X-7246915Y-14279591D01*
X-7251000Y-14238110D01*
X-7251000Y-13561890D01*
X-7246915Y-13520409D01*
X-7236607Y-13486431D01*
X-7219866Y-13455110D01*
X-7197339Y-13427661D01*
X-7169890Y-13405134D01*
X-7138569Y-13388393D01*
X-7104591Y-13378085D01*
X-7063110Y-13374000D01*
X-6461890Y-13374000D01*
X-6420409Y-13378085D01*
G37*
G36*
X-1649000Y-14026000D02*
G01*
X-3751000Y-14026000D01*
X-3751000Y-13024000D01*
X-1649000Y-13024000D01*
X-1649000Y-14026000D01*
G37*
G36*
X15351000Y-14026000D02*
G01*
X13249000Y-14026000D01*
X13249000Y-13024000D01*
X15351000Y-13024000D01*
X15351000Y-14026000D01*
G37*
G36*
X26229591Y-12928085D02*
G01*
X26263569Y-12938393D01*
X26294890Y-12955134D01*
X26322339Y-12977661D01*
X26344866Y-13005110D01*
X26361607Y-13036431D01*
X26371915Y-13070409D01*
X26376000Y-13111890D01*
X26376000Y-13788110D01*
X26371915Y-13829591D01*
X26361607Y-13863569D01*
X26344866Y-13894890D01*
X26322339Y-13922339D01*
X26294890Y-13944866D01*
X26263569Y-13961607D01*
X26229591Y-13971915D01*
X26188110Y-13976000D01*
X25586890Y-13976000D01*
X25545409Y-13971915D01*
X25511431Y-13961607D01*
X25480110Y-13944866D01*
X25452661Y-13922339D01*
X25430134Y-13894890D01*
X25413393Y-13863569D01*
X25403085Y-13829591D01*
X25399000Y-13788110D01*
X25399000Y-13111890D01*
X25403085Y-13070409D01*
X25413393Y-13036431D01*
X25430134Y-13005110D01*
X25452661Y-12977661D01*
X25480110Y-12955134D01*
X25511431Y-12938393D01*
X25545409Y-12928085D01*
X25586890Y-12924000D01*
X26188110Y-12924000D01*
X26229591Y-12928085D01*
G37*
G36*
X24654591Y-12928085D02*
G01*
X24688569Y-12938393D01*
X24719890Y-12955134D01*
X24747339Y-12977661D01*
X24769866Y-13005110D01*
X24786607Y-13036431D01*
X24796915Y-13070409D01*
X24801000Y-13111890D01*
X24801000Y-13788110D01*
X24796915Y-13829591D01*
X24786607Y-13863569D01*
X24769866Y-13894890D01*
X24747339Y-13922339D01*
X24719890Y-13944866D01*
X24688569Y-13961607D01*
X24654591Y-13971915D01*
X24613110Y-13976000D01*
X24011890Y-13976000D01*
X23970409Y-13971915D01*
X23936431Y-13961607D01*
X23905110Y-13944866D01*
X23877661Y-13922339D01*
X23855134Y-13894890D01*
X23838393Y-13863569D01*
X23828085Y-13829591D01*
X23824000Y-13788110D01*
X23824000Y-13111890D01*
X23828085Y-13070409D01*
X23838393Y-13036431D01*
X23855134Y-13005110D01*
X23877661Y-12977661D01*
X23905110Y-12955134D01*
X23936431Y-12938393D01*
X23970409Y-12928085D01*
X24011890Y-12924000D01*
X24613110Y-12924000D01*
X24654591Y-12928085D01*
G37*
G36*
X35492091Y-12778085D02*
G01*
X35526069Y-12788393D01*
X35557390Y-12805134D01*
X35584839Y-12827661D01*
X35607366Y-12855110D01*
X35624107Y-12886431D01*
X35634415Y-12920409D01*
X35638500Y-12961890D01*
X35638500Y-13638110D01*
X35634415Y-13679591D01*
X35624107Y-13713569D01*
X35607366Y-13744890D01*
X35584839Y-13772339D01*
X35557390Y-13794866D01*
X35526069Y-13811607D01*
X35492091Y-13821915D01*
X35450610Y-13826000D01*
X34849390Y-13826000D01*
X34807909Y-13821915D01*
X34773931Y-13811607D01*
X34742610Y-13794866D01*
X34715161Y-13772339D01*
X34692634Y-13744890D01*
X34675893Y-13713569D01*
X34665585Y-13679591D01*
X34661500Y-13638110D01*
X34661500Y-12961890D01*
X34665585Y-12920409D01*
X34675893Y-12886431D01*
X34692634Y-12855110D01*
X34715161Y-12827661D01*
X34742610Y-12805134D01*
X34773931Y-12788393D01*
X34807909Y-12778085D01*
X34849390Y-12774000D01*
X35450610Y-12774000D01*
X35492091Y-12778085D01*
G37*
G36*
X37067091Y-12778085D02*
G01*
X37101069Y-12788393D01*
X37132390Y-12805134D01*
X37159839Y-12827661D01*
X37182366Y-12855110D01*
X37199107Y-12886431D01*
X37209415Y-12920409D01*
X37213500Y-12961890D01*
X37213500Y-13638110D01*
X37209415Y-13679591D01*
X37199107Y-13713569D01*
X37182366Y-13744890D01*
X37159839Y-13772339D01*
X37132390Y-13794866D01*
X37101069Y-13811607D01*
X37067091Y-13821915D01*
X37025610Y-13826000D01*
X36424390Y-13826000D01*
X36382909Y-13821915D01*
X36348931Y-13811607D01*
X36317610Y-13794866D01*
X36290161Y-13772339D01*
X36267634Y-13744890D01*
X36250893Y-13713569D01*
X36240585Y-13679591D01*
X36236500Y-13638110D01*
X36236500Y-12961890D01*
X36240585Y-12920409D01*
X36250893Y-12886431D01*
X36267634Y-12855110D01*
X36290161Y-12827661D01*
X36317610Y-12805134D01*
X36348931Y-12788393D01*
X36382909Y-12778085D01*
X36424390Y-12774000D01*
X37025610Y-12774000D01*
X37067091Y-12778085D01*
G37*
G36*
X17829591Y-12278085D02*
G01*
X17863569Y-12288393D01*
X17894890Y-12305134D01*
X17922339Y-12327661D01*
X17944866Y-12355110D01*
X17961607Y-12386431D01*
X17971915Y-12420409D01*
X17976000Y-12461890D01*
X17976000Y-13063110D01*
X17971915Y-13104591D01*
X17961607Y-13138569D01*
X17944866Y-13169890D01*
X17922339Y-13197339D01*
X17894890Y-13219866D01*
X17863569Y-13236607D01*
X17829591Y-13246915D01*
X17788110Y-13251000D01*
X17111890Y-13251000D01*
X17070409Y-13246915D01*
X17036431Y-13236607D01*
X17005110Y-13219866D01*
X16977661Y-13197339D01*
X16955134Y-13169890D01*
X16938393Y-13138569D01*
X16928085Y-13104591D01*
X16924000Y-13063110D01*
X16924000Y-12461890D01*
X16928085Y-12420409D01*
X16938393Y-12386431D01*
X16955134Y-12355110D01*
X16977661Y-12327661D01*
X17005110Y-12305134D01*
X17036431Y-12288393D01*
X17070409Y-12278085D01*
X17111890Y-12274000D01*
X17788110Y-12274000D01*
X17829591Y-12278085D01*
G37*
G36*
X-1649000Y-12756000D02*
G01*
X-3751000Y-12756000D01*
X-3751000Y-11754000D01*
X-1649000Y-11754000D01*
X-1649000Y-12756000D01*
G37*
G36*
X15351000Y-12756000D02*
G01*
X13249000Y-12756000D01*
X13249000Y-11754000D01*
X15351000Y-11754000D01*
X15351000Y-12756000D01*
G37*
G36*
X24654591Y-11378085D02*
G01*
X24688569Y-11388393D01*
X24719890Y-11405134D01*
X24747339Y-11427661D01*
X24769866Y-11455110D01*
X24786607Y-11486431D01*
X24796915Y-11520409D01*
X24801000Y-11561890D01*
X24801000Y-12238110D01*
X24796915Y-12279591D01*
X24786607Y-12313569D01*
X24769866Y-12344890D01*
X24747339Y-12372339D01*
X24719890Y-12394866D01*
X24688569Y-12411607D01*
X24654591Y-12421915D01*
X24613110Y-12426000D01*
X24011890Y-12426000D01*
X23970409Y-12421915D01*
X23936431Y-12411607D01*
X23905110Y-12394866D01*
X23877661Y-12372339D01*
X23855134Y-12344890D01*
X23838393Y-12313569D01*
X23828085Y-12279591D01*
X23824000Y-12238110D01*
X23824000Y-11561890D01*
X23828085Y-11520409D01*
X23838393Y-11486431D01*
X23855134Y-11455110D01*
X23877661Y-11427661D01*
X23905110Y-11405134D01*
X23936431Y-11388393D01*
X23970409Y-11378085D01*
X24011890Y-11374000D01*
X24613110Y-11374000D01*
X24654591Y-11378085D01*
G37*
G36*
X26229591Y-11378085D02*
G01*
X26263569Y-11388393D01*
X26294890Y-11405134D01*
X26322339Y-11427661D01*
X26344866Y-11455110D01*
X26361607Y-11486431D01*
X26371915Y-11520409D01*
X26376000Y-11561890D01*
X26376000Y-12238110D01*
X26371915Y-12279591D01*
X26361607Y-12313569D01*
X26344866Y-12344890D01*
X26322339Y-12372339D01*
X26294890Y-12394866D01*
X26263569Y-12411607D01*
X26229591Y-12421915D01*
X26188110Y-12426000D01*
X25586890Y-12426000D01*
X25545409Y-12421915D01*
X25511431Y-12411607D01*
X25480110Y-12394866D01*
X25452661Y-12372339D01*
X25430134Y-12344890D01*
X25413393Y-12313569D01*
X25403085Y-12279591D01*
X25399000Y-12238110D01*
X25399000Y-11561890D01*
X25403085Y-11520409D01*
X25413393Y-11486431D01*
X25430134Y-11455110D01*
X25452661Y-11427661D01*
X25480110Y-11405134D01*
X25511431Y-11388393D01*
X25545409Y-11378085D01*
X25586890Y-11374000D01*
X26188110Y-11374000D01*
X26229591Y-11378085D01*
G37*
G36*
X7351000Y-12146000D02*
G01*
X2249000Y-12146000D01*
X2249000Y-7044000D01*
X7351000Y-7044000D01*
X7351000Y-12146000D01*
G37*
G36*
X15351000Y-11486000D02*
G01*
X13249000Y-11486000D01*
X13249000Y-10484000D01*
X15351000Y-10484000D01*
X15351000Y-11486000D01*
G37*
G36*
X-1649000Y-11486000D02*
G01*
X-3751000Y-11486000D01*
X-3751000Y-10484000D01*
X-1649000Y-10484000D01*
X-1649000Y-11486000D01*
G37*
G36*
X17829591Y-10140585D02*
G01*
X17863569Y-10150893D01*
X17894890Y-10167634D01*
X17922339Y-10190161D01*
X17944866Y-10217610D01*
X17961607Y-10248931D01*
X17971915Y-10282909D01*
X17976000Y-10324390D01*
X17976000Y-10925610D01*
X17971915Y-10967091D01*
X17961607Y-11001069D01*
X17944866Y-11032390D01*
X17922339Y-11059839D01*
X17894890Y-11082366D01*
X17863569Y-11099107D01*
X17829591Y-11109415D01*
X17788110Y-11113500D01*
X17111890Y-11113500D01*
X17070409Y-11109415D01*
X17036431Y-11099107D01*
X17005110Y-11082366D01*
X16977661Y-11059839D01*
X16955134Y-11032390D01*
X16938393Y-11001069D01*
X16928085Y-10967091D01*
X16924000Y-10925610D01*
X16924000Y-10324390D01*
X16928085Y-10282909D01*
X16938393Y-10248931D01*
X16955134Y-10217610D01*
X16977661Y-10190161D01*
X17005110Y-10167634D01*
X17036431Y-10150893D01*
X17070409Y-10140585D01*
X17111890Y-10136500D01*
X17788110Y-10136500D01*
X17829591Y-10140585D01*
G37*
G36*
X26229591Y-9828085D02*
G01*
X26263569Y-9838393D01*
X26294890Y-9855134D01*
X26322339Y-9877661D01*
X26344866Y-9905110D01*
X26361607Y-9936431D01*
X26371915Y-9970409D01*
X26376000Y-10011890D01*
X26376000Y-10688110D01*
X26371915Y-10729591D01*
X26361607Y-10763569D01*
X26344866Y-10794890D01*
X26322339Y-10822339D01*
X26294890Y-10844866D01*
X26263569Y-10861607D01*
X26229591Y-10871915D01*
X26188110Y-10876000D01*
X25586890Y-10876000D01*
X25545409Y-10871915D01*
X25511431Y-10861607D01*
X25480110Y-10844866D01*
X25452661Y-10822339D01*
X25430134Y-10794890D01*
X25413393Y-10763569D01*
X25403085Y-10729591D01*
X25399000Y-10688110D01*
X25399000Y-10011890D01*
X25403085Y-9970409D01*
X25413393Y-9936431D01*
X25430134Y-9905110D01*
X25452661Y-9877661D01*
X25480110Y-9855134D01*
X25511431Y-9838393D01*
X25545409Y-9828085D01*
X25586890Y-9824000D01*
X26188110Y-9824000D01*
X26229591Y-9828085D01*
G37*
G36*
X24654591Y-9828085D02*
G01*
X24688569Y-9838393D01*
X24719890Y-9855134D01*
X24747339Y-9877661D01*
X24769866Y-9905110D01*
X24786607Y-9936431D01*
X24796915Y-9970409D01*
X24801000Y-10011890D01*
X24801000Y-10688110D01*
X24796915Y-10729591D01*
X24786607Y-10763569D01*
X24769866Y-10794890D01*
X24747339Y-10822339D01*
X24719890Y-10844866D01*
X24688569Y-10861607D01*
X24654591Y-10871915D01*
X24613110Y-10876000D01*
X24011890Y-10876000D01*
X23970409Y-10871915D01*
X23936431Y-10861607D01*
X23905110Y-10844866D01*
X23877661Y-10822339D01*
X23855134Y-10794890D01*
X23838393Y-10763569D01*
X23828085Y-10729591D01*
X23824000Y-10688110D01*
X23824000Y-10011890D01*
X23828085Y-9970409D01*
X23838393Y-9936431D01*
X23855134Y-9905110D01*
X23877661Y-9877661D01*
X23905110Y-9855134D01*
X23936431Y-9838393D01*
X23970409Y-9828085D01*
X24011890Y-9824000D01*
X24613110Y-9824000D01*
X24654591Y-9828085D01*
G37*
G36*
X35592091Y-9678085D02*
G01*
X35626069Y-9688393D01*
X35657390Y-9705134D01*
X35684839Y-9727661D01*
X35707366Y-9755110D01*
X35724107Y-9786431D01*
X35734415Y-9820409D01*
X35738500Y-9861890D01*
X35738500Y-10538110D01*
X35734415Y-10579591D01*
X35724107Y-10613569D01*
X35707366Y-10644890D01*
X35684839Y-10672339D01*
X35657390Y-10694866D01*
X35626069Y-10711607D01*
X35592091Y-10721915D01*
X35550610Y-10726000D01*
X34949390Y-10726000D01*
X34907909Y-10721915D01*
X34873931Y-10711607D01*
X34842610Y-10694866D01*
X34815161Y-10672339D01*
X34792634Y-10644890D01*
X34775893Y-10613569D01*
X34765585Y-10579591D01*
X34761500Y-10538110D01*
X34761500Y-9861890D01*
X34765585Y-9820409D01*
X34775893Y-9786431D01*
X34792634Y-9755110D01*
X34815161Y-9727661D01*
X34842610Y-9705134D01*
X34873931Y-9688393D01*
X34907909Y-9678085D01*
X34949390Y-9674000D01*
X35550610Y-9674000D01*
X35592091Y-9678085D01*
G37*
G36*
X37167091Y-9678085D02*
G01*
X37201069Y-9688393D01*
X37232390Y-9705134D01*
X37259839Y-9727661D01*
X37282366Y-9755110D01*
X37299107Y-9786431D01*
X37309415Y-9820409D01*
X37313500Y-9861890D01*
X37313500Y-10538110D01*
X37309415Y-10579591D01*
X37299107Y-10613569D01*
X37282366Y-10644890D01*
X37259839Y-10672339D01*
X37232390Y-10694866D01*
X37201069Y-10711607D01*
X37167091Y-10721915D01*
X37125610Y-10726000D01*
X36524390Y-10726000D01*
X36482909Y-10721915D01*
X36448931Y-10711607D01*
X36417610Y-10694866D01*
X36390161Y-10672339D01*
X36367634Y-10644890D01*
X36350893Y-10613569D01*
X36340585Y-10579591D01*
X36336500Y-10538110D01*
X36336500Y-9861890D01*
X36340585Y-9820409D01*
X36350893Y-9786431D01*
X36367634Y-9755110D01*
X36390161Y-9727661D01*
X36417610Y-9705134D01*
X36448931Y-9688393D01*
X36482909Y-9678085D01*
X36524390Y-9674000D01*
X37125610Y-9674000D01*
X37167091Y-9678085D01*
G37*
G36*
X-1649000Y-10216000D02*
G01*
X-3751000Y-10216000D01*
X-3751000Y-9214000D01*
X-1649000Y-9214000D01*
X-1649000Y-10216000D01*
G37*
G36*
X15351000Y-10216000D02*
G01*
X13249000Y-10216000D01*
X13249000Y-9214000D01*
X15351000Y-9214000D01*
X15351000Y-10216000D01*
G37*
G36*
X17829591Y-8565585D02*
G01*
X17863569Y-8575893D01*
X17894890Y-8592634D01*
X17922339Y-8615161D01*
X17944866Y-8642610D01*
X17961607Y-8673931D01*
X17971915Y-8707909D01*
X17976000Y-8749390D01*
X17976000Y-9350610D01*
X17971915Y-9392091D01*
X17961607Y-9426069D01*
X17944866Y-9457390D01*
X17922339Y-9484839D01*
X17894890Y-9507366D01*
X17863569Y-9524107D01*
X17829591Y-9534415D01*
X17788110Y-9538500D01*
X17111890Y-9538500D01*
X17070409Y-9534415D01*
X17036431Y-9524107D01*
X17005110Y-9507366D01*
X16977661Y-9484839D01*
X16955134Y-9457390D01*
X16938393Y-9426069D01*
X16928085Y-9392091D01*
X16924000Y-9350610D01*
X16924000Y-8749390D01*
X16928085Y-8707909D01*
X16938393Y-8673931D01*
X16955134Y-8642610D01*
X16977661Y-8615161D01*
X17005110Y-8592634D01*
X17036431Y-8575893D01*
X17070409Y-8565585D01*
X17111890Y-8561500D01*
X17788110Y-8561500D01*
X17829591Y-8565585D01*
G37*
G36*
X35592091Y-8128085D02*
G01*
X35626069Y-8138393D01*
X35657390Y-8155134D01*
X35684839Y-8177661D01*
X35707366Y-8205110D01*
X35724107Y-8236431D01*
X35734415Y-8270409D01*
X35738500Y-8311890D01*
X35738500Y-8988110D01*
X35734415Y-9029591D01*
X35724107Y-9063569D01*
X35707366Y-9094890D01*
X35684839Y-9122339D01*
X35657390Y-9144866D01*
X35626069Y-9161607D01*
X35592091Y-9171915D01*
X35550610Y-9176000D01*
X34949390Y-9176000D01*
X34907909Y-9171915D01*
X34873931Y-9161607D01*
X34842610Y-9144866D01*
X34815161Y-9122339D01*
X34792634Y-9094890D01*
X34775893Y-9063569D01*
X34765585Y-9029591D01*
X34761500Y-8988110D01*
X34761500Y-8311890D01*
X34765585Y-8270409D01*
X34775893Y-8236431D01*
X34792634Y-8205110D01*
X34815161Y-8177661D01*
X34842610Y-8155134D01*
X34873931Y-8138393D01*
X34907909Y-8128085D01*
X34949390Y-8124000D01*
X35550610Y-8124000D01*
X35592091Y-8128085D01*
G37*
G36*
X37167091Y-8128085D02*
G01*
X37201069Y-8138393D01*
X37232390Y-8155134D01*
X37259839Y-8177661D01*
X37282366Y-8205110D01*
X37299107Y-8236431D01*
X37309415Y-8270409D01*
X37313500Y-8311890D01*
X37313500Y-8988110D01*
X37309415Y-9029591D01*
X37299107Y-9063569D01*
X37282366Y-9094890D01*
X37259839Y-9122339D01*
X37232390Y-9144866D01*
X37201069Y-9161607D01*
X37167091Y-9171915D01*
X37125610Y-9176000D01*
X36524390Y-9176000D01*
X36482909Y-9171915D01*
X36448931Y-9161607D01*
X36417610Y-9144866D01*
X36390161Y-9122339D01*
X36367634Y-9094890D01*
X36350893Y-9063569D01*
X36340585Y-9029591D01*
X36336500Y-8988110D01*
X36336500Y-8311890D01*
X36340585Y-8270409D01*
X36350893Y-8236431D01*
X36367634Y-8205110D01*
X36390161Y-8177661D01*
X36417610Y-8155134D01*
X36448931Y-8138393D01*
X36482909Y-8128085D01*
X36524390Y-8124000D01*
X37125610Y-8124000D01*
X37167091Y-8128085D01*
G37*
G36*
X15351000Y-8946000D02*
G01*
X13249000Y-8946000D01*
X13249000Y-7944000D01*
X15351000Y-7944000D01*
X15351000Y-8946000D01*
G37*
G36*
X-1649000Y-8946000D02*
G01*
X-3751000Y-8946000D01*
X-3751000Y-7944000D01*
X-1649000Y-7944000D01*
X-1649000Y-8946000D01*
G37*
G36*
X32429591Y-7615585D02*
G01*
X32463569Y-7625893D01*
X32494890Y-7642634D01*
X32522339Y-7665161D01*
X32544866Y-7692610D01*
X32561607Y-7723931D01*
X32571915Y-7757909D01*
X32576000Y-7799390D01*
X32576000Y-8400610D01*
X32571915Y-8442091D01*
X32561607Y-8476069D01*
X32544866Y-8507390D01*
X32522339Y-8534839D01*
X32494890Y-8557366D01*
X32463569Y-8574107D01*
X32429591Y-8584415D01*
X32388110Y-8588500D01*
X31711890Y-8588500D01*
X31670409Y-8584415D01*
X31636431Y-8574107D01*
X31605110Y-8557366D01*
X31577661Y-8534839D01*
X31555134Y-8507390D01*
X31538393Y-8476069D01*
X31528085Y-8442091D01*
X31524000Y-8400610D01*
X31524000Y-7799390D01*
X31528085Y-7757909D01*
X31538393Y-7723931D01*
X31555134Y-7692610D01*
X31577661Y-7665161D01*
X31605110Y-7642634D01*
X31636431Y-7625893D01*
X31670409Y-7615585D01*
X31711890Y-7611500D01*
X32388110Y-7611500D01*
X32429591Y-7615585D01*
G37*
G36*
X30879591Y-7615585D02*
G01*
X30913569Y-7625893D01*
X30944890Y-7642634D01*
X30972339Y-7665161D01*
X30994866Y-7692610D01*
X31011607Y-7723931D01*
X31021915Y-7757909D01*
X31026000Y-7799390D01*
X31026000Y-8400610D01*
X31021915Y-8442091D01*
X31011607Y-8476069D01*
X30994866Y-8507390D01*
X30972339Y-8534839D01*
X30944890Y-8557366D01*
X30913569Y-8574107D01*
X30879591Y-8584415D01*
X30838110Y-8588500D01*
X30161890Y-8588500D01*
X30120409Y-8584415D01*
X30086431Y-8574107D01*
X30055110Y-8557366D01*
X30027661Y-8534839D01*
X30005134Y-8507390D01*
X29988393Y-8476069D01*
X29978085Y-8442091D01*
X29974000Y-8400610D01*
X29974000Y-7799390D01*
X29978085Y-7757909D01*
X29988393Y-7723931D01*
X30005134Y-7692610D01*
X30027661Y-7665161D01*
X30055110Y-7642634D01*
X30086431Y-7625893D01*
X30120409Y-7615585D01*
X30161890Y-7611500D01*
X30838110Y-7611500D01*
X30879591Y-7615585D01*
G37*
G36*
X33979591Y-7615585D02*
G01*
X34013569Y-7625893D01*
X34044890Y-7642634D01*
X34072339Y-7665161D01*
X34094866Y-7692610D01*
X34111607Y-7723931D01*
X34121915Y-7757909D01*
X34126000Y-7799390D01*
X34126000Y-8400610D01*
X34121915Y-8442091D01*
X34111607Y-8476069D01*
X34094866Y-8507390D01*
X34072339Y-8534839D01*
X34044890Y-8557366D01*
X34013569Y-8574107D01*
X33979591Y-8584415D01*
X33938110Y-8588500D01*
X33261890Y-8588500D01*
X33220409Y-8584415D01*
X33186431Y-8574107D01*
X33155110Y-8557366D01*
X33127661Y-8534839D01*
X33105134Y-8507390D01*
X33088393Y-8476069D01*
X33078085Y-8442091D01*
X33074000Y-8400610D01*
X33074000Y-7799390D01*
X33078085Y-7757909D01*
X33088393Y-7723931D01*
X33105134Y-7692610D01*
X33127661Y-7665161D01*
X33155110Y-7642634D01*
X33186431Y-7625893D01*
X33220409Y-7615585D01*
X33261890Y-7611500D01*
X33938110Y-7611500D01*
X33979591Y-7615585D01*
G37*
G36*
X27779591Y-7615585D02*
G01*
X27813569Y-7625893D01*
X27844890Y-7642634D01*
X27872339Y-7665161D01*
X27894866Y-7692610D01*
X27911607Y-7723931D01*
X27921915Y-7757909D01*
X27926000Y-7799390D01*
X27926000Y-8400610D01*
X27921915Y-8442091D01*
X27911607Y-8476069D01*
X27894866Y-8507390D01*
X27872339Y-8534839D01*
X27844890Y-8557366D01*
X27813569Y-8574107D01*
X27779591Y-8584415D01*
X27738110Y-8588500D01*
X27061890Y-8588500D01*
X27020409Y-8584415D01*
X26986431Y-8574107D01*
X26955110Y-8557366D01*
X26927661Y-8534839D01*
X26905134Y-8507390D01*
X26888393Y-8476069D01*
X26878085Y-8442091D01*
X26874000Y-8400610D01*
X26874000Y-7799390D01*
X26878085Y-7757909D01*
X26888393Y-7723931D01*
X26905134Y-7692610D01*
X26927661Y-7665161D01*
X26955110Y-7642634D01*
X26986431Y-7625893D01*
X27020409Y-7615585D01*
X27061890Y-7611500D01*
X27738110Y-7611500D01*
X27779591Y-7615585D01*
G37*
G36*
X29329591Y-7615585D02*
G01*
X29363569Y-7625893D01*
X29394890Y-7642634D01*
X29422339Y-7665161D01*
X29444866Y-7692610D01*
X29461607Y-7723931D01*
X29471915Y-7757909D01*
X29476000Y-7799390D01*
X29476000Y-8400610D01*
X29471915Y-8442091D01*
X29461607Y-8476069D01*
X29444866Y-8507390D01*
X29422339Y-8534839D01*
X29394890Y-8557366D01*
X29363569Y-8574107D01*
X29329591Y-8584415D01*
X29288110Y-8588500D01*
X28611890Y-8588500D01*
X28570409Y-8584415D01*
X28536431Y-8574107D01*
X28505110Y-8557366D01*
X28477661Y-8534839D01*
X28455134Y-8507390D01*
X28438393Y-8476069D01*
X28428085Y-8442091D01*
X28424000Y-8400610D01*
X28424000Y-7799390D01*
X28428085Y-7757909D01*
X28438393Y-7723931D01*
X28455134Y-7692610D01*
X28477661Y-7665161D01*
X28505110Y-7642634D01*
X28536431Y-7625893D01*
X28570409Y-7615585D01*
X28611890Y-7611500D01*
X29288110Y-7611500D01*
X29329591Y-7615585D01*
G37*
G36*
X15351000Y-7676000D02*
G01*
X13249000Y-7676000D01*
X13249000Y-6674000D01*
X15351000Y-6674000D01*
X15351000Y-7676000D01*
G37*
G36*
X-1649000Y-7676000D02*
G01*
X-3751000Y-7676000D01*
X-3751000Y-6674000D01*
X-1649000Y-6674000D01*
X-1649000Y-7676000D01*
G37*
G36*
X17829591Y-6653085D02*
G01*
X17863569Y-6663393D01*
X17894890Y-6680134D01*
X17922339Y-6702661D01*
X17944866Y-6730110D01*
X17961607Y-6761431D01*
X17971915Y-6795409D01*
X17976000Y-6836890D01*
X17976000Y-7438110D01*
X17971915Y-7479591D01*
X17961607Y-7513569D01*
X17944866Y-7544890D01*
X17922339Y-7572339D01*
X17894890Y-7594866D01*
X17863569Y-7611607D01*
X17829591Y-7621915D01*
X17788110Y-7626000D01*
X17111890Y-7626000D01*
X17070409Y-7621915D01*
X17036431Y-7611607D01*
X17005110Y-7594866D01*
X16977661Y-7572339D01*
X16955134Y-7544890D01*
X16938393Y-7513569D01*
X16928085Y-7479591D01*
X16924000Y-7438110D01*
X16924000Y-6836890D01*
X16928085Y-6795409D01*
X16938393Y-6761431D01*
X16955134Y-6730110D01*
X16977661Y-6702661D01*
X17005110Y-6680134D01*
X17036431Y-6663393D01*
X17070409Y-6653085D01*
X17111890Y-6649000D01*
X17788110Y-6649000D01*
X17829591Y-6653085D01*
G37*
G36*
X29329591Y-6040585D02*
G01*
X29363569Y-6050893D01*
X29394890Y-6067634D01*
X29422339Y-6090161D01*
X29444866Y-6117610D01*
X29461607Y-6148931D01*
X29471915Y-6182909D01*
X29476000Y-6224390D01*
X29476000Y-6825610D01*
X29471915Y-6867091D01*
X29461607Y-6901069D01*
X29444866Y-6932390D01*
X29422339Y-6959839D01*
X29394890Y-6982366D01*
X29363569Y-6999107D01*
X29329591Y-7009415D01*
X29288110Y-7013500D01*
X28611890Y-7013500D01*
X28570409Y-7009415D01*
X28536431Y-6999107D01*
X28505110Y-6982366D01*
X28477661Y-6959839D01*
X28455134Y-6932390D01*
X28438393Y-6901069D01*
X28428085Y-6867091D01*
X28424000Y-6825610D01*
X28424000Y-6224390D01*
X28428085Y-6182909D01*
X28438393Y-6148931D01*
X28455134Y-6117610D01*
X28477661Y-6090161D01*
X28505110Y-6067634D01*
X28536431Y-6050893D01*
X28570409Y-6040585D01*
X28611890Y-6036500D01*
X29288110Y-6036500D01*
X29329591Y-6040585D01*
G37*
G36*
X30879591Y-6040585D02*
G01*
X30913569Y-6050893D01*
X30944890Y-6067634D01*
X30972339Y-6090161D01*
X30994866Y-6117610D01*
X31011607Y-6148931D01*
X31021915Y-6182909D01*
X31026000Y-6224390D01*
X31026000Y-6825610D01*
X31021915Y-6867091D01*
X31011607Y-6901069D01*
X30994866Y-6932390D01*
X30972339Y-6959839D01*
X30944890Y-6982366D01*
X30913569Y-6999107D01*
X30879591Y-7009415D01*
X30838110Y-7013500D01*
X30161890Y-7013500D01*
X30120409Y-7009415D01*
X30086431Y-6999107D01*
X30055110Y-6982366D01*
X30027661Y-6959839D01*
X30005134Y-6932390D01*
X29988393Y-6901069D01*
X29978085Y-6867091D01*
X29974000Y-6825610D01*
X29974000Y-6224390D01*
X29978085Y-6182909D01*
X29988393Y-6148931D01*
X30005134Y-6117610D01*
X30027661Y-6090161D01*
X30055110Y-6067634D01*
X30086431Y-6050893D01*
X30120409Y-6040585D01*
X30161890Y-6036500D01*
X30838110Y-6036500D01*
X30879591Y-6040585D01*
G37*
G36*
X27779591Y-6040585D02*
G01*
X27813569Y-6050893D01*
X27844890Y-6067634D01*
X27872339Y-6090161D01*
X27894866Y-6117610D01*
X27911607Y-6148931D01*
X27921915Y-6182909D01*
X27926000Y-6224390D01*
X27926000Y-6825610D01*
X27921915Y-6867091D01*
X27911607Y-6901069D01*
X27894866Y-6932390D01*
X27872339Y-6959839D01*
X27844890Y-6982366D01*
X27813569Y-6999107D01*
X27779591Y-7009415D01*
X27738110Y-7013500D01*
X27061890Y-7013500D01*
X27020409Y-7009415D01*
X26986431Y-6999107D01*
X26955110Y-6982366D01*
X26927661Y-6959839D01*
X26905134Y-6932390D01*
X26888393Y-6901069D01*
X26878085Y-6867091D01*
X26874000Y-6825610D01*
X26874000Y-6224390D01*
X26878085Y-6182909D01*
X26888393Y-6148931D01*
X26905134Y-6117610D01*
X26927661Y-6090161D01*
X26955110Y-6067634D01*
X26986431Y-6050893D01*
X27020409Y-6040585D01*
X27061890Y-6036500D01*
X27738110Y-6036500D01*
X27779591Y-6040585D01*
G37*
G36*
X33979591Y-6040585D02*
G01*
X34013569Y-6050893D01*
X34044890Y-6067634D01*
X34072339Y-6090161D01*
X34094866Y-6117610D01*
X34111607Y-6148931D01*
X34121915Y-6182909D01*
X34126000Y-6224390D01*
X34126000Y-6825610D01*
X34121915Y-6867091D01*
X34111607Y-6901069D01*
X34094866Y-6932390D01*
X34072339Y-6959839D01*
X34044890Y-6982366D01*
X34013569Y-6999107D01*
X33979591Y-7009415D01*
X33938110Y-7013500D01*
X33261890Y-7013500D01*
X33220409Y-7009415D01*
X33186431Y-6999107D01*
X33155110Y-6982366D01*
X33127661Y-6959839D01*
X33105134Y-6932390D01*
X33088393Y-6901069D01*
X33078085Y-6867091D01*
X33074000Y-6825610D01*
X33074000Y-6224390D01*
X33078085Y-6182909D01*
X33088393Y-6148931D01*
X33105134Y-6117610D01*
X33127661Y-6090161D01*
X33155110Y-6067634D01*
X33186431Y-6050893D01*
X33220409Y-6040585D01*
X33261890Y-6036500D01*
X33938110Y-6036500D01*
X33979591Y-6040585D01*
G37*
G36*
X32429591Y-6040585D02*
G01*
X32463569Y-6050893D01*
X32494890Y-6067634D01*
X32522339Y-6090161D01*
X32544866Y-6117610D01*
X32561607Y-6148931D01*
X32571915Y-6182909D01*
X32576000Y-6224390D01*
X32576000Y-6825610D01*
X32571915Y-6867091D01*
X32561607Y-6901069D01*
X32544866Y-6932390D01*
X32522339Y-6959839D01*
X32494890Y-6982366D01*
X32463569Y-6999107D01*
X32429591Y-7009415D01*
X32388110Y-7013500D01*
X31711890Y-7013500D01*
X31670409Y-7009415D01*
X31636431Y-6999107D01*
X31605110Y-6982366D01*
X31577661Y-6959839D01*
X31555134Y-6932390D01*
X31538393Y-6901069D01*
X31528085Y-6867091D01*
X31524000Y-6825610D01*
X31524000Y-6224390D01*
X31528085Y-6182909D01*
X31538393Y-6148931D01*
X31555134Y-6117610D01*
X31577661Y-6090161D01*
X31605110Y-6067634D01*
X31636431Y-6050893D01*
X31670409Y-6040585D01*
X31711890Y-6036500D01*
X32388110Y-6036500D01*
X32429591Y-6040585D01*
G37*
G36*
X-4707909Y-5778085D02*
G01*
X-4673931Y-5788393D01*
X-4642610Y-5805134D01*
X-4615161Y-5827661D01*
X-4592634Y-5855110D01*
X-4575893Y-5886431D01*
X-4565585Y-5920409D01*
X-4561500Y-5961890D01*
X-4561500Y-6638110D01*
X-4565585Y-6679591D01*
X-4575893Y-6713569D01*
X-4592634Y-6744890D01*
X-4615161Y-6772339D01*
X-4642610Y-6794866D01*
X-4673931Y-6811607D01*
X-4707909Y-6821915D01*
X-4749390Y-6826000D01*
X-5350610Y-6826000D01*
X-5392091Y-6821915D01*
X-5426069Y-6811607D01*
X-5457390Y-6794866D01*
X-5484839Y-6772339D01*
X-5507366Y-6744890D01*
X-5524107Y-6713569D01*
X-5534415Y-6679591D01*
X-5538500Y-6638110D01*
X-5538500Y-5961890D01*
X-5534415Y-5920409D01*
X-5524107Y-5886431D01*
X-5507366Y-5855110D01*
X-5484839Y-5827661D01*
X-5457390Y-5805134D01*
X-5426069Y-5788393D01*
X-5392091Y-5778085D01*
X-5350610Y-5774000D01*
X-4749390Y-5774000D01*
X-4707909Y-5778085D01*
G37*
G36*
X-6282909Y-5778085D02*
G01*
X-6248931Y-5788393D01*
X-6217610Y-5805134D01*
X-6190161Y-5827661D01*
X-6167634Y-5855110D01*
X-6150893Y-5886431D01*
X-6140585Y-5920409D01*
X-6136500Y-5961890D01*
X-6136500Y-6638110D01*
X-6140585Y-6679591D01*
X-6150893Y-6713569D01*
X-6167634Y-6744890D01*
X-6190161Y-6772339D01*
X-6217610Y-6794866D01*
X-6248931Y-6811607D01*
X-6282909Y-6821915D01*
X-6324390Y-6826000D01*
X-6925610Y-6826000D01*
X-6967091Y-6821915D01*
X-7001069Y-6811607D01*
X-7032390Y-6794866D01*
X-7059839Y-6772339D01*
X-7082366Y-6744890D01*
X-7099107Y-6713569D01*
X-7109415Y-6679591D01*
X-7113500Y-6638110D01*
X-7113500Y-5961890D01*
X-7109415Y-5920409D01*
X-7099107Y-5886431D01*
X-7082366Y-5855110D01*
X-7059839Y-5827661D01*
X-7032390Y-5805134D01*
X-7001069Y-5788393D01*
X-6967091Y-5778085D01*
X-6925610Y-5774000D01*
X-6324390Y-5774000D01*
X-6282909Y-5778085D01*
G37*
G36*
X37725880Y-2059776D02*
G01*
X38106593Y-2135504D01*
X38516249Y-2305189D01*
X38884929Y-2551534D01*
X39198466Y-2865071D01*
X39444811Y-3233751D01*
X39614496Y-3643407D01*
X39701000Y-4078296D01*
X39701000Y-4521704D01*
X39614496Y-4956593D01*
X39444811Y-5366249D01*
X39198466Y-5734929D01*
X38884929Y-6048466D01*
X38516249Y-6294811D01*
X38106593Y-6464496D01*
X37725880Y-6540224D01*
X37671705Y-6551000D01*
X37228295Y-6551000D01*
X37174120Y-6540224D01*
X36793407Y-6464496D01*
X36383751Y-6294811D01*
X36015071Y-6048466D01*
X35701534Y-5734929D01*
X35455189Y-5366249D01*
X35285504Y-4956593D01*
X35199000Y-4521704D01*
X35199000Y-4078296D01*
X35285504Y-3643407D01*
X35455189Y-3233751D01*
X35701534Y-2865071D01*
X36015071Y-2551534D01*
X36383751Y-2305189D01*
X36793407Y-2135504D01*
X37174120Y-2059776D01*
X37228295Y-2049000D01*
X37671705Y-2049000D01*
X37725880Y-2059776D01*
G37*
G36*
X-1649000Y-6406000D02*
G01*
X-3751000Y-6406000D01*
X-3751000Y-5404000D01*
X-1649000Y-5404000D01*
X-1649000Y-6406000D01*
G37*
G36*
X15351000Y-6406000D02*
G01*
X13249000Y-6406000D01*
X13249000Y-5404000D01*
X15351000Y-5404000D01*
X15351000Y-6406000D01*
G37*
G36*
X17829591Y-5078085D02*
G01*
X17863569Y-5088393D01*
X17894890Y-5105134D01*
X17922339Y-5127661D01*
X17944866Y-5155110D01*
X17961607Y-5186431D01*
X17971915Y-5220409D01*
X17976000Y-5261890D01*
X17976000Y-5863110D01*
X17971915Y-5904591D01*
X17961607Y-5938569D01*
X17944866Y-5969890D01*
X17922339Y-5997339D01*
X17894890Y-6019866D01*
X17863569Y-6036607D01*
X17829591Y-6046915D01*
X17788110Y-6051000D01*
X17111890Y-6051000D01*
X17070409Y-6046915D01*
X17036431Y-6036607D01*
X17005110Y-6019866D01*
X16977661Y-5997339D01*
X16955134Y-5969890D01*
X16938393Y-5938569D01*
X16928085Y-5904591D01*
X16924000Y-5863110D01*
X16924000Y-5261890D01*
X16928085Y-5220409D01*
X16938393Y-5186431D01*
X16955134Y-5155110D01*
X16977661Y-5127661D01*
X17005110Y-5105134D01*
X17036431Y-5088393D01*
X17070409Y-5078085D01*
X17111890Y-5074000D01*
X17788110Y-5074000D01*
X17829591Y-5078085D01*
G37*
G36*
X-4707909Y-4228085D02*
G01*
X-4673931Y-4238393D01*
X-4642610Y-4255134D01*
X-4615161Y-4277661D01*
X-4592634Y-4305110D01*
X-4575893Y-4336431D01*
X-4565585Y-4370409D01*
X-4561500Y-4411890D01*
X-4561500Y-5088110D01*
X-4565585Y-5129591D01*
X-4575893Y-5163569D01*
X-4592634Y-5194890D01*
X-4615161Y-5222339D01*
X-4642610Y-5244866D01*
X-4673931Y-5261607D01*
X-4707909Y-5271915D01*
X-4749390Y-5276000D01*
X-5350610Y-5276000D01*
X-5392091Y-5271915D01*
X-5426069Y-5261607D01*
X-5457390Y-5244866D01*
X-5484839Y-5222339D01*
X-5507366Y-5194890D01*
X-5524107Y-5163569D01*
X-5534415Y-5129591D01*
X-5538500Y-5088110D01*
X-5538500Y-4411890D01*
X-5534415Y-4370409D01*
X-5524107Y-4336431D01*
X-5507366Y-4305110D01*
X-5484839Y-4277661D01*
X-5457390Y-4255134D01*
X-5426069Y-4238393D01*
X-5392091Y-4228085D01*
X-5350610Y-4224000D01*
X-4749390Y-4224000D01*
X-4707909Y-4228085D01*
G37*
G36*
X-6282909Y-4228085D02*
G01*
X-6248931Y-4238393D01*
X-6217610Y-4255134D01*
X-6190161Y-4277661D01*
X-6167634Y-4305110D01*
X-6150893Y-4336431D01*
X-6140585Y-4370409D01*
X-6136500Y-4411890D01*
X-6136500Y-5088110D01*
X-6140585Y-5129591D01*
X-6150893Y-5163569D01*
X-6167634Y-5194890D01*
X-6190161Y-5222339D01*
X-6217610Y-5244866D01*
X-6248931Y-5261607D01*
X-6282909Y-5271915D01*
X-6324390Y-5276000D01*
X-6925610Y-5276000D01*
X-6967091Y-5271915D01*
X-7001069Y-5261607D01*
X-7032390Y-5244866D01*
X-7059839Y-5222339D01*
X-7082366Y-5194890D01*
X-7099107Y-5163569D01*
X-7109415Y-5129591D01*
X-7113500Y-5088110D01*
X-7113500Y-4411890D01*
X-7109415Y-4370409D01*
X-7099107Y-4336431D01*
X-7082366Y-4305110D01*
X-7059839Y-4277661D01*
X-7032390Y-4255134D01*
X-7001069Y-4238393D01*
X-6967091Y-4228085D01*
X-6925610Y-4224000D01*
X-6324390Y-4224000D01*
X-6282909Y-4228085D01*
G37*
G36*
X15351000Y-5136000D02*
G01*
X13249000Y-5136000D01*
X13249000Y-4134000D01*
X15351000Y-4134000D01*
X15351000Y-5136000D01*
G37*
G36*
X-1649000Y-5136000D02*
G01*
X-3751000Y-5136000D01*
X-3751000Y-4134000D01*
X-1649000Y-4134000D01*
X-1649000Y-5136000D01*
G37*
G36*
X-1649000Y-3866000D02*
G01*
X-3751000Y-3866000D01*
X-3751000Y-2864000D01*
X-1649000Y-2864000D01*
X-1649000Y-3866000D01*
G37*
G36*
X15351000Y-3866000D02*
G01*
X13249000Y-3866000D01*
X13249000Y-2864000D01*
X15351000Y-2864000D01*
X15351000Y-3866000D01*
G37*
G36*
X-6282909Y-2678085D02*
G01*
X-6248931Y-2688393D01*
X-6217610Y-2705134D01*
X-6190161Y-2727661D01*
X-6167634Y-2755110D01*
X-6150893Y-2786431D01*
X-6140585Y-2820409D01*
X-6136500Y-2861890D01*
X-6136500Y-3538110D01*
X-6140585Y-3579591D01*
X-6150893Y-3613569D01*
X-6167634Y-3644890D01*
X-6190161Y-3672339D01*
X-6217610Y-3694866D01*
X-6248931Y-3711607D01*
X-6282909Y-3721915D01*
X-6324390Y-3726000D01*
X-6925610Y-3726000D01*
X-6967091Y-3721915D01*
X-7001069Y-3711607D01*
X-7032390Y-3694866D01*
X-7059839Y-3672339D01*
X-7082366Y-3644890D01*
X-7099107Y-3613569D01*
X-7109415Y-3579591D01*
X-7113500Y-3538110D01*
X-7113500Y-2861890D01*
X-7109415Y-2820409D01*
X-7099107Y-2786431D01*
X-7082366Y-2755110D01*
X-7059839Y-2727661D01*
X-7032390Y-2705134D01*
X-7001069Y-2688393D01*
X-6967091Y-2678085D01*
X-6925610Y-2674000D01*
X-6324390Y-2674000D01*
X-6282909Y-2678085D01*
G37*
G36*
X-4707909Y-2678085D02*
G01*
X-4673931Y-2688393D01*
X-4642610Y-2705134D01*
X-4615161Y-2727661D01*
X-4592634Y-2755110D01*
X-4575893Y-2786431D01*
X-4565585Y-2820409D01*
X-4561500Y-2861890D01*
X-4561500Y-3538110D01*
X-4565585Y-3579591D01*
X-4575893Y-3613569D01*
X-4592634Y-3644890D01*
X-4615161Y-3672339D01*
X-4642610Y-3694866D01*
X-4673931Y-3711607D01*
X-4707909Y-3721915D01*
X-4749390Y-3726000D01*
X-5350610Y-3726000D01*
X-5392091Y-3721915D01*
X-5426069Y-3711607D01*
X-5457390Y-3694866D01*
X-5484839Y-3672339D01*
X-5507366Y-3644890D01*
X-5524107Y-3613569D01*
X-5534415Y-3579591D01*
X-5538500Y-3538110D01*
X-5538500Y-2861890D01*
X-5534415Y-2820409D01*
X-5524107Y-2786431D01*
X-5507366Y-2755110D01*
X-5484839Y-2727661D01*
X-5457390Y-2705134D01*
X-5426069Y-2688393D01*
X-5392091Y-2678085D01*
X-5350610Y-2674000D01*
X-4749390Y-2674000D01*
X-4707909Y-2678085D01*
G37*
G36*
X-1649000Y-2596000D02*
G01*
X-3751000Y-2596000D01*
X-3751000Y-1594000D01*
X-1649000Y-1594000D01*
X-1649000Y-2596000D01*
G37*
G36*
X15351000Y-2596000D02*
G01*
X13249000Y-2596000D01*
X13249000Y-1594000D01*
X15351000Y-1594000D01*
X15351000Y-2596000D01*
G37*
G36*
X35665000Y-207000D02*
G01*
X33863000Y-207000D01*
X33863000Y1595000D01*
X35665000Y1595000D01*
X35665000Y-207000D01*
G37*
G36*
X32337512Y1590073D02*
G01*
X32486812Y1560376D01*
X32650784Y1492456D01*
X32798354Y1393853D01*
X32923853Y1268354D01*
X33022456Y1120784D01*
X33090376Y956812D01*
X33125000Y782741D01*
X33125000Y605259D01*
X33090376Y431188D01*
X33022456Y267216D01*
X32923853Y119646D01*
X32798354Y-5853D01*
X32650784Y-104456D01*
X32486812Y-172376D01*
X32337512Y-202073D01*
X32312742Y-207000D01*
X32135258Y-207000D01*
X32110488Y-202073D01*
X31961188Y-172376D01*
X31797216Y-104456D01*
X31649646Y-5853D01*
X31524147Y119646D01*
X31425544Y267216D01*
X31357624Y431188D01*
X31323000Y605259D01*
X31323000Y782741D01*
X31357624Y956812D01*
X31425544Y1120784D01*
X31524147Y1268354D01*
X31649646Y1393853D01*
X31797216Y1492456D01*
X31961188Y1560376D01*
X32110488Y1590073D01*
X32135258Y1595000D01*
X32312742Y1595000D01*
X32337512Y1590073D01*
G37*
G36*
X29797512Y1590073D02*
G01*
X29946812Y1560376D01*
X30110784Y1492456D01*
X30258354Y1393853D01*
X30383853Y1268354D01*
X30482456Y1120784D01*
X30550376Y956812D01*
X30585000Y782741D01*
X30585000Y605259D01*
X30550376Y431188D01*
X30482456Y267216D01*
X30383853Y119646D01*
X30258354Y-5853D01*
X30110784Y-104456D01*
X29946812Y-172376D01*
X29797512Y-202073D01*
X29772742Y-207000D01*
X29595258Y-207000D01*
X29570488Y-202073D01*
X29421188Y-172376D01*
X29257216Y-104456D01*
X29109646Y-5853D01*
X28984147Y119646D01*
X28885544Y267216D01*
X28817624Y431188D01*
X28783000Y605259D01*
X28783000Y782741D01*
X28817624Y956812D01*
X28885544Y1120784D01*
X28984147Y1268354D01*
X29109646Y1393853D01*
X29257216Y1492456D01*
X29421188Y1560376D01*
X29570488Y1590073D01*
X29595258Y1595000D01*
X29772742Y1595000D01*
X29797512Y1590073D01*
G37*
G36*
X27257512Y1590073D02*
G01*
X27406812Y1560376D01*
X27570784Y1492456D01*
X27718354Y1393853D01*
X27843853Y1268354D01*
X27942456Y1120784D01*
X28010376Y956812D01*
X28045000Y782741D01*
X28045000Y605259D01*
X28010376Y431188D01*
X27942456Y267216D01*
X27843853Y119646D01*
X27718354Y-5853D01*
X27570784Y-104456D01*
X27406812Y-172376D01*
X27257512Y-202073D01*
X27232742Y-207000D01*
X27055258Y-207000D01*
X27030488Y-202073D01*
X26881188Y-172376D01*
X26717216Y-104456D01*
X26569646Y-5853D01*
X26444147Y119646D01*
X26345544Y267216D01*
X26277624Y431188D01*
X26243000Y605259D01*
X26243000Y782741D01*
X26277624Y956812D01*
X26345544Y1120784D01*
X26444147Y1268354D01*
X26569646Y1393853D01*
X26717216Y1492456D01*
X26881188Y1560376D01*
X27030488Y1590073D01*
X27055258Y1595000D01*
X27232742Y1595000D01*
X27257512Y1590073D01*
G37*
G36*
X24717512Y1590073D02*
G01*
X24866812Y1560376D01*
X25030784Y1492456D01*
X25178354Y1393853D01*
X25303853Y1268354D01*
X25402456Y1120784D01*
X25470376Y956812D01*
X25505000Y782741D01*
X25505000Y605259D01*
X25470376Y431188D01*
X25402456Y267216D01*
X25303853Y119646D01*
X25178354Y-5853D01*
X25030784Y-104456D01*
X24866812Y-172376D01*
X24717512Y-202073D01*
X24692742Y-207000D01*
X24515258Y-207000D01*
X24490488Y-202073D01*
X24341188Y-172376D01*
X24177216Y-104456D01*
X24029646Y-5853D01*
X23904147Y119646D01*
X23805544Y267216D01*
X23737624Y431188D01*
X23703000Y605259D01*
X23703000Y782741D01*
X23737624Y956812D01*
X23805544Y1120784D01*
X23904147Y1268354D01*
X24029646Y1393853D01*
X24177216Y1492456D01*
X24341188Y1560376D01*
X24490488Y1590073D01*
X24515258Y1595000D01*
X24692742Y1595000D01*
X24717512Y1590073D01*
G37*
G36*
X34877512Y4130073D02*
G01*
X35026812Y4100376D01*
X35190784Y4032456D01*
X35338354Y3933853D01*
X35463853Y3808354D01*
X35562456Y3660784D01*
X35630376Y3496812D01*
X35665000Y3322741D01*
X35665000Y3145259D01*
X35630376Y2971188D01*
X35562456Y2807216D01*
X35463853Y2659646D01*
X35338354Y2534147D01*
X35190784Y2435544D01*
X35026812Y2367624D01*
X34877512Y2337927D01*
X34852742Y2333000D01*
X34675258Y2333000D01*
X34650488Y2337927D01*
X34501188Y2367624D01*
X34337216Y2435544D01*
X34189646Y2534147D01*
X34064147Y2659646D01*
X33965544Y2807216D01*
X33897624Y2971188D01*
X33863000Y3145259D01*
X33863000Y3322741D01*
X33897624Y3496812D01*
X33965544Y3660784D01*
X34064147Y3808354D01*
X34189646Y3933853D01*
X34337216Y4032456D01*
X34501188Y4100376D01*
X34650488Y4130073D01*
X34675258Y4135000D01*
X34852742Y4135000D01*
X34877512Y4130073D01*
G37*
G36*
X32337512Y4130073D02*
G01*
X32486812Y4100376D01*
X32650784Y4032456D01*
X32798354Y3933853D01*
X32923853Y3808354D01*
X33022456Y3660784D01*
X33090376Y3496812D01*
X33125000Y3322741D01*
X33125000Y3145259D01*
X33090376Y2971188D01*
X33022456Y2807216D01*
X32923853Y2659646D01*
X32798354Y2534147D01*
X32650784Y2435544D01*
X32486812Y2367624D01*
X32337512Y2337927D01*
X32312742Y2333000D01*
X32135258Y2333000D01*
X32110488Y2337927D01*
X31961188Y2367624D01*
X31797216Y2435544D01*
X31649646Y2534147D01*
X31524147Y2659646D01*
X31425544Y2807216D01*
X31357624Y2971188D01*
X31323000Y3145259D01*
X31323000Y3322741D01*
X31357624Y3496812D01*
X31425544Y3660784D01*
X31524147Y3808354D01*
X31649646Y3933853D01*
X31797216Y4032456D01*
X31961188Y4100376D01*
X32110488Y4130073D01*
X32135258Y4135000D01*
X32312742Y4135000D01*
X32337512Y4130073D01*
G37*
G36*
X24717512Y4130073D02*
G01*
X24866812Y4100376D01*
X25030784Y4032456D01*
X25178354Y3933853D01*
X25303853Y3808354D01*
X25402456Y3660784D01*
X25470376Y3496812D01*
X25505000Y3322741D01*
X25505000Y3145259D01*
X25470376Y2971188D01*
X25402456Y2807216D01*
X25303853Y2659646D01*
X25178354Y2534147D01*
X25030784Y2435544D01*
X24866812Y2367624D01*
X24717512Y2337927D01*
X24692742Y2333000D01*
X24515258Y2333000D01*
X24490488Y2337927D01*
X24341188Y2367624D01*
X24177216Y2435544D01*
X24029646Y2534147D01*
X23904147Y2659646D01*
X23805544Y2807216D01*
X23737624Y2971188D01*
X23703000Y3145259D01*
X23703000Y3322741D01*
X23737624Y3496812D01*
X23805544Y3660784D01*
X23904147Y3808354D01*
X24029646Y3933853D01*
X24177216Y4032456D01*
X24341188Y4100376D01*
X24490488Y4130073D01*
X24515258Y4135000D01*
X24692742Y4135000D01*
X24717512Y4130073D01*
G37*
G36*
X27257512Y4130073D02*
G01*
X27406812Y4100376D01*
X27570784Y4032456D01*
X27718354Y3933853D01*
X27843853Y3808354D01*
X27942456Y3660784D01*
X28010376Y3496812D01*
X28045000Y3322741D01*
X28045000Y3145259D01*
X28010376Y2971188D01*
X27942456Y2807216D01*
X27843853Y2659646D01*
X27718354Y2534147D01*
X27570784Y2435544D01*
X27406812Y2367624D01*
X27257512Y2337927D01*
X27232742Y2333000D01*
X27055258Y2333000D01*
X27030488Y2337927D01*
X26881188Y2367624D01*
X26717216Y2435544D01*
X26569646Y2534147D01*
X26444147Y2659646D01*
X26345544Y2807216D01*
X26277624Y2971188D01*
X26243000Y3145259D01*
X26243000Y3322741D01*
X26277624Y3496812D01*
X26345544Y3660784D01*
X26444147Y3808354D01*
X26569646Y3933853D01*
X26717216Y4032456D01*
X26881188Y4100376D01*
X27030488Y4130073D01*
X27055258Y4135000D01*
X27232742Y4135000D01*
X27257512Y4130073D01*
G37*
G36*
X29797512Y4130073D02*
G01*
X29946812Y4100376D01*
X30110784Y4032456D01*
X30258354Y3933853D01*
X30383853Y3808354D01*
X30482456Y3660784D01*
X30550376Y3496812D01*
X30585000Y3322741D01*
X30585000Y3145259D01*
X30550376Y2971188D01*
X30482456Y2807216D01*
X30383853Y2659646D01*
X30258354Y2534147D01*
X30110784Y2435544D01*
X29946812Y2367624D01*
X29797512Y2337927D01*
X29772742Y2333000D01*
X29595258Y2333000D01*
X29570488Y2337927D01*
X29421188Y2367624D01*
X29257216Y2435544D01*
X29109646Y2534147D01*
X28984147Y2659646D01*
X28885544Y2807216D01*
X28817624Y2971188D01*
X28783000Y3145259D01*
X28783000Y3322741D01*
X28817624Y3496812D01*
X28885544Y3660784D01*
X28984147Y3808354D01*
X29109646Y3933853D01*
X29257216Y4032456D01*
X29421188Y4100376D01*
X29570488Y4130073D01*
X29595258Y4135000D01*
X29772742Y4135000D01*
X29797512Y4130073D01*
G37*
M02*
