G04 #@! TF.GenerationSoftware,KiCad,Pcbnew,(5.1.5)-3*
G04 #@! TF.CreationDate,2020-08-13T18:58:06-07:00*
G04 #@! TF.ProjectId,EsperDNS,45737065-7244-44e5-932e-6b696361645f,rev?*
G04 #@! TF.SameCoordinates,Original*
G04 #@! TF.FileFunction,Copper,L2,Bot*
G04 #@! TF.FilePolarity,Positive*
%FSLAX46Y46*%
G04 Gerber Fmt 4.6, Leading zero omitted, Abs format (unit mm)*
G04 Created by KiCad (PCBNEW (5.1.5)-3) date 2020-08-13 18:58:06*
%MOMM*%
%LPD*%
G04 APERTURE LIST*
%ADD10C,4.266000*%
%ADD11C,2.355000*%
%ADD12C,1.398000*%
%ADD13C,1.530000*%
%ADD14O,1.700000X1.700000*%
%ADD15R,1.700000X1.700000*%
%ADD16C,0.600000*%
%ADD17C,0.254000*%
%ADD18C,0.127000*%
G04 APERTURE END LIST*
D10*
X171170000Y-105300000D03*
X182600000Y-105300000D03*
D11*
X169010000Y-102250000D03*
X184760000Y-102250000D03*
D12*
X172440000Y-98950000D03*
X181330000Y-96410000D03*
X173710000Y-96410000D03*
X180060000Y-98950000D03*
X174980000Y-98950000D03*
X178790000Y-96410000D03*
X176250000Y-96410000D03*
X177520000Y-98950000D03*
D13*
X170560000Y-110200000D03*
X183210000Y-108680000D03*
X173010000Y-108680000D03*
X180760000Y-110200000D03*
D14*
X171704000Y-70866000D03*
X171704000Y-73406000D03*
X174244000Y-70866000D03*
X174244000Y-73406000D03*
X176784000Y-70866000D03*
X176784000Y-73406000D03*
X179324000Y-70866000D03*
X179324000Y-73406000D03*
X181864000Y-70866000D03*
D15*
X181864000Y-73406000D03*
D16*
X147574000Y-85090000D03*
X151892000Y-83820000D03*
X150368000Y-85598000D03*
X153670000Y-85598000D03*
X153670000Y-82296000D03*
X150368000Y-82296000D03*
X177546000Y-86868000D03*
X178150000Y-85850000D03*
X176800000Y-85900000D03*
X169400000Y-93500000D03*
X177550000Y-91100000D03*
X180650000Y-89950000D03*
X172600000Y-91800000D03*
X167894000Y-88646000D03*
X151892000Y-88900000D03*
X151892000Y-79248000D03*
X145288000Y-94742000D03*
X141224000Y-108712000D03*
X161036000Y-110998000D03*
X184404000Y-97282000D03*
X181102000Y-77724000D03*
X163322000Y-76708000D03*
X162052000Y-100584000D03*
X167132000Y-84836000D03*
X146050000Y-85852000D03*
X146812000Y-76200000D03*
X157988000Y-86868000D03*
X166116000Y-101346000D03*
X169926000Y-74422000D03*
X180594000Y-72136000D03*
X177800000Y-83350000D03*
X186944000Y-84328000D03*
X181102000Y-86614000D03*
X180550000Y-87300000D03*
X163150000Y-80000000D03*
X169150000Y-79400000D03*
X171700000Y-78850000D03*
X148050000Y-86250000D03*
X173200000Y-77700000D03*
X146850000Y-87600000D03*
X172112500Y-83100000D03*
X163100000Y-86350000D03*
X165750000Y-89800000D03*
X174066000Y-87300000D03*
X174650000Y-86800000D03*
X165950000Y-85750000D03*
X174650000Y-87800000D03*
X168950000Y-88200000D03*
X174450000Y-85150000D03*
X168700000Y-81800000D03*
X171300000Y-80650000D03*
X147450000Y-90150000D03*
X180750000Y-85800000D03*
X164332000Y-90700000D03*
D17*
X186944000Y-84328000D02*
X185928000Y-83312000D01*
X185890000Y-83350000D02*
X177800000Y-83350000D01*
X185928000Y-83312000D02*
X185890000Y-83350000D01*
X176250000Y-97680000D02*
X176250000Y-96410000D01*
X177520000Y-98950000D02*
X176250000Y-97680000D01*
D18*
X181914000Y-86614000D02*
X181102000Y-86614000D01*
X171515501Y-111155501D02*
X183044499Y-111155501D01*
X187200000Y-107000000D02*
X187200000Y-91900000D01*
X170560000Y-110200000D02*
X171515501Y-111155501D01*
X183044499Y-111155501D02*
X187200000Y-107000000D01*
X187200000Y-91900000D02*
X181914000Y-86614000D01*
X181102000Y-86614000D02*
X181102000Y-86614000D01*
X183974999Y-107915001D02*
X183210000Y-108680000D01*
X186350000Y-105540000D02*
X183974999Y-107915001D01*
X180550000Y-87300000D02*
X186350000Y-93100000D01*
X186350000Y-93100000D02*
X186350000Y-105540000D01*
X163574264Y-80000000D02*
X164174264Y-79400000D01*
X163150000Y-80000000D02*
X163574264Y-80000000D01*
X164174264Y-79400000D02*
X169150000Y-79400000D01*
X169150000Y-79400000D02*
X169150000Y-79400000D01*
X148050000Y-86250000D02*
X148050000Y-86250000D01*
X148400000Y-85900000D02*
X148050000Y-86250000D01*
X171700000Y-78850000D02*
X171275736Y-78850000D01*
X148400000Y-81350000D02*
X148400000Y-85900000D01*
X171275736Y-78850000D02*
X170475736Y-78050000D01*
X170475736Y-78050000D02*
X151700000Y-78050000D01*
X151700000Y-78050000D02*
X148400000Y-81350000D01*
X146850000Y-87600000D02*
X146850000Y-87600000D01*
X151450000Y-75950000D02*
X146850000Y-80550000D01*
X171025736Y-75950000D02*
X151450000Y-75950000D01*
X146850000Y-80550000D02*
X146850000Y-87600000D01*
X173200000Y-77700000D02*
X172775736Y-77700000D01*
X172775736Y-77700000D02*
X171025736Y-75950000D01*
X166350000Y-83100000D02*
X163100000Y-86350000D01*
X172112500Y-83100000D02*
X166350000Y-83100000D01*
X165750000Y-89250000D02*
X165750000Y-89800000D01*
X167700000Y-87300000D02*
X165750000Y-89250000D01*
X174066000Y-87300000D02*
X167700000Y-87300000D01*
X174650000Y-86800000D02*
X174200000Y-86350000D01*
X166550000Y-86350000D02*
X165950000Y-85750000D01*
X174200000Y-86350000D02*
X166550000Y-86350000D01*
X168950000Y-88200000D02*
X168950000Y-88200000D01*
X169350000Y-88600000D02*
X168950000Y-88200000D01*
X174650000Y-87800000D02*
X173850000Y-88600000D01*
X173850000Y-88600000D02*
X169350000Y-88600000D01*
X174450000Y-85150000D02*
X174450000Y-83900000D01*
X174450000Y-83900000D02*
X173150000Y-82600000D01*
X173150000Y-82600000D02*
X173100000Y-82550000D01*
X172350000Y-81800000D02*
X169124264Y-81800000D01*
X169124264Y-81800000D02*
X168700000Y-81800000D01*
X173150000Y-82600000D02*
X172350000Y-81800000D01*
X147450000Y-90150000D02*
X147450000Y-90150000D01*
X161450000Y-80850000D02*
X152150000Y-90150000D01*
X171300000Y-80650000D02*
X171100000Y-80850000D01*
X152150000Y-90150000D02*
X147450000Y-90150000D01*
X171100000Y-80850000D02*
X161450000Y-80850000D01*
X180283971Y-85800000D02*
X178199971Y-87884000D01*
X176516000Y-87884000D02*
X173700000Y-90700000D01*
X180750000Y-85800000D02*
X180283971Y-85800000D01*
X178199971Y-87884000D02*
X176516000Y-87884000D01*
X173700000Y-90700000D02*
X164332000Y-90700000D01*
D17*
G36*
X187619801Y-115619800D02*
G01*
X186877000Y-115619800D01*
X186877000Y-107879776D01*
X187464722Y-107292054D01*
X187479734Y-107279734D01*
X187528933Y-107219786D01*
X187565490Y-107151391D01*
X187588003Y-107077179D01*
X187593700Y-107019333D01*
X187593700Y-107019325D01*
X187595603Y-107000000D01*
X187593700Y-106980675D01*
X187593700Y-91919325D01*
X187595603Y-91900000D01*
X187593700Y-91880675D01*
X187593700Y-91880667D01*
X187588003Y-91822821D01*
X187565490Y-91748609D01*
X187528933Y-91680214D01*
X187479734Y-91620266D01*
X187464720Y-91607944D01*
X182206060Y-86349285D01*
X182193734Y-86334266D01*
X182133786Y-86285067D01*
X182065391Y-86248510D01*
X181991179Y-86225997D01*
X181933333Y-86220300D01*
X181933322Y-86220300D01*
X181914000Y-86218397D01*
X181894678Y-86220300D01*
X181596873Y-86220300D01*
X181591508Y-86212271D01*
X181503729Y-86124492D01*
X181400512Y-86055524D01*
X181337153Y-86029280D01*
X181355982Y-85983822D01*
X181380200Y-85862069D01*
X181380200Y-85737931D01*
X181355982Y-85616178D01*
X181308476Y-85501488D01*
X181239508Y-85398271D01*
X181151729Y-85310492D01*
X181048512Y-85241524D01*
X180933822Y-85194018D01*
X180812069Y-85169800D01*
X180687931Y-85169800D01*
X180566178Y-85194018D01*
X180451488Y-85241524D01*
X180348271Y-85310492D01*
X180260492Y-85398271D01*
X180254457Y-85407303D01*
X180206792Y-85411997D01*
X180148324Y-85429734D01*
X180132580Y-85434510D01*
X180064185Y-85471067D01*
X180019253Y-85507942D01*
X180019250Y-85507945D01*
X180004237Y-85520266D01*
X179991915Y-85535280D01*
X178036896Y-87490300D01*
X176535322Y-87490300D01*
X176515999Y-87488397D01*
X176496677Y-87490300D01*
X176496667Y-87490300D01*
X176438821Y-87495997D01*
X176364609Y-87518510D01*
X176332770Y-87535528D01*
X176296213Y-87555067D01*
X176251282Y-87591942D01*
X176251279Y-87591945D01*
X176236266Y-87604266D01*
X176223944Y-87619280D01*
X173536925Y-90306300D01*
X166126598Y-90306300D01*
X166151729Y-90289508D01*
X166239508Y-90201729D01*
X166308476Y-90098512D01*
X166355982Y-89983822D01*
X166380200Y-89862069D01*
X166380200Y-89737931D01*
X166355982Y-89616178D01*
X166308476Y-89501488D01*
X166239508Y-89398271D01*
X166199006Y-89357769D01*
X167863076Y-87693700D01*
X168573402Y-87693700D01*
X168548271Y-87710492D01*
X168460492Y-87798271D01*
X168391524Y-87901488D01*
X168344018Y-88016178D01*
X168319800Y-88137931D01*
X168319800Y-88262069D01*
X168344018Y-88383822D01*
X168391524Y-88498512D01*
X168460492Y-88601729D01*
X168548271Y-88689508D01*
X168651488Y-88758476D01*
X168766178Y-88805982D01*
X168887931Y-88830200D01*
X169012069Y-88830200D01*
X169021540Y-88828316D01*
X169057944Y-88864720D01*
X169070266Y-88879734D01*
X169085279Y-88892055D01*
X169085282Y-88892058D01*
X169130213Y-88928933D01*
X169166770Y-88948472D01*
X169198609Y-88965490D01*
X169272821Y-88988003D01*
X169330667Y-88993700D01*
X169330677Y-88993700D01*
X169349999Y-88995603D01*
X169369322Y-88993700D01*
X173830678Y-88993700D01*
X173850000Y-88995603D01*
X173869322Y-88993700D01*
X173869333Y-88993700D01*
X173927179Y-88988003D01*
X174001391Y-88965490D01*
X174069786Y-88928933D01*
X174129734Y-88879734D01*
X174142060Y-88864715D01*
X174578460Y-88428316D01*
X174587931Y-88430200D01*
X174712069Y-88430200D01*
X174833822Y-88405982D01*
X174948512Y-88358476D01*
X175051729Y-88289508D01*
X175139508Y-88201729D01*
X175208476Y-88098512D01*
X175255982Y-87983822D01*
X175280200Y-87862069D01*
X175280200Y-87737931D01*
X175255982Y-87616178D01*
X175208476Y-87501488D01*
X175139508Y-87398271D01*
X175051729Y-87310492D01*
X175036027Y-87300000D01*
X175051729Y-87289508D01*
X175139508Y-87201729D01*
X175208476Y-87098512D01*
X175255982Y-86983822D01*
X175280200Y-86862069D01*
X175280200Y-86737931D01*
X175255982Y-86616178D01*
X175208476Y-86501488D01*
X175139508Y-86398271D01*
X175051729Y-86310492D01*
X174948512Y-86241524D01*
X174833822Y-86194018D01*
X174712069Y-86169800D01*
X174587931Y-86169800D01*
X174578459Y-86171684D01*
X174492058Y-86085283D01*
X174479734Y-86070266D01*
X174419786Y-86021067D01*
X174351391Y-85984510D01*
X174277179Y-85961997D01*
X174219333Y-85956300D01*
X174219322Y-85956300D01*
X174200000Y-85954397D01*
X174180678Y-85956300D01*
X166713076Y-85956300D01*
X166578316Y-85821540D01*
X166580200Y-85812069D01*
X166580200Y-85687931D01*
X166555982Y-85566178D01*
X166508476Y-85451488D01*
X166439508Y-85348271D01*
X166351729Y-85260492D01*
X166248512Y-85191524D01*
X166133822Y-85144018D01*
X166012069Y-85119800D01*
X165887931Y-85119800D01*
X165766178Y-85144018D01*
X165651488Y-85191524D01*
X165548271Y-85260492D01*
X165460492Y-85348271D01*
X165391524Y-85451488D01*
X165344018Y-85566178D01*
X165319800Y-85687931D01*
X165319800Y-85812069D01*
X165344018Y-85933822D01*
X165391524Y-86048512D01*
X165460492Y-86151729D01*
X165548271Y-86239508D01*
X165651488Y-86308476D01*
X165766178Y-86355982D01*
X165887931Y-86380200D01*
X166012069Y-86380200D01*
X166021540Y-86378316D01*
X166257944Y-86614720D01*
X166270266Y-86629734D01*
X166285279Y-86642055D01*
X166285282Y-86642058D01*
X166326724Y-86676069D01*
X166330214Y-86678933D01*
X166398609Y-86715490D01*
X166472821Y-86738003D01*
X166530667Y-86743700D01*
X166530677Y-86743700D01*
X166549999Y-86745603D01*
X166569322Y-86743700D01*
X173764231Y-86743700D01*
X173664271Y-86810492D01*
X173576492Y-86898271D01*
X173571127Y-86906300D01*
X167719322Y-86906300D01*
X167699999Y-86904397D01*
X167680677Y-86906300D01*
X167680667Y-86906300D01*
X167622821Y-86911997D01*
X167548609Y-86934510D01*
X167517028Y-86951390D01*
X167480213Y-86971067D01*
X167435282Y-87007942D01*
X167435279Y-87007945D01*
X167420266Y-87020266D01*
X167407944Y-87035280D01*
X165485285Y-88957940D01*
X165470266Y-88970266D01*
X165421067Y-89030215D01*
X165384510Y-89098610D01*
X165361997Y-89172822D01*
X165356300Y-89230668D01*
X165356300Y-89230678D01*
X165354397Y-89250000D01*
X165356300Y-89269323D01*
X165356300Y-89305127D01*
X165348271Y-89310492D01*
X165260492Y-89398271D01*
X165191524Y-89501488D01*
X165144018Y-89616178D01*
X165119800Y-89737931D01*
X165119800Y-89862069D01*
X165144018Y-89983822D01*
X165191524Y-90098512D01*
X165260492Y-90201729D01*
X165348271Y-90289508D01*
X165373402Y-90306300D01*
X164826873Y-90306300D01*
X164821508Y-90298271D01*
X164733729Y-90210492D01*
X164630512Y-90141524D01*
X164515822Y-90094018D01*
X164394069Y-90069800D01*
X164269931Y-90069800D01*
X164148178Y-90094018D01*
X164033488Y-90141524D01*
X163930271Y-90210492D01*
X163842492Y-90298271D01*
X163773524Y-90401488D01*
X163726018Y-90516178D01*
X163701800Y-90637931D01*
X163701800Y-90762069D01*
X163726018Y-90883822D01*
X163773524Y-90998512D01*
X163842492Y-91101729D01*
X163930271Y-91189508D01*
X164033488Y-91258476D01*
X164148178Y-91305982D01*
X164269931Y-91330200D01*
X164394069Y-91330200D01*
X164515822Y-91305982D01*
X164630512Y-91258476D01*
X164733729Y-91189508D01*
X164821508Y-91101729D01*
X164826873Y-91093700D01*
X173680678Y-91093700D01*
X173700000Y-91095603D01*
X173719322Y-91093700D01*
X173719333Y-91093700D01*
X173777179Y-91088003D01*
X173851391Y-91065490D01*
X173919786Y-91028933D01*
X173979734Y-90979734D01*
X173992060Y-90964715D01*
X176679076Y-88277700D01*
X178180649Y-88277700D01*
X178199971Y-88279603D01*
X178219293Y-88277700D01*
X178219304Y-88277700D01*
X178277150Y-88272003D01*
X178351362Y-88249490D01*
X178419757Y-88212933D01*
X178479705Y-88163734D01*
X178492031Y-88148715D01*
X180350050Y-86290697D01*
X180451488Y-86358476D01*
X180514847Y-86384720D01*
X180496018Y-86430178D01*
X180471800Y-86551931D01*
X180471800Y-86673009D01*
X180366178Y-86694018D01*
X180251488Y-86741524D01*
X180148271Y-86810492D01*
X180060492Y-86898271D01*
X179991524Y-87001488D01*
X179944018Y-87116178D01*
X179919800Y-87237931D01*
X179919800Y-87362069D01*
X179944018Y-87483822D01*
X179991524Y-87598512D01*
X180060492Y-87701729D01*
X180148271Y-87789508D01*
X180251488Y-87858476D01*
X180366178Y-87905982D01*
X180487931Y-87930200D01*
X180612069Y-87930200D01*
X180621541Y-87928316D01*
X185956300Y-93263076D01*
X185956301Y-100423000D01*
X167050000Y-100423000D01*
X167025224Y-100425440D01*
X167001399Y-100432667D01*
X166979443Y-100444403D01*
X166960197Y-100460197D01*
X166944403Y-100479443D01*
X166932667Y-100501399D01*
X166925440Y-100525224D01*
X166923000Y-100550000D01*
X166923000Y-101000000D01*
X166923001Y-101000410D01*
X166970160Y-115619800D01*
X139380200Y-115619800D01*
X139380200Y-102484987D01*
X141163800Y-102484987D01*
X141163800Y-102747013D01*
X141214919Y-103004005D01*
X141315192Y-103246086D01*
X141460766Y-103463953D01*
X141646047Y-103649234D01*
X141863914Y-103794808D01*
X142105995Y-103895081D01*
X142362987Y-103946200D01*
X142625013Y-103946200D01*
X142882005Y-103895081D01*
X143124086Y-103794808D01*
X143341953Y-103649234D01*
X143527234Y-103463953D01*
X143672808Y-103246086D01*
X143773081Y-103004005D01*
X143824200Y-102747013D01*
X143824200Y-102484987D01*
X143773081Y-102227995D01*
X143672808Y-101985914D01*
X143527234Y-101768047D01*
X143341953Y-101582766D01*
X143124086Y-101437192D01*
X142882005Y-101336919D01*
X142625013Y-101285800D01*
X142362987Y-101285800D01*
X142105995Y-101336919D01*
X141863914Y-101437192D01*
X141646047Y-101582766D01*
X141460766Y-101768047D01*
X141315192Y-101985914D01*
X141214919Y-102227995D01*
X141163800Y-102484987D01*
X139380200Y-102484987D01*
X139380200Y-98848633D01*
X171410800Y-98848633D01*
X171410800Y-99051367D01*
X171450351Y-99250207D01*
X171527935Y-99437509D01*
X171640568Y-99606077D01*
X171783923Y-99749432D01*
X171952491Y-99862065D01*
X172139793Y-99939649D01*
X172338633Y-99979200D01*
X172541367Y-99979200D01*
X172740207Y-99939649D01*
X172927509Y-99862065D01*
X173096077Y-99749432D01*
X173239432Y-99606077D01*
X173352065Y-99437509D01*
X173429649Y-99250207D01*
X173469200Y-99051367D01*
X173469200Y-98848633D01*
X173950800Y-98848633D01*
X173950800Y-99051367D01*
X173990351Y-99250207D01*
X174067935Y-99437509D01*
X174180568Y-99606077D01*
X174323923Y-99749432D01*
X174492491Y-99862065D01*
X174679793Y-99939649D01*
X174878633Y-99979200D01*
X175081367Y-99979200D01*
X175280207Y-99939649D01*
X175467509Y-99862065D01*
X175636077Y-99749432D01*
X175779432Y-99606077D01*
X175892065Y-99437509D01*
X175969649Y-99250207D01*
X176009200Y-99051367D01*
X176009200Y-98848633D01*
X175969649Y-98649793D01*
X175892065Y-98462491D01*
X175779432Y-98293923D01*
X175636077Y-98150568D01*
X175467509Y-98037935D01*
X175280207Y-97960351D01*
X175081367Y-97920800D01*
X174878633Y-97920800D01*
X174679793Y-97960351D01*
X174492491Y-98037935D01*
X174323923Y-98150568D01*
X174180568Y-98293923D01*
X174067935Y-98462491D01*
X173990351Y-98649793D01*
X173950800Y-98848633D01*
X173469200Y-98848633D01*
X173429649Y-98649793D01*
X173352065Y-98462491D01*
X173239432Y-98293923D01*
X173096077Y-98150568D01*
X172927509Y-98037935D01*
X172740207Y-97960351D01*
X172541367Y-97920800D01*
X172338633Y-97920800D01*
X172139793Y-97960351D01*
X171952491Y-98037935D01*
X171783923Y-98150568D01*
X171640568Y-98293923D01*
X171527935Y-98462491D01*
X171450351Y-98649793D01*
X171410800Y-98848633D01*
X139380200Y-98848633D01*
X139380200Y-96308633D01*
X172680800Y-96308633D01*
X172680800Y-96511367D01*
X172720351Y-96710207D01*
X172797935Y-96897509D01*
X172910568Y-97066077D01*
X173053923Y-97209432D01*
X173222491Y-97322065D01*
X173409793Y-97399649D01*
X173608633Y-97439200D01*
X173811367Y-97439200D01*
X174010207Y-97399649D01*
X174197509Y-97322065D01*
X174366077Y-97209432D01*
X174509432Y-97066077D01*
X174622065Y-96897509D01*
X174699649Y-96710207D01*
X174739200Y-96511367D01*
X174739200Y-96308633D01*
X175220800Y-96308633D01*
X175220800Y-96511367D01*
X175260351Y-96710207D01*
X175337935Y-96897509D01*
X175450568Y-97066077D01*
X175593923Y-97209432D01*
X175762491Y-97322065D01*
X175792800Y-97334620D01*
X175792800Y-97657550D01*
X175790589Y-97680000D01*
X175792800Y-97702450D01*
X175792800Y-97702459D01*
X175799415Y-97769626D01*
X175825559Y-97855808D01*
X175868013Y-97935235D01*
X175925147Y-98004853D01*
X175942597Y-98019174D01*
X176542906Y-98619483D01*
X176530351Y-98649793D01*
X176490800Y-98848633D01*
X176490800Y-99051367D01*
X176530351Y-99250207D01*
X176607935Y-99437509D01*
X176720568Y-99606077D01*
X176863923Y-99749432D01*
X177032491Y-99862065D01*
X177219793Y-99939649D01*
X177418633Y-99979200D01*
X177621367Y-99979200D01*
X177820207Y-99939649D01*
X178007509Y-99862065D01*
X178176077Y-99749432D01*
X178319432Y-99606077D01*
X178432065Y-99437509D01*
X178509649Y-99250207D01*
X178549200Y-99051367D01*
X178549200Y-98848633D01*
X179030800Y-98848633D01*
X179030800Y-99051367D01*
X179070351Y-99250207D01*
X179147935Y-99437509D01*
X179260568Y-99606077D01*
X179403923Y-99749432D01*
X179572491Y-99862065D01*
X179759793Y-99939649D01*
X179958633Y-99979200D01*
X180161367Y-99979200D01*
X180360207Y-99939649D01*
X180547509Y-99862065D01*
X180716077Y-99749432D01*
X180859432Y-99606077D01*
X180972065Y-99437509D01*
X181049649Y-99250207D01*
X181089200Y-99051367D01*
X181089200Y-98848633D01*
X181049649Y-98649793D01*
X180972065Y-98462491D01*
X180859432Y-98293923D01*
X180716077Y-98150568D01*
X180547509Y-98037935D01*
X180360207Y-97960351D01*
X180161367Y-97920800D01*
X179958633Y-97920800D01*
X179759793Y-97960351D01*
X179572491Y-98037935D01*
X179403923Y-98150568D01*
X179260568Y-98293923D01*
X179147935Y-98462491D01*
X179070351Y-98649793D01*
X179030800Y-98848633D01*
X178549200Y-98848633D01*
X178509649Y-98649793D01*
X178432065Y-98462491D01*
X178319432Y-98293923D01*
X178176077Y-98150568D01*
X178007509Y-98037935D01*
X177820207Y-97960351D01*
X177621367Y-97920800D01*
X177418633Y-97920800D01*
X177219793Y-97960351D01*
X177189483Y-97972906D01*
X176707200Y-97490623D01*
X176707200Y-97334620D01*
X176737509Y-97322065D01*
X176906077Y-97209432D01*
X177049432Y-97066077D01*
X177162065Y-96897509D01*
X177239649Y-96710207D01*
X177279200Y-96511367D01*
X177279200Y-96308633D01*
X177760800Y-96308633D01*
X177760800Y-96511367D01*
X177800351Y-96710207D01*
X177877935Y-96897509D01*
X177990568Y-97066077D01*
X178133923Y-97209432D01*
X178302491Y-97322065D01*
X178489793Y-97399649D01*
X178688633Y-97439200D01*
X178891367Y-97439200D01*
X179090207Y-97399649D01*
X179257012Y-97330555D01*
X180589050Y-97330555D01*
X180648389Y-97564221D01*
X180886664Y-97675018D01*
X181141975Y-97737202D01*
X181404512Y-97748382D01*
X181664186Y-97708129D01*
X181911017Y-97617990D01*
X182011611Y-97564221D01*
X182070950Y-97330555D01*
X181330000Y-96589605D01*
X180589050Y-97330555D01*
X179257012Y-97330555D01*
X179277509Y-97322065D01*
X179446077Y-97209432D01*
X179589432Y-97066077D01*
X179702065Y-96897509D01*
X179779649Y-96710207D01*
X179819200Y-96511367D01*
X179819200Y-96484512D01*
X179991618Y-96484512D01*
X180031871Y-96744186D01*
X180122010Y-96991017D01*
X180175779Y-97091611D01*
X180409445Y-97150950D01*
X181150395Y-96410000D01*
X181509605Y-96410000D01*
X182250555Y-97150950D01*
X182484221Y-97091611D01*
X182595018Y-96853336D01*
X182657202Y-96598025D01*
X182668382Y-96335488D01*
X182628129Y-96075814D01*
X182537990Y-95828983D01*
X182484221Y-95728389D01*
X182250555Y-95669050D01*
X181509605Y-96410000D01*
X181150395Y-96410000D01*
X180409445Y-95669050D01*
X180175779Y-95728389D01*
X180064982Y-95966664D01*
X180002798Y-96221975D01*
X179991618Y-96484512D01*
X179819200Y-96484512D01*
X179819200Y-96308633D01*
X179779649Y-96109793D01*
X179702065Y-95922491D01*
X179589432Y-95753923D01*
X179446077Y-95610568D01*
X179277509Y-95497935D01*
X179257013Y-95489445D01*
X180589050Y-95489445D01*
X181330000Y-96230395D01*
X182070950Y-95489445D01*
X182011611Y-95255779D01*
X181773336Y-95144982D01*
X181518025Y-95082798D01*
X181255488Y-95071618D01*
X180995814Y-95111871D01*
X180748983Y-95202010D01*
X180648389Y-95255779D01*
X180589050Y-95489445D01*
X179257013Y-95489445D01*
X179090207Y-95420351D01*
X178891367Y-95380800D01*
X178688633Y-95380800D01*
X178489793Y-95420351D01*
X178302491Y-95497935D01*
X178133923Y-95610568D01*
X177990568Y-95753923D01*
X177877935Y-95922491D01*
X177800351Y-96109793D01*
X177760800Y-96308633D01*
X177279200Y-96308633D01*
X177239649Y-96109793D01*
X177162065Y-95922491D01*
X177049432Y-95753923D01*
X176906077Y-95610568D01*
X176737509Y-95497935D01*
X176550207Y-95420351D01*
X176351367Y-95380800D01*
X176148633Y-95380800D01*
X175949793Y-95420351D01*
X175762491Y-95497935D01*
X175593923Y-95610568D01*
X175450568Y-95753923D01*
X175337935Y-95922491D01*
X175260351Y-96109793D01*
X175220800Y-96308633D01*
X174739200Y-96308633D01*
X174699649Y-96109793D01*
X174622065Y-95922491D01*
X174509432Y-95753923D01*
X174366077Y-95610568D01*
X174197509Y-95497935D01*
X174010207Y-95420351D01*
X173811367Y-95380800D01*
X173608633Y-95380800D01*
X173409793Y-95420351D01*
X173222491Y-95497935D01*
X173053923Y-95610568D01*
X172910568Y-95753923D01*
X172797935Y-95922491D01*
X172720351Y-96109793D01*
X172680800Y-96308633D01*
X139380200Y-96308633D01*
X139380200Y-90087931D01*
X146819800Y-90087931D01*
X146819800Y-90212069D01*
X146844018Y-90333822D01*
X146891524Y-90448512D01*
X146960492Y-90551729D01*
X147048271Y-90639508D01*
X147151488Y-90708476D01*
X147266178Y-90755982D01*
X147387931Y-90780200D01*
X147512069Y-90780200D01*
X147633822Y-90755982D01*
X147748512Y-90708476D01*
X147851729Y-90639508D01*
X147939508Y-90551729D01*
X147944873Y-90543700D01*
X152130678Y-90543700D01*
X152150000Y-90545603D01*
X152169322Y-90543700D01*
X152169333Y-90543700D01*
X152227179Y-90538003D01*
X152301391Y-90515490D01*
X152369786Y-90478933D01*
X152429734Y-90429734D01*
X152442060Y-90414715D01*
X156568844Y-86287931D01*
X162469800Y-86287931D01*
X162469800Y-86412069D01*
X162494018Y-86533822D01*
X162541524Y-86648512D01*
X162610492Y-86751729D01*
X162698271Y-86839508D01*
X162801488Y-86908476D01*
X162916178Y-86955982D01*
X163037931Y-86980200D01*
X163162069Y-86980200D01*
X163283822Y-86955982D01*
X163398512Y-86908476D01*
X163501729Y-86839508D01*
X163589508Y-86751729D01*
X163658476Y-86648512D01*
X163705982Y-86533822D01*
X163730200Y-86412069D01*
X163730200Y-86287931D01*
X163728316Y-86278459D01*
X166513076Y-83493700D01*
X171617627Y-83493700D01*
X171622992Y-83501729D01*
X171710771Y-83589508D01*
X171813988Y-83658476D01*
X171928678Y-83705982D01*
X172050431Y-83730200D01*
X172174569Y-83730200D01*
X172296322Y-83705982D01*
X172411012Y-83658476D01*
X172514229Y-83589508D01*
X172602008Y-83501729D01*
X172670976Y-83398512D01*
X172718482Y-83283822D01*
X172742700Y-83162069D01*
X172742700Y-83037931D01*
X172718482Y-82916178D01*
X172670976Y-82801488D01*
X172602008Y-82698271D01*
X172514229Y-82610492D01*
X172411012Y-82541524D01*
X172296322Y-82494018D01*
X172174569Y-82469800D01*
X172050431Y-82469800D01*
X171928678Y-82494018D01*
X171813988Y-82541524D01*
X171710771Y-82610492D01*
X171622992Y-82698271D01*
X171617627Y-82706300D01*
X166369322Y-82706300D01*
X166349999Y-82704397D01*
X166330677Y-82706300D01*
X166330667Y-82706300D01*
X166272821Y-82711997D01*
X166198609Y-82734510D01*
X166130214Y-82771067D01*
X166085282Y-82807942D01*
X166085279Y-82807945D01*
X166070266Y-82820266D01*
X166057944Y-82835280D01*
X163171541Y-85721684D01*
X163162069Y-85719800D01*
X163037931Y-85719800D01*
X162916178Y-85744018D01*
X162801488Y-85791524D01*
X162698271Y-85860492D01*
X162610492Y-85948271D01*
X162541524Y-86051488D01*
X162494018Y-86166178D01*
X162469800Y-86287931D01*
X156568844Y-86287931D01*
X161613076Y-81243700D01*
X168398231Y-81243700D01*
X168298271Y-81310492D01*
X168210492Y-81398271D01*
X168141524Y-81501488D01*
X168094018Y-81616178D01*
X168069800Y-81737931D01*
X168069800Y-81862069D01*
X168094018Y-81983822D01*
X168141524Y-82098512D01*
X168210492Y-82201729D01*
X168298271Y-82289508D01*
X168401488Y-82358476D01*
X168516178Y-82405982D01*
X168637931Y-82430200D01*
X168762069Y-82430200D01*
X168883822Y-82405982D01*
X168998512Y-82358476D01*
X169101729Y-82289508D01*
X169189508Y-82201729D01*
X169194873Y-82193700D01*
X172186925Y-82193700D01*
X172885282Y-82892058D01*
X172885287Y-82892062D01*
X174056301Y-84063077D01*
X174056300Y-84655127D01*
X174048271Y-84660492D01*
X173960492Y-84748271D01*
X173891524Y-84851488D01*
X173844018Y-84966178D01*
X173819800Y-85087931D01*
X173819800Y-85212069D01*
X173844018Y-85333822D01*
X173891524Y-85448512D01*
X173960492Y-85551729D01*
X174048271Y-85639508D01*
X174151488Y-85708476D01*
X174266178Y-85755982D01*
X174387931Y-85780200D01*
X174512069Y-85780200D01*
X174633822Y-85755982D01*
X174748512Y-85708476D01*
X174851729Y-85639508D01*
X174939508Y-85551729D01*
X175008476Y-85448512D01*
X175055982Y-85333822D01*
X175080200Y-85212069D01*
X175080200Y-85087931D01*
X175055982Y-84966178D01*
X175008476Y-84851488D01*
X174939508Y-84748271D01*
X174851729Y-84660492D01*
X174843700Y-84655127D01*
X174843700Y-83919325D01*
X174845603Y-83900000D01*
X174843700Y-83880675D01*
X174843700Y-83880667D01*
X174838003Y-83822821D01*
X174815490Y-83748609D01*
X174778933Y-83680214D01*
X174761093Y-83658476D01*
X174742058Y-83635282D01*
X174742055Y-83635279D01*
X174729734Y-83620266D01*
X174714720Y-83607944D01*
X174394707Y-83287931D01*
X177169800Y-83287931D01*
X177169800Y-83412069D01*
X177194018Y-83533822D01*
X177241524Y-83648512D01*
X177310492Y-83751729D01*
X177398271Y-83839508D01*
X177501488Y-83908476D01*
X177616178Y-83955982D01*
X177737931Y-83980200D01*
X177862069Y-83980200D01*
X177983822Y-83955982D01*
X178098512Y-83908476D01*
X178201729Y-83839508D01*
X178234037Y-83807200D01*
X185776623Y-83807200D01*
X186313800Y-84344378D01*
X186313800Y-84390069D01*
X186338018Y-84511822D01*
X186385524Y-84626512D01*
X186454492Y-84729729D01*
X186542271Y-84817508D01*
X186645488Y-84886476D01*
X186760178Y-84933982D01*
X186881931Y-84958200D01*
X187006069Y-84958200D01*
X187127822Y-84933982D01*
X187242512Y-84886476D01*
X187345729Y-84817508D01*
X187433508Y-84729729D01*
X187502476Y-84626512D01*
X187549982Y-84511822D01*
X187574200Y-84390069D01*
X187574200Y-84265931D01*
X187549982Y-84144178D01*
X187502476Y-84029488D01*
X187433508Y-83926271D01*
X187345729Y-83838492D01*
X187242512Y-83769524D01*
X187127822Y-83722018D01*
X187006069Y-83697800D01*
X186960378Y-83697800D01*
X186267173Y-83004596D01*
X186252853Y-82987147D01*
X186183235Y-82930013D01*
X186103809Y-82887560D01*
X186017626Y-82861416D01*
X186008244Y-82860492D01*
X185928000Y-82852589D01*
X185927999Y-82852589D01*
X185847756Y-82860492D01*
X185838374Y-82861416D01*
X185752191Y-82887560D01*
X185742387Y-82892800D01*
X178234037Y-82892800D01*
X178201729Y-82860492D01*
X178098512Y-82791524D01*
X177983822Y-82744018D01*
X177862069Y-82719800D01*
X177737931Y-82719800D01*
X177616178Y-82744018D01*
X177501488Y-82791524D01*
X177398271Y-82860492D01*
X177310492Y-82948271D01*
X177241524Y-83051488D01*
X177194018Y-83166178D01*
X177169800Y-83287931D01*
X174394707Y-83287931D01*
X173442062Y-82335287D01*
X173442058Y-82335282D01*
X172642060Y-81535285D01*
X172629734Y-81520266D01*
X172569786Y-81471067D01*
X172501391Y-81434510D01*
X172427179Y-81411997D01*
X172369333Y-81406300D01*
X172369322Y-81406300D01*
X172350000Y-81404397D01*
X172330678Y-81406300D01*
X169194873Y-81406300D01*
X169189508Y-81398271D01*
X169101729Y-81310492D01*
X169001769Y-81243700D01*
X171080678Y-81243700D01*
X171088351Y-81244456D01*
X171116178Y-81255982D01*
X171237931Y-81280200D01*
X171362069Y-81280200D01*
X171483822Y-81255982D01*
X171598512Y-81208476D01*
X171701729Y-81139508D01*
X171789508Y-81051729D01*
X171858476Y-80948512D01*
X171905982Y-80833822D01*
X171930200Y-80712069D01*
X171930200Y-80587931D01*
X171905982Y-80466178D01*
X171858476Y-80351488D01*
X171789508Y-80248271D01*
X171701729Y-80160492D01*
X171598512Y-80091524D01*
X171483822Y-80044018D01*
X171362069Y-80019800D01*
X171237931Y-80019800D01*
X171116178Y-80044018D01*
X171001488Y-80091524D01*
X170898271Y-80160492D01*
X170810492Y-80248271D01*
X170741524Y-80351488D01*
X170698110Y-80456300D01*
X163584937Y-80456300D01*
X163639508Y-80401729D01*
X163648485Y-80388294D01*
X163651443Y-80388003D01*
X163725655Y-80365490D01*
X163794050Y-80328933D01*
X163853998Y-80279734D01*
X163866324Y-80264715D01*
X164337340Y-79793700D01*
X168655127Y-79793700D01*
X168660492Y-79801729D01*
X168748271Y-79889508D01*
X168851488Y-79958476D01*
X168966178Y-80005982D01*
X169087931Y-80030200D01*
X169212069Y-80030200D01*
X169333822Y-80005982D01*
X169448512Y-79958476D01*
X169551729Y-79889508D01*
X169639508Y-79801729D01*
X169708476Y-79698512D01*
X169755982Y-79583822D01*
X169780200Y-79462069D01*
X169780200Y-79337931D01*
X169755982Y-79216178D01*
X169708476Y-79101488D01*
X169639508Y-78998271D01*
X169551729Y-78910492D01*
X169448512Y-78841524D01*
X169333822Y-78794018D01*
X169212069Y-78769800D01*
X169087931Y-78769800D01*
X168966178Y-78794018D01*
X168851488Y-78841524D01*
X168748271Y-78910492D01*
X168660492Y-78998271D01*
X168655127Y-79006300D01*
X164193586Y-79006300D01*
X164174263Y-79004397D01*
X164154941Y-79006300D01*
X164154931Y-79006300D01*
X164097085Y-79011997D01*
X164022873Y-79034510D01*
X163956877Y-79069785D01*
X163954478Y-79071067D01*
X163909546Y-79107942D01*
X163909543Y-79107945D01*
X163894530Y-79120266D01*
X163882208Y-79135280D01*
X163524914Y-79492575D01*
X163448512Y-79441524D01*
X163333822Y-79394018D01*
X163212069Y-79369800D01*
X163087931Y-79369800D01*
X162966178Y-79394018D01*
X162851488Y-79441524D01*
X162748271Y-79510492D01*
X162660492Y-79598271D01*
X162591524Y-79701488D01*
X162544018Y-79816178D01*
X162519800Y-79937931D01*
X162519800Y-80062069D01*
X162544018Y-80183822D01*
X162591524Y-80298512D01*
X162660492Y-80401729D01*
X162715063Y-80456300D01*
X161469322Y-80456300D01*
X161449999Y-80454397D01*
X161430677Y-80456300D01*
X161430667Y-80456300D01*
X161372821Y-80461997D01*
X161298609Y-80484510D01*
X161230214Y-80521067D01*
X161185282Y-80557942D01*
X161185279Y-80557945D01*
X161170266Y-80570266D01*
X161157944Y-80585280D01*
X151986925Y-89756300D01*
X147944873Y-89756300D01*
X147939508Y-89748271D01*
X147851729Y-89660492D01*
X147748512Y-89591524D01*
X147633822Y-89544018D01*
X147512069Y-89519800D01*
X147387931Y-89519800D01*
X147266178Y-89544018D01*
X147151488Y-89591524D01*
X147048271Y-89660492D01*
X146960492Y-89748271D01*
X146891524Y-89851488D01*
X146844018Y-89966178D01*
X146819800Y-90087931D01*
X139380200Y-90087931D01*
X139380200Y-87537931D01*
X146219800Y-87537931D01*
X146219800Y-87662069D01*
X146244018Y-87783822D01*
X146291524Y-87898512D01*
X146360492Y-88001729D01*
X146448271Y-88089508D01*
X146551488Y-88158476D01*
X146666178Y-88205982D01*
X146787931Y-88230200D01*
X146912069Y-88230200D01*
X147033822Y-88205982D01*
X147148512Y-88158476D01*
X147251729Y-88089508D01*
X147339508Y-88001729D01*
X147408476Y-87898512D01*
X147455982Y-87783822D01*
X147480200Y-87662069D01*
X147480200Y-87537931D01*
X147455982Y-87416178D01*
X147408476Y-87301488D01*
X147339508Y-87198271D01*
X147251729Y-87110492D01*
X147243700Y-87105127D01*
X147243700Y-85627236D01*
X147275488Y-85648476D01*
X147390178Y-85695982D01*
X147511931Y-85720200D01*
X147636069Y-85720200D01*
X147739303Y-85699666D01*
X147648271Y-85760492D01*
X147560492Y-85848271D01*
X147491524Y-85951488D01*
X147444018Y-86066178D01*
X147419800Y-86187931D01*
X147419800Y-86312069D01*
X147444018Y-86433822D01*
X147491524Y-86548512D01*
X147560492Y-86651729D01*
X147648271Y-86739508D01*
X147751488Y-86808476D01*
X147866178Y-86855982D01*
X147987931Y-86880200D01*
X148112069Y-86880200D01*
X148233822Y-86855982D01*
X148348512Y-86808476D01*
X148451729Y-86739508D01*
X148539508Y-86651729D01*
X148608476Y-86548512D01*
X148655982Y-86433822D01*
X148680200Y-86312069D01*
X148680200Y-86187931D01*
X148678733Y-86180556D01*
X148679734Y-86179734D01*
X148728933Y-86119786D01*
X148765490Y-86051391D01*
X148788003Y-85977179D01*
X148793700Y-85919333D01*
X148793700Y-85919325D01*
X148795603Y-85900000D01*
X148793700Y-85880675D01*
X148793700Y-81513075D01*
X151863076Y-78443700D01*
X170312661Y-78443700D01*
X170983680Y-79114720D01*
X170996002Y-79129734D01*
X171011015Y-79142055D01*
X171011018Y-79142058D01*
X171055950Y-79178933D01*
X171124345Y-79215490D01*
X171198557Y-79238003D01*
X171201515Y-79238294D01*
X171210492Y-79251729D01*
X171298271Y-79339508D01*
X171401488Y-79408476D01*
X171516178Y-79455982D01*
X171637931Y-79480200D01*
X171762069Y-79480200D01*
X171883822Y-79455982D01*
X171998512Y-79408476D01*
X172101729Y-79339508D01*
X172189508Y-79251729D01*
X172258476Y-79148512D01*
X172305982Y-79033822D01*
X172330200Y-78912069D01*
X172330200Y-78862987D01*
X183581800Y-78862987D01*
X183581800Y-79125013D01*
X183632919Y-79382005D01*
X183733192Y-79624086D01*
X183878766Y-79841953D01*
X184064047Y-80027234D01*
X184281914Y-80172808D01*
X184523995Y-80273081D01*
X184780987Y-80324200D01*
X185043013Y-80324200D01*
X185300005Y-80273081D01*
X185542086Y-80172808D01*
X185759953Y-80027234D01*
X185945234Y-79841953D01*
X186090808Y-79624086D01*
X186191081Y-79382005D01*
X186242200Y-79125013D01*
X186242200Y-78862987D01*
X186191081Y-78605995D01*
X186090808Y-78363914D01*
X185945234Y-78146047D01*
X185759953Y-77960766D01*
X185542086Y-77815192D01*
X185300005Y-77714919D01*
X185043013Y-77663800D01*
X184780987Y-77663800D01*
X184523995Y-77714919D01*
X184281914Y-77815192D01*
X184064047Y-77960766D01*
X183878766Y-78146047D01*
X183733192Y-78363914D01*
X183632919Y-78605995D01*
X183581800Y-78862987D01*
X172330200Y-78862987D01*
X172330200Y-78787931D01*
X172305982Y-78666178D01*
X172258476Y-78551488D01*
X172189508Y-78448271D01*
X172101729Y-78360492D01*
X171998512Y-78291524D01*
X171883822Y-78244018D01*
X171762069Y-78219800D01*
X171637931Y-78219800D01*
X171516178Y-78244018D01*
X171401488Y-78291524D01*
X171325086Y-78342574D01*
X170767796Y-77785285D01*
X170755470Y-77770266D01*
X170695522Y-77721067D01*
X170627127Y-77684510D01*
X170552915Y-77661997D01*
X170495069Y-77656300D01*
X170495058Y-77656300D01*
X170475736Y-77654397D01*
X170456414Y-77656300D01*
X151719325Y-77656300D01*
X151700000Y-77654397D01*
X151680675Y-77656300D01*
X151680667Y-77656300D01*
X151622821Y-77661997D01*
X151548609Y-77684510D01*
X151480214Y-77721067D01*
X151435282Y-77757942D01*
X151435279Y-77757945D01*
X151420266Y-77770266D01*
X151407944Y-77785280D01*
X148135285Y-81057940D01*
X148120266Y-81070266D01*
X148071067Y-81130215D01*
X148034510Y-81198610D01*
X148011997Y-81272822D01*
X148006300Y-81330668D01*
X148006300Y-81330678D01*
X148004397Y-81350000D01*
X148006300Y-81369323D01*
X148006301Y-84631064D01*
X147975729Y-84600492D01*
X147872512Y-84531524D01*
X147757822Y-84484018D01*
X147636069Y-84459800D01*
X147511931Y-84459800D01*
X147390178Y-84484018D01*
X147275488Y-84531524D01*
X147243700Y-84552764D01*
X147243700Y-80713075D01*
X151613076Y-76343700D01*
X170862661Y-76343700D01*
X172483680Y-77964720D01*
X172496002Y-77979734D01*
X172511015Y-77992055D01*
X172511018Y-77992058D01*
X172555950Y-78028933D01*
X172624345Y-78065490D01*
X172698557Y-78088003D01*
X172701515Y-78088294D01*
X172710492Y-78101729D01*
X172798271Y-78189508D01*
X172901488Y-78258476D01*
X173016178Y-78305982D01*
X173137931Y-78330200D01*
X173262069Y-78330200D01*
X173383822Y-78305982D01*
X173498512Y-78258476D01*
X173601729Y-78189508D01*
X173689508Y-78101729D01*
X173758476Y-77998512D01*
X173805982Y-77883822D01*
X173830200Y-77762069D01*
X173830200Y-77637931D01*
X173805982Y-77516178D01*
X173758476Y-77401488D01*
X173689508Y-77298271D01*
X173601729Y-77210492D01*
X173498512Y-77141524D01*
X173383822Y-77094018D01*
X173262069Y-77069800D01*
X173137931Y-77069800D01*
X173016178Y-77094018D01*
X172901488Y-77141524D01*
X172825086Y-77192574D01*
X171317796Y-75685285D01*
X171305470Y-75670266D01*
X171245522Y-75621067D01*
X171177127Y-75584510D01*
X171102915Y-75561997D01*
X171045069Y-75556300D01*
X171045058Y-75556300D01*
X171025736Y-75554397D01*
X171006414Y-75556300D01*
X151469322Y-75556300D01*
X151449999Y-75554397D01*
X151430677Y-75556300D01*
X151430667Y-75556300D01*
X151372821Y-75561997D01*
X151298609Y-75584510D01*
X151266770Y-75601528D01*
X151230213Y-75621067D01*
X151185282Y-75657942D01*
X151185279Y-75657945D01*
X151170266Y-75670266D01*
X151157944Y-75685280D01*
X146585285Y-80257940D01*
X146570266Y-80270266D01*
X146521067Y-80330215D01*
X146484510Y-80398610D01*
X146461997Y-80472822D01*
X146456300Y-80530668D01*
X146456300Y-80530678D01*
X146454397Y-80550000D01*
X146456300Y-80569322D01*
X146456301Y-87105127D01*
X146448271Y-87110492D01*
X146360492Y-87198271D01*
X146291524Y-87301488D01*
X146244018Y-87416178D01*
X146219800Y-87537931D01*
X139380200Y-87537931D01*
X139380200Y-74827000D01*
X167150000Y-74827000D01*
X167175330Y-74824448D01*
X167199122Y-74817116D01*
X167221026Y-74805282D01*
X167240201Y-74789403D01*
X167255909Y-74770087D01*
X167267548Y-74748079D01*
X167274669Y-74724223D01*
X167276999Y-74699436D01*
X167261548Y-71222891D01*
X170262519Y-71222891D01*
X170359843Y-71497252D01*
X170508822Y-71747355D01*
X170703731Y-71963588D01*
X170937080Y-72137641D01*
X171199901Y-72262825D01*
X171303786Y-72294335D01*
X171144966Y-72360121D01*
X170951667Y-72489279D01*
X170787279Y-72653667D01*
X170658121Y-72846966D01*
X170569155Y-73061748D01*
X170523800Y-73289760D01*
X170523800Y-73522240D01*
X170569155Y-73750252D01*
X170658121Y-73965034D01*
X170787279Y-74158333D01*
X170951667Y-74322721D01*
X171144966Y-74451879D01*
X171359748Y-74540845D01*
X171587760Y-74586200D01*
X171820240Y-74586200D01*
X172048252Y-74540845D01*
X172263034Y-74451879D01*
X172456333Y-74322721D01*
X172620721Y-74158333D01*
X172749879Y-73965034D01*
X172838845Y-73750252D01*
X172884200Y-73522240D01*
X172884200Y-73289760D01*
X173063800Y-73289760D01*
X173063800Y-73522240D01*
X173109155Y-73750252D01*
X173198121Y-73965034D01*
X173327279Y-74158333D01*
X173491667Y-74322721D01*
X173684966Y-74451879D01*
X173899748Y-74540845D01*
X174127760Y-74586200D01*
X174360240Y-74586200D01*
X174588252Y-74540845D01*
X174803034Y-74451879D01*
X174996333Y-74322721D01*
X175160721Y-74158333D01*
X175289879Y-73965034D01*
X175378845Y-73750252D01*
X175424200Y-73522240D01*
X175424200Y-73289760D01*
X175603800Y-73289760D01*
X175603800Y-73522240D01*
X175649155Y-73750252D01*
X175738121Y-73965034D01*
X175867279Y-74158333D01*
X176031667Y-74322721D01*
X176224966Y-74451879D01*
X176439748Y-74540845D01*
X176667760Y-74586200D01*
X176900240Y-74586200D01*
X177128252Y-74540845D01*
X177343034Y-74451879D01*
X177536333Y-74322721D01*
X177700721Y-74158333D01*
X177829879Y-73965034D01*
X177918845Y-73750252D01*
X177964200Y-73522240D01*
X177964200Y-73289760D01*
X178143800Y-73289760D01*
X178143800Y-73522240D01*
X178189155Y-73750252D01*
X178278121Y-73965034D01*
X178407279Y-74158333D01*
X178571667Y-74322721D01*
X178764966Y-74451879D01*
X178979748Y-74540845D01*
X179207760Y-74586200D01*
X179440240Y-74586200D01*
X179668252Y-74540845D01*
X179883034Y-74451879D01*
X180076333Y-74322721D01*
X180240721Y-74158333D01*
X180369879Y-73965034D01*
X180458845Y-73750252D01*
X180504200Y-73522240D01*
X180504200Y-73289760D01*
X180458845Y-73061748D01*
X180369879Y-72846966D01*
X180240721Y-72653667D01*
X180143054Y-72556000D01*
X180682203Y-72556000D01*
X180682203Y-74256000D01*
X180688578Y-74320730D01*
X180707460Y-74382973D01*
X180738121Y-74440337D01*
X180779384Y-74490616D01*
X180829663Y-74531879D01*
X180887027Y-74562540D01*
X180949270Y-74581422D01*
X181014000Y-74587797D01*
X182714000Y-74587797D01*
X182778730Y-74581422D01*
X182840973Y-74562540D01*
X182898337Y-74531879D01*
X182948616Y-74490616D01*
X182989879Y-74440337D01*
X183020540Y-74382973D01*
X183039422Y-74320730D01*
X183045797Y-74256000D01*
X183045797Y-72556000D01*
X183039422Y-72491270D01*
X183020540Y-72429027D01*
X182989879Y-72371663D01*
X182948616Y-72321384D01*
X182898337Y-72280121D01*
X182840973Y-72249460D01*
X182778730Y-72230578D01*
X182714000Y-72224203D01*
X181014000Y-72224203D01*
X180949270Y-72230578D01*
X180887027Y-72249460D01*
X180829663Y-72280121D01*
X180779384Y-72321384D01*
X180738121Y-72371663D01*
X180707460Y-72429027D01*
X180688578Y-72491270D01*
X180682203Y-72556000D01*
X180143054Y-72556000D01*
X180076333Y-72489279D01*
X179883034Y-72360121D01*
X179668252Y-72271155D01*
X179440240Y-72225800D01*
X179207760Y-72225800D01*
X178979748Y-72271155D01*
X178764966Y-72360121D01*
X178571667Y-72489279D01*
X178407279Y-72653667D01*
X178278121Y-72846966D01*
X178189155Y-73061748D01*
X178143800Y-73289760D01*
X177964200Y-73289760D01*
X177918845Y-73061748D01*
X177829879Y-72846966D01*
X177700721Y-72653667D01*
X177536333Y-72489279D01*
X177343034Y-72360121D01*
X177128252Y-72271155D01*
X176900240Y-72225800D01*
X176667760Y-72225800D01*
X176439748Y-72271155D01*
X176224966Y-72360121D01*
X176031667Y-72489279D01*
X175867279Y-72653667D01*
X175738121Y-72846966D01*
X175649155Y-73061748D01*
X175603800Y-73289760D01*
X175424200Y-73289760D01*
X175378845Y-73061748D01*
X175289879Y-72846966D01*
X175160721Y-72653667D01*
X174996333Y-72489279D01*
X174803034Y-72360121D01*
X174588252Y-72271155D01*
X174360240Y-72225800D01*
X174127760Y-72225800D01*
X173899748Y-72271155D01*
X173684966Y-72360121D01*
X173491667Y-72489279D01*
X173327279Y-72653667D01*
X173198121Y-72846966D01*
X173109155Y-73061748D01*
X173063800Y-73289760D01*
X172884200Y-73289760D01*
X172838845Y-73061748D01*
X172749879Y-72846966D01*
X172620721Y-72653667D01*
X172456333Y-72489279D01*
X172263034Y-72360121D01*
X172104214Y-72294335D01*
X172208099Y-72262825D01*
X172470920Y-72137641D01*
X172704269Y-71963588D01*
X172899178Y-71747355D01*
X173048157Y-71497252D01*
X173131138Y-71263324D01*
X173198121Y-71425034D01*
X173327279Y-71618333D01*
X173491667Y-71782721D01*
X173684966Y-71911879D01*
X173899748Y-72000845D01*
X174127760Y-72046200D01*
X174360240Y-72046200D01*
X174588252Y-72000845D01*
X174803034Y-71911879D01*
X174996333Y-71782721D01*
X175160721Y-71618333D01*
X175289879Y-71425034D01*
X175378845Y-71210252D01*
X175424200Y-70982240D01*
X175424200Y-70749760D01*
X175603800Y-70749760D01*
X175603800Y-70982240D01*
X175649155Y-71210252D01*
X175738121Y-71425034D01*
X175867279Y-71618333D01*
X176031667Y-71782721D01*
X176224966Y-71911879D01*
X176439748Y-72000845D01*
X176667760Y-72046200D01*
X176900240Y-72046200D01*
X177128252Y-72000845D01*
X177343034Y-71911879D01*
X177536333Y-71782721D01*
X177700721Y-71618333D01*
X177829879Y-71425034D01*
X177918845Y-71210252D01*
X177964200Y-70982240D01*
X177964200Y-70749760D01*
X178143800Y-70749760D01*
X178143800Y-70982240D01*
X178189155Y-71210252D01*
X178278121Y-71425034D01*
X178407279Y-71618333D01*
X178571667Y-71782721D01*
X178764966Y-71911879D01*
X178979748Y-72000845D01*
X179207760Y-72046200D01*
X179440240Y-72046200D01*
X179668252Y-72000845D01*
X179883034Y-71911879D01*
X180076333Y-71782721D01*
X180240721Y-71618333D01*
X180369879Y-71425034D01*
X180458845Y-71210252D01*
X180504200Y-70982240D01*
X180504200Y-70749760D01*
X180683800Y-70749760D01*
X180683800Y-70982240D01*
X180729155Y-71210252D01*
X180818121Y-71425034D01*
X180947279Y-71618333D01*
X181111667Y-71782721D01*
X181304966Y-71911879D01*
X181519748Y-72000845D01*
X181747760Y-72046200D01*
X181980240Y-72046200D01*
X182208252Y-72000845D01*
X182423034Y-71911879D01*
X182616333Y-71782721D01*
X182780721Y-71618333D01*
X182909879Y-71425034D01*
X182998845Y-71210252D01*
X183044200Y-70982240D01*
X183044200Y-70749760D01*
X182998845Y-70521748D01*
X182909879Y-70306966D01*
X182780721Y-70113667D01*
X182616333Y-69949279D01*
X182423034Y-69820121D01*
X182208252Y-69731155D01*
X181980240Y-69685800D01*
X181747760Y-69685800D01*
X181519748Y-69731155D01*
X181304966Y-69820121D01*
X181111667Y-69949279D01*
X180947279Y-70113667D01*
X180818121Y-70306966D01*
X180729155Y-70521748D01*
X180683800Y-70749760D01*
X180504200Y-70749760D01*
X180458845Y-70521748D01*
X180369879Y-70306966D01*
X180240721Y-70113667D01*
X180076333Y-69949279D01*
X179883034Y-69820121D01*
X179668252Y-69731155D01*
X179440240Y-69685800D01*
X179207760Y-69685800D01*
X178979748Y-69731155D01*
X178764966Y-69820121D01*
X178571667Y-69949279D01*
X178407279Y-70113667D01*
X178278121Y-70306966D01*
X178189155Y-70521748D01*
X178143800Y-70749760D01*
X177964200Y-70749760D01*
X177918845Y-70521748D01*
X177829879Y-70306966D01*
X177700721Y-70113667D01*
X177536333Y-69949279D01*
X177343034Y-69820121D01*
X177128252Y-69731155D01*
X176900240Y-69685800D01*
X176667760Y-69685800D01*
X176439748Y-69731155D01*
X176224966Y-69820121D01*
X176031667Y-69949279D01*
X175867279Y-70113667D01*
X175738121Y-70306966D01*
X175649155Y-70521748D01*
X175603800Y-70749760D01*
X175424200Y-70749760D01*
X175378845Y-70521748D01*
X175289879Y-70306966D01*
X175160721Y-70113667D01*
X174996333Y-69949279D01*
X174803034Y-69820121D01*
X174588252Y-69731155D01*
X174360240Y-69685800D01*
X174127760Y-69685800D01*
X173899748Y-69731155D01*
X173684966Y-69820121D01*
X173491667Y-69949279D01*
X173327279Y-70113667D01*
X173198121Y-70306966D01*
X173131138Y-70468676D01*
X173048157Y-70234748D01*
X172899178Y-69984645D01*
X172704269Y-69768412D01*
X172470920Y-69594359D01*
X172208099Y-69469175D01*
X172060890Y-69424524D01*
X171831000Y-69545845D01*
X171831000Y-70739000D01*
X171851000Y-70739000D01*
X171851000Y-70993000D01*
X171831000Y-70993000D01*
X171831000Y-71013000D01*
X171577000Y-71013000D01*
X171577000Y-70993000D01*
X170383186Y-70993000D01*
X170262519Y-71222891D01*
X167261548Y-71222891D01*
X167258376Y-70509109D01*
X170262519Y-70509109D01*
X170383186Y-70739000D01*
X171577000Y-70739000D01*
X171577000Y-69545845D01*
X171347110Y-69424524D01*
X171199901Y-69469175D01*
X170937080Y-69594359D01*
X170703731Y-69768412D01*
X170508822Y-69984645D01*
X170359843Y-70234748D01*
X170262519Y-70509109D01*
X167258376Y-70509109D01*
X167248914Y-68380200D01*
X187619800Y-68380200D01*
X187619801Y-115619800D01*
G37*
X187619801Y-115619800D02*
X186877000Y-115619800D01*
X186877000Y-107879776D01*
X187464722Y-107292054D01*
X187479734Y-107279734D01*
X187528933Y-107219786D01*
X187565490Y-107151391D01*
X187588003Y-107077179D01*
X187593700Y-107019333D01*
X187593700Y-107019325D01*
X187595603Y-107000000D01*
X187593700Y-106980675D01*
X187593700Y-91919325D01*
X187595603Y-91900000D01*
X187593700Y-91880675D01*
X187593700Y-91880667D01*
X187588003Y-91822821D01*
X187565490Y-91748609D01*
X187528933Y-91680214D01*
X187479734Y-91620266D01*
X187464720Y-91607944D01*
X182206060Y-86349285D01*
X182193734Y-86334266D01*
X182133786Y-86285067D01*
X182065391Y-86248510D01*
X181991179Y-86225997D01*
X181933333Y-86220300D01*
X181933322Y-86220300D01*
X181914000Y-86218397D01*
X181894678Y-86220300D01*
X181596873Y-86220300D01*
X181591508Y-86212271D01*
X181503729Y-86124492D01*
X181400512Y-86055524D01*
X181337153Y-86029280D01*
X181355982Y-85983822D01*
X181380200Y-85862069D01*
X181380200Y-85737931D01*
X181355982Y-85616178D01*
X181308476Y-85501488D01*
X181239508Y-85398271D01*
X181151729Y-85310492D01*
X181048512Y-85241524D01*
X180933822Y-85194018D01*
X180812069Y-85169800D01*
X180687931Y-85169800D01*
X180566178Y-85194018D01*
X180451488Y-85241524D01*
X180348271Y-85310492D01*
X180260492Y-85398271D01*
X180254457Y-85407303D01*
X180206792Y-85411997D01*
X180148324Y-85429734D01*
X180132580Y-85434510D01*
X180064185Y-85471067D01*
X180019253Y-85507942D01*
X180019250Y-85507945D01*
X180004237Y-85520266D01*
X179991915Y-85535280D01*
X178036896Y-87490300D01*
X176535322Y-87490300D01*
X176515999Y-87488397D01*
X176496677Y-87490300D01*
X176496667Y-87490300D01*
X176438821Y-87495997D01*
X176364609Y-87518510D01*
X176332770Y-87535528D01*
X176296213Y-87555067D01*
X176251282Y-87591942D01*
X176251279Y-87591945D01*
X176236266Y-87604266D01*
X176223944Y-87619280D01*
X173536925Y-90306300D01*
X166126598Y-90306300D01*
X166151729Y-90289508D01*
X166239508Y-90201729D01*
X166308476Y-90098512D01*
X166355982Y-89983822D01*
X166380200Y-89862069D01*
X166380200Y-89737931D01*
X166355982Y-89616178D01*
X166308476Y-89501488D01*
X166239508Y-89398271D01*
X166199006Y-89357769D01*
X167863076Y-87693700D01*
X168573402Y-87693700D01*
X168548271Y-87710492D01*
X168460492Y-87798271D01*
X168391524Y-87901488D01*
X168344018Y-88016178D01*
X168319800Y-88137931D01*
X168319800Y-88262069D01*
X168344018Y-88383822D01*
X168391524Y-88498512D01*
X168460492Y-88601729D01*
X168548271Y-88689508D01*
X168651488Y-88758476D01*
X168766178Y-88805982D01*
X168887931Y-88830200D01*
X169012069Y-88830200D01*
X169021540Y-88828316D01*
X169057944Y-88864720D01*
X169070266Y-88879734D01*
X169085279Y-88892055D01*
X169085282Y-88892058D01*
X169130213Y-88928933D01*
X169166770Y-88948472D01*
X169198609Y-88965490D01*
X169272821Y-88988003D01*
X169330667Y-88993700D01*
X169330677Y-88993700D01*
X169349999Y-88995603D01*
X169369322Y-88993700D01*
X173830678Y-88993700D01*
X173850000Y-88995603D01*
X173869322Y-88993700D01*
X173869333Y-88993700D01*
X173927179Y-88988003D01*
X174001391Y-88965490D01*
X174069786Y-88928933D01*
X174129734Y-88879734D01*
X174142060Y-88864715D01*
X174578460Y-88428316D01*
X174587931Y-88430200D01*
X174712069Y-88430200D01*
X174833822Y-88405982D01*
X174948512Y-88358476D01*
X175051729Y-88289508D01*
X175139508Y-88201729D01*
X175208476Y-88098512D01*
X175255982Y-87983822D01*
X175280200Y-87862069D01*
X175280200Y-87737931D01*
X175255982Y-87616178D01*
X175208476Y-87501488D01*
X175139508Y-87398271D01*
X175051729Y-87310492D01*
X175036027Y-87300000D01*
X175051729Y-87289508D01*
X175139508Y-87201729D01*
X175208476Y-87098512D01*
X175255982Y-86983822D01*
X175280200Y-86862069D01*
X175280200Y-86737931D01*
X175255982Y-86616178D01*
X175208476Y-86501488D01*
X175139508Y-86398271D01*
X175051729Y-86310492D01*
X174948512Y-86241524D01*
X174833822Y-86194018D01*
X174712069Y-86169800D01*
X174587931Y-86169800D01*
X174578459Y-86171684D01*
X174492058Y-86085283D01*
X174479734Y-86070266D01*
X174419786Y-86021067D01*
X174351391Y-85984510D01*
X174277179Y-85961997D01*
X174219333Y-85956300D01*
X174219322Y-85956300D01*
X174200000Y-85954397D01*
X174180678Y-85956300D01*
X166713076Y-85956300D01*
X166578316Y-85821540D01*
X166580200Y-85812069D01*
X166580200Y-85687931D01*
X166555982Y-85566178D01*
X166508476Y-85451488D01*
X166439508Y-85348271D01*
X166351729Y-85260492D01*
X166248512Y-85191524D01*
X166133822Y-85144018D01*
X166012069Y-85119800D01*
X165887931Y-85119800D01*
X165766178Y-85144018D01*
X165651488Y-85191524D01*
X165548271Y-85260492D01*
X165460492Y-85348271D01*
X165391524Y-85451488D01*
X165344018Y-85566178D01*
X165319800Y-85687931D01*
X165319800Y-85812069D01*
X165344018Y-85933822D01*
X165391524Y-86048512D01*
X165460492Y-86151729D01*
X165548271Y-86239508D01*
X165651488Y-86308476D01*
X165766178Y-86355982D01*
X165887931Y-86380200D01*
X166012069Y-86380200D01*
X166021540Y-86378316D01*
X166257944Y-86614720D01*
X166270266Y-86629734D01*
X166285279Y-86642055D01*
X166285282Y-86642058D01*
X166326724Y-86676069D01*
X166330214Y-86678933D01*
X166398609Y-86715490D01*
X166472821Y-86738003D01*
X166530667Y-86743700D01*
X166530677Y-86743700D01*
X166549999Y-86745603D01*
X166569322Y-86743700D01*
X173764231Y-86743700D01*
X173664271Y-86810492D01*
X173576492Y-86898271D01*
X173571127Y-86906300D01*
X167719322Y-86906300D01*
X167699999Y-86904397D01*
X167680677Y-86906300D01*
X167680667Y-86906300D01*
X167622821Y-86911997D01*
X167548609Y-86934510D01*
X167517028Y-86951390D01*
X167480213Y-86971067D01*
X167435282Y-87007942D01*
X167435279Y-87007945D01*
X167420266Y-87020266D01*
X167407944Y-87035280D01*
X165485285Y-88957940D01*
X165470266Y-88970266D01*
X165421067Y-89030215D01*
X165384510Y-89098610D01*
X165361997Y-89172822D01*
X165356300Y-89230668D01*
X165356300Y-89230678D01*
X165354397Y-89250000D01*
X165356300Y-89269323D01*
X165356300Y-89305127D01*
X165348271Y-89310492D01*
X165260492Y-89398271D01*
X165191524Y-89501488D01*
X165144018Y-89616178D01*
X165119800Y-89737931D01*
X165119800Y-89862069D01*
X165144018Y-89983822D01*
X165191524Y-90098512D01*
X165260492Y-90201729D01*
X165348271Y-90289508D01*
X165373402Y-90306300D01*
X164826873Y-90306300D01*
X164821508Y-90298271D01*
X164733729Y-90210492D01*
X164630512Y-90141524D01*
X164515822Y-90094018D01*
X164394069Y-90069800D01*
X164269931Y-90069800D01*
X164148178Y-90094018D01*
X164033488Y-90141524D01*
X163930271Y-90210492D01*
X163842492Y-90298271D01*
X163773524Y-90401488D01*
X163726018Y-90516178D01*
X163701800Y-90637931D01*
X163701800Y-90762069D01*
X163726018Y-90883822D01*
X163773524Y-90998512D01*
X163842492Y-91101729D01*
X163930271Y-91189508D01*
X164033488Y-91258476D01*
X164148178Y-91305982D01*
X164269931Y-91330200D01*
X164394069Y-91330200D01*
X164515822Y-91305982D01*
X164630512Y-91258476D01*
X164733729Y-91189508D01*
X164821508Y-91101729D01*
X164826873Y-91093700D01*
X173680678Y-91093700D01*
X173700000Y-91095603D01*
X173719322Y-91093700D01*
X173719333Y-91093700D01*
X173777179Y-91088003D01*
X173851391Y-91065490D01*
X173919786Y-91028933D01*
X173979734Y-90979734D01*
X173992060Y-90964715D01*
X176679076Y-88277700D01*
X178180649Y-88277700D01*
X178199971Y-88279603D01*
X178219293Y-88277700D01*
X178219304Y-88277700D01*
X178277150Y-88272003D01*
X178351362Y-88249490D01*
X178419757Y-88212933D01*
X178479705Y-88163734D01*
X178492031Y-88148715D01*
X180350050Y-86290697D01*
X180451488Y-86358476D01*
X180514847Y-86384720D01*
X180496018Y-86430178D01*
X180471800Y-86551931D01*
X180471800Y-86673009D01*
X180366178Y-86694018D01*
X180251488Y-86741524D01*
X180148271Y-86810492D01*
X180060492Y-86898271D01*
X179991524Y-87001488D01*
X179944018Y-87116178D01*
X179919800Y-87237931D01*
X179919800Y-87362069D01*
X179944018Y-87483822D01*
X179991524Y-87598512D01*
X180060492Y-87701729D01*
X180148271Y-87789508D01*
X180251488Y-87858476D01*
X180366178Y-87905982D01*
X180487931Y-87930200D01*
X180612069Y-87930200D01*
X180621541Y-87928316D01*
X185956300Y-93263076D01*
X185956301Y-100423000D01*
X167050000Y-100423000D01*
X167025224Y-100425440D01*
X167001399Y-100432667D01*
X166979443Y-100444403D01*
X166960197Y-100460197D01*
X166944403Y-100479443D01*
X166932667Y-100501399D01*
X166925440Y-100525224D01*
X166923000Y-100550000D01*
X166923000Y-101000000D01*
X166923001Y-101000410D01*
X166970160Y-115619800D01*
X139380200Y-115619800D01*
X139380200Y-102484987D01*
X141163800Y-102484987D01*
X141163800Y-102747013D01*
X141214919Y-103004005D01*
X141315192Y-103246086D01*
X141460766Y-103463953D01*
X141646047Y-103649234D01*
X141863914Y-103794808D01*
X142105995Y-103895081D01*
X142362987Y-103946200D01*
X142625013Y-103946200D01*
X142882005Y-103895081D01*
X143124086Y-103794808D01*
X143341953Y-103649234D01*
X143527234Y-103463953D01*
X143672808Y-103246086D01*
X143773081Y-103004005D01*
X143824200Y-102747013D01*
X143824200Y-102484987D01*
X143773081Y-102227995D01*
X143672808Y-101985914D01*
X143527234Y-101768047D01*
X143341953Y-101582766D01*
X143124086Y-101437192D01*
X142882005Y-101336919D01*
X142625013Y-101285800D01*
X142362987Y-101285800D01*
X142105995Y-101336919D01*
X141863914Y-101437192D01*
X141646047Y-101582766D01*
X141460766Y-101768047D01*
X141315192Y-101985914D01*
X141214919Y-102227995D01*
X141163800Y-102484987D01*
X139380200Y-102484987D01*
X139380200Y-98848633D01*
X171410800Y-98848633D01*
X171410800Y-99051367D01*
X171450351Y-99250207D01*
X171527935Y-99437509D01*
X171640568Y-99606077D01*
X171783923Y-99749432D01*
X171952491Y-99862065D01*
X172139793Y-99939649D01*
X172338633Y-99979200D01*
X172541367Y-99979200D01*
X172740207Y-99939649D01*
X172927509Y-99862065D01*
X173096077Y-99749432D01*
X173239432Y-99606077D01*
X173352065Y-99437509D01*
X173429649Y-99250207D01*
X173469200Y-99051367D01*
X173469200Y-98848633D01*
X173950800Y-98848633D01*
X173950800Y-99051367D01*
X173990351Y-99250207D01*
X174067935Y-99437509D01*
X174180568Y-99606077D01*
X174323923Y-99749432D01*
X174492491Y-99862065D01*
X174679793Y-99939649D01*
X174878633Y-99979200D01*
X175081367Y-99979200D01*
X175280207Y-99939649D01*
X175467509Y-99862065D01*
X175636077Y-99749432D01*
X175779432Y-99606077D01*
X175892065Y-99437509D01*
X175969649Y-99250207D01*
X176009200Y-99051367D01*
X176009200Y-98848633D01*
X175969649Y-98649793D01*
X175892065Y-98462491D01*
X175779432Y-98293923D01*
X175636077Y-98150568D01*
X175467509Y-98037935D01*
X175280207Y-97960351D01*
X175081367Y-97920800D01*
X174878633Y-97920800D01*
X174679793Y-97960351D01*
X174492491Y-98037935D01*
X174323923Y-98150568D01*
X174180568Y-98293923D01*
X174067935Y-98462491D01*
X173990351Y-98649793D01*
X173950800Y-98848633D01*
X173469200Y-98848633D01*
X173429649Y-98649793D01*
X173352065Y-98462491D01*
X173239432Y-98293923D01*
X173096077Y-98150568D01*
X172927509Y-98037935D01*
X172740207Y-97960351D01*
X172541367Y-97920800D01*
X172338633Y-97920800D01*
X172139793Y-97960351D01*
X171952491Y-98037935D01*
X171783923Y-98150568D01*
X171640568Y-98293923D01*
X171527935Y-98462491D01*
X171450351Y-98649793D01*
X171410800Y-98848633D01*
X139380200Y-98848633D01*
X139380200Y-96308633D01*
X172680800Y-96308633D01*
X172680800Y-96511367D01*
X172720351Y-96710207D01*
X172797935Y-96897509D01*
X172910568Y-97066077D01*
X173053923Y-97209432D01*
X173222491Y-97322065D01*
X173409793Y-97399649D01*
X173608633Y-97439200D01*
X173811367Y-97439200D01*
X174010207Y-97399649D01*
X174197509Y-97322065D01*
X174366077Y-97209432D01*
X174509432Y-97066077D01*
X174622065Y-96897509D01*
X174699649Y-96710207D01*
X174739200Y-96511367D01*
X174739200Y-96308633D01*
X175220800Y-96308633D01*
X175220800Y-96511367D01*
X175260351Y-96710207D01*
X175337935Y-96897509D01*
X175450568Y-97066077D01*
X175593923Y-97209432D01*
X175762491Y-97322065D01*
X175792800Y-97334620D01*
X175792800Y-97657550D01*
X175790589Y-97680000D01*
X175792800Y-97702450D01*
X175792800Y-97702459D01*
X175799415Y-97769626D01*
X175825559Y-97855808D01*
X175868013Y-97935235D01*
X175925147Y-98004853D01*
X175942597Y-98019174D01*
X176542906Y-98619483D01*
X176530351Y-98649793D01*
X176490800Y-98848633D01*
X176490800Y-99051367D01*
X176530351Y-99250207D01*
X176607935Y-99437509D01*
X176720568Y-99606077D01*
X176863923Y-99749432D01*
X177032491Y-99862065D01*
X177219793Y-99939649D01*
X177418633Y-99979200D01*
X177621367Y-99979200D01*
X177820207Y-99939649D01*
X178007509Y-99862065D01*
X178176077Y-99749432D01*
X178319432Y-99606077D01*
X178432065Y-99437509D01*
X178509649Y-99250207D01*
X178549200Y-99051367D01*
X178549200Y-98848633D01*
X179030800Y-98848633D01*
X179030800Y-99051367D01*
X179070351Y-99250207D01*
X179147935Y-99437509D01*
X179260568Y-99606077D01*
X179403923Y-99749432D01*
X179572491Y-99862065D01*
X179759793Y-99939649D01*
X179958633Y-99979200D01*
X180161367Y-99979200D01*
X180360207Y-99939649D01*
X180547509Y-99862065D01*
X180716077Y-99749432D01*
X180859432Y-99606077D01*
X180972065Y-99437509D01*
X181049649Y-99250207D01*
X181089200Y-99051367D01*
X181089200Y-98848633D01*
X181049649Y-98649793D01*
X180972065Y-98462491D01*
X180859432Y-98293923D01*
X180716077Y-98150568D01*
X180547509Y-98037935D01*
X180360207Y-97960351D01*
X180161367Y-97920800D01*
X179958633Y-97920800D01*
X179759793Y-97960351D01*
X179572491Y-98037935D01*
X179403923Y-98150568D01*
X179260568Y-98293923D01*
X179147935Y-98462491D01*
X179070351Y-98649793D01*
X179030800Y-98848633D01*
X178549200Y-98848633D01*
X178509649Y-98649793D01*
X178432065Y-98462491D01*
X178319432Y-98293923D01*
X178176077Y-98150568D01*
X178007509Y-98037935D01*
X177820207Y-97960351D01*
X177621367Y-97920800D01*
X177418633Y-97920800D01*
X177219793Y-97960351D01*
X177189483Y-97972906D01*
X176707200Y-97490623D01*
X176707200Y-97334620D01*
X176737509Y-97322065D01*
X176906077Y-97209432D01*
X177049432Y-97066077D01*
X177162065Y-96897509D01*
X177239649Y-96710207D01*
X177279200Y-96511367D01*
X177279200Y-96308633D01*
X177760800Y-96308633D01*
X177760800Y-96511367D01*
X177800351Y-96710207D01*
X177877935Y-96897509D01*
X177990568Y-97066077D01*
X178133923Y-97209432D01*
X178302491Y-97322065D01*
X178489793Y-97399649D01*
X178688633Y-97439200D01*
X178891367Y-97439200D01*
X179090207Y-97399649D01*
X179257012Y-97330555D01*
X180589050Y-97330555D01*
X180648389Y-97564221D01*
X180886664Y-97675018D01*
X181141975Y-97737202D01*
X181404512Y-97748382D01*
X181664186Y-97708129D01*
X181911017Y-97617990D01*
X182011611Y-97564221D01*
X182070950Y-97330555D01*
X181330000Y-96589605D01*
X180589050Y-97330555D01*
X179257012Y-97330555D01*
X179277509Y-97322065D01*
X179446077Y-97209432D01*
X179589432Y-97066077D01*
X179702065Y-96897509D01*
X179779649Y-96710207D01*
X179819200Y-96511367D01*
X179819200Y-96484512D01*
X179991618Y-96484512D01*
X180031871Y-96744186D01*
X180122010Y-96991017D01*
X180175779Y-97091611D01*
X180409445Y-97150950D01*
X181150395Y-96410000D01*
X181509605Y-96410000D01*
X182250555Y-97150950D01*
X182484221Y-97091611D01*
X182595018Y-96853336D01*
X182657202Y-96598025D01*
X182668382Y-96335488D01*
X182628129Y-96075814D01*
X182537990Y-95828983D01*
X182484221Y-95728389D01*
X182250555Y-95669050D01*
X181509605Y-96410000D01*
X181150395Y-96410000D01*
X180409445Y-95669050D01*
X180175779Y-95728389D01*
X180064982Y-95966664D01*
X180002798Y-96221975D01*
X179991618Y-96484512D01*
X179819200Y-96484512D01*
X179819200Y-96308633D01*
X179779649Y-96109793D01*
X179702065Y-95922491D01*
X179589432Y-95753923D01*
X179446077Y-95610568D01*
X179277509Y-95497935D01*
X179257013Y-95489445D01*
X180589050Y-95489445D01*
X181330000Y-96230395D01*
X182070950Y-95489445D01*
X182011611Y-95255779D01*
X181773336Y-95144982D01*
X181518025Y-95082798D01*
X181255488Y-95071618D01*
X180995814Y-95111871D01*
X180748983Y-95202010D01*
X180648389Y-95255779D01*
X180589050Y-95489445D01*
X179257013Y-95489445D01*
X179090207Y-95420351D01*
X178891367Y-95380800D01*
X178688633Y-95380800D01*
X178489793Y-95420351D01*
X178302491Y-95497935D01*
X178133923Y-95610568D01*
X177990568Y-95753923D01*
X177877935Y-95922491D01*
X177800351Y-96109793D01*
X177760800Y-96308633D01*
X177279200Y-96308633D01*
X177239649Y-96109793D01*
X177162065Y-95922491D01*
X177049432Y-95753923D01*
X176906077Y-95610568D01*
X176737509Y-95497935D01*
X176550207Y-95420351D01*
X176351367Y-95380800D01*
X176148633Y-95380800D01*
X175949793Y-95420351D01*
X175762491Y-95497935D01*
X175593923Y-95610568D01*
X175450568Y-95753923D01*
X175337935Y-95922491D01*
X175260351Y-96109793D01*
X175220800Y-96308633D01*
X174739200Y-96308633D01*
X174699649Y-96109793D01*
X174622065Y-95922491D01*
X174509432Y-95753923D01*
X174366077Y-95610568D01*
X174197509Y-95497935D01*
X174010207Y-95420351D01*
X173811367Y-95380800D01*
X173608633Y-95380800D01*
X173409793Y-95420351D01*
X173222491Y-95497935D01*
X173053923Y-95610568D01*
X172910568Y-95753923D01*
X172797935Y-95922491D01*
X172720351Y-96109793D01*
X172680800Y-96308633D01*
X139380200Y-96308633D01*
X139380200Y-90087931D01*
X146819800Y-90087931D01*
X146819800Y-90212069D01*
X146844018Y-90333822D01*
X146891524Y-90448512D01*
X146960492Y-90551729D01*
X147048271Y-90639508D01*
X147151488Y-90708476D01*
X147266178Y-90755982D01*
X147387931Y-90780200D01*
X147512069Y-90780200D01*
X147633822Y-90755982D01*
X147748512Y-90708476D01*
X147851729Y-90639508D01*
X147939508Y-90551729D01*
X147944873Y-90543700D01*
X152130678Y-90543700D01*
X152150000Y-90545603D01*
X152169322Y-90543700D01*
X152169333Y-90543700D01*
X152227179Y-90538003D01*
X152301391Y-90515490D01*
X152369786Y-90478933D01*
X152429734Y-90429734D01*
X152442060Y-90414715D01*
X156568844Y-86287931D01*
X162469800Y-86287931D01*
X162469800Y-86412069D01*
X162494018Y-86533822D01*
X162541524Y-86648512D01*
X162610492Y-86751729D01*
X162698271Y-86839508D01*
X162801488Y-86908476D01*
X162916178Y-86955982D01*
X163037931Y-86980200D01*
X163162069Y-86980200D01*
X163283822Y-86955982D01*
X163398512Y-86908476D01*
X163501729Y-86839508D01*
X163589508Y-86751729D01*
X163658476Y-86648512D01*
X163705982Y-86533822D01*
X163730200Y-86412069D01*
X163730200Y-86287931D01*
X163728316Y-86278459D01*
X166513076Y-83493700D01*
X171617627Y-83493700D01*
X171622992Y-83501729D01*
X171710771Y-83589508D01*
X171813988Y-83658476D01*
X171928678Y-83705982D01*
X172050431Y-83730200D01*
X172174569Y-83730200D01*
X172296322Y-83705982D01*
X172411012Y-83658476D01*
X172514229Y-83589508D01*
X172602008Y-83501729D01*
X172670976Y-83398512D01*
X172718482Y-83283822D01*
X172742700Y-83162069D01*
X172742700Y-83037931D01*
X172718482Y-82916178D01*
X172670976Y-82801488D01*
X172602008Y-82698271D01*
X172514229Y-82610492D01*
X172411012Y-82541524D01*
X172296322Y-82494018D01*
X172174569Y-82469800D01*
X172050431Y-82469800D01*
X171928678Y-82494018D01*
X171813988Y-82541524D01*
X171710771Y-82610492D01*
X171622992Y-82698271D01*
X171617627Y-82706300D01*
X166369322Y-82706300D01*
X166349999Y-82704397D01*
X166330677Y-82706300D01*
X166330667Y-82706300D01*
X166272821Y-82711997D01*
X166198609Y-82734510D01*
X166130214Y-82771067D01*
X166085282Y-82807942D01*
X166085279Y-82807945D01*
X166070266Y-82820266D01*
X166057944Y-82835280D01*
X163171541Y-85721684D01*
X163162069Y-85719800D01*
X163037931Y-85719800D01*
X162916178Y-85744018D01*
X162801488Y-85791524D01*
X162698271Y-85860492D01*
X162610492Y-85948271D01*
X162541524Y-86051488D01*
X162494018Y-86166178D01*
X162469800Y-86287931D01*
X156568844Y-86287931D01*
X161613076Y-81243700D01*
X168398231Y-81243700D01*
X168298271Y-81310492D01*
X168210492Y-81398271D01*
X168141524Y-81501488D01*
X168094018Y-81616178D01*
X168069800Y-81737931D01*
X168069800Y-81862069D01*
X168094018Y-81983822D01*
X168141524Y-82098512D01*
X168210492Y-82201729D01*
X168298271Y-82289508D01*
X168401488Y-82358476D01*
X168516178Y-82405982D01*
X168637931Y-82430200D01*
X168762069Y-82430200D01*
X168883822Y-82405982D01*
X168998512Y-82358476D01*
X169101729Y-82289508D01*
X169189508Y-82201729D01*
X169194873Y-82193700D01*
X172186925Y-82193700D01*
X172885282Y-82892058D01*
X172885287Y-82892062D01*
X174056301Y-84063077D01*
X174056300Y-84655127D01*
X174048271Y-84660492D01*
X173960492Y-84748271D01*
X173891524Y-84851488D01*
X173844018Y-84966178D01*
X173819800Y-85087931D01*
X173819800Y-85212069D01*
X173844018Y-85333822D01*
X173891524Y-85448512D01*
X173960492Y-85551729D01*
X174048271Y-85639508D01*
X174151488Y-85708476D01*
X174266178Y-85755982D01*
X174387931Y-85780200D01*
X174512069Y-85780200D01*
X174633822Y-85755982D01*
X174748512Y-85708476D01*
X174851729Y-85639508D01*
X174939508Y-85551729D01*
X175008476Y-85448512D01*
X175055982Y-85333822D01*
X175080200Y-85212069D01*
X175080200Y-85087931D01*
X175055982Y-84966178D01*
X175008476Y-84851488D01*
X174939508Y-84748271D01*
X174851729Y-84660492D01*
X174843700Y-84655127D01*
X174843700Y-83919325D01*
X174845603Y-83900000D01*
X174843700Y-83880675D01*
X174843700Y-83880667D01*
X174838003Y-83822821D01*
X174815490Y-83748609D01*
X174778933Y-83680214D01*
X174761093Y-83658476D01*
X174742058Y-83635282D01*
X174742055Y-83635279D01*
X174729734Y-83620266D01*
X174714720Y-83607944D01*
X174394707Y-83287931D01*
X177169800Y-83287931D01*
X177169800Y-83412069D01*
X177194018Y-83533822D01*
X177241524Y-83648512D01*
X177310492Y-83751729D01*
X177398271Y-83839508D01*
X177501488Y-83908476D01*
X177616178Y-83955982D01*
X177737931Y-83980200D01*
X177862069Y-83980200D01*
X177983822Y-83955982D01*
X178098512Y-83908476D01*
X178201729Y-83839508D01*
X178234037Y-83807200D01*
X185776623Y-83807200D01*
X186313800Y-84344378D01*
X186313800Y-84390069D01*
X186338018Y-84511822D01*
X186385524Y-84626512D01*
X186454492Y-84729729D01*
X186542271Y-84817508D01*
X186645488Y-84886476D01*
X186760178Y-84933982D01*
X186881931Y-84958200D01*
X187006069Y-84958200D01*
X187127822Y-84933982D01*
X187242512Y-84886476D01*
X187345729Y-84817508D01*
X187433508Y-84729729D01*
X187502476Y-84626512D01*
X187549982Y-84511822D01*
X187574200Y-84390069D01*
X187574200Y-84265931D01*
X187549982Y-84144178D01*
X187502476Y-84029488D01*
X187433508Y-83926271D01*
X187345729Y-83838492D01*
X187242512Y-83769524D01*
X187127822Y-83722018D01*
X187006069Y-83697800D01*
X186960378Y-83697800D01*
X186267173Y-83004596D01*
X186252853Y-82987147D01*
X186183235Y-82930013D01*
X186103809Y-82887560D01*
X186017626Y-82861416D01*
X186008244Y-82860492D01*
X185928000Y-82852589D01*
X185927999Y-82852589D01*
X185847756Y-82860492D01*
X185838374Y-82861416D01*
X185752191Y-82887560D01*
X185742387Y-82892800D01*
X178234037Y-82892800D01*
X178201729Y-82860492D01*
X178098512Y-82791524D01*
X177983822Y-82744018D01*
X177862069Y-82719800D01*
X177737931Y-82719800D01*
X177616178Y-82744018D01*
X177501488Y-82791524D01*
X177398271Y-82860492D01*
X177310492Y-82948271D01*
X177241524Y-83051488D01*
X177194018Y-83166178D01*
X177169800Y-83287931D01*
X174394707Y-83287931D01*
X173442062Y-82335287D01*
X173442058Y-82335282D01*
X172642060Y-81535285D01*
X172629734Y-81520266D01*
X172569786Y-81471067D01*
X172501391Y-81434510D01*
X172427179Y-81411997D01*
X172369333Y-81406300D01*
X172369322Y-81406300D01*
X172350000Y-81404397D01*
X172330678Y-81406300D01*
X169194873Y-81406300D01*
X169189508Y-81398271D01*
X169101729Y-81310492D01*
X169001769Y-81243700D01*
X171080678Y-81243700D01*
X171088351Y-81244456D01*
X171116178Y-81255982D01*
X171237931Y-81280200D01*
X171362069Y-81280200D01*
X171483822Y-81255982D01*
X171598512Y-81208476D01*
X171701729Y-81139508D01*
X171789508Y-81051729D01*
X171858476Y-80948512D01*
X171905982Y-80833822D01*
X171930200Y-80712069D01*
X171930200Y-80587931D01*
X171905982Y-80466178D01*
X171858476Y-80351488D01*
X171789508Y-80248271D01*
X171701729Y-80160492D01*
X171598512Y-80091524D01*
X171483822Y-80044018D01*
X171362069Y-80019800D01*
X171237931Y-80019800D01*
X171116178Y-80044018D01*
X171001488Y-80091524D01*
X170898271Y-80160492D01*
X170810492Y-80248271D01*
X170741524Y-80351488D01*
X170698110Y-80456300D01*
X163584937Y-80456300D01*
X163639508Y-80401729D01*
X163648485Y-80388294D01*
X163651443Y-80388003D01*
X163725655Y-80365490D01*
X163794050Y-80328933D01*
X163853998Y-80279734D01*
X163866324Y-80264715D01*
X164337340Y-79793700D01*
X168655127Y-79793700D01*
X168660492Y-79801729D01*
X168748271Y-79889508D01*
X168851488Y-79958476D01*
X168966178Y-80005982D01*
X169087931Y-80030200D01*
X169212069Y-80030200D01*
X169333822Y-80005982D01*
X169448512Y-79958476D01*
X169551729Y-79889508D01*
X169639508Y-79801729D01*
X169708476Y-79698512D01*
X169755982Y-79583822D01*
X169780200Y-79462069D01*
X169780200Y-79337931D01*
X169755982Y-79216178D01*
X169708476Y-79101488D01*
X169639508Y-78998271D01*
X169551729Y-78910492D01*
X169448512Y-78841524D01*
X169333822Y-78794018D01*
X169212069Y-78769800D01*
X169087931Y-78769800D01*
X168966178Y-78794018D01*
X168851488Y-78841524D01*
X168748271Y-78910492D01*
X168660492Y-78998271D01*
X168655127Y-79006300D01*
X164193586Y-79006300D01*
X164174263Y-79004397D01*
X164154941Y-79006300D01*
X164154931Y-79006300D01*
X164097085Y-79011997D01*
X164022873Y-79034510D01*
X163956877Y-79069785D01*
X163954478Y-79071067D01*
X163909546Y-79107942D01*
X163909543Y-79107945D01*
X163894530Y-79120266D01*
X163882208Y-79135280D01*
X163524914Y-79492575D01*
X163448512Y-79441524D01*
X163333822Y-79394018D01*
X163212069Y-79369800D01*
X163087931Y-79369800D01*
X162966178Y-79394018D01*
X162851488Y-79441524D01*
X162748271Y-79510492D01*
X162660492Y-79598271D01*
X162591524Y-79701488D01*
X162544018Y-79816178D01*
X162519800Y-79937931D01*
X162519800Y-80062069D01*
X162544018Y-80183822D01*
X162591524Y-80298512D01*
X162660492Y-80401729D01*
X162715063Y-80456300D01*
X161469322Y-80456300D01*
X161449999Y-80454397D01*
X161430677Y-80456300D01*
X161430667Y-80456300D01*
X161372821Y-80461997D01*
X161298609Y-80484510D01*
X161230214Y-80521067D01*
X161185282Y-80557942D01*
X161185279Y-80557945D01*
X161170266Y-80570266D01*
X161157944Y-80585280D01*
X151986925Y-89756300D01*
X147944873Y-89756300D01*
X147939508Y-89748271D01*
X147851729Y-89660492D01*
X147748512Y-89591524D01*
X147633822Y-89544018D01*
X147512069Y-89519800D01*
X147387931Y-89519800D01*
X147266178Y-89544018D01*
X147151488Y-89591524D01*
X147048271Y-89660492D01*
X146960492Y-89748271D01*
X146891524Y-89851488D01*
X146844018Y-89966178D01*
X146819800Y-90087931D01*
X139380200Y-90087931D01*
X139380200Y-87537931D01*
X146219800Y-87537931D01*
X146219800Y-87662069D01*
X146244018Y-87783822D01*
X146291524Y-87898512D01*
X146360492Y-88001729D01*
X146448271Y-88089508D01*
X146551488Y-88158476D01*
X146666178Y-88205982D01*
X146787931Y-88230200D01*
X146912069Y-88230200D01*
X147033822Y-88205982D01*
X147148512Y-88158476D01*
X147251729Y-88089508D01*
X147339508Y-88001729D01*
X147408476Y-87898512D01*
X147455982Y-87783822D01*
X147480200Y-87662069D01*
X147480200Y-87537931D01*
X147455982Y-87416178D01*
X147408476Y-87301488D01*
X147339508Y-87198271D01*
X147251729Y-87110492D01*
X147243700Y-87105127D01*
X147243700Y-85627236D01*
X147275488Y-85648476D01*
X147390178Y-85695982D01*
X147511931Y-85720200D01*
X147636069Y-85720200D01*
X147739303Y-85699666D01*
X147648271Y-85760492D01*
X147560492Y-85848271D01*
X147491524Y-85951488D01*
X147444018Y-86066178D01*
X147419800Y-86187931D01*
X147419800Y-86312069D01*
X147444018Y-86433822D01*
X147491524Y-86548512D01*
X147560492Y-86651729D01*
X147648271Y-86739508D01*
X147751488Y-86808476D01*
X147866178Y-86855982D01*
X147987931Y-86880200D01*
X148112069Y-86880200D01*
X148233822Y-86855982D01*
X148348512Y-86808476D01*
X148451729Y-86739508D01*
X148539508Y-86651729D01*
X148608476Y-86548512D01*
X148655982Y-86433822D01*
X148680200Y-86312069D01*
X148680200Y-86187931D01*
X148678733Y-86180556D01*
X148679734Y-86179734D01*
X148728933Y-86119786D01*
X148765490Y-86051391D01*
X148788003Y-85977179D01*
X148793700Y-85919333D01*
X148793700Y-85919325D01*
X148795603Y-85900000D01*
X148793700Y-85880675D01*
X148793700Y-81513075D01*
X151863076Y-78443700D01*
X170312661Y-78443700D01*
X170983680Y-79114720D01*
X170996002Y-79129734D01*
X171011015Y-79142055D01*
X171011018Y-79142058D01*
X171055950Y-79178933D01*
X171124345Y-79215490D01*
X171198557Y-79238003D01*
X171201515Y-79238294D01*
X171210492Y-79251729D01*
X171298271Y-79339508D01*
X171401488Y-79408476D01*
X171516178Y-79455982D01*
X171637931Y-79480200D01*
X171762069Y-79480200D01*
X171883822Y-79455982D01*
X171998512Y-79408476D01*
X172101729Y-79339508D01*
X172189508Y-79251729D01*
X172258476Y-79148512D01*
X172305982Y-79033822D01*
X172330200Y-78912069D01*
X172330200Y-78862987D01*
X183581800Y-78862987D01*
X183581800Y-79125013D01*
X183632919Y-79382005D01*
X183733192Y-79624086D01*
X183878766Y-79841953D01*
X184064047Y-80027234D01*
X184281914Y-80172808D01*
X184523995Y-80273081D01*
X184780987Y-80324200D01*
X185043013Y-80324200D01*
X185300005Y-80273081D01*
X185542086Y-80172808D01*
X185759953Y-80027234D01*
X185945234Y-79841953D01*
X186090808Y-79624086D01*
X186191081Y-79382005D01*
X186242200Y-79125013D01*
X186242200Y-78862987D01*
X186191081Y-78605995D01*
X186090808Y-78363914D01*
X185945234Y-78146047D01*
X185759953Y-77960766D01*
X185542086Y-77815192D01*
X185300005Y-77714919D01*
X185043013Y-77663800D01*
X184780987Y-77663800D01*
X184523995Y-77714919D01*
X184281914Y-77815192D01*
X184064047Y-77960766D01*
X183878766Y-78146047D01*
X183733192Y-78363914D01*
X183632919Y-78605995D01*
X183581800Y-78862987D01*
X172330200Y-78862987D01*
X172330200Y-78787931D01*
X172305982Y-78666178D01*
X172258476Y-78551488D01*
X172189508Y-78448271D01*
X172101729Y-78360492D01*
X171998512Y-78291524D01*
X171883822Y-78244018D01*
X171762069Y-78219800D01*
X171637931Y-78219800D01*
X171516178Y-78244018D01*
X171401488Y-78291524D01*
X171325086Y-78342574D01*
X170767796Y-77785285D01*
X170755470Y-77770266D01*
X170695522Y-77721067D01*
X170627127Y-77684510D01*
X170552915Y-77661997D01*
X170495069Y-77656300D01*
X170495058Y-77656300D01*
X170475736Y-77654397D01*
X170456414Y-77656300D01*
X151719325Y-77656300D01*
X151700000Y-77654397D01*
X151680675Y-77656300D01*
X151680667Y-77656300D01*
X151622821Y-77661997D01*
X151548609Y-77684510D01*
X151480214Y-77721067D01*
X151435282Y-77757942D01*
X151435279Y-77757945D01*
X151420266Y-77770266D01*
X151407944Y-77785280D01*
X148135285Y-81057940D01*
X148120266Y-81070266D01*
X148071067Y-81130215D01*
X148034510Y-81198610D01*
X148011997Y-81272822D01*
X148006300Y-81330668D01*
X148006300Y-81330678D01*
X148004397Y-81350000D01*
X148006300Y-81369323D01*
X148006301Y-84631064D01*
X147975729Y-84600492D01*
X147872512Y-84531524D01*
X147757822Y-84484018D01*
X147636069Y-84459800D01*
X147511931Y-84459800D01*
X147390178Y-84484018D01*
X147275488Y-84531524D01*
X147243700Y-84552764D01*
X147243700Y-80713075D01*
X151613076Y-76343700D01*
X170862661Y-76343700D01*
X172483680Y-77964720D01*
X172496002Y-77979734D01*
X172511015Y-77992055D01*
X172511018Y-77992058D01*
X172555950Y-78028933D01*
X172624345Y-78065490D01*
X172698557Y-78088003D01*
X172701515Y-78088294D01*
X172710492Y-78101729D01*
X172798271Y-78189508D01*
X172901488Y-78258476D01*
X173016178Y-78305982D01*
X173137931Y-78330200D01*
X173262069Y-78330200D01*
X173383822Y-78305982D01*
X173498512Y-78258476D01*
X173601729Y-78189508D01*
X173689508Y-78101729D01*
X173758476Y-77998512D01*
X173805982Y-77883822D01*
X173830200Y-77762069D01*
X173830200Y-77637931D01*
X173805982Y-77516178D01*
X173758476Y-77401488D01*
X173689508Y-77298271D01*
X173601729Y-77210492D01*
X173498512Y-77141524D01*
X173383822Y-77094018D01*
X173262069Y-77069800D01*
X173137931Y-77069800D01*
X173016178Y-77094018D01*
X172901488Y-77141524D01*
X172825086Y-77192574D01*
X171317796Y-75685285D01*
X171305470Y-75670266D01*
X171245522Y-75621067D01*
X171177127Y-75584510D01*
X171102915Y-75561997D01*
X171045069Y-75556300D01*
X171045058Y-75556300D01*
X171025736Y-75554397D01*
X171006414Y-75556300D01*
X151469322Y-75556300D01*
X151449999Y-75554397D01*
X151430677Y-75556300D01*
X151430667Y-75556300D01*
X151372821Y-75561997D01*
X151298609Y-75584510D01*
X151266770Y-75601528D01*
X151230213Y-75621067D01*
X151185282Y-75657942D01*
X151185279Y-75657945D01*
X151170266Y-75670266D01*
X151157944Y-75685280D01*
X146585285Y-80257940D01*
X146570266Y-80270266D01*
X146521067Y-80330215D01*
X146484510Y-80398610D01*
X146461997Y-80472822D01*
X146456300Y-80530668D01*
X146456300Y-80530678D01*
X146454397Y-80550000D01*
X146456300Y-80569322D01*
X146456301Y-87105127D01*
X146448271Y-87110492D01*
X146360492Y-87198271D01*
X146291524Y-87301488D01*
X146244018Y-87416178D01*
X146219800Y-87537931D01*
X139380200Y-87537931D01*
X139380200Y-74827000D01*
X167150000Y-74827000D01*
X167175330Y-74824448D01*
X167199122Y-74817116D01*
X167221026Y-74805282D01*
X167240201Y-74789403D01*
X167255909Y-74770087D01*
X167267548Y-74748079D01*
X167274669Y-74724223D01*
X167276999Y-74699436D01*
X167261548Y-71222891D01*
X170262519Y-71222891D01*
X170359843Y-71497252D01*
X170508822Y-71747355D01*
X170703731Y-71963588D01*
X170937080Y-72137641D01*
X171199901Y-72262825D01*
X171303786Y-72294335D01*
X171144966Y-72360121D01*
X170951667Y-72489279D01*
X170787279Y-72653667D01*
X170658121Y-72846966D01*
X170569155Y-73061748D01*
X170523800Y-73289760D01*
X170523800Y-73522240D01*
X170569155Y-73750252D01*
X170658121Y-73965034D01*
X170787279Y-74158333D01*
X170951667Y-74322721D01*
X171144966Y-74451879D01*
X171359748Y-74540845D01*
X171587760Y-74586200D01*
X171820240Y-74586200D01*
X172048252Y-74540845D01*
X172263034Y-74451879D01*
X172456333Y-74322721D01*
X172620721Y-74158333D01*
X172749879Y-73965034D01*
X172838845Y-73750252D01*
X172884200Y-73522240D01*
X172884200Y-73289760D01*
X173063800Y-73289760D01*
X173063800Y-73522240D01*
X173109155Y-73750252D01*
X173198121Y-73965034D01*
X173327279Y-74158333D01*
X173491667Y-74322721D01*
X173684966Y-74451879D01*
X173899748Y-74540845D01*
X174127760Y-74586200D01*
X174360240Y-74586200D01*
X174588252Y-74540845D01*
X174803034Y-74451879D01*
X174996333Y-74322721D01*
X175160721Y-74158333D01*
X175289879Y-73965034D01*
X175378845Y-73750252D01*
X175424200Y-73522240D01*
X175424200Y-73289760D01*
X175603800Y-73289760D01*
X175603800Y-73522240D01*
X175649155Y-73750252D01*
X175738121Y-73965034D01*
X175867279Y-74158333D01*
X176031667Y-74322721D01*
X176224966Y-74451879D01*
X176439748Y-74540845D01*
X176667760Y-74586200D01*
X176900240Y-74586200D01*
X177128252Y-74540845D01*
X177343034Y-74451879D01*
X177536333Y-74322721D01*
X177700721Y-74158333D01*
X177829879Y-73965034D01*
X177918845Y-73750252D01*
X177964200Y-73522240D01*
X177964200Y-73289760D01*
X178143800Y-73289760D01*
X178143800Y-73522240D01*
X178189155Y-73750252D01*
X178278121Y-73965034D01*
X178407279Y-74158333D01*
X178571667Y-74322721D01*
X178764966Y-74451879D01*
X178979748Y-74540845D01*
X179207760Y-74586200D01*
X179440240Y-74586200D01*
X179668252Y-74540845D01*
X179883034Y-74451879D01*
X180076333Y-74322721D01*
X180240721Y-74158333D01*
X180369879Y-73965034D01*
X180458845Y-73750252D01*
X180504200Y-73522240D01*
X180504200Y-73289760D01*
X180458845Y-73061748D01*
X180369879Y-72846966D01*
X180240721Y-72653667D01*
X180143054Y-72556000D01*
X180682203Y-72556000D01*
X180682203Y-74256000D01*
X180688578Y-74320730D01*
X180707460Y-74382973D01*
X180738121Y-74440337D01*
X180779384Y-74490616D01*
X180829663Y-74531879D01*
X180887027Y-74562540D01*
X180949270Y-74581422D01*
X181014000Y-74587797D01*
X182714000Y-74587797D01*
X182778730Y-74581422D01*
X182840973Y-74562540D01*
X182898337Y-74531879D01*
X182948616Y-74490616D01*
X182989879Y-74440337D01*
X183020540Y-74382973D01*
X183039422Y-74320730D01*
X183045797Y-74256000D01*
X183045797Y-72556000D01*
X183039422Y-72491270D01*
X183020540Y-72429027D01*
X182989879Y-72371663D01*
X182948616Y-72321384D01*
X182898337Y-72280121D01*
X182840973Y-72249460D01*
X182778730Y-72230578D01*
X182714000Y-72224203D01*
X181014000Y-72224203D01*
X180949270Y-72230578D01*
X180887027Y-72249460D01*
X180829663Y-72280121D01*
X180779384Y-72321384D01*
X180738121Y-72371663D01*
X180707460Y-72429027D01*
X180688578Y-72491270D01*
X180682203Y-72556000D01*
X180143054Y-72556000D01*
X180076333Y-72489279D01*
X179883034Y-72360121D01*
X179668252Y-72271155D01*
X179440240Y-72225800D01*
X179207760Y-72225800D01*
X178979748Y-72271155D01*
X178764966Y-72360121D01*
X178571667Y-72489279D01*
X178407279Y-72653667D01*
X178278121Y-72846966D01*
X178189155Y-73061748D01*
X178143800Y-73289760D01*
X177964200Y-73289760D01*
X177918845Y-73061748D01*
X177829879Y-72846966D01*
X177700721Y-72653667D01*
X177536333Y-72489279D01*
X177343034Y-72360121D01*
X177128252Y-72271155D01*
X176900240Y-72225800D01*
X176667760Y-72225800D01*
X176439748Y-72271155D01*
X176224966Y-72360121D01*
X176031667Y-72489279D01*
X175867279Y-72653667D01*
X175738121Y-72846966D01*
X175649155Y-73061748D01*
X175603800Y-73289760D01*
X175424200Y-73289760D01*
X175378845Y-73061748D01*
X175289879Y-72846966D01*
X175160721Y-72653667D01*
X174996333Y-72489279D01*
X174803034Y-72360121D01*
X174588252Y-72271155D01*
X174360240Y-72225800D01*
X174127760Y-72225800D01*
X173899748Y-72271155D01*
X173684966Y-72360121D01*
X173491667Y-72489279D01*
X173327279Y-72653667D01*
X173198121Y-72846966D01*
X173109155Y-73061748D01*
X173063800Y-73289760D01*
X172884200Y-73289760D01*
X172838845Y-73061748D01*
X172749879Y-72846966D01*
X172620721Y-72653667D01*
X172456333Y-72489279D01*
X172263034Y-72360121D01*
X172104214Y-72294335D01*
X172208099Y-72262825D01*
X172470920Y-72137641D01*
X172704269Y-71963588D01*
X172899178Y-71747355D01*
X173048157Y-71497252D01*
X173131138Y-71263324D01*
X173198121Y-71425034D01*
X173327279Y-71618333D01*
X173491667Y-71782721D01*
X173684966Y-71911879D01*
X173899748Y-72000845D01*
X174127760Y-72046200D01*
X174360240Y-72046200D01*
X174588252Y-72000845D01*
X174803034Y-71911879D01*
X174996333Y-71782721D01*
X175160721Y-71618333D01*
X175289879Y-71425034D01*
X175378845Y-71210252D01*
X175424200Y-70982240D01*
X175424200Y-70749760D01*
X175603800Y-70749760D01*
X175603800Y-70982240D01*
X175649155Y-71210252D01*
X175738121Y-71425034D01*
X175867279Y-71618333D01*
X176031667Y-71782721D01*
X176224966Y-71911879D01*
X176439748Y-72000845D01*
X176667760Y-72046200D01*
X176900240Y-72046200D01*
X177128252Y-72000845D01*
X177343034Y-71911879D01*
X177536333Y-71782721D01*
X177700721Y-71618333D01*
X177829879Y-71425034D01*
X177918845Y-71210252D01*
X177964200Y-70982240D01*
X177964200Y-70749760D01*
X178143800Y-70749760D01*
X178143800Y-70982240D01*
X178189155Y-71210252D01*
X178278121Y-71425034D01*
X178407279Y-71618333D01*
X178571667Y-71782721D01*
X178764966Y-71911879D01*
X178979748Y-72000845D01*
X179207760Y-72046200D01*
X179440240Y-72046200D01*
X179668252Y-72000845D01*
X179883034Y-71911879D01*
X180076333Y-71782721D01*
X180240721Y-71618333D01*
X180369879Y-71425034D01*
X180458845Y-71210252D01*
X180504200Y-70982240D01*
X180504200Y-70749760D01*
X180683800Y-70749760D01*
X180683800Y-70982240D01*
X180729155Y-71210252D01*
X180818121Y-71425034D01*
X180947279Y-71618333D01*
X181111667Y-71782721D01*
X181304966Y-71911879D01*
X181519748Y-72000845D01*
X181747760Y-72046200D01*
X181980240Y-72046200D01*
X182208252Y-72000845D01*
X182423034Y-71911879D01*
X182616333Y-71782721D01*
X182780721Y-71618333D01*
X182909879Y-71425034D01*
X182998845Y-71210252D01*
X183044200Y-70982240D01*
X183044200Y-70749760D01*
X182998845Y-70521748D01*
X182909879Y-70306966D01*
X182780721Y-70113667D01*
X182616333Y-69949279D01*
X182423034Y-69820121D01*
X182208252Y-69731155D01*
X181980240Y-69685800D01*
X181747760Y-69685800D01*
X181519748Y-69731155D01*
X181304966Y-69820121D01*
X181111667Y-69949279D01*
X180947279Y-70113667D01*
X180818121Y-70306966D01*
X180729155Y-70521748D01*
X180683800Y-70749760D01*
X180504200Y-70749760D01*
X180458845Y-70521748D01*
X180369879Y-70306966D01*
X180240721Y-70113667D01*
X180076333Y-69949279D01*
X179883034Y-69820121D01*
X179668252Y-69731155D01*
X179440240Y-69685800D01*
X179207760Y-69685800D01*
X178979748Y-69731155D01*
X178764966Y-69820121D01*
X178571667Y-69949279D01*
X178407279Y-70113667D01*
X178278121Y-70306966D01*
X178189155Y-70521748D01*
X178143800Y-70749760D01*
X177964200Y-70749760D01*
X177918845Y-70521748D01*
X177829879Y-70306966D01*
X177700721Y-70113667D01*
X177536333Y-69949279D01*
X177343034Y-69820121D01*
X177128252Y-69731155D01*
X176900240Y-69685800D01*
X176667760Y-69685800D01*
X176439748Y-69731155D01*
X176224966Y-69820121D01*
X176031667Y-69949279D01*
X175867279Y-70113667D01*
X175738121Y-70306966D01*
X175649155Y-70521748D01*
X175603800Y-70749760D01*
X175424200Y-70749760D01*
X175378845Y-70521748D01*
X175289879Y-70306966D01*
X175160721Y-70113667D01*
X174996333Y-69949279D01*
X174803034Y-69820121D01*
X174588252Y-69731155D01*
X174360240Y-69685800D01*
X174127760Y-69685800D01*
X173899748Y-69731155D01*
X173684966Y-69820121D01*
X173491667Y-69949279D01*
X173327279Y-70113667D01*
X173198121Y-70306966D01*
X173131138Y-70468676D01*
X173048157Y-70234748D01*
X172899178Y-69984645D01*
X172704269Y-69768412D01*
X172470920Y-69594359D01*
X172208099Y-69469175D01*
X172060890Y-69424524D01*
X171831000Y-69545845D01*
X171831000Y-70739000D01*
X171851000Y-70739000D01*
X171851000Y-70993000D01*
X171831000Y-70993000D01*
X171831000Y-71013000D01*
X171577000Y-71013000D01*
X171577000Y-70993000D01*
X170383186Y-70993000D01*
X170262519Y-71222891D01*
X167261548Y-71222891D01*
X167258376Y-70509109D01*
X170262519Y-70509109D01*
X170383186Y-70739000D01*
X171577000Y-70739000D01*
X171577000Y-69545845D01*
X171347110Y-69424524D01*
X171199901Y-69469175D01*
X170937080Y-69594359D01*
X170703731Y-69768412D01*
X170508822Y-69984645D01*
X170359843Y-70234748D01*
X170262519Y-70509109D01*
X167258376Y-70509109D01*
X167248914Y-68380200D01*
X187619800Y-68380200D01*
X187619801Y-115619800D01*
M02*
