G04 #@! TF.GenerationSoftware,KiCad,Pcbnew,(5.1.5)-3*
G04 #@! TF.CreationDate,2020-08-13T18:58:06-07:00*
G04 #@! TF.ProjectId,EsperDNS,45737065-7244-44e5-932e-6b696361645f,rev?*
G04 #@! TF.SameCoordinates,Original*
G04 #@! TF.FileFunction,Legend,Top*
G04 #@! TF.FilePolarity,Positive*
%FSLAX46Y46*%
G04 Gerber Fmt 4.6, Leading zero omitted, Abs format (unit mm)*
G04 Created by KiCad (PCBNEW (5.1.5)-3) date 2020-08-13 18:58:06*
%MOMM*%
%LPD*%
G04 APERTURE LIST*
%ADD10C,0.150000*%
%ADD11C,0.120000*%
%ADD12C,0.127000*%
%ADD13C,0.100000*%
%ADD14C,0.050000*%
G04 APERTURE END LIST*
D10*
X162283333Y-50215714D02*
X162283333Y-50882380D01*
X162045238Y-49834761D02*
X161807142Y-50549047D01*
X162426190Y-50549047D01*
X163235714Y-50215714D02*
X163235714Y-50882380D01*
X162997619Y-49834761D02*
X162759523Y-50549047D01*
X163378571Y-50549047D01*
X163759523Y-50787142D02*
X163807142Y-50834761D01*
X163759523Y-50882380D01*
X163711904Y-50834761D01*
X163759523Y-50787142D01*
X163759523Y-50882380D01*
X164188095Y-49977619D02*
X164235714Y-49930000D01*
X164330952Y-49882380D01*
X164569047Y-49882380D01*
X164664285Y-49930000D01*
X164711904Y-49977619D01*
X164759523Y-50072857D01*
X164759523Y-50168095D01*
X164711904Y-50310952D01*
X164140476Y-50882380D01*
X164759523Y-50882380D01*
X165378571Y-49882380D02*
X165473809Y-49882380D01*
X165569047Y-49930000D01*
X165616666Y-49977619D01*
X165664285Y-50072857D01*
X165711904Y-50263333D01*
X165711904Y-50501428D01*
X165664285Y-50691904D01*
X165616666Y-50787142D01*
X165569047Y-50834761D01*
X165473809Y-50882380D01*
X165378571Y-50882380D01*
X165283333Y-50834761D01*
X165235714Y-50787142D01*
X165188095Y-50691904D01*
X165140476Y-50501428D01*
X165140476Y-50263333D01*
X165188095Y-50072857D01*
X165235714Y-49977619D01*
X165283333Y-49930000D01*
X165378571Y-49882380D01*
X166330952Y-49882380D02*
X166426190Y-49882380D01*
X166521428Y-49930000D01*
X166569047Y-49977619D01*
X166616666Y-50072857D01*
X166664285Y-50263333D01*
X166664285Y-50501428D01*
X166616666Y-50691904D01*
X166569047Y-50787142D01*
X166521428Y-50834761D01*
X166426190Y-50882380D01*
X166330952Y-50882380D01*
X166235714Y-50834761D01*
X166188095Y-50787142D01*
X166140476Y-50691904D01*
X166092857Y-50501428D01*
X166092857Y-50263333D01*
X166140476Y-50072857D01*
X166188095Y-49977619D01*
X166235714Y-49930000D01*
X166330952Y-49882380D01*
X167854761Y-50882380D02*
X167854761Y-50215714D01*
X167854761Y-50310952D02*
X167902380Y-50263333D01*
X167997619Y-50215714D01*
X168140476Y-50215714D01*
X168235714Y-50263333D01*
X168283333Y-50358571D01*
X168283333Y-50882380D01*
X168283333Y-50358571D02*
X168330952Y-50263333D01*
X168426190Y-50215714D01*
X168569047Y-50215714D01*
X168664285Y-50263333D01*
X168711904Y-50358571D01*
X168711904Y-50882380D01*
X169188095Y-50882380D02*
X169188095Y-50215714D01*
X169188095Y-50310952D02*
X169235714Y-50263333D01*
X169330952Y-50215714D01*
X169473809Y-50215714D01*
X169569047Y-50263333D01*
X169616666Y-50358571D01*
X169616666Y-50882380D01*
X169616666Y-50358571D02*
X169664285Y-50263333D01*
X169759523Y-50215714D01*
X169902380Y-50215714D01*
X169997619Y-50263333D01*
X170045238Y-50358571D01*
X170045238Y-50882380D01*
D11*
X143850000Y-51700000D02*
X188050000Y-51700000D01*
X143850000Y-52950000D02*
X143850000Y-51113579D01*
X188050000Y-52950000D02*
X188050000Y-51113579D01*
X188050000Y-51700000D02*
X186923496Y-52286421D01*
X188050000Y-51700000D02*
X186923496Y-51113579D01*
X143850000Y-51700000D02*
X144976504Y-52286421D01*
X143850000Y-51700000D02*
X144976504Y-51113579D01*
D10*
X122044286Y-88708333D02*
X121377620Y-88708333D01*
X122425239Y-88470238D02*
X121710953Y-88232142D01*
X121710953Y-88851190D01*
X122377620Y-89136904D02*
X122377620Y-89803571D01*
X121377620Y-89375000D01*
X121472858Y-90184523D02*
X121425239Y-90232142D01*
X121377620Y-90184523D01*
X121425239Y-90136904D01*
X121472858Y-90184523D01*
X121377620Y-90184523D01*
X122377620Y-91136904D02*
X122377620Y-90660714D01*
X121901429Y-90613095D01*
X121949048Y-90660714D01*
X121996667Y-90755952D01*
X121996667Y-90994047D01*
X121949048Y-91089285D01*
X121901429Y-91136904D01*
X121806191Y-91184523D01*
X121568096Y-91184523D01*
X121472858Y-91136904D01*
X121425239Y-91089285D01*
X121377620Y-90994047D01*
X121377620Y-90755952D01*
X121425239Y-90660714D01*
X121472858Y-90613095D01*
X122377620Y-92089285D02*
X122377620Y-91613095D01*
X121901429Y-91565476D01*
X121949048Y-91613095D01*
X121996667Y-91708333D01*
X121996667Y-91946428D01*
X121949048Y-92041666D01*
X121901429Y-92089285D01*
X121806191Y-92136904D01*
X121568096Y-92136904D01*
X121472858Y-92089285D01*
X121425239Y-92041666D01*
X121377620Y-91946428D01*
X121377620Y-91708333D01*
X121425239Y-91613095D01*
X121472858Y-91565476D01*
X122377620Y-92755952D02*
X122377620Y-92851190D01*
X122330001Y-92946428D01*
X122282381Y-92994047D01*
X122187143Y-93041666D01*
X121996667Y-93089285D01*
X121758572Y-93089285D01*
X121568096Y-93041666D01*
X121472858Y-92994047D01*
X121425239Y-92946428D01*
X121377620Y-92851190D01*
X121377620Y-92755952D01*
X121425239Y-92660714D01*
X121472858Y-92613095D01*
X121568096Y-92565476D01*
X121758572Y-92517857D01*
X121996667Y-92517857D01*
X122187143Y-92565476D01*
X122282381Y-92613095D01*
X122330001Y-92660714D01*
X122377620Y-92755952D01*
X121377620Y-94279761D02*
X122044286Y-94279761D01*
X121949048Y-94279761D02*
X121996667Y-94327380D01*
X122044286Y-94422619D01*
X122044286Y-94565476D01*
X121996667Y-94660714D01*
X121901429Y-94708333D01*
X121377620Y-94708333D01*
X121901429Y-94708333D02*
X121996667Y-94755952D01*
X122044286Y-94851190D01*
X122044286Y-94994047D01*
X121996667Y-95089285D01*
X121901429Y-95136904D01*
X121377620Y-95136904D01*
X121377620Y-95613095D02*
X122044286Y-95613095D01*
X121949048Y-95613095D02*
X121996667Y-95660714D01*
X122044286Y-95755952D01*
X122044286Y-95898809D01*
X121996667Y-95994047D01*
X121901429Y-96041666D01*
X121377620Y-96041666D01*
X121901429Y-96041666D02*
X121996667Y-96089285D01*
X122044286Y-96184523D01*
X122044286Y-96327380D01*
X121996667Y-96422619D01*
X121901429Y-96470238D01*
X121377620Y-96470238D01*
D11*
X123100001Y-68600000D02*
X123100001Y-116150000D01*
X124400000Y-68600000D02*
X122513580Y-68600000D01*
X124400000Y-116150000D02*
X122513580Y-116150000D01*
X123100001Y-116150000D02*
X122513580Y-115023496D01*
X123100001Y-116150000D02*
X123686422Y-115023496D01*
X123100001Y-68600000D02*
X122513580Y-69726504D01*
X123100001Y-68600000D02*
X123686422Y-69726504D01*
X179185000Y-88660000D02*
X179660000Y-88660000D01*
X175440000Y-84440000D02*
X175440000Y-84915000D01*
X175915000Y-84440000D02*
X175440000Y-84440000D01*
X179660000Y-84440000D02*
X179660000Y-84915000D01*
X179185000Y-84440000D02*
X179660000Y-84440000D01*
X175440000Y-88660000D02*
X175440000Y-88185000D01*
X175915000Y-88660000D02*
X175440000Y-88660000D01*
X143780000Y-75005000D02*
X143400000Y-75005000D01*
X143780000Y-68585000D02*
X143780000Y-75005000D01*
X162020000Y-68585000D02*
X162020000Y-75005000D01*
X143780000Y-68585000D02*
X162020000Y-68585000D01*
X162020000Y-94330000D02*
X161020000Y-94330000D01*
X162020000Y-93550000D02*
X162020000Y-94330000D01*
X143780000Y-94330000D02*
X144780000Y-94330000D01*
X143780000Y-93550000D02*
X143780000Y-94330000D01*
X175010000Y-81575279D02*
X175010000Y-81249721D01*
X173990000Y-81575279D02*
X173990000Y-81249721D01*
X182874721Y-91110000D02*
X183200279Y-91110000D01*
X182874721Y-90090000D02*
X183200279Y-90090000D01*
X182974721Y-83260000D02*
X183300279Y-83260000D01*
X182974721Y-82240000D02*
X183300279Y-82240000D01*
D12*
X167635000Y-116050000D02*
X167635000Y-95550000D01*
X167635000Y-95550000D02*
X186385000Y-95550000D01*
X186385000Y-95550000D02*
X186385000Y-116050000D01*
X186385000Y-116050000D02*
X167635000Y-116050000D01*
D11*
X164040000Y-80287221D02*
X164040000Y-80612779D01*
X165060000Y-80287221D02*
X165060000Y-80612779D01*
X164040000Y-83774721D02*
X164040000Y-84100279D01*
X165060000Y-83774721D02*
X165060000Y-84100279D01*
X164040000Y-87487221D02*
X164040000Y-87812779D01*
X165060000Y-87487221D02*
X165060000Y-87812779D01*
X141425279Y-80910000D02*
X141099721Y-80910000D01*
X141425279Y-79890000D02*
X141099721Y-79890000D01*
X166310000Y-108075279D02*
X166310000Y-107749721D01*
X165290000Y-108075279D02*
X165290000Y-107749721D01*
X165352000Y-112638721D02*
X165352000Y-112964279D01*
X166372000Y-112638721D02*
X166372000Y-112964279D01*
X179510000Y-93612779D02*
X179510000Y-93287221D01*
X178490000Y-93612779D02*
X178490000Y-93287221D01*
X181810000Y-93612779D02*
X181810000Y-93287221D01*
X180790000Y-93612779D02*
X180790000Y-93287221D01*
X174360000Y-93612779D02*
X174360000Y-93287221D01*
X173340000Y-93612779D02*
X173340000Y-93287221D01*
X176710000Y-93612779D02*
X176710000Y-93287221D01*
X175690000Y-93612779D02*
X175690000Y-93287221D01*
X182874721Y-89460000D02*
X183200279Y-89460000D01*
X182874721Y-88440000D02*
X183200279Y-88440000D01*
X176560000Y-81575279D02*
X176560000Y-81249721D01*
X175540000Y-81575279D02*
X175540000Y-81249721D01*
X172037221Y-86510000D02*
X172362779Y-86510000D01*
X172037221Y-85490000D02*
X172362779Y-85490000D01*
X172037221Y-88060000D02*
X172362779Y-88060000D01*
X172037221Y-87040000D02*
X172362779Y-87040000D01*
X172037221Y-84960000D02*
X172362779Y-84960000D01*
X172037221Y-83940000D02*
X172362779Y-83940000D01*
X181210000Y-81575279D02*
X181210000Y-81249721D01*
X180190000Y-81575279D02*
X180190000Y-81249721D01*
X179660000Y-81575279D02*
X179660000Y-81249721D01*
X178640000Y-81575279D02*
X178640000Y-81249721D01*
X141099721Y-77810000D02*
X141425279Y-77810000D01*
X141099721Y-76790000D02*
X141425279Y-76790000D01*
X141099721Y-79360000D02*
X141425279Y-79360000D01*
X141099721Y-78340000D02*
X141425279Y-78340000D01*
X182974721Y-84810000D02*
X183300279Y-84810000D01*
X182974721Y-83790000D02*
X183300279Y-83790000D01*
X178110000Y-81575279D02*
X178110000Y-81249721D01*
X177090000Y-81575279D02*
X177090000Y-81249721D01*
X172350279Y-88590000D02*
X172024721Y-88590000D01*
X172350279Y-89610000D02*
X172024721Y-89610000D01*
X182874721Y-87910000D02*
X183200279Y-87910000D01*
X182874721Y-86890000D02*
X183200279Y-86890000D01*
X165262779Y-97026000D02*
X164937221Y-97026000D01*
X165262779Y-98046000D02*
X164937221Y-98046000D01*
X162260000Y-106900000D02*
X162260000Y-112910000D01*
X155440000Y-109150000D02*
X155440000Y-112910000D01*
X162260000Y-112910000D02*
X161000000Y-112910000D01*
X155440000Y-112910000D02*
X156700000Y-112910000D01*
X152790000Y-98949721D02*
X152790000Y-99275279D01*
X153810000Y-98949721D02*
X153810000Y-99275279D01*
X146137221Y-108160000D02*
X146462779Y-108160000D01*
X146137221Y-107140000D02*
X146462779Y-107140000D01*
X183194000Y-73406000D02*
X183194000Y-74736000D01*
X183194000Y-74736000D02*
X181864000Y-74736000D01*
X183194000Y-72136000D02*
X180594000Y-72136000D01*
X180594000Y-72136000D02*
X180594000Y-74736000D01*
X180594000Y-74736000D02*
X170374000Y-74736000D01*
X170374000Y-69536000D02*
X170374000Y-74736000D01*
X183194000Y-69536000D02*
X170374000Y-69536000D01*
X183194000Y-69536000D02*
X183194000Y-72136000D01*
D13*
X150850000Y-115650000D02*
X150850000Y-114800000D01*
X150400000Y-115650000D02*
X150850000Y-115650000D01*
X142750000Y-115650000D02*
X143250000Y-115650000D01*
X142750000Y-114850000D02*
X142750000Y-115650000D01*
X144900000Y-109900000D02*
X145200000Y-109900000D01*
X142750000Y-111650000D02*
X142750000Y-112100000D01*
X148450000Y-109900000D02*
X148750000Y-109900000D01*
X150850000Y-111650000D02*
X150850000Y-112150000D01*
D11*
X165262779Y-95248000D02*
X164937221Y-95248000D01*
X165262779Y-96268000D02*
X164937221Y-96268000D01*
X151935000Y-100572500D02*
X151935000Y-98287500D01*
X150465000Y-100572500D02*
X151935000Y-100572500D01*
X150465000Y-98287500D02*
X150465000Y-100572500D01*
X165262779Y-93470000D02*
X164937221Y-93470000D01*
X165262779Y-94490000D02*
X164937221Y-94490000D01*
X158200279Y-103540000D02*
X157874721Y-103540000D01*
X158200279Y-104560000D02*
X157874721Y-104560000D01*
X153660000Y-107025279D02*
X153660000Y-106699721D01*
X152640000Y-107025279D02*
X152640000Y-106699721D01*
X151760000Y-107025279D02*
X151760000Y-106699721D01*
X150740000Y-107025279D02*
X150740000Y-106699721D01*
X149860000Y-107012779D02*
X149860000Y-106687221D01*
X148840000Y-107012779D02*
X148840000Y-106687221D01*
D10*
X184150095Y-76246380D02*
X184150095Y-75246380D01*
X184150095Y-75722571D02*
X184721523Y-75722571D01*
X184721523Y-76246380D02*
X184721523Y-75246380D01*
X185150095Y-75341619D02*
X185197714Y-75294000D01*
X185292952Y-75246380D01*
X185531047Y-75246380D01*
X185626285Y-75294000D01*
X185673904Y-75341619D01*
X185721523Y-75436857D01*
X185721523Y-75532095D01*
X185673904Y-75674952D01*
X185102476Y-76246380D01*
X185721523Y-76246380D01*
X141732095Y-99868380D02*
X141732095Y-98868380D01*
X141732095Y-99344571D02*
X142303523Y-99344571D01*
X142303523Y-99868380D02*
X142303523Y-98868380D01*
X143303523Y-99868380D02*
X142732095Y-99868380D01*
X143017809Y-99868380D02*
X143017809Y-98868380D01*
X142922571Y-99011238D01*
X142827333Y-99106476D01*
X142732095Y-99154095D01*
X171988095Y-90302380D02*
X171988095Y-91111904D01*
X172035714Y-91207142D01*
X172083333Y-91254761D01*
X172178571Y-91302380D01*
X172369047Y-91302380D01*
X172464285Y-91254761D01*
X172511904Y-91207142D01*
X172559523Y-91111904D01*
X172559523Y-90302380D01*
X172988095Y-90397619D02*
X173035714Y-90350000D01*
X173130952Y-90302380D01*
X173369047Y-90302380D01*
X173464285Y-90350000D01*
X173511904Y-90397619D01*
X173559523Y-90492857D01*
X173559523Y-90588095D01*
X173511904Y-90730952D01*
X172940476Y-91302380D01*
X173559523Y-91302380D01*
X141742380Y-93641904D02*
X142551904Y-93641904D01*
X142647142Y-93594285D01*
X142694761Y-93546666D01*
X142742380Y-93451428D01*
X142742380Y-93260952D01*
X142694761Y-93165714D01*
X142647142Y-93118095D01*
X142551904Y-93070476D01*
X141742380Y-93070476D01*
X141742380Y-92689523D02*
X141742380Y-92070476D01*
X142123333Y-92403809D01*
X142123333Y-92260952D01*
X142170952Y-92165714D01*
X142218571Y-92118095D01*
X142313809Y-92070476D01*
X142551904Y-92070476D01*
X142647142Y-92118095D01*
X142694761Y-92165714D01*
X142742380Y-92260952D01*
X142742380Y-92546666D01*
X142694761Y-92641904D01*
X142647142Y-92689523D01*
X174952380Y-79105357D02*
X174476190Y-79438690D01*
X174952380Y-79676785D02*
X173952380Y-79676785D01*
X173952380Y-79295833D01*
X174000000Y-79200595D01*
X174047619Y-79152976D01*
X174142857Y-79105357D01*
X174285714Y-79105357D01*
X174380952Y-79152976D01*
X174428571Y-79200595D01*
X174476190Y-79295833D01*
X174476190Y-79676785D01*
X174047619Y-78724404D02*
X174000000Y-78676785D01*
X173952380Y-78581547D01*
X173952380Y-78343452D01*
X174000000Y-78248214D01*
X174047619Y-78200595D01*
X174142857Y-78152976D01*
X174238095Y-78152976D01*
X174380952Y-78200595D01*
X174952380Y-78772023D01*
X174952380Y-78152976D01*
X173952380Y-77819642D02*
X173952380Y-77152976D01*
X174952380Y-77581547D01*
X185394642Y-90957142D02*
X185347023Y-91004761D01*
X185204166Y-91052380D01*
X185108928Y-91052380D01*
X184966071Y-91004761D01*
X184870833Y-90909523D01*
X184823214Y-90814285D01*
X184775595Y-90623809D01*
X184775595Y-90480952D01*
X184823214Y-90290476D01*
X184870833Y-90195238D01*
X184966071Y-90100000D01*
X185108928Y-90052380D01*
X185204166Y-90052380D01*
X185347023Y-90100000D01*
X185394642Y-90147619D01*
X186347023Y-91052380D02*
X185775595Y-91052380D01*
X186061309Y-91052380D02*
X186061309Y-90052380D01*
X185966071Y-90195238D01*
X185870833Y-90290476D01*
X185775595Y-90338095D01*
X186680357Y-90052380D02*
X187347023Y-90052380D01*
X186918452Y-91052380D01*
X185432142Y-83107142D02*
X185384523Y-83154761D01*
X185241666Y-83202380D01*
X185146428Y-83202380D01*
X185003571Y-83154761D01*
X184908333Y-83059523D01*
X184860714Y-82964285D01*
X184813095Y-82773809D01*
X184813095Y-82630952D01*
X184860714Y-82440476D01*
X184908333Y-82345238D01*
X185003571Y-82250000D01*
X185146428Y-82202380D01*
X185241666Y-82202380D01*
X185384523Y-82250000D01*
X185432142Y-82297619D01*
X186384523Y-83202380D02*
X185813095Y-83202380D01*
X186098809Y-83202380D02*
X186098809Y-82202380D01*
X186003571Y-82345238D01*
X185908333Y-82440476D01*
X185813095Y-82488095D01*
X187241666Y-82202380D02*
X187051190Y-82202380D01*
X186955952Y-82250000D01*
X186908333Y-82297619D01*
X186813095Y-82440476D01*
X186765476Y-82630952D01*
X186765476Y-83011904D01*
X186813095Y-83107142D01*
X186860714Y-83154761D01*
X186955952Y-83202380D01*
X187146428Y-83202380D01*
X187241666Y-83154761D01*
X187289285Y-83107142D01*
X187336904Y-83011904D01*
X187336904Y-82773809D01*
X187289285Y-82678571D01*
X187241666Y-82630952D01*
X187146428Y-82583333D01*
X186955952Y-82583333D01*
X186860714Y-82630952D01*
X186813095Y-82678571D01*
X186765476Y-82773809D01*
D14*
X169118000Y-94302380D02*
X169118000Y-95016666D01*
X169075142Y-95159523D01*
X168989428Y-95254761D01*
X168860857Y-95302380D01*
X168775142Y-95302380D01*
X169503714Y-94397619D02*
X169546571Y-94350000D01*
X169632285Y-94302380D01*
X169846571Y-94302380D01*
X169932285Y-94350000D01*
X169975142Y-94397619D01*
X170018000Y-94492857D01*
X170018000Y-94588095D01*
X169975142Y-94730952D01*
X169460857Y-95302380D01*
X170018000Y-95302380D01*
X173692142Y-105466666D02*
X174120714Y-105466666D01*
X173606428Y-105752380D02*
X173906428Y-104752380D01*
X174206428Y-105752380D01*
X175020714Y-105752380D02*
X174720714Y-105276190D01*
X174506428Y-105752380D02*
X174506428Y-104752380D01*
X174849285Y-104752380D01*
X174935000Y-104800000D01*
X174977857Y-104847619D01*
X175020714Y-104942857D01*
X175020714Y-105085714D01*
X174977857Y-105180952D01*
X174935000Y-105228571D01*
X174849285Y-105276190D01*
X174506428Y-105276190D01*
X175663571Y-104752380D02*
X175663571Y-105466666D01*
X175620714Y-105609523D01*
X175535000Y-105704761D01*
X175406428Y-105752380D01*
X175320714Y-105752380D01*
X176092142Y-105752380D02*
X176092142Y-104752380D01*
X176392142Y-105466666D01*
X176692142Y-104752380D01*
X176692142Y-105752380D01*
X177592142Y-105752380D02*
X177077857Y-105752380D01*
X177335000Y-105752380D02*
X177335000Y-104752380D01*
X177249285Y-104895238D01*
X177163571Y-104990476D01*
X177077857Y-105038095D01*
X178449285Y-105752380D02*
X177935000Y-105752380D01*
X178192142Y-105752380D02*
X178192142Y-104752380D01*
X178106428Y-104895238D01*
X178020714Y-104990476D01*
X177935000Y-105038095D01*
X178792142Y-105466666D02*
X179220714Y-105466666D01*
X178706428Y-105752380D02*
X179006428Y-104752380D01*
X179306428Y-105752380D01*
X179520714Y-104752380D02*
X180077857Y-104752380D01*
X179777857Y-105133333D01*
X179906428Y-105133333D01*
X179992142Y-105180952D01*
X180035000Y-105228571D01*
X180077857Y-105323809D01*
X180077857Y-105561904D01*
X180035000Y-105657142D01*
X179992142Y-105704761D01*
X179906428Y-105752380D01*
X179649285Y-105752380D01*
X179563571Y-105704761D01*
X179520714Y-105657142D01*
D10*
X166452380Y-81142857D02*
X165976190Y-81476190D01*
X166452380Y-81714285D02*
X165452380Y-81714285D01*
X165452380Y-81333333D01*
X165500000Y-81238095D01*
X165547619Y-81190476D01*
X165642857Y-81142857D01*
X165785714Y-81142857D01*
X165880952Y-81190476D01*
X165928571Y-81238095D01*
X165976190Y-81333333D01*
X165976190Y-81714285D01*
X166452380Y-80190476D02*
X166452380Y-80761904D01*
X166452380Y-80476190D02*
X165452380Y-80476190D01*
X165595238Y-80571428D01*
X165690476Y-80666666D01*
X165738095Y-80761904D01*
X166452380Y-79714285D02*
X166452380Y-79523809D01*
X166404761Y-79428571D01*
X166357142Y-79380952D01*
X166214285Y-79285714D01*
X166023809Y-79238095D01*
X165642857Y-79238095D01*
X165547619Y-79285714D01*
X165500000Y-79333333D01*
X165452380Y-79428571D01*
X165452380Y-79619047D01*
X165500000Y-79714285D01*
X165547619Y-79761904D01*
X165642857Y-79809523D01*
X165880952Y-79809523D01*
X165976190Y-79761904D01*
X166023809Y-79714285D01*
X166071428Y-79619047D01*
X166071428Y-79428571D01*
X166023809Y-79333333D01*
X165976190Y-79285714D01*
X165880952Y-79238095D01*
X166452380Y-84580357D02*
X165976190Y-84913690D01*
X166452380Y-85151785D02*
X165452380Y-85151785D01*
X165452380Y-84770833D01*
X165500000Y-84675595D01*
X165547619Y-84627976D01*
X165642857Y-84580357D01*
X165785714Y-84580357D01*
X165880952Y-84627976D01*
X165928571Y-84675595D01*
X165976190Y-84770833D01*
X165976190Y-85151785D01*
X166452380Y-83627976D02*
X166452380Y-84199404D01*
X166452380Y-83913690D02*
X165452380Y-83913690D01*
X165595238Y-84008928D01*
X165690476Y-84104166D01*
X165738095Y-84199404D01*
X165880952Y-83056547D02*
X165833333Y-83151785D01*
X165785714Y-83199404D01*
X165690476Y-83247023D01*
X165642857Y-83247023D01*
X165547619Y-83199404D01*
X165500000Y-83151785D01*
X165452380Y-83056547D01*
X165452380Y-82866071D01*
X165500000Y-82770833D01*
X165547619Y-82723214D01*
X165642857Y-82675595D01*
X165690476Y-82675595D01*
X165785714Y-82723214D01*
X165833333Y-82770833D01*
X165880952Y-82866071D01*
X165880952Y-83056547D01*
X165928571Y-83151785D01*
X165976190Y-83199404D01*
X166071428Y-83247023D01*
X166261904Y-83247023D01*
X166357142Y-83199404D01*
X166404761Y-83151785D01*
X166452380Y-83056547D01*
X166452380Y-82866071D01*
X166404761Y-82770833D01*
X166357142Y-82723214D01*
X166261904Y-82675595D01*
X166071428Y-82675595D01*
X165976190Y-82723214D01*
X165928571Y-82770833D01*
X165880952Y-82866071D01*
X166552380Y-88380357D02*
X166076190Y-88713690D01*
X166552380Y-88951785D02*
X165552380Y-88951785D01*
X165552380Y-88570833D01*
X165600000Y-88475595D01*
X165647619Y-88427976D01*
X165742857Y-88380357D01*
X165885714Y-88380357D01*
X165980952Y-88427976D01*
X166028571Y-88475595D01*
X166076190Y-88570833D01*
X166076190Y-88951785D01*
X166552380Y-87427976D02*
X166552380Y-87999404D01*
X166552380Y-87713690D02*
X165552380Y-87713690D01*
X165695238Y-87808928D01*
X165790476Y-87904166D01*
X165838095Y-87999404D01*
X165552380Y-87094642D02*
X165552380Y-86427976D01*
X166552380Y-86856547D01*
X140607142Y-84952380D02*
X140273809Y-84476190D01*
X140035714Y-84952380D02*
X140035714Y-83952380D01*
X140416666Y-83952380D01*
X140511904Y-84000000D01*
X140559523Y-84047619D01*
X140607142Y-84142857D01*
X140607142Y-84285714D01*
X140559523Y-84380952D01*
X140511904Y-84428571D01*
X140416666Y-84476190D01*
X140035714Y-84476190D01*
X141559523Y-84952380D02*
X140988095Y-84952380D01*
X141273809Y-84952380D02*
X141273809Y-83952380D01*
X141178571Y-84095238D01*
X141083333Y-84190476D01*
X140988095Y-84238095D01*
X142416666Y-83952380D02*
X142226190Y-83952380D01*
X142130952Y-84000000D01*
X142083333Y-84047619D01*
X141988095Y-84190476D01*
X141940476Y-84380952D01*
X141940476Y-84761904D01*
X141988095Y-84857142D01*
X142035714Y-84904761D01*
X142130952Y-84952380D01*
X142321428Y-84952380D01*
X142416666Y-84904761D01*
X142464285Y-84857142D01*
X142511904Y-84761904D01*
X142511904Y-84523809D01*
X142464285Y-84428571D01*
X142416666Y-84380952D01*
X142321428Y-84333333D01*
X142130952Y-84333333D01*
X142035714Y-84380952D01*
X141988095Y-84428571D01*
X141940476Y-84523809D01*
X164352380Y-108542857D02*
X163876190Y-108876190D01*
X164352380Y-109114285D02*
X163352380Y-109114285D01*
X163352380Y-108733333D01*
X163400000Y-108638095D01*
X163447619Y-108590476D01*
X163542857Y-108542857D01*
X163685714Y-108542857D01*
X163780952Y-108590476D01*
X163828571Y-108638095D01*
X163876190Y-108733333D01*
X163876190Y-109114285D01*
X164352380Y-107590476D02*
X164352380Y-108161904D01*
X164352380Y-107876190D02*
X163352380Y-107876190D01*
X163495238Y-107971428D01*
X163590476Y-108066666D01*
X163638095Y-108161904D01*
X163352380Y-106685714D02*
X163352380Y-107161904D01*
X163828571Y-107209523D01*
X163780952Y-107161904D01*
X163733333Y-107066666D01*
X163733333Y-106828571D01*
X163780952Y-106733333D01*
X163828571Y-106685714D01*
X163923809Y-106638095D01*
X164161904Y-106638095D01*
X164257142Y-106685714D01*
X164304761Y-106733333D01*
X164352380Y-106828571D01*
X164352380Y-107066666D01*
X164304761Y-107161904D01*
X164257142Y-107209523D01*
X164282380Y-113418857D02*
X163806190Y-113752190D01*
X164282380Y-113990285D02*
X163282380Y-113990285D01*
X163282380Y-113609333D01*
X163330000Y-113514095D01*
X163377619Y-113466476D01*
X163472857Y-113418857D01*
X163615714Y-113418857D01*
X163710952Y-113466476D01*
X163758571Y-113514095D01*
X163806190Y-113609333D01*
X163806190Y-113990285D01*
X164282380Y-112466476D02*
X164282380Y-113037904D01*
X164282380Y-112752190D02*
X163282380Y-112752190D01*
X163425238Y-112847428D01*
X163520476Y-112942666D01*
X163568095Y-113037904D01*
X163615714Y-111609333D02*
X164282380Y-111609333D01*
X163234761Y-111847428D02*
X163949047Y-112085523D01*
X163949047Y-111466476D01*
X183252380Y-94092857D02*
X182776190Y-94426190D01*
X183252380Y-94664285D02*
X182252380Y-94664285D01*
X182252380Y-94283333D01*
X182300000Y-94188095D01*
X182347619Y-94140476D01*
X182442857Y-94092857D01*
X182585714Y-94092857D01*
X182680952Y-94140476D01*
X182728571Y-94188095D01*
X182776190Y-94283333D01*
X182776190Y-94664285D01*
X183252380Y-93140476D02*
X183252380Y-93711904D01*
X183252380Y-93426190D02*
X182252380Y-93426190D01*
X182395238Y-93521428D01*
X182490476Y-93616666D01*
X182538095Y-93711904D01*
X182252380Y-92807142D02*
X182252380Y-92188095D01*
X182633333Y-92521428D01*
X182633333Y-92378571D01*
X182680952Y-92283333D01*
X182728571Y-92235714D01*
X182823809Y-92188095D01*
X183061904Y-92188095D01*
X183157142Y-92235714D01*
X183204761Y-92283333D01*
X183252380Y-92378571D01*
X183252380Y-92664285D01*
X183204761Y-92759523D01*
X183157142Y-92807142D01*
X184602380Y-94092857D02*
X184126190Y-94426190D01*
X184602380Y-94664285D02*
X183602380Y-94664285D01*
X183602380Y-94283333D01*
X183650000Y-94188095D01*
X183697619Y-94140476D01*
X183792857Y-94092857D01*
X183935714Y-94092857D01*
X184030952Y-94140476D01*
X184078571Y-94188095D01*
X184126190Y-94283333D01*
X184126190Y-94664285D01*
X184602380Y-93140476D02*
X184602380Y-93711904D01*
X184602380Y-93426190D02*
X183602380Y-93426190D01*
X183745238Y-93521428D01*
X183840476Y-93616666D01*
X183888095Y-93711904D01*
X183697619Y-92759523D02*
X183650000Y-92711904D01*
X183602380Y-92616666D01*
X183602380Y-92378571D01*
X183650000Y-92283333D01*
X183697619Y-92235714D01*
X183792857Y-92188095D01*
X183888095Y-92188095D01*
X184030952Y-92235714D01*
X184602380Y-92807142D01*
X184602380Y-92188095D01*
X171452380Y-94092857D02*
X170976190Y-94426190D01*
X171452380Y-94664285D02*
X170452380Y-94664285D01*
X170452380Y-94283333D01*
X170500000Y-94188095D01*
X170547619Y-94140476D01*
X170642857Y-94092857D01*
X170785714Y-94092857D01*
X170880952Y-94140476D01*
X170928571Y-94188095D01*
X170976190Y-94283333D01*
X170976190Y-94664285D01*
X171452380Y-93140476D02*
X171452380Y-93711904D01*
X171452380Y-93426190D02*
X170452380Y-93426190D01*
X170595238Y-93521428D01*
X170690476Y-93616666D01*
X170738095Y-93711904D01*
X171452380Y-92188095D02*
X171452380Y-92759523D01*
X171452380Y-92473809D02*
X170452380Y-92473809D01*
X170595238Y-92569047D01*
X170690476Y-92664285D01*
X170738095Y-92759523D01*
X172852380Y-94092857D02*
X172376190Y-94426190D01*
X172852380Y-94664285D02*
X171852380Y-94664285D01*
X171852380Y-94283333D01*
X171900000Y-94188095D01*
X171947619Y-94140476D01*
X172042857Y-94092857D01*
X172185714Y-94092857D01*
X172280952Y-94140476D01*
X172328571Y-94188095D01*
X172376190Y-94283333D01*
X172376190Y-94664285D01*
X172852380Y-93140476D02*
X172852380Y-93711904D01*
X172852380Y-93426190D02*
X171852380Y-93426190D01*
X171995238Y-93521428D01*
X172090476Y-93616666D01*
X172138095Y-93711904D01*
X171852380Y-92521428D02*
X171852380Y-92426190D01*
X171900000Y-92330952D01*
X171947619Y-92283333D01*
X172042857Y-92235714D01*
X172233333Y-92188095D01*
X172471428Y-92188095D01*
X172661904Y-92235714D01*
X172757142Y-92283333D01*
X172804761Y-92330952D01*
X172852380Y-92426190D01*
X172852380Y-92521428D01*
X172804761Y-92616666D01*
X172757142Y-92664285D01*
X172661904Y-92711904D01*
X172471428Y-92759523D01*
X172233333Y-92759523D01*
X172042857Y-92711904D01*
X171947619Y-92664285D01*
X171900000Y-92616666D01*
X171852380Y-92521428D01*
X185358333Y-89402380D02*
X185025000Y-88926190D01*
X184786904Y-89402380D02*
X184786904Y-88402380D01*
X185167857Y-88402380D01*
X185263095Y-88450000D01*
X185310714Y-88497619D01*
X185358333Y-88592857D01*
X185358333Y-88735714D01*
X185310714Y-88830952D01*
X185263095Y-88878571D01*
X185167857Y-88926190D01*
X184786904Y-88926190D01*
X185834523Y-89402380D02*
X186025000Y-89402380D01*
X186120238Y-89354761D01*
X186167857Y-89307142D01*
X186263095Y-89164285D01*
X186310714Y-88973809D01*
X186310714Y-88592857D01*
X186263095Y-88497619D01*
X186215476Y-88450000D01*
X186120238Y-88402380D01*
X185929761Y-88402380D01*
X185834523Y-88450000D01*
X185786904Y-88497619D01*
X185739285Y-88592857D01*
X185739285Y-88830952D01*
X185786904Y-88926190D01*
X185834523Y-88973809D01*
X185929761Y-89021428D01*
X186120238Y-89021428D01*
X186215476Y-88973809D01*
X186263095Y-88926190D01*
X186310714Y-88830952D01*
X176502380Y-79129166D02*
X176026190Y-79462500D01*
X176502380Y-79700595D02*
X175502380Y-79700595D01*
X175502380Y-79319642D01*
X175550000Y-79224404D01*
X175597619Y-79176785D01*
X175692857Y-79129166D01*
X175835714Y-79129166D01*
X175930952Y-79176785D01*
X175978571Y-79224404D01*
X176026190Y-79319642D01*
X176026190Y-79700595D01*
X175930952Y-78557738D02*
X175883333Y-78652976D01*
X175835714Y-78700595D01*
X175740476Y-78748214D01*
X175692857Y-78748214D01*
X175597619Y-78700595D01*
X175550000Y-78652976D01*
X175502380Y-78557738D01*
X175502380Y-78367261D01*
X175550000Y-78272023D01*
X175597619Y-78224404D01*
X175692857Y-78176785D01*
X175740476Y-78176785D01*
X175835714Y-78224404D01*
X175883333Y-78272023D01*
X175930952Y-78367261D01*
X175930952Y-78557738D01*
X175978571Y-78652976D01*
X176026190Y-78700595D01*
X176121428Y-78748214D01*
X176311904Y-78748214D01*
X176407142Y-78700595D01*
X176454761Y-78652976D01*
X176502380Y-78557738D01*
X176502380Y-78367261D01*
X176454761Y-78272023D01*
X176407142Y-78224404D01*
X176311904Y-78176785D01*
X176121428Y-78176785D01*
X176026190Y-78224404D01*
X175978571Y-78272023D01*
X175930952Y-78367261D01*
X169545833Y-86452380D02*
X169212500Y-85976190D01*
X168974404Y-86452380D02*
X168974404Y-85452380D01*
X169355357Y-85452380D01*
X169450595Y-85500000D01*
X169498214Y-85547619D01*
X169545833Y-85642857D01*
X169545833Y-85785714D01*
X169498214Y-85880952D01*
X169450595Y-85928571D01*
X169355357Y-85976190D01*
X168974404Y-85976190D01*
X169879166Y-85452380D02*
X170545833Y-85452380D01*
X170117261Y-86452380D01*
X169520833Y-88002380D02*
X169187500Y-87526190D01*
X168949404Y-88002380D02*
X168949404Y-87002380D01*
X169330357Y-87002380D01*
X169425595Y-87050000D01*
X169473214Y-87097619D01*
X169520833Y-87192857D01*
X169520833Y-87335714D01*
X169473214Y-87430952D01*
X169425595Y-87478571D01*
X169330357Y-87526190D01*
X168949404Y-87526190D01*
X170377976Y-87002380D02*
X170187500Y-87002380D01*
X170092261Y-87050000D01*
X170044642Y-87097619D01*
X169949404Y-87240476D01*
X169901785Y-87430952D01*
X169901785Y-87811904D01*
X169949404Y-87907142D01*
X169997023Y-87954761D01*
X170092261Y-88002380D01*
X170282738Y-88002380D01*
X170377976Y-87954761D01*
X170425595Y-87907142D01*
X170473214Y-87811904D01*
X170473214Y-87573809D01*
X170425595Y-87478571D01*
X170377976Y-87430952D01*
X170282738Y-87383333D01*
X170092261Y-87383333D01*
X169997023Y-87430952D01*
X169949404Y-87478571D01*
X169901785Y-87573809D01*
X169583333Y-84902380D02*
X169250000Y-84426190D01*
X169011904Y-84902380D02*
X169011904Y-83902380D01*
X169392857Y-83902380D01*
X169488095Y-83950000D01*
X169535714Y-83997619D01*
X169583333Y-84092857D01*
X169583333Y-84235714D01*
X169535714Y-84330952D01*
X169488095Y-84378571D01*
X169392857Y-84426190D01*
X169011904Y-84426190D01*
X170488095Y-83902380D02*
X170011904Y-83902380D01*
X169964285Y-84378571D01*
X170011904Y-84330952D01*
X170107142Y-84283333D01*
X170345238Y-84283333D01*
X170440476Y-84330952D01*
X170488095Y-84378571D01*
X170535714Y-84473809D01*
X170535714Y-84711904D01*
X170488095Y-84807142D01*
X170440476Y-84854761D01*
X170345238Y-84902380D01*
X170107142Y-84902380D01*
X170011904Y-84854761D01*
X169964285Y-84807142D01*
X181152380Y-79016666D02*
X180676190Y-79350000D01*
X181152380Y-79588095D02*
X180152380Y-79588095D01*
X180152380Y-79207142D01*
X180200000Y-79111904D01*
X180247619Y-79064285D01*
X180342857Y-79016666D01*
X180485714Y-79016666D01*
X180580952Y-79064285D01*
X180628571Y-79111904D01*
X180676190Y-79207142D01*
X180676190Y-79588095D01*
X180485714Y-78159523D02*
X181152380Y-78159523D01*
X180104761Y-78397619D02*
X180819047Y-78635714D01*
X180819047Y-78016666D01*
X179602380Y-79066666D02*
X179126190Y-79400000D01*
X179602380Y-79638095D02*
X178602380Y-79638095D01*
X178602380Y-79257142D01*
X178650000Y-79161904D01*
X178697619Y-79114285D01*
X178792857Y-79066666D01*
X178935714Y-79066666D01*
X179030952Y-79114285D01*
X179078571Y-79161904D01*
X179126190Y-79257142D01*
X179126190Y-79638095D01*
X178602380Y-78733333D02*
X178602380Y-78114285D01*
X178983333Y-78447619D01*
X178983333Y-78304761D01*
X179030952Y-78209523D01*
X179078571Y-78161904D01*
X179173809Y-78114285D01*
X179411904Y-78114285D01*
X179507142Y-78161904D01*
X179554761Y-78209523D01*
X179602380Y-78304761D01*
X179602380Y-78590476D01*
X179554761Y-78685714D01*
X179507142Y-78733333D01*
X140557142Y-82257142D02*
X140509523Y-82304761D01*
X140366666Y-82352380D01*
X140271428Y-82352380D01*
X140128571Y-82304761D01*
X140033333Y-82209523D01*
X139985714Y-82114285D01*
X139938095Y-81923809D01*
X139938095Y-81780952D01*
X139985714Y-81590476D01*
X140033333Y-81495238D01*
X140128571Y-81400000D01*
X140271428Y-81352380D01*
X140366666Y-81352380D01*
X140509523Y-81400000D01*
X140557142Y-81447619D01*
X141509523Y-82352380D02*
X140938095Y-82352380D01*
X141223809Y-82352380D02*
X141223809Y-81352380D01*
X141128571Y-81495238D01*
X141033333Y-81590476D01*
X140938095Y-81638095D01*
X142366666Y-81685714D02*
X142366666Y-82352380D01*
X142128571Y-81304761D02*
X141890476Y-82019047D01*
X142509523Y-82019047D01*
X140607142Y-83557142D02*
X140559523Y-83604761D01*
X140416666Y-83652380D01*
X140321428Y-83652380D01*
X140178571Y-83604761D01*
X140083333Y-83509523D01*
X140035714Y-83414285D01*
X139988095Y-83223809D01*
X139988095Y-83080952D01*
X140035714Y-82890476D01*
X140083333Y-82795238D01*
X140178571Y-82700000D01*
X140321428Y-82652380D01*
X140416666Y-82652380D01*
X140559523Y-82700000D01*
X140607142Y-82747619D01*
X141559523Y-83652380D02*
X140988095Y-83652380D01*
X141273809Y-83652380D02*
X141273809Y-82652380D01*
X141178571Y-82795238D01*
X141083333Y-82890476D01*
X140988095Y-82938095D01*
X141892857Y-82652380D02*
X142511904Y-82652380D01*
X142178571Y-83033333D01*
X142321428Y-83033333D01*
X142416666Y-83080952D01*
X142464285Y-83128571D01*
X142511904Y-83223809D01*
X142511904Y-83461904D01*
X142464285Y-83557142D01*
X142416666Y-83604761D01*
X142321428Y-83652380D01*
X142035714Y-83652380D01*
X141940476Y-83604761D01*
X141892857Y-83557142D01*
X185432142Y-84657142D02*
X185384523Y-84704761D01*
X185241666Y-84752380D01*
X185146428Y-84752380D01*
X185003571Y-84704761D01*
X184908333Y-84609523D01*
X184860714Y-84514285D01*
X184813095Y-84323809D01*
X184813095Y-84180952D01*
X184860714Y-83990476D01*
X184908333Y-83895238D01*
X185003571Y-83800000D01*
X185146428Y-83752380D01*
X185241666Y-83752380D01*
X185384523Y-83800000D01*
X185432142Y-83847619D01*
X186384523Y-84752380D02*
X185813095Y-84752380D01*
X186098809Y-84752380D02*
X186098809Y-83752380D01*
X186003571Y-83895238D01*
X185908333Y-83990476D01*
X185813095Y-84038095D01*
X186765476Y-83847619D02*
X186813095Y-83800000D01*
X186908333Y-83752380D01*
X187146428Y-83752380D01*
X187241666Y-83800000D01*
X187289285Y-83847619D01*
X187336904Y-83942857D01*
X187336904Y-84038095D01*
X187289285Y-84180952D01*
X186717857Y-84752380D01*
X187336904Y-84752380D01*
X177957142Y-79055357D02*
X178004761Y-79102976D01*
X178052380Y-79245833D01*
X178052380Y-79341071D01*
X178004761Y-79483928D01*
X177909523Y-79579166D01*
X177814285Y-79626785D01*
X177623809Y-79674404D01*
X177480952Y-79674404D01*
X177290476Y-79626785D01*
X177195238Y-79579166D01*
X177100000Y-79483928D01*
X177052380Y-79341071D01*
X177052380Y-79245833D01*
X177100000Y-79102976D01*
X177147619Y-79055357D01*
X178052380Y-78102976D02*
X178052380Y-78674404D01*
X178052380Y-78388690D02*
X177052380Y-78388690D01*
X177195238Y-78483928D01*
X177290476Y-78579166D01*
X177338095Y-78674404D01*
X178052380Y-77150595D02*
X178052380Y-77722023D01*
X178052380Y-77436309D02*
X177052380Y-77436309D01*
X177195238Y-77531547D01*
X177290476Y-77626785D01*
X177338095Y-77722023D01*
X168557142Y-89457142D02*
X168509523Y-89504761D01*
X168366666Y-89552380D01*
X168271428Y-89552380D01*
X168128571Y-89504761D01*
X168033333Y-89409523D01*
X167985714Y-89314285D01*
X167938095Y-89123809D01*
X167938095Y-88980952D01*
X167985714Y-88790476D01*
X168033333Y-88695238D01*
X168128571Y-88600000D01*
X168271428Y-88552380D01*
X168366666Y-88552380D01*
X168509523Y-88600000D01*
X168557142Y-88647619D01*
X169509523Y-89552380D02*
X168938095Y-89552380D01*
X169223809Y-89552380D02*
X169223809Y-88552380D01*
X169128571Y-88695238D01*
X169033333Y-88790476D01*
X168938095Y-88838095D01*
X170128571Y-88552380D02*
X170223809Y-88552380D01*
X170319047Y-88600000D01*
X170366666Y-88647619D01*
X170414285Y-88742857D01*
X170461904Y-88933333D01*
X170461904Y-89171428D01*
X170414285Y-89361904D01*
X170366666Y-89457142D01*
X170319047Y-89504761D01*
X170223809Y-89552380D01*
X170128571Y-89552380D01*
X170033333Y-89504761D01*
X169985714Y-89457142D01*
X169938095Y-89361904D01*
X169890476Y-89171428D01*
X169890476Y-88933333D01*
X169938095Y-88742857D01*
X169985714Y-88647619D01*
X170033333Y-88600000D01*
X170128571Y-88552380D01*
X185358333Y-87757142D02*
X185310714Y-87804761D01*
X185167857Y-87852380D01*
X185072619Y-87852380D01*
X184929761Y-87804761D01*
X184834523Y-87709523D01*
X184786904Y-87614285D01*
X184739285Y-87423809D01*
X184739285Y-87280952D01*
X184786904Y-87090476D01*
X184834523Y-86995238D01*
X184929761Y-86900000D01*
X185072619Y-86852380D01*
X185167857Y-86852380D01*
X185310714Y-86900000D01*
X185358333Y-86947619D01*
X185834523Y-87852380D02*
X186025000Y-87852380D01*
X186120238Y-87804761D01*
X186167857Y-87757142D01*
X186263095Y-87614285D01*
X186310714Y-87423809D01*
X186310714Y-87042857D01*
X186263095Y-86947619D01*
X186215476Y-86900000D01*
X186120238Y-86852380D01*
X185929761Y-86852380D01*
X185834523Y-86900000D01*
X185786904Y-86947619D01*
X185739285Y-87042857D01*
X185739285Y-87280952D01*
X185786904Y-87376190D01*
X185834523Y-87423809D01*
X185929761Y-87471428D01*
X186120238Y-87471428D01*
X186215476Y-87423809D01*
X186263095Y-87376190D01*
X186310714Y-87280952D01*
X161631333Y-98401142D02*
X161583714Y-98448761D01*
X161440857Y-98496380D01*
X161345619Y-98496380D01*
X161202761Y-98448761D01*
X161107523Y-98353523D01*
X161059904Y-98258285D01*
X161012285Y-98067809D01*
X161012285Y-97924952D01*
X161059904Y-97734476D01*
X161107523Y-97639238D01*
X161202761Y-97544000D01*
X161345619Y-97496380D01*
X161440857Y-97496380D01*
X161583714Y-97544000D01*
X161631333Y-97591619D01*
X162202761Y-97924952D02*
X162107523Y-97877333D01*
X162059904Y-97829714D01*
X162012285Y-97734476D01*
X162012285Y-97686857D01*
X162059904Y-97591619D01*
X162107523Y-97544000D01*
X162202761Y-97496380D01*
X162393238Y-97496380D01*
X162488476Y-97544000D01*
X162536095Y-97591619D01*
X162583714Y-97686857D01*
X162583714Y-97734476D01*
X162536095Y-97829714D01*
X162488476Y-97877333D01*
X162393238Y-97924952D01*
X162202761Y-97924952D01*
X162107523Y-97972571D01*
X162059904Y-98020190D01*
X162012285Y-98115428D01*
X162012285Y-98305904D01*
X162059904Y-98401142D01*
X162107523Y-98448761D01*
X162202761Y-98496380D01*
X162393238Y-98496380D01*
X162488476Y-98448761D01*
X162536095Y-98401142D01*
X162583714Y-98305904D01*
X162583714Y-98115428D01*
X162536095Y-98020190D01*
X162488476Y-97972571D01*
X162393238Y-97924952D01*
X153852380Y-113411904D02*
X154661904Y-113411904D01*
X154757142Y-113364285D01*
X154804761Y-113316666D01*
X154852380Y-113221428D01*
X154852380Y-113030952D01*
X154804761Y-112935714D01*
X154757142Y-112888095D01*
X154661904Y-112840476D01*
X153852380Y-112840476D01*
X154852380Y-111840476D02*
X154852380Y-112411904D01*
X154852380Y-112126190D02*
X153852380Y-112126190D01*
X153995238Y-112221428D01*
X154090476Y-112316666D01*
X154138095Y-112411904D01*
X153183333Y-101802380D02*
X152850000Y-101326190D01*
X152611904Y-101802380D02*
X152611904Y-100802380D01*
X152992857Y-100802380D01*
X153088095Y-100850000D01*
X153135714Y-100897619D01*
X153183333Y-100992857D01*
X153183333Y-101135714D01*
X153135714Y-101230952D01*
X153088095Y-101278571D01*
X152992857Y-101326190D01*
X152611904Y-101326190D01*
X153564285Y-100897619D02*
X153611904Y-100850000D01*
X153707142Y-100802380D01*
X153945238Y-100802380D01*
X154040476Y-100850000D01*
X154088095Y-100897619D01*
X154135714Y-100992857D01*
X154135714Y-101088095D01*
X154088095Y-101230952D01*
X153516666Y-101802380D01*
X154135714Y-101802380D01*
X146133333Y-106672380D02*
X145800000Y-106196190D01*
X145561904Y-106672380D02*
X145561904Y-105672380D01*
X145942857Y-105672380D01*
X146038095Y-105720000D01*
X146085714Y-105767619D01*
X146133333Y-105862857D01*
X146133333Y-106005714D01*
X146085714Y-106100952D01*
X146038095Y-106148571D01*
X145942857Y-106196190D01*
X145561904Y-106196190D01*
X146752380Y-105672380D02*
X146847619Y-105672380D01*
X146942857Y-105720000D01*
X146990476Y-105767619D01*
X147038095Y-105862857D01*
X147085714Y-106053333D01*
X147085714Y-106291428D01*
X147038095Y-106481904D01*
X146990476Y-106577142D01*
X146942857Y-106624761D01*
X146847619Y-106672380D01*
X146752380Y-106672380D01*
X146657142Y-106624761D01*
X146609523Y-106577142D01*
X146561904Y-106481904D01*
X146514285Y-106291428D01*
X146514285Y-106053333D01*
X146561904Y-105862857D01*
X146609523Y-105767619D01*
X146657142Y-105720000D01*
X146752380Y-105672380D01*
X184086380Y-72469333D02*
X184800666Y-72469333D01*
X184943523Y-72516952D01*
X185038761Y-72612190D01*
X185086380Y-72755047D01*
X185086380Y-72850285D01*
X184086380Y-72088380D02*
X184086380Y-71469333D01*
X184467333Y-71802666D01*
X184467333Y-71659809D01*
X184514952Y-71564571D01*
X184562571Y-71516952D01*
X184657809Y-71469333D01*
X184895904Y-71469333D01*
X184991142Y-71516952D01*
X185038761Y-71564571D01*
X185086380Y-71659809D01*
X185086380Y-71945523D01*
X185038761Y-72040761D01*
X184991142Y-72088380D01*
X146466666Y-107702380D02*
X146466666Y-108416666D01*
X146419047Y-108559523D01*
X146323809Y-108654761D01*
X146180952Y-108702380D01*
X146085714Y-108702380D01*
X147466666Y-108702380D02*
X146895238Y-108702380D01*
X147180952Y-108702380D02*
X147180952Y-107702380D01*
X147085714Y-107845238D01*
X146990476Y-107940476D01*
X146895238Y-107988095D01*
X161218666Y-96194571D02*
X160885333Y-96194571D01*
X160885333Y-96718380D02*
X160885333Y-95718380D01*
X161361523Y-95718380D01*
X162075809Y-96194571D02*
X162218666Y-96242190D01*
X162266285Y-96289809D01*
X162313904Y-96385047D01*
X162313904Y-96527904D01*
X162266285Y-96623142D01*
X162218666Y-96670761D01*
X162123428Y-96718380D01*
X161742476Y-96718380D01*
X161742476Y-95718380D01*
X162075809Y-95718380D01*
X162171047Y-95766000D01*
X162218666Y-95813619D01*
X162266285Y-95908857D01*
X162266285Y-96004095D01*
X162218666Y-96099333D01*
X162171047Y-96146952D01*
X162075809Y-96194571D01*
X161742476Y-96194571D01*
X163266285Y-96718380D02*
X162694857Y-96718380D01*
X162980571Y-96718380D02*
X162980571Y-95718380D01*
X162885333Y-95861238D01*
X162790095Y-95956476D01*
X162694857Y-96004095D01*
X150461904Y-101802380D02*
X150461904Y-100802380D01*
X150700000Y-100802380D01*
X150842857Y-100850000D01*
X150938095Y-100945238D01*
X150985714Y-101040476D01*
X151033333Y-101230952D01*
X151033333Y-101373809D01*
X150985714Y-101564285D01*
X150938095Y-101659523D01*
X150842857Y-101754761D01*
X150700000Y-101802380D01*
X150461904Y-101802380D01*
X151414285Y-100897619D02*
X151461904Y-100850000D01*
X151557142Y-100802380D01*
X151795238Y-100802380D01*
X151890476Y-100850000D01*
X151938095Y-100897619D01*
X151985714Y-100992857D01*
X151985714Y-101088095D01*
X151938095Y-101230952D01*
X151366666Y-101802380D01*
X151985714Y-101802380D01*
X167473333Y-94337142D02*
X167425714Y-94384761D01*
X167282857Y-94432380D01*
X167187619Y-94432380D01*
X167044761Y-94384761D01*
X166949523Y-94289523D01*
X166901904Y-94194285D01*
X166854285Y-94003809D01*
X166854285Y-93860952D01*
X166901904Y-93670476D01*
X166949523Y-93575238D01*
X167044761Y-93480000D01*
X167187619Y-93432380D01*
X167282857Y-93432380D01*
X167425714Y-93480000D01*
X167473333Y-93527619D01*
X168330476Y-93432380D02*
X168140000Y-93432380D01*
X168044761Y-93480000D01*
X167997142Y-93527619D01*
X167901904Y-93670476D01*
X167854285Y-93860952D01*
X167854285Y-94241904D01*
X167901904Y-94337142D01*
X167949523Y-94384761D01*
X168044761Y-94432380D01*
X168235238Y-94432380D01*
X168330476Y-94384761D01*
X168378095Y-94337142D01*
X168425714Y-94241904D01*
X168425714Y-94003809D01*
X168378095Y-93908571D01*
X168330476Y-93860952D01*
X168235238Y-93813333D01*
X168044761Y-93813333D01*
X167949523Y-93860952D01*
X167901904Y-93908571D01*
X167854285Y-94003809D01*
X155933333Y-102957142D02*
X155885714Y-103004761D01*
X155742857Y-103052380D01*
X155647619Y-103052380D01*
X155504761Y-103004761D01*
X155409523Y-102909523D01*
X155361904Y-102814285D01*
X155314285Y-102623809D01*
X155314285Y-102480952D01*
X155361904Y-102290476D01*
X155409523Y-102195238D01*
X155504761Y-102100000D01*
X155647619Y-102052380D01*
X155742857Y-102052380D01*
X155885714Y-102100000D01*
X155933333Y-102147619D01*
X156790476Y-102385714D02*
X156790476Y-103052380D01*
X156552380Y-102004761D02*
X156314285Y-102719047D01*
X156933333Y-102719047D01*
X152983333Y-105069642D02*
X152935714Y-105117261D01*
X152792857Y-105164880D01*
X152697619Y-105164880D01*
X152554761Y-105117261D01*
X152459523Y-105022023D01*
X152411904Y-104926785D01*
X152364285Y-104736309D01*
X152364285Y-104593452D01*
X152411904Y-104402976D01*
X152459523Y-104307738D01*
X152554761Y-104212500D01*
X152697619Y-104164880D01*
X152792857Y-104164880D01*
X152935714Y-104212500D01*
X152983333Y-104260119D01*
X153316666Y-104164880D02*
X153935714Y-104164880D01*
X153602380Y-104545833D01*
X153745238Y-104545833D01*
X153840476Y-104593452D01*
X153888095Y-104641071D01*
X153935714Y-104736309D01*
X153935714Y-104974404D01*
X153888095Y-105069642D01*
X153840476Y-105117261D01*
X153745238Y-105164880D01*
X153459523Y-105164880D01*
X153364285Y-105117261D01*
X153316666Y-105069642D01*
X151083333Y-105057142D02*
X151035714Y-105104761D01*
X150892857Y-105152380D01*
X150797619Y-105152380D01*
X150654761Y-105104761D01*
X150559523Y-105009523D01*
X150511904Y-104914285D01*
X150464285Y-104723809D01*
X150464285Y-104580952D01*
X150511904Y-104390476D01*
X150559523Y-104295238D01*
X150654761Y-104200000D01*
X150797619Y-104152380D01*
X150892857Y-104152380D01*
X151035714Y-104200000D01*
X151083333Y-104247619D01*
X151464285Y-104247619D02*
X151511904Y-104200000D01*
X151607142Y-104152380D01*
X151845238Y-104152380D01*
X151940476Y-104200000D01*
X151988095Y-104247619D01*
X152035714Y-104342857D01*
X152035714Y-104438095D01*
X151988095Y-104580952D01*
X151416666Y-105152380D01*
X152035714Y-105152380D01*
X149183333Y-105057142D02*
X149135714Y-105104761D01*
X148992857Y-105152380D01*
X148897619Y-105152380D01*
X148754761Y-105104761D01*
X148659523Y-105009523D01*
X148611904Y-104914285D01*
X148564285Y-104723809D01*
X148564285Y-104580952D01*
X148611904Y-104390476D01*
X148659523Y-104295238D01*
X148754761Y-104200000D01*
X148897619Y-104152380D01*
X148992857Y-104152380D01*
X149135714Y-104200000D01*
X149183333Y-104247619D01*
X150135714Y-105152380D02*
X149564285Y-105152380D01*
X149850000Y-105152380D02*
X149850000Y-104152380D01*
X149754761Y-104295238D01*
X149659523Y-104390476D01*
X149564285Y-104438095D01*
M02*
