M48
; DRILL file {KiCad (5.1.4)-1} date 9/3/2020 10:31:58 AM
; FORMAT={-:-/ absolute / inch / decimal}
; #@! TF.CreationDate,2020-09-03T10:31:58-07:00
; #@! TF.GenerationSoftware,Kicad,Pcbnew,(5.1.4)-1
; #@! TF.FileFunction,Plated,1,2,PTH
FMAT,2
INCH
T1C0.0118
T2C0.0350
T3C0.0390
T4C0.0394
T5C0.0402
T6C0.0510
T7C0.0618
T8C0.0866
T9C0.1280
%
G90
G05
T1
X5.4912Y-3.6614
X5.5059Y-3.3888
X5.5197Y-4.0896
X5.5285Y-3.2293
X5.5364Y-3.6939
X5.56Y-3.3986
X5.6171Y-3.3976
X5.7402Y-3.999
X5.75Y-3.38
X5.7564Y-4.1639
X5.78Y-3.0
X5.7815Y-3.4488
X5.815Y-3.7687
X5.8287Y-3.3957
X5.8287Y-3.6014
X5.92Y-3.24
X5.92Y-3.37
X5.9547Y-4.5157
X5.98Y-3.12
X5.98Y-3.3
X5.98Y-3.5
X6.05Y-3.24
X6.05Y-3.37
X6.1142Y-3.9272
X6.1969Y-3.9281
X6.22Y-3.42
X6.2697Y-3.2697
X6.2795Y-3.9232
X6.34Y-4.37
X6.3888Y-3.9232
X6.4104Y-3.7067
X6.4213Y-3.3996
X6.4213Y-4.1043
X6.4232Y-3.1358
X6.5335Y-3.376
X6.5374Y-3.0295
X6.54Y-3.99
X6.5541Y-3.4931
X6.5728Y-3.5709
X6.58Y-3.34
X6.6063Y-3.5
X6.6476Y-3.2303
X6.6516Y-3.3366
X6.6516Y-3.4783
X6.6594Y-3.126
X6.6693Y-3.6811
X6.69Y-2.93
X6.7441Y-3.1752
X6.7598Y-3.1043
X6.7761Y-3.2717
X6.7953Y-3.6142
X6.8189Y-3.0591
X6.853Y-3.437
X6.8681Y-3.3524
X6.876Y-3.4173
X6.876Y-3.4567
X6.9606Y-3.3819
X6.99Y-3.42
X6.9902Y-3.5866
X7.0Y-3.2815
X7.0138Y-3.3799
X7.1083Y-3.437
X7.11Y-2.84
X7.1122Y-3.5413
X7.1161Y-3.378
X7.13Y-3.06
X7.13Y-3.41
X7.26Y-3.83
X7.36Y-3.32
T2
X6.789Y-3.8957
X6.839Y-3.7957
X6.889Y-3.8957
X6.939Y-3.7957
X6.989Y-3.8957
X7.039Y-3.7957
X7.089Y-3.8957
X7.139Y-3.7957
T3
X5.5256Y-4.0039
X5.5256Y-4.1811
T4
X6.76Y-2.79
X6.76Y-2.89
X6.86Y-2.79
X6.86Y-2.89
X6.96Y-2.79
X6.96Y-2.89
X7.06Y-2.79
X7.06Y-2.89
X7.16Y-2.79
X7.16Y-2.89
T5
X6.715Y-4.3386
X6.8114Y-4.2787
X7.1165Y-4.3386
X7.213Y-4.2787
T6
X5.6236Y-3.9545
X5.6236Y-4.2305
T7
X6.6539Y-4.0256
X7.274Y-4.0256
T8
X7.2657Y-3.0866
X5.9094Y-4.0098
T9
X6.739Y-4.1457
X7.189Y-4.1457
T0
M30
