M48
; DRILL file {KiCad (5.1.5)-3} date 8/13/2020 6:58:08 PM
; FORMAT={-:-/ absolute / inch / decimal}
; #@! TF.CreationDate,2020-08-13T18:58:08-07:00
; #@! TF.GenerationSoftware,Kicad,Pcbnew,(5.1.5)-3
FMAT,2
INCH
T1C0.0118
T2C0.0350
T3C0.0394
T4C0.0402
T5C0.0618
T6C0.1280
T7C0.0787
%
G90
G05
T1
X5.56Y-4.28
X5.72Y-3.73
X5.75Y-3.38
X5.78Y-3.0
X5.7815Y-3.4488
X5.8051Y-3.5492
X5.81Y-3.35
X5.8287Y-3.3957
X5.92Y-3.24
X5.92Y-3.37
X5.98Y-3.12
X5.98Y-3.3
X5.98Y-3.5
X6.05Y-3.24
X6.05Y-3.37
X6.22Y-3.42
X6.34Y-4.37
X6.38Y-3.96
X6.4213Y-3.3996
X6.4232Y-3.1496
X6.43Y-3.02
X6.4698Y-3.5709
X6.5256Y-3.5354
X6.5335Y-3.376
X6.54Y-3.99
X6.58Y-3.34
X6.61Y-3.49
X6.6417Y-3.2205
X6.6516Y-3.4724
X6.6594Y-3.126
X6.6693Y-3.6811
X6.69Y-2.93
X6.7441Y-3.1752
X6.7598Y-3.1043
X6.7761Y-3.2717
X6.7953Y-3.6142
X6.8189Y-3.0591
X6.853Y-3.437
X6.8681Y-3.3524
X6.876Y-3.4173
X6.876Y-3.4567
X6.9606Y-3.3819
X6.99Y-3.42
X6.9902Y-3.5866
X7.0Y-3.2815
X7.0138Y-3.3799
X7.1083Y-3.437
X7.11Y-2.84
X7.1122Y-3.5413
X7.1161Y-3.378
X7.13Y-3.06
X7.13Y-3.41
X7.26Y-3.83
X7.36Y-3.32
T2
X6.789Y-3.8957
X6.839Y-3.7957
X6.889Y-3.8957
X6.939Y-3.7957
X6.989Y-3.8957
X7.039Y-3.7957
X7.089Y-3.8957
X7.139Y-3.7957
T3
X6.76Y-2.79
X6.76Y-2.89
X6.86Y-2.79
X6.86Y-2.89
X6.96Y-2.79
X6.96Y-2.89
X7.06Y-2.79
X7.06Y-2.89
X7.16Y-2.79
X7.16Y-2.89
T4
X6.715Y-4.3386
X6.8114Y-4.2787
X7.1165Y-4.3386
X7.213Y-4.2787
T5
X6.6539Y-4.0256
X7.274Y-4.0256
T6
X6.739Y-4.1457
X7.189Y-4.1457
T7
X5.61Y-4.04
X7.28Y-3.11
T0
M30
