G04 #@! TF.GenerationSoftware,KiCad,Pcbnew,(5.1.5)-3*
G04 #@! TF.CreationDate,2020-09-21T18:29:48-07:00*
G04 #@! TF.ProjectId,EsperDNS,45737065-7244-44e5-932e-6b696361645f,rev?*
G04 #@! TF.SameCoordinates,Original*
G04 #@! TF.FileFunction,Copper,L2,Bot*
G04 #@! TF.FilePolarity,Positive*
%FSLAX46Y46*%
G04 Gerber Fmt 4.6, Leading zero omitted, Abs format (unit mm)*
G04 Created by KiCad (PCBNEW (5.1.5)-3) date 2020-09-21 18:29:48*
%MOMM*%
%LPD*%
G04 APERTURE LIST*
%ADD10C,1.803400*%
%ADD11C,1.498600*%
%ADD12C,4.266000*%
%ADD13C,2.355000*%
%ADD14C,1.398000*%
%ADD15C,1.530000*%
%ADD16C,4.400000*%
%ADD17O,1.700000X1.700000*%
%ADD18R,1.700000X1.700000*%
%ADD19C,0.600000*%
%ADD20C,0.254000*%
%ADD21C,0.127000*%
G04 APERTURE END LIST*
D10*
X-2159701Y-33955001D03*
X-2159701Y-26945000D03*
D11*
X-4650000Y-32700001D03*
X-4650000Y-28200000D03*
D12*
X24085000Y-32650000D03*
X35515000Y-32650000D03*
D13*
X21925000Y-29600000D03*
X37675000Y-29600000D03*
D14*
X25355000Y-26300000D03*
X34245000Y-23760000D03*
X26625000Y-23760000D03*
X32975000Y-26300000D03*
X27895000Y-26300000D03*
X31705000Y-23760000D03*
X29165000Y-23760000D03*
X30435000Y-26300000D03*
D15*
X23475000Y-37550000D03*
X36125000Y-36030000D03*
X25925000Y-36030000D03*
X33675000Y-37550000D03*
D16*
X37450000Y-4300000D03*
X5300000Y-27800000D03*
D17*
X24604000Y3234000D03*
X24604000Y694000D03*
X27144000Y3234000D03*
X27144000Y694000D03*
X29684000Y3234000D03*
X29684000Y694000D03*
X32224000Y3234000D03*
X32224000Y694000D03*
X34764000Y3234000D03*
D18*
X34764000Y694000D03*
D19*
X4792000Y-9720000D03*
X3268000Y-11498000D03*
X6570000Y-11498000D03*
X6570000Y-8196000D03*
X3268000Y-8196000D03*
X30446000Y-12768000D03*
X31050000Y-11750000D03*
X29700000Y-11800000D03*
X22300000Y-19400000D03*
X30450000Y-17000000D03*
X33550000Y-15850000D03*
X25500000Y-17700000D03*
X20700000Y-14800000D03*
X4792000Y-14800000D03*
X4792000Y-5148000D03*
X13936000Y-36898000D03*
X37304000Y-23182000D03*
X34002000Y-3624000D03*
X18950000Y-2850000D03*
X16000000Y-29950000D03*
X20032000Y-10736000D03*
X-1050000Y-11752000D03*
X-288000Y-2100000D03*
X10888000Y-12768000D03*
X19016000Y-27246000D03*
X22826000Y-322000D03*
X33494000Y1964000D03*
X21850000Y-10650000D03*
X4150000Y-40600000D03*
X-7250000Y-11975000D03*
X600000Y-21625000D03*
X14000000Y-24600000D03*
X15725000Y-20050000D03*
X-6050000Y-36000000D03*
X30600000Y-21500000D03*
X8350000Y-31450000D03*
X23000000Y-15800000D03*
X-7622978Y-18900000D03*
X-100000Y-32600000D03*
X-2950000Y-29450000D03*
X30700000Y-9250000D03*
X39844000Y-10228000D03*
X950000Y-17375000D03*
X-6675000Y-7925000D03*
X17361500Y-36988500D03*
X19500000Y-24900000D03*
X34002000Y-12514000D03*
X33450000Y-13200000D03*
X22050000Y-5300000D03*
X16050000Y-5550012D03*
X24600000Y-4750000D03*
X950000Y-12150000D03*
X26100000Y-3600000D03*
X-250000Y-13500000D03*
X25012500Y-9000000D03*
X16000000Y-12250000D03*
X26966000Y-13200000D03*
X19375000Y-14625000D03*
X27550000Y-12700000D03*
X18850000Y-11650000D03*
X27550000Y-13700000D03*
X21850000Y-14250000D03*
X27350000Y-11050000D03*
X21750002Y-7950002D03*
X24200000Y-6550000D03*
X12150000Y-8950000D03*
X33650000Y-11700000D03*
X19850000Y-16600000D03*
X13650000Y-25600000D03*
X-4425000Y-12200000D03*
X11500000Y-25675000D03*
X-5875000Y-12225000D03*
X9350000Y-25650000D03*
X-6475000Y-19725000D03*
X13200000Y-20700000D03*
X12450000Y-17300000D03*
D20*
X-7622978Y-19324264D02*
X-7622978Y-18900000D01*
X-524264Y-32600000D02*
X-874264Y-32250000D01*
X-100000Y-32600000D02*
X-524264Y-32600000D01*
X-874264Y-32250000D02*
X-2800000Y-32250000D01*
X-7622978Y-27427022D02*
X-7622978Y-19324264D01*
D21*
X-4200000Y-30700000D02*
X-4250000Y-30700000D01*
X-2950000Y-29450000D02*
X-4200000Y-30700000D01*
D20*
X-2800000Y-32250000D02*
X-4250000Y-30700000D01*
X-4250000Y-30700000D02*
X-7622978Y-27427022D01*
X39844000Y-10228000D02*
X38828000Y-9212000D01*
X38790000Y-9250000D02*
X30700000Y-9250000D01*
X38828000Y-9212000D02*
X38790000Y-9250000D01*
X-6375001Y-8224999D02*
X-6675000Y-7925000D01*
X-6375001Y-9149999D02*
X-6375001Y-8224999D01*
X-3650000Y-11875000D02*
X-6375001Y-9149999D01*
X-3650000Y-15725000D02*
X-3650000Y-11875000D01*
X950000Y-17375000D02*
X-2000000Y-17375000D01*
X-2000000Y-17375000D02*
X-3650000Y-15725000D01*
X30420000Y-24850000D02*
X29150000Y-23580000D01*
X30435000Y-24865000D02*
X30435000Y-26300000D01*
D21*
X30420000Y-24850000D02*
X30435000Y-24865000D01*
D20*
X17361500Y-27038500D02*
X19500000Y-24900000D01*
X17361500Y-36988500D02*
X17361500Y-27038500D01*
D21*
X34002000Y-12514000D02*
X34002000Y-12514000D01*
X34814000Y-12514000D02*
X34002000Y-12514000D01*
X40100000Y-17800000D02*
X34814000Y-12514000D01*
X35775000Y-38725000D02*
X40100000Y-34400000D01*
X23460000Y-37600000D02*
X24585000Y-38725000D01*
X24585000Y-38725000D02*
X35775000Y-38725000D01*
X40100000Y-34400000D02*
X40100000Y-32850000D01*
X40100000Y-32900000D02*
X40100000Y-32850000D01*
X40100000Y-32850000D02*
X40100000Y-17800000D01*
X38500000Y-33750000D02*
X36124999Y-36125001D01*
X33450000Y-13200000D02*
X39250000Y-19000000D01*
X39250000Y-19000000D02*
X39250000Y-31440000D01*
X38500000Y-32190000D02*
X39250000Y-31440000D01*
X38500000Y-33750000D02*
X38500000Y-32190000D01*
X22050000Y-5300000D02*
X22050000Y-5300000D01*
X22050000Y-5300000D02*
X16300012Y-5300000D01*
X16300012Y-5300000D02*
X16050000Y-5550012D01*
X950000Y-12150000D02*
X950000Y-12150000D01*
X1300000Y-11800000D02*
X950000Y-12150000D01*
X24600000Y-4750000D02*
X24175736Y-4750000D01*
X1300000Y-7250000D02*
X1300000Y-11800000D01*
X24175736Y-4750000D02*
X23375736Y-3950000D01*
X23375736Y-3950000D02*
X4600000Y-3950000D01*
X4600000Y-3950000D02*
X1300000Y-7250000D01*
X-250000Y-13500000D02*
X-250000Y-13500000D01*
X4350000Y-1850000D02*
X-250000Y-6450000D01*
X23925736Y-1850000D02*
X4350000Y-1850000D01*
X-250000Y-6450000D02*
X-250000Y-13500000D01*
X26100000Y-3600000D02*
X25675736Y-3600000D01*
X25675736Y-3600000D02*
X23925736Y-1850000D01*
X19250000Y-9000000D02*
X16000000Y-12250000D01*
X25012500Y-9000000D02*
X19250000Y-9000000D01*
X20800000Y-13200000D02*
X19375000Y-14625000D01*
X26966000Y-13200000D02*
X20800000Y-13200000D01*
X27550000Y-12700000D02*
X27100000Y-12250000D01*
X19450000Y-12250000D02*
X18850000Y-11650000D01*
X27100000Y-12250000D02*
X19450000Y-12250000D01*
X22000000Y-14400000D02*
X21850000Y-14250000D01*
X27550000Y-13700000D02*
X26850000Y-14400000D01*
X26850000Y-14400000D02*
X22000000Y-14400000D01*
X21850000Y-14250000D02*
X21850000Y-14250000D01*
X27350000Y-11050000D02*
X27350000Y-9800000D01*
X27350000Y-9800000D02*
X26050000Y-8500000D01*
X26050000Y-8500000D02*
X26000000Y-8450000D01*
X26050000Y-8500000D02*
X25450000Y-7900000D01*
X25450000Y-7900000D02*
X22224264Y-7900000D01*
X22174266Y-7950002D02*
X21750002Y-7950002D01*
X22224264Y-7900004D02*
X22174266Y-7950002D01*
X22224264Y-7900000D02*
X22224264Y-7900004D01*
X14350000Y-6750000D02*
X12150000Y-8950000D01*
X24200000Y-6550000D02*
X24000000Y-6750000D01*
X24000000Y-6750000D02*
X14350000Y-6750000D01*
D20*
X26850000Y-16600000D02*
X19850000Y-16600000D01*
X29666000Y-13784000D02*
X26850000Y-16600000D01*
X31099971Y-13784000D02*
X29666000Y-13784000D01*
X33650000Y-11700000D02*
X33183971Y-11700000D01*
X33183971Y-11700000D02*
X31099971Y-13784000D01*
X19850000Y-16600000D02*
X19300000Y-16600000D01*
D21*
X-4425000Y-18900000D02*
X-4425000Y-12624264D01*
X-600000Y-22725000D02*
X-4425000Y-18900000D01*
X-4425000Y-12624264D02*
X-4425000Y-12200000D01*
X13650000Y-25600000D02*
X10775000Y-22725000D01*
X10775000Y-22725000D02*
X-600000Y-22725000D01*
X-5875000Y-12649264D02*
X-5875000Y-12225000D01*
X-5875000Y-19000000D02*
X-5875000Y-12649264D01*
X-1075000Y-23800000D02*
X-5875000Y-19000000D01*
X11500000Y-25675000D02*
X9625000Y-23800000D01*
X9625000Y-23800000D02*
X-1075000Y-23800000D01*
X-6475000Y-20475000D02*
X-6475000Y-19725000D01*
X-2250000Y-24700000D02*
X-6475000Y-20475000D01*
X9350000Y-25650000D02*
X8400000Y-24700000D01*
X8400000Y-24700000D02*
X-2250000Y-24700000D01*
X12450000Y-17300000D02*
X12450000Y-17300000D01*
X12450000Y-19950000D02*
X12450000Y-17300000D01*
X13200000Y-20700000D02*
X12450000Y-19950000D01*
D20*
G36*
X40519801Y-41519800D02*
G01*
X-7719800Y-41519800D01*
X-7719800Y-36926431D01*
X16731300Y-36926431D01*
X16731300Y-37050569D01*
X16755518Y-37172322D01*
X16803024Y-37287012D01*
X16871992Y-37390229D01*
X16959771Y-37478008D01*
X17062988Y-37546976D01*
X17177678Y-37594482D01*
X17299431Y-37618700D01*
X17423569Y-37618700D01*
X17545322Y-37594482D01*
X17660012Y-37546976D01*
X17763229Y-37478008D01*
X17851008Y-37390229D01*
X17919976Y-37287012D01*
X17967482Y-37172322D01*
X17991700Y-37050569D01*
X17991700Y-36926431D01*
X17967482Y-36804678D01*
X17919976Y-36689988D01*
X17851008Y-36586771D01*
X17818700Y-36554463D01*
X17818700Y-35922132D01*
X24829800Y-35922132D01*
X24829800Y-36137868D01*
X24871888Y-36349458D01*
X24954447Y-36548772D01*
X25074303Y-36728149D01*
X25226851Y-36880697D01*
X25406228Y-37000553D01*
X25605542Y-37083112D01*
X25817132Y-37125200D01*
X26032868Y-37125200D01*
X26244458Y-37083112D01*
X26443772Y-37000553D01*
X26623149Y-36880697D01*
X26775697Y-36728149D01*
X26895553Y-36548772D01*
X26978112Y-36349458D01*
X27020200Y-36137868D01*
X27020200Y-35922132D01*
X26978112Y-35710542D01*
X26895553Y-35511228D01*
X26775697Y-35331851D01*
X26623149Y-35179303D01*
X26443772Y-35059447D01*
X26244458Y-34976888D01*
X26032868Y-34934800D01*
X25817132Y-34934800D01*
X25605542Y-34976888D01*
X25406228Y-35059447D01*
X25226851Y-35179303D01*
X25074303Y-35331851D01*
X24954447Y-35511228D01*
X24871888Y-35710542D01*
X24829800Y-35922132D01*
X17818700Y-35922132D01*
X17818700Y-29451505D01*
X20417300Y-29451505D01*
X20417300Y-29748495D01*
X20475240Y-30039780D01*
X20588894Y-30314164D01*
X20753893Y-30561103D01*
X20963897Y-30771107D01*
X21210836Y-30936106D01*
X21485220Y-31049760D01*
X21776505Y-31107700D01*
X22073495Y-31107700D01*
X22165264Y-31089446D01*
X21902141Y-31483237D01*
X21716460Y-31931511D01*
X21621800Y-32407396D01*
X21621800Y-32892604D01*
X21716460Y-33368489D01*
X21902141Y-33816763D01*
X22171708Y-34220198D01*
X22514802Y-34563292D01*
X22918237Y-34832859D01*
X23366511Y-35018540D01*
X23842396Y-35113200D01*
X24327604Y-35113200D01*
X24803489Y-35018540D01*
X25251763Y-34832859D01*
X25655198Y-34563292D01*
X25998292Y-34220198D01*
X26267859Y-33816763D01*
X26453540Y-33368489D01*
X26548200Y-32892604D01*
X26548200Y-32407396D01*
X26453540Y-31931511D01*
X26267859Y-31483237D01*
X25998292Y-31079802D01*
X25655198Y-30736708D01*
X25251763Y-30467141D01*
X24803489Y-30281460D01*
X24327604Y-30186800D01*
X23842396Y-30186800D01*
X23366511Y-30281460D01*
X23250984Y-30329313D01*
X23261106Y-30314164D01*
X23374760Y-30039780D01*
X23432700Y-29748495D01*
X23432700Y-29451505D01*
X23374760Y-29160220D01*
X23261106Y-28885836D01*
X23096107Y-28638897D01*
X22886103Y-28428893D01*
X22639164Y-28263894D01*
X22364780Y-28150240D01*
X22073495Y-28092300D01*
X21776505Y-28092300D01*
X21485220Y-28150240D01*
X21210836Y-28263894D01*
X20963897Y-28428893D01*
X20753893Y-28638897D01*
X20588894Y-28885836D01*
X20475240Y-29160220D01*
X20417300Y-29451505D01*
X17818700Y-29451505D01*
X17818700Y-27227877D01*
X18847945Y-26198633D01*
X24325800Y-26198633D01*
X24325800Y-26401367D01*
X24365351Y-26600207D01*
X24442935Y-26787509D01*
X24555568Y-26956077D01*
X24698923Y-27099432D01*
X24867491Y-27212065D01*
X25054793Y-27289649D01*
X25253633Y-27329200D01*
X25456367Y-27329200D01*
X25655207Y-27289649D01*
X25842509Y-27212065D01*
X26011077Y-27099432D01*
X26154432Y-26956077D01*
X26267065Y-26787509D01*
X26344649Y-26600207D01*
X26384200Y-26401367D01*
X26384200Y-26198633D01*
X26865800Y-26198633D01*
X26865800Y-26401367D01*
X26905351Y-26600207D01*
X26982935Y-26787509D01*
X27095568Y-26956077D01*
X27238923Y-27099432D01*
X27407491Y-27212065D01*
X27594793Y-27289649D01*
X27793633Y-27329200D01*
X27996367Y-27329200D01*
X28195207Y-27289649D01*
X28382509Y-27212065D01*
X28551077Y-27099432D01*
X28694432Y-26956077D01*
X28807065Y-26787509D01*
X28884649Y-26600207D01*
X28924200Y-26401367D01*
X28924200Y-26198633D01*
X28884649Y-25999793D01*
X28807065Y-25812491D01*
X28694432Y-25643923D01*
X28551077Y-25500568D01*
X28382509Y-25387935D01*
X28195207Y-25310351D01*
X27996367Y-25270800D01*
X27793633Y-25270800D01*
X27594793Y-25310351D01*
X27407491Y-25387935D01*
X27238923Y-25500568D01*
X27095568Y-25643923D01*
X26982935Y-25812491D01*
X26905351Y-25999793D01*
X26865800Y-26198633D01*
X26384200Y-26198633D01*
X26344649Y-25999793D01*
X26267065Y-25812491D01*
X26154432Y-25643923D01*
X26011077Y-25500568D01*
X25842509Y-25387935D01*
X25655207Y-25310351D01*
X25456367Y-25270800D01*
X25253633Y-25270800D01*
X25054793Y-25310351D01*
X24867491Y-25387935D01*
X24698923Y-25500568D01*
X24555568Y-25643923D01*
X24442935Y-25812491D01*
X24365351Y-25999793D01*
X24325800Y-26198633D01*
X18847945Y-26198633D01*
X19516379Y-25530200D01*
X19562069Y-25530200D01*
X19683822Y-25505982D01*
X19798512Y-25458476D01*
X19901729Y-25389508D01*
X19989508Y-25301729D01*
X20058476Y-25198512D01*
X20105982Y-25083822D01*
X20130200Y-24962069D01*
X20130200Y-24837931D01*
X20105982Y-24716178D01*
X20058476Y-24601488D01*
X19989508Y-24498271D01*
X19901729Y-24410492D01*
X19798512Y-24341524D01*
X19683822Y-24294018D01*
X19562069Y-24269800D01*
X19437931Y-24269800D01*
X19316178Y-24294018D01*
X19201488Y-24341524D01*
X19098271Y-24410492D01*
X19010492Y-24498271D01*
X18941524Y-24601488D01*
X18894018Y-24716178D01*
X18869800Y-24837931D01*
X18869800Y-24883621D01*
X17054093Y-26699330D01*
X17036648Y-26713647D01*
X16979514Y-26783264D01*
X16937060Y-26862691D01*
X16910916Y-26948873D01*
X16905882Y-26999985D01*
X16902089Y-27038500D01*
X16904301Y-27060960D01*
X16904300Y-36554463D01*
X16871992Y-36586771D01*
X16803024Y-36689988D01*
X16755518Y-36804678D01*
X16731300Y-36926431D01*
X-7719800Y-36926431D01*
X-7719800Y-33833669D01*
X-3391601Y-33833669D01*
X-3391601Y-34076333D01*
X-3344260Y-34314333D01*
X-3251397Y-34538525D01*
X-3116580Y-34740292D01*
X-2944992Y-34911880D01*
X-2743225Y-35046697D01*
X-2519033Y-35139560D01*
X-2281033Y-35186901D01*
X-2038369Y-35186901D01*
X-1800369Y-35139560D01*
X-1576177Y-35046697D01*
X-1374410Y-34911880D01*
X-1202822Y-34740292D01*
X-1068005Y-34538525D01*
X-975142Y-34314333D01*
X-927801Y-34076333D01*
X-927801Y-33833669D01*
X-975142Y-33595669D01*
X-1068005Y-33371477D01*
X-1202822Y-33169710D01*
X-1374410Y-32998122D01*
X-1576177Y-32863305D01*
X-1800369Y-32770442D01*
X-2038369Y-32723101D01*
X-2281033Y-32723101D01*
X-2519033Y-32770442D01*
X-2743225Y-32863305D01*
X-2944992Y-32998122D01*
X-3116580Y-33169710D01*
X-3251397Y-33371477D01*
X-3344260Y-33595669D01*
X-3391601Y-33833669D01*
X-7719800Y-33833669D01*
X-7719800Y-32593680D01*
X-5729500Y-32593680D01*
X-5729500Y-32806322D01*
X-5688015Y-33014879D01*
X-5606640Y-33211336D01*
X-5488502Y-33388142D01*
X-5338141Y-33538503D01*
X-5161335Y-33656641D01*
X-4964878Y-33738016D01*
X-4756321Y-33779501D01*
X-4543679Y-33779501D01*
X-4335122Y-33738016D01*
X-4138665Y-33656641D01*
X-3961859Y-33538503D01*
X-3811498Y-33388142D01*
X-3693360Y-33211336D01*
X-3611985Y-33014879D01*
X-3570500Y-32806322D01*
X-3570500Y-32593680D01*
X-3611985Y-32385123D01*
X-3693360Y-32188666D01*
X-3811498Y-32011860D01*
X-3961859Y-31861499D01*
X-4138665Y-31743361D01*
X-4335122Y-31661986D01*
X-4543679Y-31620501D01*
X-4756321Y-31620501D01*
X-4964878Y-31661986D01*
X-5161335Y-31743361D01*
X-5338141Y-31861499D01*
X-5488502Y-32011860D01*
X-5606640Y-32188666D01*
X-5688015Y-32385123D01*
X-5729500Y-32593680D01*
X-7719800Y-32593680D01*
X-7719800Y-27970135D01*
X-4576315Y-31020425D01*
X-3144005Y-32551517D01*
X-3124853Y-32574853D01*
X-3095944Y-32598579D01*
X-3067820Y-32623272D01*
X-3061172Y-32627116D01*
X-3055236Y-32631987D01*
X-3022238Y-32649625D01*
X-2989852Y-32668348D01*
X-2982582Y-32670821D01*
X-2975809Y-32674441D01*
X-2940008Y-32685301D01*
X-2904588Y-32697349D01*
X-2896976Y-32698356D01*
X-2889627Y-32700585D01*
X-2852374Y-32704254D01*
X-2815305Y-32709156D01*
X-2785184Y-32707200D01*
X-1063642Y-32707200D01*
X-863430Y-32907413D01*
X-849117Y-32924853D01*
X-831678Y-32939165D01*
X-831672Y-32939171D01*
X-779500Y-32981987D01*
X-700074Y-33024441D01*
X-680015Y-33030526D01*
X-613891Y-33050585D01*
X-546724Y-33057200D01*
X-546714Y-33057200D01*
X-532652Y-33058585D01*
X-501729Y-33089508D01*
X-398512Y-33158476D01*
X-283822Y-33205982D01*
X-162069Y-33230200D01*
X-37931Y-33230200D01*
X83822Y-33205982D01*
X198512Y-33158476D01*
X301729Y-33089508D01*
X389508Y-33001729D01*
X458476Y-32898512D01*
X505982Y-32783822D01*
X530200Y-32662069D01*
X530200Y-32537931D01*
X505982Y-32416178D01*
X458476Y-32301488D01*
X389508Y-32198271D01*
X301729Y-32110492D01*
X198512Y-32041524D01*
X83822Y-31994018D01*
X-37931Y-31969800D01*
X-162069Y-31969800D01*
X-283822Y-31994018D01*
X-398512Y-32041524D01*
X-421082Y-32056605D01*
X-535091Y-31942596D01*
X-549411Y-31925147D01*
X-619028Y-31868013D01*
X-698455Y-31825559D01*
X-784637Y-31799415D01*
X-851804Y-31792800D01*
X-851814Y-31792800D01*
X-874264Y-31790589D01*
X-896714Y-31792800D01*
X-2601634Y-31792800D01*
X-3633257Y-30690032D01*
X-3021540Y-30078316D01*
X-3012069Y-30080200D01*
X-2887931Y-30080200D01*
X-2766178Y-30055982D01*
X-2651488Y-30008476D01*
X-2548271Y-29939508D01*
X-2460492Y-29851729D01*
X-2391524Y-29748512D01*
X-2344018Y-29633822D01*
X-2319800Y-29512069D01*
X-2319800Y-29387931D01*
X-2344018Y-29266178D01*
X-2391524Y-29151488D01*
X-2460492Y-29048271D01*
X-2548271Y-28960492D01*
X-2651488Y-28891524D01*
X-2766178Y-28844018D01*
X-2887931Y-28819800D01*
X-3012069Y-28819800D01*
X-3133822Y-28844018D01*
X-3248512Y-28891524D01*
X-3351729Y-28960492D01*
X-3439508Y-29048271D01*
X-3508476Y-29151488D01*
X-3555982Y-29266178D01*
X-3580200Y-29387931D01*
X-3580200Y-29512069D01*
X-3578316Y-29521540D01*
X-4183875Y-30127099D01*
X-4746317Y-29581333D01*
X-4577479Y-29589107D01*
X-4307871Y-29548268D01*
X-4051411Y-29455615D01*
X-3938552Y-29395290D01*
X-3873112Y-29156493D01*
X-4650000Y-28379605D01*
X-4664143Y-28393748D01*
X-4843748Y-28214143D01*
X-4829605Y-28200000D01*
X-4470395Y-28200000D01*
X-3693507Y-28976888D01*
X-3454710Y-28911448D01*
X-3338880Y-28664588D01*
X-3273436Y-28399874D01*
X-3260893Y-28127479D01*
X-3301732Y-27857871D01*
X-3394385Y-27601411D01*
X-3454710Y-27488552D01*
X-3693507Y-27423112D01*
X-4470395Y-28200000D01*
X-4829605Y-28200000D01*
X-5606493Y-27423112D01*
X-5845290Y-27488552D01*
X-5961120Y-27735412D01*
X-6026564Y-28000126D01*
X-6039107Y-28272521D01*
X-6029456Y-28336235D01*
X-7155571Y-27243507D01*
X-5426888Y-27243507D01*
X-4650000Y-28020395D01*
X-3873112Y-27243507D01*
X-3938552Y-27004710D01*
X-4185412Y-26888880D01*
X-4449187Y-26823668D01*
X-3391601Y-26823668D01*
X-3391601Y-27066332D01*
X-3344260Y-27304332D01*
X-3251397Y-27528524D01*
X-3116580Y-27730291D01*
X-2944992Y-27901879D01*
X-2743225Y-28036696D01*
X-2519033Y-28129559D01*
X-2281033Y-28176900D01*
X-2038369Y-28176900D01*
X-1800369Y-28129559D01*
X-1576177Y-28036696D01*
X-1374410Y-27901879D01*
X-1202822Y-27730291D01*
X-1082888Y-27550797D01*
X2769800Y-27550797D01*
X2769800Y-28049203D01*
X2867034Y-28538032D01*
X3057765Y-28998499D01*
X3334665Y-29412909D01*
X3687091Y-29765335D01*
X4101501Y-30042235D01*
X4561968Y-30232966D01*
X5050797Y-30330200D01*
X5549203Y-30330200D01*
X6038032Y-30232966D01*
X6498499Y-30042235D01*
X6912909Y-29765335D01*
X7265335Y-29412909D01*
X7542235Y-28998499D01*
X7732966Y-28538032D01*
X7830200Y-28049203D01*
X7830200Y-27550797D01*
X7732966Y-27061968D01*
X7542235Y-26601501D01*
X7265335Y-26187091D01*
X6912909Y-25834665D01*
X6498499Y-25557765D01*
X6038032Y-25367034D01*
X5549203Y-25269800D01*
X5050797Y-25269800D01*
X4561968Y-25367034D01*
X4101501Y-25557765D01*
X3687091Y-25834665D01*
X3334665Y-26187091D01*
X3057765Y-26601501D01*
X2867034Y-27061968D01*
X2769800Y-27550797D01*
X-1082888Y-27550797D01*
X-1068005Y-27528524D01*
X-975142Y-27304332D01*
X-927801Y-27066332D01*
X-927801Y-26823668D01*
X-975142Y-26585668D01*
X-1068005Y-26361476D01*
X-1202822Y-26159709D01*
X-1374410Y-25988121D01*
X-1576177Y-25853304D01*
X-1800369Y-25760441D01*
X-2038369Y-25713100D01*
X-2281033Y-25713100D01*
X-2519033Y-25760441D01*
X-2743225Y-25853304D01*
X-2944992Y-25988121D01*
X-3116580Y-26159709D01*
X-3251397Y-26361476D01*
X-3344260Y-26585668D01*
X-3391601Y-26823668D01*
X-4449187Y-26823668D01*
X-4450126Y-26823436D01*
X-4722521Y-26810893D01*
X-4992129Y-26851732D01*
X-5248589Y-26944385D01*
X-5361448Y-27004710D01*
X-5426888Y-27243507D01*
X-7155571Y-27243507D01*
X-7165778Y-27233603D01*
X-7165778Y-19662931D01*
X-7105200Y-19662931D01*
X-7105200Y-19787069D01*
X-7080982Y-19908822D01*
X-7033476Y-20023512D01*
X-6964508Y-20126729D01*
X-6876729Y-20214508D01*
X-6868700Y-20219873D01*
X-6868700Y-20455677D01*
X-6870603Y-20475000D01*
X-6868700Y-20494322D01*
X-6868700Y-20494332D01*
X-6863003Y-20552178D01*
X-6840490Y-20626390D01*
X-6803933Y-20694785D01*
X-6754734Y-20754734D01*
X-6739715Y-20767060D01*
X-2542056Y-24964720D01*
X-2529734Y-24979734D01*
X-2514721Y-24992055D01*
X-2514718Y-24992058D01*
X-2474556Y-25025018D01*
X-2469786Y-25028933D01*
X-2401391Y-25065490D01*
X-2327179Y-25088003D01*
X-2269333Y-25093700D01*
X-2269323Y-25093700D01*
X-2250001Y-25095603D01*
X-2230678Y-25093700D01*
X8236925Y-25093700D01*
X8721684Y-25578460D01*
X8719800Y-25587931D01*
X8719800Y-25712069D01*
X8744018Y-25833822D01*
X8791524Y-25948512D01*
X8860492Y-26051729D01*
X8948271Y-26139508D01*
X9051488Y-26208476D01*
X9166178Y-26255982D01*
X9287931Y-26280200D01*
X9412069Y-26280200D01*
X9533822Y-26255982D01*
X9648512Y-26208476D01*
X9751729Y-26139508D01*
X9839508Y-26051729D01*
X9908476Y-25948512D01*
X9955982Y-25833822D01*
X9980200Y-25712069D01*
X9980200Y-25587931D01*
X9955982Y-25466178D01*
X9908476Y-25351488D01*
X9839508Y-25248271D01*
X9751729Y-25160492D01*
X9648512Y-25091524D01*
X9533822Y-25044018D01*
X9412069Y-25019800D01*
X9287931Y-25019800D01*
X9278460Y-25021684D01*
X8692060Y-24435285D01*
X8679734Y-24420266D01*
X8619786Y-24371067D01*
X8551391Y-24334510D01*
X8477179Y-24311997D01*
X8419333Y-24306300D01*
X8419322Y-24306300D01*
X8400000Y-24304397D01*
X8380678Y-24306300D01*
X-2086924Y-24306300D01*
X-6081300Y-20311925D01*
X-6081300Y-20219873D01*
X-6073271Y-20214508D01*
X-5985492Y-20126729D01*
X-5916524Y-20023512D01*
X-5869018Y-19908822D01*
X-5844800Y-19787069D01*
X-5844800Y-19662931D01*
X-5863660Y-19568115D01*
X-1367056Y-24064720D01*
X-1354734Y-24079734D01*
X-1339721Y-24092055D01*
X-1339718Y-24092058D01*
X-1337125Y-24094186D01*
X-1294786Y-24128933D01*
X-1226391Y-24165490D01*
X-1152179Y-24188003D01*
X-1094333Y-24193700D01*
X-1094323Y-24193700D01*
X-1075001Y-24195603D01*
X-1055678Y-24193700D01*
X9461925Y-24193700D01*
X10871684Y-25603460D01*
X10869800Y-25612931D01*
X10869800Y-25737069D01*
X10894018Y-25858822D01*
X10941524Y-25973512D01*
X11010492Y-26076729D01*
X11098271Y-26164508D01*
X11201488Y-26233476D01*
X11316178Y-26280982D01*
X11437931Y-26305200D01*
X11562069Y-26305200D01*
X11683822Y-26280982D01*
X11798512Y-26233476D01*
X11901729Y-26164508D01*
X11989508Y-26076729D01*
X12058476Y-25973512D01*
X12105982Y-25858822D01*
X12130200Y-25737069D01*
X12130200Y-25612931D01*
X12105982Y-25491178D01*
X12058476Y-25376488D01*
X11989508Y-25273271D01*
X11901729Y-25185492D01*
X11798512Y-25116524D01*
X11683822Y-25069018D01*
X11562069Y-25044800D01*
X11437931Y-25044800D01*
X11428460Y-25046684D01*
X9917060Y-23535285D01*
X9904734Y-23520266D01*
X9844786Y-23471067D01*
X9776391Y-23434510D01*
X9702179Y-23411997D01*
X9644333Y-23406300D01*
X9644322Y-23406300D01*
X9625000Y-23404397D01*
X9605678Y-23406300D01*
X-911924Y-23406300D01*
X-5481300Y-18836925D01*
X-5481300Y-12719873D01*
X-5473271Y-12714508D01*
X-5385492Y-12626729D01*
X-5316524Y-12523512D01*
X-5269018Y-12408822D01*
X-5244800Y-12287069D01*
X-5244800Y-12162931D01*
X-5269018Y-12041178D01*
X-5316524Y-11926488D01*
X-5385492Y-11823271D01*
X-5473271Y-11735492D01*
X-5576488Y-11666524D01*
X-5691178Y-11619018D01*
X-5812931Y-11594800D01*
X-5937069Y-11594800D01*
X-6058822Y-11619018D01*
X-6173512Y-11666524D01*
X-6276729Y-11735492D01*
X-6364508Y-11823271D01*
X-6433476Y-11926488D01*
X-6480982Y-12041178D01*
X-6505200Y-12162931D01*
X-6505200Y-12287069D01*
X-6480982Y-12408822D01*
X-6433476Y-12523512D01*
X-6364508Y-12626729D01*
X-6276729Y-12714508D01*
X-6268699Y-12719874D01*
X-6268700Y-18980678D01*
X-6270603Y-19000000D01*
X-6268700Y-19019322D01*
X-6268700Y-19019332D01*
X-6263003Y-19077178D01*
X-6244437Y-19138379D01*
X-6291178Y-19119018D01*
X-6412931Y-19094800D01*
X-6537069Y-19094800D01*
X-6658822Y-19119018D01*
X-6773512Y-19166524D01*
X-6876729Y-19235492D01*
X-6964508Y-19323271D01*
X-7033476Y-19426488D01*
X-7080982Y-19541178D01*
X-7105200Y-19662931D01*
X-7165778Y-19662931D01*
X-7165778Y-19334037D01*
X-7133470Y-19301729D01*
X-7064502Y-19198512D01*
X-7016996Y-19083822D01*
X-6992778Y-18962069D01*
X-6992778Y-18837931D01*
X-7016996Y-18716178D01*
X-7064502Y-18601488D01*
X-7133470Y-18498271D01*
X-7221249Y-18410492D01*
X-7324466Y-18341524D01*
X-7439156Y-18294018D01*
X-7560909Y-18269800D01*
X-7685047Y-18269800D01*
X-7719800Y-18276713D01*
X-7719800Y-7862931D01*
X-7305200Y-7862931D01*
X-7305200Y-7987069D01*
X-7280982Y-8108822D01*
X-7233476Y-8223512D01*
X-7164508Y-8326729D01*
X-7076729Y-8414508D01*
X-6973512Y-8483476D01*
X-6858822Y-8530982D01*
X-6832200Y-8536277D01*
X-6832201Y-9127549D01*
X-6834412Y-9149999D01*
X-6832201Y-9172449D01*
X-6832201Y-9172458D01*
X-6825586Y-9239625D01*
X-6799442Y-9325807D01*
X-6756988Y-9405234D01*
X-6699854Y-9474852D01*
X-6682404Y-9489173D01*
X-4582746Y-11588831D01*
X-4608822Y-11594018D01*
X-4723512Y-11641524D01*
X-4826729Y-11710492D01*
X-4914508Y-11798271D01*
X-4983476Y-11901488D01*
X-5030982Y-12016178D01*
X-5055200Y-12137931D01*
X-5055200Y-12262069D01*
X-5030982Y-12383822D01*
X-4983476Y-12498512D01*
X-4914508Y-12601729D01*
X-4826729Y-12689508D01*
X-4818699Y-12694874D01*
X-4818700Y-18880678D01*
X-4820603Y-18900000D01*
X-4818700Y-18919322D01*
X-4818700Y-18919332D01*
X-4813003Y-18977178D01*
X-4790490Y-19051390D01*
X-4753933Y-19119785D01*
X-4704734Y-19179734D01*
X-4689715Y-19192060D01*
X-892056Y-22989720D01*
X-879734Y-23004734D01*
X-864721Y-23017055D01*
X-864718Y-23017058D01*
X-819786Y-23053933D01*
X-751391Y-23090490D01*
X-677179Y-23113003D01*
X-619333Y-23118700D01*
X-619325Y-23118700D01*
X-600000Y-23120603D01*
X-580675Y-23118700D01*
X10611925Y-23118700D01*
X13021684Y-25528460D01*
X13019800Y-25537931D01*
X13019800Y-25662069D01*
X13044018Y-25783822D01*
X13091524Y-25898512D01*
X13160492Y-26001729D01*
X13248271Y-26089508D01*
X13351488Y-26158476D01*
X13466178Y-26205982D01*
X13587931Y-26230200D01*
X13712069Y-26230200D01*
X13833822Y-26205982D01*
X13948512Y-26158476D01*
X14051729Y-26089508D01*
X14139508Y-26001729D01*
X14208476Y-25898512D01*
X14255982Y-25783822D01*
X14280200Y-25662069D01*
X14280200Y-25537931D01*
X14255982Y-25416178D01*
X14208476Y-25301488D01*
X14139508Y-25198271D01*
X14051729Y-25110492D01*
X13948512Y-25041524D01*
X13833822Y-24994018D01*
X13712069Y-24969800D01*
X13587931Y-24969800D01*
X13578460Y-24971684D01*
X12265409Y-23658633D01*
X25595800Y-23658633D01*
X25595800Y-23861367D01*
X25635351Y-24060207D01*
X25712935Y-24247509D01*
X25825568Y-24416077D01*
X25968923Y-24559432D01*
X26137491Y-24672065D01*
X26324793Y-24749649D01*
X26523633Y-24789200D01*
X26726367Y-24789200D01*
X26925207Y-24749649D01*
X27112509Y-24672065D01*
X27281077Y-24559432D01*
X27424432Y-24416077D01*
X27537065Y-24247509D01*
X27614649Y-24060207D01*
X27654200Y-23861367D01*
X27654200Y-23658633D01*
X28135800Y-23658633D01*
X28135800Y-23861367D01*
X28175351Y-24060207D01*
X28252935Y-24247509D01*
X28365568Y-24416077D01*
X28508923Y-24559432D01*
X28677491Y-24672065D01*
X28864793Y-24749649D01*
X29063633Y-24789200D01*
X29266367Y-24789200D01*
X29465207Y-24749649D01*
X29612189Y-24688766D01*
X29977800Y-25054378D01*
X29977800Y-25375380D01*
X29947491Y-25387935D01*
X29778923Y-25500568D01*
X29635568Y-25643923D01*
X29522935Y-25812491D01*
X29445351Y-25999793D01*
X29405800Y-26198633D01*
X29405800Y-26401367D01*
X29445351Y-26600207D01*
X29522935Y-26787509D01*
X29635568Y-26956077D01*
X29778923Y-27099432D01*
X29947491Y-27212065D01*
X30134793Y-27289649D01*
X30333633Y-27329200D01*
X30536367Y-27329200D01*
X30735207Y-27289649D01*
X30922509Y-27212065D01*
X31091077Y-27099432D01*
X31234432Y-26956077D01*
X31347065Y-26787509D01*
X31424649Y-26600207D01*
X31464200Y-26401367D01*
X31464200Y-26198633D01*
X31945800Y-26198633D01*
X31945800Y-26401367D01*
X31985351Y-26600207D01*
X32062935Y-26787509D01*
X32175568Y-26956077D01*
X32318923Y-27099432D01*
X32487491Y-27212065D01*
X32674793Y-27289649D01*
X32873633Y-27329200D01*
X33076367Y-27329200D01*
X33275207Y-27289649D01*
X33462509Y-27212065D01*
X33631077Y-27099432D01*
X33774432Y-26956077D01*
X33887065Y-26787509D01*
X33964649Y-26600207D01*
X34004200Y-26401367D01*
X34004200Y-26198633D01*
X33964649Y-25999793D01*
X33887065Y-25812491D01*
X33774432Y-25643923D01*
X33631077Y-25500568D01*
X33462509Y-25387935D01*
X33275207Y-25310351D01*
X33076367Y-25270800D01*
X32873633Y-25270800D01*
X32674793Y-25310351D01*
X32487491Y-25387935D01*
X32318923Y-25500568D01*
X32175568Y-25643923D01*
X32062935Y-25812491D01*
X31985351Y-25999793D01*
X31945800Y-26198633D01*
X31464200Y-26198633D01*
X31424649Y-25999793D01*
X31347065Y-25812491D01*
X31234432Y-25643923D01*
X31091077Y-25500568D01*
X30922509Y-25387935D01*
X30892200Y-25375380D01*
X30892200Y-24842540D01*
X30885585Y-24775373D01*
X30859441Y-24689191D01*
X30816987Y-24609764D01*
X30759853Y-24540147D01*
X30742409Y-24525831D01*
X30174912Y-23958335D01*
X30194200Y-23861367D01*
X30194200Y-23658633D01*
X30675800Y-23658633D01*
X30675800Y-23861367D01*
X30715351Y-24060207D01*
X30792935Y-24247509D01*
X30905568Y-24416077D01*
X31048923Y-24559432D01*
X31217491Y-24672065D01*
X31404793Y-24749649D01*
X31603633Y-24789200D01*
X31806367Y-24789200D01*
X32005207Y-24749649D01*
X32172012Y-24680555D01*
X33504050Y-24680555D01*
X33563389Y-24914221D01*
X33801664Y-25025018D01*
X34056975Y-25087202D01*
X34319512Y-25098382D01*
X34579186Y-25058129D01*
X34826017Y-24967990D01*
X34926611Y-24914221D01*
X34985950Y-24680555D01*
X34245000Y-23939605D01*
X33504050Y-24680555D01*
X32172012Y-24680555D01*
X32192509Y-24672065D01*
X32361077Y-24559432D01*
X32504432Y-24416077D01*
X32617065Y-24247509D01*
X32694649Y-24060207D01*
X32734200Y-23861367D01*
X32734200Y-23834512D01*
X32906618Y-23834512D01*
X32946871Y-24094186D01*
X33037010Y-24341017D01*
X33090779Y-24441611D01*
X33324445Y-24500950D01*
X34065395Y-23760000D01*
X34424605Y-23760000D01*
X35165555Y-24500950D01*
X35399221Y-24441611D01*
X35510018Y-24203336D01*
X35572202Y-23948025D01*
X35583382Y-23685488D01*
X35543129Y-23425814D01*
X35452990Y-23178983D01*
X35399221Y-23078389D01*
X35165555Y-23019050D01*
X34424605Y-23760000D01*
X34065395Y-23760000D01*
X33324445Y-23019050D01*
X33090779Y-23078389D01*
X32979982Y-23316664D01*
X32917798Y-23571975D01*
X32906618Y-23834512D01*
X32734200Y-23834512D01*
X32734200Y-23658633D01*
X32694649Y-23459793D01*
X32617065Y-23272491D01*
X32504432Y-23103923D01*
X32361077Y-22960568D01*
X32192509Y-22847935D01*
X32172013Y-22839445D01*
X33504050Y-22839445D01*
X34245000Y-23580395D01*
X34985950Y-22839445D01*
X34926611Y-22605779D01*
X34688336Y-22494982D01*
X34433025Y-22432798D01*
X34170488Y-22421618D01*
X33910814Y-22461871D01*
X33663983Y-22552010D01*
X33563389Y-22605779D01*
X33504050Y-22839445D01*
X32172013Y-22839445D01*
X32005207Y-22770351D01*
X31806367Y-22730800D01*
X31603633Y-22730800D01*
X31404793Y-22770351D01*
X31217491Y-22847935D01*
X31048923Y-22960568D01*
X30905568Y-23103923D01*
X30792935Y-23272491D01*
X30715351Y-23459793D01*
X30675800Y-23658633D01*
X30194200Y-23658633D01*
X30154649Y-23459793D01*
X30077065Y-23272491D01*
X29964432Y-23103923D01*
X29821077Y-22960568D01*
X29652509Y-22847935D01*
X29465207Y-22770351D01*
X29266367Y-22730800D01*
X29063633Y-22730800D01*
X28864793Y-22770351D01*
X28677491Y-22847935D01*
X28508923Y-22960568D01*
X28365568Y-23103923D01*
X28252935Y-23272491D01*
X28175351Y-23459793D01*
X28135800Y-23658633D01*
X27654200Y-23658633D01*
X27614649Y-23459793D01*
X27537065Y-23272491D01*
X27424432Y-23103923D01*
X27281077Y-22960568D01*
X27112509Y-22847935D01*
X26925207Y-22770351D01*
X26726367Y-22730800D01*
X26523633Y-22730800D01*
X26324793Y-22770351D01*
X26137491Y-22847935D01*
X25968923Y-22960568D01*
X25825568Y-23103923D01*
X25712935Y-23272491D01*
X25635351Y-23459793D01*
X25595800Y-23658633D01*
X12265409Y-23658633D01*
X11067060Y-22460285D01*
X11054734Y-22445266D01*
X10994786Y-22396067D01*
X10926391Y-22359510D01*
X10852179Y-22336997D01*
X10794333Y-22331300D01*
X10794322Y-22331300D01*
X10775000Y-22329397D01*
X10755678Y-22331300D01*
X-436924Y-22331300D01*
X-4031300Y-18736925D01*
X-4031300Y-15981072D01*
X-3974853Y-16049853D01*
X-3957403Y-16064174D01*
X-2339170Y-17682408D01*
X-2324853Y-17699853D01*
X-2307408Y-17714170D01*
X-2255237Y-17756987D01*
X-2218301Y-17776729D01*
X-2175809Y-17799441D01*
X-2089627Y-17825585D01*
X-2022460Y-17832200D01*
X-2022451Y-17832200D01*
X-2000001Y-17834411D01*
X-1977551Y-17832200D01*
X515963Y-17832200D01*
X548271Y-17864508D01*
X651488Y-17933476D01*
X766178Y-17980982D01*
X887931Y-18005200D01*
X1012069Y-18005200D01*
X1133822Y-17980982D01*
X1248512Y-17933476D01*
X1351729Y-17864508D01*
X1439508Y-17776729D01*
X1508476Y-17673512D01*
X1555982Y-17558822D01*
X1580200Y-17437069D01*
X1580200Y-17312931D01*
X1565282Y-17237931D01*
X11819800Y-17237931D01*
X11819800Y-17362069D01*
X11844018Y-17483822D01*
X11891524Y-17598512D01*
X11960492Y-17701729D01*
X12048271Y-17789508D01*
X12056301Y-17794873D01*
X12056300Y-19930677D01*
X12054397Y-19950000D01*
X12056300Y-19969322D01*
X12056300Y-19969332D01*
X12061997Y-20027178D01*
X12084510Y-20101390D01*
X12121067Y-20169785D01*
X12170266Y-20229734D01*
X12185285Y-20242060D01*
X12571684Y-20628460D01*
X12569800Y-20637931D01*
X12569800Y-20762069D01*
X12594018Y-20883822D01*
X12641524Y-20998512D01*
X12710492Y-21101729D01*
X12798271Y-21189508D01*
X12901488Y-21258476D01*
X13016178Y-21305982D01*
X13137931Y-21330200D01*
X13262069Y-21330200D01*
X13383822Y-21305982D01*
X13498512Y-21258476D01*
X13601729Y-21189508D01*
X13689508Y-21101729D01*
X13758476Y-20998512D01*
X13805982Y-20883822D01*
X13830200Y-20762069D01*
X13830200Y-20637931D01*
X13805982Y-20516178D01*
X13758476Y-20401488D01*
X13689508Y-20298271D01*
X13601729Y-20210492D01*
X13498512Y-20141524D01*
X13383822Y-20094018D01*
X13262069Y-20069800D01*
X13137931Y-20069800D01*
X13128460Y-20071684D01*
X12843700Y-19786925D01*
X12843700Y-17794873D01*
X12851729Y-17789508D01*
X12939508Y-17701729D01*
X13008476Y-17598512D01*
X13055982Y-17483822D01*
X13080200Y-17362069D01*
X13080200Y-17237931D01*
X13055982Y-17116178D01*
X13008476Y-17001488D01*
X12939508Y-16898271D01*
X12851729Y-16810492D01*
X12748512Y-16741524D01*
X12633822Y-16694018D01*
X12512069Y-16669800D01*
X12387931Y-16669800D01*
X12266178Y-16694018D01*
X12151488Y-16741524D01*
X12048271Y-16810492D01*
X11960492Y-16898271D01*
X11891524Y-17001488D01*
X11844018Y-17116178D01*
X11819800Y-17237931D01*
X1565282Y-17237931D01*
X1555982Y-17191178D01*
X1508476Y-17076488D01*
X1439508Y-16973271D01*
X1351729Y-16885492D01*
X1248512Y-16816524D01*
X1133822Y-16769018D01*
X1012069Y-16744800D01*
X887931Y-16744800D01*
X766178Y-16769018D01*
X651488Y-16816524D01*
X548271Y-16885492D01*
X515963Y-16917800D01*
X-1810622Y-16917800D01*
X-2128422Y-16600000D01*
X18840588Y-16600000D01*
X18849415Y-16689627D01*
X18875559Y-16775809D01*
X18918013Y-16855236D01*
X18975147Y-16924853D01*
X19044764Y-16981987D01*
X19124191Y-17024441D01*
X19210373Y-17050585D01*
X19277540Y-17057200D01*
X19415963Y-17057200D01*
X19448271Y-17089508D01*
X19551488Y-17158476D01*
X19666178Y-17205982D01*
X19787931Y-17230200D01*
X19912069Y-17230200D01*
X20033822Y-17205982D01*
X20148512Y-17158476D01*
X20251729Y-17089508D01*
X20284037Y-17057200D01*
X26827550Y-17057200D01*
X26850000Y-17059411D01*
X26872450Y-17057200D01*
X26872460Y-17057200D01*
X26939627Y-17050585D01*
X27025809Y-17024441D01*
X27105236Y-16981987D01*
X27174853Y-16924853D01*
X27189174Y-16907403D01*
X29855378Y-14241200D01*
X31077521Y-14241200D01*
X31099971Y-14243411D01*
X31122421Y-14241200D01*
X31122431Y-14241200D01*
X31189598Y-14234585D01*
X31275780Y-14208441D01*
X31355207Y-14165987D01*
X31424824Y-14108853D01*
X31439145Y-14091403D01*
X33303882Y-12226667D01*
X33351488Y-12258476D01*
X33414847Y-12284720D01*
X33396018Y-12330178D01*
X33371800Y-12451931D01*
X33371800Y-12573009D01*
X33266178Y-12594018D01*
X33151488Y-12641524D01*
X33048271Y-12710492D01*
X32960492Y-12798271D01*
X32891524Y-12901488D01*
X32844018Y-13016178D01*
X32819800Y-13137931D01*
X32819800Y-13262069D01*
X32844018Y-13383822D01*
X32891524Y-13498512D01*
X32960492Y-13601729D01*
X33048271Y-13689508D01*
X33151488Y-13758476D01*
X33266178Y-13805982D01*
X33387931Y-13830200D01*
X33512069Y-13830200D01*
X33521541Y-13828316D01*
X38856300Y-19163076D01*
X38856301Y-28654153D01*
X38846107Y-28638897D01*
X38636103Y-28428893D01*
X38389164Y-28263894D01*
X38114780Y-28150240D01*
X37823495Y-28092300D01*
X37526505Y-28092300D01*
X37235220Y-28150240D01*
X36960836Y-28263894D01*
X36713897Y-28428893D01*
X36503893Y-28638897D01*
X36338894Y-28885836D01*
X36225240Y-29160220D01*
X36167300Y-29451505D01*
X36167300Y-29748495D01*
X36225240Y-30039780D01*
X36338894Y-30314164D01*
X36349016Y-30329313D01*
X36233489Y-30281460D01*
X35757604Y-30186800D01*
X35272396Y-30186800D01*
X34796511Y-30281460D01*
X34348237Y-30467141D01*
X33944802Y-30736708D01*
X33601708Y-31079802D01*
X33332141Y-31483237D01*
X33146460Y-31931511D01*
X33051800Y-32407396D01*
X33051800Y-32892604D01*
X33146460Y-33368489D01*
X33332141Y-33816763D01*
X33601708Y-34220198D01*
X33944802Y-34563292D01*
X34348237Y-34832859D01*
X34796511Y-35018540D01*
X35272396Y-35113200D01*
X35525781Y-35113200D01*
X35426851Y-35179303D01*
X35274303Y-35331851D01*
X35154447Y-35511228D01*
X35071888Y-35710542D01*
X35029800Y-35922132D01*
X35029800Y-36137868D01*
X35071888Y-36349458D01*
X35154447Y-36548772D01*
X35274303Y-36728149D01*
X35426851Y-36880697D01*
X35606228Y-37000553D01*
X35805542Y-37083112D01*
X36017132Y-37125200D01*
X36232868Y-37125200D01*
X36444458Y-37083112D01*
X36643772Y-37000553D01*
X36823149Y-36880697D01*
X36975697Y-36728149D01*
X37095553Y-36548772D01*
X37178112Y-36349458D01*
X37220200Y-36137868D01*
X37220200Y-35922132D01*
X37178112Y-35710542D01*
X37154130Y-35652645D01*
X38764722Y-34042054D01*
X38779734Y-34029734D01*
X38828933Y-33969786D01*
X38865490Y-33901391D01*
X38888003Y-33827179D01*
X38893700Y-33769333D01*
X38893700Y-33769325D01*
X38895603Y-33750000D01*
X38893700Y-33730675D01*
X38893700Y-32353075D01*
X39514720Y-31732056D01*
X39529734Y-31719734D01*
X39578933Y-31659786D01*
X39615490Y-31591391D01*
X39638003Y-31517179D01*
X39643700Y-31459333D01*
X39643700Y-31459323D01*
X39645603Y-31440001D01*
X39643700Y-31420678D01*
X39643700Y-19019325D01*
X39645603Y-19000000D01*
X39643700Y-18980675D01*
X39643700Y-18980667D01*
X39638003Y-18922821D01*
X39615490Y-18848609D01*
X39578933Y-18780214D01*
X39529734Y-18720266D01*
X39514722Y-18707946D01*
X34078316Y-13271541D01*
X34080200Y-13262069D01*
X34080200Y-13140991D01*
X34185822Y-13119982D01*
X34300512Y-13072476D01*
X34403729Y-13003508D01*
X34491508Y-12915729D01*
X34496873Y-12907700D01*
X34650925Y-12907700D01*
X39706301Y-17963077D01*
X39706300Y-32830667D01*
X39706300Y-32919332D01*
X39706301Y-32919342D01*
X39706300Y-34236924D01*
X35611925Y-38331300D01*
X34442546Y-38331300D01*
X34525697Y-38248149D01*
X34645553Y-38068772D01*
X34728112Y-37869458D01*
X34770200Y-37657868D01*
X34770200Y-37442132D01*
X34728112Y-37230542D01*
X34645553Y-37031228D01*
X34525697Y-36851851D01*
X34373149Y-36699303D01*
X34193772Y-36579447D01*
X33994458Y-36496888D01*
X33782868Y-36454800D01*
X33567132Y-36454800D01*
X33355542Y-36496888D01*
X33156228Y-36579447D01*
X32976851Y-36699303D01*
X32824303Y-36851851D01*
X32704447Y-37031228D01*
X32621888Y-37230542D01*
X32579800Y-37442132D01*
X32579800Y-37657868D01*
X32621888Y-37869458D01*
X32704447Y-38068772D01*
X32824303Y-38248149D01*
X32907454Y-38331300D01*
X24748076Y-38331300D01*
X24457267Y-38040492D01*
X24528112Y-37869458D01*
X24570200Y-37657868D01*
X24570200Y-37442132D01*
X24528112Y-37230542D01*
X24445553Y-37031228D01*
X24325697Y-36851851D01*
X24173149Y-36699303D01*
X23993772Y-36579447D01*
X23794458Y-36496888D01*
X23582868Y-36454800D01*
X23367132Y-36454800D01*
X23155542Y-36496888D01*
X22956228Y-36579447D01*
X22776851Y-36699303D01*
X22624303Y-36851851D01*
X22504447Y-37031228D01*
X22421888Y-37230542D01*
X22379800Y-37442132D01*
X22379800Y-37657868D01*
X22421888Y-37869458D01*
X22504447Y-38068772D01*
X22624303Y-38248149D01*
X22776851Y-38400697D01*
X22956228Y-38520553D01*
X23155542Y-38603112D01*
X23367132Y-38645200D01*
X23582868Y-38645200D01*
X23794458Y-38603112D01*
X23873568Y-38570343D01*
X24292944Y-38989720D01*
X24305266Y-39004734D01*
X24320279Y-39017055D01*
X24320282Y-39017058D01*
X24365214Y-39053933D01*
X24433609Y-39090490D01*
X24507821Y-39113003D01*
X24565667Y-39118700D01*
X24565677Y-39118700D01*
X24584999Y-39120603D01*
X24604322Y-39118700D01*
X35755678Y-39118700D01*
X35775000Y-39120603D01*
X35794322Y-39118700D01*
X35794333Y-39118700D01*
X35852179Y-39113003D01*
X35926391Y-39090490D01*
X35994786Y-39053933D01*
X36054734Y-39004734D01*
X36067060Y-38989715D01*
X40364722Y-34692054D01*
X40379734Y-34679734D01*
X40428933Y-34619786D01*
X40465490Y-34551391D01*
X40488003Y-34477179D01*
X40493700Y-34419333D01*
X40493700Y-34419325D01*
X40495603Y-34400000D01*
X40493700Y-34380675D01*
X40493700Y-17819325D01*
X40495603Y-17800000D01*
X40493700Y-17780675D01*
X40493700Y-17780667D01*
X40488003Y-17722821D01*
X40465490Y-17648609D01*
X40428933Y-17580214D01*
X40411377Y-17558822D01*
X40392058Y-17535282D01*
X40392055Y-17535279D01*
X40379734Y-17520266D01*
X40364720Y-17507944D01*
X35106060Y-12249285D01*
X35093734Y-12234266D01*
X35033786Y-12185067D01*
X34965391Y-12148510D01*
X34891179Y-12125997D01*
X34833333Y-12120300D01*
X34833322Y-12120300D01*
X34814000Y-12118397D01*
X34794678Y-12120300D01*
X34496873Y-12120300D01*
X34491508Y-12112271D01*
X34403729Y-12024492D01*
X34300512Y-11955524D01*
X34237153Y-11929280D01*
X34255982Y-11883822D01*
X34280200Y-11762069D01*
X34280200Y-11637931D01*
X34255982Y-11516178D01*
X34208476Y-11401488D01*
X34139508Y-11298271D01*
X34051729Y-11210492D01*
X33948512Y-11141524D01*
X33833822Y-11094018D01*
X33712069Y-11069800D01*
X33587931Y-11069800D01*
X33466178Y-11094018D01*
X33351488Y-11141524D01*
X33248271Y-11210492D01*
X33215963Y-11242800D01*
X33206420Y-11242800D01*
X33183970Y-11240589D01*
X33161520Y-11242800D01*
X33161511Y-11242800D01*
X33094344Y-11249415D01*
X33008162Y-11275559D01*
X32928735Y-11318013D01*
X32859118Y-11375147D01*
X32844801Y-11392592D01*
X30910594Y-13326800D01*
X29688449Y-13326800D01*
X29665999Y-13324589D01*
X29643549Y-13326800D01*
X29643540Y-13326800D01*
X29576373Y-13333415D01*
X29490191Y-13359559D01*
X29468659Y-13371068D01*
X29410763Y-13402013D01*
X29366998Y-13437931D01*
X29341147Y-13459147D01*
X29326830Y-13476592D01*
X26660623Y-16142800D01*
X20284037Y-16142800D01*
X20251729Y-16110492D01*
X20148512Y-16041524D01*
X20033822Y-15994018D01*
X19912069Y-15969800D01*
X19787931Y-15969800D01*
X19666178Y-15994018D01*
X19551488Y-16041524D01*
X19448271Y-16110492D01*
X19415963Y-16142800D01*
X19277540Y-16142800D01*
X19210373Y-16149415D01*
X19124191Y-16175559D01*
X19044764Y-16218013D01*
X18975147Y-16275147D01*
X18918013Y-16344764D01*
X18875559Y-16424191D01*
X18849415Y-16510373D01*
X18840588Y-16600000D01*
X-2128422Y-16600000D01*
X-3192800Y-15535623D01*
X-3192800Y-13437931D01*
X-880200Y-13437931D01*
X-880200Y-13562069D01*
X-855982Y-13683822D01*
X-808476Y-13798512D01*
X-739508Y-13901729D01*
X-651729Y-13989508D01*
X-548512Y-14058476D01*
X-433822Y-14105982D01*
X-312069Y-14130200D01*
X-187931Y-14130200D01*
X-66178Y-14105982D01*
X48512Y-14058476D01*
X151729Y-13989508D01*
X239508Y-13901729D01*
X308476Y-13798512D01*
X355982Y-13683822D01*
X380200Y-13562069D01*
X380200Y-13437931D01*
X355982Y-13316178D01*
X308476Y-13201488D01*
X239508Y-13098271D01*
X151729Y-13010492D01*
X143700Y-13005127D01*
X143700Y-12087931D01*
X319800Y-12087931D01*
X319800Y-12212069D01*
X344018Y-12333822D01*
X391524Y-12448512D01*
X460492Y-12551729D01*
X548271Y-12639508D01*
X651488Y-12708476D01*
X766178Y-12755982D01*
X887931Y-12780200D01*
X1012069Y-12780200D01*
X1133822Y-12755982D01*
X1248512Y-12708476D01*
X1351729Y-12639508D01*
X1439508Y-12551729D01*
X1508476Y-12448512D01*
X1555982Y-12333822D01*
X1580200Y-12212069D01*
X1580200Y-12187931D01*
X15369800Y-12187931D01*
X15369800Y-12312069D01*
X15394018Y-12433822D01*
X15441524Y-12548512D01*
X15510492Y-12651729D01*
X15598271Y-12739508D01*
X15701488Y-12808476D01*
X15816178Y-12855982D01*
X15937931Y-12880200D01*
X16062069Y-12880200D01*
X16183822Y-12855982D01*
X16298512Y-12808476D01*
X16401729Y-12739508D01*
X16489508Y-12651729D01*
X16558476Y-12548512D01*
X16605982Y-12433822D01*
X16630200Y-12312069D01*
X16630200Y-12187931D01*
X16628316Y-12178459D01*
X17218844Y-11587931D01*
X18219800Y-11587931D01*
X18219800Y-11712069D01*
X18244018Y-11833822D01*
X18291524Y-11948512D01*
X18360492Y-12051729D01*
X18448271Y-12139508D01*
X18551488Y-12208476D01*
X18666178Y-12255982D01*
X18787931Y-12280200D01*
X18912069Y-12280200D01*
X18921540Y-12278316D01*
X19157944Y-12514720D01*
X19170266Y-12529734D01*
X19185279Y-12542055D01*
X19185282Y-12542058D01*
X19221870Y-12572085D01*
X19230214Y-12578933D01*
X19298609Y-12615490D01*
X19372821Y-12638003D01*
X19430667Y-12643700D01*
X19430677Y-12643700D01*
X19449999Y-12645603D01*
X19469322Y-12643700D01*
X26664231Y-12643700D01*
X26564271Y-12710492D01*
X26476492Y-12798271D01*
X26471127Y-12806300D01*
X20819322Y-12806300D01*
X20799999Y-12804397D01*
X20780677Y-12806300D01*
X20780667Y-12806300D01*
X20722821Y-12811997D01*
X20648609Y-12834510D01*
X20617028Y-12851390D01*
X20580214Y-12871067D01*
X20535282Y-12907942D01*
X20535279Y-12907945D01*
X20520266Y-12920266D01*
X20507944Y-12935280D01*
X19446541Y-13996684D01*
X19437069Y-13994800D01*
X19312931Y-13994800D01*
X19191178Y-14019018D01*
X19076488Y-14066524D01*
X18973271Y-14135492D01*
X18885492Y-14223271D01*
X18816524Y-14326488D01*
X18769018Y-14441178D01*
X18744800Y-14562931D01*
X18744800Y-14687069D01*
X18769018Y-14808822D01*
X18816524Y-14923512D01*
X18885492Y-15026729D01*
X18973271Y-15114508D01*
X19076488Y-15183476D01*
X19191178Y-15230982D01*
X19312931Y-15255200D01*
X19437069Y-15255200D01*
X19558822Y-15230982D01*
X19673512Y-15183476D01*
X19776729Y-15114508D01*
X19864508Y-15026729D01*
X19933476Y-14923512D01*
X19980982Y-14808822D01*
X20005200Y-14687069D01*
X20005200Y-14562931D01*
X20003316Y-14553459D01*
X20963076Y-13593700D01*
X26471127Y-13593700D01*
X26476492Y-13601729D01*
X26564271Y-13689508D01*
X26667488Y-13758476D01*
X26782178Y-13805982D01*
X26869811Y-13823413D01*
X26686925Y-14006300D01*
X22431180Y-14006300D01*
X22408476Y-13951488D01*
X22339508Y-13848271D01*
X22251729Y-13760492D01*
X22148512Y-13691524D01*
X22033822Y-13644018D01*
X21912069Y-13619800D01*
X21787931Y-13619800D01*
X21666178Y-13644018D01*
X21551488Y-13691524D01*
X21448271Y-13760492D01*
X21360492Y-13848271D01*
X21291524Y-13951488D01*
X21244018Y-14066178D01*
X21219800Y-14187931D01*
X21219800Y-14312069D01*
X21244018Y-14433822D01*
X21291524Y-14548512D01*
X21360492Y-14651729D01*
X21448271Y-14739508D01*
X21551488Y-14808476D01*
X21666178Y-14855982D01*
X21787931Y-14880200D01*
X21912069Y-14880200D01*
X22033822Y-14855982D01*
X22148512Y-14808476D01*
X22170626Y-14793700D01*
X26830678Y-14793700D01*
X26850000Y-14795603D01*
X26869322Y-14793700D01*
X26869333Y-14793700D01*
X26927179Y-14788003D01*
X27001391Y-14765490D01*
X27069786Y-14728933D01*
X27129734Y-14679734D01*
X27142060Y-14664715D01*
X27478459Y-14328316D01*
X27487931Y-14330200D01*
X27612069Y-14330200D01*
X27733822Y-14305982D01*
X27848512Y-14258476D01*
X27951729Y-14189508D01*
X28039508Y-14101729D01*
X28108476Y-13998512D01*
X28155982Y-13883822D01*
X28180200Y-13762069D01*
X28180200Y-13637931D01*
X28155982Y-13516178D01*
X28108476Y-13401488D01*
X28039508Y-13298271D01*
X27951729Y-13210492D01*
X27936027Y-13200000D01*
X27951729Y-13189508D01*
X28039508Y-13101729D01*
X28108476Y-12998512D01*
X28155982Y-12883822D01*
X28180200Y-12762069D01*
X28180200Y-12637931D01*
X28155982Y-12516178D01*
X28108476Y-12401488D01*
X28039508Y-12298271D01*
X27951729Y-12210492D01*
X27848512Y-12141524D01*
X27733822Y-12094018D01*
X27612069Y-12069800D01*
X27487931Y-12069800D01*
X27478459Y-12071684D01*
X27392058Y-11985283D01*
X27379734Y-11970266D01*
X27319786Y-11921067D01*
X27251391Y-11884510D01*
X27177179Y-11861997D01*
X27119333Y-11856300D01*
X27119322Y-11856300D01*
X27100000Y-11854397D01*
X27080678Y-11856300D01*
X19613076Y-11856300D01*
X19478316Y-11721540D01*
X19480200Y-11712069D01*
X19480200Y-11587931D01*
X19455982Y-11466178D01*
X19408476Y-11351488D01*
X19339508Y-11248271D01*
X19251729Y-11160492D01*
X19148512Y-11091524D01*
X19033822Y-11044018D01*
X18912069Y-11019800D01*
X18787931Y-11019800D01*
X18666178Y-11044018D01*
X18551488Y-11091524D01*
X18448271Y-11160492D01*
X18360492Y-11248271D01*
X18291524Y-11351488D01*
X18244018Y-11466178D01*
X18219800Y-11587931D01*
X17218844Y-11587931D01*
X19413076Y-9393700D01*
X24517627Y-9393700D01*
X24522992Y-9401729D01*
X24610771Y-9489508D01*
X24713988Y-9558476D01*
X24828678Y-9605982D01*
X24950431Y-9630200D01*
X25074569Y-9630200D01*
X25196322Y-9605982D01*
X25311012Y-9558476D01*
X25414229Y-9489508D01*
X25502008Y-9401729D01*
X25570976Y-9298512D01*
X25618482Y-9183822D01*
X25642700Y-9062069D01*
X25642700Y-8937931D01*
X25618482Y-8816178D01*
X25570976Y-8701488D01*
X25502008Y-8598271D01*
X25414229Y-8510492D01*
X25311012Y-8441524D01*
X25196322Y-8394018D01*
X25074569Y-8369800D01*
X24950431Y-8369800D01*
X24828678Y-8394018D01*
X24713988Y-8441524D01*
X24610771Y-8510492D01*
X24522992Y-8598271D01*
X24517627Y-8606300D01*
X19269322Y-8606300D01*
X19249999Y-8604397D01*
X19230677Y-8606300D01*
X19230667Y-8606300D01*
X19172821Y-8611997D01*
X19098609Y-8634510D01*
X19030214Y-8671067D01*
X18985282Y-8707942D01*
X18985279Y-8707945D01*
X18970266Y-8720266D01*
X18957944Y-8735280D01*
X16071541Y-11621684D01*
X16062069Y-11619800D01*
X15937931Y-11619800D01*
X15816178Y-11644018D01*
X15701488Y-11691524D01*
X15598271Y-11760492D01*
X15510492Y-11848271D01*
X15441524Y-11951488D01*
X15394018Y-12066178D01*
X15369800Y-12187931D01*
X1580200Y-12187931D01*
X1580200Y-12087931D01*
X1578733Y-12080556D01*
X1579734Y-12079734D01*
X1628933Y-12019786D01*
X1665490Y-11951391D01*
X1688003Y-11877179D01*
X1693700Y-11819333D01*
X1693700Y-11819325D01*
X1695603Y-11800000D01*
X1693700Y-11780675D01*
X1693700Y-8887931D01*
X11519800Y-8887931D01*
X11519800Y-9012069D01*
X11544018Y-9133822D01*
X11591524Y-9248512D01*
X11660492Y-9351729D01*
X11748271Y-9439508D01*
X11851488Y-9508476D01*
X11966178Y-9555982D01*
X12087931Y-9580200D01*
X12212069Y-9580200D01*
X12333822Y-9555982D01*
X12448512Y-9508476D01*
X12551729Y-9439508D01*
X12639508Y-9351729D01*
X12708476Y-9248512D01*
X12755982Y-9133822D01*
X12780200Y-9012069D01*
X12780200Y-8887931D01*
X12778316Y-8878459D01*
X13768842Y-7887933D01*
X21119802Y-7887933D01*
X21119802Y-8012071D01*
X21144020Y-8133824D01*
X21191526Y-8248514D01*
X21260494Y-8351731D01*
X21348273Y-8439510D01*
X21451490Y-8508478D01*
X21566180Y-8555984D01*
X21687933Y-8580202D01*
X21812071Y-8580202D01*
X21933824Y-8555984D01*
X22048514Y-8508478D01*
X22151731Y-8439510D01*
X22239510Y-8351731D01*
X22248487Y-8338296D01*
X22251445Y-8338005D01*
X22325657Y-8315492D01*
X22366428Y-8293700D01*
X25286925Y-8293700D01*
X25785282Y-8792058D01*
X25785287Y-8792062D01*
X26956301Y-9963077D01*
X26956300Y-10555127D01*
X26948271Y-10560492D01*
X26860492Y-10648271D01*
X26791524Y-10751488D01*
X26744018Y-10866178D01*
X26719800Y-10987931D01*
X26719800Y-11112069D01*
X26744018Y-11233822D01*
X26791524Y-11348512D01*
X26860492Y-11451729D01*
X26948271Y-11539508D01*
X27051488Y-11608476D01*
X27166178Y-11655982D01*
X27287931Y-11680200D01*
X27412069Y-11680200D01*
X27533822Y-11655982D01*
X27648512Y-11608476D01*
X27751729Y-11539508D01*
X27839508Y-11451729D01*
X27908476Y-11348512D01*
X27955982Y-11233822D01*
X27980200Y-11112069D01*
X27980200Y-10987931D01*
X27955982Y-10866178D01*
X27908476Y-10751488D01*
X27839508Y-10648271D01*
X27751729Y-10560492D01*
X27743700Y-10555127D01*
X27743700Y-9819325D01*
X27745603Y-9800000D01*
X27743700Y-9780675D01*
X27743700Y-9780667D01*
X27738003Y-9722821D01*
X27715490Y-9648609D01*
X27678933Y-9580214D01*
X27659046Y-9555982D01*
X27642058Y-9535282D01*
X27642055Y-9535279D01*
X27629734Y-9520266D01*
X27614720Y-9507944D01*
X27294707Y-9187931D01*
X30069800Y-9187931D01*
X30069800Y-9312069D01*
X30094018Y-9433822D01*
X30141524Y-9548512D01*
X30210492Y-9651729D01*
X30298271Y-9739508D01*
X30401488Y-9808476D01*
X30516178Y-9855982D01*
X30637931Y-9880200D01*
X30762069Y-9880200D01*
X30883822Y-9855982D01*
X30998512Y-9808476D01*
X31101729Y-9739508D01*
X31134037Y-9707200D01*
X38676623Y-9707200D01*
X39213800Y-10244378D01*
X39213800Y-10290069D01*
X39238018Y-10411822D01*
X39285524Y-10526512D01*
X39354492Y-10629729D01*
X39442271Y-10717508D01*
X39545488Y-10786476D01*
X39660178Y-10833982D01*
X39781931Y-10858200D01*
X39906069Y-10858200D01*
X40027822Y-10833982D01*
X40142512Y-10786476D01*
X40245729Y-10717508D01*
X40333508Y-10629729D01*
X40402476Y-10526512D01*
X40449982Y-10411822D01*
X40474200Y-10290069D01*
X40474200Y-10165931D01*
X40449982Y-10044178D01*
X40402476Y-9929488D01*
X40333508Y-9826271D01*
X40245729Y-9738492D01*
X40142512Y-9669524D01*
X40027822Y-9622018D01*
X39906069Y-9597800D01*
X39860378Y-9597800D01*
X39167173Y-8904596D01*
X39152853Y-8887147D01*
X39083235Y-8830013D01*
X39003809Y-8787560D01*
X38917626Y-8761416D01*
X38908244Y-8760492D01*
X38828000Y-8752589D01*
X38827999Y-8752589D01*
X38747756Y-8760492D01*
X38738374Y-8761416D01*
X38652191Y-8787560D01*
X38642387Y-8792800D01*
X31134037Y-8792800D01*
X31101729Y-8760492D01*
X30998512Y-8691524D01*
X30883822Y-8644018D01*
X30762069Y-8619800D01*
X30637931Y-8619800D01*
X30516178Y-8644018D01*
X30401488Y-8691524D01*
X30298271Y-8760492D01*
X30210492Y-8848271D01*
X30141524Y-8951488D01*
X30094018Y-9066178D01*
X30069800Y-9187931D01*
X27294707Y-9187931D01*
X26342062Y-8235287D01*
X26342058Y-8235282D01*
X25742060Y-7635285D01*
X25729734Y-7620266D01*
X25669786Y-7571067D01*
X25601391Y-7534510D01*
X25527179Y-7511997D01*
X25469333Y-7506300D01*
X25469322Y-7506300D01*
X25450000Y-7504397D01*
X25430678Y-7506300D01*
X22243597Y-7506300D01*
X22224264Y-7504396D01*
X22204931Y-7506300D01*
X22198200Y-7506963D01*
X22151731Y-7460494D01*
X22048514Y-7391526D01*
X21933824Y-7344020D01*
X21812071Y-7319802D01*
X21687933Y-7319802D01*
X21566180Y-7344020D01*
X21451490Y-7391526D01*
X21348273Y-7460494D01*
X21260494Y-7548273D01*
X21191526Y-7651490D01*
X21144020Y-7766180D01*
X21119802Y-7887933D01*
X13768842Y-7887933D01*
X14513076Y-7143700D01*
X23980678Y-7143700D01*
X23988351Y-7144456D01*
X24016178Y-7155982D01*
X24137931Y-7180200D01*
X24262069Y-7180200D01*
X24383822Y-7155982D01*
X24498512Y-7108476D01*
X24601729Y-7039508D01*
X24689508Y-6951729D01*
X24758476Y-6848512D01*
X24805982Y-6733822D01*
X24830200Y-6612069D01*
X24830200Y-6487931D01*
X24805982Y-6366178D01*
X24758476Y-6251488D01*
X24689508Y-6148271D01*
X24601729Y-6060492D01*
X24498512Y-5991524D01*
X24383822Y-5944018D01*
X24262069Y-5919800D01*
X24137931Y-5919800D01*
X24016178Y-5944018D01*
X23901488Y-5991524D01*
X23798271Y-6060492D01*
X23710492Y-6148271D01*
X23641524Y-6251488D01*
X23598110Y-6356300D01*
X14369325Y-6356300D01*
X14350000Y-6354397D01*
X14330675Y-6356300D01*
X14330667Y-6356300D01*
X14272821Y-6361997D01*
X14198609Y-6384510D01*
X14130214Y-6421067D01*
X14085282Y-6457942D01*
X14085279Y-6457945D01*
X14070266Y-6470266D01*
X14057944Y-6485280D01*
X12221541Y-8321684D01*
X12212069Y-8319800D01*
X12087931Y-8319800D01*
X11966178Y-8344018D01*
X11851488Y-8391524D01*
X11748271Y-8460492D01*
X11660492Y-8548271D01*
X11591524Y-8651488D01*
X11544018Y-8766178D01*
X11519800Y-8887931D01*
X1693700Y-8887931D01*
X1693700Y-7413075D01*
X3618832Y-5487943D01*
X15419800Y-5487943D01*
X15419800Y-5612081D01*
X15444018Y-5733834D01*
X15491524Y-5848524D01*
X15560492Y-5951741D01*
X15648271Y-6039520D01*
X15751488Y-6108488D01*
X15866178Y-6155994D01*
X15987931Y-6180212D01*
X16112069Y-6180212D01*
X16233822Y-6155994D01*
X16348512Y-6108488D01*
X16451729Y-6039520D01*
X16539508Y-5951741D01*
X16608476Y-5848524D01*
X16655982Y-5733834D01*
X16663965Y-5693700D01*
X21555127Y-5693700D01*
X21560492Y-5701729D01*
X21648271Y-5789508D01*
X21751488Y-5858476D01*
X21866178Y-5905982D01*
X21987931Y-5930200D01*
X22112069Y-5930200D01*
X22233822Y-5905982D01*
X22348512Y-5858476D01*
X22451729Y-5789508D01*
X22539508Y-5701729D01*
X22608476Y-5598512D01*
X22655982Y-5483822D01*
X22680200Y-5362069D01*
X22680200Y-5237931D01*
X22655982Y-5116178D01*
X22608476Y-5001488D01*
X22539508Y-4898271D01*
X22451729Y-4810492D01*
X22348512Y-4741524D01*
X22233822Y-4694018D01*
X22112069Y-4669800D01*
X21987931Y-4669800D01*
X21866178Y-4694018D01*
X21751488Y-4741524D01*
X21648271Y-4810492D01*
X21560492Y-4898271D01*
X21555127Y-4906300D01*
X16319334Y-4906300D01*
X16300011Y-4904397D01*
X16280689Y-4906300D01*
X16280679Y-4906300D01*
X16222833Y-4911997D01*
X16163409Y-4930024D01*
X16112069Y-4919812D01*
X15987931Y-4919812D01*
X15866178Y-4944030D01*
X15751488Y-4991536D01*
X15648271Y-5060504D01*
X15560492Y-5148283D01*
X15491524Y-5251500D01*
X15444018Y-5366190D01*
X15419800Y-5487943D01*
X3618832Y-5487943D01*
X4763076Y-4343700D01*
X23212661Y-4343700D01*
X23883680Y-5014720D01*
X23896002Y-5029734D01*
X23911015Y-5042055D01*
X23911018Y-5042058D01*
X23955950Y-5078933D01*
X24024345Y-5115490D01*
X24098557Y-5138003D01*
X24101515Y-5138294D01*
X24110492Y-5151729D01*
X24198271Y-5239508D01*
X24301488Y-5308476D01*
X24416178Y-5355982D01*
X24537931Y-5380200D01*
X24662069Y-5380200D01*
X24783822Y-5355982D01*
X24898512Y-5308476D01*
X25001729Y-5239508D01*
X25089508Y-5151729D01*
X25158476Y-5048512D01*
X25205982Y-4933822D01*
X25230200Y-4812069D01*
X25230200Y-4687931D01*
X25205982Y-4566178D01*
X25158476Y-4451488D01*
X25089508Y-4348271D01*
X25001729Y-4260492D01*
X24898512Y-4191524D01*
X24783822Y-4144018D01*
X24662069Y-4119800D01*
X24537931Y-4119800D01*
X24416178Y-4144018D01*
X24301488Y-4191524D01*
X24225086Y-4242574D01*
X23667796Y-3685285D01*
X23655470Y-3670266D01*
X23595522Y-3621067D01*
X23527127Y-3584510D01*
X23452915Y-3561997D01*
X23395069Y-3556300D01*
X23395058Y-3556300D01*
X23375736Y-3554397D01*
X23356414Y-3556300D01*
X4619325Y-3556300D01*
X4600000Y-3554397D01*
X4580675Y-3556300D01*
X4580667Y-3556300D01*
X4523115Y-3561968D01*
X4522821Y-3561997D01*
X4448609Y-3584510D01*
X4380214Y-3621067D01*
X4335282Y-3657942D01*
X4335279Y-3657945D01*
X4320266Y-3670266D01*
X4307944Y-3685280D01*
X1035285Y-6957940D01*
X1020266Y-6970266D01*
X971067Y-7030215D01*
X934510Y-7098610D01*
X911997Y-7172822D01*
X906300Y-7230668D01*
X906300Y-7230678D01*
X904397Y-7250000D01*
X906300Y-7269323D01*
X906301Y-11519800D01*
X887931Y-11519800D01*
X766178Y-11544018D01*
X651488Y-11591524D01*
X548271Y-11660492D01*
X460492Y-11748271D01*
X391524Y-11851488D01*
X344018Y-11966178D01*
X319800Y-12087931D01*
X143700Y-12087931D01*
X143700Y-6613075D01*
X4513076Y-2243700D01*
X23762661Y-2243700D01*
X25383680Y-3864720D01*
X25396002Y-3879734D01*
X25411015Y-3892055D01*
X25411018Y-3892058D01*
X25455950Y-3928933D01*
X25524345Y-3965490D01*
X25598557Y-3988003D01*
X25601515Y-3988294D01*
X25610492Y-4001729D01*
X25698271Y-4089508D01*
X25801488Y-4158476D01*
X25916178Y-4205982D01*
X26037931Y-4230200D01*
X26162069Y-4230200D01*
X26283822Y-4205982D01*
X26398512Y-4158476D01*
X26501729Y-4089508D01*
X26540440Y-4050797D01*
X34919800Y-4050797D01*
X34919800Y-4549203D01*
X35017034Y-5038032D01*
X35207765Y-5498499D01*
X35484665Y-5912909D01*
X35837091Y-6265335D01*
X36251501Y-6542235D01*
X36711968Y-6732966D01*
X37200797Y-6830200D01*
X37699203Y-6830200D01*
X38188032Y-6732966D01*
X38648499Y-6542235D01*
X39062909Y-6265335D01*
X39415335Y-5912909D01*
X39692235Y-5498499D01*
X39882966Y-5038032D01*
X39980200Y-4549203D01*
X39980200Y-4050797D01*
X39882966Y-3561968D01*
X39692235Y-3101501D01*
X39415335Y-2687091D01*
X39062909Y-2334665D01*
X38648499Y-2057765D01*
X38188032Y-1867034D01*
X37699203Y-1769800D01*
X37200797Y-1769800D01*
X36711968Y-1867034D01*
X36251501Y-2057765D01*
X35837091Y-2334665D01*
X35484665Y-2687091D01*
X35207765Y-3101501D01*
X35017034Y-3561968D01*
X34919800Y-4050797D01*
X26540440Y-4050797D01*
X26589508Y-4001729D01*
X26658476Y-3898512D01*
X26705982Y-3783822D01*
X26730200Y-3662069D01*
X26730200Y-3537931D01*
X26705982Y-3416178D01*
X26658476Y-3301488D01*
X26589508Y-3198271D01*
X26501729Y-3110492D01*
X26398512Y-3041524D01*
X26283822Y-2994018D01*
X26162069Y-2969800D01*
X26037931Y-2969800D01*
X25916178Y-2994018D01*
X25801488Y-3041524D01*
X25725086Y-3092574D01*
X24217796Y-1585285D01*
X24205470Y-1570266D01*
X24145522Y-1521067D01*
X24077127Y-1484510D01*
X24002915Y-1461997D01*
X23945069Y-1456300D01*
X23945058Y-1456300D01*
X23925736Y-1454397D01*
X23906414Y-1456300D01*
X4369322Y-1456300D01*
X4349999Y-1454397D01*
X4330677Y-1456300D01*
X4330667Y-1456300D01*
X4272821Y-1461997D01*
X4198609Y-1484510D01*
X4166770Y-1501528D01*
X4130213Y-1521067D01*
X4085282Y-1557942D01*
X4085279Y-1557945D01*
X4070266Y-1570266D01*
X4057944Y-1585280D01*
X-514715Y-6157940D01*
X-529734Y-6170266D01*
X-578933Y-6230215D01*
X-615490Y-6298610D01*
X-638003Y-6372822D01*
X-643700Y-6430668D01*
X-643700Y-6430678D01*
X-645603Y-6450000D01*
X-643700Y-6469322D01*
X-643699Y-13005127D01*
X-651729Y-13010492D01*
X-739508Y-13098271D01*
X-808476Y-13201488D01*
X-855982Y-13316178D01*
X-880200Y-13437931D01*
X-3192800Y-13437931D01*
X-3192800Y-11897449D01*
X-3190589Y-11874999D01*
X-3192800Y-11852549D01*
X-3192800Y-11852540D01*
X-3199415Y-11785373D01*
X-3225559Y-11699191D01*
X-3256382Y-11641524D01*
X-3268013Y-11619763D01*
X-3310830Y-11567592D01*
X-3325147Y-11550147D01*
X-3342592Y-11535830D01*
X-5917801Y-8960622D01*
X-5917801Y-8247449D01*
X-5915590Y-8224999D01*
X-5917801Y-8202549D01*
X-5917801Y-8202539D01*
X-5924416Y-8135372D01*
X-5944475Y-8069248D01*
X-5950560Y-8049189D01*
X-5993014Y-7969763D01*
X-6035830Y-7917592D01*
X-6035831Y-7917591D01*
X-6044800Y-7906662D01*
X-6044800Y-7862931D01*
X-6069018Y-7741178D01*
X-6116524Y-7626488D01*
X-6185492Y-7523271D01*
X-6273271Y-7435492D01*
X-6376488Y-7366524D01*
X-6491178Y-7319018D01*
X-6612931Y-7294800D01*
X-6737069Y-7294800D01*
X-6858822Y-7319018D01*
X-6973512Y-7366524D01*
X-7076729Y-7435492D01*
X-7164508Y-7523271D01*
X-7233476Y-7626488D01*
X-7280982Y-7741178D01*
X-7305200Y-7862931D01*
X-7719800Y-7862931D01*
X-7719800Y-727000D01*
X20050000Y-727000D01*
X20075330Y-724448D01*
X20099122Y-717116D01*
X20121026Y-705282D01*
X20140201Y-689403D01*
X20155909Y-670087D01*
X20167548Y-648079D01*
X20174669Y-624223D01*
X20176999Y-599436D01*
X20161548Y2877109D01*
X23162519Y2877109D01*
X23259843Y2602748D01*
X23408822Y2352645D01*
X23603731Y2136412D01*
X23837080Y1962359D01*
X24099901Y1837175D01*
X24203786Y1805665D01*
X24044966Y1739879D01*
X23851667Y1610721D01*
X23687279Y1446333D01*
X23558121Y1253034D01*
X23469155Y1038252D01*
X23423800Y810240D01*
X23423800Y577760D01*
X23469155Y349748D01*
X23558121Y134966D01*
X23687279Y-58333D01*
X23851667Y-222721D01*
X24044966Y-351879D01*
X24259748Y-440845D01*
X24487760Y-486200D01*
X24720240Y-486200D01*
X24948252Y-440845D01*
X25163034Y-351879D01*
X25356333Y-222721D01*
X25520721Y-58333D01*
X25649879Y134966D01*
X25738845Y349748D01*
X25784200Y577760D01*
X25784200Y810240D01*
X25963800Y810240D01*
X25963800Y577760D01*
X26009155Y349748D01*
X26098121Y134966D01*
X26227279Y-58333D01*
X26391667Y-222721D01*
X26584966Y-351879D01*
X26799748Y-440845D01*
X27027760Y-486200D01*
X27260240Y-486200D01*
X27488252Y-440845D01*
X27703034Y-351879D01*
X27896333Y-222721D01*
X28060721Y-58333D01*
X28189879Y134966D01*
X28278845Y349748D01*
X28324200Y577760D01*
X28324200Y810240D01*
X28503800Y810240D01*
X28503800Y577760D01*
X28549155Y349748D01*
X28638121Y134966D01*
X28767279Y-58333D01*
X28931667Y-222721D01*
X29124966Y-351879D01*
X29339748Y-440845D01*
X29567760Y-486200D01*
X29800240Y-486200D01*
X30028252Y-440845D01*
X30243034Y-351879D01*
X30436333Y-222721D01*
X30600721Y-58333D01*
X30729879Y134966D01*
X30818845Y349748D01*
X30864200Y577760D01*
X30864200Y810240D01*
X31043800Y810240D01*
X31043800Y577760D01*
X31089155Y349748D01*
X31178121Y134966D01*
X31307279Y-58333D01*
X31471667Y-222721D01*
X31664966Y-351879D01*
X31879748Y-440845D01*
X32107760Y-486200D01*
X32340240Y-486200D01*
X32568252Y-440845D01*
X32783034Y-351879D01*
X32976333Y-222721D01*
X33140721Y-58333D01*
X33269879Y134966D01*
X33358845Y349748D01*
X33404200Y577760D01*
X33404200Y810240D01*
X33358845Y1038252D01*
X33269879Y1253034D01*
X33140721Y1446333D01*
X33043054Y1544000D01*
X33582203Y1544000D01*
X33582203Y-156000D01*
X33588578Y-220730D01*
X33607460Y-282973D01*
X33638121Y-340337D01*
X33679384Y-390616D01*
X33729663Y-431879D01*
X33787027Y-462540D01*
X33849270Y-481422D01*
X33914000Y-487797D01*
X35614000Y-487797D01*
X35678730Y-481422D01*
X35740973Y-462540D01*
X35798337Y-431879D01*
X35848616Y-390616D01*
X35889879Y-340337D01*
X35920540Y-282973D01*
X35939422Y-220730D01*
X35945797Y-156000D01*
X35945797Y1544000D01*
X35939422Y1608730D01*
X35920540Y1670973D01*
X35889879Y1728337D01*
X35848616Y1778616D01*
X35798337Y1819879D01*
X35740973Y1850540D01*
X35678730Y1869422D01*
X35614000Y1875797D01*
X33914000Y1875797D01*
X33849270Y1869422D01*
X33787027Y1850540D01*
X33729663Y1819879D01*
X33679384Y1778616D01*
X33638121Y1728337D01*
X33607460Y1670973D01*
X33588578Y1608730D01*
X33582203Y1544000D01*
X33043054Y1544000D01*
X32976333Y1610721D01*
X32783034Y1739879D01*
X32568252Y1828845D01*
X32340240Y1874200D01*
X32107760Y1874200D01*
X31879748Y1828845D01*
X31664966Y1739879D01*
X31471667Y1610721D01*
X31307279Y1446333D01*
X31178121Y1253034D01*
X31089155Y1038252D01*
X31043800Y810240D01*
X30864200Y810240D01*
X30818845Y1038252D01*
X30729879Y1253034D01*
X30600721Y1446333D01*
X30436333Y1610721D01*
X30243034Y1739879D01*
X30028252Y1828845D01*
X29800240Y1874200D01*
X29567760Y1874200D01*
X29339748Y1828845D01*
X29124966Y1739879D01*
X28931667Y1610721D01*
X28767279Y1446333D01*
X28638121Y1253034D01*
X28549155Y1038252D01*
X28503800Y810240D01*
X28324200Y810240D01*
X28278845Y1038252D01*
X28189879Y1253034D01*
X28060721Y1446333D01*
X27896333Y1610721D01*
X27703034Y1739879D01*
X27488252Y1828845D01*
X27260240Y1874200D01*
X27027760Y1874200D01*
X26799748Y1828845D01*
X26584966Y1739879D01*
X26391667Y1610721D01*
X26227279Y1446333D01*
X26098121Y1253034D01*
X26009155Y1038252D01*
X25963800Y810240D01*
X25784200Y810240D01*
X25738845Y1038252D01*
X25649879Y1253034D01*
X25520721Y1446333D01*
X25356333Y1610721D01*
X25163034Y1739879D01*
X25004214Y1805665D01*
X25108099Y1837175D01*
X25370920Y1962359D01*
X25604269Y2136412D01*
X25799178Y2352645D01*
X25948157Y2602748D01*
X26031138Y2836676D01*
X26098121Y2674966D01*
X26227279Y2481667D01*
X26391667Y2317279D01*
X26584966Y2188121D01*
X26799748Y2099155D01*
X27027760Y2053800D01*
X27260240Y2053800D01*
X27488252Y2099155D01*
X27703034Y2188121D01*
X27896333Y2317279D01*
X28060721Y2481667D01*
X28189879Y2674966D01*
X28278845Y2889748D01*
X28324200Y3117760D01*
X28324200Y3350240D01*
X28503800Y3350240D01*
X28503800Y3117760D01*
X28549155Y2889748D01*
X28638121Y2674966D01*
X28767279Y2481667D01*
X28931667Y2317279D01*
X29124966Y2188121D01*
X29339748Y2099155D01*
X29567760Y2053800D01*
X29800240Y2053800D01*
X30028252Y2099155D01*
X30243034Y2188121D01*
X30436333Y2317279D01*
X30600721Y2481667D01*
X30729879Y2674966D01*
X30818845Y2889748D01*
X30864200Y3117760D01*
X30864200Y3350240D01*
X31043800Y3350240D01*
X31043800Y3117760D01*
X31089155Y2889748D01*
X31178121Y2674966D01*
X31307279Y2481667D01*
X31471667Y2317279D01*
X31664966Y2188121D01*
X31879748Y2099155D01*
X32107760Y2053800D01*
X32340240Y2053800D01*
X32568252Y2099155D01*
X32783034Y2188121D01*
X32976333Y2317279D01*
X33140721Y2481667D01*
X33269879Y2674966D01*
X33358845Y2889748D01*
X33404200Y3117760D01*
X33404200Y3350240D01*
X33583800Y3350240D01*
X33583800Y3117760D01*
X33629155Y2889748D01*
X33718121Y2674966D01*
X33847279Y2481667D01*
X34011667Y2317279D01*
X34204966Y2188121D01*
X34419748Y2099155D01*
X34647760Y2053800D01*
X34880240Y2053800D01*
X35108252Y2099155D01*
X35323034Y2188121D01*
X35516333Y2317279D01*
X35680721Y2481667D01*
X35809879Y2674966D01*
X35898845Y2889748D01*
X35944200Y3117760D01*
X35944200Y3350240D01*
X35898845Y3578252D01*
X35809879Y3793034D01*
X35680721Y3986333D01*
X35516333Y4150721D01*
X35323034Y4279879D01*
X35108252Y4368845D01*
X34880240Y4414200D01*
X34647760Y4414200D01*
X34419748Y4368845D01*
X34204966Y4279879D01*
X34011667Y4150721D01*
X33847279Y3986333D01*
X33718121Y3793034D01*
X33629155Y3578252D01*
X33583800Y3350240D01*
X33404200Y3350240D01*
X33358845Y3578252D01*
X33269879Y3793034D01*
X33140721Y3986333D01*
X32976333Y4150721D01*
X32783034Y4279879D01*
X32568252Y4368845D01*
X32340240Y4414200D01*
X32107760Y4414200D01*
X31879748Y4368845D01*
X31664966Y4279879D01*
X31471667Y4150721D01*
X31307279Y3986333D01*
X31178121Y3793034D01*
X31089155Y3578252D01*
X31043800Y3350240D01*
X30864200Y3350240D01*
X30818845Y3578252D01*
X30729879Y3793034D01*
X30600721Y3986333D01*
X30436333Y4150721D01*
X30243034Y4279879D01*
X30028252Y4368845D01*
X29800240Y4414200D01*
X29567760Y4414200D01*
X29339748Y4368845D01*
X29124966Y4279879D01*
X28931667Y4150721D01*
X28767279Y3986333D01*
X28638121Y3793034D01*
X28549155Y3578252D01*
X28503800Y3350240D01*
X28324200Y3350240D01*
X28278845Y3578252D01*
X28189879Y3793034D01*
X28060721Y3986333D01*
X27896333Y4150721D01*
X27703034Y4279879D01*
X27488252Y4368845D01*
X27260240Y4414200D01*
X27027760Y4414200D01*
X26799748Y4368845D01*
X26584966Y4279879D01*
X26391667Y4150721D01*
X26227279Y3986333D01*
X26098121Y3793034D01*
X26031138Y3631324D01*
X25948157Y3865252D01*
X25799178Y4115355D01*
X25604269Y4331588D01*
X25370920Y4505641D01*
X25108099Y4630825D01*
X24960890Y4675476D01*
X24731000Y4554155D01*
X24731000Y3361000D01*
X24751000Y3361000D01*
X24751000Y3107000D01*
X24731000Y3107000D01*
X24731000Y3087000D01*
X24477000Y3087000D01*
X24477000Y3107000D01*
X23283186Y3107000D01*
X23162519Y2877109D01*
X20161548Y2877109D01*
X20158376Y3590891D01*
X23162519Y3590891D01*
X23283186Y3361000D01*
X24477000Y3361000D01*
X24477000Y4554155D01*
X24247110Y4675476D01*
X24099901Y4630825D01*
X23837080Y4505641D01*
X23603731Y4331588D01*
X23408822Y4115355D01*
X23259843Y3865252D01*
X23162519Y3590891D01*
X20158376Y3590891D01*
X20148914Y5719800D01*
X40519800Y5719800D01*
X40519801Y-41519800D01*
G37*
X40519801Y-41519800D02*
X-7719800Y-41519800D01*
X-7719800Y-36926431D01*
X16731300Y-36926431D01*
X16731300Y-37050569D01*
X16755518Y-37172322D01*
X16803024Y-37287012D01*
X16871992Y-37390229D01*
X16959771Y-37478008D01*
X17062988Y-37546976D01*
X17177678Y-37594482D01*
X17299431Y-37618700D01*
X17423569Y-37618700D01*
X17545322Y-37594482D01*
X17660012Y-37546976D01*
X17763229Y-37478008D01*
X17851008Y-37390229D01*
X17919976Y-37287012D01*
X17967482Y-37172322D01*
X17991700Y-37050569D01*
X17991700Y-36926431D01*
X17967482Y-36804678D01*
X17919976Y-36689988D01*
X17851008Y-36586771D01*
X17818700Y-36554463D01*
X17818700Y-35922132D01*
X24829800Y-35922132D01*
X24829800Y-36137868D01*
X24871888Y-36349458D01*
X24954447Y-36548772D01*
X25074303Y-36728149D01*
X25226851Y-36880697D01*
X25406228Y-37000553D01*
X25605542Y-37083112D01*
X25817132Y-37125200D01*
X26032868Y-37125200D01*
X26244458Y-37083112D01*
X26443772Y-37000553D01*
X26623149Y-36880697D01*
X26775697Y-36728149D01*
X26895553Y-36548772D01*
X26978112Y-36349458D01*
X27020200Y-36137868D01*
X27020200Y-35922132D01*
X26978112Y-35710542D01*
X26895553Y-35511228D01*
X26775697Y-35331851D01*
X26623149Y-35179303D01*
X26443772Y-35059447D01*
X26244458Y-34976888D01*
X26032868Y-34934800D01*
X25817132Y-34934800D01*
X25605542Y-34976888D01*
X25406228Y-35059447D01*
X25226851Y-35179303D01*
X25074303Y-35331851D01*
X24954447Y-35511228D01*
X24871888Y-35710542D01*
X24829800Y-35922132D01*
X17818700Y-35922132D01*
X17818700Y-29451505D01*
X20417300Y-29451505D01*
X20417300Y-29748495D01*
X20475240Y-30039780D01*
X20588894Y-30314164D01*
X20753893Y-30561103D01*
X20963897Y-30771107D01*
X21210836Y-30936106D01*
X21485220Y-31049760D01*
X21776505Y-31107700D01*
X22073495Y-31107700D01*
X22165264Y-31089446D01*
X21902141Y-31483237D01*
X21716460Y-31931511D01*
X21621800Y-32407396D01*
X21621800Y-32892604D01*
X21716460Y-33368489D01*
X21902141Y-33816763D01*
X22171708Y-34220198D01*
X22514802Y-34563292D01*
X22918237Y-34832859D01*
X23366511Y-35018540D01*
X23842396Y-35113200D01*
X24327604Y-35113200D01*
X24803489Y-35018540D01*
X25251763Y-34832859D01*
X25655198Y-34563292D01*
X25998292Y-34220198D01*
X26267859Y-33816763D01*
X26453540Y-33368489D01*
X26548200Y-32892604D01*
X26548200Y-32407396D01*
X26453540Y-31931511D01*
X26267859Y-31483237D01*
X25998292Y-31079802D01*
X25655198Y-30736708D01*
X25251763Y-30467141D01*
X24803489Y-30281460D01*
X24327604Y-30186800D01*
X23842396Y-30186800D01*
X23366511Y-30281460D01*
X23250984Y-30329313D01*
X23261106Y-30314164D01*
X23374760Y-30039780D01*
X23432700Y-29748495D01*
X23432700Y-29451505D01*
X23374760Y-29160220D01*
X23261106Y-28885836D01*
X23096107Y-28638897D01*
X22886103Y-28428893D01*
X22639164Y-28263894D01*
X22364780Y-28150240D01*
X22073495Y-28092300D01*
X21776505Y-28092300D01*
X21485220Y-28150240D01*
X21210836Y-28263894D01*
X20963897Y-28428893D01*
X20753893Y-28638897D01*
X20588894Y-28885836D01*
X20475240Y-29160220D01*
X20417300Y-29451505D01*
X17818700Y-29451505D01*
X17818700Y-27227877D01*
X18847945Y-26198633D01*
X24325800Y-26198633D01*
X24325800Y-26401367D01*
X24365351Y-26600207D01*
X24442935Y-26787509D01*
X24555568Y-26956077D01*
X24698923Y-27099432D01*
X24867491Y-27212065D01*
X25054793Y-27289649D01*
X25253633Y-27329200D01*
X25456367Y-27329200D01*
X25655207Y-27289649D01*
X25842509Y-27212065D01*
X26011077Y-27099432D01*
X26154432Y-26956077D01*
X26267065Y-26787509D01*
X26344649Y-26600207D01*
X26384200Y-26401367D01*
X26384200Y-26198633D01*
X26865800Y-26198633D01*
X26865800Y-26401367D01*
X26905351Y-26600207D01*
X26982935Y-26787509D01*
X27095568Y-26956077D01*
X27238923Y-27099432D01*
X27407491Y-27212065D01*
X27594793Y-27289649D01*
X27793633Y-27329200D01*
X27996367Y-27329200D01*
X28195207Y-27289649D01*
X28382509Y-27212065D01*
X28551077Y-27099432D01*
X28694432Y-26956077D01*
X28807065Y-26787509D01*
X28884649Y-26600207D01*
X28924200Y-26401367D01*
X28924200Y-26198633D01*
X28884649Y-25999793D01*
X28807065Y-25812491D01*
X28694432Y-25643923D01*
X28551077Y-25500568D01*
X28382509Y-25387935D01*
X28195207Y-25310351D01*
X27996367Y-25270800D01*
X27793633Y-25270800D01*
X27594793Y-25310351D01*
X27407491Y-25387935D01*
X27238923Y-25500568D01*
X27095568Y-25643923D01*
X26982935Y-25812491D01*
X26905351Y-25999793D01*
X26865800Y-26198633D01*
X26384200Y-26198633D01*
X26344649Y-25999793D01*
X26267065Y-25812491D01*
X26154432Y-25643923D01*
X26011077Y-25500568D01*
X25842509Y-25387935D01*
X25655207Y-25310351D01*
X25456367Y-25270800D01*
X25253633Y-25270800D01*
X25054793Y-25310351D01*
X24867491Y-25387935D01*
X24698923Y-25500568D01*
X24555568Y-25643923D01*
X24442935Y-25812491D01*
X24365351Y-25999793D01*
X24325800Y-26198633D01*
X18847945Y-26198633D01*
X19516379Y-25530200D01*
X19562069Y-25530200D01*
X19683822Y-25505982D01*
X19798512Y-25458476D01*
X19901729Y-25389508D01*
X19989508Y-25301729D01*
X20058476Y-25198512D01*
X20105982Y-25083822D01*
X20130200Y-24962069D01*
X20130200Y-24837931D01*
X20105982Y-24716178D01*
X20058476Y-24601488D01*
X19989508Y-24498271D01*
X19901729Y-24410492D01*
X19798512Y-24341524D01*
X19683822Y-24294018D01*
X19562069Y-24269800D01*
X19437931Y-24269800D01*
X19316178Y-24294018D01*
X19201488Y-24341524D01*
X19098271Y-24410492D01*
X19010492Y-24498271D01*
X18941524Y-24601488D01*
X18894018Y-24716178D01*
X18869800Y-24837931D01*
X18869800Y-24883621D01*
X17054093Y-26699330D01*
X17036648Y-26713647D01*
X16979514Y-26783264D01*
X16937060Y-26862691D01*
X16910916Y-26948873D01*
X16905882Y-26999985D01*
X16902089Y-27038500D01*
X16904301Y-27060960D01*
X16904300Y-36554463D01*
X16871992Y-36586771D01*
X16803024Y-36689988D01*
X16755518Y-36804678D01*
X16731300Y-36926431D01*
X-7719800Y-36926431D01*
X-7719800Y-33833669D01*
X-3391601Y-33833669D01*
X-3391601Y-34076333D01*
X-3344260Y-34314333D01*
X-3251397Y-34538525D01*
X-3116580Y-34740292D01*
X-2944992Y-34911880D01*
X-2743225Y-35046697D01*
X-2519033Y-35139560D01*
X-2281033Y-35186901D01*
X-2038369Y-35186901D01*
X-1800369Y-35139560D01*
X-1576177Y-35046697D01*
X-1374410Y-34911880D01*
X-1202822Y-34740292D01*
X-1068005Y-34538525D01*
X-975142Y-34314333D01*
X-927801Y-34076333D01*
X-927801Y-33833669D01*
X-975142Y-33595669D01*
X-1068005Y-33371477D01*
X-1202822Y-33169710D01*
X-1374410Y-32998122D01*
X-1576177Y-32863305D01*
X-1800369Y-32770442D01*
X-2038369Y-32723101D01*
X-2281033Y-32723101D01*
X-2519033Y-32770442D01*
X-2743225Y-32863305D01*
X-2944992Y-32998122D01*
X-3116580Y-33169710D01*
X-3251397Y-33371477D01*
X-3344260Y-33595669D01*
X-3391601Y-33833669D01*
X-7719800Y-33833669D01*
X-7719800Y-32593680D01*
X-5729500Y-32593680D01*
X-5729500Y-32806322D01*
X-5688015Y-33014879D01*
X-5606640Y-33211336D01*
X-5488502Y-33388142D01*
X-5338141Y-33538503D01*
X-5161335Y-33656641D01*
X-4964878Y-33738016D01*
X-4756321Y-33779501D01*
X-4543679Y-33779501D01*
X-4335122Y-33738016D01*
X-4138665Y-33656641D01*
X-3961859Y-33538503D01*
X-3811498Y-33388142D01*
X-3693360Y-33211336D01*
X-3611985Y-33014879D01*
X-3570500Y-32806322D01*
X-3570500Y-32593680D01*
X-3611985Y-32385123D01*
X-3693360Y-32188666D01*
X-3811498Y-32011860D01*
X-3961859Y-31861499D01*
X-4138665Y-31743361D01*
X-4335122Y-31661986D01*
X-4543679Y-31620501D01*
X-4756321Y-31620501D01*
X-4964878Y-31661986D01*
X-5161335Y-31743361D01*
X-5338141Y-31861499D01*
X-5488502Y-32011860D01*
X-5606640Y-32188666D01*
X-5688015Y-32385123D01*
X-5729500Y-32593680D01*
X-7719800Y-32593680D01*
X-7719800Y-27970135D01*
X-4576315Y-31020425D01*
X-3144005Y-32551517D01*
X-3124853Y-32574853D01*
X-3095944Y-32598579D01*
X-3067820Y-32623272D01*
X-3061172Y-32627116D01*
X-3055236Y-32631987D01*
X-3022238Y-32649625D01*
X-2989852Y-32668348D01*
X-2982582Y-32670821D01*
X-2975809Y-32674441D01*
X-2940008Y-32685301D01*
X-2904588Y-32697349D01*
X-2896976Y-32698356D01*
X-2889627Y-32700585D01*
X-2852374Y-32704254D01*
X-2815305Y-32709156D01*
X-2785184Y-32707200D01*
X-1063642Y-32707200D01*
X-863430Y-32907413D01*
X-849117Y-32924853D01*
X-831678Y-32939165D01*
X-831672Y-32939171D01*
X-779500Y-32981987D01*
X-700074Y-33024441D01*
X-680015Y-33030526D01*
X-613891Y-33050585D01*
X-546724Y-33057200D01*
X-546714Y-33057200D01*
X-532652Y-33058585D01*
X-501729Y-33089508D01*
X-398512Y-33158476D01*
X-283822Y-33205982D01*
X-162069Y-33230200D01*
X-37931Y-33230200D01*
X83822Y-33205982D01*
X198512Y-33158476D01*
X301729Y-33089508D01*
X389508Y-33001729D01*
X458476Y-32898512D01*
X505982Y-32783822D01*
X530200Y-32662069D01*
X530200Y-32537931D01*
X505982Y-32416178D01*
X458476Y-32301488D01*
X389508Y-32198271D01*
X301729Y-32110492D01*
X198512Y-32041524D01*
X83822Y-31994018D01*
X-37931Y-31969800D01*
X-162069Y-31969800D01*
X-283822Y-31994018D01*
X-398512Y-32041524D01*
X-421082Y-32056605D01*
X-535091Y-31942596D01*
X-549411Y-31925147D01*
X-619028Y-31868013D01*
X-698455Y-31825559D01*
X-784637Y-31799415D01*
X-851804Y-31792800D01*
X-851814Y-31792800D01*
X-874264Y-31790589D01*
X-896714Y-31792800D01*
X-2601634Y-31792800D01*
X-3633257Y-30690032D01*
X-3021540Y-30078316D01*
X-3012069Y-30080200D01*
X-2887931Y-30080200D01*
X-2766178Y-30055982D01*
X-2651488Y-30008476D01*
X-2548271Y-29939508D01*
X-2460492Y-29851729D01*
X-2391524Y-29748512D01*
X-2344018Y-29633822D01*
X-2319800Y-29512069D01*
X-2319800Y-29387931D01*
X-2344018Y-29266178D01*
X-2391524Y-29151488D01*
X-2460492Y-29048271D01*
X-2548271Y-28960492D01*
X-2651488Y-28891524D01*
X-2766178Y-28844018D01*
X-2887931Y-28819800D01*
X-3012069Y-28819800D01*
X-3133822Y-28844018D01*
X-3248512Y-28891524D01*
X-3351729Y-28960492D01*
X-3439508Y-29048271D01*
X-3508476Y-29151488D01*
X-3555982Y-29266178D01*
X-3580200Y-29387931D01*
X-3580200Y-29512069D01*
X-3578316Y-29521540D01*
X-4183875Y-30127099D01*
X-4746317Y-29581333D01*
X-4577479Y-29589107D01*
X-4307871Y-29548268D01*
X-4051411Y-29455615D01*
X-3938552Y-29395290D01*
X-3873112Y-29156493D01*
X-4650000Y-28379605D01*
X-4664143Y-28393748D01*
X-4843748Y-28214143D01*
X-4829605Y-28200000D01*
X-4470395Y-28200000D01*
X-3693507Y-28976888D01*
X-3454710Y-28911448D01*
X-3338880Y-28664588D01*
X-3273436Y-28399874D01*
X-3260893Y-28127479D01*
X-3301732Y-27857871D01*
X-3394385Y-27601411D01*
X-3454710Y-27488552D01*
X-3693507Y-27423112D01*
X-4470395Y-28200000D01*
X-4829605Y-28200000D01*
X-5606493Y-27423112D01*
X-5845290Y-27488552D01*
X-5961120Y-27735412D01*
X-6026564Y-28000126D01*
X-6039107Y-28272521D01*
X-6029456Y-28336235D01*
X-7155571Y-27243507D01*
X-5426888Y-27243507D01*
X-4650000Y-28020395D01*
X-3873112Y-27243507D01*
X-3938552Y-27004710D01*
X-4185412Y-26888880D01*
X-4449187Y-26823668D01*
X-3391601Y-26823668D01*
X-3391601Y-27066332D01*
X-3344260Y-27304332D01*
X-3251397Y-27528524D01*
X-3116580Y-27730291D01*
X-2944992Y-27901879D01*
X-2743225Y-28036696D01*
X-2519033Y-28129559D01*
X-2281033Y-28176900D01*
X-2038369Y-28176900D01*
X-1800369Y-28129559D01*
X-1576177Y-28036696D01*
X-1374410Y-27901879D01*
X-1202822Y-27730291D01*
X-1082888Y-27550797D01*
X2769800Y-27550797D01*
X2769800Y-28049203D01*
X2867034Y-28538032D01*
X3057765Y-28998499D01*
X3334665Y-29412909D01*
X3687091Y-29765335D01*
X4101501Y-30042235D01*
X4561968Y-30232966D01*
X5050797Y-30330200D01*
X5549203Y-30330200D01*
X6038032Y-30232966D01*
X6498499Y-30042235D01*
X6912909Y-29765335D01*
X7265335Y-29412909D01*
X7542235Y-28998499D01*
X7732966Y-28538032D01*
X7830200Y-28049203D01*
X7830200Y-27550797D01*
X7732966Y-27061968D01*
X7542235Y-26601501D01*
X7265335Y-26187091D01*
X6912909Y-25834665D01*
X6498499Y-25557765D01*
X6038032Y-25367034D01*
X5549203Y-25269800D01*
X5050797Y-25269800D01*
X4561968Y-25367034D01*
X4101501Y-25557765D01*
X3687091Y-25834665D01*
X3334665Y-26187091D01*
X3057765Y-26601501D01*
X2867034Y-27061968D01*
X2769800Y-27550797D01*
X-1082888Y-27550797D01*
X-1068005Y-27528524D01*
X-975142Y-27304332D01*
X-927801Y-27066332D01*
X-927801Y-26823668D01*
X-975142Y-26585668D01*
X-1068005Y-26361476D01*
X-1202822Y-26159709D01*
X-1374410Y-25988121D01*
X-1576177Y-25853304D01*
X-1800369Y-25760441D01*
X-2038369Y-25713100D01*
X-2281033Y-25713100D01*
X-2519033Y-25760441D01*
X-2743225Y-25853304D01*
X-2944992Y-25988121D01*
X-3116580Y-26159709D01*
X-3251397Y-26361476D01*
X-3344260Y-26585668D01*
X-3391601Y-26823668D01*
X-4449187Y-26823668D01*
X-4450126Y-26823436D01*
X-4722521Y-26810893D01*
X-4992129Y-26851732D01*
X-5248589Y-26944385D01*
X-5361448Y-27004710D01*
X-5426888Y-27243507D01*
X-7155571Y-27243507D01*
X-7165778Y-27233603D01*
X-7165778Y-19662931D01*
X-7105200Y-19662931D01*
X-7105200Y-19787069D01*
X-7080982Y-19908822D01*
X-7033476Y-20023512D01*
X-6964508Y-20126729D01*
X-6876729Y-20214508D01*
X-6868700Y-20219873D01*
X-6868700Y-20455677D01*
X-6870603Y-20475000D01*
X-6868700Y-20494322D01*
X-6868700Y-20494332D01*
X-6863003Y-20552178D01*
X-6840490Y-20626390D01*
X-6803933Y-20694785D01*
X-6754734Y-20754734D01*
X-6739715Y-20767060D01*
X-2542056Y-24964720D01*
X-2529734Y-24979734D01*
X-2514721Y-24992055D01*
X-2514718Y-24992058D01*
X-2474556Y-25025018D01*
X-2469786Y-25028933D01*
X-2401391Y-25065490D01*
X-2327179Y-25088003D01*
X-2269333Y-25093700D01*
X-2269323Y-25093700D01*
X-2250001Y-25095603D01*
X-2230678Y-25093700D01*
X8236925Y-25093700D01*
X8721684Y-25578460D01*
X8719800Y-25587931D01*
X8719800Y-25712069D01*
X8744018Y-25833822D01*
X8791524Y-25948512D01*
X8860492Y-26051729D01*
X8948271Y-26139508D01*
X9051488Y-26208476D01*
X9166178Y-26255982D01*
X9287931Y-26280200D01*
X9412069Y-26280200D01*
X9533822Y-26255982D01*
X9648512Y-26208476D01*
X9751729Y-26139508D01*
X9839508Y-26051729D01*
X9908476Y-25948512D01*
X9955982Y-25833822D01*
X9980200Y-25712069D01*
X9980200Y-25587931D01*
X9955982Y-25466178D01*
X9908476Y-25351488D01*
X9839508Y-25248271D01*
X9751729Y-25160492D01*
X9648512Y-25091524D01*
X9533822Y-25044018D01*
X9412069Y-25019800D01*
X9287931Y-25019800D01*
X9278460Y-25021684D01*
X8692060Y-24435285D01*
X8679734Y-24420266D01*
X8619786Y-24371067D01*
X8551391Y-24334510D01*
X8477179Y-24311997D01*
X8419333Y-24306300D01*
X8419322Y-24306300D01*
X8400000Y-24304397D01*
X8380678Y-24306300D01*
X-2086924Y-24306300D01*
X-6081300Y-20311925D01*
X-6081300Y-20219873D01*
X-6073271Y-20214508D01*
X-5985492Y-20126729D01*
X-5916524Y-20023512D01*
X-5869018Y-19908822D01*
X-5844800Y-19787069D01*
X-5844800Y-19662931D01*
X-5863660Y-19568115D01*
X-1367056Y-24064720D01*
X-1354734Y-24079734D01*
X-1339721Y-24092055D01*
X-1339718Y-24092058D01*
X-1337125Y-24094186D01*
X-1294786Y-24128933D01*
X-1226391Y-24165490D01*
X-1152179Y-24188003D01*
X-1094333Y-24193700D01*
X-1094323Y-24193700D01*
X-1075001Y-24195603D01*
X-1055678Y-24193700D01*
X9461925Y-24193700D01*
X10871684Y-25603460D01*
X10869800Y-25612931D01*
X10869800Y-25737069D01*
X10894018Y-25858822D01*
X10941524Y-25973512D01*
X11010492Y-26076729D01*
X11098271Y-26164508D01*
X11201488Y-26233476D01*
X11316178Y-26280982D01*
X11437931Y-26305200D01*
X11562069Y-26305200D01*
X11683822Y-26280982D01*
X11798512Y-26233476D01*
X11901729Y-26164508D01*
X11989508Y-26076729D01*
X12058476Y-25973512D01*
X12105982Y-25858822D01*
X12130200Y-25737069D01*
X12130200Y-25612931D01*
X12105982Y-25491178D01*
X12058476Y-25376488D01*
X11989508Y-25273271D01*
X11901729Y-25185492D01*
X11798512Y-25116524D01*
X11683822Y-25069018D01*
X11562069Y-25044800D01*
X11437931Y-25044800D01*
X11428460Y-25046684D01*
X9917060Y-23535285D01*
X9904734Y-23520266D01*
X9844786Y-23471067D01*
X9776391Y-23434510D01*
X9702179Y-23411997D01*
X9644333Y-23406300D01*
X9644322Y-23406300D01*
X9625000Y-23404397D01*
X9605678Y-23406300D01*
X-911924Y-23406300D01*
X-5481300Y-18836925D01*
X-5481300Y-12719873D01*
X-5473271Y-12714508D01*
X-5385492Y-12626729D01*
X-5316524Y-12523512D01*
X-5269018Y-12408822D01*
X-5244800Y-12287069D01*
X-5244800Y-12162931D01*
X-5269018Y-12041178D01*
X-5316524Y-11926488D01*
X-5385492Y-11823271D01*
X-5473271Y-11735492D01*
X-5576488Y-11666524D01*
X-5691178Y-11619018D01*
X-5812931Y-11594800D01*
X-5937069Y-11594800D01*
X-6058822Y-11619018D01*
X-6173512Y-11666524D01*
X-6276729Y-11735492D01*
X-6364508Y-11823271D01*
X-6433476Y-11926488D01*
X-6480982Y-12041178D01*
X-6505200Y-12162931D01*
X-6505200Y-12287069D01*
X-6480982Y-12408822D01*
X-6433476Y-12523512D01*
X-6364508Y-12626729D01*
X-6276729Y-12714508D01*
X-6268699Y-12719874D01*
X-6268700Y-18980678D01*
X-6270603Y-19000000D01*
X-6268700Y-19019322D01*
X-6268700Y-19019332D01*
X-6263003Y-19077178D01*
X-6244437Y-19138379D01*
X-6291178Y-19119018D01*
X-6412931Y-19094800D01*
X-6537069Y-19094800D01*
X-6658822Y-19119018D01*
X-6773512Y-19166524D01*
X-6876729Y-19235492D01*
X-6964508Y-19323271D01*
X-7033476Y-19426488D01*
X-7080982Y-19541178D01*
X-7105200Y-19662931D01*
X-7165778Y-19662931D01*
X-7165778Y-19334037D01*
X-7133470Y-19301729D01*
X-7064502Y-19198512D01*
X-7016996Y-19083822D01*
X-6992778Y-18962069D01*
X-6992778Y-18837931D01*
X-7016996Y-18716178D01*
X-7064502Y-18601488D01*
X-7133470Y-18498271D01*
X-7221249Y-18410492D01*
X-7324466Y-18341524D01*
X-7439156Y-18294018D01*
X-7560909Y-18269800D01*
X-7685047Y-18269800D01*
X-7719800Y-18276713D01*
X-7719800Y-7862931D01*
X-7305200Y-7862931D01*
X-7305200Y-7987069D01*
X-7280982Y-8108822D01*
X-7233476Y-8223512D01*
X-7164508Y-8326729D01*
X-7076729Y-8414508D01*
X-6973512Y-8483476D01*
X-6858822Y-8530982D01*
X-6832200Y-8536277D01*
X-6832201Y-9127549D01*
X-6834412Y-9149999D01*
X-6832201Y-9172449D01*
X-6832201Y-9172458D01*
X-6825586Y-9239625D01*
X-6799442Y-9325807D01*
X-6756988Y-9405234D01*
X-6699854Y-9474852D01*
X-6682404Y-9489173D01*
X-4582746Y-11588831D01*
X-4608822Y-11594018D01*
X-4723512Y-11641524D01*
X-4826729Y-11710492D01*
X-4914508Y-11798271D01*
X-4983476Y-11901488D01*
X-5030982Y-12016178D01*
X-5055200Y-12137931D01*
X-5055200Y-12262069D01*
X-5030982Y-12383822D01*
X-4983476Y-12498512D01*
X-4914508Y-12601729D01*
X-4826729Y-12689508D01*
X-4818699Y-12694874D01*
X-4818700Y-18880678D01*
X-4820603Y-18900000D01*
X-4818700Y-18919322D01*
X-4818700Y-18919332D01*
X-4813003Y-18977178D01*
X-4790490Y-19051390D01*
X-4753933Y-19119785D01*
X-4704734Y-19179734D01*
X-4689715Y-19192060D01*
X-892056Y-22989720D01*
X-879734Y-23004734D01*
X-864721Y-23017055D01*
X-864718Y-23017058D01*
X-819786Y-23053933D01*
X-751391Y-23090490D01*
X-677179Y-23113003D01*
X-619333Y-23118700D01*
X-619325Y-23118700D01*
X-600000Y-23120603D01*
X-580675Y-23118700D01*
X10611925Y-23118700D01*
X13021684Y-25528460D01*
X13019800Y-25537931D01*
X13019800Y-25662069D01*
X13044018Y-25783822D01*
X13091524Y-25898512D01*
X13160492Y-26001729D01*
X13248271Y-26089508D01*
X13351488Y-26158476D01*
X13466178Y-26205982D01*
X13587931Y-26230200D01*
X13712069Y-26230200D01*
X13833822Y-26205982D01*
X13948512Y-26158476D01*
X14051729Y-26089508D01*
X14139508Y-26001729D01*
X14208476Y-25898512D01*
X14255982Y-25783822D01*
X14280200Y-25662069D01*
X14280200Y-25537931D01*
X14255982Y-25416178D01*
X14208476Y-25301488D01*
X14139508Y-25198271D01*
X14051729Y-25110492D01*
X13948512Y-25041524D01*
X13833822Y-24994018D01*
X13712069Y-24969800D01*
X13587931Y-24969800D01*
X13578460Y-24971684D01*
X12265409Y-23658633D01*
X25595800Y-23658633D01*
X25595800Y-23861367D01*
X25635351Y-24060207D01*
X25712935Y-24247509D01*
X25825568Y-24416077D01*
X25968923Y-24559432D01*
X26137491Y-24672065D01*
X26324793Y-24749649D01*
X26523633Y-24789200D01*
X26726367Y-24789200D01*
X26925207Y-24749649D01*
X27112509Y-24672065D01*
X27281077Y-24559432D01*
X27424432Y-24416077D01*
X27537065Y-24247509D01*
X27614649Y-24060207D01*
X27654200Y-23861367D01*
X27654200Y-23658633D01*
X28135800Y-23658633D01*
X28135800Y-23861367D01*
X28175351Y-24060207D01*
X28252935Y-24247509D01*
X28365568Y-24416077D01*
X28508923Y-24559432D01*
X28677491Y-24672065D01*
X28864793Y-24749649D01*
X29063633Y-24789200D01*
X29266367Y-24789200D01*
X29465207Y-24749649D01*
X29612189Y-24688766D01*
X29977800Y-25054378D01*
X29977800Y-25375380D01*
X29947491Y-25387935D01*
X29778923Y-25500568D01*
X29635568Y-25643923D01*
X29522935Y-25812491D01*
X29445351Y-25999793D01*
X29405800Y-26198633D01*
X29405800Y-26401367D01*
X29445351Y-26600207D01*
X29522935Y-26787509D01*
X29635568Y-26956077D01*
X29778923Y-27099432D01*
X29947491Y-27212065D01*
X30134793Y-27289649D01*
X30333633Y-27329200D01*
X30536367Y-27329200D01*
X30735207Y-27289649D01*
X30922509Y-27212065D01*
X31091077Y-27099432D01*
X31234432Y-26956077D01*
X31347065Y-26787509D01*
X31424649Y-26600207D01*
X31464200Y-26401367D01*
X31464200Y-26198633D01*
X31945800Y-26198633D01*
X31945800Y-26401367D01*
X31985351Y-26600207D01*
X32062935Y-26787509D01*
X32175568Y-26956077D01*
X32318923Y-27099432D01*
X32487491Y-27212065D01*
X32674793Y-27289649D01*
X32873633Y-27329200D01*
X33076367Y-27329200D01*
X33275207Y-27289649D01*
X33462509Y-27212065D01*
X33631077Y-27099432D01*
X33774432Y-26956077D01*
X33887065Y-26787509D01*
X33964649Y-26600207D01*
X34004200Y-26401367D01*
X34004200Y-26198633D01*
X33964649Y-25999793D01*
X33887065Y-25812491D01*
X33774432Y-25643923D01*
X33631077Y-25500568D01*
X33462509Y-25387935D01*
X33275207Y-25310351D01*
X33076367Y-25270800D01*
X32873633Y-25270800D01*
X32674793Y-25310351D01*
X32487491Y-25387935D01*
X32318923Y-25500568D01*
X32175568Y-25643923D01*
X32062935Y-25812491D01*
X31985351Y-25999793D01*
X31945800Y-26198633D01*
X31464200Y-26198633D01*
X31424649Y-25999793D01*
X31347065Y-25812491D01*
X31234432Y-25643923D01*
X31091077Y-25500568D01*
X30922509Y-25387935D01*
X30892200Y-25375380D01*
X30892200Y-24842540D01*
X30885585Y-24775373D01*
X30859441Y-24689191D01*
X30816987Y-24609764D01*
X30759853Y-24540147D01*
X30742409Y-24525831D01*
X30174912Y-23958335D01*
X30194200Y-23861367D01*
X30194200Y-23658633D01*
X30675800Y-23658633D01*
X30675800Y-23861367D01*
X30715351Y-24060207D01*
X30792935Y-24247509D01*
X30905568Y-24416077D01*
X31048923Y-24559432D01*
X31217491Y-24672065D01*
X31404793Y-24749649D01*
X31603633Y-24789200D01*
X31806367Y-24789200D01*
X32005207Y-24749649D01*
X32172012Y-24680555D01*
X33504050Y-24680555D01*
X33563389Y-24914221D01*
X33801664Y-25025018D01*
X34056975Y-25087202D01*
X34319512Y-25098382D01*
X34579186Y-25058129D01*
X34826017Y-24967990D01*
X34926611Y-24914221D01*
X34985950Y-24680555D01*
X34245000Y-23939605D01*
X33504050Y-24680555D01*
X32172012Y-24680555D01*
X32192509Y-24672065D01*
X32361077Y-24559432D01*
X32504432Y-24416077D01*
X32617065Y-24247509D01*
X32694649Y-24060207D01*
X32734200Y-23861367D01*
X32734200Y-23834512D01*
X32906618Y-23834512D01*
X32946871Y-24094186D01*
X33037010Y-24341017D01*
X33090779Y-24441611D01*
X33324445Y-24500950D01*
X34065395Y-23760000D01*
X34424605Y-23760000D01*
X35165555Y-24500950D01*
X35399221Y-24441611D01*
X35510018Y-24203336D01*
X35572202Y-23948025D01*
X35583382Y-23685488D01*
X35543129Y-23425814D01*
X35452990Y-23178983D01*
X35399221Y-23078389D01*
X35165555Y-23019050D01*
X34424605Y-23760000D01*
X34065395Y-23760000D01*
X33324445Y-23019050D01*
X33090779Y-23078389D01*
X32979982Y-23316664D01*
X32917798Y-23571975D01*
X32906618Y-23834512D01*
X32734200Y-23834512D01*
X32734200Y-23658633D01*
X32694649Y-23459793D01*
X32617065Y-23272491D01*
X32504432Y-23103923D01*
X32361077Y-22960568D01*
X32192509Y-22847935D01*
X32172013Y-22839445D01*
X33504050Y-22839445D01*
X34245000Y-23580395D01*
X34985950Y-22839445D01*
X34926611Y-22605779D01*
X34688336Y-22494982D01*
X34433025Y-22432798D01*
X34170488Y-22421618D01*
X33910814Y-22461871D01*
X33663983Y-22552010D01*
X33563389Y-22605779D01*
X33504050Y-22839445D01*
X32172013Y-22839445D01*
X32005207Y-22770351D01*
X31806367Y-22730800D01*
X31603633Y-22730800D01*
X31404793Y-22770351D01*
X31217491Y-22847935D01*
X31048923Y-22960568D01*
X30905568Y-23103923D01*
X30792935Y-23272491D01*
X30715351Y-23459793D01*
X30675800Y-23658633D01*
X30194200Y-23658633D01*
X30154649Y-23459793D01*
X30077065Y-23272491D01*
X29964432Y-23103923D01*
X29821077Y-22960568D01*
X29652509Y-22847935D01*
X29465207Y-22770351D01*
X29266367Y-22730800D01*
X29063633Y-22730800D01*
X28864793Y-22770351D01*
X28677491Y-22847935D01*
X28508923Y-22960568D01*
X28365568Y-23103923D01*
X28252935Y-23272491D01*
X28175351Y-23459793D01*
X28135800Y-23658633D01*
X27654200Y-23658633D01*
X27614649Y-23459793D01*
X27537065Y-23272491D01*
X27424432Y-23103923D01*
X27281077Y-22960568D01*
X27112509Y-22847935D01*
X26925207Y-22770351D01*
X26726367Y-22730800D01*
X26523633Y-22730800D01*
X26324793Y-22770351D01*
X26137491Y-22847935D01*
X25968923Y-22960568D01*
X25825568Y-23103923D01*
X25712935Y-23272491D01*
X25635351Y-23459793D01*
X25595800Y-23658633D01*
X12265409Y-23658633D01*
X11067060Y-22460285D01*
X11054734Y-22445266D01*
X10994786Y-22396067D01*
X10926391Y-22359510D01*
X10852179Y-22336997D01*
X10794333Y-22331300D01*
X10794322Y-22331300D01*
X10775000Y-22329397D01*
X10755678Y-22331300D01*
X-436924Y-22331300D01*
X-4031300Y-18736925D01*
X-4031300Y-15981072D01*
X-3974853Y-16049853D01*
X-3957403Y-16064174D01*
X-2339170Y-17682408D01*
X-2324853Y-17699853D01*
X-2307408Y-17714170D01*
X-2255237Y-17756987D01*
X-2218301Y-17776729D01*
X-2175809Y-17799441D01*
X-2089627Y-17825585D01*
X-2022460Y-17832200D01*
X-2022451Y-17832200D01*
X-2000001Y-17834411D01*
X-1977551Y-17832200D01*
X515963Y-17832200D01*
X548271Y-17864508D01*
X651488Y-17933476D01*
X766178Y-17980982D01*
X887931Y-18005200D01*
X1012069Y-18005200D01*
X1133822Y-17980982D01*
X1248512Y-17933476D01*
X1351729Y-17864508D01*
X1439508Y-17776729D01*
X1508476Y-17673512D01*
X1555982Y-17558822D01*
X1580200Y-17437069D01*
X1580200Y-17312931D01*
X1565282Y-17237931D01*
X11819800Y-17237931D01*
X11819800Y-17362069D01*
X11844018Y-17483822D01*
X11891524Y-17598512D01*
X11960492Y-17701729D01*
X12048271Y-17789508D01*
X12056301Y-17794873D01*
X12056300Y-19930677D01*
X12054397Y-19950000D01*
X12056300Y-19969322D01*
X12056300Y-19969332D01*
X12061997Y-20027178D01*
X12084510Y-20101390D01*
X12121067Y-20169785D01*
X12170266Y-20229734D01*
X12185285Y-20242060D01*
X12571684Y-20628460D01*
X12569800Y-20637931D01*
X12569800Y-20762069D01*
X12594018Y-20883822D01*
X12641524Y-20998512D01*
X12710492Y-21101729D01*
X12798271Y-21189508D01*
X12901488Y-21258476D01*
X13016178Y-21305982D01*
X13137931Y-21330200D01*
X13262069Y-21330200D01*
X13383822Y-21305982D01*
X13498512Y-21258476D01*
X13601729Y-21189508D01*
X13689508Y-21101729D01*
X13758476Y-20998512D01*
X13805982Y-20883822D01*
X13830200Y-20762069D01*
X13830200Y-20637931D01*
X13805982Y-20516178D01*
X13758476Y-20401488D01*
X13689508Y-20298271D01*
X13601729Y-20210492D01*
X13498512Y-20141524D01*
X13383822Y-20094018D01*
X13262069Y-20069800D01*
X13137931Y-20069800D01*
X13128460Y-20071684D01*
X12843700Y-19786925D01*
X12843700Y-17794873D01*
X12851729Y-17789508D01*
X12939508Y-17701729D01*
X13008476Y-17598512D01*
X13055982Y-17483822D01*
X13080200Y-17362069D01*
X13080200Y-17237931D01*
X13055982Y-17116178D01*
X13008476Y-17001488D01*
X12939508Y-16898271D01*
X12851729Y-16810492D01*
X12748512Y-16741524D01*
X12633822Y-16694018D01*
X12512069Y-16669800D01*
X12387931Y-16669800D01*
X12266178Y-16694018D01*
X12151488Y-16741524D01*
X12048271Y-16810492D01*
X11960492Y-16898271D01*
X11891524Y-17001488D01*
X11844018Y-17116178D01*
X11819800Y-17237931D01*
X1565282Y-17237931D01*
X1555982Y-17191178D01*
X1508476Y-17076488D01*
X1439508Y-16973271D01*
X1351729Y-16885492D01*
X1248512Y-16816524D01*
X1133822Y-16769018D01*
X1012069Y-16744800D01*
X887931Y-16744800D01*
X766178Y-16769018D01*
X651488Y-16816524D01*
X548271Y-16885492D01*
X515963Y-16917800D01*
X-1810622Y-16917800D01*
X-2128422Y-16600000D01*
X18840588Y-16600000D01*
X18849415Y-16689627D01*
X18875559Y-16775809D01*
X18918013Y-16855236D01*
X18975147Y-16924853D01*
X19044764Y-16981987D01*
X19124191Y-17024441D01*
X19210373Y-17050585D01*
X19277540Y-17057200D01*
X19415963Y-17057200D01*
X19448271Y-17089508D01*
X19551488Y-17158476D01*
X19666178Y-17205982D01*
X19787931Y-17230200D01*
X19912069Y-17230200D01*
X20033822Y-17205982D01*
X20148512Y-17158476D01*
X20251729Y-17089508D01*
X20284037Y-17057200D01*
X26827550Y-17057200D01*
X26850000Y-17059411D01*
X26872450Y-17057200D01*
X26872460Y-17057200D01*
X26939627Y-17050585D01*
X27025809Y-17024441D01*
X27105236Y-16981987D01*
X27174853Y-16924853D01*
X27189174Y-16907403D01*
X29855378Y-14241200D01*
X31077521Y-14241200D01*
X31099971Y-14243411D01*
X31122421Y-14241200D01*
X31122431Y-14241200D01*
X31189598Y-14234585D01*
X31275780Y-14208441D01*
X31355207Y-14165987D01*
X31424824Y-14108853D01*
X31439145Y-14091403D01*
X33303882Y-12226667D01*
X33351488Y-12258476D01*
X33414847Y-12284720D01*
X33396018Y-12330178D01*
X33371800Y-12451931D01*
X33371800Y-12573009D01*
X33266178Y-12594018D01*
X33151488Y-12641524D01*
X33048271Y-12710492D01*
X32960492Y-12798271D01*
X32891524Y-12901488D01*
X32844018Y-13016178D01*
X32819800Y-13137931D01*
X32819800Y-13262069D01*
X32844018Y-13383822D01*
X32891524Y-13498512D01*
X32960492Y-13601729D01*
X33048271Y-13689508D01*
X33151488Y-13758476D01*
X33266178Y-13805982D01*
X33387931Y-13830200D01*
X33512069Y-13830200D01*
X33521541Y-13828316D01*
X38856300Y-19163076D01*
X38856301Y-28654153D01*
X38846107Y-28638897D01*
X38636103Y-28428893D01*
X38389164Y-28263894D01*
X38114780Y-28150240D01*
X37823495Y-28092300D01*
X37526505Y-28092300D01*
X37235220Y-28150240D01*
X36960836Y-28263894D01*
X36713897Y-28428893D01*
X36503893Y-28638897D01*
X36338894Y-28885836D01*
X36225240Y-29160220D01*
X36167300Y-29451505D01*
X36167300Y-29748495D01*
X36225240Y-30039780D01*
X36338894Y-30314164D01*
X36349016Y-30329313D01*
X36233489Y-30281460D01*
X35757604Y-30186800D01*
X35272396Y-30186800D01*
X34796511Y-30281460D01*
X34348237Y-30467141D01*
X33944802Y-30736708D01*
X33601708Y-31079802D01*
X33332141Y-31483237D01*
X33146460Y-31931511D01*
X33051800Y-32407396D01*
X33051800Y-32892604D01*
X33146460Y-33368489D01*
X33332141Y-33816763D01*
X33601708Y-34220198D01*
X33944802Y-34563292D01*
X34348237Y-34832859D01*
X34796511Y-35018540D01*
X35272396Y-35113200D01*
X35525781Y-35113200D01*
X35426851Y-35179303D01*
X35274303Y-35331851D01*
X35154447Y-35511228D01*
X35071888Y-35710542D01*
X35029800Y-35922132D01*
X35029800Y-36137868D01*
X35071888Y-36349458D01*
X35154447Y-36548772D01*
X35274303Y-36728149D01*
X35426851Y-36880697D01*
X35606228Y-37000553D01*
X35805542Y-37083112D01*
X36017132Y-37125200D01*
X36232868Y-37125200D01*
X36444458Y-37083112D01*
X36643772Y-37000553D01*
X36823149Y-36880697D01*
X36975697Y-36728149D01*
X37095553Y-36548772D01*
X37178112Y-36349458D01*
X37220200Y-36137868D01*
X37220200Y-35922132D01*
X37178112Y-35710542D01*
X37154130Y-35652645D01*
X38764722Y-34042054D01*
X38779734Y-34029734D01*
X38828933Y-33969786D01*
X38865490Y-33901391D01*
X38888003Y-33827179D01*
X38893700Y-33769333D01*
X38893700Y-33769325D01*
X38895603Y-33750000D01*
X38893700Y-33730675D01*
X38893700Y-32353075D01*
X39514720Y-31732056D01*
X39529734Y-31719734D01*
X39578933Y-31659786D01*
X39615490Y-31591391D01*
X39638003Y-31517179D01*
X39643700Y-31459333D01*
X39643700Y-31459323D01*
X39645603Y-31440001D01*
X39643700Y-31420678D01*
X39643700Y-19019325D01*
X39645603Y-19000000D01*
X39643700Y-18980675D01*
X39643700Y-18980667D01*
X39638003Y-18922821D01*
X39615490Y-18848609D01*
X39578933Y-18780214D01*
X39529734Y-18720266D01*
X39514722Y-18707946D01*
X34078316Y-13271541D01*
X34080200Y-13262069D01*
X34080200Y-13140991D01*
X34185822Y-13119982D01*
X34300512Y-13072476D01*
X34403729Y-13003508D01*
X34491508Y-12915729D01*
X34496873Y-12907700D01*
X34650925Y-12907700D01*
X39706301Y-17963077D01*
X39706300Y-32830667D01*
X39706300Y-32919332D01*
X39706301Y-32919342D01*
X39706300Y-34236924D01*
X35611925Y-38331300D01*
X34442546Y-38331300D01*
X34525697Y-38248149D01*
X34645553Y-38068772D01*
X34728112Y-37869458D01*
X34770200Y-37657868D01*
X34770200Y-37442132D01*
X34728112Y-37230542D01*
X34645553Y-37031228D01*
X34525697Y-36851851D01*
X34373149Y-36699303D01*
X34193772Y-36579447D01*
X33994458Y-36496888D01*
X33782868Y-36454800D01*
X33567132Y-36454800D01*
X33355542Y-36496888D01*
X33156228Y-36579447D01*
X32976851Y-36699303D01*
X32824303Y-36851851D01*
X32704447Y-37031228D01*
X32621888Y-37230542D01*
X32579800Y-37442132D01*
X32579800Y-37657868D01*
X32621888Y-37869458D01*
X32704447Y-38068772D01*
X32824303Y-38248149D01*
X32907454Y-38331300D01*
X24748076Y-38331300D01*
X24457267Y-38040492D01*
X24528112Y-37869458D01*
X24570200Y-37657868D01*
X24570200Y-37442132D01*
X24528112Y-37230542D01*
X24445553Y-37031228D01*
X24325697Y-36851851D01*
X24173149Y-36699303D01*
X23993772Y-36579447D01*
X23794458Y-36496888D01*
X23582868Y-36454800D01*
X23367132Y-36454800D01*
X23155542Y-36496888D01*
X22956228Y-36579447D01*
X22776851Y-36699303D01*
X22624303Y-36851851D01*
X22504447Y-37031228D01*
X22421888Y-37230542D01*
X22379800Y-37442132D01*
X22379800Y-37657868D01*
X22421888Y-37869458D01*
X22504447Y-38068772D01*
X22624303Y-38248149D01*
X22776851Y-38400697D01*
X22956228Y-38520553D01*
X23155542Y-38603112D01*
X23367132Y-38645200D01*
X23582868Y-38645200D01*
X23794458Y-38603112D01*
X23873568Y-38570343D01*
X24292944Y-38989720D01*
X24305266Y-39004734D01*
X24320279Y-39017055D01*
X24320282Y-39017058D01*
X24365214Y-39053933D01*
X24433609Y-39090490D01*
X24507821Y-39113003D01*
X24565667Y-39118700D01*
X24565677Y-39118700D01*
X24584999Y-39120603D01*
X24604322Y-39118700D01*
X35755678Y-39118700D01*
X35775000Y-39120603D01*
X35794322Y-39118700D01*
X35794333Y-39118700D01*
X35852179Y-39113003D01*
X35926391Y-39090490D01*
X35994786Y-39053933D01*
X36054734Y-39004734D01*
X36067060Y-38989715D01*
X40364722Y-34692054D01*
X40379734Y-34679734D01*
X40428933Y-34619786D01*
X40465490Y-34551391D01*
X40488003Y-34477179D01*
X40493700Y-34419333D01*
X40493700Y-34419325D01*
X40495603Y-34400000D01*
X40493700Y-34380675D01*
X40493700Y-17819325D01*
X40495603Y-17800000D01*
X40493700Y-17780675D01*
X40493700Y-17780667D01*
X40488003Y-17722821D01*
X40465490Y-17648609D01*
X40428933Y-17580214D01*
X40411377Y-17558822D01*
X40392058Y-17535282D01*
X40392055Y-17535279D01*
X40379734Y-17520266D01*
X40364720Y-17507944D01*
X35106060Y-12249285D01*
X35093734Y-12234266D01*
X35033786Y-12185067D01*
X34965391Y-12148510D01*
X34891179Y-12125997D01*
X34833333Y-12120300D01*
X34833322Y-12120300D01*
X34814000Y-12118397D01*
X34794678Y-12120300D01*
X34496873Y-12120300D01*
X34491508Y-12112271D01*
X34403729Y-12024492D01*
X34300512Y-11955524D01*
X34237153Y-11929280D01*
X34255982Y-11883822D01*
X34280200Y-11762069D01*
X34280200Y-11637931D01*
X34255982Y-11516178D01*
X34208476Y-11401488D01*
X34139508Y-11298271D01*
X34051729Y-11210492D01*
X33948512Y-11141524D01*
X33833822Y-11094018D01*
X33712069Y-11069800D01*
X33587931Y-11069800D01*
X33466178Y-11094018D01*
X33351488Y-11141524D01*
X33248271Y-11210492D01*
X33215963Y-11242800D01*
X33206420Y-11242800D01*
X33183970Y-11240589D01*
X33161520Y-11242800D01*
X33161511Y-11242800D01*
X33094344Y-11249415D01*
X33008162Y-11275559D01*
X32928735Y-11318013D01*
X32859118Y-11375147D01*
X32844801Y-11392592D01*
X30910594Y-13326800D01*
X29688449Y-13326800D01*
X29665999Y-13324589D01*
X29643549Y-13326800D01*
X29643540Y-13326800D01*
X29576373Y-13333415D01*
X29490191Y-13359559D01*
X29468659Y-13371068D01*
X29410763Y-13402013D01*
X29366998Y-13437931D01*
X29341147Y-13459147D01*
X29326830Y-13476592D01*
X26660623Y-16142800D01*
X20284037Y-16142800D01*
X20251729Y-16110492D01*
X20148512Y-16041524D01*
X20033822Y-15994018D01*
X19912069Y-15969800D01*
X19787931Y-15969800D01*
X19666178Y-15994018D01*
X19551488Y-16041524D01*
X19448271Y-16110492D01*
X19415963Y-16142800D01*
X19277540Y-16142800D01*
X19210373Y-16149415D01*
X19124191Y-16175559D01*
X19044764Y-16218013D01*
X18975147Y-16275147D01*
X18918013Y-16344764D01*
X18875559Y-16424191D01*
X18849415Y-16510373D01*
X18840588Y-16600000D01*
X-2128422Y-16600000D01*
X-3192800Y-15535623D01*
X-3192800Y-13437931D01*
X-880200Y-13437931D01*
X-880200Y-13562069D01*
X-855982Y-13683822D01*
X-808476Y-13798512D01*
X-739508Y-13901729D01*
X-651729Y-13989508D01*
X-548512Y-14058476D01*
X-433822Y-14105982D01*
X-312069Y-14130200D01*
X-187931Y-14130200D01*
X-66178Y-14105982D01*
X48512Y-14058476D01*
X151729Y-13989508D01*
X239508Y-13901729D01*
X308476Y-13798512D01*
X355982Y-13683822D01*
X380200Y-13562069D01*
X380200Y-13437931D01*
X355982Y-13316178D01*
X308476Y-13201488D01*
X239508Y-13098271D01*
X151729Y-13010492D01*
X143700Y-13005127D01*
X143700Y-12087931D01*
X319800Y-12087931D01*
X319800Y-12212069D01*
X344018Y-12333822D01*
X391524Y-12448512D01*
X460492Y-12551729D01*
X548271Y-12639508D01*
X651488Y-12708476D01*
X766178Y-12755982D01*
X887931Y-12780200D01*
X1012069Y-12780200D01*
X1133822Y-12755982D01*
X1248512Y-12708476D01*
X1351729Y-12639508D01*
X1439508Y-12551729D01*
X1508476Y-12448512D01*
X1555982Y-12333822D01*
X1580200Y-12212069D01*
X1580200Y-12187931D01*
X15369800Y-12187931D01*
X15369800Y-12312069D01*
X15394018Y-12433822D01*
X15441524Y-12548512D01*
X15510492Y-12651729D01*
X15598271Y-12739508D01*
X15701488Y-12808476D01*
X15816178Y-12855982D01*
X15937931Y-12880200D01*
X16062069Y-12880200D01*
X16183822Y-12855982D01*
X16298512Y-12808476D01*
X16401729Y-12739508D01*
X16489508Y-12651729D01*
X16558476Y-12548512D01*
X16605982Y-12433822D01*
X16630200Y-12312069D01*
X16630200Y-12187931D01*
X16628316Y-12178459D01*
X17218844Y-11587931D01*
X18219800Y-11587931D01*
X18219800Y-11712069D01*
X18244018Y-11833822D01*
X18291524Y-11948512D01*
X18360492Y-12051729D01*
X18448271Y-12139508D01*
X18551488Y-12208476D01*
X18666178Y-12255982D01*
X18787931Y-12280200D01*
X18912069Y-12280200D01*
X18921540Y-12278316D01*
X19157944Y-12514720D01*
X19170266Y-12529734D01*
X19185279Y-12542055D01*
X19185282Y-12542058D01*
X19221870Y-12572085D01*
X19230214Y-12578933D01*
X19298609Y-12615490D01*
X19372821Y-12638003D01*
X19430667Y-12643700D01*
X19430677Y-12643700D01*
X19449999Y-12645603D01*
X19469322Y-12643700D01*
X26664231Y-12643700D01*
X26564271Y-12710492D01*
X26476492Y-12798271D01*
X26471127Y-12806300D01*
X20819322Y-12806300D01*
X20799999Y-12804397D01*
X20780677Y-12806300D01*
X20780667Y-12806300D01*
X20722821Y-12811997D01*
X20648609Y-12834510D01*
X20617028Y-12851390D01*
X20580214Y-12871067D01*
X20535282Y-12907942D01*
X20535279Y-12907945D01*
X20520266Y-12920266D01*
X20507944Y-12935280D01*
X19446541Y-13996684D01*
X19437069Y-13994800D01*
X19312931Y-13994800D01*
X19191178Y-14019018D01*
X19076488Y-14066524D01*
X18973271Y-14135492D01*
X18885492Y-14223271D01*
X18816524Y-14326488D01*
X18769018Y-14441178D01*
X18744800Y-14562931D01*
X18744800Y-14687069D01*
X18769018Y-14808822D01*
X18816524Y-14923512D01*
X18885492Y-15026729D01*
X18973271Y-15114508D01*
X19076488Y-15183476D01*
X19191178Y-15230982D01*
X19312931Y-15255200D01*
X19437069Y-15255200D01*
X19558822Y-15230982D01*
X19673512Y-15183476D01*
X19776729Y-15114508D01*
X19864508Y-15026729D01*
X19933476Y-14923512D01*
X19980982Y-14808822D01*
X20005200Y-14687069D01*
X20005200Y-14562931D01*
X20003316Y-14553459D01*
X20963076Y-13593700D01*
X26471127Y-13593700D01*
X26476492Y-13601729D01*
X26564271Y-13689508D01*
X26667488Y-13758476D01*
X26782178Y-13805982D01*
X26869811Y-13823413D01*
X26686925Y-14006300D01*
X22431180Y-14006300D01*
X22408476Y-13951488D01*
X22339508Y-13848271D01*
X22251729Y-13760492D01*
X22148512Y-13691524D01*
X22033822Y-13644018D01*
X21912069Y-13619800D01*
X21787931Y-13619800D01*
X21666178Y-13644018D01*
X21551488Y-13691524D01*
X21448271Y-13760492D01*
X21360492Y-13848271D01*
X21291524Y-13951488D01*
X21244018Y-14066178D01*
X21219800Y-14187931D01*
X21219800Y-14312069D01*
X21244018Y-14433822D01*
X21291524Y-14548512D01*
X21360492Y-14651729D01*
X21448271Y-14739508D01*
X21551488Y-14808476D01*
X21666178Y-14855982D01*
X21787931Y-14880200D01*
X21912069Y-14880200D01*
X22033822Y-14855982D01*
X22148512Y-14808476D01*
X22170626Y-14793700D01*
X26830678Y-14793700D01*
X26850000Y-14795603D01*
X26869322Y-14793700D01*
X26869333Y-14793700D01*
X26927179Y-14788003D01*
X27001391Y-14765490D01*
X27069786Y-14728933D01*
X27129734Y-14679734D01*
X27142060Y-14664715D01*
X27478459Y-14328316D01*
X27487931Y-14330200D01*
X27612069Y-14330200D01*
X27733822Y-14305982D01*
X27848512Y-14258476D01*
X27951729Y-14189508D01*
X28039508Y-14101729D01*
X28108476Y-13998512D01*
X28155982Y-13883822D01*
X28180200Y-13762069D01*
X28180200Y-13637931D01*
X28155982Y-13516178D01*
X28108476Y-13401488D01*
X28039508Y-13298271D01*
X27951729Y-13210492D01*
X27936027Y-13200000D01*
X27951729Y-13189508D01*
X28039508Y-13101729D01*
X28108476Y-12998512D01*
X28155982Y-12883822D01*
X28180200Y-12762069D01*
X28180200Y-12637931D01*
X28155982Y-12516178D01*
X28108476Y-12401488D01*
X28039508Y-12298271D01*
X27951729Y-12210492D01*
X27848512Y-12141524D01*
X27733822Y-12094018D01*
X27612069Y-12069800D01*
X27487931Y-12069800D01*
X27478459Y-12071684D01*
X27392058Y-11985283D01*
X27379734Y-11970266D01*
X27319786Y-11921067D01*
X27251391Y-11884510D01*
X27177179Y-11861997D01*
X27119333Y-11856300D01*
X27119322Y-11856300D01*
X27100000Y-11854397D01*
X27080678Y-11856300D01*
X19613076Y-11856300D01*
X19478316Y-11721540D01*
X19480200Y-11712069D01*
X19480200Y-11587931D01*
X19455982Y-11466178D01*
X19408476Y-11351488D01*
X19339508Y-11248271D01*
X19251729Y-11160492D01*
X19148512Y-11091524D01*
X19033822Y-11044018D01*
X18912069Y-11019800D01*
X18787931Y-11019800D01*
X18666178Y-11044018D01*
X18551488Y-11091524D01*
X18448271Y-11160492D01*
X18360492Y-11248271D01*
X18291524Y-11351488D01*
X18244018Y-11466178D01*
X18219800Y-11587931D01*
X17218844Y-11587931D01*
X19413076Y-9393700D01*
X24517627Y-9393700D01*
X24522992Y-9401729D01*
X24610771Y-9489508D01*
X24713988Y-9558476D01*
X24828678Y-9605982D01*
X24950431Y-9630200D01*
X25074569Y-9630200D01*
X25196322Y-9605982D01*
X25311012Y-9558476D01*
X25414229Y-9489508D01*
X25502008Y-9401729D01*
X25570976Y-9298512D01*
X25618482Y-9183822D01*
X25642700Y-9062069D01*
X25642700Y-8937931D01*
X25618482Y-8816178D01*
X25570976Y-8701488D01*
X25502008Y-8598271D01*
X25414229Y-8510492D01*
X25311012Y-8441524D01*
X25196322Y-8394018D01*
X25074569Y-8369800D01*
X24950431Y-8369800D01*
X24828678Y-8394018D01*
X24713988Y-8441524D01*
X24610771Y-8510492D01*
X24522992Y-8598271D01*
X24517627Y-8606300D01*
X19269322Y-8606300D01*
X19249999Y-8604397D01*
X19230677Y-8606300D01*
X19230667Y-8606300D01*
X19172821Y-8611997D01*
X19098609Y-8634510D01*
X19030214Y-8671067D01*
X18985282Y-8707942D01*
X18985279Y-8707945D01*
X18970266Y-8720266D01*
X18957944Y-8735280D01*
X16071541Y-11621684D01*
X16062069Y-11619800D01*
X15937931Y-11619800D01*
X15816178Y-11644018D01*
X15701488Y-11691524D01*
X15598271Y-11760492D01*
X15510492Y-11848271D01*
X15441524Y-11951488D01*
X15394018Y-12066178D01*
X15369800Y-12187931D01*
X1580200Y-12187931D01*
X1580200Y-12087931D01*
X1578733Y-12080556D01*
X1579734Y-12079734D01*
X1628933Y-12019786D01*
X1665490Y-11951391D01*
X1688003Y-11877179D01*
X1693700Y-11819333D01*
X1693700Y-11819325D01*
X1695603Y-11800000D01*
X1693700Y-11780675D01*
X1693700Y-8887931D01*
X11519800Y-8887931D01*
X11519800Y-9012069D01*
X11544018Y-9133822D01*
X11591524Y-9248512D01*
X11660492Y-9351729D01*
X11748271Y-9439508D01*
X11851488Y-9508476D01*
X11966178Y-9555982D01*
X12087931Y-9580200D01*
X12212069Y-9580200D01*
X12333822Y-9555982D01*
X12448512Y-9508476D01*
X12551729Y-9439508D01*
X12639508Y-9351729D01*
X12708476Y-9248512D01*
X12755982Y-9133822D01*
X12780200Y-9012069D01*
X12780200Y-8887931D01*
X12778316Y-8878459D01*
X13768842Y-7887933D01*
X21119802Y-7887933D01*
X21119802Y-8012071D01*
X21144020Y-8133824D01*
X21191526Y-8248514D01*
X21260494Y-8351731D01*
X21348273Y-8439510D01*
X21451490Y-8508478D01*
X21566180Y-8555984D01*
X21687933Y-8580202D01*
X21812071Y-8580202D01*
X21933824Y-8555984D01*
X22048514Y-8508478D01*
X22151731Y-8439510D01*
X22239510Y-8351731D01*
X22248487Y-8338296D01*
X22251445Y-8338005D01*
X22325657Y-8315492D01*
X22366428Y-8293700D01*
X25286925Y-8293700D01*
X25785282Y-8792058D01*
X25785287Y-8792062D01*
X26956301Y-9963077D01*
X26956300Y-10555127D01*
X26948271Y-10560492D01*
X26860492Y-10648271D01*
X26791524Y-10751488D01*
X26744018Y-10866178D01*
X26719800Y-10987931D01*
X26719800Y-11112069D01*
X26744018Y-11233822D01*
X26791524Y-11348512D01*
X26860492Y-11451729D01*
X26948271Y-11539508D01*
X27051488Y-11608476D01*
X27166178Y-11655982D01*
X27287931Y-11680200D01*
X27412069Y-11680200D01*
X27533822Y-11655982D01*
X27648512Y-11608476D01*
X27751729Y-11539508D01*
X27839508Y-11451729D01*
X27908476Y-11348512D01*
X27955982Y-11233822D01*
X27980200Y-11112069D01*
X27980200Y-10987931D01*
X27955982Y-10866178D01*
X27908476Y-10751488D01*
X27839508Y-10648271D01*
X27751729Y-10560492D01*
X27743700Y-10555127D01*
X27743700Y-9819325D01*
X27745603Y-9800000D01*
X27743700Y-9780675D01*
X27743700Y-9780667D01*
X27738003Y-9722821D01*
X27715490Y-9648609D01*
X27678933Y-9580214D01*
X27659046Y-9555982D01*
X27642058Y-9535282D01*
X27642055Y-9535279D01*
X27629734Y-9520266D01*
X27614720Y-9507944D01*
X27294707Y-9187931D01*
X30069800Y-9187931D01*
X30069800Y-9312069D01*
X30094018Y-9433822D01*
X30141524Y-9548512D01*
X30210492Y-9651729D01*
X30298271Y-9739508D01*
X30401488Y-9808476D01*
X30516178Y-9855982D01*
X30637931Y-9880200D01*
X30762069Y-9880200D01*
X30883822Y-9855982D01*
X30998512Y-9808476D01*
X31101729Y-9739508D01*
X31134037Y-9707200D01*
X38676623Y-9707200D01*
X39213800Y-10244378D01*
X39213800Y-10290069D01*
X39238018Y-10411822D01*
X39285524Y-10526512D01*
X39354492Y-10629729D01*
X39442271Y-10717508D01*
X39545488Y-10786476D01*
X39660178Y-10833982D01*
X39781931Y-10858200D01*
X39906069Y-10858200D01*
X40027822Y-10833982D01*
X40142512Y-10786476D01*
X40245729Y-10717508D01*
X40333508Y-10629729D01*
X40402476Y-10526512D01*
X40449982Y-10411822D01*
X40474200Y-10290069D01*
X40474200Y-10165931D01*
X40449982Y-10044178D01*
X40402476Y-9929488D01*
X40333508Y-9826271D01*
X40245729Y-9738492D01*
X40142512Y-9669524D01*
X40027822Y-9622018D01*
X39906069Y-9597800D01*
X39860378Y-9597800D01*
X39167173Y-8904596D01*
X39152853Y-8887147D01*
X39083235Y-8830013D01*
X39003809Y-8787560D01*
X38917626Y-8761416D01*
X38908244Y-8760492D01*
X38828000Y-8752589D01*
X38827999Y-8752589D01*
X38747756Y-8760492D01*
X38738374Y-8761416D01*
X38652191Y-8787560D01*
X38642387Y-8792800D01*
X31134037Y-8792800D01*
X31101729Y-8760492D01*
X30998512Y-8691524D01*
X30883822Y-8644018D01*
X30762069Y-8619800D01*
X30637931Y-8619800D01*
X30516178Y-8644018D01*
X30401488Y-8691524D01*
X30298271Y-8760492D01*
X30210492Y-8848271D01*
X30141524Y-8951488D01*
X30094018Y-9066178D01*
X30069800Y-9187931D01*
X27294707Y-9187931D01*
X26342062Y-8235287D01*
X26342058Y-8235282D01*
X25742060Y-7635285D01*
X25729734Y-7620266D01*
X25669786Y-7571067D01*
X25601391Y-7534510D01*
X25527179Y-7511997D01*
X25469333Y-7506300D01*
X25469322Y-7506300D01*
X25450000Y-7504397D01*
X25430678Y-7506300D01*
X22243597Y-7506300D01*
X22224264Y-7504396D01*
X22204931Y-7506300D01*
X22198200Y-7506963D01*
X22151731Y-7460494D01*
X22048514Y-7391526D01*
X21933824Y-7344020D01*
X21812071Y-7319802D01*
X21687933Y-7319802D01*
X21566180Y-7344020D01*
X21451490Y-7391526D01*
X21348273Y-7460494D01*
X21260494Y-7548273D01*
X21191526Y-7651490D01*
X21144020Y-7766180D01*
X21119802Y-7887933D01*
X13768842Y-7887933D01*
X14513076Y-7143700D01*
X23980678Y-7143700D01*
X23988351Y-7144456D01*
X24016178Y-7155982D01*
X24137931Y-7180200D01*
X24262069Y-7180200D01*
X24383822Y-7155982D01*
X24498512Y-7108476D01*
X24601729Y-7039508D01*
X24689508Y-6951729D01*
X24758476Y-6848512D01*
X24805982Y-6733822D01*
X24830200Y-6612069D01*
X24830200Y-6487931D01*
X24805982Y-6366178D01*
X24758476Y-6251488D01*
X24689508Y-6148271D01*
X24601729Y-6060492D01*
X24498512Y-5991524D01*
X24383822Y-5944018D01*
X24262069Y-5919800D01*
X24137931Y-5919800D01*
X24016178Y-5944018D01*
X23901488Y-5991524D01*
X23798271Y-6060492D01*
X23710492Y-6148271D01*
X23641524Y-6251488D01*
X23598110Y-6356300D01*
X14369325Y-6356300D01*
X14350000Y-6354397D01*
X14330675Y-6356300D01*
X14330667Y-6356300D01*
X14272821Y-6361997D01*
X14198609Y-6384510D01*
X14130214Y-6421067D01*
X14085282Y-6457942D01*
X14085279Y-6457945D01*
X14070266Y-6470266D01*
X14057944Y-6485280D01*
X12221541Y-8321684D01*
X12212069Y-8319800D01*
X12087931Y-8319800D01*
X11966178Y-8344018D01*
X11851488Y-8391524D01*
X11748271Y-8460492D01*
X11660492Y-8548271D01*
X11591524Y-8651488D01*
X11544018Y-8766178D01*
X11519800Y-8887931D01*
X1693700Y-8887931D01*
X1693700Y-7413075D01*
X3618832Y-5487943D01*
X15419800Y-5487943D01*
X15419800Y-5612081D01*
X15444018Y-5733834D01*
X15491524Y-5848524D01*
X15560492Y-5951741D01*
X15648271Y-6039520D01*
X15751488Y-6108488D01*
X15866178Y-6155994D01*
X15987931Y-6180212D01*
X16112069Y-6180212D01*
X16233822Y-6155994D01*
X16348512Y-6108488D01*
X16451729Y-6039520D01*
X16539508Y-5951741D01*
X16608476Y-5848524D01*
X16655982Y-5733834D01*
X16663965Y-5693700D01*
X21555127Y-5693700D01*
X21560492Y-5701729D01*
X21648271Y-5789508D01*
X21751488Y-5858476D01*
X21866178Y-5905982D01*
X21987931Y-5930200D01*
X22112069Y-5930200D01*
X22233822Y-5905982D01*
X22348512Y-5858476D01*
X22451729Y-5789508D01*
X22539508Y-5701729D01*
X22608476Y-5598512D01*
X22655982Y-5483822D01*
X22680200Y-5362069D01*
X22680200Y-5237931D01*
X22655982Y-5116178D01*
X22608476Y-5001488D01*
X22539508Y-4898271D01*
X22451729Y-4810492D01*
X22348512Y-4741524D01*
X22233822Y-4694018D01*
X22112069Y-4669800D01*
X21987931Y-4669800D01*
X21866178Y-4694018D01*
X21751488Y-4741524D01*
X21648271Y-4810492D01*
X21560492Y-4898271D01*
X21555127Y-4906300D01*
X16319334Y-4906300D01*
X16300011Y-4904397D01*
X16280689Y-4906300D01*
X16280679Y-4906300D01*
X16222833Y-4911997D01*
X16163409Y-4930024D01*
X16112069Y-4919812D01*
X15987931Y-4919812D01*
X15866178Y-4944030D01*
X15751488Y-4991536D01*
X15648271Y-5060504D01*
X15560492Y-5148283D01*
X15491524Y-5251500D01*
X15444018Y-5366190D01*
X15419800Y-5487943D01*
X3618832Y-5487943D01*
X4763076Y-4343700D01*
X23212661Y-4343700D01*
X23883680Y-5014720D01*
X23896002Y-5029734D01*
X23911015Y-5042055D01*
X23911018Y-5042058D01*
X23955950Y-5078933D01*
X24024345Y-5115490D01*
X24098557Y-5138003D01*
X24101515Y-5138294D01*
X24110492Y-5151729D01*
X24198271Y-5239508D01*
X24301488Y-5308476D01*
X24416178Y-5355982D01*
X24537931Y-5380200D01*
X24662069Y-5380200D01*
X24783822Y-5355982D01*
X24898512Y-5308476D01*
X25001729Y-5239508D01*
X25089508Y-5151729D01*
X25158476Y-5048512D01*
X25205982Y-4933822D01*
X25230200Y-4812069D01*
X25230200Y-4687931D01*
X25205982Y-4566178D01*
X25158476Y-4451488D01*
X25089508Y-4348271D01*
X25001729Y-4260492D01*
X24898512Y-4191524D01*
X24783822Y-4144018D01*
X24662069Y-4119800D01*
X24537931Y-4119800D01*
X24416178Y-4144018D01*
X24301488Y-4191524D01*
X24225086Y-4242574D01*
X23667796Y-3685285D01*
X23655470Y-3670266D01*
X23595522Y-3621067D01*
X23527127Y-3584510D01*
X23452915Y-3561997D01*
X23395069Y-3556300D01*
X23395058Y-3556300D01*
X23375736Y-3554397D01*
X23356414Y-3556300D01*
X4619325Y-3556300D01*
X4600000Y-3554397D01*
X4580675Y-3556300D01*
X4580667Y-3556300D01*
X4523115Y-3561968D01*
X4522821Y-3561997D01*
X4448609Y-3584510D01*
X4380214Y-3621067D01*
X4335282Y-3657942D01*
X4335279Y-3657945D01*
X4320266Y-3670266D01*
X4307944Y-3685280D01*
X1035285Y-6957940D01*
X1020266Y-6970266D01*
X971067Y-7030215D01*
X934510Y-7098610D01*
X911997Y-7172822D01*
X906300Y-7230668D01*
X906300Y-7230678D01*
X904397Y-7250000D01*
X906300Y-7269323D01*
X906301Y-11519800D01*
X887931Y-11519800D01*
X766178Y-11544018D01*
X651488Y-11591524D01*
X548271Y-11660492D01*
X460492Y-11748271D01*
X391524Y-11851488D01*
X344018Y-11966178D01*
X319800Y-12087931D01*
X143700Y-12087931D01*
X143700Y-6613075D01*
X4513076Y-2243700D01*
X23762661Y-2243700D01*
X25383680Y-3864720D01*
X25396002Y-3879734D01*
X25411015Y-3892055D01*
X25411018Y-3892058D01*
X25455950Y-3928933D01*
X25524345Y-3965490D01*
X25598557Y-3988003D01*
X25601515Y-3988294D01*
X25610492Y-4001729D01*
X25698271Y-4089508D01*
X25801488Y-4158476D01*
X25916178Y-4205982D01*
X26037931Y-4230200D01*
X26162069Y-4230200D01*
X26283822Y-4205982D01*
X26398512Y-4158476D01*
X26501729Y-4089508D01*
X26540440Y-4050797D01*
X34919800Y-4050797D01*
X34919800Y-4549203D01*
X35017034Y-5038032D01*
X35207765Y-5498499D01*
X35484665Y-5912909D01*
X35837091Y-6265335D01*
X36251501Y-6542235D01*
X36711968Y-6732966D01*
X37200797Y-6830200D01*
X37699203Y-6830200D01*
X38188032Y-6732966D01*
X38648499Y-6542235D01*
X39062909Y-6265335D01*
X39415335Y-5912909D01*
X39692235Y-5498499D01*
X39882966Y-5038032D01*
X39980200Y-4549203D01*
X39980200Y-4050797D01*
X39882966Y-3561968D01*
X39692235Y-3101501D01*
X39415335Y-2687091D01*
X39062909Y-2334665D01*
X38648499Y-2057765D01*
X38188032Y-1867034D01*
X37699203Y-1769800D01*
X37200797Y-1769800D01*
X36711968Y-1867034D01*
X36251501Y-2057765D01*
X35837091Y-2334665D01*
X35484665Y-2687091D01*
X35207765Y-3101501D01*
X35017034Y-3561968D01*
X34919800Y-4050797D01*
X26540440Y-4050797D01*
X26589508Y-4001729D01*
X26658476Y-3898512D01*
X26705982Y-3783822D01*
X26730200Y-3662069D01*
X26730200Y-3537931D01*
X26705982Y-3416178D01*
X26658476Y-3301488D01*
X26589508Y-3198271D01*
X26501729Y-3110492D01*
X26398512Y-3041524D01*
X26283822Y-2994018D01*
X26162069Y-2969800D01*
X26037931Y-2969800D01*
X25916178Y-2994018D01*
X25801488Y-3041524D01*
X25725086Y-3092574D01*
X24217796Y-1585285D01*
X24205470Y-1570266D01*
X24145522Y-1521067D01*
X24077127Y-1484510D01*
X24002915Y-1461997D01*
X23945069Y-1456300D01*
X23945058Y-1456300D01*
X23925736Y-1454397D01*
X23906414Y-1456300D01*
X4369322Y-1456300D01*
X4349999Y-1454397D01*
X4330677Y-1456300D01*
X4330667Y-1456300D01*
X4272821Y-1461997D01*
X4198609Y-1484510D01*
X4166770Y-1501528D01*
X4130213Y-1521067D01*
X4085282Y-1557942D01*
X4085279Y-1557945D01*
X4070266Y-1570266D01*
X4057944Y-1585280D01*
X-514715Y-6157940D01*
X-529734Y-6170266D01*
X-578933Y-6230215D01*
X-615490Y-6298610D01*
X-638003Y-6372822D01*
X-643700Y-6430668D01*
X-643700Y-6430678D01*
X-645603Y-6450000D01*
X-643700Y-6469322D01*
X-643699Y-13005127D01*
X-651729Y-13010492D01*
X-739508Y-13098271D01*
X-808476Y-13201488D01*
X-855982Y-13316178D01*
X-880200Y-13437931D01*
X-3192800Y-13437931D01*
X-3192800Y-11897449D01*
X-3190589Y-11874999D01*
X-3192800Y-11852549D01*
X-3192800Y-11852540D01*
X-3199415Y-11785373D01*
X-3225559Y-11699191D01*
X-3256382Y-11641524D01*
X-3268013Y-11619763D01*
X-3310830Y-11567592D01*
X-3325147Y-11550147D01*
X-3342592Y-11535830D01*
X-5917801Y-8960622D01*
X-5917801Y-8247449D01*
X-5915590Y-8224999D01*
X-5917801Y-8202549D01*
X-5917801Y-8202539D01*
X-5924416Y-8135372D01*
X-5944475Y-8069248D01*
X-5950560Y-8049189D01*
X-5993014Y-7969763D01*
X-6035830Y-7917592D01*
X-6035831Y-7917591D01*
X-6044800Y-7906662D01*
X-6044800Y-7862931D01*
X-6069018Y-7741178D01*
X-6116524Y-7626488D01*
X-6185492Y-7523271D01*
X-6273271Y-7435492D01*
X-6376488Y-7366524D01*
X-6491178Y-7319018D01*
X-6612931Y-7294800D01*
X-6737069Y-7294800D01*
X-6858822Y-7319018D01*
X-6973512Y-7366524D01*
X-7076729Y-7435492D01*
X-7164508Y-7523271D01*
X-7233476Y-7626488D01*
X-7280982Y-7741178D01*
X-7305200Y-7862931D01*
X-7719800Y-7862931D01*
X-7719800Y-727000D01*
X20050000Y-727000D01*
X20075330Y-724448D01*
X20099122Y-717116D01*
X20121026Y-705282D01*
X20140201Y-689403D01*
X20155909Y-670087D01*
X20167548Y-648079D01*
X20174669Y-624223D01*
X20176999Y-599436D01*
X20161548Y2877109D01*
X23162519Y2877109D01*
X23259843Y2602748D01*
X23408822Y2352645D01*
X23603731Y2136412D01*
X23837080Y1962359D01*
X24099901Y1837175D01*
X24203786Y1805665D01*
X24044966Y1739879D01*
X23851667Y1610721D01*
X23687279Y1446333D01*
X23558121Y1253034D01*
X23469155Y1038252D01*
X23423800Y810240D01*
X23423800Y577760D01*
X23469155Y349748D01*
X23558121Y134966D01*
X23687279Y-58333D01*
X23851667Y-222721D01*
X24044966Y-351879D01*
X24259748Y-440845D01*
X24487760Y-486200D01*
X24720240Y-486200D01*
X24948252Y-440845D01*
X25163034Y-351879D01*
X25356333Y-222721D01*
X25520721Y-58333D01*
X25649879Y134966D01*
X25738845Y349748D01*
X25784200Y577760D01*
X25784200Y810240D01*
X25963800Y810240D01*
X25963800Y577760D01*
X26009155Y349748D01*
X26098121Y134966D01*
X26227279Y-58333D01*
X26391667Y-222721D01*
X26584966Y-351879D01*
X26799748Y-440845D01*
X27027760Y-486200D01*
X27260240Y-486200D01*
X27488252Y-440845D01*
X27703034Y-351879D01*
X27896333Y-222721D01*
X28060721Y-58333D01*
X28189879Y134966D01*
X28278845Y349748D01*
X28324200Y577760D01*
X28324200Y810240D01*
X28503800Y810240D01*
X28503800Y577760D01*
X28549155Y349748D01*
X28638121Y134966D01*
X28767279Y-58333D01*
X28931667Y-222721D01*
X29124966Y-351879D01*
X29339748Y-440845D01*
X29567760Y-486200D01*
X29800240Y-486200D01*
X30028252Y-440845D01*
X30243034Y-351879D01*
X30436333Y-222721D01*
X30600721Y-58333D01*
X30729879Y134966D01*
X30818845Y349748D01*
X30864200Y577760D01*
X30864200Y810240D01*
X31043800Y810240D01*
X31043800Y577760D01*
X31089155Y349748D01*
X31178121Y134966D01*
X31307279Y-58333D01*
X31471667Y-222721D01*
X31664966Y-351879D01*
X31879748Y-440845D01*
X32107760Y-486200D01*
X32340240Y-486200D01*
X32568252Y-440845D01*
X32783034Y-351879D01*
X32976333Y-222721D01*
X33140721Y-58333D01*
X33269879Y134966D01*
X33358845Y349748D01*
X33404200Y577760D01*
X33404200Y810240D01*
X33358845Y1038252D01*
X33269879Y1253034D01*
X33140721Y1446333D01*
X33043054Y1544000D01*
X33582203Y1544000D01*
X33582203Y-156000D01*
X33588578Y-220730D01*
X33607460Y-282973D01*
X33638121Y-340337D01*
X33679384Y-390616D01*
X33729663Y-431879D01*
X33787027Y-462540D01*
X33849270Y-481422D01*
X33914000Y-487797D01*
X35614000Y-487797D01*
X35678730Y-481422D01*
X35740973Y-462540D01*
X35798337Y-431879D01*
X35848616Y-390616D01*
X35889879Y-340337D01*
X35920540Y-282973D01*
X35939422Y-220730D01*
X35945797Y-156000D01*
X35945797Y1544000D01*
X35939422Y1608730D01*
X35920540Y1670973D01*
X35889879Y1728337D01*
X35848616Y1778616D01*
X35798337Y1819879D01*
X35740973Y1850540D01*
X35678730Y1869422D01*
X35614000Y1875797D01*
X33914000Y1875797D01*
X33849270Y1869422D01*
X33787027Y1850540D01*
X33729663Y1819879D01*
X33679384Y1778616D01*
X33638121Y1728337D01*
X33607460Y1670973D01*
X33588578Y1608730D01*
X33582203Y1544000D01*
X33043054Y1544000D01*
X32976333Y1610721D01*
X32783034Y1739879D01*
X32568252Y1828845D01*
X32340240Y1874200D01*
X32107760Y1874200D01*
X31879748Y1828845D01*
X31664966Y1739879D01*
X31471667Y1610721D01*
X31307279Y1446333D01*
X31178121Y1253034D01*
X31089155Y1038252D01*
X31043800Y810240D01*
X30864200Y810240D01*
X30818845Y1038252D01*
X30729879Y1253034D01*
X30600721Y1446333D01*
X30436333Y1610721D01*
X30243034Y1739879D01*
X30028252Y1828845D01*
X29800240Y1874200D01*
X29567760Y1874200D01*
X29339748Y1828845D01*
X29124966Y1739879D01*
X28931667Y1610721D01*
X28767279Y1446333D01*
X28638121Y1253034D01*
X28549155Y1038252D01*
X28503800Y810240D01*
X28324200Y810240D01*
X28278845Y1038252D01*
X28189879Y1253034D01*
X28060721Y1446333D01*
X27896333Y1610721D01*
X27703034Y1739879D01*
X27488252Y1828845D01*
X27260240Y1874200D01*
X27027760Y1874200D01*
X26799748Y1828845D01*
X26584966Y1739879D01*
X26391667Y1610721D01*
X26227279Y1446333D01*
X26098121Y1253034D01*
X26009155Y1038252D01*
X25963800Y810240D01*
X25784200Y810240D01*
X25738845Y1038252D01*
X25649879Y1253034D01*
X25520721Y1446333D01*
X25356333Y1610721D01*
X25163034Y1739879D01*
X25004214Y1805665D01*
X25108099Y1837175D01*
X25370920Y1962359D01*
X25604269Y2136412D01*
X25799178Y2352645D01*
X25948157Y2602748D01*
X26031138Y2836676D01*
X26098121Y2674966D01*
X26227279Y2481667D01*
X26391667Y2317279D01*
X26584966Y2188121D01*
X26799748Y2099155D01*
X27027760Y2053800D01*
X27260240Y2053800D01*
X27488252Y2099155D01*
X27703034Y2188121D01*
X27896333Y2317279D01*
X28060721Y2481667D01*
X28189879Y2674966D01*
X28278845Y2889748D01*
X28324200Y3117760D01*
X28324200Y3350240D01*
X28503800Y3350240D01*
X28503800Y3117760D01*
X28549155Y2889748D01*
X28638121Y2674966D01*
X28767279Y2481667D01*
X28931667Y2317279D01*
X29124966Y2188121D01*
X29339748Y2099155D01*
X29567760Y2053800D01*
X29800240Y2053800D01*
X30028252Y2099155D01*
X30243034Y2188121D01*
X30436333Y2317279D01*
X30600721Y2481667D01*
X30729879Y2674966D01*
X30818845Y2889748D01*
X30864200Y3117760D01*
X30864200Y3350240D01*
X31043800Y3350240D01*
X31043800Y3117760D01*
X31089155Y2889748D01*
X31178121Y2674966D01*
X31307279Y2481667D01*
X31471667Y2317279D01*
X31664966Y2188121D01*
X31879748Y2099155D01*
X32107760Y2053800D01*
X32340240Y2053800D01*
X32568252Y2099155D01*
X32783034Y2188121D01*
X32976333Y2317279D01*
X33140721Y2481667D01*
X33269879Y2674966D01*
X33358845Y2889748D01*
X33404200Y3117760D01*
X33404200Y3350240D01*
X33583800Y3350240D01*
X33583800Y3117760D01*
X33629155Y2889748D01*
X33718121Y2674966D01*
X33847279Y2481667D01*
X34011667Y2317279D01*
X34204966Y2188121D01*
X34419748Y2099155D01*
X34647760Y2053800D01*
X34880240Y2053800D01*
X35108252Y2099155D01*
X35323034Y2188121D01*
X35516333Y2317279D01*
X35680721Y2481667D01*
X35809879Y2674966D01*
X35898845Y2889748D01*
X35944200Y3117760D01*
X35944200Y3350240D01*
X35898845Y3578252D01*
X35809879Y3793034D01*
X35680721Y3986333D01*
X35516333Y4150721D01*
X35323034Y4279879D01*
X35108252Y4368845D01*
X34880240Y4414200D01*
X34647760Y4414200D01*
X34419748Y4368845D01*
X34204966Y4279879D01*
X34011667Y4150721D01*
X33847279Y3986333D01*
X33718121Y3793034D01*
X33629155Y3578252D01*
X33583800Y3350240D01*
X33404200Y3350240D01*
X33358845Y3578252D01*
X33269879Y3793034D01*
X33140721Y3986333D01*
X32976333Y4150721D01*
X32783034Y4279879D01*
X32568252Y4368845D01*
X32340240Y4414200D01*
X32107760Y4414200D01*
X31879748Y4368845D01*
X31664966Y4279879D01*
X31471667Y4150721D01*
X31307279Y3986333D01*
X31178121Y3793034D01*
X31089155Y3578252D01*
X31043800Y3350240D01*
X30864200Y3350240D01*
X30818845Y3578252D01*
X30729879Y3793034D01*
X30600721Y3986333D01*
X30436333Y4150721D01*
X30243034Y4279879D01*
X30028252Y4368845D01*
X29800240Y4414200D01*
X29567760Y4414200D01*
X29339748Y4368845D01*
X29124966Y4279879D01*
X28931667Y4150721D01*
X28767279Y3986333D01*
X28638121Y3793034D01*
X28549155Y3578252D01*
X28503800Y3350240D01*
X28324200Y3350240D01*
X28278845Y3578252D01*
X28189879Y3793034D01*
X28060721Y3986333D01*
X27896333Y4150721D01*
X27703034Y4279879D01*
X27488252Y4368845D01*
X27260240Y4414200D01*
X27027760Y4414200D01*
X26799748Y4368845D01*
X26584966Y4279879D01*
X26391667Y4150721D01*
X26227279Y3986333D01*
X26098121Y3793034D01*
X26031138Y3631324D01*
X25948157Y3865252D01*
X25799178Y4115355D01*
X25604269Y4331588D01*
X25370920Y4505641D01*
X25108099Y4630825D01*
X24960890Y4675476D01*
X24731000Y4554155D01*
X24731000Y3361000D01*
X24751000Y3361000D01*
X24751000Y3107000D01*
X24731000Y3107000D01*
X24731000Y3087000D01*
X24477000Y3087000D01*
X24477000Y3107000D01*
X23283186Y3107000D01*
X23162519Y2877109D01*
X20161548Y2877109D01*
X20158376Y3590891D01*
X23162519Y3590891D01*
X23283186Y3361000D01*
X24477000Y3361000D01*
X24477000Y4554155D01*
X24247110Y4675476D01*
X24099901Y4630825D01*
X23837080Y4505641D01*
X23603731Y4331588D01*
X23408822Y4115355D01*
X23259843Y3865252D01*
X23162519Y3590891D01*
X20158376Y3590891D01*
X20148914Y5719800D01*
X40519800Y5719800D01*
X40519801Y-41519800D01*
M02*
