G04 #@! TF.GenerationSoftware,KiCad,Pcbnew,(5.1.5)-3*
G04 #@! TF.CreationDate,2020-08-13T18:58:06-07:00*
G04 #@! TF.ProjectId,EsperDNS,45737065-7244-44e5-932e-6b696361645f,rev?*
G04 #@! TF.SameCoordinates,Original*
G04 #@! TF.FileFunction,Soldermask,Bot*
G04 #@! TF.FilePolarity,Negative*
%FSLAX46Y46*%
G04 Gerber Fmt 4.6, Leading zero omitted, Abs format (unit mm)*
G04 Created by KiCad (PCBNEW (5.1.5)-3) date 2020-08-13 18:58:06*
%MOMM*%
%LPD*%
G04 APERTURE LIST*
%ADD10C,0.100000*%
G04 APERTURE END LIST*
D10*
G36*
X180998017Y-109415358D02*
G01*
X181072270Y-109446115D01*
X181146521Y-109476870D01*
X181146522Y-109476871D01*
X181280167Y-109566169D01*
X181393831Y-109679833D01*
X181460804Y-109780067D01*
X181483130Y-109813479D01*
X181544642Y-109961983D01*
X181576000Y-110119630D01*
X181576000Y-110280370D01*
X181544642Y-110438017D01*
X181483130Y-110586521D01*
X181483129Y-110586522D01*
X181393831Y-110720167D01*
X181280167Y-110833831D01*
X181179933Y-110900804D01*
X181146521Y-110923130D01*
X181072270Y-110953885D01*
X180998017Y-110984642D01*
X180840370Y-111016000D01*
X180679630Y-111016000D01*
X180521983Y-110984642D01*
X180447730Y-110953885D01*
X180373479Y-110923130D01*
X180340067Y-110900804D01*
X180239833Y-110833831D01*
X180126169Y-110720167D01*
X180036871Y-110586522D01*
X180036870Y-110586521D01*
X179975358Y-110438017D01*
X179944000Y-110280370D01*
X179944000Y-110119630D01*
X179975358Y-109961983D01*
X180036870Y-109813479D01*
X180059196Y-109780067D01*
X180126169Y-109679833D01*
X180239833Y-109566169D01*
X180373478Y-109476871D01*
X180373479Y-109476870D01*
X180447730Y-109446115D01*
X180521983Y-109415358D01*
X180679630Y-109384000D01*
X180840370Y-109384000D01*
X180998017Y-109415358D01*
G37*
G36*
X170798017Y-109415358D02*
G01*
X170872270Y-109446115D01*
X170946521Y-109476870D01*
X170946522Y-109476871D01*
X171080167Y-109566169D01*
X171193831Y-109679833D01*
X171260804Y-109780067D01*
X171283130Y-109813479D01*
X171344642Y-109961983D01*
X171376000Y-110119630D01*
X171376000Y-110280370D01*
X171344642Y-110438017D01*
X171283130Y-110586521D01*
X171283129Y-110586522D01*
X171193831Y-110720167D01*
X171080167Y-110833831D01*
X170979933Y-110900804D01*
X170946521Y-110923130D01*
X170872270Y-110953885D01*
X170798017Y-110984642D01*
X170640370Y-111016000D01*
X170479630Y-111016000D01*
X170321983Y-110984642D01*
X170247730Y-110953885D01*
X170173479Y-110923130D01*
X170140067Y-110900804D01*
X170039833Y-110833831D01*
X169926169Y-110720167D01*
X169836871Y-110586522D01*
X169836870Y-110586521D01*
X169775358Y-110438017D01*
X169744000Y-110280370D01*
X169744000Y-110119630D01*
X169775358Y-109961983D01*
X169836870Y-109813479D01*
X169859196Y-109780067D01*
X169926169Y-109679833D01*
X170039833Y-109566169D01*
X170173478Y-109476871D01*
X170173479Y-109476870D01*
X170247730Y-109446115D01*
X170321983Y-109415358D01*
X170479630Y-109384000D01*
X170640370Y-109384000D01*
X170798017Y-109415358D01*
G37*
G36*
X183448017Y-107895358D02*
G01*
X183596521Y-107956870D01*
X183596522Y-107956871D01*
X183730167Y-108046169D01*
X183843831Y-108159833D01*
X183910804Y-108260067D01*
X183933130Y-108293479D01*
X183994642Y-108441983D01*
X184026000Y-108599630D01*
X184026000Y-108760370D01*
X183994642Y-108918017D01*
X183963885Y-108992270D01*
X183933130Y-109066521D01*
X183933129Y-109066522D01*
X183843831Y-109200167D01*
X183730167Y-109313831D01*
X183629933Y-109380805D01*
X183596521Y-109403130D01*
X183522270Y-109433885D01*
X183448017Y-109464642D01*
X183290370Y-109496000D01*
X183129630Y-109496000D01*
X182971983Y-109464642D01*
X182823479Y-109403130D01*
X182790067Y-109380805D01*
X182689833Y-109313831D01*
X182576169Y-109200167D01*
X182486871Y-109066522D01*
X182486870Y-109066521D01*
X182456115Y-108992270D01*
X182425358Y-108918017D01*
X182394000Y-108760370D01*
X182394000Y-108599630D01*
X182425358Y-108441983D01*
X182486870Y-108293479D01*
X182509196Y-108260067D01*
X182576169Y-108159833D01*
X182689833Y-108046169D01*
X182823478Y-107956871D01*
X182823479Y-107956870D01*
X182971983Y-107895358D01*
X183129630Y-107864000D01*
X183290370Y-107864000D01*
X183448017Y-107895358D01*
G37*
G36*
X173248017Y-107895358D02*
G01*
X173396521Y-107956870D01*
X173396522Y-107956871D01*
X173530167Y-108046169D01*
X173643831Y-108159833D01*
X173710804Y-108260067D01*
X173733130Y-108293479D01*
X173763885Y-108367730D01*
X173794642Y-108441983D01*
X173826000Y-108599630D01*
X173826000Y-108760370D01*
X173794642Y-108918017D01*
X173763885Y-108992270D01*
X173733130Y-109066521D01*
X173733129Y-109066522D01*
X173643831Y-109200167D01*
X173530167Y-109313831D01*
X173429933Y-109380805D01*
X173396521Y-109403130D01*
X173322270Y-109433885D01*
X173248017Y-109464642D01*
X173090370Y-109496000D01*
X172929630Y-109496000D01*
X172771983Y-109464642D01*
X172623479Y-109403130D01*
X172590067Y-109380805D01*
X172489833Y-109313831D01*
X172376169Y-109200167D01*
X172286871Y-109066522D01*
X172286870Y-109066521D01*
X172256115Y-108992270D01*
X172225358Y-108918017D01*
X172194000Y-108760370D01*
X172194000Y-108599630D01*
X172225358Y-108441983D01*
X172286870Y-108293479D01*
X172309196Y-108260067D01*
X172376169Y-108159833D01*
X172489833Y-108046169D01*
X172623478Y-107956871D01*
X172623479Y-107956870D01*
X172771983Y-107895358D01*
X172929630Y-107864000D01*
X173090370Y-107864000D01*
X173248017Y-107895358D01*
G37*
G36*
X171666401Y-103171953D02*
G01*
X171807049Y-103199930D01*
X172088097Y-103316344D01*
X172142028Y-103338683D01*
X172204512Y-103364565D01*
X172562219Y-103603577D01*
X172866423Y-103907781D01*
X173105435Y-104265488D01*
X173270070Y-104662951D01*
X173354000Y-105084895D01*
X173354000Y-105515105D01*
X173270070Y-105937049D01*
X173105435Y-106334512D01*
X172866423Y-106692219D01*
X172562219Y-106996423D01*
X172204512Y-107235435D01*
X171807049Y-107400070D01*
X171666401Y-107428047D01*
X171385107Y-107484000D01*
X170954893Y-107484000D01*
X170673599Y-107428047D01*
X170532951Y-107400070D01*
X170135488Y-107235435D01*
X169777781Y-106996423D01*
X169473577Y-106692219D01*
X169234565Y-106334512D01*
X169069930Y-105937049D01*
X168986000Y-105515105D01*
X168986000Y-105084895D01*
X169069930Y-104662951D01*
X169234565Y-104265488D01*
X169473577Y-103907781D01*
X169777781Y-103603577D01*
X170135488Y-103364565D01*
X170197973Y-103338683D01*
X170251903Y-103316344D01*
X170532951Y-103199930D01*
X170673599Y-103171953D01*
X170954893Y-103116000D01*
X171385107Y-103116000D01*
X171666401Y-103171953D01*
G37*
G36*
X183096401Y-103171953D02*
G01*
X183237049Y-103199930D01*
X183518097Y-103316344D01*
X183572028Y-103338683D01*
X183634512Y-103364565D01*
X183992219Y-103603577D01*
X184296423Y-103907781D01*
X184535435Y-104265488D01*
X184700070Y-104662951D01*
X184784000Y-105084895D01*
X184784000Y-105515105D01*
X184700070Y-105937049D01*
X184535435Y-106334512D01*
X184296423Y-106692219D01*
X183992219Y-106996423D01*
X183634512Y-107235435D01*
X183237049Y-107400070D01*
X183096401Y-107428047D01*
X182815107Y-107484000D01*
X182384893Y-107484000D01*
X182103599Y-107428047D01*
X181962951Y-107400070D01*
X181565488Y-107235435D01*
X181207781Y-106996423D01*
X180903577Y-106692219D01*
X180664565Y-106334512D01*
X180499930Y-105937049D01*
X180416000Y-105515105D01*
X180416000Y-105084895D01*
X180499930Y-104662951D01*
X180664565Y-104265488D01*
X180903577Y-103907781D01*
X181207781Y-103603577D01*
X181565488Y-103364565D01*
X181627973Y-103338683D01*
X181681903Y-103316344D01*
X181962951Y-103199930D01*
X182103599Y-103171953D01*
X182384893Y-103116000D01*
X182815107Y-103116000D01*
X183096401Y-103171953D01*
G37*
G36*
X142800564Y-101605389D02*
G01*
X142991833Y-101684615D01*
X142991835Y-101684616D01*
X143163973Y-101799635D01*
X143310365Y-101946027D01*
X143425385Y-102118167D01*
X143504611Y-102309436D01*
X143545000Y-102512484D01*
X143545000Y-102719516D01*
X143504611Y-102922564D01*
X143458816Y-103033123D01*
X143425384Y-103113835D01*
X143310365Y-103285973D01*
X143163973Y-103432365D01*
X142991835Y-103547384D01*
X142991834Y-103547385D01*
X142991833Y-103547385D01*
X142800564Y-103626611D01*
X142597516Y-103667000D01*
X142390484Y-103667000D01*
X142187436Y-103626611D01*
X141996167Y-103547385D01*
X141996166Y-103547385D01*
X141996165Y-103547384D01*
X141824027Y-103432365D01*
X141677635Y-103285973D01*
X141562616Y-103113835D01*
X141529184Y-103033123D01*
X141483389Y-102922564D01*
X141443000Y-102719516D01*
X141443000Y-102512484D01*
X141483389Y-102309436D01*
X141562615Y-102118167D01*
X141677635Y-101946027D01*
X141824027Y-101799635D01*
X141996165Y-101684616D01*
X141996167Y-101684615D01*
X142187436Y-101605389D01*
X142390484Y-101565000D01*
X142597516Y-101565000D01*
X142800564Y-101605389D01*
G37*
G36*
X185118339Y-101068710D02*
G01*
X185341911Y-101161317D01*
X185341913Y-101161318D01*
X185543123Y-101295762D01*
X185714238Y-101466877D01*
X185806789Y-101605390D01*
X185848683Y-101668089D01*
X185941290Y-101891661D01*
X185988500Y-102129002D01*
X185988500Y-102370998D01*
X185941290Y-102608339D01*
X185848683Y-102831911D01*
X185848682Y-102831913D01*
X185714238Y-103033123D01*
X185543123Y-103204238D01*
X185341913Y-103338682D01*
X185341912Y-103338683D01*
X185341911Y-103338683D01*
X185118339Y-103431290D01*
X184880998Y-103478500D01*
X184639002Y-103478500D01*
X184401661Y-103431290D01*
X184178089Y-103338683D01*
X184178088Y-103338683D01*
X184178087Y-103338682D01*
X183976877Y-103204238D01*
X183805762Y-103033123D01*
X183671318Y-102831913D01*
X183671317Y-102831911D01*
X183578710Y-102608339D01*
X183531500Y-102370998D01*
X183531500Y-102129002D01*
X183578710Y-101891661D01*
X183671317Y-101668089D01*
X183713211Y-101605390D01*
X183805762Y-101466877D01*
X183976877Y-101295762D01*
X184178087Y-101161318D01*
X184178089Y-101161317D01*
X184401661Y-101068710D01*
X184639002Y-101021500D01*
X184880998Y-101021500D01*
X185118339Y-101068710D01*
G37*
G36*
X169368339Y-101068710D02*
G01*
X169591911Y-101161317D01*
X169591913Y-101161318D01*
X169793123Y-101295762D01*
X169964238Y-101466877D01*
X170056789Y-101605390D01*
X170098683Y-101668089D01*
X170191290Y-101891661D01*
X170238500Y-102129002D01*
X170238500Y-102370998D01*
X170191290Y-102608339D01*
X170098683Y-102831911D01*
X170098682Y-102831913D01*
X169964238Y-103033123D01*
X169793123Y-103204238D01*
X169591913Y-103338682D01*
X169591912Y-103338683D01*
X169591911Y-103338683D01*
X169368339Y-103431290D01*
X169130998Y-103478500D01*
X168889002Y-103478500D01*
X168651661Y-103431290D01*
X168428089Y-103338683D01*
X168428088Y-103338683D01*
X168428087Y-103338682D01*
X168226877Y-103204238D01*
X168055762Y-103033123D01*
X167921318Y-102831913D01*
X167921317Y-102831911D01*
X167828710Y-102608339D01*
X167781500Y-102370998D01*
X167781500Y-102129002D01*
X167828710Y-101891661D01*
X167921317Y-101668089D01*
X167963211Y-101605390D01*
X168055762Y-101466877D01*
X168226877Y-101295762D01*
X168428087Y-101161318D01*
X168428089Y-101161317D01*
X168651661Y-101068710D01*
X168889002Y-101021500D01*
X169130998Y-101021500D01*
X169368339Y-101068710D01*
G37*
G36*
X172658766Y-98228821D02*
G01*
X172795257Y-98285358D01*
X172918097Y-98367437D01*
X173022563Y-98471903D01*
X173104642Y-98594743D01*
X173161179Y-98731234D01*
X173190000Y-98876130D01*
X173190000Y-99023870D01*
X173161179Y-99168766D01*
X173104642Y-99305257D01*
X173022563Y-99428097D01*
X172918097Y-99532563D01*
X172795257Y-99614642D01*
X172658766Y-99671179D01*
X172513870Y-99700000D01*
X172366130Y-99700000D01*
X172221234Y-99671179D01*
X172084743Y-99614642D01*
X171961903Y-99532563D01*
X171857437Y-99428097D01*
X171775358Y-99305257D01*
X171718821Y-99168766D01*
X171690000Y-99023870D01*
X171690000Y-98876130D01*
X171718821Y-98731234D01*
X171775358Y-98594743D01*
X171857437Y-98471903D01*
X171961903Y-98367437D01*
X172084743Y-98285358D01*
X172221234Y-98228821D01*
X172366130Y-98200000D01*
X172513870Y-98200000D01*
X172658766Y-98228821D01*
G37*
G36*
X180278766Y-98228821D02*
G01*
X180415257Y-98285358D01*
X180538097Y-98367437D01*
X180642563Y-98471903D01*
X180724642Y-98594743D01*
X180781179Y-98731234D01*
X180810000Y-98876130D01*
X180810000Y-99023870D01*
X180781179Y-99168766D01*
X180724642Y-99305257D01*
X180642563Y-99428097D01*
X180538097Y-99532563D01*
X180415257Y-99614642D01*
X180278766Y-99671179D01*
X180133870Y-99700000D01*
X179986130Y-99700000D01*
X179841234Y-99671179D01*
X179704743Y-99614642D01*
X179581903Y-99532563D01*
X179477437Y-99428097D01*
X179395358Y-99305257D01*
X179338821Y-99168766D01*
X179310000Y-99023870D01*
X179310000Y-98876130D01*
X179338821Y-98731234D01*
X179395358Y-98594743D01*
X179477437Y-98471903D01*
X179581903Y-98367437D01*
X179704743Y-98285358D01*
X179841234Y-98228821D01*
X179986130Y-98200000D01*
X180133870Y-98200000D01*
X180278766Y-98228821D01*
G37*
G36*
X175198766Y-98228821D02*
G01*
X175335257Y-98285358D01*
X175458097Y-98367437D01*
X175562563Y-98471903D01*
X175644642Y-98594743D01*
X175701179Y-98731234D01*
X175730000Y-98876130D01*
X175730000Y-99023870D01*
X175701179Y-99168766D01*
X175644642Y-99305257D01*
X175562563Y-99428097D01*
X175458097Y-99532563D01*
X175335257Y-99614642D01*
X175198766Y-99671179D01*
X175053870Y-99700000D01*
X174906130Y-99700000D01*
X174761234Y-99671179D01*
X174624743Y-99614642D01*
X174501903Y-99532563D01*
X174397437Y-99428097D01*
X174315358Y-99305257D01*
X174258821Y-99168766D01*
X174230000Y-99023870D01*
X174230000Y-98876130D01*
X174258821Y-98731234D01*
X174315358Y-98594743D01*
X174397437Y-98471903D01*
X174501903Y-98367437D01*
X174624743Y-98285358D01*
X174761234Y-98228821D01*
X174906130Y-98200000D01*
X175053870Y-98200000D01*
X175198766Y-98228821D01*
G37*
G36*
X177738766Y-98228821D02*
G01*
X177875257Y-98285358D01*
X177998097Y-98367437D01*
X178102563Y-98471903D01*
X178184642Y-98594743D01*
X178241179Y-98731234D01*
X178270000Y-98876130D01*
X178270000Y-99023870D01*
X178241179Y-99168766D01*
X178184642Y-99305257D01*
X178102563Y-99428097D01*
X177998097Y-99532563D01*
X177875257Y-99614642D01*
X177738766Y-99671179D01*
X177593870Y-99700000D01*
X177446130Y-99700000D01*
X177301234Y-99671179D01*
X177164743Y-99614642D01*
X177041903Y-99532563D01*
X176937437Y-99428097D01*
X176855358Y-99305257D01*
X176798821Y-99168766D01*
X176770000Y-99023870D01*
X176770000Y-98876130D01*
X176798821Y-98731234D01*
X176855358Y-98594743D01*
X176937437Y-98471903D01*
X177041903Y-98367437D01*
X177164743Y-98285358D01*
X177301234Y-98228821D01*
X177446130Y-98200000D01*
X177593870Y-98200000D01*
X177738766Y-98228821D01*
G37*
G36*
X179008766Y-95688821D02*
G01*
X179145257Y-95745358D01*
X179268097Y-95827437D01*
X179372563Y-95931903D01*
X179454642Y-96054743D01*
X179511179Y-96191234D01*
X179540000Y-96336130D01*
X179540000Y-96483870D01*
X179511179Y-96628766D01*
X179454642Y-96765257D01*
X179372563Y-96888097D01*
X179268097Y-96992563D01*
X179145257Y-97074642D01*
X179008766Y-97131179D01*
X178863870Y-97160000D01*
X178716130Y-97160000D01*
X178571234Y-97131179D01*
X178434743Y-97074642D01*
X178311903Y-96992563D01*
X178207437Y-96888097D01*
X178125358Y-96765257D01*
X178068821Y-96628766D01*
X178040000Y-96483870D01*
X178040000Y-96336130D01*
X178068821Y-96191234D01*
X178125358Y-96054743D01*
X178207437Y-95931903D01*
X178311903Y-95827437D01*
X178434743Y-95745358D01*
X178571234Y-95688821D01*
X178716130Y-95660000D01*
X178863870Y-95660000D01*
X179008766Y-95688821D01*
G37*
G36*
X181548766Y-95688821D02*
G01*
X181685257Y-95745358D01*
X181808097Y-95827437D01*
X181912563Y-95931903D01*
X181994642Y-96054743D01*
X182051179Y-96191234D01*
X182080000Y-96336130D01*
X182080000Y-96483870D01*
X182051179Y-96628766D01*
X181994642Y-96765257D01*
X181912563Y-96888097D01*
X181808097Y-96992563D01*
X181685257Y-97074642D01*
X181548766Y-97131179D01*
X181403870Y-97160000D01*
X181256130Y-97160000D01*
X181111234Y-97131179D01*
X180974743Y-97074642D01*
X180851903Y-96992563D01*
X180747437Y-96888097D01*
X180665358Y-96765257D01*
X180608821Y-96628766D01*
X180580000Y-96483870D01*
X180580000Y-96336130D01*
X180608821Y-96191234D01*
X180665358Y-96054743D01*
X180747437Y-95931903D01*
X180851903Y-95827437D01*
X180974743Y-95745358D01*
X181111234Y-95688821D01*
X181256130Y-95660000D01*
X181403870Y-95660000D01*
X181548766Y-95688821D01*
G37*
G36*
X173928766Y-95688821D02*
G01*
X174065257Y-95745358D01*
X174188097Y-95827437D01*
X174292563Y-95931903D01*
X174374642Y-96054743D01*
X174431179Y-96191234D01*
X174460000Y-96336130D01*
X174460000Y-96483870D01*
X174431179Y-96628766D01*
X174374642Y-96765257D01*
X174292563Y-96888097D01*
X174188097Y-96992563D01*
X174065257Y-97074642D01*
X173928766Y-97131179D01*
X173783870Y-97160000D01*
X173636130Y-97160000D01*
X173491234Y-97131179D01*
X173354743Y-97074642D01*
X173231903Y-96992563D01*
X173127437Y-96888097D01*
X173045358Y-96765257D01*
X172988821Y-96628766D01*
X172960000Y-96483870D01*
X172960000Y-96336130D01*
X172988821Y-96191234D01*
X173045358Y-96054743D01*
X173127437Y-95931903D01*
X173231903Y-95827437D01*
X173354743Y-95745358D01*
X173491234Y-95688821D01*
X173636130Y-95660000D01*
X173783870Y-95660000D01*
X173928766Y-95688821D01*
G37*
G36*
X176468766Y-95688821D02*
G01*
X176605257Y-95745358D01*
X176728097Y-95827437D01*
X176832563Y-95931903D01*
X176914642Y-96054743D01*
X176971179Y-96191234D01*
X177000000Y-96336130D01*
X177000000Y-96483870D01*
X176971179Y-96628766D01*
X176914642Y-96765257D01*
X176832563Y-96888097D01*
X176728097Y-96992563D01*
X176605257Y-97074642D01*
X176468766Y-97131179D01*
X176323870Y-97160000D01*
X176176130Y-97160000D01*
X176031234Y-97131179D01*
X175894743Y-97074642D01*
X175771903Y-96992563D01*
X175667437Y-96888097D01*
X175585358Y-96765257D01*
X175528821Y-96628766D01*
X175500000Y-96483870D01*
X175500000Y-96336130D01*
X175528821Y-96191234D01*
X175585358Y-96054743D01*
X175667437Y-95931903D01*
X175771903Y-95827437D01*
X175894743Y-95745358D01*
X176031234Y-95688821D01*
X176176130Y-95660000D01*
X176323870Y-95660000D01*
X176468766Y-95688821D01*
G37*
G36*
X185218564Y-77983389D02*
G01*
X185409833Y-78062615D01*
X185409835Y-78062616D01*
X185581973Y-78177635D01*
X185728365Y-78324027D01*
X185843385Y-78496167D01*
X185922611Y-78687436D01*
X185963000Y-78890484D01*
X185963000Y-79097516D01*
X185922611Y-79300564D01*
X185843385Y-79491833D01*
X185843384Y-79491835D01*
X185728365Y-79663973D01*
X185581973Y-79810365D01*
X185409835Y-79925384D01*
X185409834Y-79925385D01*
X185409833Y-79925385D01*
X185218564Y-80004611D01*
X185015516Y-80045000D01*
X184808484Y-80045000D01*
X184605436Y-80004611D01*
X184414167Y-79925385D01*
X184414166Y-79925385D01*
X184414165Y-79925384D01*
X184242027Y-79810365D01*
X184095635Y-79663973D01*
X183980616Y-79491835D01*
X183980615Y-79491833D01*
X183901389Y-79300564D01*
X183861000Y-79097516D01*
X183861000Y-78890484D01*
X183901389Y-78687436D01*
X183980615Y-78496167D01*
X184095635Y-78324027D01*
X184242027Y-78177635D01*
X184414165Y-78062616D01*
X184414167Y-78062615D01*
X184605436Y-77983389D01*
X184808484Y-77943000D01*
X185015516Y-77943000D01*
X185218564Y-77983389D01*
G37*
G36*
X182765000Y-74307000D02*
G01*
X180963000Y-74307000D01*
X180963000Y-72505000D01*
X182765000Y-72505000D01*
X182765000Y-74307000D01*
G37*
G36*
X179437512Y-72509927D02*
G01*
X179586812Y-72539624D01*
X179750784Y-72607544D01*
X179898354Y-72706147D01*
X180023853Y-72831646D01*
X180122456Y-72979216D01*
X180190376Y-73143188D01*
X180225000Y-73317259D01*
X180225000Y-73494741D01*
X180190376Y-73668812D01*
X180122456Y-73832784D01*
X180023853Y-73980354D01*
X179898354Y-74105853D01*
X179750784Y-74204456D01*
X179586812Y-74272376D01*
X179437512Y-74302073D01*
X179412742Y-74307000D01*
X179235258Y-74307000D01*
X179210488Y-74302073D01*
X179061188Y-74272376D01*
X178897216Y-74204456D01*
X178749646Y-74105853D01*
X178624147Y-73980354D01*
X178525544Y-73832784D01*
X178457624Y-73668812D01*
X178423000Y-73494741D01*
X178423000Y-73317259D01*
X178457624Y-73143188D01*
X178525544Y-72979216D01*
X178624147Y-72831646D01*
X178749646Y-72706147D01*
X178897216Y-72607544D01*
X179061188Y-72539624D01*
X179210488Y-72509927D01*
X179235258Y-72505000D01*
X179412742Y-72505000D01*
X179437512Y-72509927D01*
G37*
G36*
X176897512Y-72509927D02*
G01*
X177046812Y-72539624D01*
X177210784Y-72607544D01*
X177358354Y-72706147D01*
X177483853Y-72831646D01*
X177582456Y-72979216D01*
X177650376Y-73143188D01*
X177685000Y-73317259D01*
X177685000Y-73494741D01*
X177650376Y-73668812D01*
X177582456Y-73832784D01*
X177483853Y-73980354D01*
X177358354Y-74105853D01*
X177210784Y-74204456D01*
X177046812Y-74272376D01*
X176897512Y-74302073D01*
X176872742Y-74307000D01*
X176695258Y-74307000D01*
X176670488Y-74302073D01*
X176521188Y-74272376D01*
X176357216Y-74204456D01*
X176209646Y-74105853D01*
X176084147Y-73980354D01*
X175985544Y-73832784D01*
X175917624Y-73668812D01*
X175883000Y-73494741D01*
X175883000Y-73317259D01*
X175917624Y-73143188D01*
X175985544Y-72979216D01*
X176084147Y-72831646D01*
X176209646Y-72706147D01*
X176357216Y-72607544D01*
X176521188Y-72539624D01*
X176670488Y-72509927D01*
X176695258Y-72505000D01*
X176872742Y-72505000D01*
X176897512Y-72509927D01*
G37*
G36*
X174357512Y-72509927D02*
G01*
X174506812Y-72539624D01*
X174670784Y-72607544D01*
X174818354Y-72706147D01*
X174943853Y-72831646D01*
X175042456Y-72979216D01*
X175110376Y-73143188D01*
X175145000Y-73317259D01*
X175145000Y-73494741D01*
X175110376Y-73668812D01*
X175042456Y-73832784D01*
X174943853Y-73980354D01*
X174818354Y-74105853D01*
X174670784Y-74204456D01*
X174506812Y-74272376D01*
X174357512Y-74302073D01*
X174332742Y-74307000D01*
X174155258Y-74307000D01*
X174130488Y-74302073D01*
X173981188Y-74272376D01*
X173817216Y-74204456D01*
X173669646Y-74105853D01*
X173544147Y-73980354D01*
X173445544Y-73832784D01*
X173377624Y-73668812D01*
X173343000Y-73494741D01*
X173343000Y-73317259D01*
X173377624Y-73143188D01*
X173445544Y-72979216D01*
X173544147Y-72831646D01*
X173669646Y-72706147D01*
X173817216Y-72607544D01*
X173981188Y-72539624D01*
X174130488Y-72509927D01*
X174155258Y-72505000D01*
X174332742Y-72505000D01*
X174357512Y-72509927D01*
G37*
G36*
X171817512Y-72509927D02*
G01*
X171966812Y-72539624D01*
X172130784Y-72607544D01*
X172278354Y-72706147D01*
X172403853Y-72831646D01*
X172502456Y-72979216D01*
X172570376Y-73143188D01*
X172605000Y-73317259D01*
X172605000Y-73494741D01*
X172570376Y-73668812D01*
X172502456Y-73832784D01*
X172403853Y-73980354D01*
X172278354Y-74105853D01*
X172130784Y-74204456D01*
X171966812Y-74272376D01*
X171817512Y-74302073D01*
X171792742Y-74307000D01*
X171615258Y-74307000D01*
X171590488Y-74302073D01*
X171441188Y-74272376D01*
X171277216Y-74204456D01*
X171129646Y-74105853D01*
X171004147Y-73980354D01*
X170905544Y-73832784D01*
X170837624Y-73668812D01*
X170803000Y-73494741D01*
X170803000Y-73317259D01*
X170837624Y-73143188D01*
X170905544Y-72979216D01*
X171004147Y-72831646D01*
X171129646Y-72706147D01*
X171277216Y-72607544D01*
X171441188Y-72539624D01*
X171590488Y-72509927D01*
X171615258Y-72505000D01*
X171792742Y-72505000D01*
X171817512Y-72509927D01*
G37*
G36*
X171817512Y-69969927D02*
G01*
X171966812Y-69999624D01*
X172130784Y-70067544D01*
X172278354Y-70166147D01*
X172403853Y-70291646D01*
X172502456Y-70439216D01*
X172570376Y-70603188D01*
X172605000Y-70777259D01*
X172605000Y-70954741D01*
X172570376Y-71128812D01*
X172502456Y-71292784D01*
X172403853Y-71440354D01*
X172278354Y-71565853D01*
X172130784Y-71664456D01*
X171966812Y-71732376D01*
X171817512Y-71762073D01*
X171792742Y-71767000D01*
X171615258Y-71767000D01*
X171590488Y-71762073D01*
X171441188Y-71732376D01*
X171277216Y-71664456D01*
X171129646Y-71565853D01*
X171004147Y-71440354D01*
X170905544Y-71292784D01*
X170837624Y-71128812D01*
X170803000Y-70954741D01*
X170803000Y-70777259D01*
X170837624Y-70603188D01*
X170905544Y-70439216D01*
X171004147Y-70291646D01*
X171129646Y-70166147D01*
X171277216Y-70067544D01*
X171441188Y-69999624D01*
X171590488Y-69969927D01*
X171615258Y-69965000D01*
X171792742Y-69965000D01*
X171817512Y-69969927D01*
G37*
G36*
X181977512Y-69969927D02*
G01*
X182126812Y-69999624D01*
X182290784Y-70067544D01*
X182438354Y-70166147D01*
X182563853Y-70291646D01*
X182662456Y-70439216D01*
X182730376Y-70603188D01*
X182765000Y-70777259D01*
X182765000Y-70954741D01*
X182730376Y-71128812D01*
X182662456Y-71292784D01*
X182563853Y-71440354D01*
X182438354Y-71565853D01*
X182290784Y-71664456D01*
X182126812Y-71732376D01*
X181977512Y-71762073D01*
X181952742Y-71767000D01*
X181775258Y-71767000D01*
X181750488Y-71762073D01*
X181601188Y-71732376D01*
X181437216Y-71664456D01*
X181289646Y-71565853D01*
X181164147Y-71440354D01*
X181065544Y-71292784D01*
X180997624Y-71128812D01*
X180963000Y-70954741D01*
X180963000Y-70777259D01*
X180997624Y-70603188D01*
X181065544Y-70439216D01*
X181164147Y-70291646D01*
X181289646Y-70166147D01*
X181437216Y-70067544D01*
X181601188Y-69999624D01*
X181750488Y-69969927D01*
X181775258Y-69965000D01*
X181952742Y-69965000D01*
X181977512Y-69969927D01*
G37*
G36*
X174357512Y-69969927D02*
G01*
X174506812Y-69999624D01*
X174670784Y-70067544D01*
X174818354Y-70166147D01*
X174943853Y-70291646D01*
X175042456Y-70439216D01*
X175110376Y-70603188D01*
X175145000Y-70777259D01*
X175145000Y-70954741D01*
X175110376Y-71128812D01*
X175042456Y-71292784D01*
X174943853Y-71440354D01*
X174818354Y-71565853D01*
X174670784Y-71664456D01*
X174506812Y-71732376D01*
X174357512Y-71762073D01*
X174332742Y-71767000D01*
X174155258Y-71767000D01*
X174130488Y-71762073D01*
X173981188Y-71732376D01*
X173817216Y-71664456D01*
X173669646Y-71565853D01*
X173544147Y-71440354D01*
X173445544Y-71292784D01*
X173377624Y-71128812D01*
X173343000Y-70954741D01*
X173343000Y-70777259D01*
X173377624Y-70603188D01*
X173445544Y-70439216D01*
X173544147Y-70291646D01*
X173669646Y-70166147D01*
X173817216Y-70067544D01*
X173981188Y-69999624D01*
X174130488Y-69969927D01*
X174155258Y-69965000D01*
X174332742Y-69965000D01*
X174357512Y-69969927D01*
G37*
G36*
X179437512Y-69969927D02*
G01*
X179586812Y-69999624D01*
X179750784Y-70067544D01*
X179898354Y-70166147D01*
X180023853Y-70291646D01*
X180122456Y-70439216D01*
X180190376Y-70603188D01*
X180225000Y-70777259D01*
X180225000Y-70954741D01*
X180190376Y-71128812D01*
X180122456Y-71292784D01*
X180023853Y-71440354D01*
X179898354Y-71565853D01*
X179750784Y-71664456D01*
X179586812Y-71732376D01*
X179437512Y-71762073D01*
X179412742Y-71767000D01*
X179235258Y-71767000D01*
X179210488Y-71762073D01*
X179061188Y-71732376D01*
X178897216Y-71664456D01*
X178749646Y-71565853D01*
X178624147Y-71440354D01*
X178525544Y-71292784D01*
X178457624Y-71128812D01*
X178423000Y-70954741D01*
X178423000Y-70777259D01*
X178457624Y-70603188D01*
X178525544Y-70439216D01*
X178624147Y-70291646D01*
X178749646Y-70166147D01*
X178897216Y-70067544D01*
X179061188Y-69999624D01*
X179210488Y-69969927D01*
X179235258Y-69965000D01*
X179412742Y-69965000D01*
X179437512Y-69969927D01*
G37*
G36*
X176897512Y-69969927D02*
G01*
X177046812Y-69999624D01*
X177210784Y-70067544D01*
X177358354Y-70166147D01*
X177483853Y-70291646D01*
X177582456Y-70439216D01*
X177650376Y-70603188D01*
X177685000Y-70777259D01*
X177685000Y-70954741D01*
X177650376Y-71128812D01*
X177582456Y-71292784D01*
X177483853Y-71440354D01*
X177358354Y-71565853D01*
X177210784Y-71664456D01*
X177046812Y-71732376D01*
X176897512Y-71762073D01*
X176872742Y-71767000D01*
X176695258Y-71767000D01*
X176670488Y-71762073D01*
X176521188Y-71732376D01*
X176357216Y-71664456D01*
X176209646Y-71565853D01*
X176084147Y-71440354D01*
X175985544Y-71292784D01*
X175917624Y-71128812D01*
X175883000Y-70954741D01*
X175883000Y-70777259D01*
X175917624Y-70603188D01*
X175985544Y-70439216D01*
X176084147Y-70291646D01*
X176209646Y-70166147D01*
X176357216Y-70067544D01*
X176521188Y-69999624D01*
X176670488Y-69969927D01*
X176695258Y-69965000D01*
X176872742Y-69965000D01*
X176897512Y-69969927D01*
G37*
M02*
