G04 #@! TF.GenerationSoftware,KiCad,Pcbnew,(5.1.7)-1*
G04 #@! TF.CreationDate,2020-12-02T09:59:19-08:00*
G04 #@! TF.ProjectId,programmer,70726f67-7261-46d6-9d65-722e6b696361,rev?*
G04 #@! TF.SameCoordinates,Original*
G04 #@! TF.FileFunction,Copper,L2,Bot*
G04 #@! TF.FilePolarity,Positive*
%FSLAX46Y46*%
G04 Gerber Fmt 4.6, Leading zero omitted, Abs format (unit mm)*
G04 Created by KiCad (PCBNEW (5.1.7)-1) date 2020-12-02 09:59:19*
%MOMM*%
%LPD*%
G01*
G04 APERTURE LIST*
G04 #@! TA.AperFunction,ComponentPad*
%ADD10O,1.000000X1.000000*%
G04 #@! TD*
G04 #@! TA.AperFunction,ComponentPad*
%ADD11R,1.000000X1.000000*%
G04 #@! TD*
G04 #@! TA.AperFunction,ViaPad*
%ADD12C,0.635000*%
G04 #@! TD*
G04 #@! TA.AperFunction,Conductor*
%ADD13C,0.152400*%
G04 #@! TD*
G04 #@! TA.AperFunction,Conductor*
%ADD14C,0.127000*%
G04 #@! TD*
G04 #@! TA.AperFunction,Conductor*
%ADD15C,0.100000*%
G04 #@! TD*
G04 #@! TA.AperFunction,Conductor*
%ADD16C,0.254000*%
G04 #@! TD*
G04 APERTURE END LIST*
G04 #@! TA.AperFunction,SMDPad,CuDef*
G36*
G01*
X3550000Y1750000D02*
X3550000Y2250000D01*
G75*
G02*
X3775000Y2475000I225000J0D01*
G01*
X4225000Y2475000D01*
G75*
G02*
X4450000Y2250000I0J-225000D01*
G01*
X4450000Y1750000D01*
G75*
G02*
X4225000Y1525000I-225000J0D01*
G01*
X3775000Y1525000D01*
G75*
G02*
X3550000Y1750000I0J225000D01*
G01*
G37*
G04 #@! TD.AperFunction*
G04 #@! TA.AperFunction,SMDPad,CuDef*
G36*
G01*
X2000000Y1750000D02*
X2000000Y2250000D01*
G75*
G02*
X2225000Y2475000I225000J0D01*
G01*
X2675000Y2475000D01*
G75*
G02*
X2900000Y2250000I0J-225000D01*
G01*
X2900000Y1750000D01*
G75*
G02*
X2675000Y1525000I-225000J0D01*
G01*
X2225000Y1525000D01*
G75*
G02*
X2000000Y1750000I0J225000D01*
G01*
G37*
G04 #@! TD.AperFunction*
G04 #@! TA.AperFunction,SMDPad,CuDef*
G36*
G01*
X-3550000Y2250000D02*
X-3550000Y1750000D01*
G75*
G02*
X-3775000Y1525000I-225000J0D01*
G01*
X-4225000Y1525000D01*
G75*
G02*
X-4450000Y1750000I0J225000D01*
G01*
X-4450000Y2250000D01*
G75*
G02*
X-4225000Y2475000I225000J0D01*
G01*
X-3775000Y2475000D01*
G75*
G02*
X-3550000Y2250000I0J-225000D01*
G01*
G37*
G04 #@! TD.AperFunction*
G04 #@! TA.AperFunction,SMDPad,CuDef*
G36*
G01*
X-2000000Y2250000D02*
X-2000000Y1750000D01*
G75*
G02*
X-2225000Y1525000I-225000J0D01*
G01*
X-2675000Y1525000D01*
G75*
G02*
X-2900000Y1750000I0J225000D01*
G01*
X-2900000Y2250000D01*
G75*
G02*
X-2675000Y2475000I225000J0D01*
G01*
X-2225000Y2475000D01*
G75*
G02*
X-2000000Y2250000I0J-225000D01*
G01*
G37*
G04 #@! TD.AperFunction*
D10*
X17070000Y1380000D03*
X15800000Y1380000D03*
X17070000Y110000D03*
X15800000Y110000D03*
X17070000Y-1160000D03*
X15800000Y-1160000D03*
X17070000Y-2430000D03*
X15800000Y-2430000D03*
X17070000Y-3700000D03*
D11*
X15800000Y-3700000D03*
G04 #@! TA.AperFunction,SMDPad,CuDef*
G36*
G01*
X-3550000Y-1750000D02*
X-3550000Y-2250000D01*
G75*
G02*
X-3775000Y-2475000I-225000J0D01*
G01*
X-4225000Y-2475000D01*
G75*
G02*
X-4450000Y-2250000I0J225000D01*
G01*
X-4450000Y-1750000D01*
G75*
G02*
X-4225000Y-1525000I225000J0D01*
G01*
X-3775000Y-1525000D01*
G75*
G02*
X-3550000Y-1750000I0J-225000D01*
G01*
G37*
G04 #@! TD.AperFunction*
G04 #@! TA.AperFunction,SMDPad,CuDef*
G36*
G01*
X-2000000Y-1750000D02*
X-2000000Y-2250000D01*
G75*
G02*
X-2225000Y-2475000I-225000J0D01*
G01*
X-2675000Y-2475000D01*
G75*
G02*
X-2900000Y-2250000I0J225000D01*
G01*
X-2900000Y-1750000D01*
G75*
G02*
X-2675000Y-1525000I225000J0D01*
G01*
X-2225000Y-1525000D01*
G75*
G02*
X-2000000Y-1750000I0J-225000D01*
G01*
G37*
G04 #@! TD.AperFunction*
G04 #@! TA.AperFunction,SMDPad,CuDef*
G36*
G01*
X-3550000Y250000D02*
X-3550000Y-250000D01*
G75*
G02*
X-3775000Y-475000I-225000J0D01*
G01*
X-4225000Y-475000D01*
G75*
G02*
X-4450000Y-250000I0J225000D01*
G01*
X-4450000Y250000D01*
G75*
G02*
X-4225000Y475000I225000J0D01*
G01*
X-3775000Y475000D01*
G75*
G02*
X-3550000Y250000I0J-225000D01*
G01*
G37*
G04 #@! TD.AperFunction*
G04 #@! TA.AperFunction,SMDPad,CuDef*
G36*
G01*
X-2000000Y250000D02*
X-2000000Y-250000D01*
G75*
G02*
X-2225000Y-475000I-225000J0D01*
G01*
X-2675000Y-475000D01*
G75*
G02*
X-2900000Y-250000I0J225000D01*
G01*
X-2900000Y250000D01*
G75*
G02*
X-2675000Y475000I225000J0D01*
G01*
X-2225000Y475000D01*
G75*
G02*
X-2000000Y250000I0J-225000D01*
G01*
G37*
G04 #@! TD.AperFunction*
G04 #@! TA.AperFunction,SMDPad,CuDef*
G36*
G01*
X3550000Y-2250000D02*
X3550000Y-1750000D01*
G75*
G02*
X3775000Y-1525000I225000J0D01*
G01*
X4225000Y-1525000D01*
G75*
G02*
X4450000Y-1750000I0J-225000D01*
G01*
X4450000Y-2250000D01*
G75*
G02*
X4225000Y-2475000I-225000J0D01*
G01*
X3775000Y-2475000D01*
G75*
G02*
X3550000Y-2250000I0J225000D01*
G01*
G37*
G04 #@! TD.AperFunction*
G04 #@! TA.AperFunction,SMDPad,CuDef*
G36*
G01*
X2000000Y-2250000D02*
X2000000Y-1750000D01*
G75*
G02*
X2225000Y-1525000I225000J0D01*
G01*
X2675000Y-1525000D01*
G75*
G02*
X2900000Y-1750000I0J-225000D01*
G01*
X2900000Y-2250000D01*
G75*
G02*
X2675000Y-2475000I-225000J0D01*
G01*
X2225000Y-2475000D01*
G75*
G02*
X2000000Y-2250000I0J225000D01*
G01*
G37*
G04 #@! TD.AperFunction*
D12*
X-14200000Y-3300000D03*
X2600000Y7600000D03*
X4100000Y-3800000D03*
X-7800000Y-3700000D03*
X7800000Y3200000D03*
X200000Y-8900000D03*
X-15000000Y5600000D03*
X-13750000Y1950000D03*
X11247200Y-6352800D03*
X-1000000Y-2000000D03*
X-1000000Y0D03*
X-1000000Y1900000D03*
X-10300000Y-5300000D03*
X-4800000Y-5700000D03*
X-5675000Y-4675000D03*
X-3600000Y-3500000D03*
X1000000Y2000000D03*
X-3200000Y4100000D03*
X1000000Y-2000000D03*
X-5599992Y-7600000D03*
X14200000Y-500000D03*
X12399992Y400000D03*
D13*
X-13750000Y4350000D02*
X-15000000Y5600000D01*
X-13750000Y4350000D02*
X-13750000Y1950000D01*
X-6800000Y-4700000D02*
X-4900000Y-6600000D01*
X-4900000Y-6600000D02*
X11000000Y-6600000D01*
X-7608230Y-4700000D02*
X-6800000Y-4700000D01*
X-13750000Y1441770D02*
X-7608230Y-4700000D01*
X11000000Y-6600000D02*
X11247200Y-6352800D01*
X-13750000Y1950000D02*
X-13750000Y1441770D01*
X-7100000Y-5300000D02*
X-10300000Y-5300000D01*
X-5000000Y-7400000D02*
X-7100000Y-5300000D01*
X15900000Y-7400000D02*
X-5000000Y-7400000D01*
X18400000Y-4900000D02*
X15900000Y-7400000D01*
X18400000Y-2490000D02*
X18400000Y-4900000D01*
X17070000Y-1160000D02*
X18400000Y-2490000D01*
X17798601Y-3158601D02*
X17798601Y-4901399D01*
X17070000Y-2430000D02*
X17798601Y-3158601D01*
X17798601Y-4901399D02*
X17400000Y-5300000D01*
X-4400000Y-5300000D02*
X-4800000Y-5700000D01*
X17400000Y-5300000D02*
X-4400000Y-5300000D01*
X4775000Y-4675000D02*
X-5675000Y-4675000D01*
X16725000Y-4675000D02*
X4775000Y-4675000D01*
X17070000Y-4330000D02*
X16725000Y-4675000D01*
X17070000Y-3700000D02*
X17070000Y-4330000D01*
X1000000Y3200000D02*
X1000000Y2000000D01*
X600000Y3600000D02*
X1000000Y3200000D01*
X-2700000Y3600000D02*
X600000Y3600000D01*
X-3200000Y4100000D02*
X-2700000Y3600000D01*
X900000Y-2100000D02*
X1000000Y-2000000D01*
X900000Y-3100000D02*
X900000Y-2100000D01*
X500000Y-3500000D02*
X900000Y-3100000D01*
X-3600000Y-3500000D02*
X500000Y-3500000D01*
X-5199992Y-8000000D02*
X-5599992Y-7600000D01*
X18900000Y-5100000D02*
X16000000Y-8000000D01*
X18900000Y-1720000D02*
X18900000Y-5100000D01*
X16000000Y-8000000D02*
X-5199992Y-8000000D01*
X17070000Y110000D02*
X18900000Y-1720000D01*
X14200000Y-830000D02*
X14200000Y-500000D01*
X15800000Y-2430000D02*
X14200000Y-830000D01*
X15800000Y-3700000D02*
X12399992Y-299992D01*
X12399992Y-299992D02*
X12399992Y400000D01*
D14*
X-63500Y-2936500D02*
X-2936500Y-2936500D01*
X-2936500Y-2662827D01*
X-2900000Y-2666422D01*
X-2561125Y-2665500D01*
X-2513500Y-2617875D01*
X-2513500Y-2063500D01*
X-2386500Y-2063500D01*
X-2386500Y-2617875D01*
X-2338875Y-2665500D01*
X-2000000Y-2666422D01*
X-1962655Y-2662744D01*
X-1926746Y-2651851D01*
X-1893652Y-2634162D01*
X-1864644Y-2610356D01*
X-1840838Y-2581348D01*
X-1823149Y-2548254D01*
X-1812256Y-2512345D01*
X-1808578Y-2475000D01*
X-1809500Y-2111125D01*
X-1857125Y-2063500D01*
X-2386500Y-2063500D01*
X-2513500Y-2063500D01*
X-2533500Y-2063500D01*
X-2533500Y-1936500D01*
X-2513500Y-1936500D01*
X-2513500Y-1382125D01*
X-2386500Y-1382125D01*
X-2386500Y-1936500D01*
X-1857125Y-1936500D01*
X-1809500Y-1888875D01*
X-1808578Y-1525000D01*
X-1812256Y-1487655D01*
X-1823149Y-1451746D01*
X-1840838Y-1418652D01*
X-1864644Y-1389644D01*
X-1893652Y-1365838D01*
X-1926746Y-1348149D01*
X-1962655Y-1337256D01*
X-2000000Y-1333578D01*
X-2338875Y-1334500D01*
X-2386500Y-1382125D01*
X-2513500Y-1382125D01*
X-2561125Y-1334500D01*
X-2900000Y-1333578D01*
X-2936500Y-1337173D01*
X-2936500Y-662827D01*
X-2900000Y-666422D01*
X-2561125Y-665500D01*
X-2513500Y-617875D01*
X-2513500Y-63500D01*
X-2386500Y-63500D01*
X-2386500Y-617875D01*
X-2338875Y-665500D01*
X-2000000Y-666422D01*
X-1962655Y-662744D01*
X-1926746Y-651851D01*
X-1893652Y-634162D01*
X-1864644Y-610356D01*
X-1840838Y-581348D01*
X-1823149Y-548254D01*
X-1812256Y-512345D01*
X-1808578Y-475000D01*
X-1809500Y-111125D01*
X-1857125Y-63500D01*
X-2386500Y-63500D01*
X-2513500Y-63500D01*
X-2533500Y-63500D01*
X-2533500Y63500D01*
X-2513500Y63500D01*
X-2513500Y617875D01*
X-2386500Y617875D01*
X-2386500Y63500D01*
X-1857125Y63500D01*
X-1809500Y111125D01*
X-1808578Y475000D01*
X-1812256Y512345D01*
X-1823149Y548254D01*
X-1840838Y581348D01*
X-1864644Y610356D01*
X-1893652Y634162D01*
X-1926746Y651851D01*
X-1962655Y662744D01*
X-2000000Y666422D01*
X-2338875Y665500D01*
X-2386500Y617875D01*
X-2513500Y617875D01*
X-2561125Y665500D01*
X-2900000Y666422D01*
X-2936500Y662827D01*
X-2936500Y1337173D01*
X-2900000Y1333578D01*
X-2561125Y1334500D01*
X-2513500Y1382125D01*
X-2513500Y1936500D01*
X-2386500Y1936500D01*
X-2386500Y1382125D01*
X-2338875Y1334500D01*
X-2000000Y1333578D01*
X-1962655Y1337256D01*
X-1926746Y1348149D01*
X-1893652Y1365838D01*
X-1864644Y1389644D01*
X-1840838Y1418652D01*
X-1823149Y1451746D01*
X-1812256Y1487655D01*
X-1808578Y1525000D01*
X-1809500Y1888875D01*
X-1857125Y1936500D01*
X-2386500Y1936500D01*
X-2513500Y1936500D01*
X-2533500Y1936500D01*
X-2533500Y2063500D01*
X-2513500Y2063500D01*
X-2513500Y2617875D01*
X-2386500Y2617875D01*
X-2386500Y2063500D01*
X-1857125Y2063500D01*
X-1809500Y2111125D01*
X-1808578Y2475000D01*
X-1812256Y2512345D01*
X-1823149Y2548254D01*
X-1840838Y2581348D01*
X-1864644Y2610356D01*
X-1893652Y2634162D01*
X-1926746Y2651851D01*
X-1962655Y2662744D01*
X-2000000Y2666422D01*
X-2338875Y2665500D01*
X-2386500Y2617875D01*
X-2513500Y2617875D01*
X-2561125Y2665500D01*
X-2900000Y2666422D01*
X-2936500Y2662827D01*
X-2936500Y2936500D01*
X-63500Y2936500D01*
X-63500Y-2936500D01*
G04 #@! TA.AperFunction,Conductor*
D15*
G36*
X-63500Y-2936500D02*
G01*
X-2936500Y-2936500D01*
X-2936500Y-2662827D01*
X-2900000Y-2666422D01*
X-2561125Y-2665500D01*
X-2513500Y-2617875D01*
X-2513500Y-2063500D01*
X-2386500Y-2063500D01*
X-2386500Y-2617875D01*
X-2338875Y-2665500D01*
X-2000000Y-2666422D01*
X-1962655Y-2662744D01*
X-1926746Y-2651851D01*
X-1893652Y-2634162D01*
X-1864644Y-2610356D01*
X-1840838Y-2581348D01*
X-1823149Y-2548254D01*
X-1812256Y-2512345D01*
X-1808578Y-2475000D01*
X-1809500Y-2111125D01*
X-1857125Y-2063500D01*
X-2386500Y-2063500D01*
X-2513500Y-2063500D01*
X-2533500Y-2063500D01*
X-2533500Y-1936500D01*
X-2513500Y-1936500D01*
X-2513500Y-1382125D01*
X-2386500Y-1382125D01*
X-2386500Y-1936500D01*
X-1857125Y-1936500D01*
X-1809500Y-1888875D01*
X-1808578Y-1525000D01*
X-1812256Y-1487655D01*
X-1823149Y-1451746D01*
X-1840838Y-1418652D01*
X-1864644Y-1389644D01*
X-1893652Y-1365838D01*
X-1926746Y-1348149D01*
X-1962655Y-1337256D01*
X-2000000Y-1333578D01*
X-2338875Y-1334500D01*
X-2386500Y-1382125D01*
X-2513500Y-1382125D01*
X-2561125Y-1334500D01*
X-2900000Y-1333578D01*
X-2936500Y-1337173D01*
X-2936500Y-662827D01*
X-2900000Y-666422D01*
X-2561125Y-665500D01*
X-2513500Y-617875D01*
X-2513500Y-63500D01*
X-2386500Y-63500D01*
X-2386500Y-617875D01*
X-2338875Y-665500D01*
X-2000000Y-666422D01*
X-1962655Y-662744D01*
X-1926746Y-651851D01*
X-1893652Y-634162D01*
X-1864644Y-610356D01*
X-1840838Y-581348D01*
X-1823149Y-548254D01*
X-1812256Y-512345D01*
X-1808578Y-475000D01*
X-1809500Y-111125D01*
X-1857125Y-63500D01*
X-2386500Y-63500D01*
X-2513500Y-63500D01*
X-2533500Y-63500D01*
X-2533500Y63500D01*
X-2513500Y63500D01*
X-2513500Y617875D01*
X-2386500Y617875D01*
X-2386500Y63500D01*
X-1857125Y63500D01*
X-1809500Y111125D01*
X-1808578Y475000D01*
X-1812256Y512345D01*
X-1823149Y548254D01*
X-1840838Y581348D01*
X-1864644Y610356D01*
X-1893652Y634162D01*
X-1926746Y651851D01*
X-1962655Y662744D01*
X-2000000Y666422D01*
X-2338875Y665500D01*
X-2386500Y617875D01*
X-2513500Y617875D01*
X-2561125Y665500D01*
X-2900000Y666422D01*
X-2936500Y662827D01*
X-2936500Y1337173D01*
X-2900000Y1333578D01*
X-2561125Y1334500D01*
X-2513500Y1382125D01*
X-2513500Y1936500D01*
X-2386500Y1936500D01*
X-2386500Y1382125D01*
X-2338875Y1334500D01*
X-2000000Y1333578D01*
X-1962655Y1337256D01*
X-1926746Y1348149D01*
X-1893652Y1365838D01*
X-1864644Y1389644D01*
X-1840838Y1418652D01*
X-1823149Y1451746D01*
X-1812256Y1487655D01*
X-1808578Y1525000D01*
X-1809500Y1888875D01*
X-1857125Y1936500D01*
X-2386500Y1936500D01*
X-2513500Y1936500D01*
X-2533500Y1936500D01*
X-2533500Y2063500D01*
X-2513500Y2063500D01*
X-2513500Y2617875D01*
X-2386500Y2617875D01*
X-2386500Y2063500D01*
X-1857125Y2063500D01*
X-1809500Y2111125D01*
X-1808578Y2475000D01*
X-1812256Y2512345D01*
X-1823149Y2548254D01*
X-1840838Y2581348D01*
X-1864644Y2610356D01*
X-1893652Y2634162D01*
X-1926746Y2651851D01*
X-1962655Y2662744D01*
X-2000000Y2666422D01*
X-2338875Y2665500D01*
X-2386500Y2617875D01*
X-2513500Y2617875D01*
X-2561125Y2665500D01*
X-2900000Y2666422D01*
X-2936500Y2662827D01*
X-2936500Y2936500D01*
X-63500Y2936500D01*
X-63500Y-2936500D01*
G37*
G04 #@! TD.AperFunction*
D16*
X19569000Y-9569000D02*
X-19569000Y-9569000D01*
X-19569000Y5668796D01*
X-15698500Y5668796D01*
X-15698500Y5531204D01*
X-15671657Y5396255D01*
X-15619003Y5269136D01*
X-15542561Y5154732D01*
X-15445268Y5057439D01*
X-15330864Y4980997D01*
X-15203745Y4928343D01*
X-15068796Y4901500D01*
X-14948077Y4901500D01*
X-14207200Y4160622D01*
X-14207199Y2480630D01*
X-14292561Y2395268D01*
X-14369003Y2280864D01*
X-14421657Y2153745D01*
X-14448500Y2018796D01*
X-14448500Y1881204D01*
X-14421657Y1746255D01*
X-14369003Y1619136D01*
X-14292561Y1504732D01*
X-14207206Y1419377D01*
X-14207199Y1419310D01*
X-14201105Y1357439D01*
X-14200584Y1352144D01*
X-14174440Y1265961D01*
X-14132997Y1188426D01*
X-14131986Y1186534D01*
X-14074852Y1116917D01*
X-14057407Y1102600D01*
X-8112008Y-4842800D01*
X-9769371Y-4842800D01*
X-9854732Y-4757439D01*
X-9969136Y-4680997D01*
X-10096255Y-4628343D01*
X-10231204Y-4601500D01*
X-10368796Y-4601500D01*
X-10503745Y-4628343D01*
X-10630864Y-4680997D01*
X-10745268Y-4757439D01*
X-10842561Y-4854732D01*
X-10919003Y-4969136D01*
X-10971657Y-5096255D01*
X-10998500Y-5231204D01*
X-10998500Y-5368796D01*
X-10971657Y-5503745D01*
X-10919003Y-5630864D01*
X-10842561Y-5745268D01*
X-10745268Y-5842561D01*
X-10630864Y-5919003D01*
X-10503745Y-5971657D01*
X-10368796Y-5998500D01*
X-10231204Y-5998500D01*
X-10096255Y-5971657D01*
X-9969136Y-5919003D01*
X-9854732Y-5842561D01*
X-9769371Y-5757200D01*
X-7289377Y-5757200D01*
X-6011618Y-7034960D01*
X-6045260Y-7057439D01*
X-6142553Y-7154732D01*
X-6218995Y-7269136D01*
X-6271649Y-7396255D01*
X-6298492Y-7531204D01*
X-6298492Y-7668796D01*
X-6271649Y-7803745D01*
X-6218995Y-7930864D01*
X-6142553Y-8045268D01*
X-6045260Y-8142561D01*
X-5930856Y-8219003D01*
X-5803737Y-8271657D01*
X-5668788Y-8298500D01*
X-5548070Y-8298500D01*
X-5539162Y-8307408D01*
X-5524845Y-8324853D01*
X-5507400Y-8339170D01*
X-5455229Y-8381987D01*
X-5412775Y-8404678D01*
X-5375801Y-8424441D01*
X-5289619Y-8450585D01*
X-5222452Y-8457200D01*
X-5222443Y-8457200D01*
X-5199993Y-8459411D01*
X-5177543Y-8457200D01*
X15977550Y-8457200D01*
X16000000Y-8459411D01*
X16022450Y-8457200D01*
X16022460Y-8457200D01*
X16089627Y-8450585D01*
X16175809Y-8424441D01*
X16255236Y-8381987D01*
X16324853Y-8324853D01*
X16339174Y-8307403D01*
X19207408Y-5439170D01*
X19224853Y-5424853D01*
X19239170Y-5407408D01*
X19281987Y-5355237D01*
X19320391Y-5283386D01*
X19324441Y-5275809D01*
X19350585Y-5189627D01*
X19357200Y-5122460D01*
X19357200Y-5122451D01*
X19359411Y-5100001D01*
X19357200Y-5077551D01*
X19357200Y-1742450D01*
X19359411Y-1720000D01*
X19357200Y-1697550D01*
X19357200Y-1697540D01*
X19350585Y-1630373D01*
X19324441Y-1544191D01*
X19281987Y-1464764D01*
X19275975Y-1457439D01*
X19239170Y-1412592D01*
X19224853Y-1395147D01*
X19207409Y-1380831D01*
X17926503Y-99926D01*
X17951000Y23229D01*
X17951000Y196771D01*
X17917144Y366978D01*
X17850732Y527310D01*
X17835859Y549569D01*
X17928865Y637980D01*
X18057123Y819794D01*
X18147446Y1023136D01*
X18164119Y1078126D01*
X18037954Y1253000D01*
X17197000Y1253000D01*
X17197000Y1233000D01*
X16943000Y1233000D01*
X16943000Y1253000D01*
X16923000Y1253000D01*
X16923000Y1507000D01*
X16943000Y1507000D01*
X16943000Y2349129D01*
X17197000Y2349129D01*
X17197000Y1507000D01*
X18037954Y1507000D01*
X18164119Y1681874D01*
X18147446Y1736864D01*
X18057123Y1940206D01*
X17928865Y2122020D01*
X17767601Y2275318D01*
X17579529Y2394210D01*
X17371876Y2474126D01*
X17197000Y2349129D01*
X16943000Y2349129D01*
X16768124Y2474126D01*
X16560471Y2394210D01*
X16372399Y2275318D01*
X16237598Y2147176D01*
X16217310Y2160732D01*
X16056978Y2227144D01*
X15886771Y2261000D01*
X15713229Y2261000D01*
X15543022Y2227144D01*
X15382690Y2160732D01*
X15238395Y2064318D01*
X15115682Y1941605D01*
X15019268Y1797310D01*
X14952856Y1636978D01*
X14919000Y1466771D01*
X14919000Y1293229D01*
X14952856Y1123022D01*
X15019268Y962690D01*
X15115682Y818395D01*
X15189077Y745000D01*
X15115682Y671605D01*
X15019268Y527310D01*
X14952856Y366978D01*
X14919000Y196771D01*
X14919000Y23229D01*
X14952856Y-146978D01*
X15019268Y-307310D01*
X15115682Y-451605D01*
X15189077Y-525000D01*
X15115682Y-598395D01*
X15019268Y-742690D01*
X14952856Y-903022D01*
X14947338Y-930761D01*
X14827332Y-810755D01*
X14871657Y-703745D01*
X14898500Y-568796D01*
X14898500Y-431204D01*
X14871657Y-296255D01*
X14819003Y-169136D01*
X14742561Y-54732D01*
X14645268Y42561D01*
X14530864Y119003D01*
X14403745Y171657D01*
X14268796Y198500D01*
X14131204Y198500D01*
X13996255Y171657D01*
X13869136Y119003D01*
X13754732Y42561D01*
X13657439Y-54732D01*
X13580997Y-169136D01*
X13528343Y-296255D01*
X13501500Y-431204D01*
X13501500Y-568796D01*
X13528343Y-703745D01*
X13580997Y-830864D01*
X13588157Y-841580D01*
X12867199Y-120622D01*
X12942553Y-45268D01*
X13018995Y69136D01*
X13071649Y196255D01*
X13098492Y331204D01*
X13098492Y468796D01*
X13071649Y603745D01*
X13018995Y730864D01*
X12942553Y845268D01*
X12845260Y942561D01*
X12730856Y1019003D01*
X12603737Y1071657D01*
X12468788Y1098500D01*
X12331196Y1098500D01*
X12196247Y1071657D01*
X12069128Y1019003D01*
X11954724Y942561D01*
X11857431Y845268D01*
X11780989Y730864D01*
X11728335Y603745D01*
X11701492Y468796D01*
X11701492Y331204D01*
X11728335Y196255D01*
X11780989Y69136D01*
X11857431Y-45268D01*
X11942792Y-130629D01*
X11942792Y-277542D01*
X11940581Y-299992D01*
X11942792Y-322442D01*
X11942792Y-322451D01*
X11949407Y-389618D01*
X11975551Y-475800D01*
X12018005Y-555227D01*
X12075139Y-624845D01*
X12092589Y-639166D01*
X14917157Y-3463735D01*
X14917157Y-4200000D01*
X14918910Y-4217800D01*
X-5144371Y-4217800D01*
X-5229732Y-4132439D01*
X-5344136Y-4055997D01*
X-5471255Y-4003343D01*
X-5606204Y-3976500D01*
X-5743796Y-3976500D01*
X-5878745Y-4003343D01*
X-6005864Y-4055997D01*
X-6120268Y-4132439D01*
X-6217561Y-4229732D01*
X-6294003Y-4344136D01*
X-6346657Y-4471255D01*
X-6352549Y-4500874D01*
X-6460826Y-4392597D01*
X-6475147Y-4375147D01*
X-6544764Y-4318013D01*
X-6624191Y-4275559D01*
X-6710373Y-4249415D01*
X-6777540Y-4242800D01*
X-6777550Y-4242800D01*
X-6800000Y-4240589D01*
X-6822450Y-4242800D01*
X-7418852Y-4242800D01*
X-9186652Y-2475000D01*
X-5088072Y-2475000D01*
X-5075812Y-2599482D01*
X-5039502Y-2719180D01*
X-4980537Y-2829494D01*
X-4901185Y-2926185D01*
X-4804494Y-3005537D01*
X-4694180Y-3064502D01*
X-4574482Y-3100812D01*
X-4450000Y-3113072D01*
X-4285750Y-3110000D01*
X-4127002Y-2951252D01*
X-4127002Y-3039173D01*
X-4142561Y-3054732D01*
X-4219003Y-3169136D01*
X-4271657Y-3296255D01*
X-4298500Y-3431204D01*
X-4298500Y-3568796D01*
X-4271657Y-3703745D01*
X-4219003Y-3830864D01*
X-4142561Y-3945268D01*
X-4045268Y-4042561D01*
X-3930864Y-4119003D01*
X-3803745Y-4171657D01*
X-3668796Y-4198500D01*
X-3531204Y-4198500D01*
X-3396255Y-4171657D01*
X-3269136Y-4119003D01*
X-3154732Y-4042561D01*
X-3069371Y-3957200D01*
X477550Y-3957200D01*
X500000Y-3959411D01*
X522450Y-3957200D01*
X522460Y-3957200D01*
X589627Y-3950585D01*
X675809Y-3924441D01*
X755236Y-3881987D01*
X824853Y-3824853D01*
X839174Y-3807403D01*
X1207409Y-3439169D01*
X1224853Y-3424853D01*
X1239170Y-3407408D01*
X1260843Y-3381000D01*
X3000000Y-3381000D01*
X3074329Y-3373679D01*
X3145802Y-3351998D01*
X3211672Y-3316790D01*
X3269408Y-3269408D01*
X3316790Y-3211672D01*
X3351998Y-3145802D01*
X3370691Y-3084180D01*
X3425518Y-3100812D01*
X3550000Y-3113072D01*
X3714250Y-3110000D01*
X3873000Y-2951250D01*
X3873000Y-2127000D01*
X4127000Y-2127000D01*
X4127000Y-2951250D01*
X4285750Y-3110000D01*
X4450000Y-3113072D01*
X4574482Y-3100812D01*
X4694180Y-3064502D01*
X4804494Y-3005537D01*
X4901185Y-2926185D01*
X4980537Y-2829494D01*
X5039502Y-2719180D01*
X5075812Y-2599482D01*
X5088072Y-2475000D01*
X5085000Y-2285750D01*
X4926250Y-2127000D01*
X4127000Y-2127000D01*
X3873000Y-2127000D01*
X3853000Y-2127000D01*
X3853000Y-1873000D01*
X3873000Y-1873000D01*
X3873000Y-1048750D01*
X4127000Y-1048750D01*
X4127000Y-1873000D01*
X4926250Y-1873000D01*
X5085000Y-1714250D01*
X5088072Y-1525000D01*
X5075812Y-1400518D01*
X5039502Y-1280820D01*
X4980537Y-1170506D01*
X4901185Y-1073815D01*
X4804494Y-994463D01*
X4694180Y-935498D01*
X4574482Y-899188D01*
X4450000Y-886928D01*
X4285750Y-890000D01*
X4127000Y-1048750D01*
X3873000Y-1048750D01*
X3714250Y-890000D01*
X3550000Y-886928D01*
X3425518Y-899188D01*
X3381000Y-912692D01*
X3381000Y912692D01*
X3425518Y899188D01*
X3550000Y886928D01*
X3714250Y890000D01*
X3873000Y1048750D01*
X3873000Y1873000D01*
X4127000Y1873000D01*
X4127000Y1048750D01*
X4285750Y890000D01*
X4450000Y886928D01*
X4574482Y899188D01*
X4694180Y935498D01*
X4804494Y994463D01*
X4901185Y1073815D01*
X4980537Y1170506D01*
X5039502Y1280820D01*
X5075812Y1400518D01*
X5088072Y1525000D01*
X5085000Y1714250D01*
X4926250Y1873000D01*
X4127000Y1873000D01*
X3873000Y1873000D01*
X3853000Y1873000D01*
X3853000Y2127000D01*
X3873000Y2127000D01*
X3873000Y2951250D01*
X4127000Y2951250D01*
X4127000Y2127000D01*
X4926250Y2127000D01*
X5085000Y2285750D01*
X5088072Y2475000D01*
X5075812Y2599482D01*
X5039502Y2719180D01*
X4980537Y2829494D01*
X4901185Y2926185D01*
X4804494Y3005537D01*
X4694180Y3064502D01*
X4574482Y3100812D01*
X4450000Y3113072D01*
X4285750Y3110000D01*
X4127000Y2951250D01*
X3873000Y2951250D01*
X3714250Y3110000D01*
X3550000Y3113072D01*
X3425518Y3100812D01*
X3370691Y3084180D01*
X3351998Y3145802D01*
X3316790Y3211672D01*
X3269408Y3269408D01*
X3211672Y3316790D01*
X3145802Y3351998D01*
X3074329Y3373679D01*
X3000000Y3381000D01*
X1421666Y3381000D01*
X1398581Y3424191D01*
X1381987Y3455237D01*
X1339170Y3507408D01*
X1324853Y3524853D01*
X1307409Y3539169D01*
X939174Y3907403D01*
X924853Y3924853D01*
X855236Y3981987D01*
X775809Y4024441D01*
X689627Y4050585D01*
X622460Y4057200D01*
X622450Y4057200D01*
X600000Y4059411D01*
X577550Y4057200D01*
X-2501500Y4057200D01*
X-2501500Y4168796D01*
X-2528343Y4303745D01*
X-2580997Y4430864D01*
X-2657439Y4545268D01*
X-2754732Y4642561D01*
X-2869136Y4719003D01*
X-2996255Y4771657D01*
X-3131204Y4798500D01*
X-3268796Y4798500D01*
X-3403745Y4771657D01*
X-3530864Y4719003D01*
X-3645268Y4642561D01*
X-3742561Y4545268D01*
X-3819003Y4430864D01*
X-3871657Y4303745D01*
X-3898500Y4168796D01*
X-3898500Y4031204D01*
X-3871657Y3896255D01*
X-3819003Y3769136D01*
X-3742561Y3654732D01*
X-3645268Y3557439D01*
X-3530864Y3480997D01*
X-3403745Y3428343D01*
X-3268796Y3401500D01*
X-3148078Y3401500D01*
X-3109567Y3362990D01*
X-3145802Y3351998D01*
X-3211672Y3316790D01*
X-3269408Y3269408D01*
X-3316790Y3211672D01*
X-3351998Y3145802D01*
X-3370691Y3084180D01*
X-3425518Y3100812D01*
X-3550000Y3113072D01*
X-3714250Y3110000D01*
X-3873000Y2951250D01*
X-3873000Y2127000D01*
X-3853000Y2127000D01*
X-3853000Y1873000D01*
X-3873000Y1873000D01*
X-3873000Y1048750D01*
X-3824250Y1000000D01*
X-3873000Y951250D01*
X-3873000Y127000D01*
X-3853000Y127000D01*
X-3853000Y-127000D01*
X-3873000Y-127000D01*
X-3873000Y-951250D01*
X-3824250Y-1000000D01*
X-3873000Y-1048750D01*
X-3873000Y-1873000D01*
X-3853000Y-1873000D01*
X-3853000Y-2127000D01*
X-3873000Y-2127000D01*
X-3873000Y-2147000D01*
X-4127000Y-2147000D01*
X-4127000Y-2127000D01*
X-4926250Y-2127000D01*
X-5085000Y-2285750D01*
X-5088072Y-2475000D01*
X-9186652Y-2475000D01*
X-11186652Y-475000D01*
X-5088072Y-475000D01*
X-5075812Y-599482D01*
X-5039502Y-719180D01*
X-4980537Y-829494D01*
X-4901185Y-926185D01*
X-4811241Y-1000000D01*
X-4901185Y-1073815D01*
X-4980537Y-1170506D01*
X-5039502Y-1280820D01*
X-5075812Y-1400518D01*
X-5088072Y-1525000D01*
X-5085000Y-1714250D01*
X-4926250Y-1873000D01*
X-4127000Y-1873000D01*
X-4127000Y-1048750D01*
X-4175750Y-1000000D01*
X-4127000Y-951250D01*
X-4127000Y-127000D01*
X-4926250Y-127000D01*
X-5085000Y-285750D01*
X-5088072Y-475000D01*
X-11186652Y-475000D01*
X-13186652Y1525000D01*
X-5088072Y1525000D01*
X-5075812Y1400518D01*
X-5039502Y1280820D01*
X-4980537Y1170506D01*
X-4901185Y1073815D01*
X-4811241Y1000000D01*
X-4901185Y926185D01*
X-4980537Y829494D01*
X-5039502Y719180D01*
X-5075812Y599482D01*
X-5088072Y475000D01*
X-5085000Y285750D01*
X-4926250Y127000D01*
X-4127000Y127000D01*
X-4127000Y951250D01*
X-4175750Y1000000D01*
X-4127000Y1048750D01*
X-4127000Y1873000D01*
X-4926250Y1873000D01*
X-5085000Y1714250D01*
X-5088072Y1525000D01*
X-13186652Y1525000D01*
X-13190995Y1529342D01*
X-13130997Y1619136D01*
X-13078343Y1746255D01*
X-13051500Y1881204D01*
X-13051500Y2018796D01*
X-13078343Y2153745D01*
X-13130997Y2280864D01*
X-13207439Y2395268D01*
X-13287171Y2475000D01*
X-5088072Y2475000D01*
X-5085000Y2285750D01*
X-4926250Y2127000D01*
X-4127000Y2127000D01*
X-4127000Y2951250D01*
X-4285750Y3110000D01*
X-4450000Y3113072D01*
X-4574482Y3100812D01*
X-4694180Y3064502D01*
X-4804494Y3005537D01*
X-4901185Y2926185D01*
X-4980537Y2829494D01*
X-5039502Y2719180D01*
X-5075812Y2599482D01*
X-5088072Y2475000D01*
X-13287171Y2475000D01*
X-13292800Y2480629D01*
X-13292800Y4327550D01*
X-13290589Y4350000D01*
X-13292800Y4372450D01*
X-13292800Y4372460D01*
X-13299415Y4439627D01*
X-13325559Y4525809D01*
X-13368013Y4605236D01*
X-13425147Y4674853D01*
X-13442591Y4689169D01*
X-14301500Y5548077D01*
X-14301500Y5668796D01*
X-14328343Y5803745D01*
X-14380997Y5930864D01*
X-14457439Y6045268D01*
X-14554732Y6142561D01*
X-14669136Y6219003D01*
X-14796255Y6271657D01*
X-14931204Y6298500D01*
X-15068796Y6298500D01*
X-15203745Y6271657D01*
X-15330864Y6219003D01*
X-15445268Y6142561D01*
X-15542561Y6045268D01*
X-15619003Y5930864D01*
X-15671657Y5803745D01*
X-15698500Y5668796D01*
X-19569000Y5668796D01*
X-19569000Y9569000D01*
X19569001Y9569000D01*
X19569000Y-9569000D01*
G04 #@! TA.AperFunction,Conductor*
D15*
G36*
X19569000Y-9569000D02*
G01*
X-19569000Y-9569000D01*
X-19569000Y5668796D01*
X-15698500Y5668796D01*
X-15698500Y5531204D01*
X-15671657Y5396255D01*
X-15619003Y5269136D01*
X-15542561Y5154732D01*
X-15445268Y5057439D01*
X-15330864Y4980997D01*
X-15203745Y4928343D01*
X-15068796Y4901500D01*
X-14948077Y4901500D01*
X-14207200Y4160622D01*
X-14207199Y2480630D01*
X-14292561Y2395268D01*
X-14369003Y2280864D01*
X-14421657Y2153745D01*
X-14448500Y2018796D01*
X-14448500Y1881204D01*
X-14421657Y1746255D01*
X-14369003Y1619136D01*
X-14292561Y1504732D01*
X-14207206Y1419377D01*
X-14207199Y1419310D01*
X-14201105Y1357439D01*
X-14200584Y1352144D01*
X-14174440Y1265961D01*
X-14132997Y1188426D01*
X-14131986Y1186534D01*
X-14074852Y1116917D01*
X-14057407Y1102600D01*
X-8112008Y-4842800D01*
X-9769371Y-4842800D01*
X-9854732Y-4757439D01*
X-9969136Y-4680997D01*
X-10096255Y-4628343D01*
X-10231204Y-4601500D01*
X-10368796Y-4601500D01*
X-10503745Y-4628343D01*
X-10630864Y-4680997D01*
X-10745268Y-4757439D01*
X-10842561Y-4854732D01*
X-10919003Y-4969136D01*
X-10971657Y-5096255D01*
X-10998500Y-5231204D01*
X-10998500Y-5368796D01*
X-10971657Y-5503745D01*
X-10919003Y-5630864D01*
X-10842561Y-5745268D01*
X-10745268Y-5842561D01*
X-10630864Y-5919003D01*
X-10503745Y-5971657D01*
X-10368796Y-5998500D01*
X-10231204Y-5998500D01*
X-10096255Y-5971657D01*
X-9969136Y-5919003D01*
X-9854732Y-5842561D01*
X-9769371Y-5757200D01*
X-7289377Y-5757200D01*
X-6011618Y-7034960D01*
X-6045260Y-7057439D01*
X-6142553Y-7154732D01*
X-6218995Y-7269136D01*
X-6271649Y-7396255D01*
X-6298492Y-7531204D01*
X-6298492Y-7668796D01*
X-6271649Y-7803745D01*
X-6218995Y-7930864D01*
X-6142553Y-8045268D01*
X-6045260Y-8142561D01*
X-5930856Y-8219003D01*
X-5803737Y-8271657D01*
X-5668788Y-8298500D01*
X-5548070Y-8298500D01*
X-5539162Y-8307408D01*
X-5524845Y-8324853D01*
X-5507400Y-8339170D01*
X-5455229Y-8381987D01*
X-5412775Y-8404678D01*
X-5375801Y-8424441D01*
X-5289619Y-8450585D01*
X-5222452Y-8457200D01*
X-5222443Y-8457200D01*
X-5199993Y-8459411D01*
X-5177543Y-8457200D01*
X15977550Y-8457200D01*
X16000000Y-8459411D01*
X16022450Y-8457200D01*
X16022460Y-8457200D01*
X16089627Y-8450585D01*
X16175809Y-8424441D01*
X16255236Y-8381987D01*
X16324853Y-8324853D01*
X16339174Y-8307403D01*
X19207408Y-5439170D01*
X19224853Y-5424853D01*
X19239170Y-5407408D01*
X19281987Y-5355237D01*
X19320391Y-5283386D01*
X19324441Y-5275809D01*
X19350585Y-5189627D01*
X19357200Y-5122460D01*
X19357200Y-5122451D01*
X19359411Y-5100001D01*
X19357200Y-5077551D01*
X19357200Y-1742450D01*
X19359411Y-1720000D01*
X19357200Y-1697550D01*
X19357200Y-1697540D01*
X19350585Y-1630373D01*
X19324441Y-1544191D01*
X19281987Y-1464764D01*
X19275975Y-1457439D01*
X19239170Y-1412592D01*
X19224853Y-1395147D01*
X19207409Y-1380831D01*
X17926503Y-99926D01*
X17951000Y23229D01*
X17951000Y196771D01*
X17917144Y366978D01*
X17850732Y527310D01*
X17835859Y549569D01*
X17928865Y637980D01*
X18057123Y819794D01*
X18147446Y1023136D01*
X18164119Y1078126D01*
X18037954Y1253000D01*
X17197000Y1253000D01*
X17197000Y1233000D01*
X16943000Y1233000D01*
X16943000Y1253000D01*
X16923000Y1253000D01*
X16923000Y1507000D01*
X16943000Y1507000D01*
X16943000Y2349129D01*
X17197000Y2349129D01*
X17197000Y1507000D01*
X18037954Y1507000D01*
X18164119Y1681874D01*
X18147446Y1736864D01*
X18057123Y1940206D01*
X17928865Y2122020D01*
X17767601Y2275318D01*
X17579529Y2394210D01*
X17371876Y2474126D01*
X17197000Y2349129D01*
X16943000Y2349129D01*
X16768124Y2474126D01*
X16560471Y2394210D01*
X16372399Y2275318D01*
X16237598Y2147176D01*
X16217310Y2160732D01*
X16056978Y2227144D01*
X15886771Y2261000D01*
X15713229Y2261000D01*
X15543022Y2227144D01*
X15382690Y2160732D01*
X15238395Y2064318D01*
X15115682Y1941605D01*
X15019268Y1797310D01*
X14952856Y1636978D01*
X14919000Y1466771D01*
X14919000Y1293229D01*
X14952856Y1123022D01*
X15019268Y962690D01*
X15115682Y818395D01*
X15189077Y745000D01*
X15115682Y671605D01*
X15019268Y527310D01*
X14952856Y366978D01*
X14919000Y196771D01*
X14919000Y23229D01*
X14952856Y-146978D01*
X15019268Y-307310D01*
X15115682Y-451605D01*
X15189077Y-525000D01*
X15115682Y-598395D01*
X15019268Y-742690D01*
X14952856Y-903022D01*
X14947338Y-930761D01*
X14827332Y-810755D01*
X14871657Y-703745D01*
X14898500Y-568796D01*
X14898500Y-431204D01*
X14871657Y-296255D01*
X14819003Y-169136D01*
X14742561Y-54732D01*
X14645268Y42561D01*
X14530864Y119003D01*
X14403745Y171657D01*
X14268796Y198500D01*
X14131204Y198500D01*
X13996255Y171657D01*
X13869136Y119003D01*
X13754732Y42561D01*
X13657439Y-54732D01*
X13580997Y-169136D01*
X13528343Y-296255D01*
X13501500Y-431204D01*
X13501500Y-568796D01*
X13528343Y-703745D01*
X13580997Y-830864D01*
X13588157Y-841580D01*
X12867199Y-120622D01*
X12942553Y-45268D01*
X13018995Y69136D01*
X13071649Y196255D01*
X13098492Y331204D01*
X13098492Y468796D01*
X13071649Y603745D01*
X13018995Y730864D01*
X12942553Y845268D01*
X12845260Y942561D01*
X12730856Y1019003D01*
X12603737Y1071657D01*
X12468788Y1098500D01*
X12331196Y1098500D01*
X12196247Y1071657D01*
X12069128Y1019003D01*
X11954724Y942561D01*
X11857431Y845268D01*
X11780989Y730864D01*
X11728335Y603745D01*
X11701492Y468796D01*
X11701492Y331204D01*
X11728335Y196255D01*
X11780989Y69136D01*
X11857431Y-45268D01*
X11942792Y-130629D01*
X11942792Y-277542D01*
X11940581Y-299992D01*
X11942792Y-322442D01*
X11942792Y-322451D01*
X11949407Y-389618D01*
X11975551Y-475800D01*
X12018005Y-555227D01*
X12075139Y-624845D01*
X12092589Y-639166D01*
X14917157Y-3463735D01*
X14917157Y-4200000D01*
X14918910Y-4217800D01*
X-5144371Y-4217800D01*
X-5229732Y-4132439D01*
X-5344136Y-4055997D01*
X-5471255Y-4003343D01*
X-5606204Y-3976500D01*
X-5743796Y-3976500D01*
X-5878745Y-4003343D01*
X-6005864Y-4055997D01*
X-6120268Y-4132439D01*
X-6217561Y-4229732D01*
X-6294003Y-4344136D01*
X-6346657Y-4471255D01*
X-6352549Y-4500874D01*
X-6460826Y-4392597D01*
X-6475147Y-4375147D01*
X-6544764Y-4318013D01*
X-6624191Y-4275559D01*
X-6710373Y-4249415D01*
X-6777540Y-4242800D01*
X-6777550Y-4242800D01*
X-6800000Y-4240589D01*
X-6822450Y-4242800D01*
X-7418852Y-4242800D01*
X-9186652Y-2475000D01*
X-5088072Y-2475000D01*
X-5075812Y-2599482D01*
X-5039502Y-2719180D01*
X-4980537Y-2829494D01*
X-4901185Y-2926185D01*
X-4804494Y-3005537D01*
X-4694180Y-3064502D01*
X-4574482Y-3100812D01*
X-4450000Y-3113072D01*
X-4285750Y-3110000D01*
X-4127002Y-2951252D01*
X-4127002Y-3039173D01*
X-4142561Y-3054732D01*
X-4219003Y-3169136D01*
X-4271657Y-3296255D01*
X-4298500Y-3431204D01*
X-4298500Y-3568796D01*
X-4271657Y-3703745D01*
X-4219003Y-3830864D01*
X-4142561Y-3945268D01*
X-4045268Y-4042561D01*
X-3930864Y-4119003D01*
X-3803745Y-4171657D01*
X-3668796Y-4198500D01*
X-3531204Y-4198500D01*
X-3396255Y-4171657D01*
X-3269136Y-4119003D01*
X-3154732Y-4042561D01*
X-3069371Y-3957200D01*
X477550Y-3957200D01*
X500000Y-3959411D01*
X522450Y-3957200D01*
X522460Y-3957200D01*
X589627Y-3950585D01*
X675809Y-3924441D01*
X755236Y-3881987D01*
X824853Y-3824853D01*
X839174Y-3807403D01*
X1207409Y-3439169D01*
X1224853Y-3424853D01*
X1239170Y-3407408D01*
X1260843Y-3381000D01*
X3000000Y-3381000D01*
X3074329Y-3373679D01*
X3145802Y-3351998D01*
X3211672Y-3316790D01*
X3269408Y-3269408D01*
X3316790Y-3211672D01*
X3351998Y-3145802D01*
X3370691Y-3084180D01*
X3425518Y-3100812D01*
X3550000Y-3113072D01*
X3714250Y-3110000D01*
X3873000Y-2951250D01*
X3873000Y-2127000D01*
X4127000Y-2127000D01*
X4127000Y-2951250D01*
X4285750Y-3110000D01*
X4450000Y-3113072D01*
X4574482Y-3100812D01*
X4694180Y-3064502D01*
X4804494Y-3005537D01*
X4901185Y-2926185D01*
X4980537Y-2829494D01*
X5039502Y-2719180D01*
X5075812Y-2599482D01*
X5088072Y-2475000D01*
X5085000Y-2285750D01*
X4926250Y-2127000D01*
X4127000Y-2127000D01*
X3873000Y-2127000D01*
X3853000Y-2127000D01*
X3853000Y-1873000D01*
X3873000Y-1873000D01*
X3873000Y-1048750D01*
X4127000Y-1048750D01*
X4127000Y-1873000D01*
X4926250Y-1873000D01*
X5085000Y-1714250D01*
X5088072Y-1525000D01*
X5075812Y-1400518D01*
X5039502Y-1280820D01*
X4980537Y-1170506D01*
X4901185Y-1073815D01*
X4804494Y-994463D01*
X4694180Y-935498D01*
X4574482Y-899188D01*
X4450000Y-886928D01*
X4285750Y-890000D01*
X4127000Y-1048750D01*
X3873000Y-1048750D01*
X3714250Y-890000D01*
X3550000Y-886928D01*
X3425518Y-899188D01*
X3381000Y-912692D01*
X3381000Y912692D01*
X3425518Y899188D01*
X3550000Y886928D01*
X3714250Y890000D01*
X3873000Y1048750D01*
X3873000Y1873000D01*
X4127000Y1873000D01*
X4127000Y1048750D01*
X4285750Y890000D01*
X4450000Y886928D01*
X4574482Y899188D01*
X4694180Y935498D01*
X4804494Y994463D01*
X4901185Y1073815D01*
X4980537Y1170506D01*
X5039502Y1280820D01*
X5075812Y1400518D01*
X5088072Y1525000D01*
X5085000Y1714250D01*
X4926250Y1873000D01*
X4127000Y1873000D01*
X3873000Y1873000D01*
X3853000Y1873000D01*
X3853000Y2127000D01*
X3873000Y2127000D01*
X3873000Y2951250D01*
X4127000Y2951250D01*
X4127000Y2127000D01*
X4926250Y2127000D01*
X5085000Y2285750D01*
X5088072Y2475000D01*
X5075812Y2599482D01*
X5039502Y2719180D01*
X4980537Y2829494D01*
X4901185Y2926185D01*
X4804494Y3005537D01*
X4694180Y3064502D01*
X4574482Y3100812D01*
X4450000Y3113072D01*
X4285750Y3110000D01*
X4127000Y2951250D01*
X3873000Y2951250D01*
X3714250Y3110000D01*
X3550000Y3113072D01*
X3425518Y3100812D01*
X3370691Y3084180D01*
X3351998Y3145802D01*
X3316790Y3211672D01*
X3269408Y3269408D01*
X3211672Y3316790D01*
X3145802Y3351998D01*
X3074329Y3373679D01*
X3000000Y3381000D01*
X1421666Y3381000D01*
X1398581Y3424191D01*
X1381987Y3455237D01*
X1339170Y3507408D01*
X1324853Y3524853D01*
X1307409Y3539169D01*
X939174Y3907403D01*
X924853Y3924853D01*
X855236Y3981987D01*
X775809Y4024441D01*
X689627Y4050585D01*
X622460Y4057200D01*
X622450Y4057200D01*
X600000Y4059411D01*
X577550Y4057200D01*
X-2501500Y4057200D01*
X-2501500Y4168796D01*
X-2528343Y4303745D01*
X-2580997Y4430864D01*
X-2657439Y4545268D01*
X-2754732Y4642561D01*
X-2869136Y4719003D01*
X-2996255Y4771657D01*
X-3131204Y4798500D01*
X-3268796Y4798500D01*
X-3403745Y4771657D01*
X-3530864Y4719003D01*
X-3645268Y4642561D01*
X-3742561Y4545268D01*
X-3819003Y4430864D01*
X-3871657Y4303745D01*
X-3898500Y4168796D01*
X-3898500Y4031204D01*
X-3871657Y3896255D01*
X-3819003Y3769136D01*
X-3742561Y3654732D01*
X-3645268Y3557439D01*
X-3530864Y3480997D01*
X-3403745Y3428343D01*
X-3268796Y3401500D01*
X-3148078Y3401500D01*
X-3109567Y3362990D01*
X-3145802Y3351998D01*
X-3211672Y3316790D01*
X-3269408Y3269408D01*
X-3316790Y3211672D01*
X-3351998Y3145802D01*
X-3370691Y3084180D01*
X-3425518Y3100812D01*
X-3550000Y3113072D01*
X-3714250Y3110000D01*
X-3873000Y2951250D01*
X-3873000Y2127000D01*
X-3853000Y2127000D01*
X-3853000Y1873000D01*
X-3873000Y1873000D01*
X-3873000Y1048750D01*
X-3824250Y1000000D01*
X-3873000Y951250D01*
X-3873000Y127000D01*
X-3853000Y127000D01*
X-3853000Y-127000D01*
X-3873000Y-127000D01*
X-3873000Y-951250D01*
X-3824250Y-1000000D01*
X-3873000Y-1048750D01*
X-3873000Y-1873000D01*
X-3853000Y-1873000D01*
X-3853000Y-2127000D01*
X-3873000Y-2127000D01*
X-3873000Y-2147000D01*
X-4127000Y-2147000D01*
X-4127000Y-2127000D01*
X-4926250Y-2127000D01*
X-5085000Y-2285750D01*
X-5088072Y-2475000D01*
X-9186652Y-2475000D01*
X-11186652Y-475000D01*
X-5088072Y-475000D01*
X-5075812Y-599482D01*
X-5039502Y-719180D01*
X-4980537Y-829494D01*
X-4901185Y-926185D01*
X-4811241Y-1000000D01*
X-4901185Y-1073815D01*
X-4980537Y-1170506D01*
X-5039502Y-1280820D01*
X-5075812Y-1400518D01*
X-5088072Y-1525000D01*
X-5085000Y-1714250D01*
X-4926250Y-1873000D01*
X-4127000Y-1873000D01*
X-4127000Y-1048750D01*
X-4175750Y-1000000D01*
X-4127000Y-951250D01*
X-4127000Y-127000D01*
X-4926250Y-127000D01*
X-5085000Y-285750D01*
X-5088072Y-475000D01*
X-11186652Y-475000D01*
X-13186652Y1525000D01*
X-5088072Y1525000D01*
X-5075812Y1400518D01*
X-5039502Y1280820D01*
X-4980537Y1170506D01*
X-4901185Y1073815D01*
X-4811241Y1000000D01*
X-4901185Y926185D01*
X-4980537Y829494D01*
X-5039502Y719180D01*
X-5075812Y599482D01*
X-5088072Y475000D01*
X-5085000Y285750D01*
X-4926250Y127000D01*
X-4127000Y127000D01*
X-4127000Y951250D01*
X-4175750Y1000000D01*
X-4127000Y1048750D01*
X-4127000Y1873000D01*
X-4926250Y1873000D01*
X-5085000Y1714250D01*
X-5088072Y1525000D01*
X-13186652Y1525000D01*
X-13190995Y1529342D01*
X-13130997Y1619136D01*
X-13078343Y1746255D01*
X-13051500Y1881204D01*
X-13051500Y2018796D01*
X-13078343Y2153745D01*
X-13130997Y2280864D01*
X-13207439Y2395268D01*
X-13287171Y2475000D01*
X-5088072Y2475000D01*
X-5085000Y2285750D01*
X-4926250Y2127000D01*
X-4127000Y2127000D01*
X-4127000Y2951250D01*
X-4285750Y3110000D01*
X-4450000Y3113072D01*
X-4574482Y3100812D01*
X-4694180Y3064502D01*
X-4804494Y3005537D01*
X-4901185Y2926185D01*
X-4980537Y2829494D01*
X-5039502Y2719180D01*
X-5075812Y2599482D01*
X-5088072Y2475000D01*
X-13287171Y2475000D01*
X-13292800Y2480629D01*
X-13292800Y4327550D01*
X-13290589Y4350000D01*
X-13292800Y4372450D01*
X-13292800Y4372460D01*
X-13299415Y4439627D01*
X-13325559Y4525809D01*
X-13368013Y4605236D01*
X-13425147Y4674853D01*
X-13442591Y4689169D01*
X-14301500Y5548077D01*
X-14301500Y5668796D01*
X-14328343Y5803745D01*
X-14380997Y5930864D01*
X-14457439Y6045268D01*
X-14554732Y6142561D01*
X-14669136Y6219003D01*
X-14796255Y6271657D01*
X-14931204Y6298500D01*
X-15068796Y6298500D01*
X-15203745Y6271657D01*
X-15330864Y6219003D01*
X-15445268Y6142561D01*
X-15542561Y6045268D01*
X-15619003Y5930864D01*
X-15671657Y5803745D01*
X-15698500Y5668796D01*
X-19569000Y5668796D01*
X-19569000Y9569000D01*
X19569001Y9569000D01*
X19569000Y-9569000D01*
G37*
G04 #@! TD.AperFunction*
D14*
X2936500Y2660818D02*
X2900000Y2664412D01*
X2560625Y2663500D01*
X2513500Y2616375D01*
X2513500Y2063500D01*
X2533500Y2063500D01*
X2533500Y1936500D01*
X2513500Y1936500D01*
X2513500Y1383625D01*
X2560625Y1336500D01*
X2900000Y1335588D01*
X2936500Y1339182D01*
X2936500Y-1339182D01*
X2900000Y-1335588D01*
X2560625Y-1336500D01*
X2513500Y-1383625D01*
X2513500Y-1936500D01*
X2533500Y-1936500D01*
X2533500Y-2063500D01*
X2513500Y-2063500D01*
X2513500Y-2616375D01*
X2560625Y-2663500D01*
X2900000Y-2664412D01*
X2936500Y-2660818D01*
X2936500Y-2936500D01*
X215900Y-2936500D01*
X215900Y-2475000D01*
X1810588Y-2475000D01*
X1814227Y-2511952D01*
X1825006Y-2547485D01*
X1842510Y-2580232D01*
X1866065Y-2608935D01*
X1894768Y-2632490D01*
X1927515Y-2649994D01*
X1963048Y-2660773D01*
X2000000Y-2664412D01*
X2339375Y-2663500D01*
X2386500Y-2616375D01*
X2386500Y-2063500D01*
X1858625Y-2063500D01*
X1811500Y-2110625D01*
X1810588Y-2475000D01*
X215900Y-2475000D01*
X215900Y-1525000D01*
X1810588Y-1525000D01*
X1811500Y-1889375D01*
X1858625Y-1936500D01*
X2386500Y-1936500D01*
X2386500Y-1383625D01*
X2339375Y-1336500D01*
X2000000Y-1335588D01*
X1963048Y-1339227D01*
X1927515Y-1350006D01*
X1894768Y-1367510D01*
X1866065Y-1391065D01*
X1842510Y-1419768D01*
X1825006Y-1452515D01*
X1814227Y-1488048D01*
X1810588Y-1525000D01*
X215900Y-1525000D01*
X215900Y1525000D01*
X1810588Y1525000D01*
X1814227Y1488048D01*
X1825006Y1452515D01*
X1842510Y1419768D01*
X1866065Y1391065D01*
X1894768Y1367510D01*
X1927515Y1350006D01*
X1963048Y1339227D01*
X2000000Y1335588D01*
X2339375Y1336500D01*
X2386500Y1383625D01*
X2386500Y1936500D01*
X1858625Y1936500D01*
X1811500Y1889375D01*
X1810588Y1525000D01*
X215900Y1525000D01*
X215900Y2475000D01*
X1810588Y2475000D01*
X1811500Y2110625D01*
X1858625Y2063500D01*
X2386500Y2063500D01*
X2386500Y2616375D01*
X2339375Y2663500D01*
X2000000Y2664412D01*
X1963048Y2660773D01*
X1927515Y2649994D01*
X1894768Y2632490D01*
X1866065Y2608935D01*
X1842510Y2580232D01*
X1825006Y2547485D01*
X1814227Y2511952D01*
X1810588Y2475000D01*
X215900Y2475000D01*
X215900Y2936500D01*
X2936500Y2936500D01*
X2936500Y2660818D01*
G04 #@! TA.AperFunction,Conductor*
D15*
G36*
X2936500Y2660818D02*
G01*
X2900000Y2664412D01*
X2560625Y2663500D01*
X2513500Y2616375D01*
X2513500Y2063500D01*
X2533500Y2063500D01*
X2533500Y1936500D01*
X2513500Y1936500D01*
X2513500Y1383625D01*
X2560625Y1336500D01*
X2900000Y1335588D01*
X2936500Y1339182D01*
X2936500Y-1339182D01*
X2900000Y-1335588D01*
X2560625Y-1336500D01*
X2513500Y-1383625D01*
X2513500Y-1936500D01*
X2533500Y-1936500D01*
X2533500Y-2063500D01*
X2513500Y-2063500D01*
X2513500Y-2616375D01*
X2560625Y-2663500D01*
X2900000Y-2664412D01*
X2936500Y-2660818D01*
X2936500Y-2936500D01*
X215900Y-2936500D01*
X215900Y-2475000D01*
X1810588Y-2475000D01*
X1814227Y-2511952D01*
X1825006Y-2547485D01*
X1842510Y-2580232D01*
X1866065Y-2608935D01*
X1894768Y-2632490D01*
X1927515Y-2649994D01*
X1963048Y-2660773D01*
X2000000Y-2664412D01*
X2339375Y-2663500D01*
X2386500Y-2616375D01*
X2386500Y-2063500D01*
X1858625Y-2063500D01*
X1811500Y-2110625D01*
X1810588Y-2475000D01*
X215900Y-2475000D01*
X215900Y-1525000D01*
X1810588Y-1525000D01*
X1811500Y-1889375D01*
X1858625Y-1936500D01*
X2386500Y-1936500D01*
X2386500Y-1383625D01*
X2339375Y-1336500D01*
X2000000Y-1335588D01*
X1963048Y-1339227D01*
X1927515Y-1350006D01*
X1894768Y-1367510D01*
X1866065Y-1391065D01*
X1842510Y-1419768D01*
X1825006Y-1452515D01*
X1814227Y-1488048D01*
X1810588Y-1525000D01*
X215900Y-1525000D01*
X215900Y1525000D01*
X1810588Y1525000D01*
X1814227Y1488048D01*
X1825006Y1452515D01*
X1842510Y1419768D01*
X1866065Y1391065D01*
X1894768Y1367510D01*
X1927515Y1350006D01*
X1963048Y1339227D01*
X2000000Y1335588D01*
X2339375Y1336500D01*
X2386500Y1383625D01*
X2386500Y1936500D01*
X1858625Y1936500D01*
X1811500Y1889375D01*
X1810588Y1525000D01*
X215900Y1525000D01*
X215900Y2475000D01*
X1810588Y2475000D01*
X1811500Y2110625D01*
X1858625Y2063500D01*
X2386500Y2063500D01*
X2386500Y2616375D01*
X2339375Y2663500D01*
X2000000Y2664412D01*
X1963048Y2660773D01*
X1927515Y2649994D01*
X1894768Y2632490D01*
X1866065Y2608935D01*
X1842510Y2580232D01*
X1825006Y2547485D01*
X1814227Y2511952D01*
X1810588Y2475000D01*
X215900Y2475000D01*
X215900Y2936500D01*
X2936500Y2936500D01*
X2936500Y2660818D01*
G37*
G04 #@! TD.AperFunction*
M02*
