M48
; DRILL file {KiCad (5.1.7)-1} date 12/02/20 09:59:45
; FORMAT={-:-/ absolute / inch / decimal}
; #@! TF.CreationDate,2020-12-02T09:59:45-08:00
; #@! TF.GenerationSoftware,Kicad,Pcbnew,(5.1.7)-1
FMAT,2
INCH
T1C0.0130
T2C0.0276
%
G90
G05
T1
X-0.5906Y0.2205
X-0.5591Y-0.1299
X-0.5413Y0.0768
X-0.4055Y-0.2087
X-0.3071Y-0.1457
X-0.2234Y-0.1841
X-0.2205Y-0.2992
X-0.189Y-0.2244
X-0.1417Y-0.1378
X-0.126Y0.1614
X-0.0394Y0.0748
X-0.0394Y0.0
X-0.0394Y-0.0787
X0.0079Y-0.3504
X0.0394Y0.0787
X0.0394Y-0.0787
X0.1024Y0.2992
X0.1614Y-0.1496
X0.3071Y0.126
X0.4428Y-0.2501
X0.4882Y0.0157
X0.5591Y-0.0197
T2
X0.622Y0.0543
X0.622Y0.0043
X0.622Y-0.0457
X0.622Y-0.0957
X0.622Y-0.1457
X0.672Y0.0543
X0.672Y0.0043
X0.672Y-0.0457
X0.672Y-0.0957
X0.672Y-0.1457
T0
M30
