G04 #@! TF.GenerationSoftware,KiCad,Pcbnew,(5.1.7)-1*
G04 #@! TF.CreationDate,2020-12-02T09:59:19-08:00*
G04 #@! TF.ProjectId,programmer,70726f67-7261-46d6-9d65-722e6b696361,rev?*
G04 #@! TF.SameCoordinates,Original*
G04 #@! TF.FileFunction,Copper,L1,Top*
G04 #@! TF.FilePolarity,Positive*
%FSLAX46Y46*%
G04 Gerber Fmt 4.6, Leading zero omitted, Abs format (unit mm)*
G04 Created by KiCad (PCBNEW (5.1.7)-1) date 2020-12-02 09:59:19*
%MOMM*%
%LPD*%
G01*
G04 APERTURE LIST*
G04 #@! TA.AperFunction,SMDPad,CuDef*
%ADD10R,0.900000X0.800000*%
G04 #@! TD*
G04 #@! TA.AperFunction,SMDPad,CuDef*
%ADD11R,1.350000X0.400000*%
G04 #@! TD*
G04 #@! TA.AperFunction,SMDPad,CuDef*
%ADD12R,1.600000X2.100000*%
G04 #@! TD*
G04 #@! TA.AperFunction,SMDPad,CuDef*
%ADD13R,1.900000X1.800000*%
G04 #@! TD*
G04 #@! TA.AperFunction,SMDPad,CuDef*
%ADD14R,1.900000X1.900000*%
G04 #@! TD*
G04 #@! TA.AperFunction,SMDPad,CuDef*
%ADD15R,1.060000X0.650000*%
G04 #@! TD*
G04 #@! TA.AperFunction,SMDPad,CuDef*
%ADD16R,0.850000X0.650000*%
G04 #@! TD*
G04 #@! TA.AperFunction,ComponentPad*
%ADD17O,1.000000X1.000000*%
G04 #@! TD*
G04 #@! TA.AperFunction,ComponentPad*
%ADD18R,1.000000X1.000000*%
G04 #@! TD*
G04 #@! TA.AperFunction,ViaPad*
%ADD19C,0.635000*%
G04 #@! TD*
G04 #@! TA.AperFunction,Conductor*
%ADD20C,0.508000*%
G04 #@! TD*
G04 #@! TA.AperFunction,Conductor*
%ADD21C,0.152400*%
G04 #@! TD*
G04 #@! TA.AperFunction,Conductor*
%ADD22C,0.125000*%
G04 #@! TD*
G04 #@! TA.AperFunction,Conductor*
%ADD23C,0.100000*%
G04 #@! TD*
G04 #@! TA.AperFunction,Conductor*
%ADD24C,0.127000*%
G04 #@! TD*
G04 APERTURE END LIST*
D10*
X-7025000Y-7475000D03*
X-9025000Y-8425000D03*
X-9025000Y-6525000D03*
D11*
X-15812500Y-1200000D03*
X-15812500Y-550000D03*
X-15812500Y-1850000D03*
X-15812500Y100000D03*
X-15812500Y-2500000D03*
D12*
X-15937500Y1900000D03*
X-15937500Y-4300000D03*
D13*
X-18487500Y2600000D03*
X-18487500Y-5000000D03*
D14*
X-18487500Y0D03*
X-18487500Y-2400000D03*
D15*
X-13700000Y4950000D03*
X-13700000Y4000000D03*
X-13700000Y3050000D03*
X-11500000Y3050000D03*
X-11500000Y4950000D03*
G04 #@! TA.AperFunction,SMDPad,CuDef*
G36*
G01*
X-9138200Y2029400D02*
X-9138200Y1479400D01*
G75*
G02*
X-9338200Y1279400I-200000J0D01*
G01*
X-9738200Y1279400D01*
G75*
G02*
X-9938200Y1479400I0J200000D01*
G01*
X-9938200Y2029400D01*
G75*
G02*
X-9738200Y2229400I200000J0D01*
G01*
X-9338200Y2229400D01*
G75*
G02*
X-9138200Y2029400I0J-200000D01*
G01*
G37*
G04 #@! TD.AperFunction*
G04 #@! TA.AperFunction,SMDPad,CuDef*
G36*
G01*
X-7488200Y2029400D02*
X-7488200Y1479400D01*
G75*
G02*
X-7688200Y1279400I-200000J0D01*
G01*
X-8088200Y1279400D01*
G75*
G02*
X-8288200Y1479400I0J200000D01*
G01*
X-8288200Y2029400D01*
G75*
G02*
X-8088200Y2229400I200000J0D01*
G01*
X-7688200Y2229400D01*
G75*
G02*
X-7488200Y2029400I0J-200000D01*
G01*
G37*
G04 #@! TD.AperFunction*
G04 #@! TA.AperFunction,SMDPad,CuDef*
G36*
G01*
X-9038200Y6982800D02*
X-9038200Y6482800D01*
G75*
G02*
X-9263200Y6257800I-225000J0D01*
G01*
X-9713200Y6257800D01*
G75*
G02*
X-9938200Y6482800I0J225000D01*
G01*
X-9938200Y6982800D01*
G75*
G02*
X-9713200Y7207800I225000J0D01*
G01*
X-9263200Y7207800D01*
G75*
G02*
X-9038200Y6982800I0J-225000D01*
G01*
G37*
G04 #@! TD.AperFunction*
G04 #@! TA.AperFunction,SMDPad,CuDef*
G36*
G01*
X-7488200Y6982800D02*
X-7488200Y6482800D01*
G75*
G02*
X-7713200Y6257800I-225000J0D01*
G01*
X-8163200Y6257800D01*
G75*
G02*
X-8388200Y6482800I0J225000D01*
G01*
X-8388200Y6982800D01*
G75*
G02*
X-8163200Y7207800I225000J0D01*
G01*
X-7713200Y7207800D01*
G75*
G02*
X-7488200Y6982800I0J-225000D01*
G01*
G37*
G04 #@! TD.AperFunction*
G04 #@! TA.AperFunction,SMDPad,CuDef*
G36*
G01*
X-3900000Y4975000D02*
X-3900000Y6375000D01*
G75*
G02*
X-3825000Y6450000I75000J0D01*
G01*
X-3675000Y6450000D01*
G75*
G02*
X-3600000Y6375000I0J-75000D01*
G01*
X-3600000Y4975000D01*
G75*
G02*
X-3675000Y4900000I-75000J0D01*
G01*
X-3825000Y4900000D01*
G75*
G02*
X-3900000Y4975000I0J75000D01*
G01*
G37*
G04 #@! TD.AperFunction*
G04 #@! TA.AperFunction,SMDPad,CuDef*
G36*
G01*
X-3400000Y4975000D02*
X-3400000Y6375000D01*
G75*
G02*
X-3325000Y6450000I75000J0D01*
G01*
X-3175000Y6450000D01*
G75*
G02*
X-3100000Y6375000I0J-75000D01*
G01*
X-3100000Y4975000D01*
G75*
G02*
X-3175000Y4900000I-75000J0D01*
G01*
X-3325000Y4900000D01*
G75*
G02*
X-3400000Y4975000I0J75000D01*
G01*
G37*
G04 #@! TD.AperFunction*
G04 #@! TA.AperFunction,SMDPad,CuDef*
G36*
G01*
X-2900000Y4975000D02*
X-2900000Y6375000D01*
G75*
G02*
X-2825000Y6450000I75000J0D01*
G01*
X-2675000Y6450000D01*
G75*
G02*
X-2600000Y6375000I0J-75000D01*
G01*
X-2600000Y4975000D01*
G75*
G02*
X-2675000Y4900000I-75000J0D01*
G01*
X-2825000Y4900000D01*
G75*
G02*
X-2900000Y4975000I0J75000D01*
G01*
G37*
G04 #@! TD.AperFunction*
G04 #@! TA.AperFunction,SMDPad,CuDef*
G36*
G01*
X-2400000Y4975000D02*
X-2400000Y6375000D01*
G75*
G02*
X-2325000Y6450000I75000J0D01*
G01*
X-2175000Y6450000D01*
G75*
G02*
X-2100000Y6375000I0J-75000D01*
G01*
X-2100000Y4975000D01*
G75*
G02*
X-2175000Y4900000I-75000J0D01*
G01*
X-2325000Y4900000D01*
G75*
G02*
X-2400000Y4975000I0J75000D01*
G01*
G37*
G04 #@! TD.AperFunction*
G04 #@! TA.AperFunction,SMDPad,CuDef*
G36*
G01*
X-1900000Y4975000D02*
X-1900000Y6375000D01*
G75*
G02*
X-1825000Y6450000I75000J0D01*
G01*
X-1675000Y6450000D01*
G75*
G02*
X-1600000Y6375000I0J-75000D01*
G01*
X-1600000Y4975000D01*
G75*
G02*
X-1675000Y4900000I-75000J0D01*
G01*
X-1825000Y4900000D01*
G75*
G02*
X-1900000Y4975000I0J75000D01*
G01*
G37*
G04 #@! TD.AperFunction*
G04 #@! TA.AperFunction,SMDPad,CuDef*
G36*
G01*
X-1400000Y4975000D02*
X-1400000Y6375000D01*
G75*
G02*
X-1325000Y6450000I75000J0D01*
G01*
X-1175000Y6450000D01*
G75*
G02*
X-1100000Y6375000I0J-75000D01*
G01*
X-1100000Y4975000D01*
G75*
G02*
X-1175000Y4900000I-75000J0D01*
G01*
X-1325000Y4900000D01*
G75*
G02*
X-1400000Y4975000I0J75000D01*
G01*
G37*
G04 #@! TD.AperFunction*
G04 #@! TA.AperFunction,SMDPad,CuDef*
G36*
G01*
X-900000Y4975000D02*
X-900000Y6375000D01*
G75*
G02*
X-825000Y6450000I75000J0D01*
G01*
X-675000Y6450000D01*
G75*
G02*
X-600000Y6375000I0J-75000D01*
G01*
X-600000Y4975000D01*
G75*
G02*
X-675000Y4900000I-75000J0D01*
G01*
X-825000Y4900000D01*
G75*
G02*
X-900000Y4975000I0J75000D01*
G01*
G37*
G04 #@! TD.AperFunction*
G04 #@! TA.AperFunction,SMDPad,CuDef*
G36*
G01*
X-400000Y4975000D02*
X-400000Y6375000D01*
G75*
G02*
X-325000Y6450000I75000J0D01*
G01*
X-175000Y6450000D01*
G75*
G02*
X-100000Y6375000I0J-75000D01*
G01*
X-100000Y4975000D01*
G75*
G02*
X-175000Y4900000I-75000J0D01*
G01*
X-325000Y4900000D01*
G75*
G02*
X-400000Y4975000I0J75000D01*
G01*
G37*
G04 #@! TD.AperFunction*
G04 #@! TA.AperFunction,SMDPad,CuDef*
G36*
G01*
X100000Y4975000D02*
X100000Y6375000D01*
G75*
G02*
X175000Y6450000I75000J0D01*
G01*
X325000Y6450000D01*
G75*
G02*
X400000Y6375000I0J-75000D01*
G01*
X400000Y4975000D01*
G75*
G02*
X325000Y4900000I-75000J0D01*
G01*
X175000Y4900000D01*
G75*
G02*
X100000Y4975000I0J75000D01*
G01*
G37*
G04 #@! TD.AperFunction*
G04 #@! TA.AperFunction,SMDPad,CuDef*
G36*
G01*
X600000Y4975000D02*
X600000Y6375000D01*
G75*
G02*
X675000Y6450000I75000J0D01*
G01*
X825000Y6450000D01*
G75*
G02*
X900000Y6375000I0J-75000D01*
G01*
X900000Y4975000D01*
G75*
G02*
X825000Y4900000I-75000J0D01*
G01*
X675000Y4900000D01*
G75*
G02*
X600000Y4975000I0J75000D01*
G01*
G37*
G04 #@! TD.AperFunction*
G04 #@! TA.AperFunction,SMDPad,CuDef*
G36*
G01*
X1100000Y4975000D02*
X1100000Y6375000D01*
G75*
G02*
X1175000Y6450000I75000J0D01*
G01*
X1325000Y6450000D01*
G75*
G02*
X1400000Y6375000I0J-75000D01*
G01*
X1400000Y4975000D01*
G75*
G02*
X1325000Y4900000I-75000J0D01*
G01*
X1175000Y4900000D01*
G75*
G02*
X1100000Y4975000I0J75000D01*
G01*
G37*
G04 #@! TD.AperFunction*
G04 #@! TA.AperFunction,SMDPad,CuDef*
G36*
G01*
X1600000Y4975000D02*
X1600000Y6375000D01*
G75*
G02*
X1675000Y6450000I75000J0D01*
G01*
X1825000Y6450000D01*
G75*
G02*
X1900000Y6375000I0J-75000D01*
G01*
X1900000Y4975000D01*
G75*
G02*
X1825000Y4900000I-75000J0D01*
G01*
X1675000Y4900000D01*
G75*
G02*
X1600000Y4975000I0J75000D01*
G01*
G37*
G04 #@! TD.AperFunction*
G04 #@! TA.AperFunction,SMDPad,CuDef*
G36*
G01*
X2100000Y4975000D02*
X2100000Y6375000D01*
G75*
G02*
X2175000Y6450000I75000J0D01*
G01*
X2325000Y6450000D01*
G75*
G02*
X2400000Y6375000I0J-75000D01*
G01*
X2400000Y4975000D01*
G75*
G02*
X2325000Y4900000I-75000J0D01*
G01*
X2175000Y4900000D01*
G75*
G02*
X2100000Y4975000I0J75000D01*
G01*
G37*
G04 #@! TD.AperFunction*
G04 #@! TA.AperFunction,SMDPad,CuDef*
G36*
G01*
X2600000Y4975000D02*
X2600000Y6375000D01*
G75*
G02*
X2675000Y6450000I75000J0D01*
G01*
X2825000Y6450000D01*
G75*
G02*
X2900000Y6375000I0J-75000D01*
G01*
X2900000Y4975000D01*
G75*
G02*
X2825000Y4900000I-75000J0D01*
G01*
X2675000Y4900000D01*
G75*
G02*
X2600000Y4975000I0J75000D01*
G01*
G37*
G04 #@! TD.AperFunction*
G04 #@! TA.AperFunction,SMDPad,CuDef*
G36*
G01*
X3100000Y4975000D02*
X3100000Y6375000D01*
G75*
G02*
X3175000Y6450000I75000J0D01*
G01*
X3325000Y6450000D01*
G75*
G02*
X3400000Y6375000I0J-75000D01*
G01*
X3400000Y4975000D01*
G75*
G02*
X3325000Y4900000I-75000J0D01*
G01*
X3175000Y4900000D01*
G75*
G02*
X3100000Y4975000I0J75000D01*
G01*
G37*
G04 #@! TD.AperFunction*
G04 #@! TA.AperFunction,SMDPad,CuDef*
G36*
G01*
X3600000Y4975000D02*
X3600000Y6375000D01*
G75*
G02*
X3675000Y6450000I75000J0D01*
G01*
X3825000Y6450000D01*
G75*
G02*
X3900000Y6375000I0J-75000D01*
G01*
X3900000Y4975000D01*
G75*
G02*
X3825000Y4900000I-75000J0D01*
G01*
X3675000Y4900000D01*
G75*
G02*
X3600000Y4975000I0J75000D01*
G01*
G37*
G04 #@! TD.AperFunction*
G04 #@! TA.AperFunction,SMDPad,CuDef*
G36*
G01*
X4900000Y3675000D02*
X4900000Y3825000D01*
G75*
G02*
X4975000Y3900000I75000J0D01*
G01*
X6375000Y3900000D01*
G75*
G02*
X6450000Y3825000I0J-75000D01*
G01*
X6450000Y3675000D01*
G75*
G02*
X6375000Y3600000I-75000J0D01*
G01*
X4975000Y3600000D01*
G75*
G02*
X4900000Y3675000I0J75000D01*
G01*
G37*
G04 #@! TD.AperFunction*
G04 #@! TA.AperFunction,SMDPad,CuDef*
G36*
G01*
X4900000Y3175000D02*
X4900000Y3325000D01*
G75*
G02*
X4975000Y3400000I75000J0D01*
G01*
X6375000Y3400000D01*
G75*
G02*
X6450000Y3325000I0J-75000D01*
G01*
X6450000Y3175000D01*
G75*
G02*
X6375000Y3100000I-75000J0D01*
G01*
X4975000Y3100000D01*
G75*
G02*
X4900000Y3175000I0J75000D01*
G01*
G37*
G04 #@! TD.AperFunction*
G04 #@! TA.AperFunction,SMDPad,CuDef*
G36*
G01*
X4900000Y2675000D02*
X4900000Y2825000D01*
G75*
G02*
X4975000Y2900000I75000J0D01*
G01*
X6375000Y2900000D01*
G75*
G02*
X6450000Y2825000I0J-75000D01*
G01*
X6450000Y2675000D01*
G75*
G02*
X6375000Y2600000I-75000J0D01*
G01*
X4975000Y2600000D01*
G75*
G02*
X4900000Y2675000I0J75000D01*
G01*
G37*
G04 #@! TD.AperFunction*
G04 #@! TA.AperFunction,SMDPad,CuDef*
G36*
G01*
X4900000Y2175000D02*
X4900000Y2325000D01*
G75*
G02*
X4975000Y2400000I75000J0D01*
G01*
X6375000Y2400000D01*
G75*
G02*
X6450000Y2325000I0J-75000D01*
G01*
X6450000Y2175000D01*
G75*
G02*
X6375000Y2100000I-75000J0D01*
G01*
X4975000Y2100000D01*
G75*
G02*
X4900000Y2175000I0J75000D01*
G01*
G37*
G04 #@! TD.AperFunction*
G04 #@! TA.AperFunction,SMDPad,CuDef*
G36*
G01*
X4900000Y1675000D02*
X4900000Y1825000D01*
G75*
G02*
X4975000Y1900000I75000J0D01*
G01*
X6375000Y1900000D01*
G75*
G02*
X6450000Y1825000I0J-75000D01*
G01*
X6450000Y1675000D01*
G75*
G02*
X6375000Y1600000I-75000J0D01*
G01*
X4975000Y1600000D01*
G75*
G02*
X4900000Y1675000I0J75000D01*
G01*
G37*
G04 #@! TD.AperFunction*
G04 #@! TA.AperFunction,SMDPad,CuDef*
G36*
G01*
X4900000Y1175000D02*
X4900000Y1325000D01*
G75*
G02*
X4975000Y1400000I75000J0D01*
G01*
X6375000Y1400000D01*
G75*
G02*
X6450000Y1325000I0J-75000D01*
G01*
X6450000Y1175000D01*
G75*
G02*
X6375000Y1100000I-75000J0D01*
G01*
X4975000Y1100000D01*
G75*
G02*
X4900000Y1175000I0J75000D01*
G01*
G37*
G04 #@! TD.AperFunction*
G04 #@! TA.AperFunction,SMDPad,CuDef*
G36*
G01*
X4900000Y675000D02*
X4900000Y825000D01*
G75*
G02*
X4975000Y900000I75000J0D01*
G01*
X6375000Y900000D01*
G75*
G02*
X6450000Y825000I0J-75000D01*
G01*
X6450000Y675000D01*
G75*
G02*
X6375000Y600000I-75000J0D01*
G01*
X4975000Y600000D01*
G75*
G02*
X4900000Y675000I0J75000D01*
G01*
G37*
G04 #@! TD.AperFunction*
G04 #@! TA.AperFunction,SMDPad,CuDef*
G36*
G01*
X4900000Y175000D02*
X4900000Y325000D01*
G75*
G02*
X4975000Y400000I75000J0D01*
G01*
X6375000Y400000D01*
G75*
G02*
X6450000Y325000I0J-75000D01*
G01*
X6450000Y175000D01*
G75*
G02*
X6375000Y100000I-75000J0D01*
G01*
X4975000Y100000D01*
G75*
G02*
X4900000Y175000I0J75000D01*
G01*
G37*
G04 #@! TD.AperFunction*
G04 #@! TA.AperFunction,SMDPad,CuDef*
G36*
G01*
X4900000Y-325000D02*
X4900000Y-175000D01*
G75*
G02*
X4975000Y-100000I75000J0D01*
G01*
X6375000Y-100000D01*
G75*
G02*
X6450000Y-175000I0J-75000D01*
G01*
X6450000Y-325000D01*
G75*
G02*
X6375000Y-400000I-75000J0D01*
G01*
X4975000Y-400000D01*
G75*
G02*
X4900000Y-325000I0J75000D01*
G01*
G37*
G04 #@! TD.AperFunction*
G04 #@! TA.AperFunction,SMDPad,CuDef*
G36*
G01*
X4900000Y-825000D02*
X4900000Y-675000D01*
G75*
G02*
X4975000Y-600000I75000J0D01*
G01*
X6375000Y-600000D01*
G75*
G02*
X6450000Y-675000I0J-75000D01*
G01*
X6450000Y-825000D01*
G75*
G02*
X6375000Y-900000I-75000J0D01*
G01*
X4975000Y-900000D01*
G75*
G02*
X4900000Y-825000I0J75000D01*
G01*
G37*
G04 #@! TD.AperFunction*
G04 #@! TA.AperFunction,SMDPad,CuDef*
G36*
G01*
X4900000Y-1325000D02*
X4900000Y-1175000D01*
G75*
G02*
X4975000Y-1100000I75000J0D01*
G01*
X6375000Y-1100000D01*
G75*
G02*
X6450000Y-1175000I0J-75000D01*
G01*
X6450000Y-1325000D01*
G75*
G02*
X6375000Y-1400000I-75000J0D01*
G01*
X4975000Y-1400000D01*
G75*
G02*
X4900000Y-1325000I0J75000D01*
G01*
G37*
G04 #@! TD.AperFunction*
G04 #@! TA.AperFunction,SMDPad,CuDef*
G36*
G01*
X4900000Y-1825000D02*
X4900000Y-1675000D01*
G75*
G02*
X4975000Y-1600000I75000J0D01*
G01*
X6375000Y-1600000D01*
G75*
G02*
X6450000Y-1675000I0J-75000D01*
G01*
X6450000Y-1825000D01*
G75*
G02*
X6375000Y-1900000I-75000J0D01*
G01*
X4975000Y-1900000D01*
G75*
G02*
X4900000Y-1825000I0J75000D01*
G01*
G37*
G04 #@! TD.AperFunction*
G04 #@! TA.AperFunction,SMDPad,CuDef*
G36*
G01*
X4900000Y-2325000D02*
X4900000Y-2175000D01*
G75*
G02*
X4975000Y-2100000I75000J0D01*
G01*
X6375000Y-2100000D01*
G75*
G02*
X6450000Y-2175000I0J-75000D01*
G01*
X6450000Y-2325000D01*
G75*
G02*
X6375000Y-2400000I-75000J0D01*
G01*
X4975000Y-2400000D01*
G75*
G02*
X4900000Y-2325000I0J75000D01*
G01*
G37*
G04 #@! TD.AperFunction*
G04 #@! TA.AperFunction,SMDPad,CuDef*
G36*
G01*
X4900000Y-2825000D02*
X4900000Y-2675000D01*
G75*
G02*
X4975000Y-2600000I75000J0D01*
G01*
X6375000Y-2600000D01*
G75*
G02*
X6450000Y-2675000I0J-75000D01*
G01*
X6450000Y-2825000D01*
G75*
G02*
X6375000Y-2900000I-75000J0D01*
G01*
X4975000Y-2900000D01*
G75*
G02*
X4900000Y-2825000I0J75000D01*
G01*
G37*
G04 #@! TD.AperFunction*
G04 #@! TA.AperFunction,SMDPad,CuDef*
G36*
G01*
X4900000Y-3325000D02*
X4900000Y-3175000D01*
G75*
G02*
X4975000Y-3100000I75000J0D01*
G01*
X6375000Y-3100000D01*
G75*
G02*
X6450000Y-3175000I0J-75000D01*
G01*
X6450000Y-3325000D01*
G75*
G02*
X6375000Y-3400000I-75000J0D01*
G01*
X4975000Y-3400000D01*
G75*
G02*
X4900000Y-3325000I0J75000D01*
G01*
G37*
G04 #@! TD.AperFunction*
G04 #@! TA.AperFunction,SMDPad,CuDef*
G36*
G01*
X4900000Y-3825000D02*
X4900000Y-3675000D01*
G75*
G02*
X4975000Y-3600000I75000J0D01*
G01*
X6375000Y-3600000D01*
G75*
G02*
X6450000Y-3675000I0J-75000D01*
G01*
X6450000Y-3825000D01*
G75*
G02*
X6375000Y-3900000I-75000J0D01*
G01*
X4975000Y-3900000D01*
G75*
G02*
X4900000Y-3825000I0J75000D01*
G01*
G37*
G04 #@! TD.AperFunction*
G04 #@! TA.AperFunction,SMDPad,CuDef*
G36*
G01*
X3600000Y-6375000D02*
X3600000Y-4975000D01*
G75*
G02*
X3675000Y-4900000I75000J0D01*
G01*
X3825000Y-4900000D01*
G75*
G02*
X3900000Y-4975000I0J-75000D01*
G01*
X3900000Y-6375000D01*
G75*
G02*
X3825000Y-6450000I-75000J0D01*
G01*
X3675000Y-6450000D01*
G75*
G02*
X3600000Y-6375000I0J75000D01*
G01*
G37*
G04 #@! TD.AperFunction*
G04 #@! TA.AperFunction,SMDPad,CuDef*
G36*
G01*
X3100000Y-6375000D02*
X3100000Y-4975000D01*
G75*
G02*
X3175000Y-4900000I75000J0D01*
G01*
X3325000Y-4900000D01*
G75*
G02*
X3400000Y-4975000I0J-75000D01*
G01*
X3400000Y-6375000D01*
G75*
G02*
X3325000Y-6450000I-75000J0D01*
G01*
X3175000Y-6450000D01*
G75*
G02*
X3100000Y-6375000I0J75000D01*
G01*
G37*
G04 #@! TD.AperFunction*
G04 #@! TA.AperFunction,SMDPad,CuDef*
G36*
G01*
X2600000Y-6375000D02*
X2600000Y-4975000D01*
G75*
G02*
X2675000Y-4900000I75000J0D01*
G01*
X2825000Y-4900000D01*
G75*
G02*
X2900000Y-4975000I0J-75000D01*
G01*
X2900000Y-6375000D01*
G75*
G02*
X2825000Y-6450000I-75000J0D01*
G01*
X2675000Y-6450000D01*
G75*
G02*
X2600000Y-6375000I0J75000D01*
G01*
G37*
G04 #@! TD.AperFunction*
G04 #@! TA.AperFunction,SMDPad,CuDef*
G36*
G01*
X2100000Y-6375000D02*
X2100000Y-4975000D01*
G75*
G02*
X2175000Y-4900000I75000J0D01*
G01*
X2325000Y-4900000D01*
G75*
G02*
X2400000Y-4975000I0J-75000D01*
G01*
X2400000Y-6375000D01*
G75*
G02*
X2325000Y-6450000I-75000J0D01*
G01*
X2175000Y-6450000D01*
G75*
G02*
X2100000Y-6375000I0J75000D01*
G01*
G37*
G04 #@! TD.AperFunction*
G04 #@! TA.AperFunction,SMDPad,CuDef*
G36*
G01*
X1600000Y-6375000D02*
X1600000Y-4975000D01*
G75*
G02*
X1675000Y-4900000I75000J0D01*
G01*
X1825000Y-4900000D01*
G75*
G02*
X1900000Y-4975000I0J-75000D01*
G01*
X1900000Y-6375000D01*
G75*
G02*
X1825000Y-6450000I-75000J0D01*
G01*
X1675000Y-6450000D01*
G75*
G02*
X1600000Y-6375000I0J75000D01*
G01*
G37*
G04 #@! TD.AperFunction*
G04 #@! TA.AperFunction,SMDPad,CuDef*
G36*
G01*
X1100000Y-6375000D02*
X1100000Y-4975000D01*
G75*
G02*
X1175000Y-4900000I75000J0D01*
G01*
X1325000Y-4900000D01*
G75*
G02*
X1400000Y-4975000I0J-75000D01*
G01*
X1400000Y-6375000D01*
G75*
G02*
X1325000Y-6450000I-75000J0D01*
G01*
X1175000Y-6450000D01*
G75*
G02*
X1100000Y-6375000I0J75000D01*
G01*
G37*
G04 #@! TD.AperFunction*
G04 #@! TA.AperFunction,SMDPad,CuDef*
G36*
G01*
X600000Y-6375000D02*
X600000Y-4975000D01*
G75*
G02*
X675000Y-4900000I75000J0D01*
G01*
X825000Y-4900000D01*
G75*
G02*
X900000Y-4975000I0J-75000D01*
G01*
X900000Y-6375000D01*
G75*
G02*
X825000Y-6450000I-75000J0D01*
G01*
X675000Y-6450000D01*
G75*
G02*
X600000Y-6375000I0J75000D01*
G01*
G37*
G04 #@! TD.AperFunction*
G04 #@! TA.AperFunction,SMDPad,CuDef*
G36*
G01*
X100000Y-6375000D02*
X100000Y-4975000D01*
G75*
G02*
X175000Y-4900000I75000J0D01*
G01*
X325000Y-4900000D01*
G75*
G02*
X400000Y-4975000I0J-75000D01*
G01*
X400000Y-6375000D01*
G75*
G02*
X325000Y-6450000I-75000J0D01*
G01*
X175000Y-6450000D01*
G75*
G02*
X100000Y-6375000I0J75000D01*
G01*
G37*
G04 #@! TD.AperFunction*
G04 #@! TA.AperFunction,SMDPad,CuDef*
G36*
G01*
X-400000Y-6375000D02*
X-400000Y-4975000D01*
G75*
G02*
X-325000Y-4900000I75000J0D01*
G01*
X-175000Y-4900000D01*
G75*
G02*
X-100000Y-4975000I0J-75000D01*
G01*
X-100000Y-6375000D01*
G75*
G02*
X-175000Y-6450000I-75000J0D01*
G01*
X-325000Y-6450000D01*
G75*
G02*
X-400000Y-6375000I0J75000D01*
G01*
G37*
G04 #@! TD.AperFunction*
G04 #@! TA.AperFunction,SMDPad,CuDef*
G36*
G01*
X-900000Y-6375000D02*
X-900000Y-4975000D01*
G75*
G02*
X-825000Y-4900000I75000J0D01*
G01*
X-675000Y-4900000D01*
G75*
G02*
X-600000Y-4975000I0J-75000D01*
G01*
X-600000Y-6375000D01*
G75*
G02*
X-675000Y-6450000I-75000J0D01*
G01*
X-825000Y-6450000D01*
G75*
G02*
X-900000Y-6375000I0J75000D01*
G01*
G37*
G04 #@! TD.AperFunction*
G04 #@! TA.AperFunction,SMDPad,CuDef*
G36*
G01*
X-1400000Y-6375000D02*
X-1400000Y-4975000D01*
G75*
G02*
X-1325000Y-4900000I75000J0D01*
G01*
X-1175000Y-4900000D01*
G75*
G02*
X-1100000Y-4975000I0J-75000D01*
G01*
X-1100000Y-6375000D01*
G75*
G02*
X-1175000Y-6450000I-75000J0D01*
G01*
X-1325000Y-6450000D01*
G75*
G02*
X-1400000Y-6375000I0J75000D01*
G01*
G37*
G04 #@! TD.AperFunction*
G04 #@! TA.AperFunction,SMDPad,CuDef*
G36*
G01*
X-1900000Y-6375000D02*
X-1900000Y-4975000D01*
G75*
G02*
X-1825000Y-4900000I75000J0D01*
G01*
X-1675000Y-4900000D01*
G75*
G02*
X-1600000Y-4975000I0J-75000D01*
G01*
X-1600000Y-6375000D01*
G75*
G02*
X-1675000Y-6450000I-75000J0D01*
G01*
X-1825000Y-6450000D01*
G75*
G02*
X-1900000Y-6375000I0J75000D01*
G01*
G37*
G04 #@! TD.AperFunction*
G04 #@! TA.AperFunction,SMDPad,CuDef*
G36*
G01*
X-2400000Y-6375000D02*
X-2400000Y-4975000D01*
G75*
G02*
X-2325000Y-4900000I75000J0D01*
G01*
X-2175000Y-4900000D01*
G75*
G02*
X-2100000Y-4975000I0J-75000D01*
G01*
X-2100000Y-6375000D01*
G75*
G02*
X-2175000Y-6450000I-75000J0D01*
G01*
X-2325000Y-6450000D01*
G75*
G02*
X-2400000Y-6375000I0J75000D01*
G01*
G37*
G04 #@! TD.AperFunction*
G04 #@! TA.AperFunction,SMDPad,CuDef*
G36*
G01*
X-2900000Y-6375000D02*
X-2900000Y-4975000D01*
G75*
G02*
X-2825000Y-4900000I75000J0D01*
G01*
X-2675000Y-4900000D01*
G75*
G02*
X-2600000Y-4975000I0J-75000D01*
G01*
X-2600000Y-6375000D01*
G75*
G02*
X-2675000Y-6450000I-75000J0D01*
G01*
X-2825000Y-6450000D01*
G75*
G02*
X-2900000Y-6375000I0J75000D01*
G01*
G37*
G04 #@! TD.AperFunction*
G04 #@! TA.AperFunction,SMDPad,CuDef*
G36*
G01*
X-3400000Y-6375000D02*
X-3400000Y-4975000D01*
G75*
G02*
X-3325000Y-4900000I75000J0D01*
G01*
X-3175000Y-4900000D01*
G75*
G02*
X-3100000Y-4975000I0J-75000D01*
G01*
X-3100000Y-6375000D01*
G75*
G02*
X-3175000Y-6450000I-75000J0D01*
G01*
X-3325000Y-6450000D01*
G75*
G02*
X-3400000Y-6375000I0J75000D01*
G01*
G37*
G04 #@! TD.AperFunction*
G04 #@! TA.AperFunction,SMDPad,CuDef*
G36*
G01*
X-3900000Y-6375000D02*
X-3900000Y-4975000D01*
G75*
G02*
X-3825000Y-4900000I75000J0D01*
G01*
X-3675000Y-4900000D01*
G75*
G02*
X-3600000Y-4975000I0J-75000D01*
G01*
X-3600000Y-6375000D01*
G75*
G02*
X-3675000Y-6450000I-75000J0D01*
G01*
X-3825000Y-6450000D01*
G75*
G02*
X-3900000Y-6375000I0J75000D01*
G01*
G37*
G04 #@! TD.AperFunction*
G04 #@! TA.AperFunction,SMDPad,CuDef*
G36*
G01*
X-6450000Y-3825000D02*
X-6450000Y-3675000D01*
G75*
G02*
X-6375000Y-3600000I75000J0D01*
G01*
X-4975000Y-3600000D01*
G75*
G02*
X-4900000Y-3675000I0J-75000D01*
G01*
X-4900000Y-3825000D01*
G75*
G02*
X-4975000Y-3900000I-75000J0D01*
G01*
X-6375000Y-3900000D01*
G75*
G02*
X-6450000Y-3825000I0J75000D01*
G01*
G37*
G04 #@! TD.AperFunction*
G04 #@! TA.AperFunction,SMDPad,CuDef*
G36*
G01*
X-6450000Y-3325000D02*
X-6450000Y-3175000D01*
G75*
G02*
X-6375000Y-3100000I75000J0D01*
G01*
X-4975000Y-3100000D01*
G75*
G02*
X-4900000Y-3175000I0J-75000D01*
G01*
X-4900000Y-3325000D01*
G75*
G02*
X-4975000Y-3400000I-75000J0D01*
G01*
X-6375000Y-3400000D01*
G75*
G02*
X-6450000Y-3325000I0J75000D01*
G01*
G37*
G04 #@! TD.AperFunction*
G04 #@! TA.AperFunction,SMDPad,CuDef*
G36*
G01*
X-6450000Y-2825000D02*
X-6450000Y-2675000D01*
G75*
G02*
X-6375000Y-2600000I75000J0D01*
G01*
X-4975000Y-2600000D01*
G75*
G02*
X-4900000Y-2675000I0J-75000D01*
G01*
X-4900000Y-2825000D01*
G75*
G02*
X-4975000Y-2900000I-75000J0D01*
G01*
X-6375000Y-2900000D01*
G75*
G02*
X-6450000Y-2825000I0J75000D01*
G01*
G37*
G04 #@! TD.AperFunction*
G04 #@! TA.AperFunction,SMDPad,CuDef*
G36*
G01*
X-6450000Y-2325000D02*
X-6450000Y-2175000D01*
G75*
G02*
X-6375000Y-2100000I75000J0D01*
G01*
X-4975000Y-2100000D01*
G75*
G02*
X-4900000Y-2175000I0J-75000D01*
G01*
X-4900000Y-2325000D01*
G75*
G02*
X-4975000Y-2400000I-75000J0D01*
G01*
X-6375000Y-2400000D01*
G75*
G02*
X-6450000Y-2325000I0J75000D01*
G01*
G37*
G04 #@! TD.AperFunction*
G04 #@! TA.AperFunction,SMDPad,CuDef*
G36*
G01*
X-6450000Y-1825000D02*
X-6450000Y-1675000D01*
G75*
G02*
X-6375000Y-1600000I75000J0D01*
G01*
X-4975000Y-1600000D01*
G75*
G02*
X-4900000Y-1675000I0J-75000D01*
G01*
X-4900000Y-1825000D01*
G75*
G02*
X-4975000Y-1900000I-75000J0D01*
G01*
X-6375000Y-1900000D01*
G75*
G02*
X-6450000Y-1825000I0J75000D01*
G01*
G37*
G04 #@! TD.AperFunction*
G04 #@! TA.AperFunction,SMDPad,CuDef*
G36*
G01*
X-6450000Y-1325000D02*
X-6450000Y-1175000D01*
G75*
G02*
X-6375000Y-1100000I75000J0D01*
G01*
X-4975000Y-1100000D01*
G75*
G02*
X-4900000Y-1175000I0J-75000D01*
G01*
X-4900000Y-1325000D01*
G75*
G02*
X-4975000Y-1400000I-75000J0D01*
G01*
X-6375000Y-1400000D01*
G75*
G02*
X-6450000Y-1325000I0J75000D01*
G01*
G37*
G04 #@! TD.AperFunction*
G04 #@! TA.AperFunction,SMDPad,CuDef*
G36*
G01*
X-6450000Y-825000D02*
X-6450000Y-675000D01*
G75*
G02*
X-6375000Y-600000I75000J0D01*
G01*
X-4975000Y-600000D01*
G75*
G02*
X-4900000Y-675000I0J-75000D01*
G01*
X-4900000Y-825000D01*
G75*
G02*
X-4975000Y-900000I-75000J0D01*
G01*
X-6375000Y-900000D01*
G75*
G02*
X-6450000Y-825000I0J75000D01*
G01*
G37*
G04 #@! TD.AperFunction*
G04 #@! TA.AperFunction,SMDPad,CuDef*
G36*
G01*
X-6450000Y-325000D02*
X-6450000Y-175000D01*
G75*
G02*
X-6375000Y-100000I75000J0D01*
G01*
X-4975000Y-100000D01*
G75*
G02*
X-4900000Y-175000I0J-75000D01*
G01*
X-4900000Y-325000D01*
G75*
G02*
X-4975000Y-400000I-75000J0D01*
G01*
X-6375000Y-400000D01*
G75*
G02*
X-6450000Y-325000I0J75000D01*
G01*
G37*
G04 #@! TD.AperFunction*
G04 #@! TA.AperFunction,SMDPad,CuDef*
G36*
G01*
X-6450000Y175000D02*
X-6450000Y325000D01*
G75*
G02*
X-6375000Y400000I75000J0D01*
G01*
X-4975000Y400000D01*
G75*
G02*
X-4900000Y325000I0J-75000D01*
G01*
X-4900000Y175000D01*
G75*
G02*
X-4975000Y100000I-75000J0D01*
G01*
X-6375000Y100000D01*
G75*
G02*
X-6450000Y175000I0J75000D01*
G01*
G37*
G04 #@! TD.AperFunction*
G04 #@! TA.AperFunction,SMDPad,CuDef*
G36*
G01*
X-6450000Y675000D02*
X-6450000Y825000D01*
G75*
G02*
X-6375000Y900000I75000J0D01*
G01*
X-4975000Y900000D01*
G75*
G02*
X-4900000Y825000I0J-75000D01*
G01*
X-4900000Y675000D01*
G75*
G02*
X-4975000Y600000I-75000J0D01*
G01*
X-6375000Y600000D01*
G75*
G02*
X-6450000Y675000I0J75000D01*
G01*
G37*
G04 #@! TD.AperFunction*
G04 #@! TA.AperFunction,SMDPad,CuDef*
G36*
G01*
X-6450000Y1175000D02*
X-6450000Y1325000D01*
G75*
G02*
X-6375000Y1400000I75000J0D01*
G01*
X-4975000Y1400000D01*
G75*
G02*
X-4900000Y1325000I0J-75000D01*
G01*
X-4900000Y1175000D01*
G75*
G02*
X-4975000Y1100000I-75000J0D01*
G01*
X-6375000Y1100000D01*
G75*
G02*
X-6450000Y1175000I0J75000D01*
G01*
G37*
G04 #@! TD.AperFunction*
G04 #@! TA.AperFunction,SMDPad,CuDef*
G36*
G01*
X-6450000Y1675000D02*
X-6450000Y1825000D01*
G75*
G02*
X-6375000Y1900000I75000J0D01*
G01*
X-4975000Y1900000D01*
G75*
G02*
X-4900000Y1825000I0J-75000D01*
G01*
X-4900000Y1675000D01*
G75*
G02*
X-4975000Y1600000I-75000J0D01*
G01*
X-6375000Y1600000D01*
G75*
G02*
X-6450000Y1675000I0J75000D01*
G01*
G37*
G04 #@! TD.AperFunction*
G04 #@! TA.AperFunction,SMDPad,CuDef*
G36*
G01*
X-6450000Y2175000D02*
X-6450000Y2325000D01*
G75*
G02*
X-6375000Y2400000I75000J0D01*
G01*
X-4975000Y2400000D01*
G75*
G02*
X-4900000Y2325000I0J-75000D01*
G01*
X-4900000Y2175000D01*
G75*
G02*
X-4975000Y2100000I-75000J0D01*
G01*
X-6375000Y2100000D01*
G75*
G02*
X-6450000Y2175000I0J75000D01*
G01*
G37*
G04 #@! TD.AperFunction*
G04 #@! TA.AperFunction,SMDPad,CuDef*
G36*
G01*
X-6450000Y2675000D02*
X-6450000Y2825000D01*
G75*
G02*
X-6375000Y2900000I75000J0D01*
G01*
X-4975000Y2900000D01*
G75*
G02*
X-4900000Y2825000I0J-75000D01*
G01*
X-4900000Y2675000D01*
G75*
G02*
X-4975000Y2600000I-75000J0D01*
G01*
X-6375000Y2600000D01*
G75*
G02*
X-6450000Y2675000I0J75000D01*
G01*
G37*
G04 #@! TD.AperFunction*
G04 #@! TA.AperFunction,SMDPad,CuDef*
G36*
G01*
X-6450000Y3175000D02*
X-6450000Y3325000D01*
G75*
G02*
X-6375000Y3400000I75000J0D01*
G01*
X-4975000Y3400000D01*
G75*
G02*
X-4900000Y3325000I0J-75000D01*
G01*
X-4900000Y3175000D01*
G75*
G02*
X-4975000Y3100000I-75000J0D01*
G01*
X-6375000Y3100000D01*
G75*
G02*
X-6450000Y3175000I0J75000D01*
G01*
G37*
G04 #@! TD.AperFunction*
G04 #@! TA.AperFunction,SMDPad,CuDef*
G36*
G01*
X-6450000Y3675000D02*
X-6450000Y3825000D01*
G75*
G02*
X-6375000Y3900000I75000J0D01*
G01*
X-4975000Y3900000D01*
G75*
G02*
X-4900000Y3825000I0J-75000D01*
G01*
X-4900000Y3675000D01*
G75*
G02*
X-4975000Y3600000I-75000J0D01*
G01*
X-6375000Y3600000D01*
G75*
G02*
X-6450000Y3675000I0J75000D01*
G01*
G37*
G04 #@! TD.AperFunction*
D16*
X-7938200Y5017800D03*
X-7938200Y3367800D03*
X-9488200Y3367800D03*
X-9488200Y5017800D03*
G04 #@! TA.AperFunction,SMDPad,CuDef*
G36*
G01*
X9796600Y-7670400D02*
X9246600Y-7670400D01*
G75*
G02*
X9046600Y-7470400I0J200000D01*
G01*
X9046600Y-7070400D01*
G75*
G02*
X9246600Y-6870400I200000J0D01*
G01*
X9796600Y-6870400D01*
G75*
G02*
X9996600Y-7070400I0J-200000D01*
G01*
X9996600Y-7470400D01*
G75*
G02*
X9796600Y-7670400I-200000J0D01*
G01*
G37*
G04 #@! TD.AperFunction*
G04 #@! TA.AperFunction,SMDPad,CuDef*
G36*
G01*
X9796600Y-9320400D02*
X9246600Y-9320400D01*
G75*
G02*
X9046600Y-9120400I0J200000D01*
G01*
X9046600Y-8720400D01*
G75*
G02*
X9246600Y-8520400I200000J0D01*
G01*
X9796600Y-8520400D01*
G75*
G02*
X9996600Y-8720400I0J-200000D01*
G01*
X9996600Y-9120400D01*
G75*
G02*
X9796600Y-9320400I-200000J0D01*
G01*
G37*
G04 #@! TD.AperFunction*
G04 #@! TA.AperFunction,SMDPad,CuDef*
G36*
G01*
X9295800Y-4940000D02*
X9845800Y-4940000D01*
G75*
G02*
X10045800Y-5140000I0J-200000D01*
G01*
X10045800Y-5540000D01*
G75*
G02*
X9845800Y-5740000I-200000J0D01*
G01*
X9295800Y-5740000D01*
G75*
G02*
X9095800Y-5540000I0J200000D01*
G01*
X9095800Y-5140000D01*
G75*
G02*
X9295800Y-4940000I200000J0D01*
G01*
G37*
G04 #@! TD.AperFunction*
G04 #@! TA.AperFunction,SMDPad,CuDef*
G36*
G01*
X9295800Y-3290000D02*
X9845800Y-3290000D01*
G75*
G02*
X10045800Y-3490000I0J-200000D01*
G01*
X10045800Y-3890000D01*
G75*
G02*
X9845800Y-4090000I-200000J0D01*
G01*
X9295800Y-4090000D01*
G75*
G02*
X9095800Y-3890000I0J200000D01*
G01*
X9095800Y-3490000D01*
G75*
G02*
X9295800Y-3290000I200000J0D01*
G01*
G37*
G04 #@! TD.AperFunction*
G04 #@! TA.AperFunction,SMDPad,CuDef*
G36*
G01*
X-7930200Y-2784800D02*
X-8480200Y-2784800D01*
G75*
G02*
X-8680200Y-2584800I0J200000D01*
G01*
X-8680200Y-2184800D01*
G75*
G02*
X-8480200Y-1984800I200000J0D01*
G01*
X-7930200Y-1984800D01*
G75*
G02*
X-7730200Y-2184800I0J-200000D01*
G01*
X-7730200Y-2584800D01*
G75*
G02*
X-7930200Y-2784800I-200000J0D01*
G01*
G37*
G04 #@! TD.AperFunction*
G04 #@! TA.AperFunction,SMDPad,CuDef*
G36*
G01*
X-7930200Y-1134800D02*
X-8480200Y-1134800D01*
G75*
G02*
X-8680200Y-934800I0J200000D01*
G01*
X-8680200Y-534800D01*
G75*
G02*
X-8480200Y-334800I200000J0D01*
G01*
X-7930200Y-334800D01*
G75*
G02*
X-7730200Y-534800I0J-200000D01*
G01*
X-7730200Y-934800D01*
G75*
G02*
X-7930200Y-1134800I-200000J0D01*
G01*
G37*
G04 #@! TD.AperFunction*
D10*
X-13765600Y-7467200D03*
X-11765600Y-6517200D03*
X-11765600Y-8417200D03*
D17*
X17070000Y1380000D03*
X15800000Y1380000D03*
X17070000Y110000D03*
X15800000Y110000D03*
X17070000Y-1160000D03*
X15800000Y-1160000D03*
X17070000Y-2430000D03*
X15800000Y-2430000D03*
X17070000Y-3700000D03*
D18*
X15800000Y-3700000D03*
G04 #@! TA.AperFunction,SMDPad,CuDef*
G36*
G01*
X11454250Y-7758700D02*
X10941750Y-7758700D01*
G75*
G02*
X10723000Y-7539950I0J218750D01*
G01*
X10723000Y-7102450D01*
G75*
G02*
X10941750Y-6883700I218750J0D01*
G01*
X11454250Y-6883700D01*
G75*
G02*
X11673000Y-7102450I0J-218750D01*
G01*
X11673000Y-7539950D01*
G75*
G02*
X11454250Y-7758700I-218750J0D01*
G01*
G37*
G04 #@! TD.AperFunction*
G04 #@! TA.AperFunction,SMDPad,CuDef*
G36*
G01*
X11454250Y-9333700D02*
X10941750Y-9333700D01*
G75*
G02*
X10723000Y-9114950I0J218750D01*
G01*
X10723000Y-8677450D01*
G75*
G02*
X10941750Y-8458700I218750J0D01*
G01*
X11454250Y-8458700D01*
G75*
G02*
X11673000Y-8677450I0J-218750D01*
G01*
X11673000Y-9114950D01*
G75*
G02*
X11454250Y-9333700I-218750J0D01*
G01*
G37*
G04 #@! TD.AperFunction*
G04 #@! TA.AperFunction,SMDPad,CuDef*
G36*
G01*
X10990950Y-3276900D02*
X11503450Y-3276900D01*
G75*
G02*
X11722200Y-3495650I0J-218750D01*
G01*
X11722200Y-3933150D01*
G75*
G02*
X11503450Y-4151900I-218750J0D01*
G01*
X10990950Y-4151900D01*
G75*
G02*
X10772200Y-3933150I0J218750D01*
G01*
X10772200Y-3495650D01*
G75*
G02*
X10990950Y-3276900I218750J0D01*
G01*
G37*
G04 #@! TD.AperFunction*
G04 #@! TA.AperFunction,SMDPad,CuDef*
G36*
G01*
X10990950Y-4851900D02*
X11503450Y-4851900D01*
G75*
G02*
X11722200Y-5070650I0J-218750D01*
G01*
X11722200Y-5508150D01*
G75*
G02*
X11503450Y-5726900I-218750J0D01*
G01*
X10990950Y-5726900D01*
G75*
G02*
X10772200Y-5508150I0J218750D01*
G01*
X10772200Y-5070650D01*
G75*
G02*
X10990950Y-4851900I218750J0D01*
G01*
G37*
G04 #@! TD.AperFunction*
G04 #@! TA.AperFunction,SMDPad,CuDef*
G36*
G01*
X-10975000Y7050000D02*
X-10975000Y6550000D01*
G75*
G02*
X-11200000Y6325000I-225000J0D01*
G01*
X-11650000Y6325000D01*
G75*
G02*
X-11875000Y6550000I0J225000D01*
G01*
X-11875000Y7050000D01*
G75*
G02*
X-11650000Y7275000I225000J0D01*
G01*
X-11200000Y7275000D01*
G75*
G02*
X-10975000Y7050000I0J-225000D01*
G01*
G37*
G04 #@! TD.AperFunction*
G04 #@! TA.AperFunction,SMDPad,CuDef*
G36*
G01*
X-12525000Y7050000D02*
X-12525000Y6550000D01*
G75*
G02*
X-12750000Y6325000I-225000J0D01*
G01*
X-13200000Y6325000D01*
G75*
G02*
X-13425000Y6550000I0J225000D01*
G01*
X-13425000Y7050000D01*
G75*
G02*
X-13200000Y7275000I225000J0D01*
G01*
X-12750000Y7275000D01*
G75*
G02*
X-12525000Y7050000I0J-225000D01*
G01*
G37*
G04 #@! TD.AperFunction*
G04 #@! TA.AperFunction,SMDPad,CuDef*
G36*
G01*
X-12650000Y550000D02*
X-12650000Y1050000D01*
G75*
G02*
X-12425000Y1275000I225000J0D01*
G01*
X-11975000Y1275000D01*
G75*
G02*
X-11750000Y1050000I0J-225000D01*
G01*
X-11750000Y550000D01*
G75*
G02*
X-11975000Y325000I-225000J0D01*
G01*
X-12425000Y325000D01*
G75*
G02*
X-12650000Y550000I0J225000D01*
G01*
G37*
G04 #@! TD.AperFunction*
G04 #@! TA.AperFunction,SMDPad,CuDef*
G36*
G01*
X-14200000Y550000D02*
X-14200000Y1050000D01*
G75*
G02*
X-13975000Y1275000I225000J0D01*
G01*
X-13525000Y1275000D01*
G75*
G02*
X-13300000Y1050000I0J-225000D01*
G01*
X-13300000Y550000D01*
G75*
G02*
X-13525000Y325000I-225000J0D01*
G01*
X-13975000Y325000D01*
G75*
G02*
X-14200000Y550000I0J225000D01*
G01*
G37*
G04 #@! TD.AperFunction*
D19*
X-14200000Y-3300000D03*
X2600000Y7600000D03*
X4100000Y-3800000D03*
X-7800000Y-3700000D03*
X7800000Y3200000D03*
X200000Y-8900000D03*
X-15000000Y5600000D03*
X-13750000Y1950000D03*
X11247200Y-6352800D03*
X-1000000Y-2000000D03*
X-1000000Y0D03*
X-1000000Y1900000D03*
X-10300000Y-5300000D03*
X-4800000Y-5700000D03*
X-5675000Y-4675000D03*
X-3600000Y-3500000D03*
X1000000Y2000000D03*
X-3200000Y4100000D03*
X1000000Y-2000000D03*
X-5599992Y-7600000D03*
X14200000Y-500000D03*
X12399992Y400000D03*
D20*
X-13750000Y3000000D02*
X-13700000Y3050000D01*
X-13750000Y800000D02*
X-13750000Y1950000D01*
D21*
X-14350000Y4950000D02*
X-15000000Y5600000D01*
X-13700000Y4950000D02*
X-14350000Y4950000D01*
D20*
X-13750000Y1950000D02*
X-13750000Y3000000D01*
X-14450000Y100000D02*
X-13750000Y800000D01*
X-15812500Y100000D02*
X-14450000Y100000D01*
D21*
X11247200Y-7272000D02*
X11198000Y-7321200D01*
X11247200Y-5289400D02*
X11247200Y-6352800D01*
X11247200Y-6352800D02*
X11247200Y-7272000D01*
X-1000000Y3650000D02*
X-1000000Y1900000D01*
X250000Y4900000D02*
X-1000000Y3650000D01*
X250000Y5675000D02*
X250000Y4900000D01*
X-1000000Y2450000D02*
X-1000000Y1900000D01*
X50000Y3500000D02*
X-1000000Y2450000D01*
X2300000Y3500000D02*
X50000Y3500000D01*
X3250000Y4450000D02*
X2300000Y3500000D01*
X3250000Y5675000D02*
X3250000Y4450000D01*
X-2250000Y-3250000D02*
X-1000000Y-2000000D01*
X-2250000Y-5675000D02*
X-2250000Y-3250000D01*
X3250000Y-5675000D02*
X3250000Y-4750000D01*
X3250000Y-4750000D02*
X2300000Y-3800000D01*
X2300000Y-3800000D02*
X100000Y-3800000D01*
X-1000000Y-2700000D02*
X-1000000Y-2000000D01*
X100000Y-3800000D02*
X-1000000Y-2700000D01*
X-7720400Y-250000D02*
X-8205200Y-734800D01*
X-5675000Y-250000D02*
X-7720400Y-250000D01*
X-7938200Y5017800D02*
X-7938200Y6732800D01*
X3300000Y0D02*
X-1000000Y0D01*
X4050000Y750000D02*
X3300000Y0D01*
X5675000Y750000D02*
X4050000Y750000D01*
D20*
X-9556000Y4950000D02*
X-9488200Y5017800D01*
X-9488200Y5017800D02*
X-7938200Y5017800D01*
X-5189174Y5017800D02*
X-2871374Y2700000D01*
X-7938200Y5017800D02*
X-5189174Y5017800D01*
X-11800000Y4950000D02*
X-9556000Y4950000D01*
D21*
X-11425000Y5025000D02*
X-11500000Y4950000D01*
X-11425000Y6800000D02*
X-11425000Y5025000D01*
X-2450000Y-250000D02*
X-5675000Y-250000D01*
X-1250000Y-250000D02*
X-2450000Y-250000D01*
X-1000000Y0D02*
X-1250000Y-250000D01*
D20*
X-1000000Y1900000D02*
X-2071374Y1900000D01*
D21*
X-2450000Y2250000D02*
X-2435687Y2264313D01*
X-5675000Y2250000D02*
X-2450000Y2250000D01*
D20*
X-2435687Y2264313D02*
X-2871374Y2700000D01*
X-2071374Y1900000D02*
X-2435687Y2264313D01*
D21*
X-12150800Y-5300000D02*
X-10300000Y-5300000D01*
X-13765600Y-6914800D02*
X-12150800Y-5300000D01*
X-13765600Y-7467200D02*
X-13765600Y-6914800D01*
X-3750000Y-5675000D02*
X-4575000Y-5675000D01*
X-4600000Y-5700000D02*
X-4800000Y-5700000D01*
X-4575000Y-5675000D02*
X-4600000Y-5700000D01*
X-5675000Y-3750000D02*
X-5675000Y-4675000D01*
X-5772600Y347600D02*
X-9436872Y347600D01*
X-5675000Y250000D02*
X-5772600Y347600D01*
X-14799999Y-1200000D02*
X-15812500Y-1200000D01*
X-14627399Y-1027400D02*
X-14799999Y-1200000D01*
X-10811872Y-1027400D02*
X-14627399Y-1027400D01*
X-9436872Y347600D02*
X-10811872Y-1027400D01*
X-5772600Y652400D02*
X-9563128Y652400D01*
X-5675000Y750000D02*
X-5772600Y652400D01*
X-14799999Y-550000D02*
X-15812500Y-550000D01*
X-14627399Y-722600D02*
X-14799999Y-550000D01*
X-10938128Y-722600D02*
X-14627399Y-722600D01*
X-9563128Y652400D02*
X-10938128Y-722600D01*
X-3600000Y-3050000D02*
X-3600000Y-3500000D01*
X-4900000Y-1750000D02*
X-3600000Y-3050000D01*
X-5675000Y-1750000D02*
X-4900000Y-1750000D01*
X-3750000Y5675000D02*
X-3750000Y4650000D01*
X-3750000Y4650000D02*
X-3200000Y4100000D01*
X1250000Y-1750000D02*
X1000000Y-2000000D01*
X5675000Y-1750000D02*
X1250000Y-1750000D01*
X2000000Y2000000D02*
X1000000Y2000000D01*
X3750000Y3750000D02*
X2000000Y2000000D01*
X3750000Y5675000D02*
X3750000Y3750000D01*
X9595200Y-3714400D02*
X9570800Y-3690000D01*
X11247200Y-3714400D02*
X9595200Y-3714400D01*
X9545800Y-8896200D02*
X9521600Y-8920400D01*
X11198000Y-8896200D02*
X9545800Y-8896200D01*
X-5732792Y-7467200D02*
X-5599992Y-7600000D01*
X-6771200Y-7467200D02*
X-5732792Y-7467200D01*
X13610000Y110000D02*
X15800000Y110000D01*
X13250000Y-250000D02*
X13610000Y110000D01*
X5675000Y-250000D02*
X13250000Y-250000D01*
X15710000Y-1250000D02*
X15800000Y-1160000D01*
X5675000Y-1250000D02*
X15710000Y-1250000D01*
X13950000Y-750000D02*
X14200000Y-500000D01*
X5675000Y-750000D02*
X13950000Y-750000D01*
X12249992Y250000D02*
X12399992Y400000D01*
X5675000Y250000D02*
X12249992Y250000D01*
X-8771200Y-6517200D02*
X-11765600Y-6517200D01*
X-5682800Y-6517200D02*
X-8771200Y-6517200D01*
X-5200000Y-7000000D02*
X-5682800Y-6517200D01*
X-3250000Y-6650000D02*
X-3600000Y-7000000D01*
X-3600000Y-7000000D02*
X-5200000Y-7000000D01*
X-3250000Y-5675000D02*
X-3250000Y-6650000D01*
X-8771200Y-8417200D02*
X-11765600Y-8417200D01*
X-3417200Y-8417200D02*
X-8771200Y-8417200D01*
X-1750000Y-6750000D02*
X-3417200Y-8417200D01*
X-1750000Y-5675000D02*
X-1750000Y-6750000D01*
X9570800Y-5629200D02*
X9570800Y-5340000D01*
X8000000Y-7200000D02*
X9570800Y-5629200D01*
X3200000Y-7200000D02*
X8000000Y-7200000D01*
X2750000Y-6750000D02*
X3200000Y-7200000D01*
X2750000Y-5675000D02*
X2750000Y-6750000D01*
X8992000Y-7800000D02*
X9521600Y-7270400D01*
X2250000Y-7050000D02*
X3000000Y-7800000D01*
X3000000Y-7800000D02*
X8992000Y-7800000D01*
X2250000Y-5675000D02*
X2250000Y-7050000D01*
X-7820400Y3250000D02*
X-7938200Y3367800D01*
X-5675000Y3250000D02*
X-7820400Y3250000D01*
X-7383800Y1250000D02*
X-7888200Y1754400D01*
X-5675000Y1250000D02*
X-7383800Y1250000D01*
X-7840000Y-2750000D02*
X-8205200Y-2384800D01*
X-5675000Y-2750000D02*
X-7840000Y-2750000D01*
D22*
X-316500Y1000000D02*
X-310419Y938254D01*
X-292408Y878881D01*
X-263160Y824162D01*
X-223799Y776201D01*
X-175838Y736840D01*
X-121119Y707592D01*
X-61746Y689581D01*
X0Y683500D01*
X2937500Y683500D01*
X2937500Y-683500D01*
X0Y-683500D01*
X-61746Y-689581D01*
X-121119Y-707592D01*
X-175838Y-736840D01*
X-223799Y-776201D01*
X-263160Y-824162D01*
X-292408Y-878881D01*
X-310419Y-938254D01*
X-316500Y-1000000D01*
X-316500Y-2937500D01*
X-2937500Y-2937500D01*
X-2937500Y2937500D01*
X-316500Y2937500D01*
X-316500Y1000000D01*
G04 #@! TA.AperFunction,Conductor*
D23*
G36*
X-316500Y1000000D02*
G01*
X-310419Y938254D01*
X-292408Y878881D01*
X-263160Y824162D01*
X-223799Y776201D01*
X-175838Y736840D01*
X-121119Y707592D01*
X-61746Y689581D01*
X0Y683500D01*
X2937500Y683500D01*
X2937500Y-683500D01*
X0Y-683500D01*
X-61746Y-689581D01*
X-121119Y-707592D01*
X-175838Y-736840D01*
X-223799Y-776201D01*
X-263160Y-824162D01*
X-292408Y-878881D01*
X-310419Y-938254D01*
X-316500Y-1000000D01*
X-316500Y-2937500D01*
X-2937500Y-2937500D01*
X-2937500Y2937500D01*
X-316500Y2937500D01*
X-316500Y1000000D01*
G37*
G04 #@! TD.AperFunction*
D24*
X19632500Y-9632500D02*
X11591812Y-9632500D01*
X11660052Y-9611799D01*
X11753028Y-9562103D01*
X11834522Y-9495222D01*
X11901403Y-9413728D01*
X11951099Y-9320752D01*
X11981703Y-9219867D01*
X11992036Y-9114950D01*
X11992036Y-8677450D01*
X11981703Y-8572533D01*
X11951099Y-8471648D01*
X11901403Y-8378672D01*
X11834522Y-8297178D01*
X11753028Y-8230297D01*
X11660052Y-8180601D01*
X11559167Y-8149997D01*
X11454250Y-8139664D01*
X10941750Y-8139664D01*
X10836833Y-8149997D01*
X10735948Y-8180601D01*
X10642972Y-8230297D01*
X10561478Y-8297178D01*
X10494597Y-8378672D01*
X10444901Y-8471648D01*
X10435542Y-8502500D01*
X10265825Y-8502500D01*
X10228163Y-8432039D01*
X10163614Y-8353386D01*
X10084961Y-8288837D01*
X9995226Y-8240873D01*
X9897859Y-8211337D01*
X9796600Y-8201364D01*
X9246600Y-8201364D01*
X9145341Y-8211337D01*
X9047974Y-8240873D01*
X8958239Y-8288837D01*
X8879586Y-8353386D01*
X8815037Y-8432039D01*
X8767073Y-8521774D01*
X8737537Y-8619141D01*
X8727564Y-8720400D01*
X8727564Y-9120400D01*
X8737537Y-9221659D01*
X8767073Y-9319026D01*
X8815037Y-9408761D01*
X8879586Y-9487414D01*
X8958239Y-9551963D01*
X9047974Y-9599927D01*
X9145341Y-9629463D01*
X9176177Y-9632500D01*
X-19632500Y-9632500D01*
X-19632500Y-5900000D01*
X-19628922Y-5900000D01*
X-19625244Y-5937345D01*
X-19614351Y-5973254D01*
X-19596662Y-6006348D01*
X-19572856Y-6035356D01*
X-19543848Y-6059162D01*
X-19510754Y-6076851D01*
X-19474845Y-6087744D01*
X-19437500Y-6091422D01*
X-18598625Y-6090500D01*
X-18551000Y-6042875D01*
X-18551000Y-5063500D01*
X-18424000Y-5063500D01*
X-18424000Y-6042875D01*
X-18376375Y-6090500D01*
X-17537500Y-6091422D01*
X-17500155Y-6087744D01*
X-17464246Y-6076851D01*
X-17431152Y-6059162D01*
X-17402144Y-6035356D01*
X-17378338Y-6006348D01*
X-17360649Y-5973254D01*
X-17349756Y-5937345D01*
X-17346078Y-5900000D01*
X-17346720Y-5350000D01*
X-16928922Y-5350000D01*
X-16925244Y-5387345D01*
X-16914351Y-5423254D01*
X-16896662Y-5456348D01*
X-16872856Y-5485356D01*
X-16843848Y-5509162D01*
X-16810754Y-5526851D01*
X-16774845Y-5537744D01*
X-16737500Y-5541422D01*
X-16048625Y-5540500D01*
X-16001000Y-5492875D01*
X-16001000Y-4363500D01*
X-15874000Y-4363500D01*
X-15874000Y-5492875D01*
X-15826375Y-5540500D01*
X-15137500Y-5541422D01*
X-15100155Y-5537744D01*
X-15064246Y-5526851D01*
X-15031152Y-5509162D01*
X-15002144Y-5485356D01*
X-14978338Y-5456348D01*
X-14960649Y-5423254D01*
X-14949756Y-5387345D01*
X-14946078Y-5350000D01*
X-14947000Y-4411125D01*
X-14994625Y-4363500D01*
X-15874000Y-4363500D01*
X-16001000Y-4363500D01*
X-16880375Y-4363500D01*
X-16928000Y-4411125D01*
X-16928922Y-5350000D01*
X-17346720Y-5350000D01*
X-17347000Y-5111125D01*
X-17394625Y-5063500D01*
X-18424000Y-5063500D01*
X-18551000Y-5063500D01*
X-19580375Y-5063500D01*
X-19628000Y-5111125D01*
X-19628922Y-5900000D01*
X-19632500Y-5900000D01*
X-19632500Y-4100000D01*
X-19628922Y-4100000D01*
X-19628000Y-4888875D01*
X-19580375Y-4936500D01*
X-18551000Y-4936500D01*
X-18551000Y-3957125D01*
X-18424000Y-3957125D01*
X-18424000Y-4936500D01*
X-17394625Y-4936500D01*
X-17347000Y-4888875D01*
X-17346078Y-4100000D01*
X-17349756Y-4062655D01*
X-17360649Y-4026746D01*
X-17378338Y-3993652D01*
X-17402144Y-3964644D01*
X-17431152Y-3940838D01*
X-17464246Y-3923149D01*
X-17500155Y-3912256D01*
X-17537500Y-3908578D01*
X-18376375Y-3909500D01*
X-18424000Y-3957125D01*
X-18551000Y-3957125D01*
X-18598625Y-3909500D01*
X-19437500Y-3908578D01*
X-19474845Y-3912256D01*
X-19510754Y-3923149D01*
X-19543848Y-3940838D01*
X-19572856Y-3964644D01*
X-19596662Y-3993652D01*
X-19614351Y-4026746D01*
X-19625244Y-4062655D01*
X-19628922Y-4100000D01*
X-19632500Y-4100000D01*
X-19632500Y-3350000D01*
X-19628922Y-3350000D01*
X-19625244Y-3387345D01*
X-19614351Y-3423254D01*
X-19596662Y-3456348D01*
X-19572856Y-3485356D01*
X-19543848Y-3509162D01*
X-19510754Y-3526851D01*
X-19474845Y-3537744D01*
X-19437500Y-3541422D01*
X-18598625Y-3540500D01*
X-18551000Y-3492875D01*
X-18551000Y-2463500D01*
X-18424000Y-2463500D01*
X-18424000Y-3492875D01*
X-18376375Y-3540500D01*
X-17537500Y-3541422D01*
X-17500155Y-3537744D01*
X-17464246Y-3526851D01*
X-17431152Y-3509162D01*
X-17402144Y-3485356D01*
X-17378338Y-3456348D01*
X-17360649Y-3423254D01*
X-17349756Y-3387345D01*
X-17346078Y-3350000D01*
X-17346187Y-3250000D01*
X-16928922Y-3250000D01*
X-16928000Y-4188875D01*
X-16880375Y-4236500D01*
X-16001000Y-4236500D01*
X-16001000Y-3107125D01*
X-15874000Y-3107125D01*
X-15874000Y-4236500D01*
X-14994625Y-4236500D01*
X-14947000Y-4188875D01*
X-14946496Y-3675000D01*
X-6769036Y-3675000D01*
X-6769036Y-3825000D01*
X-6761465Y-3901873D01*
X-6739042Y-3975791D01*
X-6702629Y-4043915D01*
X-6653626Y-4103626D01*
X-6593915Y-4152629D01*
X-6525791Y-4189042D01*
X-6451873Y-4211465D01*
X-6375000Y-4219036D01*
X-6117061Y-4219036D01*
X-6168236Y-4270211D01*
X-6237729Y-4374215D01*
X-6285597Y-4489777D01*
X-6310000Y-4612458D01*
X-6310000Y-4737542D01*
X-6285597Y-4860223D01*
X-6237729Y-4975785D01*
X-6168236Y-5079789D01*
X-6079789Y-5168236D01*
X-5975785Y-5237729D01*
X-5860223Y-5285597D01*
X-5737542Y-5310000D01*
X-5612458Y-5310000D01*
X-5489777Y-5285597D01*
X-5374215Y-5237729D01*
X-5270211Y-5168236D01*
X-5181764Y-5079789D01*
X-5112271Y-4975785D01*
X-5064403Y-4860223D01*
X-5040000Y-4737542D01*
X-5040000Y-4612458D01*
X-5064403Y-4489777D01*
X-5112271Y-4374215D01*
X-5181764Y-4270211D01*
X-5232939Y-4219036D01*
X-4975000Y-4219036D01*
X-4898127Y-4211465D01*
X-4824209Y-4189042D01*
X-4756085Y-4152629D01*
X-4696374Y-4103626D01*
X-4647371Y-4043915D01*
X-4610958Y-3975791D01*
X-4588535Y-3901873D01*
X-4580964Y-3825000D01*
X-4580964Y-3675000D01*
X-4588535Y-3598127D01*
X-4610958Y-3524209D01*
X-4647371Y-3456085D01*
X-4696374Y-3396374D01*
X-4708908Y-3386088D01*
X-4709500Y-3361125D01*
X-4757125Y-3313500D01*
X-4819453Y-3313500D01*
X-4824209Y-3310958D01*
X-4898127Y-3288535D01*
X-4975000Y-3280964D01*
X-6375000Y-3280964D01*
X-6451873Y-3288535D01*
X-6525791Y-3310958D01*
X-6530547Y-3313500D01*
X-6592875Y-3313500D01*
X-6640500Y-3361125D01*
X-6641092Y-3386088D01*
X-6653626Y-3396374D01*
X-6702629Y-3456085D01*
X-6739042Y-3524209D01*
X-6761465Y-3598127D01*
X-6769036Y-3675000D01*
X-14946496Y-3675000D01*
X-14946078Y-3250000D01*
X-14949756Y-3212655D01*
X-14960649Y-3176746D01*
X-14978338Y-3143652D01*
X-15002144Y-3114644D01*
X-15031152Y-3090838D01*
X-15064246Y-3073149D01*
X-15100155Y-3062256D01*
X-15137500Y-3058578D01*
X-15826375Y-3059500D01*
X-15874000Y-3107125D01*
X-16001000Y-3107125D01*
X-16048625Y-3059500D01*
X-16737500Y-3058578D01*
X-16774845Y-3062256D01*
X-16810754Y-3073149D01*
X-16843848Y-3090838D01*
X-16872856Y-3114644D01*
X-16896662Y-3143652D01*
X-16914351Y-3176746D01*
X-16925244Y-3212655D01*
X-16928922Y-3250000D01*
X-17346187Y-3250000D01*
X-17346792Y-2700000D01*
X-16678922Y-2700000D01*
X-16675244Y-2737345D01*
X-16664351Y-2773254D01*
X-16646662Y-2806348D01*
X-16622856Y-2835356D01*
X-16593848Y-2859162D01*
X-16560754Y-2876851D01*
X-16524845Y-2887744D01*
X-16487500Y-2891422D01*
X-15923625Y-2890500D01*
X-15876000Y-2842875D01*
X-15876000Y-2563500D01*
X-15749000Y-2563500D01*
X-15749000Y-2842875D01*
X-15701375Y-2890500D01*
X-15137500Y-2891422D01*
X-15100155Y-2887744D01*
X-15064246Y-2876851D01*
X-15031152Y-2859162D01*
X-15002144Y-2835356D01*
X-14978338Y-2806348D01*
X-14960649Y-2773254D01*
X-14949756Y-2737345D01*
X-14946078Y-2700000D01*
X-14947000Y-2611125D01*
X-14994625Y-2563500D01*
X-15749000Y-2563500D01*
X-15876000Y-2563500D01*
X-16630375Y-2563500D01*
X-16678000Y-2611125D01*
X-16678922Y-2700000D01*
X-17346792Y-2700000D01*
X-17347000Y-2511125D01*
X-17394625Y-2463500D01*
X-18424000Y-2463500D01*
X-18551000Y-2463500D01*
X-19580375Y-2463500D01*
X-19628000Y-2511125D01*
X-19628922Y-3350000D01*
X-19632500Y-3350000D01*
X-19632500Y-1450000D01*
X-19628922Y-1450000D01*
X-19628000Y-2288875D01*
X-19580375Y-2336500D01*
X-18551000Y-2336500D01*
X-18551000Y-1307125D01*
X-18424000Y-1307125D01*
X-18424000Y-2336500D01*
X-17394625Y-2336500D01*
X-17347000Y-2288875D01*
X-17346078Y-1450000D01*
X-17349756Y-1412655D01*
X-17360649Y-1376746D01*
X-17378338Y-1343652D01*
X-17402144Y-1314644D01*
X-17431152Y-1290838D01*
X-17464246Y-1273149D01*
X-17500155Y-1262256D01*
X-17537500Y-1258578D01*
X-18376375Y-1259500D01*
X-18424000Y-1307125D01*
X-18551000Y-1307125D01*
X-18598625Y-1259500D01*
X-19437500Y-1258578D01*
X-19474845Y-1262256D01*
X-19510754Y-1273149D01*
X-19543848Y-1290838D01*
X-19572856Y-1314644D01*
X-19596662Y-1343652D01*
X-19614351Y-1376746D01*
X-19625244Y-1412655D01*
X-19628922Y-1450000D01*
X-19632500Y-1450000D01*
X-19632500Y-950000D01*
X-19628922Y-950000D01*
X-19625244Y-987345D01*
X-19614351Y-1023254D01*
X-19596662Y-1056348D01*
X-19572856Y-1085356D01*
X-19543848Y-1109162D01*
X-19510754Y-1126851D01*
X-19474845Y-1137744D01*
X-19437500Y-1141422D01*
X-18598625Y-1140500D01*
X-18551000Y-1092875D01*
X-18551000Y-63500D01*
X-18424000Y-63500D01*
X-18424000Y-1092875D01*
X-18376375Y-1140500D01*
X-17537500Y-1141422D01*
X-17500155Y-1137744D01*
X-17464246Y-1126851D01*
X-17431152Y-1109162D01*
X-17402144Y-1085356D01*
X-17378338Y-1056348D01*
X-17360649Y-1023254D01*
X-17349756Y-987345D01*
X-17346078Y-950000D01*
X-17347000Y-111125D01*
X-17394625Y-63500D01*
X-18424000Y-63500D01*
X-18551000Y-63500D01*
X-19580375Y-63500D01*
X-19628000Y-111125D01*
X-19628922Y-950000D01*
X-19632500Y-950000D01*
X-19632500Y950000D01*
X-19628922Y950000D01*
X-19628000Y111125D01*
X-19580375Y63500D01*
X-18551000Y63500D01*
X-18551000Y1092875D01*
X-18424000Y1092875D01*
X-18424000Y63500D01*
X-17394625Y63500D01*
X-17347000Y111125D01*
X-17346793Y300000D01*
X-16806536Y300000D01*
X-16806536Y-100000D01*
X-16800406Y-162241D01*
X-16782251Y-222090D01*
X-16780696Y-225000D01*
X-16782251Y-227910D01*
X-16800406Y-287759D01*
X-16806536Y-350000D01*
X-16806536Y-750000D01*
X-16800406Y-812241D01*
X-16782251Y-872090D01*
X-16780696Y-875000D01*
X-16782251Y-877910D01*
X-16800406Y-937759D01*
X-16806536Y-1000000D01*
X-16806536Y-1400000D01*
X-16800406Y-1462241D01*
X-16782251Y-1522090D01*
X-16780696Y-1525000D01*
X-16782251Y-1527910D01*
X-16800406Y-1587759D01*
X-16806536Y-1650000D01*
X-16806536Y-2050000D01*
X-16800406Y-2112241D01*
X-16782251Y-2172090D01*
X-16752769Y-2227247D01*
X-16713093Y-2275593D01*
X-16678884Y-2303667D01*
X-16678000Y-2388875D01*
X-16630375Y-2436500D01*
X-15876000Y-2436500D01*
X-15876000Y-2416500D01*
X-15749000Y-2416500D01*
X-15749000Y-2436500D01*
X-14994625Y-2436500D01*
X-14947000Y-2388875D01*
X-14946116Y-2303667D01*
X-14911907Y-2275593D01*
X-14872231Y-2227247D01*
X-14842749Y-2172090D01*
X-14824594Y-2112241D01*
X-14818464Y-2050000D01*
X-14818464Y-1650000D01*
X-14824009Y-1593700D01*
X-14819321Y-1593700D01*
X-14799999Y-1595603D01*
X-14780677Y-1593700D01*
X-14780666Y-1593700D01*
X-14722820Y-1588003D01*
X-14648608Y-1565490D01*
X-14580213Y-1528933D01*
X-14520265Y-1479734D01*
X-14507939Y-1464715D01*
X-14464324Y-1421100D01*
X-10831194Y-1421100D01*
X-10811872Y-1423003D01*
X-10792550Y-1421100D01*
X-10792539Y-1421100D01*
X-10734693Y-1415403D01*
X-10660481Y-1392890D01*
X-10592086Y-1356333D01*
X-10532138Y-1307134D01*
X-10519812Y-1292115D01*
X-9273796Y-46100D01*
X-8648587Y-46100D01*
X-8678826Y-55273D01*
X-8768561Y-103237D01*
X-8847214Y-167786D01*
X-8911763Y-246439D01*
X-8959727Y-336174D01*
X-8989263Y-433541D01*
X-8999236Y-534800D01*
X-8999236Y-934800D01*
X-8989263Y-1036059D01*
X-8959727Y-1133426D01*
X-8911763Y-1223161D01*
X-8847214Y-1301814D01*
X-8768561Y-1366363D01*
X-8678826Y-1414327D01*
X-8581459Y-1443863D01*
X-8480200Y-1453836D01*
X-7930200Y-1453836D01*
X-7828941Y-1443863D01*
X-7731574Y-1414327D01*
X-7641839Y-1366363D01*
X-7563186Y-1301814D01*
X-7498637Y-1223161D01*
X-7450673Y-1133426D01*
X-7421137Y-1036059D01*
X-7411164Y-934800D01*
X-7411164Y-900000D01*
X-6641422Y-900000D01*
X-6637744Y-937345D01*
X-6626851Y-973254D01*
X-6612555Y-1000000D01*
X-6626851Y-1026746D01*
X-6637744Y-1062655D01*
X-6641422Y-1100000D01*
X-6640500Y-1138875D01*
X-6592875Y-1186500D01*
X-5738500Y-1186500D01*
X-5738500Y-813500D01*
X-5611500Y-813500D01*
X-5611500Y-1186500D01*
X-4757125Y-1186500D01*
X-4709500Y-1138875D01*
X-4708578Y-1100000D01*
X-4712256Y-1062655D01*
X-4723149Y-1026746D01*
X-4737445Y-1000000D01*
X-4723149Y-973254D01*
X-4712256Y-937345D01*
X-4708578Y-900000D01*
X-4709500Y-861125D01*
X-4757125Y-813500D01*
X-5611500Y-813500D01*
X-5738500Y-813500D01*
X-6592875Y-813500D01*
X-6640500Y-861125D01*
X-6641422Y-900000D01*
X-7411164Y-900000D01*
X-7411164Y-643700D01*
X-6635675Y-643700D01*
X-6592875Y-686500D01*
X-6530547Y-686500D01*
X-6525791Y-689042D01*
X-6451873Y-711465D01*
X-6375000Y-719036D01*
X-4975000Y-719036D01*
X-4898127Y-711465D01*
X-4824209Y-689042D01*
X-4819453Y-686500D01*
X-4757125Y-686500D01*
X-4714325Y-643700D01*
X-3317500Y-643700D01*
X-3317500Y-2773636D01*
X-3320266Y-2770266D01*
X-3335278Y-2757946D01*
X-4607940Y-1485285D01*
X-4620266Y-1470266D01*
X-4667641Y-1431385D01*
X-4696374Y-1396374D01*
X-4708908Y-1386088D01*
X-4709500Y-1361125D01*
X-4757125Y-1313500D01*
X-4819453Y-1313500D01*
X-4824209Y-1310958D01*
X-4898127Y-1288535D01*
X-4975000Y-1280964D01*
X-6375000Y-1280964D01*
X-6451873Y-1288535D01*
X-6525791Y-1310958D01*
X-6530547Y-1313500D01*
X-6592875Y-1313500D01*
X-6640500Y-1361125D01*
X-6641092Y-1386088D01*
X-6653626Y-1396374D01*
X-6702629Y-1456085D01*
X-6739042Y-1524209D01*
X-6761465Y-1598127D01*
X-6769036Y-1675000D01*
X-6769036Y-1825000D01*
X-6761465Y-1901873D01*
X-6739042Y-1975791D01*
X-6702629Y-2043915D01*
X-6653626Y-2103626D01*
X-6641092Y-2113912D01*
X-6640500Y-2138875D01*
X-6592875Y-2186500D01*
X-6530547Y-2186500D01*
X-6525791Y-2189042D01*
X-6451873Y-2211465D01*
X-6375000Y-2219036D01*
X-5591500Y-2219036D01*
X-5591500Y-2280964D01*
X-6375000Y-2280964D01*
X-6451873Y-2288535D01*
X-6525791Y-2310958D01*
X-6530547Y-2313500D01*
X-6592875Y-2313500D01*
X-6635675Y-2356300D01*
X-7411164Y-2356300D01*
X-7411164Y-2184800D01*
X-7421137Y-2083541D01*
X-7450673Y-1986174D01*
X-7498637Y-1896439D01*
X-7563186Y-1817786D01*
X-7641839Y-1753237D01*
X-7731574Y-1705273D01*
X-7828941Y-1675737D01*
X-7930200Y-1665764D01*
X-8480200Y-1665764D01*
X-8581459Y-1675737D01*
X-8678826Y-1705273D01*
X-8768561Y-1753237D01*
X-8847214Y-1817786D01*
X-8911763Y-1896439D01*
X-8959727Y-1986174D01*
X-8989263Y-2083541D01*
X-8999236Y-2184800D01*
X-8999236Y-2584800D01*
X-8989263Y-2686059D01*
X-8959727Y-2783426D01*
X-8911763Y-2873161D01*
X-8847214Y-2951814D01*
X-8768561Y-3016363D01*
X-8678826Y-3064327D01*
X-8581459Y-3093863D01*
X-8480200Y-3103836D01*
X-8013195Y-3103836D01*
X-7991391Y-3115490D01*
X-7917179Y-3138003D01*
X-7859333Y-3143700D01*
X-7859325Y-3143700D01*
X-7840000Y-3145603D01*
X-7820675Y-3143700D01*
X-6635675Y-3143700D01*
X-6592875Y-3186500D01*
X-6530547Y-3186500D01*
X-6525791Y-3189042D01*
X-6451873Y-3211465D01*
X-6375000Y-3219036D01*
X-4975000Y-3219036D01*
X-4898127Y-3211465D01*
X-4824209Y-3189042D01*
X-4819453Y-3186500D01*
X-4757125Y-3186500D01*
X-4709500Y-3138875D01*
X-4708908Y-3113912D01*
X-4696374Y-3103626D01*
X-4647371Y-3043915D01*
X-4610958Y-2975791D01*
X-4588535Y-2901873D01*
X-4580964Y-2825000D01*
X-4580964Y-2675000D01*
X-4586338Y-2620438D01*
X-4100577Y-3106198D01*
X-4162729Y-3199215D01*
X-4210597Y-3314777D01*
X-4235000Y-3437458D01*
X-4235000Y-3562542D01*
X-4210597Y-3685223D01*
X-4162729Y-3800785D01*
X-4093236Y-3904789D01*
X-4004789Y-3993236D01*
X-3900785Y-4062729D01*
X-3785223Y-4110597D01*
X-3662542Y-4135000D01*
X-3537458Y-4135000D01*
X-3414777Y-4110597D01*
X-3299215Y-4062729D01*
X-3195211Y-3993236D01*
X-3106764Y-3904789D01*
X-3037271Y-3800785D01*
X-2989403Y-3685223D01*
X-2965000Y-3562542D01*
X-2965000Y-3437458D01*
X-2988861Y-3317500D01*
X-2643699Y-3317500D01*
X-2643700Y-4584047D01*
X-2675000Y-4580964D01*
X-2825000Y-4580964D01*
X-2901873Y-4588535D01*
X-2975791Y-4610958D01*
X-3000000Y-4623898D01*
X-3024209Y-4610958D01*
X-3098127Y-4588535D01*
X-3175000Y-4580964D01*
X-3325000Y-4580964D01*
X-3401873Y-4588535D01*
X-3475791Y-4610958D01*
X-3500000Y-4623898D01*
X-3524209Y-4610958D01*
X-3598127Y-4588535D01*
X-3675000Y-4580964D01*
X-3825000Y-4580964D01*
X-3901873Y-4588535D01*
X-3975791Y-4610958D01*
X-4043915Y-4647371D01*
X-4103626Y-4696374D01*
X-4152629Y-4756085D01*
X-4189042Y-4824209D01*
X-4211465Y-4898127D01*
X-4219036Y-4975000D01*
X-4219036Y-5281300D01*
X-4320675Y-5281300D01*
X-4395211Y-5206764D01*
X-4499215Y-5137271D01*
X-4614777Y-5089403D01*
X-4737458Y-5065000D01*
X-4862542Y-5065000D01*
X-4985223Y-5089403D01*
X-5100785Y-5137271D01*
X-5204789Y-5206764D01*
X-5293236Y-5295211D01*
X-5362729Y-5399215D01*
X-5410597Y-5514777D01*
X-5435000Y-5637458D01*
X-5435000Y-5762542D01*
X-5410597Y-5885223D01*
X-5362729Y-6000785D01*
X-5293236Y-6104789D01*
X-5204789Y-6193236D01*
X-5100785Y-6262729D01*
X-4985223Y-6310597D01*
X-4862542Y-6335000D01*
X-4737458Y-6335000D01*
X-4614777Y-6310597D01*
X-4499215Y-6262729D01*
X-4395211Y-6193236D01*
X-4306764Y-6104789D01*
X-4282650Y-6068700D01*
X-4219036Y-6068700D01*
X-4219036Y-6375000D01*
X-4211465Y-6451873D01*
X-4189042Y-6525791D01*
X-4152629Y-6593915D01*
X-4142465Y-6606300D01*
X-5036924Y-6606300D01*
X-5390740Y-6252485D01*
X-5403066Y-6237466D01*
X-5463014Y-6188267D01*
X-5531409Y-6151710D01*
X-5605621Y-6129197D01*
X-5663467Y-6123500D01*
X-5663478Y-6123500D01*
X-5682800Y-6121597D01*
X-5702122Y-6123500D01*
X-8256112Y-6123500D01*
X-8262094Y-6062759D01*
X-8280249Y-6002910D01*
X-8309731Y-5947753D01*
X-8349407Y-5899407D01*
X-8397753Y-5859731D01*
X-8452910Y-5830249D01*
X-8512759Y-5812094D01*
X-8575000Y-5805964D01*
X-9475000Y-5805964D01*
X-9537241Y-5812094D01*
X-9597090Y-5830249D01*
X-9652247Y-5859731D01*
X-9700593Y-5899407D01*
X-9740269Y-5947753D01*
X-9769751Y-6002910D01*
X-9787906Y-6062759D01*
X-9793888Y-6123500D01*
X-10996564Y-6123500D01*
X-10996564Y-6117200D01*
X-11002694Y-6054959D01*
X-11020849Y-5995110D01*
X-11050331Y-5939953D01*
X-11090007Y-5891607D01*
X-11138353Y-5851931D01*
X-11193510Y-5822449D01*
X-11253359Y-5804294D01*
X-11315600Y-5798164D01*
X-12092188Y-5798164D01*
X-11987724Y-5693700D01*
X-10800645Y-5693700D01*
X-10793236Y-5704789D01*
X-10704789Y-5793236D01*
X-10600785Y-5862729D01*
X-10485223Y-5910597D01*
X-10362542Y-5935000D01*
X-10237458Y-5935000D01*
X-10114777Y-5910597D01*
X-9999215Y-5862729D01*
X-9895211Y-5793236D01*
X-9806764Y-5704789D01*
X-9737271Y-5600785D01*
X-9689403Y-5485223D01*
X-9665000Y-5362542D01*
X-9665000Y-5237458D01*
X-9689403Y-5114777D01*
X-9737271Y-4999215D01*
X-9806764Y-4895211D01*
X-9895211Y-4806764D01*
X-9999215Y-4737271D01*
X-10114777Y-4689403D01*
X-10237458Y-4665000D01*
X-10362542Y-4665000D01*
X-10485223Y-4689403D01*
X-10600785Y-4737271D01*
X-10704789Y-4806764D01*
X-10793236Y-4895211D01*
X-10800645Y-4906300D01*
X-12131478Y-4906300D01*
X-12150801Y-4904397D01*
X-12170123Y-4906300D01*
X-12170133Y-4906300D01*
X-12227979Y-4911997D01*
X-12302191Y-4934510D01*
X-12370586Y-4971067D01*
X-12415518Y-5007942D01*
X-12415521Y-5007945D01*
X-12430534Y-5020266D01*
X-12442856Y-5035280D01*
X-14030320Y-6622745D01*
X-14045333Y-6635066D01*
X-14057654Y-6650079D01*
X-14057658Y-6650083D01*
X-14094533Y-6695015D01*
X-14122941Y-6748164D01*
X-14215600Y-6748164D01*
X-14277841Y-6754294D01*
X-14337690Y-6772449D01*
X-14392847Y-6801931D01*
X-14441193Y-6841607D01*
X-14480869Y-6889953D01*
X-14510351Y-6945110D01*
X-14528506Y-7004959D01*
X-14534636Y-7067200D01*
X-14534636Y-7867200D01*
X-14528506Y-7929441D01*
X-14510351Y-7989290D01*
X-14480869Y-8044447D01*
X-14441193Y-8092793D01*
X-14392847Y-8132469D01*
X-14337690Y-8161951D01*
X-14277841Y-8180106D01*
X-14215600Y-8186236D01*
X-13315600Y-8186236D01*
X-13253359Y-8180106D01*
X-13193510Y-8161951D01*
X-13138353Y-8132469D01*
X-13090007Y-8092793D01*
X-13050331Y-8044447D01*
X-13020849Y-7989290D01*
X-13002694Y-7929441D01*
X-12996564Y-7867200D01*
X-12996564Y-7067200D01*
X-13002694Y-7004959D01*
X-13020849Y-6945110D01*
X-13050331Y-6889953D01*
X-13090007Y-6841607D01*
X-13115066Y-6821042D01*
X-12534636Y-6240612D01*
X-12534636Y-6917200D01*
X-12528506Y-6979441D01*
X-12510351Y-7039290D01*
X-12480869Y-7094447D01*
X-12441193Y-7142793D01*
X-12392847Y-7182469D01*
X-12337690Y-7211951D01*
X-12277841Y-7230106D01*
X-12215600Y-7236236D01*
X-11315600Y-7236236D01*
X-11253359Y-7230106D01*
X-11193510Y-7211951D01*
X-11138353Y-7182469D01*
X-11090007Y-7142793D01*
X-11050331Y-7094447D01*
X-11020849Y-7039290D01*
X-11002694Y-6979441D01*
X-10996564Y-6917200D01*
X-10996564Y-6910900D01*
X-9794036Y-6910900D01*
X-9794036Y-6925000D01*
X-9787906Y-6987241D01*
X-9769751Y-7047090D01*
X-9740269Y-7102247D01*
X-9700593Y-7150593D01*
X-9652247Y-7190269D01*
X-9597090Y-7219751D01*
X-9537241Y-7237906D01*
X-9475000Y-7244036D01*
X-8575000Y-7244036D01*
X-8512759Y-7237906D01*
X-8452910Y-7219751D01*
X-8397753Y-7190269D01*
X-8349407Y-7150593D01*
X-8309731Y-7102247D01*
X-8280249Y-7047090D01*
X-8262094Y-6987241D01*
X-8255964Y-6925000D01*
X-8255964Y-6910900D01*
X-7747296Y-6910900D01*
X-7769751Y-6952910D01*
X-7787906Y-7012759D01*
X-7794036Y-7075000D01*
X-7794036Y-7875000D01*
X-7787906Y-7937241D01*
X-7769751Y-7997090D01*
X-7755635Y-8023500D01*
X-8256112Y-8023500D01*
X-8262094Y-7962759D01*
X-8280249Y-7902910D01*
X-8309731Y-7847753D01*
X-8349407Y-7799407D01*
X-8397753Y-7759731D01*
X-8452910Y-7730249D01*
X-8512759Y-7712094D01*
X-8575000Y-7705964D01*
X-9475000Y-7705964D01*
X-9537241Y-7712094D01*
X-9597090Y-7730249D01*
X-9652247Y-7759731D01*
X-9700593Y-7799407D01*
X-9740269Y-7847753D01*
X-9769751Y-7902910D01*
X-9787906Y-7962759D01*
X-9793888Y-8023500D01*
X-10996564Y-8023500D01*
X-10996564Y-8017200D01*
X-11002694Y-7954959D01*
X-11020849Y-7895110D01*
X-11050331Y-7839953D01*
X-11090007Y-7791607D01*
X-11138353Y-7751931D01*
X-11193510Y-7722449D01*
X-11253359Y-7704294D01*
X-11315600Y-7698164D01*
X-12215600Y-7698164D01*
X-12277841Y-7704294D01*
X-12337690Y-7722449D01*
X-12392847Y-7751931D01*
X-12441193Y-7791607D01*
X-12480869Y-7839953D01*
X-12510351Y-7895110D01*
X-12528506Y-7954959D01*
X-12534636Y-8017200D01*
X-12534636Y-8817200D01*
X-12528506Y-8879441D01*
X-12510351Y-8939290D01*
X-12480869Y-8994447D01*
X-12441193Y-9042793D01*
X-12392847Y-9082469D01*
X-12337690Y-9111951D01*
X-12277841Y-9130106D01*
X-12215600Y-9136236D01*
X-11315600Y-9136236D01*
X-11253359Y-9130106D01*
X-11193510Y-9111951D01*
X-11138353Y-9082469D01*
X-11090007Y-9042793D01*
X-11050331Y-8994447D01*
X-11020849Y-8939290D01*
X-11002694Y-8879441D01*
X-10996564Y-8817200D01*
X-10996564Y-8810900D01*
X-9794036Y-8810900D01*
X-9794036Y-8825000D01*
X-9787906Y-8887241D01*
X-9769751Y-8947090D01*
X-9740269Y-9002247D01*
X-9700593Y-9050593D01*
X-9652247Y-9090269D01*
X-9597090Y-9119751D01*
X-9537241Y-9137906D01*
X-9475000Y-9144036D01*
X-8575000Y-9144036D01*
X-8512759Y-9137906D01*
X-8452910Y-9119751D01*
X-8397753Y-9090269D01*
X-8349407Y-9050593D01*
X-8309731Y-9002247D01*
X-8280249Y-8947090D01*
X-8262094Y-8887241D01*
X-8255964Y-8825000D01*
X-8255964Y-8810900D01*
X-3436522Y-8810900D01*
X-3417200Y-8812803D01*
X-3397878Y-8810900D01*
X-3397867Y-8810900D01*
X-3340021Y-8805203D01*
X-3265809Y-8782690D01*
X-3197414Y-8746133D01*
X-3137466Y-8696934D01*
X-3125140Y-8681915D01*
X-1485280Y-7042056D01*
X-1470266Y-7029734D01*
X-1457941Y-7014717D01*
X-1421067Y-6969786D01*
X-1384510Y-6901391D01*
X-1361997Y-6827179D01*
X-1359682Y-6803672D01*
X-1356300Y-6769333D01*
X-1356300Y-6769325D01*
X-1355971Y-6765986D01*
X-1325000Y-6769036D01*
X-1175000Y-6769036D01*
X-1098127Y-6761465D01*
X-1024209Y-6739042D01*
X-1000000Y-6726102D01*
X-975791Y-6739042D01*
X-901873Y-6761465D01*
X-825000Y-6769036D01*
X-675000Y-6769036D01*
X-598127Y-6761465D01*
X-524209Y-6739042D01*
X-500000Y-6726102D01*
X-475791Y-6739042D01*
X-401873Y-6761465D01*
X-325000Y-6769036D01*
X-175000Y-6769036D01*
X-98127Y-6761465D01*
X-24209Y-6739042D01*
X43915Y-6702629D01*
X103626Y-6653626D01*
X113912Y-6641092D01*
X138875Y-6640500D01*
X186500Y-6592875D01*
X186500Y-6530547D01*
X189042Y-6525791D01*
X211465Y-6451873D01*
X219036Y-6375000D01*
X219036Y-4975000D01*
X211465Y-4898127D01*
X189042Y-4824209D01*
X186500Y-4819453D01*
X186500Y-4757125D01*
X138875Y-4709500D01*
X113912Y-4708908D01*
X103626Y-4696374D01*
X43915Y-4647371D01*
X-24209Y-4610958D01*
X-98127Y-4588535D01*
X-175000Y-4580964D01*
X-325000Y-4580964D01*
X-401873Y-4588535D01*
X-475791Y-4610958D01*
X-500000Y-4623898D01*
X-524209Y-4610958D01*
X-598127Y-4588535D01*
X-675000Y-4580964D01*
X-825000Y-4580964D01*
X-901873Y-4588535D01*
X-975791Y-4610958D01*
X-1000000Y-4623898D01*
X-1024209Y-4610958D01*
X-1098127Y-4588535D01*
X-1175000Y-4580964D01*
X-1325000Y-4580964D01*
X-1401873Y-4588535D01*
X-1475791Y-4610958D01*
X-1500000Y-4623898D01*
X-1524209Y-4610958D01*
X-1598127Y-4588535D01*
X-1675000Y-4580964D01*
X-1825000Y-4580964D01*
X-1856300Y-4584047D01*
X-1856300Y-3413075D01*
X-1760725Y-3317500D01*
X-939275Y-3317500D01*
X-192056Y-4064720D01*
X-179734Y-4079734D01*
X-164721Y-4092055D01*
X-164718Y-4092058D01*
X-119786Y-4128933D01*
X-51391Y-4165490D01*
X22821Y-4188003D01*
X80667Y-4193700D01*
X80677Y-4193700D01*
X100000Y-4195603D01*
X119322Y-4193700D01*
X2136925Y-4193700D01*
X2547206Y-4603982D01*
X2524209Y-4610958D01*
X2500000Y-4623898D01*
X2475791Y-4610958D01*
X2401873Y-4588535D01*
X2325000Y-4580964D01*
X2175000Y-4580964D01*
X2098127Y-4588535D01*
X2024209Y-4610958D01*
X2000000Y-4623898D01*
X1975791Y-4610958D01*
X1901873Y-4588535D01*
X1825000Y-4580964D01*
X1675000Y-4580964D01*
X1598127Y-4588535D01*
X1524209Y-4610958D01*
X1500000Y-4623898D01*
X1475791Y-4610958D01*
X1401873Y-4588535D01*
X1325000Y-4580964D01*
X1175000Y-4580964D01*
X1098127Y-4588535D01*
X1024209Y-4610958D01*
X1000000Y-4623898D01*
X975791Y-4610958D01*
X901873Y-4588535D01*
X825000Y-4580964D01*
X675000Y-4580964D01*
X598127Y-4588535D01*
X524209Y-4610958D01*
X456085Y-4647371D01*
X396374Y-4696374D01*
X386088Y-4708908D01*
X361125Y-4709500D01*
X313500Y-4757125D01*
X313500Y-4819453D01*
X310958Y-4824209D01*
X288535Y-4898127D01*
X280964Y-4975000D01*
X280964Y-6375000D01*
X288535Y-6451873D01*
X310958Y-6525791D01*
X313500Y-6530547D01*
X313500Y-6592875D01*
X361125Y-6640500D01*
X386088Y-6641092D01*
X396374Y-6653626D01*
X456085Y-6702629D01*
X524209Y-6739042D01*
X598127Y-6761465D01*
X675000Y-6769036D01*
X825000Y-6769036D01*
X901873Y-6761465D01*
X975791Y-6739042D01*
X1000000Y-6726102D01*
X1024209Y-6739042D01*
X1098127Y-6761465D01*
X1175000Y-6769036D01*
X1325000Y-6769036D01*
X1401873Y-6761465D01*
X1475791Y-6739042D01*
X1500000Y-6726102D01*
X1524209Y-6739042D01*
X1598127Y-6761465D01*
X1675000Y-6769036D01*
X1825000Y-6769036D01*
X1856301Y-6765953D01*
X1856301Y-7030668D01*
X1854397Y-7050000D01*
X1856301Y-7069333D01*
X1857273Y-7079197D01*
X1861998Y-7127178D01*
X1884510Y-7201390D01*
X1921067Y-7269785D01*
X1957942Y-7314717D01*
X1957946Y-7314721D01*
X1970267Y-7329734D01*
X1985280Y-7342055D01*
X2707944Y-8064720D01*
X2720266Y-8079734D01*
X2735279Y-8092055D01*
X2735282Y-8092058D01*
X2745682Y-8100593D01*
X2780214Y-8128933D01*
X2848609Y-8165490D01*
X2922821Y-8188003D01*
X2980667Y-8193700D01*
X2980677Y-8193700D01*
X2999999Y-8195603D01*
X3019322Y-8193700D01*
X8972678Y-8193700D01*
X8992000Y-8195603D01*
X9011322Y-8193700D01*
X9011333Y-8193700D01*
X9069179Y-8188003D01*
X9143391Y-8165490D01*
X9211786Y-8128933D01*
X9271734Y-8079734D01*
X9284060Y-8064715D01*
X9359339Y-7989436D01*
X9796600Y-7989436D01*
X9897859Y-7979463D01*
X9995226Y-7949927D01*
X10084961Y-7901963D01*
X10163614Y-7837414D01*
X10228163Y-7758761D01*
X10276127Y-7669026D01*
X10305663Y-7571659D01*
X10315636Y-7470400D01*
X10315636Y-7102450D01*
X10403964Y-7102450D01*
X10403964Y-7539950D01*
X10414297Y-7644867D01*
X10444901Y-7745752D01*
X10494597Y-7838728D01*
X10561478Y-7920222D01*
X10642972Y-7987103D01*
X10735948Y-8036799D01*
X10836833Y-8067403D01*
X10941750Y-8077736D01*
X11454250Y-8077736D01*
X11559167Y-8067403D01*
X11660052Y-8036799D01*
X11753028Y-7987103D01*
X11834522Y-7920222D01*
X11901403Y-7838728D01*
X11951099Y-7745752D01*
X11981703Y-7644867D01*
X11992036Y-7539950D01*
X11992036Y-7102450D01*
X11981703Y-6997533D01*
X11951099Y-6896648D01*
X11901403Y-6803672D01*
X11834522Y-6722178D01*
X11789038Y-6684850D01*
X11809929Y-6653585D01*
X11857797Y-6538023D01*
X11882200Y-6415342D01*
X11882200Y-6290258D01*
X11857797Y-6167577D01*
X11809929Y-6052015D01*
X11760287Y-5977721D01*
X11802228Y-5955303D01*
X11883722Y-5888422D01*
X11950603Y-5806928D01*
X12000299Y-5713952D01*
X12030903Y-5613067D01*
X12041236Y-5508150D01*
X12041236Y-5070650D01*
X12030903Y-4965733D01*
X12000299Y-4864848D01*
X11950603Y-4771872D01*
X11883722Y-4690378D01*
X11802228Y-4623497D01*
X11709252Y-4573801D01*
X11608367Y-4543197D01*
X11503450Y-4532864D01*
X10990950Y-4532864D01*
X10886033Y-4543197D01*
X10785148Y-4573801D01*
X10692172Y-4623497D01*
X10610678Y-4690378D01*
X10543797Y-4771872D01*
X10494101Y-4864848D01*
X10463497Y-4965733D01*
X10453164Y-5070650D01*
X10453164Y-5508150D01*
X10463497Y-5613067D01*
X10494101Y-5713952D01*
X10543797Y-5806928D01*
X10610678Y-5888422D01*
X10692172Y-5955303D01*
X10734113Y-5977721D01*
X10684471Y-6052015D01*
X10636603Y-6167577D01*
X10612200Y-6290258D01*
X10612200Y-6415342D01*
X10636603Y-6538023D01*
X10677529Y-6636826D01*
X10642972Y-6655297D01*
X10561478Y-6722178D01*
X10494597Y-6803672D01*
X10444901Y-6896648D01*
X10414297Y-6997533D01*
X10403964Y-7102450D01*
X10315636Y-7102450D01*
X10315636Y-7070400D01*
X10305663Y-6969141D01*
X10276127Y-6871774D01*
X10228163Y-6782039D01*
X10163614Y-6703386D01*
X10084961Y-6638837D01*
X9995226Y-6590873D01*
X9897859Y-6561337D01*
X9796600Y-6551364D01*
X9246600Y-6551364D01*
X9200912Y-6555864D01*
X9697740Y-6059036D01*
X9845800Y-6059036D01*
X9947059Y-6049063D01*
X10044426Y-6019527D01*
X10134161Y-5971563D01*
X10212814Y-5907014D01*
X10277363Y-5828361D01*
X10325327Y-5738626D01*
X10354863Y-5641259D01*
X10364836Y-5540000D01*
X10364836Y-5140000D01*
X10354863Y-5038741D01*
X10325327Y-4941374D01*
X10277363Y-4851639D01*
X10212814Y-4772986D01*
X10134161Y-4708437D01*
X10044426Y-4660473D01*
X9947059Y-4630937D01*
X9845800Y-4620964D01*
X9295800Y-4620964D01*
X9194541Y-4630937D01*
X9097174Y-4660473D01*
X9007439Y-4708437D01*
X8928786Y-4772986D01*
X8864237Y-4851639D01*
X8816273Y-4941374D01*
X8786737Y-5038741D01*
X8776764Y-5140000D01*
X8776764Y-5540000D01*
X8786737Y-5641259D01*
X8816273Y-5738626D01*
X8847039Y-5796185D01*
X7836925Y-6806300D01*
X3363076Y-6806300D01*
X3325739Y-6768963D01*
X3401873Y-6761465D01*
X3475791Y-6739042D01*
X3500000Y-6726102D01*
X3524209Y-6739042D01*
X3598127Y-6761465D01*
X3675000Y-6769036D01*
X3825000Y-6769036D01*
X3901873Y-6761465D01*
X3975791Y-6739042D01*
X4043915Y-6702629D01*
X4103626Y-6653626D01*
X4152629Y-6593915D01*
X4189042Y-6525791D01*
X4211465Y-6451873D01*
X4219036Y-6375000D01*
X4219036Y-4975000D01*
X4211465Y-4898127D01*
X4189042Y-4824209D01*
X4152629Y-4756085D01*
X4103626Y-4696374D01*
X4043915Y-4647371D01*
X3975791Y-4610958D01*
X3901873Y-4588535D01*
X3825000Y-4580964D01*
X3675000Y-4580964D01*
X3609506Y-4587414D01*
X3578933Y-4530214D01*
X3568499Y-4517500D01*
X3542058Y-4485282D01*
X3542055Y-4485279D01*
X3529734Y-4470266D01*
X3514720Y-4457944D01*
X2592060Y-3535285D01*
X2579734Y-3520266D01*
X2519786Y-3471067D01*
X2451391Y-3434510D01*
X2377179Y-3411997D01*
X2319333Y-3406300D01*
X2319322Y-3406300D01*
X2300000Y-3404397D01*
X2280678Y-3406300D01*
X263076Y-3406300D01*
X174276Y-3317500D01*
X3000000Y-3317500D01*
X3061941Y-3311399D01*
X3121502Y-3293332D01*
X3176394Y-3263992D01*
X3224506Y-3224506D01*
X3263992Y-3176394D01*
X3264737Y-3175000D01*
X4580964Y-3175000D01*
X4580964Y-3325000D01*
X4588535Y-3401873D01*
X4610958Y-3475791D01*
X4623898Y-3500000D01*
X4610958Y-3524209D01*
X4588535Y-3598127D01*
X4580964Y-3675000D01*
X4580964Y-3825000D01*
X4588535Y-3901873D01*
X4610958Y-3975791D01*
X4647371Y-4043915D01*
X4696374Y-4103626D01*
X4756085Y-4152629D01*
X4824209Y-4189042D01*
X4898127Y-4211465D01*
X4975000Y-4219036D01*
X6375000Y-4219036D01*
X6451873Y-4211465D01*
X6525791Y-4189042D01*
X6593915Y-4152629D01*
X6653626Y-4103626D01*
X6702629Y-4043915D01*
X6739042Y-3975791D01*
X6761465Y-3901873D01*
X6769036Y-3825000D01*
X6769036Y-3675000D01*
X6761465Y-3598127D01*
X6739042Y-3524209D01*
X6726102Y-3500000D01*
X6731447Y-3490000D01*
X8776764Y-3490000D01*
X8776764Y-3890000D01*
X8786737Y-3991259D01*
X8816273Y-4088626D01*
X8864237Y-4178361D01*
X8928786Y-4257014D01*
X9007439Y-4321563D01*
X9097174Y-4369527D01*
X9194541Y-4399063D01*
X9295800Y-4409036D01*
X9845800Y-4409036D01*
X9947059Y-4399063D01*
X10044426Y-4369527D01*
X10134161Y-4321563D01*
X10212814Y-4257014D01*
X10277363Y-4178361D01*
X10314918Y-4108100D01*
X10484742Y-4108100D01*
X10494101Y-4138952D01*
X10543797Y-4231928D01*
X10610678Y-4313422D01*
X10692172Y-4380303D01*
X10785148Y-4429999D01*
X10886033Y-4460603D01*
X10990950Y-4470936D01*
X11503450Y-4470936D01*
X11608367Y-4460603D01*
X11709252Y-4429999D01*
X11802228Y-4380303D01*
X11883722Y-4313422D01*
X11950603Y-4231928D01*
X12000299Y-4138952D01*
X12030903Y-4038067D01*
X12041236Y-3933150D01*
X12041236Y-3495650D01*
X12030903Y-3390733D01*
X12000299Y-3289848D01*
X11950603Y-3196872D01*
X11883722Y-3115378D01*
X11802228Y-3048497D01*
X11709252Y-2998801D01*
X11608367Y-2968197D01*
X11503450Y-2957864D01*
X10990950Y-2957864D01*
X10886033Y-2968197D01*
X10785148Y-2998801D01*
X10692172Y-3048497D01*
X10610678Y-3115378D01*
X10543797Y-3196872D01*
X10494101Y-3289848D01*
X10484742Y-3320700D01*
X10334223Y-3320700D01*
X10325327Y-3291374D01*
X10277363Y-3201639D01*
X10212814Y-3122986D01*
X10134161Y-3058437D01*
X10044426Y-3010473D01*
X9947059Y-2980937D01*
X9845800Y-2970964D01*
X9295800Y-2970964D01*
X9194541Y-2980937D01*
X9097174Y-3010473D01*
X9007439Y-3058437D01*
X8928786Y-3122986D01*
X8864237Y-3201639D01*
X8816273Y-3291374D01*
X8786737Y-3388741D01*
X8776764Y-3490000D01*
X6731447Y-3490000D01*
X6739042Y-3475791D01*
X6761465Y-3401873D01*
X6769036Y-3325000D01*
X6769036Y-3175000D01*
X6761465Y-3098127D01*
X6739042Y-3024209D01*
X6702629Y-2956085D01*
X6653626Y-2896374D01*
X6641092Y-2886088D01*
X6640500Y-2861125D01*
X6592875Y-2813500D01*
X6530547Y-2813500D01*
X6525791Y-2810958D01*
X6451873Y-2788535D01*
X6375000Y-2780964D01*
X4975000Y-2780964D01*
X4898127Y-2788535D01*
X4824209Y-2810958D01*
X4819453Y-2813500D01*
X4757125Y-2813500D01*
X4709500Y-2861125D01*
X4708908Y-2886088D01*
X4696374Y-2896374D01*
X4647371Y-2956085D01*
X4610958Y-3024209D01*
X4588535Y-3098127D01*
X4580964Y-3175000D01*
X3264737Y-3175000D01*
X3293332Y-3121502D01*
X3311399Y-3061941D01*
X3317500Y-3000000D01*
X3317500Y-2143700D01*
X4584047Y-2143700D01*
X4580964Y-2175000D01*
X4580964Y-2325000D01*
X4588535Y-2401873D01*
X4610958Y-2475791D01*
X4647371Y-2543915D01*
X4696374Y-2603626D01*
X4708908Y-2613912D01*
X4709500Y-2638875D01*
X4757125Y-2686500D01*
X4819453Y-2686500D01*
X4824209Y-2689042D01*
X4898127Y-2711465D01*
X4975000Y-2719036D01*
X6375000Y-2719036D01*
X6451873Y-2711465D01*
X6525791Y-2689042D01*
X6530547Y-2686500D01*
X6592875Y-2686500D01*
X6640500Y-2638875D01*
X6641092Y-2613912D01*
X6653626Y-2603626D01*
X6702629Y-2543915D01*
X6739042Y-2475791D01*
X6761465Y-2401873D01*
X6769036Y-2325000D01*
X6769036Y-2175000D01*
X6761465Y-2098127D01*
X6739042Y-2024209D01*
X6726102Y-2000000D01*
X6739042Y-1975791D01*
X6761465Y-1901873D01*
X6769036Y-1825000D01*
X6769036Y-1675000D01*
X6765953Y-1643700D01*
X15139998Y-1643700D01*
X15165006Y-1681126D01*
X15278874Y-1794994D01*
X15278883Y-1795000D01*
X15278874Y-1795006D01*
X15165006Y-1908874D01*
X15075540Y-2042768D01*
X15013916Y-2191544D01*
X14982500Y-2349483D01*
X14982500Y-2510517D01*
X15013916Y-2668456D01*
X15075540Y-2817232D01*
X15145815Y-2922404D01*
X15122753Y-2934731D01*
X15074407Y-2974407D01*
X15034731Y-3022753D01*
X15005249Y-3077910D01*
X14987094Y-3137759D01*
X14980964Y-3200000D01*
X14980964Y-4200000D01*
X14987094Y-4262241D01*
X15005249Y-4322090D01*
X15034731Y-4377247D01*
X15074407Y-4425593D01*
X15122753Y-4465269D01*
X15177910Y-4494751D01*
X15237759Y-4512906D01*
X15300000Y-4519036D01*
X16300000Y-4519036D01*
X16362241Y-4512906D01*
X16422090Y-4494751D01*
X16477247Y-4465269D01*
X16525593Y-4425593D01*
X16565269Y-4377247D01*
X16577596Y-4354185D01*
X16682768Y-4424460D01*
X16831544Y-4486084D01*
X16989483Y-4517500D01*
X17150517Y-4517500D01*
X17308456Y-4486084D01*
X17457232Y-4424460D01*
X17591126Y-4334994D01*
X17704994Y-4221126D01*
X17794460Y-4087232D01*
X17856084Y-3938456D01*
X17887500Y-3780517D01*
X17887500Y-3619483D01*
X17856084Y-3461544D01*
X17794460Y-3312768D01*
X17704994Y-3178874D01*
X17591126Y-3065006D01*
X17591117Y-3065000D01*
X17591126Y-3064994D01*
X17704994Y-2951126D01*
X17794460Y-2817232D01*
X17856084Y-2668456D01*
X17887500Y-2510517D01*
X17887500Y-2349483D01*
X17856084Y-2191544D01*
X17794460Y-2042768D01*
X17704994Y-1908874D01*
X17591126Y-1795006D01*
X17591117Y-1795000D01*
X17591126Y-1794994D01*
X17704994Y-1681126D01*
X17794460Y-1547232D01*
X17856084Y-1398456D01*
X17887500Y-1240517D01*
X17887500Y-1079483D01*
X17856084Y-921544D01*
X17794460Y-772768D01*
X17704994Y-638874D01*
X17591126Y-525006D01*
X17591117Y-525000D01*
X17591126Y-524994D01*
X17704994Y-411126D01*
X17794460Y-277232D01*
X17856084Y-128456D01*
X17887500Y29483D01*
X17887500Y190517D01*
X17856084Y348456D01*
X17794460Y497232D01*
X17704994Y631126D01*
X17591126Y744994D01*
X17475586Y822196D01*
X17483402Y826921D01*
X17583359Y918199D01*
X17663588Y1027224D01*
X17721006Y1149806D01*
X17739175Y1209722D01*
X17709731Y1316500D01*
X17133500Y1316500D01*
X17133500Y1296500D01*
X17006500Y1296500D01*
X17006500Y1316500D01*
X16986500Y1316500D01*
X16986500Y1443500D01*
X17006500Y1443500D01*
X17006500Y2019954D01*
X17133500Y2019954D01*
X17133500Y1443500D01*
X17709731Y1443500D01*
X17739175Y1550278D01*
X17721006Y1610194D01*
X17663588Y1732776D01*
X17583359Y1841801D01*
X17483402Y1933079D01*
X17367558Y2003102D01*
X17240279Y2049180D01*
X17133500Y2019954D01*
X17006500Y2019954D01*
X16899721Y2049180D01*
X16772442Y2003102D01*
X16656598Y1933079D01*
X16556641Y1841801D01*
X16513661Y1783394D01*
X16434994Y1901126D01*
X16321126Y2014994D01*
X16187232Y2104460D01*
X16038456Y2166084D01*
X15880517Y2197500D01*
X15719483Y2197500D01*
X15561544Y2166084D01*
X15412768Y2104460D01*
X15278874Y2014994D01*
X15165006Y1901126D01*
X15075540Y1767232D01*
X15013916Y1618456D01*
X14982500Y1460517D01*
X14982500Y1299483D01*
X15013916Y1141544D01*
X15075540Y992768D01*
X15165006Y858874D01*
X15278874Y745006D01*
X15278883Y745000D01*
X15278874Y744994D01*
X15165006Y631126D01*
X15079862Y503700D01*
X13629325Y503700D01*
X13610000Y505603D01*
X13590675Y503700D01*
X13590667Y503700D01*
X13532821Y498003D01*
X13458609Y475490D01*
X13390214Y438933D01*
X13345282Y402058D01*
X13345279Y402055D01*
X13330266Y389734D01*
X13317944Y374720D01*
X13086925Y143700D01*
X12981148Y143700D01*
X13010589Y214777D01*
X13034992Y337458D01*
X13034992Y462542D01*
X13010589Y585223D01*
X12962721Y700785D01*
X12893228Y804789D01*
X12804781Y893236D01*
X12700777Y962729D01*
X12585215Y1010597D01*
X12462534Y1035000D01*
X12337450Y1035000D01*
X12214769Y1010597D01*
X12099207Y962729D01*
X11995203Y893236D01*
X11906756Y804789D01*
X11837263Y700785D01*
X11813617Y643700D01*
X6765953Y643700D01*
X6769036Y675000D01*
X6769036Y825000D01*
X6761465Y901873D01*
X6739042Y975791D01*
X6726102Y1000000D01*
X6739042Y1024209D01*
X6761465Y1098127D01*
X6769036Y1175000D01*
X6769036Y1325000D01*
X6761465Y1401873D01*
X6739042Y1475791D01*
X6726102Y1500000D01*
X6739042Y1524209D01*
X6761465Y1598127D01*
X6769036Y1675000D01*
X6769036Y1825000D01*
X6761465Y1901873D01*
X6739042Y1975791D01*
X6726102Y2000000D01*
X6739042Y2024209D01*
X6761465Y2098127D01*
X6769036Y2175000D01*
X6769036Y2325000D01*
X6761465Y2401873D01*
X6739042Y2475791D01*
X6726102Y2500000D01*
X6739042Y2524209D01*
X6761465Y2598127D01*
X6769036Y2675000D01*
X6769036Y2825000D01*
X6761465Y2901873D01*
X6739042Y2975791D01*
X6702629Y3043915D01*
X6653626Y3103626D01*
X6641092Y3113912D01*
X6640500Y3138875D01*
X6592875Y3186500D01*
X6530547Y3186500D01*
X6525791Y3189042D01*
X6451873Y3211465D01*
X6375000Y3219036D01*
X4975000Y3219036D01*
X4898127Y3211465D01*
X4824209Y3189042D01*
X4819453Y3186500D01*
X4757125Y3186500D01*
X4709500Y3138875D01*
X4708908Y3113912D01*
X4696374Y3103626D01*
X4647371Y3043915D01*
X4610958Y2975791D01*
X4588535Y2901873D01*
X4580964Y2825000D01*
X4580964Y2675000D01*
X4588535Y2598127D01*
X4610958Y2524209D01*
X4623898Y2500000D01*
X4610958Y2475791D01*
X4588535Y2401873D01*
X4580964Y2325000D01*
X4580964Y2175000D01*
X4588535Y2098127D01*
X4610958Y2024209D01*
X4623898Y2000000D01*
X4610958Y1975791D01*
X4588535Y1901873D01*
X4580964Y1825000D01*
X4580964Y1675000D01*
X4588535Y1598127D01*
X4610958Y1524209D01*
X4623898Y1500000D01*
X4610958Y1475791D01*
X4588535Y1401873D01*
X4580964Y1325000D01*
X4580964Y1175000D01*
X4584047Y1143700D01*
X4069322Y1143700D01*
X4049999Y1145603D01*
X4030677Y1143700D01*
X4030667Y1143700D01*
X3972821Y1138003D01*
X3898609Y1115490D01*
X3842231Y1085356D01*
X3830214Y1078933D01*
X3785282Y1042058D01*
X3785279Y1042055D01*
X3770266Y1029734D01*
X3757944Y1014720D01*
X3317500Y574275D01*
X3317500Y2760724D01*
X4014720Y3457944D01*
X4029734Y3470266D01*
X4051749Y3497090D01*
X4078933Y3530214D01*
X4115490Y3598609D01*
X4138003Y3672821D01*
X4139473Y3687744D01*
X4143700Y3730667D01*
X4143700Y3730675D01*
X4145603Y3750000D01*
X4143700Y3769325D01*
X4143700Y3825000D01*
X4580964Y3825000D01*
X4580964Y3675000D01*
X4588535Y3598127D01*
X4610958Y3524209D01*
X4647371Y3456085D01*
X4696374Y3396374D01*
X4708908Y3386088D01*
X4709500Y3361125D01*
X4757125Y3313500D01*
X4819453Y3313500D01*
X4824209Y3310958D01*
X4898127Y3288535D01*
X4975000Y3280964D01*
X6375000Y3280964D01*
X6451873Y3288535D01*
X6525791Y3310958D01*
X6530547Y3313500D01*
X6592875Y3313500D01*
X6640500Y3361125D01*
X6641092Y3386088D01*
X6653626Y3396374D01*
X6702629Y3456085D01*
X6739042Y3524209D01*
X6761465Y3598127D01*
X6769036Y3675000D01*
X6769036Y3825000D01*
X6761465Y3901873D01*
X6739042Y3975791D01*
X6702629Y4043915D01*
X6653626Y4103626D01*
X6593915Y4152629D01*
X6525791Y4189042D01*
X6451873Y4211465D01*
X6375000Y4219036D01*
X4975000Y4219036D01*
X4898127Y4211465D01*
X4824209Y4189042D01*
X4756085Y4152629D01*
X4696374Y4103626D01*
X4647371Y4043915D01*
X4610958Y3975791D01*
X4588535Y3901873D01*
X4580964Y3825000D01*
X4143700Y3825000D01*
X4143700Y4745205D01*
X4152629Y4756085D01*
X4189042Y4824209D01*
X4211465Y4898127D01*
X4219036Y4975000D01*
X4219036Y6375000D01*
X4211465Y6451873D01*
X4189042Y6525791D01*
X4152629Y6593915D01*
X4103626Y6653626D01*
X4043915Y6702629D01*
X3975791Y6739042D01*
X3901873Y6761465D01*
X3825000Y6769036D01*
X3675000Y6769036D01*
X3598127Y6761465D01*
X3524209Y6739042D01*
X3500000Y6726102D01*
X3475791Y6739042D01*
X3401873Y6761465D01*
X3325000Y6769036D01*
X3175000Y6769036D01*
X3098127Y6761465D01*
X3024209Y6739042D01*
X2956085Y6702629D01*
X2896374Y6653626D01*
X2886088Y6641092D01*
X2861125Y6640500D01*
X2813500Y6592875D01*
X2813500Y6530547D01*
X2810958Y6525791D01*
X2788535Y6451873D01*
X2780964Y6375000D01*
X2780964Y4975000D01*
X2788535Y4898127D01*
X2810958Y4824209D01*
X2813500Y4819453D01*
X2813500Y4757125D01*
X2856301Y4714324D01*
X2856301Y4613077D01*
X2136925Y3893700D01*
X69322Y3893700D01*
X49999Y3895603D01*
X30677Y3893700D01*
X30667Y3893700D01*
X-27179Y3888003D01*
X-101391Y3865490D01*
X-157172Y3835675D01*
X-169786Y3828933D01*
X-214718Y3792058D01*
X-214721Y3792055D01*
X-229734Y3779734D01*
X-242056Y3764720D01*
X-606300Y3400476D01*
X-606300Y3486925D01*
X514720Y4607944D01*
X520687Y4612841D01*
X524209Y4610958D01*
X598127Y4588535D01*
X675000Y4580964D01*
X825000Y4580964D01*
X901873Y4588535D01*
X975791Y4610958D01*
X1000000Y4623898D01*
X1024209Y4610958D01*
X1098127Y4588535D01*
X1175000Y4580964D01*
X1325000Y4580964D01*
X1401873Y4588535D01*
X1475791Y4610958D01*
X1500000Y4623898D01*
X1524209Y4610958D01*
X1598127Y4588535D01*
X1675000Y4580964D01*
X1825000Y4580964D01*
X1901873Y4588535D01*
X1975791Y4610958D01*
X2000000Y4623898D01*
X2024209Y4610958D01*
X2098127Y4588535D01*
X2175000Y4580964D01*
X2325000Y4580964D01*
X2401873Y4588535D01*
X2475791Y4610958D01*
X2543915Y4647371D01*
X2603626Y4696374D01*
X2613912Y4708908D01*
X2638875Y4709500D01*
X2686500Y4757125D01*
X2686500Y4819453D01*
X2689042Y4824209D01*
X2711465Y4898127D01*
X2719036Y4975000D01*
X2719036Y6375000D01*
X2711465Y6451873D01*
X2689042Y6525791D01*
X2686500Y6530547D01*
X2686500Y6592875D01*
X2638875Y6640500D01*
X2613912Y6641092D01*
X2603626Y6653626D01*
X2543915Y6702629D01*
X2475791Y6739042D01*
X2401873Y6761465D01*
X2325000Y6769036D01*
X2175000Y6769036D01*
X2098127Y6761465D01*
X2024209Y6739042D01*
X2000000Y6726102D01*
X1975791Y6739042D01*
X1901873Y6761465D01*
X1825000Y6769036D01*
X1675000Y6769036D01*
X1598127Y6761465D01*
X1524209Y6739042D01*
X1500000Y6726102D01*
X1475791Y6739042D01*
X1401873Y6761465D01*
X1325000Y6769036D01*
X1175000Y6769036D01*
X1098127Y6761465D01*
X1024209Y6739042D01*
X1000000Y6726102D01*
X975791Y6739042D01*
X901873Y6761465D01*
X825000Y6769036D01*
X675000Y6769036D01*
X598127Y6761465D01*
X524209Y6739042D01*
X500000Y6726102D01*
X475791Y6739042D01*
X401873Y6761465D01*
X325000Y6769036D01*
X175000Y6769036D01*
X98127Y6761465D01*
X24209Y6739042D01*
X0Y6726102D01*
X-24209Y6739042D01*
X-98127Y6761465D01*
X-175000Y6769036D01*
X-325000Y6769036D01*
X-401873Y6761465D01*
X-475791Y6739042D01*
X-500000Y6726102D01*
X-524209Y6739042D01*
X-598127Y6761465D01*
X-675000Y6769036D01*
X-825000Y6769036D01*
X-901873Y6761465D01*
X-975791Y6739042D01*
X-1000000Y6726102D01*
X-1024209Y6739042D01*
X-1098127Y6761465D01*
X-1175000Y6769036D01*
X-1325000Y6769036D01*
X-1401873Y6761465D01*
X-1475791Y6739042D01*
X-1500000Y6726102D01*
X-1524209Y6739042D01*
X-1598127Y6761465D01*
X-1675000Y6769036D01*
X-1825000Y6769036D01*
X-1901873Y6761465D01*
X-1975791Y6739042D01*
X-2000000Y6726102D01*
X-2024209Y6739042D01*
X-2098127Y6761465D01*
X-2175000Y6769036D01*
X-2325000Y6769036D01*
X-2401873Y6761465D01*
X-2475791Y6739042D01*
X-2500000Y6726102D01*
X-2524209Y6739042D01*
X-2598127Y6761465D01*
X-2675000Y6769036D01*
X-2825000Y6769036D01*
X-2901873Y6761465D01*
X-2975791Y6739042D01*
X-3000000Y6726102D01*
X-3024209Y6739042D01*
X-3098127Y6761465D01*
X-3175000Y6769036D01*
X-3325000Y6769036D01*
X-3401873Y6761465D01*
X-3475791Y6739042D01*
X-3500000Y6726102D01*
X-3524209Y6739042D01*
X-3598127Y6761465D01*
X-3675000Y6769036D01*
X-3825000Y6769036D01*
X-3901873Y6761465D01*
X-3975791Y6739042D01*
X-4043915Y6702629D01*
X-4103626Y6653626D01*
X-4152629Y6593915D01*
X-4189042Y6525791D01*
X-4211465Y6451873D01*
X-4219036Y6375000D01*
X-4219036Y4975000D01*
X-4211465Y4898127D01*
X-4189774Y4826622D01*
X-4765204Y5402052D01*
X-4783107Y5423867D01*
X-4870129Y5495284D01*
X-4969412Y5548352D01*
X-5077140Y5581031D01*
X-5161100Y5589300D01*
X-5189174Y5592065D01*
X-5217248Y5589300D01*
X-7313083Y5589300D01*
X-7335953Y5608069D01*
X-7391110Y5637551D01*
X-7450959Y5655706D01*
X-7513200Y5661836D01*
X-7544500Y5661836D01*
X-7544500Y5968196D01*
X-7505006Y5980176D01*
X-7410950Y6030451D01*
X-7328508Y6098108D01*
X-7260851Y6180550D01*
X-7210576Y6274606D01*
X-7179617Y6376664D01*
X-7169164Y6482800D01*
X-7169164Y6982800D01*
X-7179617Y7088936D01*
X-7210576Y7190994D01*
X-7260851Y7285050D01*
X-7328508Y7367492D01*
X-7410950Y7435149D01*
X-7505006Y7485424D01*
X-7607064Y7516383D01*
X-7713200Y7526836D01*
X-8163200Y7526836D01*
X-8269336Y7516383D01*
X-8371394Y7485424D01*
X-8465450Y7435149D01*
X-8547892Y7367492D01*
X-8615549Y7285050D01*
X-8665824Y7190994D01*
X-8696783Y7088936D01*
X-8707236Y6982800D01*
X-8707236Y6482800D01*
X-8696783Y6376664D01*
X-8665824Y6274606D01*
X-8615549Y6180550D01*
X-8547892Y6098108D01*
X-8465450Y6030451D01*
X-8371394Y5980176D01*
X-8331899Y5968195D01*
X-8331900Y5661836D01*
X-8363200Y5661836D01*
X-8425441Y5655706D01*
X-8485290Y5637551D01*
X-8540447Y5608069D01*
X-8563317Y5589300D01*
X-8863083Y5589300D01*
X-8885953Y5608069D01*
X-8941110Y5637551D01*
X-9000959Y5655706D01*
X-9063200Y5661836D01*
X-9913200Y5661836D01*
X-9975441Y5655706D01*
X-10035290Y5637551D01*
X-10090447Y5608069D01*
X-10138793Y5568393D01*
X-10177277Y5521500D01*
X-10769883Y5521500D01*
X-10792753Y5540269D01*
X-10847910Y5569751D01*
X-10907759Y5587906D01*
X-10970000Y5594036D01*
X-11031300Y5594036D01*
X-11031300Y6035396D01*
X-10991806Y6047376D01*
X-10897750Y6097651D01*
X-10815308Y6165308D01*
X-10747651Y6247750D01*
X-10742280Y6257800D01*
X-10129622Y6257800D01*
X-10125944Y6220455D01*
X-10115051Y6184546D01*
X-10097362Y6151452D01*
X-10073556Y6122444D01*
X-10044548Y6098638D01*
X-10011454Y6080949D01*
X-9975545Y6070056D01*
X-9938200Y6066378D01*
X-9599325Y6067300D01*
X-9551700Y6114925D01*
X-9551700Y6669300D01*
X-9424700Y6669300D01*
X-9424700Y6114925D01*
X-9377075Y6067300D01*
X-9038200Y6066378D01*
X-9000855Y6070056D01*
X-8964946Y6080949D01*
X-8931852Y6098638D01*
X-8902844Y6122444D01*
X-8879038Y6151452D01*
X-8861349Y6184546D01*
X-8850456Y6220455D01*
X-8846778Y6257800D01*
X-8847700Y6621675D01*
X-8895325Y6669300D01*
X-9424700Y6669300D01*
X-9551700Y6669300D01*
X-10081075Y6669300D01*
X-10128700Y6621675D01*
X-10129622Y6257800D01*
X-10742280Y6257800D01*
X-10697376Y6341806D01*
X-10666417Y6443864D01*
X-10655964Y6550000D01*
X-10655964Y7050000D01*
X-10666417Y7156136D01*
X-10682089Y7207800D01*
X-10129622Y7207800D01*
X-10128700Y6843925D01*
X-10081075Y6796300D01*
X-9551700Y6796300D01*
X-9551700Y7350675D01*
X-9424700Y7350675D01*
X-9424700Y6796300D01*
X-8895325Y6796300D01*
X-8847700Y6843925D01*
X-8846778Y7207800D01*
X-8850456Y7245145D01*
X-8861349Y7281054D01*
X-8879038Y7314148D01*
X-8902844Y7343156D01*
X-8931852Y7366962D01*
X-8964946Y7384651D01*
X-9000855Y7395544D01*
X-9038200Y7399222D01*
X-9377075Y7398300D01*
X-9424700Y7350675D01*
X-9551700Y7350675D01*
X-9599325Y7398300D01*
X-9938200Y7399222D01*
X-9975545Y7395544D01*
X-10011454Y7384651D01*
X-10044548Y7366962D01*
X-10073556Y7343156D01*
X-10097362Y7314148D01*
X-10115051Y7281054D01*
X-10125944Y7245145D01*
X-10129622Y7207800D01*
X-10682089Y7207800D01*
X-10697376Y7258194D01*
X-10747651Y7352250D01*
X-10815308Y7434692D01*
X-10897750Y7502349D01*
X-10991806Y7552624D01*
X-11093864Y7583583D01*
X-11200000Y7594036D01*
X-11650000Y7594036D01*
X-11756136Y7583583D01*
X-11858194Y7552624D01*
X-11952250Y7502349D01*
X-12034692Y7434692D01*
X-12102349Y7352250D01*
X-12152624Y7258194D01*
X-12183583Y7156136D01*
X-12194036Y7050000D01*
X-12194036Y6550000D01*
X-12183583Y6443864D01*
X-12152624Y6341806D01*
X-12102349Y6247750D01*
X-12034692Y6165308D01*
X-11952250Y6097651D01*
X-11858194Y6047376D01*
X-11818700Y6035395D01*
X-11818699Y5594036D01*
X-12030000Y5594036D01*
X-12092241Y5587906D01*
X-12152090Y5569751D01*
X-12207247Y5540269D01*
X-12255593Y5500593D01*
X-12295269Y5452247D01*
X-12324751Y5397090D01*
X-12342906Y5337241D01*
X-12349036Y5275000D01*
X-12349036Y5108829D01*
X-12363231Y5062034D01*
X-12374265Y4950000D01*
X-12363231Y4837966D01*
X-12349036Y4791171D01*
X-12349036Y4625000D01*
X-12342906Y4562759D01*
X-12324751Y4502910D01*
X-12295269Y4447753D01*
X-12255593Y4399407D01*
X-12207247Y4359731D01*
X-12152090Y4330249D01*
X-12092241Y4312094D01*
X-12030000Y4305964D01*
X-10970000Y4305964D01*
X-10907759Y4312094D01*
X-10847910Y4330249D01*
X-10792753Y4359731D01*
X-10769883Y4378500D01*
X-9961287Y4378500D01*
X-9913200Y4373764D01*
X-9063200Y4373764D01*
X-9000959Y4379894D01*
X-8941110Y4398049D01*
X-8885953Y4427531D01*
X-8863083Y4446300D01*
X-8563317Y4446300D01*
X-8540447Y4427531D01*
X-8485290Y4398049D01*
X-8425441Y4379894D01*
X-8363200Y4373764D01*
X-7513200Y4373764D01*
X-7450959Y4379894D01*
X-7391110Y4398049D01*
X-7335953Y4427531D01*
X-7313083Y4446300D01*
X-5425896Y4446300D01*
X-5070781Y4091185D01*
X-5563875Y4090500D01*
X-5611500Y4042875D01*
X-5611500Y3813500D01*
X-5591500Y3813500D01*
X-5591500Y3719036D01*
X-6375000Y3719036D01*
X-6451873Y3711465D01*
X-6525791Y3689042D01*
X-6530547Y3686500D01*
X-6592875Y3686500D01*
X-6635675Y3643700D01*
X-7194164Y3643700D01*
X-7194164Y3692800D01*
X-7200294Y3755041D01*
X-7218449Y3814890D01*
X-7247931Y3870047D01*
X-7272512Y3900000D01*
X-6641422Y3900000D01*
X-6640500Y3861125D01*
X-6592875Y3813500D01*
X-5738500Y3813500D01*
X-5738500Y4042875D01*
X-5786125Y4090500D01*
X-6450000Y4091422D01*
X-6487345Y4087744D01*
X-6523254Y4076851D01*
X-6556348Y4059162D01*
X-6585356Y4035356D01*
X-6609162Y4006348D01*
X-6626851Y3973254D01*
X-6637744Y3937345D01*
X-6641422Y3900000D01*
X-7272512Y3900000D01*
X-7287607Y3918393D01*
X-7335953Y3958069D01*
X-7391110Y3987551D01*
X-7450959Y4005706D01*
X-7513200Y4011836D01*
X-8363200Y4011836D01*
X-8425441Y4005706D01*
X-8485290Y3987551D01*
X-8540447Y3958069D01*
X-8588793Y3918393D01*
X-8628469Y3870047D01*
X-8657951Y3814890D01*
X-8676106Y3755041D01*
X-8682236Y3692800D01*
X-8682236Y3042800D01*
X-8676106Y2980559D01*
X-8657951Y2920710D01*
X-8628469Y2865553D01*
X-8588793Y2817207D01*
X-8540447Y2777531D01*
X-8485290Y2748049D01*
X-8425441Y2729894D01*
X-8363200Y2723764D01*
X-7513200Y2723764D01*
X-7450959Y2729894D01*
X-7391110Y2748049D01*
X-7335953Y2777531D01*
X-7287607Y2817207D01*
X-7255525Y2856300D01*
X-6765953Y2856300D01*
X-6769036Y2825000D01*
X-6769036Y2675000D01*
X-6761465Y2598127D01*
X-6739042Y2524209D01*
X-6726102Y2500000D01*
X-6739042Y2475791D01*
X-6761465Y2401873D01*
X-6769036Y2325000D01*
X-6769036Y2175000D01*
X-6761465Y2098127D01*
X-6739042Y2024209D01*
X-6702629Y1956085D01*
X-6653626Y1896374D01*
X-6641092Y1886088D01*
X-6640500Y1861125D01*
X-6592875Y1813500D01*
X-6530547Y1813500D01*
X-6525791Y1810958D01*
X-6451873Y1788535D01*
X-6375000Y1780964D01*
X-4975000Y1780964D01*
X-4898127Y1788535D01*
X-4824209Y1810958D01*
X-4819453Y1813500D01*
X-4757125Y1813500D01*
X-4714325Y1856300D01*
X-3317500Y1856300D01*
X-3317500Y143700D01*
X-4584047Y143700D01*
X-4580964Y175000D01*
X-4580964Y325000D01*
X-4588535Y401873D01*
X-4610958Y475791D01*
X-4623898Y500000D01*
X-4610958Y524209D01*
X-4588535Y598127D01*
X-4580964Y675000D01*
X-4580964Y825000D01*
X-4588535Y901873D01*
X-4610958Y975791D01*
X-4623898Y1000000D01*
X-4610958Y1024209D01*
X-4588535Y1098127D01*
X-4580964Y1175000D01*
X-4580964Y1325000D01*
X-4588535Y1401873D01*
X-4610958Y1475791D01*
X-4647371Y1543915D01*
X-4696374Y1603626D01*
X-4708908Y1613912D01*
X-4709500Y1638875D01*
X-4757125Y1686500D01*
X-4819453Y1686500D01*
X-4824209Y1689042D01*
X-4898127Y1711465D01*
X-4975000Y1719036D01*
X-6375000Y1719036D01*
X-6451873Y1711465D01*
X-6525791Y1689042D01*
X-6530547Y1686500D01*
X-6592875Y1686500D01*
X-6635675Y1643700D01*
X-7169164Y1643700D01*
X-7169164Y2029400D01*
X-7179137Y2130659D01*
X-7208673Y2228026D01*
X-7256637Y2317761D01*
X-7321186Y2396414D01*
X-7399839Y2460963D01*
X-7489574Y2508927D01*
X-7586941Y2538463D01*
X-7688200Y2548436D01*
X-8088200Y2548436D01*
X-8189459Y2538463D01*
X-8286826Y2508927D01*
X-8376561Y2460963D01*
X-8455214Y2396414D01*
X-8519763Y2317761D01*
X-8567727Y2228026D01*
X-8597263Y2130659D01*
X-8607236Y2029400D01*
X-8607236Y1479400D01*
X-8597263Y1378141D01*
X-8567727Y1280774D01*
X-8519763Y1191039D01*
X-8455214Y1112386D01*
X-8376561Y1047837D01*
X-8373311Y1046100D01*
X-9543803Y1046100D01*
X-9563128Y1048003D01*
X-9582453Y1046100D01*
X-9582461Y1046100D01*
X-9640307Y1040403D01*
X-9714519Y1017890D01*
X-9782914Y981333D01*
X-9827846Y944458D01*
X-9827849Y944455D01*
X-9842862Y932134D01*
X-9855184Y917120D01*
X-11101203Y-328900D01*
X-14071755Y-328900D01*
X-14043933Y-306067D01*
X-14026030Y-284252D01*
X-13735814Y5964D01*
X-13525000Y5964D01*
X-13418864Y16417D01*
X-13316806Y47376D01*
X-13222750Y97651D01*
X-13140308Y165308D01*
X-13072651Y247750D01*
X-13031360Y325000D01*
X-12841422Y325000D01*
X-12837744Y287655D01*
X-12826851Y251746D01*
X-12809162Y218652D01*
X-12785356Y189644D01*
X-12756348Y165838D01*
X-12723254Y148149D01*
X-12687345Y137256D01*
X-12650000Y133578D01*
X-12311125Y134500D01*
X-12263500Y182125D01*
X-12263500Y736500D01*
X-12136500Y736500D01*
X-12136500Y182125D01*
X-12088875Y134500D01*
X-11750000Y133578D01*
X-11712655Y137256D01*
X-11676746Y148149D01*
X-11643652Y165838D01*
X-11614644Y189644D01*
X-11590838Y218652D01*
X-11573149Y251746D01*
X-11562256Y287655D01*
X-11558578Y325000D01*
X-11559500Y688875D01*
X-11607125Y736500D01*
X-12136500Y736500D01*
X-12263500Y736500D01*
X-12792875Y736500D01*
X-12840500Y688875D01*
X-12841422Y325000D01*
X-13031360Y325000D01*
X-13022376Y341806D01*
X-12991417Y443864D01*
X-12980964Y550000D01*
X-12980964Y1050000D01*
X-12991417Y1156136D01*
X-13022376Y1258194D01*
X-13031359Y1275000D01*
X-12841422Y1275000D01*
X-12840500Y911125D01*
X-12792875Y863500D01*
X-12263500Y863500D01*
X-12263500Y1417875D01*
X-12136500Y1417875D01*
X-12136500Y863500D01*
X-11607125Y863500D01*
X-11559500Y911125D01*
X-11558578Y1275000D01*
X-11559011Y1279400D01*
X-10129622Y1279400D01*
X-10125944Y1242055D01*
X-10115051Y1206146D01*
X-10097362Y1173052D01*
X-10073556Y1144044D01*
X-10044548Y1120238D01*
X-10011454Y1102549D01*
X-9975545Y1091656D01*
X-9938200Y1087978D01*
X-9649325Y1088900D01*
X-9601700Y1136525D01*
X-9601700Y1690900D01*
X-9474700Y1690900D01*
X-9474700Y1136525D01*
X-9427075Y1088900D01*
X-9138200Y1087978D01*
X-9100855Y1091656D01*
X-9064946Y1102549D01*
X-9031852Y1120238D01*
X-9002844Y1144044D01*
X-8979038Y1173052D01*
X-8961349Y1206146D01*
X-8950456Y1242055D01*
X-8946778Y1279400D01*
X-8947700Y1643275D01*
X-8995325Y1690900D01*
X-9474700Y1690900D01*
X-9601700Y1690900D01*
X-10081075Y1690900D01*
X-10128700Y1643275D01*
X-10129622Y1279400D01*
X-11559011Y1279400D01*
X-11562256Y1312345D01*
X-11573149Y1348254D01*
X-11590838Y1381348D01*
X-11614644Y1410356D01*
X-11643652Y1434162D01*
X-11676746Y1451851D01*
X-11712655Y1462744D01*
X-11750000Y1466422D01*
X-12088875Y1465500D01*
X-12136500Y1417875D01*
X-12263500Y1417875D01*
X-12311125Y1465500D01*
X-12650000Y1466422D01*
X-12687345Y1462744D01*
X-12723254Y1451851D01*
X-12756348Y1434162D01*
X-12785356Y1410356D01*
X-12809162Y1381348D01*
X-12826851Y1348254D01*
X-12837744Y1312345D01*
X-12841422Y1275000D01*
X-13031359Y1275000D01*
X-13072651Y1352250D01*
X-13140308Y1434692D01*
X-13178500Y1466035D01*
X-13178500Y1670390D01*
X-13139403Y1764777D01*
X-13115000Y1887458D01*
X-13115000Y2012542D01*
X-13139403Y2135223D01*
X-13178413Y2229400D01*
X-10129622Y2229400D01*
X-10128700Y1865525D01*
X-10081075Y1817900D01*
X-9601700Y1817900D01*
X-9601700Y2372275D01*
X-9474700Y2372275D01*
X-9474700Y1817900D01*
X-8995325Y1817900D01*
X-8947700Y1865525D01*
X-8946778Y2229400D01*
X-8950456Y2266745D01*
X-8961349Y2302654D01*
X-8979038Y2335748D01*
X-9002844Y2364756D01*
X-9031852Y2388562D01*
X-9064946Y2406251D01*
X-9100855Y2417144D01*
X-9138200Y2420822D01*
X-9427075Y2419900D01*
X-9474700Y2372275D01*
X-9601700Y2372275D01*
X-9649325Y2419900D01*
X-9938200Y2420822D01*
X-9975545Y2417144D01*
X-10011454Y2406251D01*
X-10044548Y2388562D01*
X-10073556Y2364756D01*
X-10097362Y2335748D01*
X-10115051Y2302654D01*
X-10125944Y2266745D01*
X-10129622Y2229400D01*
X-13178413Y2229400D01*
X-13178500Y2229610D01*
X-13178500Y2405964D01*
X-13170000Y2405964D01*
X-13107759Y2412094D01*
X-13047910Y2430249D01*
X-12992753Y2459731D01*
X-12944407Y2499407D01*
X-12904731Y2547753D01*
X-12875249Y2602910D01*
X-12857094Y2662759D01*
X-12850964Y2725000D01*
X-12850964Y3375000D01*
X-12349036Y3375000D01*
X-12349036Y2725000D01*
X-12342906Y2662759D01*
X-12324751Y2602910D01*
X-12295269Y2547753D01*
X-12255593Y2499407D01*
X-12207247Y2459731D01*
X-12152090Y2430249D01*
X-12092241Y2412094D01*
X-12030000Y2405964D01*
X-10970000Y2405964D01*
X-10907759Y2412094D01*
X-10847910Y2430249D01*
X-10792753Y2459731D01*
X-10744407Y2499407D01*
X-10704731Y2547753D01*
X-10675249Y2602910D01*
X-10657094Y2662759D01*
X-10650964Y2725000D01*
X-10650964Y3042800D01*
X-10104622Y3042800D01*
X-10100944Y3005455D01*
X-10090051Y2969546D01*
X-10072362Y2936452D01*
X-10048556Y2907444D01*
X-10019548Y2883638D01*
X-9986454Y2865949D01*
X-9950545Y2855056D01*
X-9913200Y2851378D01*
X-9599325Y2852300D01*
X-9551700Y2899925D01*
X-9551700Y3304300D01*
X-9424700Y3304300D01*
X-9424700Y2899925D01*
X-9377075Y2852300D01*
X-9063200Y2851378D01*
X-9025855Y2855056D01*
X-8989946Y2865949D01*
X-8956852Y2883638D01*
X-8927844Y2907444D01*
X-8904038Y2936452D01*
X-8886349Y2969546D01*
X-8875456Y3005455D01*
X-8871778Y3042800D01*
X-8872700Y3256675D01*
X-8920325Y3304300D01*
X-9424700Y3304300D01*
X-9551700Y3304300D01*
X-10056075Y3304300D01*
X-10103700Y3256675D01*
X-10104622Y3042800D01*
X-10650964Y3042800D01*
X-10650964Y3375000D01*
X-10657094Y3437241D01*
X-10675249Y3497090D01*
X-10704731Y3552247D01*
X-10744407Y3600593D01*
X-10792753Y3640269D01*
X-10847910Y3669751D01*
X-10907759Y3687906D01*
X-10957450Y3692800D01*
X-10104622Y3692800D01*
X-10103700Y3478925D01*
X-10056075Y3431300D01*
X-9551700Y3431300D01*
X-9551700Y3835675D01*
X-9424700Y3835675D01*
X-9424700Y3431300D01*
X-8920325Y3431300D01*
X-8872700Y3478925D01*
X-8871778Y3692800D01*
X-8875456Y3730145D01*
X-8886349Y3766054D01*
X-8904038Y3799148D01*
X-8927844Y3828156D01*
X-8956852Y3851962D01*
X-8989946Y3869651D01*
X-9025855Y3880544D01*
X-9063200Y3884222D01*
X-9377075Y3883300D01*
X-9424700Y3835675D01*
X-9551700Y3835675D01*
X-9599325Y3883300D01*
X-9913200Y3884222D01*
X-9950545Y3880544D01*
X-9986454Y3869651D01*
X-10019548Y3851962D01*
X-10048556Y3828156D01*
X-10072362Y3799148D01*
X-10090051Y3766054D01*
X-10100944Y3730145D01*
X-10104622Y3692800D01*
X-10957450Y3692800D01*
X-10970000Y3694036D01*
X-12030000Y3694036D01*
X-12092241Y3687906D01*
X-12152090Y3669751D01*
X-12207247Y3640269D01*
X-12255593Y3600593D01*
X-12295269Y3552247D01*
X-12324751Y3497090D01*
X-12342906Y3437241D01*
X-12349036Y3375000D01*
X-12850964Y3375000D01*
X-12857094Y3437241D01*
X-12875249Y3497090D01*
X-12904731Y3552247D01*
X-12944407Y3600593D01*
X-12983713Y3632851D01*
X-12982256Y3637655D01*
X-12978578Y3675000D01*
X-12979500Y3888875D01*
X-13027125Y3936500D01*
X-13636500Y3936500D01*
X-13636500Y3916500D01*
X-13763500Y3916500D01*
X-13763500Y3936500D01*
X-14372875Y3936500D01*
X-14420500Y3888875D01*
X-14421422Y3675000D01*
X-14417744Y3637655D01*
X-14416287Y3632851D01*
X-14455593Y3600593D01*
X-14495269Y3552247D01*
X-14524751Y3497090D01*
X-14542906Y3437241D01*
X-14549036Y3375000D01*
X-14549036Y2725000D01*
X-14542906Y2662759D01*
X-14524751Y2602910D01*
X-14495269Y2547753D01*
X-14455593Y2499407D01*
X-14407247Y2459731D01*
X-14352090Y2430249D01*
X-14321500Y2420969D01*
X-14321500Y2229611D01*
X-14360597Y2135223D01*
X-14385000Y2012542D01*
X-14385000Y1887458D01*
X-14360597Y1764777D01*
X-14321499Y1670388D01*
X-14321499Y1466035D01*
X-14359692Y1434692D01*
X-14427349Y1352250D01*
X-14477624Y1258194D01*
X-14508583Y1156136D01*
X-14519036Y1050000D01*
X-14519036Y839186D01*
X-14686722Y671500D01*
X-15069682Y671500D01*
X-15064246Y673149D01*
X-15031152Y690838D01*
X-15002144Y714644D01*
X-14978338Y743652D01*
X-14960649Y776746D01*
X-14949756Y812655D01*
X-14946078Y850000D01*
X-14947000Y1788875D01*
X-14994625Y1836500D01*
X-15874000Y1836500D01*
X-15874000Y707125D01*
X-15838375Y671500D01*
X-15840574Y671500D01*
X-15924534Y663231D01*
X-16032262Y630552D01*
X-16053807Y619036D01*
X-16487500Y619036D01*
X-16549741Y612906D01*
X-16609590Y594751D01*
X-16664747Y565269D01*
X-16713093Y525593D01*
X-16752769Y477247D01*
X-16782251Y422090D01*
X-16800406Y362241D01*
X-16806536Y300000D01*
X-17346793Y300000D01*
X-17346188Y850000D01*
X-16928922Y850000D01*
X-16925244Y812655D01*
X-16914351Y776746D01*
X-16896662Y743652D01*
X-16872856Y714644D01*
X-16843848Y690838D01*
X-16810754Y673149D01*
X-16774845Y662256D01*
X-16737500Y658578D01*
X-16048625Y659500D01*
X-16001000Y707125D01*
X-16001000Y1836500D01*
X-16880375Y1836500D01*
X-16928000Y1788875D01*
X-16928922Y850000D01*
X-17346188Y850000D01*
X-17346078Y950000D01*
X-17349756Y987345D01*
X-17360649Y1023254D01*
X-17378338Y1056348D01*
X-17402144Y1085356D01*
X-17431152Y1109162D01*
X-17464246Y1126851D01*
X-17500155Y1137744D01*
X-17537500Y1141422D01*
X-18376375Y1140500D01*
X-18424000Y1092875D01*
X-18551000Y1092875D01*
X-18598625Y1140500D01*
X-19437500Y1141422D01*
X-19474845Y1137744D01*
X-19510754Y1126851D01*
X-19543848Y1109162D01*
X-19572856Y1085356D01*
X-19596662Y1056348D01*
X-19614351Y1023254D01*
X-19625244Y987345D01*
X-19628922Y950000D01*
X-19632500Y950000D01*
X-19632500Y1700000D01*
X-19628922Y1700000D01*
X-19625244Y1662655D01*
X-19614351Y1626746D01*
X-19596662Y1593652D01*
X-19572856Y1564644D01*
X-19543848Y1540838D01*
X-19510754Y1523149D01*
X-19474845Y1512256D01*
X-19437500Y1508578D01*
X-18598625Y1509500D01*
X-18551000Y1557125D01*
X-18551000Y2536500D01*
X-18424000Y2536500D01*
X-18424000Y1557125D01*
X-18376375Y1509500D01*
X-17537500Y1508578D01*
X-17500155Y1512256D01*
X-17464246Y1523149D01*
X-17431152Y1540838D01*
X-17402144Y1564644D01*
X-17378338Y1593652D01*
X-17360649Y1626746D01*
X-17349756Y1662655D01*
X-17346078Y1700000D01*
X-17347000Y2488875D01*
X-17394625Y2536500D01*
X-18424000Y2536500D01*
X-18551000Y2536500D01*
X-19580375Y2536500D01*
X-19628000Y2488875D01*
X-19628922Y1700000D01*
X-19632500Y1700000D01*
X-19632500Y3500000D01*
X-19628922Y3500000D01*
X-19628000Y2711125D01*
X-19580375Y2663500D01*
X-18551000Y2663500D01*
X-18551000Y3642875D01*
X-18424000Y3642875D01*
X-18424000Y2663500D01*
X-17394625Y2663500D01*
X-17347000Y2711125D01*
X-17346721Y2950000D01*
X-16928922Y2950000D01*
X-16928000Y2011125D01*
X-16880375Y1963500D01*
X-16001000Y1963500D01*
X-16001000Y3092875D01*
X-15874000Y3092875D01*
X-15874000Y1963500D01*
X-14994625Y1963500D01*
X-14947000Y2011125D01*
X-14946078Y2950000D01*
X-14949756Y2987345D01*
X-14960649Y3023254D01*
X-14978338Y3056348D01*
X-15002144Y3085356D01*
X-15031152Y3109162D01*
X-15064246Y3126851D01*
X-15100155Y3137744D01*
X-15137500Y3141422D01*
X-15826375Y3140500D01*
X-15874000Y3092875D01*
X-16001000Y3092875D01*
X-16048625Y3140500D01*
X-16737500Y3141422D01*
X-16774845Y3137744D01*
X-16810754Y3126851D01*
X-16843848Y3109162D01*
X-16872856Y3085356D01*
X-16896662Y3056348D01*
X-16914351Y3023254D01*
X-16925244Y2987345D01*
X-16928922Y2950000D01*
X-17346721Y2950000D01*
X-17346078Y3500000D01*
X-17349756Y3537345D01*
X-17360649Y3573254D01*
X-17378338Y3606348D01*
X-17402144Y3635356D01*
X-17431152Y3659162D01*
X-17464246Y3676851D01*
X-17500155Y3687744D01*
X-17537500Y3691422D01*
X-18376375Y3690500D01*
X-18424000Y3642875D01*
X-18551000Y3642875D01*
X-18598625Y3690500D01*
X-19437500Y3691422D01*
X-19474845Y3687744D01*
X-19510754Y3676851D01*
X-19543848Y3659162D01*
X-19572856Y3635356D01*
X-19596662Y3606348D01*
X-19614351Y3573254D01*
X-19625244Y3537345D01*
X-19628922Y3500000D01*
X-19632500Y3500000D01*
X-19632500Y5662542D01*
X-15635000Y5662542D01*
X-15635000Y5537458D01*
X-15610597Y5414777D01*
X-15562729Y5299215D01*
X-15493236Y5195211D01*
X-15404789Y5106764D01*
X-15300785Y5037271D01*
X-15185223Y4989403D01*
X-15062542Y4965000D01*
X-14937458Y4965000D01*
X-14924377Y4967602D01*
X-14642056Y4685280D01*
X-14629734Y4670266D01*
X-14614721Y4657945D01*
X-14614718Y4657942D01*
X-14581352Y4630559D01*
X-14569786Y4621067D01*
X-14547474Y4609141D01*
X-14542906Y4562759D01*
X-14524751Y4502910D01*
X-14495269Y4447753D01*
X-14455593Y4399407D01*
X-14416287Y4367149D01*
X-14417744Y4362345D01*
X-14421422Y4325000D01*
X-14420500Y4111125D01*
X-14372875Y4063500D01*
X-13763500Y4063500D01*
X-13763500Y4083500D01*
X-13636500Y4083500D01*
X-13636500Y4063500D01*
X-13027125Y4063500D01*
X-12979500Y4111125D01*
X-12978578Y4325000D01*
X-12982256Y4362345D01*
X-12983713Y4367149D01*
X-12944407Y4399407D01*
X-12904731Y4447753D01*
X-12875249Y4502910D01*
X-12857094Y4562759D01*
X-12850964Y4625000D01*
X-12850964Y5275000D01*
X-12857094Y5337241D01*
X-12875249Y5397090D01*
X-12904731Y5452247D01*
X-12944407Y5500593D01*
X-12992753Y5540269D01*
X-13047910Y5569751D01*
X-13107759Y5587906D01*
X-13170000Y5594036D01*
X-14230000Y5594036D01*
X-14292241Y5587906D01*
X-14352090Y5569751D01*
X-14365000Y5562850D01*
X-14365000Y5662542D01*
X-14389403Y5785223D01*
X-14437271Y5900785D01*
X-14506764Y6004789D01*
X-14595211Y6093236D01*
X-14699215Y6162729D01*
X-14814777Y6210597D01*
X-14937458Y6235000D01*
X-15062542Y6235000D01*
X-15185223Y6210597D01*
X-15300785Y6162729D01*
X-15404789Y6093236D01*
X-15493236Y6004789D01*
X-15562729Y5900785D01*
X-15610597Y5785223D01*
X-15635000Y5662542D01*
X-19632500Y5662542D01*
X-19632500Y6325000D01*
X-13616422Y6325000D01*
X-13612744Y6287655D01*
X-13601851Y6251746D01*
X-13584162Y6218652D01*
X-13560356Y6189644D01*
X-13531348Y6165838D01*
X-13498254Y6148149D01*
X-13462345Y6137256D01*
X-13425000Y6133578D01*
X-13086125Y6134500D01*
X-13038500Y6182125D01*
X-13038500Y6736500D01*
X-12911500Y6736500D01*
X-12911500Y6182125D01*
X-12863875Y6134500D01*
X-12525000Y6133578D01*
X-12487655Y6137256D01*
X-12451746Y6148149D01*
X-12418652Y6165838D01*
X-12389644Y6189644D01*
X-12365838Y6218652D01*
X-12348149Y6251746D01*
X-12337256Y6287655D01*
X-12333578Y6325000D01*
X-12334500Y6688875D01*
X-12382125Y6736500D01*
X-12911500Y6736500D01*
X-13038500Y6736500D01*
X-13567875Y6736500D01*
X-13615500Y6688875D01*
X-13616422Y6325000D01*
X-19632500Y6325000D01*
X-19632500Y7275000D01*
X-13616422Y7275000D01*
X-13615500Y6911125D01*
X-13567875Y6863500D01*
X-13038500Y6863500D01*
X-13038500Y7417875D01*
X-12911500Y7417875D01*
X-12911500Y6863500D01*
X-12382125Y6863500D01*
X-12334500Y6911125D01*
X-12333578Y7275000D01*
X-12337256Y7312345D01*
X-12348149Y7348254D01*
X-12365838Y7381348D01*
X-12389644Y7410356D01*
X-12418652Y7434162D01*
X-12451746Y7451851D01*
X-12487655Y7462744D01*
X-12525000Y7466422D01*
X-12863875Y7465500D01*
X-12911500Y7417875D01*
X-13038500Y7417875D01*
X-13086125Y7465500D01*
X-13425000Y7466422D01*
X-13462345Y7462744D01*
X-13498254Y7451851D01*
X-13531348Y7434162D01*
X-13560356Y7410356D01*
X-13584162Y7381348D01*
X-13601851Y7348254D01*
X-13612744Y7312345D01*
X-13616422Y7275000D01*
X-19632500Y7275000D01*
X-19632500Y9632500D01*
X19632501Y9632500D01*
X19632500Y-9632500D01*
G04 #@! TA.AperFunction,Conductor*
D23*
G36*
X19632500Y-9632500D02*
G01*
X11591812Y-9632500D01*
X11660052Y-9611799D01*
X11753028Y-9562103D01*
X11834522Y-9495222D01*
X11901403Y-9413728D01*
X11951099Y-9320752D01*
X11981703Y-9219867D01*
X11992036Y-9114950D01*
X11992036Y-8677450D01*
X11981703Y-8572533D01*
X11951099Y-8471648D01*
X11901403Y-8378672D01*
X11834522Y-8297178D01*
X11753028Y-8230297D01*
X11660052Y-8180601D01*
X11559167Y-8149997D01*
X11454250Y-8139664D01*
X10941750Y-8139664D01*
X10836833Y-8149997D01*
X10735948Y-8180601D01*
X10642972Y-8230297D01*
X10561478Y-8297178D01*
X10494597Y-8378672D01*
X10444901Y-8471648D01*
X10435542Y-8502500D01*
X10265825Y-8502500D01*
X10228163Y-8432039D01*
X10163614Y-8353386D01*
X10084961Y-8288837D01*
X9995226Y-8240873D01*
X9897859Y-8211337D01*
X9796600Y-8201364D01*
X9246600Y-8201364D01*
X9145341Y-8211337D01*
X9047974Y-8240873D01*
X8958239Y-8288837D01*
X8879586Y-8353386D01*
X8815037Y-8432039D01*
X8767073Y-8521774D01*
X8737537Y-8619141D01*
X8727564Y-8720400D01*
X8727564Y-9120400D01*
X8737537Y-9221659D01*
X8767073Y-9319026D01*
X8815037Y-9408761D01*
X8879586Y-9487414D01*
X8958239Y-9551963D01*
X9047974Y-9599927D01*
X9145341Y-9629463D01*
X9176177Y-9632500D01*
X-19632500Y-9632500D01*
X-19632500Y-5900000D01*
X-19628922Y-5900000D01*
X-19625244Y-5937345D01*
X-19614351Y-5973254D01*
X-19596662Y-6006348D01*
X-19572856Y-6035356D01*
X-19543848Y-6059162D01*
X-19510754Y-6076851D01*
X-19474845Y-6087744D01*
X-19437500Y-6091422D01*
X-18598625Y-6090500D01*
X-18551000Y-6042875D01*
X-18551000Y-5063500D01*
X-18424000Y-5063500D01*
X-18424000Y-6042875D01*
X-18376375Y-6090500D01*
X-17537500Y-6091422D01*
X-17500155Y-6087744D01*
X-17464246Y-6076851D01*
X-17431152Y-6059162D01*
X-17402144Y-6035356D01*
X-17378338Y-6006348D01*
X-17360649Y-5973254D01*
X-17349756Y-5937345D01*
X-17346078Y-5900000D01*
X-17346720Y-5350000D01*
X-16928922Y-5350000D01*
X-16925244Y-5387345D01*
X-16914351Y-5423254D01*
X-16896662Y-5456348D01*
X-16872856Y-5485356D01*
X-16843848Y-5509162D01*
X-16810754Y-5526851D01*
X-16774845Y-5537744D01*
X-16737500Y-5541422D01*
X-16048625Y-5540500D01*
X-16001000Y-5492875D01*
X-16001000Y-4363500D01*
X-15874000Y-4363500D01*
X-15874000Y-5492875D01*
X-15826375Y-5540500D01*
X-15137500Y-5541422D01*
X-15100155Y-5537744D01*
X-15064246Y-5526851D01*
X-15031152Y-5509162D01*
X-15002144Y-5485356D01*
X-14978338Y-5456348D01*
X-14960649Y-5423254D01*
X-14949756Y-5387345D01*
X-14946078Y-5350000D01*
X-14947000Y-4411125D01*
X-14994625Y-4363500D01*
X-15874000Y-4363500D01*
X-16001000Y-4363500D01*
X-16880375Y-4363500D01*
X-16928000Y-4411125D01*
X-16928922Y-5350000D01*
X-17346720Y-5350000D01*
X-17347000Y-5111125D01*
X-17394625Y-5063500D01*
X-18424000Y-5063500D01*
X-18551000Y-5063500D01*
X-19580375Y-5063500D01*
X-19628000Y-5111125D01*
X-19628922Y-5900000D01*
X-19632500Y-5900000D01*
X-19632500Y-4100000D01*
X-19628922Y-4100000D01*
X-19628000Y-4888875D01*
X-19580375Y-4936500D01*
X-18551000Y-4936500D01*
X-18551000Y-3957125D01*
X-18424000Y-3957125D01*
X-18424000Y-4936500D01*
X-17394625Y-4936500D01*
X-17347000Y-4888875D01*
X-17346078Y-4100000D01*
X-17349756Y-4062655D01*
X-17360649Y-4026746D01*
X-17378338Y-3993652D01*
X-17402144Y-3964644D01*
X-17431152Y-3940838D01*
X-17464246Y-3923149D01*
X-17500155Y-3912256D01*
X-17537500Y-3908578D01*
X-18376375Y-3909500D01*
X-18424000Y-3957125D01*
X-18551000Y-3957125D01*
X-18598625Y-3909500D01*
X-19437500Y-3908578D01*
X-19474845Y-3912256D01*
X-19510754Y-3923149D01*
X-19543848Y-3940838D01*
X-19572856Y-3964644D01*
X-19596662Y-3993652D01*
X-19614351Y-4026746D01*
X-19625244Y-4062655D01*
X-19628922Y-4100000D01*
X-19632500Y-4100000D01*
X-19632500Y-3350000D01*
X-19628922Y-3350000D01*
X-19625244Y-3387345D01*
X-19614351Y-3423254D01*
X-19596662Y-3456348D01*
X-19572856Y-3485356D01*
X-19543848Y-3509162D01*
X-19510754Y-3526851D01*
X-19474845Y-3537744D01*
X-19437500Y-3541422D01*
X-18598625Y-3540500D01*
X-18551000Y-3492875D01*
X-18551000Y-2463500D01*
X-18424000Y-2463500D01*
X-18424000Y-3492875D01*
X-18376375Y-3540500D01*
X-17537500Y-3541422D01*
X-17500155Y-3537744D01*
X-17464246Y-3526851D01*
X-17431152Y-3509162D01*
X-17402144Y-3485356D01*
X-17378338Y-3456348D01*
X-17360649Y-3423254D01*
X-17349756Y-3387345D01*
X-17346078Y-3350000D01*
X-17346187Y-3250000D01*
X-16928922Y-3250000D01*
X-16928000Y-4188875D01*
X-16880375Y-4236500D01*
X-16001000Y-4236500D01*
X-16001000Y-3107125D01*
X-15874000Y-3107125D01*
X-15874000Y-4236500D01*
X-14994625Y-4236500D01*
X-14947000Y-4188875D01*
X-14946496Y-3675000D01*
X-6769036Y-3675000D01*
X-6769036Y-3825000D01*
X-6761465Y-3901873D01*
X-6739042Y-3975791D01*
X-6702629Y-4043915D01*
X-6653626Y-4103626D01*
X-6593915Y-4152629D01*
X-6525791Y-4189042D01*
X-6451873Y-4211465D01*
X-6375000Y-4219036D01*
X-6117061Y-4219036D01*
X-6168236Y-4270211D01*
X-6237729Y-4374215D01*
X-6285597Y-4489777D01*
X-6310000Y-4612458D01*
X-6310000Y-4737542D01*
X-6285597Y-4860223D01*
X-6237729Y-4975785D01*
X-6168236Y-5079789D01*
X-6079789Y-5168236D01*
X-5975785Y-5237729D01*
X-5860223Y-5285597D01*
X-5737542Y-5310000D01*
X-5612458Y-5310000D01*
X-5489777Y-5285597D01*
X-5374215Y-5237729D01*
X-5270211Y-5168236D01*
X-5181764Y-5079789D01*
X-5112271Y-4975785D01*
X-5064403Y-4860223D01*
X-5040000Y-4737542D01*
X-5040000Y-4612458D01*
X-5064403Y-4489777D01*
X-5112271Y-4374215D01*
X-5181764Y-4270211D01*
X-5232939Y-4219036D01*
X-4975000Y-4219036D01*
X-4898127Y-4211465D01*
X-4824209Y-4189042D01*
X-4756085Y-4152629D01*
X-4696374Y-4103626D01*
X-4647371Y-4043915D01*
X-4610958Y-3975791D01*
X-4588535Y-3901873D01*
X-4580964Y-3825000D01*
X-4580964Y-3675000D01*
X-4588535Y-3598127D01*
X-4610958Y-3524209D01*
X-4647371Y-3456085D01*
X-4696374Y-3396374D01*
X-4708908Y-3386088D01*
X-4709500Y-3361125D01*
X-4757125Y-3313500D01*
X-4819453Y-3313500D01*
X-4824209Y-3310958D01*
X-4898127Y-3288535D01*
X-4975000Y-3280964D01*
X-6375000Y-3280964D01*
X-6451873Y-3288535D01*
X-6525791Y-3310958D01*
X-6530547Y-3313500D01*
X-6592875Y-3313500D01*
X-6640500Y-3361125D01*
X-6641092Y-3386088D01*
X-6653626Y-3396374D01*
X-6702629Y-3456085D01*
X-6739042Y-3524209D01*
X-6761465Y-3598127D01*
X-6769036Y-3675000D01*
X-14946496Y-3675000D01*
X-14946078Y-3250000D01*
X-14949756Y-3212655D01*
X-14960649Y-3176746D01*
X-14978338Y-3143652D01*
X-15002144Y-3114644D01*
X-15031152Y-3090838D01*
X-15064246Y-3073149D01*
X-15100155Y-3062256D01*
X-15137500Y-3058578D01*
X-15826375Y-3059500D01*
X-15874000Y-3107125D01*
X-16001000Y-3107125D01*
X-16048625Y-3059500D01*
X-16737500Y-3058578D01*
X-16774845Y-3062256D01*
X-16810754Y-3073149D01*
X-16843848Y-3090838D01*
X-16872856Y-3114644D01*
X-16896662Y-3143652D01*
X-16914351Y-3176746D01*
X-16925244Y-3212655D01*
X-16928922Y-3250000D01*
X-17346187Y-3250000D01*
X-17346792Y-2700000D01*
X-16678922Y-2700000D01*
X-16675244Y-2737345D01*
X-16664351Y-2773254D01*
X-16646662Y-2806348D01*
X-16622856Y-2835356D01*
X-16593848Y-2859162D01*
X-16560754Y-2876851D01*
X-16524845Y-2887744D01*
X-16487500Y-2891422D01*
X-15923625Y-2890500D01*
X-15876000Y-2842875D01*
X-15876000Y-2563500D01*
X-15749000Y-2563500D01*
X-15749000Y-2842875D01*
X-15701375Y-2890500D01*
X-15137500Y-2891422D01*
X-15100155Y-2887744D01*
X-15064246Y-2876851D01*
X-15031152Y-2859162D01*
X-15002144Y-2835356D01*
X-14978338Y-2806348D01*
X-14960649Y-2773254D01*
X-14949756Y-2737345D01*
X-14946078Y-2700000D01*
X-14947000Y-2611125D01*
X-14994625Y-2563500D01*
X-15749000Y-2563500D01*
X-15876000Y-2563500D01*
X-16630375Y-2563500D01*
X-16678000Y-2611125D01*
X-16678922Y-2700000D01*
X-17346792Y-2700000D01*
X-17347000Y-2511125D01*
X-17394625Y-2463500D01*
X-18424000Y-2463500D01*
X-18551000Y-2463500D01*
X-19580375Y-2463500D01*
X-19628000Y-2511125D01*
X-19628922Y-3350000D01*
X-19632500Y-3350000D01*
X-19632500Y-1450000D01*
X-19628922Y-1450000D01*
X-19628000Y-2288875D01*
X-19580375Y-2336500D01*
X-18551000Y-2336500D01*
X-18551000Y-1307125D01*
X-18424000Y-1307125D01*
X-18424000Y-2336500D01*
X-17394625Y-2336500D01*
X-17347000Y-2288875D01*
X-17346078Y-1450000D01*
X-17349756Y-1412655D01*
X-17360649Y-1376746D01*
X-17378338Y-1343652D01*
X-17402144Y-1314644D01*
X-17431152Y-1290838D01*
X-17464246Y-1273149D01*
X-17500155Y-1262256D01*
X-17537500Y-1258578D01*
X-18376375Y-1259500D01*
X-18424000Y-1307125D01*
X-18551000Y-1307125D01*
X-18598625Y-1259500D01*
X-19437500Y-1258578D01*
X-19474845Y-1262256D01*
X-19510754Y-1273149D01*
X-19543848Y-1290838D01*
X-19572856Y-1314644D01*
X-19596662Y-1343652D01*
X-19614351Y-1376746D01*
X-19625244Y-1412655D01*
X-19628922Y-1450000D01*
X-19632500Y-1450000D01*
X-19632500Y-950000D01*
X-19628922Y-950000D01*
X-19625244Y-987345D01*
X-19614351Y-1023254D01*
X-19596662Y-1056348D01*
X-19572856Y-1085356D01*
X-19543848Y-1109162D01*
X-19510754Y-1126851D01*
X-19474845Y-1137744D01*
X-19437500Y-1141422D01*
X-18598625Y-1140500D01*
X-18551000Y-1092875D01*
X-18551000Y-63500D01*
X-18424000Y-63500D01*
X-18424000Y-1092875D01*
X-18376375Y-1140500D01*
X-17537500Y-1141422D01*
X-17500155Y-1137744D01*
X-17464246Y-1126851D01*
X-17431152Y-1109162D01*
X-17402144Y-1085356D01*
X-17378338Y-1056348D01*
X-17360649Y-1023254D01*
X-17349756Y-987345D01*
X-17346078Y-950000D01*
X-17347000Y-111125D01*
X-17394625Y-63500D01*
X-18424000Y-63500D01*
X-18551000Y-63500D01*
X-19580375Y-63500D01*
X-19628000Y-111125D01*
X-19628922Y-950000D01*
X-19632500Y-950000D01*
X-19632500Y950000D01*
X-19628922Y950000D01*
X-19628000Y111125D01*
X-19580375Y63500D01*
X-18551000Y63500D01*
X-18551000Y1092875D01*
X-18424000Y1092875D01*
X-18424000Y63500D01*
X-17394625Y63500D01*
X-17347000Y111125D01*
X-17346793Y300000D01*
X-16806536Y300000D01*
X-16806536Y-100000D01*
X-16800406Y-162241D01*
X-16782251Y-222090D01*
X-16780696Y-225000D01*
X-16782251Y-227910D01*
X-16800406Y-287759D01*
X-16806536Y-350000D01*
X-16806536Y-750000D01*
X-16800406Y-812241D01*
X-16782251Y-872090D01*
X-16780696Y-875000D01*
X-16782251Y-877910D01*
X-16800406Y-937759D01*
X-16806536Y-1000000D01*
X-16806536Y-1400000D01*
X-16800406Y-1462241D01*
X-16782251Y-1522090D01*
X-16780696Y-1525000D01*
X-16782251Y-1527910D01*
X-16800406Y-1587759D01*
X-16806536Y-1650000D01*
X-16806536Y-2050000D01*
X-16800406Y-2112241D01*
X-16782251Y-2172090D01*
X-16752769Y-2227247D01*
X-16713093Y-2275593D01*
X-16678884Y-2303667D01*
X-16678000Y-2388875D01*
X-16630375Y-2436500D01*
X-15876000Y-2436500D01*
X-15876000Y-2416500D01*
X-15749000Y-2416500D01*
X-15749000Y-2436500D01*
X-14994625Y-2436500D01*
X-14947000Y-2388875D01*
X-14946116Y-2303667D01*
X-14911907Y-2275593D01*
X-14872231Y-2227247D01*
X-14842749Y-2172090D01*
X-14824594Y-2112241D01*
X-14818464Y-2050000D01*
X-14818464Y-1650000D01*
X-14824009Y-1593700D01*
X-14819321Y-1593700D01*
X-14799999Y-1595603D01*
X-14780677Y-1593700D01*
X-14780666Y-1593700D01*
X-14722820Y-1588003D01*
X-14648608Y-1565490D01*
X-14580213Y-1528933D01*
X-14520265Y-1479734D01*
X-14507939Y-1464715D01*
X-14464324Y-1421100D01*
X-10831194Y-1421100D01*
X-10811872Y-1423003D01*
X-10792550Y-1421100D01*
X-10792539Y-1421100D01*
X-10734693Y-1415403D01*
X-10660481Y-1392890D01*
X-10592086Y-1356333D01*
X-10532138Y-1307134D01*
X-10519812Y-1292115D01*
X-9273796Y-46100D01*
X-8648587Y-46100D01*
X-8678826Y-55273D01*
X-8768561Y-103237D01*
X-8847214Y-167786D01*
X-8911763Y-246439D01*
X-8959727Y-336174D01*
X-8989263Y-433541D01*
X-8999236Y-534800D01*
X-8999236Y-934800D01*
X-8989263Y-1036059D01*
X-8959727Y-1133426D01*
X-8911763Y-1223161D01*
X-8847214Y-1301814D01*
X-8768561Y-1366363D01*
X-8678826Y-1414327D01*
X-8581459Y-1443863D01*
X-8480200Y-1453836D01*
X-7930200Y-1453836D01*
X-7828941Y-1443863D01*
X-7731574Y-1414327D01*
X-7641839Y-1366363D01*
X-7563186Y-1301814D01*
X-7498637Y-1223161D01*
X-7450673Y-1133426D01*
X-7421137Y-1036059D01*
X-7411164Y-934800D01*
X-7411164Y-900000D01*
X-6641422Y-900000D01*
X-6637744Y-937345D01*
X-6626851Y-973254D01*
X-6612555Y-1000000D01*
X-6626851Y-1026746D01*
X-6637744Y-1062655D01*
X-6641422Y-1100000D01*
X-6640500Y-1138875D01*
X-6592875Y-1186500D01*
X-5738500Y-1186500D01*
X-5738500Y-813500D01*
X-5611500Y-813500D01*
X-5611500Y-1186500D01*
X-4757125Y-1186500D01*
X-4709500Y-1138875D01*
X-4708578Y-1100000D01*
X-4712256Y-1062655D01*
X-4723149Y-1026746D01*
X-4737445Y-1000000D01*
X-4723149Y-973254D01*
X-4712256Y-937345D01*
X-4708578Y-900000D01*
X-4709500Y-861125D01*
X-4757125Y-813500D01*
X-5611500Y-813500D01*
X-5738500Y-813500D01*
X-6592875Y-813500D01*
X-6640500Y-861125D01*
X-6641422Y-900000D01*
X-7411164Y-900000D01*
X-7411164Y-643700D01*
X-6635675Y-643700D01*
X-6592875Y-686500D01*
X-6530547Y-686500D01*
X-6525791Y-689042D01*
X-6451873Y-711465D01*
X-6375000Y-719036D01*
X-4975000Y-719036D01*
X-4898127Y-711465D01*
X-4824209Y-689042D01*
X-4819453Y-686500D01*
X-4757125Y-686500D01*
X-4714325Y-643700D01*
X-3317500Y-643700D01*
X-3317500Y-2773636D01*
X-3320266Y-2770266D01*
X-3335278Y-2757946D01*
X-4607940Y-1485285D01*
X-4620266Y-1470266D01*
X-4667641Y-1431385D01*
X-4696374Y-1396374D01*
X-4708908Y-1386088D01*
X-4709500Y-1361125D01*
X-4757125Y-1313500D01*
X-4819453Y-1313500D01*
X-4824209Y-1310958D01*
X-4898127Y-1288535D01*
X-4975000Y-1280964D01*
X-6375000Y-1280964D01*
X-6451873Y-1288535D01*
X-6525791Y-1310958D01*
X-6530547Y-1313500D01*
X-6592875Y-1313500D01*
X-6640500Y-1361125D01*
X-6641092Y-1386088D01*
X-6653626Y-1396374D01*
X-6702629Y-1456085D01*
X-6739042Y-1524209D01*
X-6761465Y-1598127D01*
X-6769036Y-1675000D01*
X-6769036Y-1825000D01*
X-6761465Y-1901873D01*
X-6739042Y-1975791D01*
X-6702629Y-2043915D01*
X-6653626Y-2103626D01*
X-6641092Y-2113912D01*
X-6640500Y-2138875D01*
X-6592875Y-2186500D01*
X-6530547Y-2186500D01*
X-6525791Y-2189042D01*
X-6451873Y-2211465D01*
X-6375000Y-2219036D01*
X-5591500Y-2219036D01*
X-5591500Y-2280964D01*
X-6375000Y-2280964D01*
X-6451873Y-2288535D01*
X-6525791Y-2310958D01*
X-6530547Y-2313500D01*
X-6592875Y-2313500D01*
X-6635675Y-2356300D01*
X-7411164Y-2356300D01*
X-7411164Y-2184800D01*
X-7421137Y-2083541D01*
X-7450673Y-1986174D01*
X-7498637Y-1896439D01*
X-7563186Y-1817786D01*
X-7641839Y-1753237D01*
X-7731574Y-1705273D01*
X-7828941Y-1675737D01*
X-7930200Y-1665764D01*
X-8480200Y-1665764D01*
X-8581459Y-1675737D01*
X-8678826Y-1705273D01*
X-8768561Y-1753237D01*
X-8847214Y-1817786D01*
X-8911763Y-1896439D01*
X-8959727Y-1986174D01*
X-8989263Y-2083541D01*
X-8999236Y-2184800D01*
X-8999236Y-2584800D01*
X-8989263Y-2686059D01*
X-8959727Y-2783426D01*
X-8911763Y-2873161D01*
X-8847214Y-2951814D01*
X-8768561Y-3016363D01*
X-8678826Y-3064327D01*
X-8581459Y-3093863D01*
X-8480200Y-3103836D01*
X-8013195Y-3103836D01*
X-7991391Y-3115490D01*
X-7917179Y-3138003D01*
X-7859333Y-3143700D01*
X-7859325Y-3143700D01*
X-7840000Y-3145603D01*
X-7820675Y-3143700D01*
X-6635675Y-3143700D01*
X-6592875Y-3186500D01*
X-6530547Y-3186500D01*
X-6525791Y-3189042D01*
X-6451873Y-3211465D01*
X-6375000Y-3219036D01*
X-4975000Y-3219036D01*
X-4898127Y-3211465D01*
X-4824209Y-3189042D01*
X-4819453Y-3186500D01*
X-4757125Y-3186500D01*
X-4709500Y-3138875D01*
X-4708908Y-3113912D01*
X-4696374Y-3103626D01*
X-4647371Y-3043915D01*
X-4610958Y-2975791D01*
X-4588535Y-2901873D01*
X-4580964Y-2825000D01*
X-4580964Y-2675000D01*
X-4586338Y-2620438D01*
X-4100577Y-3106198D01*
X-4162729Y-3199215D01*
X-4210597Y-3314777D01*
X-4235000Y-3437458D01*
X-4235000Y-3562542D01*
X-4210597Y-3685223D01*
X-4162729Y-3800785D01*
X-4093236Y-3904789D01*
X-4004789Y-3993236D01*
X-3900785Y-4062729D01*
X-3785223Y-4110597D01*
X-3662542Y-4135000D01*
X-3537458Y-4135000D01*
X-3414777Y-4110597D01*
X-3299215Y-4062729D01*
X-3195211Y-3993236D01*
X-3106764Y-3904789D01*
X-3037271Y-3800785D01*
X-2989403Y-3685223D01*
X-2965000Y-3562542D01*
X-2965000Y-3437458D01*
X-2988861Y-3317500D01*
X-2643699Y-3317500D01*
X-2643700Y-4584047D01*
X-2675000Y-4580964D01*
X-2825000Y-4580964D01*
X-2901873Y-4588535D01*
X-2975791Y-4610958D01*
X-3000000Y-4623898D01*
X-3024209Y-4610958D01*
X-3098127Y-4588535D01*
X-3175000Y-4580964D01*
X-3325000Y-4580964D01*
X-3401873Y-4588535D01*
X-3475791Y-4610958D01*
X-3500000Y-4623898D01*
X-3524209Y-4610958D01*
X-3598127Y-4588535D01*
X-3675000Y-4580964D01*
X-3825000Y-4580964D01*
X-3901873Y-4588535D01*
X-3975791Y-4610958D01*
X-4043915Y-4647371D01*
X-4103626Y-4696374D01*
X-4152629Y-4756085D01*
X-4189042Y-4824209D01*
X-4211465Y-4898127D01*
X-4219036Y-4975000D01*
X-4219036Y-5281300D01*
X-4320675Y-5281300D01*
X-4395211Y-5206764D01*
X-4499215Y-5137271D01*
X-4614777Y-5089403D01*
X-4737458Y-5065000D01*
X-4862542Y-5065000D01*
X-4985223Y-5089403D01*
X-5100785Y-5137271D01*
X-5204789Y-5206764D01*
X-5293236Y-5295211D01*
X-5362729Y-5399215D01*
X-5410597Y-5514777D01*
X-5435000Y-5637458D01*
X-5435000Y-5762542D01*
X-5410597Y-5885223D01*
X-5362729Y-6000785D01*
X-5293236Y-6104789D01*
X-5204789Y-6193236D01*
X-5100785Y-6262729D01*
X-4985223Y-6310597D01*
X-4862542Y-6335000D01*
X-4737458Y-6335000D01*
X-4614777Y-6310597D01*
X-4499215Y-6262729D01*
X-4395211Y-6193236D01*
X-4306764Y-6104789D01*
X-4282650Y-6068700D01*
X-4219036Y-6068700D01*
X-4219036Y-6375000D01*
X-4211465Y-6451873D01*
X-4189042Y-6525791D01*
X-4152629Y-6593915D01*
X-4142465Y-6606300D01*
X-5036924Y-6606300D01*
X-5390740Y-6252485D01*
X-5403066Y-6237466D01*
X-5463014Y-6188267D01*
X-5531409Y-6151710D01*
X-5605621Y-6129197D01*
X-5663467Y-6123500D01*
X-5663478Y-6123500D01*
X-5682800Y-6121597D01*
X-5702122Y-6123500D01*
X-8256112Y-6123500D01*
X-8262094Y-6062759D01*
X-8280249Y-6002910D01*
X-8309731Y-5947753D01*
X-8349407Y-5899407D01*
X-8397753Y-5859731D01*
X-8452910Y-5830249D01*
X-8512759Y-5812094D01*
X-8575000Y-5805964D01*
X-9475000Y-5805964D01*
X-9537241Y-5812094D01*
X-9597090Y-5830249D01*
X-9652247Y-5859731D01*
X-9700593Y-5899407D01*
X-9740269Y-5947753D01*
X-9769751Y-6002910D01*
X-9787906Y-6062759D01*
X-9793888Y-6123500D01*
X-10996564Y-6123500D01*
X-10996564Y-6117200D01*
X-11002694Y-6054959D01*
X-11020849Y-5995110D01*
X-11050331Y-5939953D01*
X-11090007Y-5891607D01*
X-11138353Y-5851931D01*
X-11193510Y-5822449D01*
X-11253359Y-5804294D01*
X-11315600Y-5798164D01*
X-12092188Y-5798164D01*
X-11987724Y-5693700D01*
X-10800645Y-5693700D01*
X-10793236Y-5704789D01*
X-10704789Y-5793236D01*
X-10600785Y-5862729D01*
X-10485223Y-5910597D01*
X-10362542Y-5935000D01*
X-10237458Y-5935000D01*
X-10114777Y-5910597D01*
X-9999215Y-5862729D01*
X-9895211Y-5793236D01*
X-9806764Y-5704789D01*
X-9737271Y-5600785D01*
X-9689403Y-5485223D01*
X-9665000Y-5362542D01*
X-9665000Y-5237458D01*
X-9689403Y-5114777D01*
X-9737271Y-4999215D01*
X-9806764Y-4895211D01*
X-9895211Y-4806764D01*
X-9999215Y-4737271D01*
X-10114777Y-4689403D01*
X-10237458Y-4665000D01*
X-10362542Y-4665000D01*
X-10485223Y-4689403D01*
X-10600785Y-4737271D01*
X-10704789Y-4806764D01*
X-10793236Y-4895211D01*
X-10800645Y-4906300D01*
X-12131478Y-4906300D01*
X-12150801Y-4904397D01*
X-12170123Y-4906300D01*
X-12170133Y-4906300D01*
X-12227979Y-4911997D01*
X-12302191Y-4934510D01*
X-12370586Y-4971067D01*
X-12415518Y-5007942D01*
X-12415521Y-5007945D01*
X-12430534Y-5020266D01*
X-12442856Y-5035280D01*
X-14030320Y-6622745D01*
X-14045333Y-6635066D01*
X-14057654Y-6650079D01*
X-14057658Y-6650083D01*
X-14094533Y-6695015D01*
X-14122941Y-6748164D01*
X-14215600Y-6748164D01*
X-14277841Y-6754294D01*
X-14337690Y-6772449D01*
X-14392847Y-6801931D01*
X-14441193Y-6841607D01*
X-14480869Y-6889953D01*
X-14510351Y-6945110D01*
X-14528506Y-7004959D01*
X-14534636Y-7067200D01*
X-14534636Y-7867200D01*
X-14528506Y-7929441D01*
X-14510351Y-7989290D01*
X-14480869Y-8044447D01*
X-14441193Y-8092793D01*
X-14392847Y-8132469D01*
X-14337690Y-8161951D01*
X-14277841Y-8180106D01*
X-14215600Y-8186236D01*
X-13315600Y-8186236D01*
X-13253359Y-8180106D01*
X-13193510Y-8161951D01*
X-13138353Y-8132469D01*
X-13090007Y-8092793D01*
X-13050331Y-8044447D01*
X-13020849Y-7989290D01*
X-13002694Y-7929441D01*
X-12996564Y-7867200D01*
X-12996564Y-7067200D01*
X-13002694Y-7004959D01*
X-13020849Y-6945110D01*
X-13050331Y-6889953D01*
X-13090007Y-6841607D01*
X-13115066Y-6821042D01*
X-12534636Y-6240612D01*
X-12534636Y-6917200D01*
X-12528506Y-6979441D01*
X-12510351Y-7039290D01*
X-12480869Y-7094447D01*
X-12441193Y-7142793D01*
X-12392847Y-7182469D01*
X-12337690Y-7211951D01*
X-12277841Y-7230106D01*
X-12215600Y-7236236D01*
X-11315600Y-7236236D01*
X-11253359Y-7230106D01*
X-11193510Y-7211951D01*
X-11138353Y-7182469D01*
X-11090007Y-7142793D01*
X-11050331Y-7094447D01*
X-11020849Y-7039290D01*
X-11002694Y-6979441D01*
X-10996564Y-6917200D01*
X-10996564Y-6910900D01*
X-9794036Y-6910900D01*
X-9794036Y-6925000D01*
X-9787906Y-6987241D01*
X-9769751Y-7047090D01*
X-9740269Y-7102247D01*
X-9700593Y-7150593D01*
X-9652247Y-7190269D01*
X-9597090Y-7219751D01*
X-9537241Y-7237906D01*
X-9475000Y-7244036D01*
X-8575000Y-7244036D01*
X-8512759Y-7237906D01*
X-8452910Y-7219751D01*
X-8397753Y-7190269D01*
X-8349407Y-7150593D01*
X-8309731Y-7102247D01*
X-8280249Y-7047090D01*
X-8262094Y-6987241D01*
X-8255964Y-6925000D01*
X-8255964Y-6910900D01*
X-7747296Y-6910900D01*
X-7769751Y-6952910D01*
X-7787906Y-7012759D01*
X-7794036Y-7075000D01*
X-7794036Y-7875000D01*
X-7787906Y-7937241D01*
X-7769751Y-7997090D01*
X-7755635Y-8023500D01*
X-8256112Y-8023500D01*
X-8262094Y-7962759D01*
X-8280249Y-7902910D01*
X-8309731Y-7847753D01*
X-8349407Y-7799407D01*
X-8397753Y-7759731D01*
X-8452910Y-7730249D01*
X-8512759Y-7712094D01*
X-8575000Y-7705964D01*
X-9475000Y-7705964D01*
X-9537241Y-7712094D01*
X-9597090Y-7730249D01*
X-9652247Y-7759731D01*
X-9700593Y-7799407D01*
X-9740269Y-7847753D01*
X-9769751Y-7902910D01*
X-9787906Y-7962759D01*
X-9793888Y-8023500D01*
X-10996564Y-8023500D01*
X-10996564Y-8017200D01*
X-11002694Y-7954959D01*
X-11020849Y-7895110D01*
X-11050331Y-7839953D01*
X-11090007Y-7791607D01*
X-11138353Y-7751931D01*
X-11193510Y-7722449D01*
X-11253359Y-7704294D01*
X-11315600Y-7698164D01*
X-12215600Y-7698164D01*
X-12277841Y-7704294D01*
X-12337690Y-7722449D01*
X-12392847Y-7751931D01*
X-12441193Y-7791607D01*
X-12480869Y-7839953D01*
X-12510351Y-7895110D01*
X-12528506Y-7954959D01*
X-12534636Y-8017200D01*
X-12534636Y-8817200D01*
X-12528506Y-8879441D01*
X-12510351Y-8939290D01*
X-12480869Y-8994447D01*
X-12441193Y-9042793D01*
X-12392847Y-9082469D01*
X-12337690Y-9111951D01*
X-12277841Y-9130106D01*
X-12215600Y-9136236D01*
X-11315600Y-9136236D01*
X-11253359Y-9130106D01*
X-11193510Y-9111951D01*
X-11138353Y-9082469D01*
X-11090007Y-9042793D01*
X-11050331Y-8994447D01*
X-11020849Y-8939290D01*
X-11002694Y-8879441D01*
X-10996564Y-8817200D01*
X-10996564Y-8810900D01*
X-9794036Y-8810900D01*
X-9794036Y-8825000D01*
X-9787906Y-8887241D01*
X-9769751Y-8947090D01*
X-9740269Y-9002247D01*
X-9700593Y-9050593D01*
X-9652247Y-9090269D01*
X-9597090Y-9119751D01*
X-9537241Y-9137906D01*
X-9475000Y-9144036D01*
X-8575000Y-9144036D01*
X-8512759Y-9137906D01*
X-8452910Y-9119751D01*
X-8397753Y-9090269D01*
X-8349407Y-9050593D01*
X-8309731Y-9002247D01*
X-8280249Y-8947090D01*
X-8262094Y-8887241D01*
X-8255964Y-8825000D01*
X-8255964Y-8810900D01*
X-3436522Y-8810900D01*
X-3417200Y-8812803D01*
X-3397878Y-8810900D01*
X-3397867Y-8810900D01*
X-3340021Y-8805203D01*
X-3265809Y-8782690D01*
X-3197414Y-8746133D01*
X-3137466Y-8696934D01*
X-3125140Y-8681915D01*
X-1485280Y-7042056D01*
X-1470266Y-7029734D01*
X-1457941Y-7014717D01*
X-1421067Y-6969786D01*
X-1384510Y-6901391D01*
X-1361997Y-6827179D01*
X-1359682Y-6803672D01*
X-1356300Y-6769333D01*
X-1356300Y-6769325D01*
X-1355971Y-6765986D01*
X-1325000Y-6769036D01*
X-1175000Y-6769036D01*
X-1098127Y-6761465D01*
X-1024209Y-6739042D01*
X-1000000Y-6726102D01*
X-975791Y-6739042D01*
X-901873Y-6761465D01*
X-825000Y-6769036D01*
X-675000Y-6769036D01*
X-598127Y-6761465D01*
X-524209Y-6739042D01*
X-500000Y-6726102D01*
X-475791Y-6739042D01*
X-401873Y-6761465D01*
X-325000Y-6769036D01*
X-175000Y-6769036D01*
X-98127Y-6761465D01*
X-24209Y-6739042D01*
X43915Y-6702629D01*
X103626Y-6653626D01*
X113912Y-6641092D01*
X138875Y-6640500D01*
X186500Y-6592875D01*
X186500Y-6530547D01*
X189042Y-6525791D01*
X211465Y-6451873D01*
X219036Y-6375000D01*
X219036Y-4975000D01*
X211465Y-4898127D01*
X189042Y-4824209D01*
X186500Y-4819453D01*
X186500Y-4757125D01*
X138875Y-4709500D01*
X113912Y-4708908D01*
X103626Y-4696374D01*
X43915Y-4647371D01*
X-24209Y-4610958D01*
X-98127Y-4588535D01*
X-175000Y-4580964D01*
X-325000Y-4580964D01*
X-401873Y-4588535D01*
X-475791Y-4610958D01*
X-500000Y-4623898D01*
X-524209Y-4610958D01*
X-598127Y-4588535D01*
X-675000Y-4580964D01*
X-825000Y-4580964D01*
X-901873Y-4588535D01*
X-975791Y-4610958D01*
X-1000000Y-4623898D01*
X-1024209Y-4610958D01*
X-1098127Y-4588535D01*
X-1175000Y-4580964D01*
X-1325000Y-4580964D01*
X-1401873Y-4588535D01*
X-1475791Y-4610958D01*
X-1500000Y-4623898D01*
X-1524209Y-4610958D01*
X-1598127Y-4588535D01*
X-1675000Y-4580964D01*
X-1825000Y-4580964D01*
X-1856300Y-4584047D01*
X-1856300Y-3413075D01*
X-1760725Y-3317500D01*
X-939275Y-3317500D01*
X-192056Y-4064720D01*
X-179734Y-4079734D01*
X-164721Y-4092055D01*
X-164718Y-4092058D01*
X-119786Y-4128933D01*
X-51391Y-4165490D01*
X22821Y-4188003D01*
X80667Y-4193700D01*
X80677Y-4193700D01*
X100000Y-4195603D01*
X119322Y-4193700D01*
X2136925Y-4193700D01*
X2547206Y-4603982D01*
X2524209Y-4610958D01*
X2500000Y-4623898D01*
X2475791Y-4610958D01*
X2401873Y-4588535D01*
X2325000Y-4580964D01*
X2175000Y-4580964D01*
X2098127Y-4588535D01*
X2024209Y-4610958D01*
X2000000Y-4623898D01*
X1975791Y-4610958D01*
X1901873Y-4588535D01*
X1825000Y-4580964D01*
X1675000Y-4580964D01*
X1598127Y-4588535D01*
X1524209Y-4610958D01*
X1500000Y-4623898D01*
X1475791Y-4610958D01*
X1401873Y-4588535D01*
X1325000Y-4580964D01*
X1175000Y-4580964D01*
X1098127Y-4588535D01*
X1024209Y-4610958D01*
X1000000Y-4623898D01*
X975791Y-4610958D01*
X901873Y-4588535D01*
X825000Y-4580964D01*
X675000Y-4580964D01*
X598127Y-4588535D01*
X524209Y-4610958D01*
X456085Y-4647371D01*
X396374Y-4696374D01*
X386088Y-4708908D01*
X361125Y-4709500D01*
X313500Y-4757125D01*
X313500Y-4819453D01*
X310958Y-4824209D01*
X288535Y-4898127D01*
X280964Y-4975000D01*
X280964Y-6375000D01*
X288535Y-6451873D01*
X310958Y-6525791D01*
X313500Y-6530547D01*
X313500Y-6592875D01*
X361125Y-6640500D01*
X386088Y-6641092D01*
X396374Y-6653626D01*
X456085Y-6702629D01*
X524209Y-6739042D01*
X598127Y-6761465D01*
X675000Y-6769036D01*
X825000Y-6769036D01*
X901873Y-6761465D01*
X975791Y-6739042D01*
X1000000Y-6726102D01*
X1024209Y-6739042D01*
X1098127Y-6761465D01*
X1175000Y-6769036D01*
X1325000Y-6769036D01*
X1401873Y-6761465D01*
X1475791Y-6739042D01*
X1500000Y-6726102D01*
X1524209Y-6739042D01*
X1598127Y-6761465D01*
X1675000Y-6769036D01*
X1825000Y-6769036D01*
X1856301Y-6765953D01*
X1856301Y-7030668D01*
X1854397Y-7050000D01*
X1856301Y-7069333D01*
X1857273Y-7079197D01*
X1861998Y-7127178D01*
X1884510Y-7201390D01*
X1921067Y-7269785D01*
X1957942Y-7314717D01*
X1957946Y-7314721D01*
X1970267Y-7329734D01*
X1985280Y-7342055D01*
X2707944Y-8064720D01*
X2720266Y-8079734D01*
X2735279Y-8092055D01*
X2735282Y-8092058D01*
X2745682Y-8100593D01*
X2780214Y-8128933D01*
X2848609Y-8165490D01*
X2922821Y-8188003D01*
X2980667Y-8193700D01*
X2980677Y-8193700D01*
X2999999Y-8195603D01*
X3019322Y-8193700D01*
X8972678Y-8193700D01*
X8992000Y-8195603D01*
X9011322Y-8193700D01*
X9011333Y-8193700D01*
X9069179Y-8188003D01*
X9143391Y-8165490D01*
X9211786Y-8128933D01*
X9271734Y-8079734D01*
X9284060Y-8064715D01*
X9359339Y-7989436D01*
X9796600Y-7989436D01*
X9897859Y-7979463D01*
X9995226Y-7949927D01*
X10084961Y-7901963D01*
X10163614Y-7837414D01*
X10228163Y-7758761D01*
X10276127Y-7669026D01*
X10305663Y-7571659D01*
X10315636Y-7470400D01*
X10315636Y-7102450D01*
X10403964Y-7102450D01*
X10403964Y-7539950D01*
X10414297Y-7644867D01*
X10444901Y-7745752D01*
X10494597Y-7838728D01*
X10561478Y-7920222D01*
X10642972Y-7987103D01*
X10735948Y-8036799D01*
X10836833Y-8067403D01*
X10941750Y-8077736D01*
X11454250Y-8077736D01*
X11559167Y-8067403D01*
X11660052Y-8036799D01*
X11753028Y-7987103D01*
X11834522Y-7920222D01*
X11901403Y-7838728D01*
X11951099Y-7745752D01*
X11981703Y-7644867D01*
X11992036Y-7539950D01*
X11992036Y-7102450D01*
X11981703Y-6997533D01*
X11951099Y-6896648D01*
X11901403Y-6803672D01*
X11834522Y-6722178D01*
X11789038Y-6684850D01*
X11809929Y-6653585D01*
X11857797Y-6538023D01*
X11882200Y-6415342D01*
X11882200Y-6290258D01*
X11857797Y-6167577D01*
X11809929Y-6052015D01*
X11760287Y-5977721D01*
X11802228Y-5955303D01*
X11883722Y-5888422D01*
X11950603Y-5806928D01*
X12000299Y-5713952D01*
X12030903Y-5613067D01*
X12041236Y-5508150D01*
X12041236Y-5070650D01*
X12030903Y-4965733D01*
X12000299Y-4864848D01*
X11950603Y-4771872D01*
X11883722Y-4690378D01*
X11802228Y-4623497D01*
X11709252Y-4573801D01*
X11608367Y-4543197D01*
X11503450Y-4532864D01*
X10990950Y-4532864D01*
X10886033Y-4543197D01*
X10785148Y-4573801D01*
X10692172Y-4623497D01*
X10610678Y-4690378D01*
X10543797Y-4771872D01*
X10494101Y-4864848D01*
X10463497Y-4965733D01*
X10453164Y-5070650D01*
X10453164Y-5508150D01*
X10463497Y-5613067D01*
X10494101Y-5713952D01*
X10543797Y-5806928D01*
X10610678Y-5888422D01*
X10692172Y-5955303D01*
X10734113Y-5977721D01*
X10684471Y-6052015D01*
X10636603Y-6167577D01*
X10612200Y-6290258D01*
X10612200Y-6415342D01*
X10636603Y-6538023D01*
X10677529Y-6636826D01*
X10642972Y-6655297D01*
X10561478Y-6722178D01*
X10494597Y-6803672D01*
X10444901Y-6896648D01*
X10414297Y-6997533D01*
X10403964Y-7102450D01*
X10315636Y-7102450D01*
X10315636Y-7070400D01*
X10305663Y-6969141D01*
X10276127Y-6871774D01*
X10228163Y-6782039D01*
X10163614Y-6703386D01*
X10084961Y-6638837D01*
X9995226Y-6590873D01*
X9897859Y-6561337D01*
X9796600Y-6551364D01*
X9246600Y-6551364D01*
X9200912Y-6555864D01*
X9697740Y-6059036D01*
X9845800Y-6059036D01*
X9947059Y-6049063D01*
X10044426Y-6019527D01*
X10134161Y-5971563D01*
X10212814Y-5907014D01*
X10277363Y-5828361D01*
X10325327Y-5738626D01*
X10354863Y-5641259D01*
X10364836Y-5540000D01*
X10364836Y-5140000D01*
X10354863Y-5038741D01*
X10325327Y-4941374D01*
X10277363Y-4851639D01*
X10212814Y-4772986D01*
X10134161Y-4708437D01*
X10044426Y-4660473D01*
X9947059Y-4630937D01*
X9845800Y-4620964D01*
X9295800Y-4620964D01*
X9194541Y-4630937D01*
X9097174Y-4660473D01*
X9007439Y-4708437D01*
X8928786Y-4772986D01*
X8864237Y-4851639D01*
X8816273Y-4941374D01*
X8786737Y-5038741D01*
X8776764Y-5140000D01*
X8776764Y-5540000D01*
X8786737Y-5641259D01*
X8816273Y-5738626D01*
X8847039Y-5796185D01*
X7836925Y-6806300D01*
X3363076Y-6806300D01*
X3325739Y-6768963D01*
X3401873Y-6761465D01*
X3475791Y-6739042D01*
X3500000Y-6726102D01*
X3524209Y-6739042D01*
X3598127Y-6761465D01*
X3675000Y-6769036D01*
X3825000Y-6769036D01*
X3901873Y-6761465D01*
X3975791Y-6739042D01*
X4043915Y-6702629D01*
X4103626Y-6653626D01*
X4152629Y-6593915D01*
X4189042Y-6525791D01*
X4211465Y-6451873D01*
X4219036Y-6375000D01*
X4219036Y-4975000D01*
X4211465Y-4898127D01*
X4189042Y-4824209D01*
X4152629Y-4756085D01*
X4103626Y-4696374D01*
X4043915Y-4647371D01*
X3975791Y-4610958D01*
X3901873Y-4588535D01*
X3825000Y-4580964D01*
X3675000Y-4580964D01*
X3609506Y-4587414D01*
X3578933Y-4530214D01*
X3568499Y-4517500D01*
X3542058Y-4485282D01*
X3542055Y-4485279D01*
X3529734Y-4470266D01*
X3514720Y-4457944D01*
X2592060Y-3535285D01*
X2579734Y-3520266D01*
X2519786Y-3471067D01*
X2451391Y-3434510D01*
X2377179Y-3411997D01*
X2319333Y-3406300D01*
X2319322Y-3406300D01*
X2300000Y-3404397D01*
X2280678Y-3406300D01*
X263076Y-3406300D01*
X174276Y-3317500D01*
X3000000Y-3317500D01*
X3061941Y-3311399D01*
X3121502Y-3293332D01*
X3176394Y-3263992D01*
X3224506Y-3224506D01*
X3263992Y-3176394D01*
X3264737Y-3175000D01*
X4580964Y-3175000D01*
X4580964Y-3325000D01*
X4588535Y-3401873D01*
X4610958Y-3475791D01*
X4623898Y-3500000D01*
X4610958Y-3524209D01*
X4588535Y-3598127D01*
X4580964Y-3675000D01*
X4580964Y-3825000D01*
X4588535Y-3901873D01*
X4610958Y-3975791D01*
X4647371Y-4043915D01*
X4696374Y-4103626D01*
X4756085Y-4152629D01*
X4824209Y-4189042D01*
X4898127Y-4211465D01*
X4975000Y-4219036D01*
X6375000Y-4219036D01*
X6451873Y-4211465D01*
X6525791Y-4189042D01*
X6593915Y-4152629D01*
X6653626Y-4103626D01*
X6702629Y-4043915D01*
X6739042Y-3975791D01*
X6761465Y-3901873D01*
X6769036Y-3825000D01*
X6769036Y-3675000D01*
X6761465Y-3598127D01*
X6739042Y-3524209D01*
X6726102Y-3500000D01*
X6731447Y-3490000D01*
X8776764Y-3490000D01*
X8776764Y-3890000D01*
X8786737Y-3991259D01*
X8816273Y-4088626D01*
X8864237Y-4178361D01*
X8928786Y-4257014D01*
X9007439Y-4321563D01*
X9097174Y-4369527D01*
X9194541Y-4399063D01*
X9295800Y-4409036D01*
X9845800Y-4409036D01*
X9947059Y-4399063D01*
X10044426Y-4369527D01*
X10134161Y-4321563D01*
X10212814Y-4257014D01*
X10277363Y-4178361D01*
X10314918Y-4108100D01*
X10484742Y-4108100D01*
X10494101Y-4138952D01*
X10543797Y-4231928D01*
X10610678Y-4313422D01*
X10692172Y-4380303D01*
X10785148Y-4429999D01*
X10886033Y-4460603D01*
X10990950Y-4470936D01*
X11503450Y-4470936D01*
X11608367Y-4460603D01*
X11709252Y-4429999D01*
X11802228Y-4380303D01*
X11883722Y-4313422D01*
X11950603Y-4231928D01*
X12000299Y-4138952D01*
X12030903Y-4038067D01*
X12041236Y-3933150D01*
X12041236Y-3495650D01*
X12030903Y-3390733D01*
X12000299Y-3289848D01*
X11950603Y-3196872D01*
X11883722Y-3115378D01*
X11802228Y-3048497D01*
X11709252Y-2998801D01*
X11608367Y-2968197D01*
X11503450Y-2957864D01*
X10990950Y-2957864D01*
X10886033Y-2968197D01*
X10785148Y-2998801D01*
X10692172Y-3048497D01*
X10610678Y-3115378D01*
X10543797Y-3196872D01*
X10494101Y-3289848D01*
X10484742Y-3320700D01*
X10334223Y-3320700D01*
X10325327Y-3291374D01*
X10277363Y-3201639D01*
X10212814Y-3122986D01*
X10134161Y-3058437D01*
X10044426Y-3010473D01*
X9947059Y-2980937D01*
X9845800Y-2970964D01*
X9295800Y-2970964D01*
X9194541Y-2980937D01*
X9097174Y-3010473D01*
X9007439Y-3058437D01*
X8928786Y-3122986D01*
X8864237Y-3201639D01*
X8816273Y-3291374D01*
X8786737Y-3388741D01*
X8776764Y-3490000D01*
X6731447Y-3490000D01*
X6739042Y-3475791D01*
X6761465Y-3401873D01*
X6769036Y-3325000D01*
X6769036Y-3175000D01*
X6761465Y-3098127D01*
X6739042Y-3024209D01*
X6702629Y-2956085D01*
X6653626Y-2896374D01*
X6641092Y-2886088D01*
X6640500Y-2861125D01*
X6592875Y-2813500D01*
X6530547Y-2813500D01*
X6525791Y-2810958D01*
X6451873Y-2788535D01*
X6375000Y-2780964D01*
X4975000Y-2780964D01*
X4898127Y-2788535D01*
X4824209Y-2810958D01*
X4819453Y-2813500D01*
X4757125Y-2813500D01*
X4709500Y-2861125D01*
X4708908Y-2886088D01*
X4696374Y-2896374D01*
X4647371Y-2956085D01*
X4610958Y-3024209D01*
X4588535Y-3098127D01*
X4580964Y-3175000D01*
X3264737Y-3175000D01*
X3293332Y-3121502D01*
X3311399Y-3061941D01*
X3317500Y-3000000D01*
X3317500Y-2143700D01*
X4584047Y-2143700D01*
X4580964Y-2175000D01*
X4580964Y-2325000D01*
X4588535Y-2401873D01*
X4610958Y-2475791D01*
X4647371Y-2543915D01*
X4696374Y-2603626D01*
X4708908Y-2613912D01*
X4709500Y-2638875D01*
X4757125Y-2686500D01*
X4819453Y-2686500D01*
X4824209Y-2689042D01*
X4898127Y-2711465D01*
X4975000Y-2719036D01*
X6375000Y-2719036D01*
X6451873Y-2711465D01*
X6525791Y-2689042D01*
X6530547Y-2686500D01*
X6592875Y-2686500D01*
X6640500Y-2638875D01*
X6641092Y-2613912D01*
X6653626Y-2603626D01*
X6702629Y-2543915D01*
X6739042Y-2475791D01*
X6761465Y-2401873D01*
X6769036Y-2325000D01*
X6769036Y-2175000D01*
X6761465Y-2098127D01*
X6739042Y-2024209D01*
X6726102Y-2000000D01*
X6739042Y-1975791D01*
X6761465Y-1901873D01*
X6769036Y-1825000D01*
X6769036Y-1675000D01*
X6765953Y-1643700D01*
X15139998Y-1643700D01*
X15165006Y-1681126D01*
X15278874Y-1794994D01*
X15278883Y-1795000D01*
X15278874Y-1795006D01*
X15165006Y-1908874D01*
X15075540Y-2042768D01*
X15013916Y-2191544D01*
X14982500Y-2349483D01*
X14982500Y-2510517D01*
X15013916Y-2668456D01*
X15075540Y-2817232D01*
X15145815Y-2922404D01*
X15122753Y-2934731D01*
X15074407Y-2974407D01*
X15034731Y-3022753D01*
X15005249Y-3077910D01*
X14987094Y-3137759D01*
X14980964Y-3200000D01*
X14980964Y-4200000D01*
X14987094Y-4262241D01*
X15005249Y-4322090D01*
X15034731Y-4377247D01*
X15074407Y-4425593D01*
X15122753Y-4465269D01*
X15177910Y-4494751D01*
X15237759Y-4512906D01*
X15300000Y-4519036D01*
X16300000Y-4519036D01*
X16362241Y-4512906D01*
X16422090Y-4494751D01*
X16477247Y-4465269D01*
X16525593Y-4425593D01*
X16565269Y-4377247D01*
X16577596Y-4354185D01*
X16682768Y-4424460D01*
X16831544Y-4486084D01*
X16989483Y-4517500D01*
X17150517Y-4517500D01*
X17308456Y-4486084D01*
X17457232Y-4424460D01*
X17591126Y-4334994D01*
X17704994Y-4221126D01*
X17794460Y-4087232D01*
X17856084Y-3938456D01*
X17887500Y-3780517D01*
X17887500Y-3619483D01*
X17856084Y-3461544D01*
X17794460Y-3312768D01*
X17704994Y-3178874D01*
X17591126Y-3065006D01*
X17591117Y-3065000D01*
X17591126Y-3064994D01*
X17704994Y-2951126D01*
X17794460Y-2817232D01*
X17856084Y-2668456D01*
X17887500Y-2510517D01*
X17887500Y-2349483D01*
X17856084Y-2191544D01*
X17794460Y-2042768D01*
X17704994Y-1908874D01*
X17591126Y-1795006D01*
X17591117Y-1795000D01*
X17591126Y-1794994D01*
X17704994Y-1681126D01*
X17794460Y-1547232D01*
X17856084Y-1398456D01*
X17887500Y-1240517D01*
X17887500Y-1079483D01*
X17856084Y-921544D01*
X17794460Y-772768D01*
X17704994Y-638874D01*
X17591126Y-525006D01*
X17591117Y-525000D01*
X17591126Y-524994D01*
X17704994Y-411126D01*
X17794460Y-277232D01*
X17856084Y-128456D01*
X17887500Y29483D01*
X17887500Y190517D01*
X17856084Y348456D01*
X17794460Y497232D01*
X17704994Y631126D01*
X17591126Y744994D01*
X17475586Y822196D01*
X17483402Y826921D01*
X17583359Y918199D01*
X17663588Y1027224D01*
X17721006Y1149806D01*
X17739175Y1209722D01*
X17709731Y1316500D01*
X17133500Y1316500D01*
X17133500Y1296500D01*
X17006500Y1296500D01*
X17006500Y1316500D01*
X16986500Y1316500D01*
X16986500Y1443500D01*
X17006500Y1443500D01*
X17006500Y2019954D01*
X17133500Y2019954D01*
X17133500Y1443500D01*
X17709731Y1443500D01*
X17739175Y1550278D01*
X17721006Y1610194D01*
X17663588Y1732776D01*
X17583359Y1841801D01*
X17483402Y1933079D01*
X17367558Y2003102D01*
X17240279Y2049180D01*
X17133500Y2019954D01*
X17006500Y2019954D01*
X16899721Y2049180D01*
X16772442Y2003102D01*
X16656598Y1933079D01*
X16556641Y1841801D01*
X16513661Y1783394D01*
X16434994Y1901126D01*
X16321126Y2014994D01*
X16187232Y2104460D01*
X16038456Y2166084D01*
X15880517Y2197500D01*
X15719483Y2197500D01*
X15561544Y2166084D01*
X15412768Y2104460D01*
X15278874Y2014994D01*
X15165006Y1901126D01*
X15075540Y1767232D01*
X15013916Y1618456D01*
X14982500Y1460517D01*
X14982500Y1299483D01*
X15013916Y1141544D01*
X15075540Y992768D01*
X15165006Y858874D01*
X15278874Y745006D01*
X15278883Y745000D01*
X15278874Y744994D01*
X15165006Y631126D01*
X15079862Y503700D01*
X13629325Y503700D01*
X13610000Y505603D01*
X13590675Y503700D01*
X13590667Y503700D01*
X13532821Y498003D01*
X13458609Y475490D01*
X13390214Y438933D01*
X13345282Y402058D01*
X13345279Y402055D01*
X13330266Y389734D01*
X13317944Y374720D01*
X13086925Y143700D01*
X12981148Y143700D01*
X13010589Y214777D01*
X13034992Y337458D01*
X13034992Y462542D01*
X13010589Y585223D01*
X12962721Y700785D01*
X12893228Y804789D01*
X12804781Y893236D01*
X12700777Y962729D01*
X12585215Y1010597D01*
X12462534Y1035000D01*
X12337450Y1035000D01*
X12214769Y1010597D01*
X12099207Y962729D01*
X11995203Y893236D01*
X11906756Y804789D01*
X11837263Y700785D01*
X11813617Y643700D01*
X6765953Y643700D01*
X6769036Y675000D01*
X6769036Y825000D01*
X6761465Y901873D01*
X6739042Y975791D01*
X6726102Y1000000D01*
X6739042Y1024209D01*
X6761465Y1098127D01*
X6769036Y1175000D01*
X6769036Y1325000D01*
X6761465Y1401873D01*
X6739042Y1475791D01*
X6726102Y1500000D01*
X6739042Y1524209D01*
X6761465Y1598127D01*
X6769036Y1675000D01*
X6769036Y1825000D01*
X6761465Y1901873D01*
X6739042Y1975791D01*
X6726102Y2000000D01*
X6739042Y2024209D01*
X6761465Y2098127D01*
X6769036Y2175000D01*
X6769036Y2325000D01*
X6761465Y2401873D01*
X6739042Y2475791D01*
X6726102Y2500000D01*
X6739042Y2524209D01*
X6761465Y2598127D01*
X6769036Y2675000D01*
X6769036Y2825000D01*
X6761465Y2901873D01*
X6739042Y2975791D01*
X6702629Y3043915D01*
X6653626Y3103626D01*
X6641092Y3113912D01*
X6640500Y3138875D01*
X6592875Y3186500D01*
X6530547Y3186500D01*
X6525791Y3189042D01*
X6451873Y3211465D01*
X6375000Y3219036D01*
X4975000Y3219036D01*
X4898127Y3211465D01*
X4824209Y3189042D01*
X4819453Y3186500D01*
X4757125Y3186500D01*
X4709500Y3138875D01*
X4708908Y3113912D01*
X4696374Y3103626D01*
X4647371Y3043915D01*
X4610958Y2975791D01*
X4588535Y2901873D01*
X4580964Y2825000D01*
X4580964Y2675000D01*
X4588535Y2598127D01*
X4610958Y2524209D01*
X4623898Y2500000D01*
X4610958Y2475791D01*
X4588535Y2401873D01*
X4580964Y2325000D01*
X4580964Y2175000D01*
X4588535Y2098127D01*
X4610958Y2024209D01*
X4623898Y2000000D01*
X4610958Y1975791D01*
X4588535Y1901873D01*
X4580964Y1825000D01*
X4580964Y1675000D01*
X4588535Y1598127D01*
X4610958Y1524209D01*
X4623898Y1500000D01*
X4610958Y1475791D01*
X4588535Y1401873D01*
X4580964Y1325000D01*
X4580964Y1175000D01*
X4584047Y1143700D01*
X4069322Y1143700D01*
X4049999Y1145603D01*
X4030677Y1143700D01*
X4030667Y1143700D01*
X3972821Y1138003D01*
X3898609Y1115490D01*
X3842231Y1085356D01*
X3830214Y1078933D01*
X3785282Y1042058D01*
X3785279Y1042055D01*
X3770266Y1029734D01*
X3757944Y1014720D01*
X3317500Y574275D01*
X3317500Y2760724D01*
X4014720Y3457944D01*
X4029734Y3470266D01*
X4051749Y3497090D01*
X4078933Y3530214D01*
X4115490Y3598609D01*
X4138003Y3672821D01*
X4139473Y3687744D01*
X4143700Y3730667D01*
X4143700Y3730675D01*
X4145603Y3750000D01*
X4143700Y3769325D01*
X4143700Y3825000D01*
X4580964Y3825000D01*
X4580964Y3675000D01*
X4588535Y3598127D01*
X4610958Y3524209D01*
X4647371Y3456085D01*
X4696374Y3396374D01*
X4708908Y3386088D01*
X4709500Y3361125D01*
X4757125Y3313500D01*
X4819453Y3313500D01*
X4824209Y3310958D01*
X4898127Y3288535D01*
X4975000Y3280964D01*
X6375000Y3280964D01*
X6451873Y3288535D01*
X6525791Y3310958D01*
X6530547Y3313500D01*
X6592875Y3313500D01*
X6640500Y3361125D01*
X6641092Y3386088D01*
X6653626Y3396374D01*
X6702629Y3456085D01*
X6739042Y3524209D01*
X6761465Y3598127D01*
X6769036Y3675000D01*
X6769036Y3825000D01*
X6761465Y3901873D01*
X6739042Y3975791D01*
X6702629Y4043915D01*
X6653626Y4103626D01*
X6593915Y4152629D01*
X6525791Y4189042D01*
X6451873Y4211465D01*
X6375000Y4219036D01*
X4975000Y4219036D01*
X4898127Y4211465D01*
X4824209Y4189042D01*
X4756085Y4152629D01*
X4696374Y4103626D01*
X4647371Y4043915D01*
X4610958Y3975791D01*
X4588535Y3901873D01*
X4580964Y3825000D01*
X4143700Y3825000D01*
X4143700Y4745205D01*
X4152629Y4756085D01*
X4189042Y4824209D01*
X4211465Y4898127D01*
X4219036Y4975000D01*
X4219036Y6375000D01*
X4211465Y6451873D01*
X4189042Y6525791D01*
X4152629Y6593915D01*
X4103626Y6653626D01*
X4043915Y6702629D01*
X3975791Y6739042D01*
X3901873Y6761465D01*
X3825000Y6769036D01*
X3675000Y6769036D01*
X3598127Y6761465D01*
X3524209Y6739042D01*
X3500000Y6726102D01*
X3475791Y6739042D01*
X3401873Y6761465D01*
X3325000Y6769036D01*
X3175000Y6769036D01*
X3098127Y6761465D01*
X3024209Y6739042D01*
X2956085Y6702629D01*
X2896374Y6653626D01*
X2886088Y6641092D01*
X2861125Y6640500D01*
X2813500Y6592875D01*
X2813500Y6530547D01*
X2810958Y6525791D01*
X2788535Y6451873D01*
X2780964Y6375000D01*
X2780964Y4975000D01*
X2788535Y4898127D01*
X2810958Y4824209D01*
X2813500Y4819453D01*
X2813500Y4757125D01*
X2856301Y4714324D01*
X2856301Y4613077D01*
X2136925Y3893700D01*
X69322Y3893700D01*
X49999Y3895603D01*
X30677Y3893700D01*
X30667Y3893700D01*
X-27179Y3888003D01*
X-101391Y3865490D01*
X-157172Y3835675D01*
X-169786Y3828933D01*
X-214718Y3792058D01*
X-214721Y3792055D01*
X-229734Y3779734D01*
X-242056Y3764720D01*
X-606300Y3400476D01*
X-606300Y3486925D01*
X514720Y4607944D01*
X520687Y4612841D01*
X524209Y4610958D01*
X598127Y4588535D01*
X675000Y4580964D01*
X825000Y4580964D01*
X901873Y4588535D01*
X975791Y4610958D01*
X1000000Y4623898D01*
X1024209Y4610958D01*
X1098127Y4588535D01*
X1175000Y4580964D01*
X1325000Y4580964D01*
X1401873Y4588535D01*
X1475791Y4610958D01*
X1500000Y4623898D01*
X1524209Y4610958D01*
X1598127Y4588535D01*
X1675000Y4580964D01*
X1825000Y4580964D01*
X1901873Y4588535D01*
X1975791Y4610958D01*
X2000000Y4623898D01*
X2024209Y4610958D01*
X2098127Y4588535D01*
X2175000Y4580964D01*
X2325000Y4580964D01*
X2401873Y4588535D01*
X2475791Y4610958D01*
X2543915Y4647371D01*
X2603626Y4696374D01*
X2613912Y4708908D01*
X2638875Y4709500D01*
X2686500Y4757125D01*
X2686500Y4819453D01*
X2689042Y4824209D01*
X2711465Y4898127D01*
X2719036Y4975000D01*
X2719036Y6375000D01*
X2711465Y6451873D01*
X2689042Y6525791D01*
X2686500Y6530547D01*
X2686500Y6592875D01*
X2638875Y6640500D01*
X2613912Y6641092D01*
X2603626Y6653626D01*
X2543915Y6702629D01*
X2475791Y6739042D01*
X2401873Y6761465D01*
X2325000Y6769036D01*
X2175000Y6769036D01*
X2098127Y6761465D01*
X2024209Y6739042D01*
X2000000Y6726102D01*
X1975791Y6739042D01*
X1901873Y6761465D01*
X1825000Y6769036D01*
X1675000Y6769036D01*
X1598127Y6761465D01*
X1524209Y6739042D01*
X1500000Y6726102D01*
X1475791Y6739042D01*
X1401873Y6761465D01*
X1325000Y6769036D01*
X1175000Y6769036D01*
X1098127Y6761465D01*
X1024209Y6739042D01*
X1000000Y6726102D01*
X975791Y6739042D01*
X901873Y6761465D01*
X825000Y6769036D01*
X675000Y6769036D01*
X598127Y6761465D01*
X524209Y6739042D01*
X500000Y6726102D01*
X475791Y6739042D01*
X401873Y6761465D01*
X325000Y6769036D01*
X175000Y6769036D01*
X98127Y6761465D01*
X24209Y6739042D01*
X0Y6726102D01*
X-24209Y6739042D01*
X-98127Y6761465D01*
X-175000Y6769036D01*
X-325000Y6769036D01*
X-401873Y6761465D01*
X-475791Y6739042D01*
X-500000Y6726102D01*
X-524209Y6739042D01*
X-598127Y6761465D01*
X-675000Y6769036D01*
X-825000Y6769036D01*
X-901873Y6761465D01*
X-975791Y6739042D01*
X-1000000Y6726102D01*
X-1024209Y6739042D01*
X-1098127Y6761465D01*
X-1175000Y6769036D01*
X-1325000Y6769036D01*
X-1401873Y6761465D01*
X-1475791Y6739042D01*
X-1500000Y6726102D01*
X-1524209Y6739042D01*
X-1598127Y6761465D01*
X-1675000Y6769036D01*
X-1825000Y6769036D01*
X-1901873Y6761465D01*
X-1975791Y6739042D01*
X-2000000Y6726102D01*
X-2024209Y6739042D01*
X-2098127Y6761465D01*
X-2175000Y6769036D01*
X-2325000Y6769036D01*
X-2401873Y6761465D01*
X-2475791Y6739042D01*
X-2500000Y6726102D01*
X-2524209Y6739042D01*
X-2598127Y6761465D01*
X-2675000Y6769036D01*
X-2825000Y6769036D01*
X-2901873Y6761465D01*
X-2975791Y6739042D01*
X-3000000Y6726102D01*
X-3024209Y6739042D01*
X-3098127Y6761465D01*
X-3175000Y6769036D01*
X-3325000Y6769036D01*
X-3401873Y6761465D01*
X-3475791Y6739042D01*
X-3500000Y6726102D01*
X-3524209Y6739042D01*
X-3598127Y6761465D01*
X-3675000Y6769036D01*
X-3825000Y6769036D01*
X-3901873Y6761465D01*
X-3975791Y6739042D01*
X-4043915Y6702629D01*
X-4103626Y6653626D01*
X-4152629Y6593915D01*
X-4189042Y6525791D01*
X-4211465Y6451873D01*
X-4219036Y6375000D01*
X-4219036Y4975000D01*
X-4211465Y4898127D01*
X-4189774Y4826622D01*
X-4765204Y5402052D01*
X-4783107Y5423867D01*
X-4870129Y5495284D01*
X-4969412Y5548352D01*
X-5077140Y5581031D01*
X-5161100Y5589300D01*
X-5189174Y5592065D01*
X-5217248Y5589300D01*
X-7313083Y5589300D01*
X-7335953Y5608069D01*
X-7391110Y5637551D01*
X-7450959Y5655706D01*
X-7513200Y5661836D01*
X-7544500Y5661836D01*
X-7544500Y5968196D01*
X-7505006Y5980176D01*
X-7410950Y6030451D01*
X-7328508Y6098108D01*
X-7260851Y6180550D01*
X-7210576Y6274606D01*
X-7179617Y6376664D01*
X-7169164Y6482800D01*
X-7169164Y6982800D01*
X-7179617Y7088936D01*
X-7210576Y7190994D01*
X-7260851Y7285050D01*
X-7328508Y7367492D01*
X-7410950Y7435149D01*
X-7505006Y7485424D01*
X-7607064Y7516383D01*
X-7713200Y7526836D01*
X-8163200Y7526836D01*
X-8269336Y7516383D01*
X-8371394Y7485424D01*
X-8465450Y7435149D01*
X-8547892Y7367492D01*
X-8615549Y7285050D01*
X-8665824Y7190994D01*
X-8696783Y7088936D01*
X-8707236Y6982800D01*
X-8707236Y6482800D01*
X-8696783Y6376664D01*
X-8665824Y6274606D01*
X-8615549Y6180550D01*
X-8547892Y6098108D01*
X-8465450Y6030451D01*
X-8371394Y5980176D01*
X-8331899Y5968195D01*
X-8331900Y5661836D01*
X-8363200Y5661836D01*
X-8425441Y5655706D01*
X-8485290Y5637551D01*
X-8540447Y5608069D01*
X-8563317Y5589300D01*
X-8863083Y5589300D01*
X-8885953Y5608069D01*
X-8941110Y5637551D01*
X-9000959Y5655706D01*
X-9063200Y5661836D01*
X-9913200Y5661836D01*
X-9975441Y5655706D01*
X-10035290Y5637551D01*
X-10090447Y5608069D01*
X-10138793Y5568393D01*
X-10177277Y5521500D01*
X-10769883Y5521500D01*
X-10792753Y5540269D01*
X-10847910Y5569751D01*
X-10907759Y5587906D01*
X-10970000Y5594036D01*
X-11031300Y5594036D01*
X-11031300Y6035396D01*
X-10991806Y6047376D01*
X-10897750Y6097651D01*
X-10815308Y6165308D01*
X-10747651Y6247750D01*
X-10742280Y6257800D01*
X-10129622Y6257800D01*
X-10125944Y6220455D01*
X-10115051Y6184546D01*
X-10097362Y6151452D01*
X-10073556Y6122444D01*
X-10044548Y6098638D01*
X-10011454Y6080949D01*
X-9975545Y6070056D01*
X-9938200Y6066378D01*
X-9599325Y6067300D01*
X-9551700Y6114925D01*
X-9551700Y6669300D01*
X-9424700Y6669300D01*
X-9424700Y6114925D01*
X-9377075Y6067300D01*
X-9038200Y6066378D01*
X-9000855Y6070056D01*
X-8964946Y6080949D01*
X-8931852Y6098638D01*
X-8902844Y6122444D01*
X-8879038Y6151452D01*
X-8861349Y6184546D01*
X-8850456Y6220455D01*
X-8846778Y6257800D01*
X-8847700Y6621675D01*
X-8895325Y6669300D01*
X-9424700Y6669300D01*
X-9551700Y6669300D01*
X-10081075Y6669300D01*
X-10128700Y6621675D01*
X-10129622Y6257800D01*
X-10742280Y6257800D01*
X-10697376Y6341806D01*
X-10666417Y6443864D01*
X-10655964Y6550000D01*
X-10655964Y7050000D01*
X-10666417Y7156136D01*
X-10682089Y7207800D01*
X-10129622Y7207800D01*
X-10128700Y6843925D01*
X-10081075Y6796300D01*
X-9551700Y6796300D01*
X-9551700Y7350675D01*
X-9424700Y7350675D01*
X-9424700Y6796300D01*
X-8895325Y6796300D01*
X-8847700Y6843925D01*
X-8846778Y7207800D01*
X-8850456Y7245145D01*
X-8861349Y7281054D01*
X-8879038Y7314148D01*
X-8902844Y7343156D01*
X-8931852Y7366962D01*
X-8964946Y7384651D01*
X-9000855Y7395544D01*
X-9038200Y7399222D01*
X-9377075Y7398300D01*
X-9424700Y7350675D01*
X-9551700Y7350675D01*
X-9599325Y7398300D01*
X-9938200Y7399222D01*
X-9975545Y7395544D01*
X-10011454Y7384651D01*
X-10044548Y7366962D01*
X-10073556Y7343156D01*
X-10097362Y7314148D01*
X-10115051Y7281054D01*
X-10125944Y7245145D01*
X-10129622Y7207800D01*
X-10682089Y7207800D01*
X-10697376Y7258194D01*
X-10747651Y7352250D01*
X-10815308Y7434692D01*
X-10897750Y7502349D01*
X-10991806Y7552624D01*
X-11093864Y7583583D01*
X-11200000Y7594036D01*
X-11650000Y7594036D01*
X-11756136Y7583583D01*
X-11858194Y7552624D01*
X-11952250Y7502349D01*
X-12034692Y7434692D01*
X-12102349Y7352250D01*
X-12152624Y7258194D01*
X-12183583Y7156136D01*
X-12194036Y7050000D01*
X-12194036Y6550000D01*
X-12183583Y6443864D01*
X-12152624Y6341806D01*
X-12102349Y6247750D01*
X-12034692Y6165308D01*
X-11952250Y6097651D01*
X-11858194Y6047376D01*
X-11818700Y6035395D01*
X-11818699Y5594036D01*
X-12030000Y5594036D01*
X-12092241Y5587906D01*
X-12152090Y5569751D01*
X-12207247Y5540269D01*
X-12255593Y5500593D01*
X-12295269Y5452247D01*
X-12324751Y5397090D01*
X-12342906Y5337241D01*
X-12349036Y5275000D01*
X-12349036Y5108829D01*
X-12363231Y5062034D01*
X-12374265Y4950000D01*
X-12363231Y4837966D01*
X-12349036Y4791171D01*
X-12349036Y4625000D01*
X-12342906Y4562759D01*
X-12324751Y4502910D01*
X-12295269Y4447753D01*
X-12255593Y4399407D01*
X-12207247Y4359731D01*
X-12152090Y4330249D01*
X-12092241Y4312094D01*
X-12030000Y4305964D01*
X-10970000Y4305964D01*
X-10907759Y4312094D01*
X-10847910Y4330249D01*
X-10792753Y4359731D01*
X-10769883Y4378500D01*
X-9961287Y4378500D01*
X-9913200Y4373764D01*
X-9063200Y4373764D01*
X-9000959Y4379894D01*
X-8941110Y4398049D01*
X-8885953Y4427531D01*
X-8863083Y4446300D01*
X-8563317Y4446300D01*
X-8540447Y4427531D01*
X-8485290Y4398049D01*
X-8425441Y4379894D01*
X-8363200Y4373764D01*
X-7513200Y4373764D01*
X-7450959Y4379894D01*
X-7391110Y4398049D01*
X-7335953Y4427531D01*
X-7313083Y4446300D01*
X-5425896Y4446300D01*
X-5070781Y4091185D01*
X-5563875Y4090500D01*
X-5611500Y4042875D01*
X-5611500Y3813500D01*
X-5591500Y3813500D01*
X-5591500Y3719036D01*
X-6375000Y3719036D01*
X-6451873Y3711465D01*
X-6525791Y3689042D01*
X-6530547Y3686500D01*
X-6592875Y3686500D01*
X-6635675Y3643700D01*
X-7194164Y3643700D01*
X-7194164Y3692800D01*
X-7200294Y3755041D01*
X-7218449Y3814890D01*
X-7247931Y3870047D01*
X-7272512Y3900000D01*
X-6641422Y3900000D01*
X-6640500Y3861125D01*
X-6592875Y3813500D01*
X-5738500Y3813500D01*
X-5738500Y4042875D01*
X-5786125Y4090500D01*
X-6450000Y4091422D01*
X-6487345Y4087744D01*
X-6523254Y4076851D01*
X-6556348Y4059162D01*
X-6585356Y4035356D01*
X-6609162Y4006348D01*
X-6626851Y3973254D01*
X-6637744Y3937345D01*
X-6641422Y3900000D01*
X-7272512Y3900000D01*
X-7287607Y3918393D01*
X-7335953Y3958069D01*
X-7391110Y3987551D01*
X-7450959Y4005706D01*
X-7513200Y4011836D01*
X-8363200Y4011836D01*
X-8425441Y4005706D01*
X-8485290Y3987551D01*
X-8540447Y3958069D01*
X-8588793Y3918393D01*
X-8628469Y3870047D01*
X-8657951Y3814890D01*
X-8676106Y3755041D01*
X-8682236Y3692800D01*
X-8682236Y3042800D01*
X-8676106Y2980559D01*
X-8657951Y2920710D01*
X-8628469Y2865553D01*
X-8588793Y2817207D01*
X-8540447Y2777531D01*
X-8485290Y2748049D01*
X-8425441Y2729894D01*
X-8363200Y2723764D01*
X-7513200Y2723764D01*
X-7450959Y2729894D01*
X-7391110Y2748049D01*
X-7335953Y2777531D01*
X-7287607Y2817207D01*
X-7255525Y2856300D01*
X-6765953Y2856300D01*
X-6769036Y2825000D01*
X-6769036Y2675000D01*
X-6761465Y2598127D01*
X-6739042Y2524209D01*
X-6726102Y2500000D01*
X-6739042Y2475791D01*
X-6761465Y2401873D01*
X-6769036Y2325000D01*
X-6769036Y2175000D01*
X-6761465Y2098127D01*
X-6739042Y2024209D01*
X-6702629Y1956085D01*
X-6653626Y1896374D01*
X-6641092Y1886088D01*
X-6640500Y1861125D01*
X-6592875Y1813500D01*
X-6530547Y1813500D01*
X-6525791Y1810958D01*
X-6451873Y1788535D01*
X-6375000Y1780964D01*
X-4975000Y1780964D01*
X-4898127Y1788535D01*
X-4824209Y1810958D01*
X-4819453Y1813500D01*
X-4757125Y1813500D01*
X-4714325Y1856300D01*
X-3317500Y1856300D01*
X-3317500Y143700D01*
X-4584047Y143700D01*
X-4580964Y175000D01*
X-4580964Y325000D01*
X-4588535Y401873D01*
X-4610958Y475791D01*
X-4623898Y500000D01*
X-4610958Y524209D01*
X-4588535Y598127D01*
X-4580964Y675000D01*
X-4580964Y825000D01*
X-4588535Y901873D01*
X-4610958Y975791D01*
X-4623898Y1000000D01*
X-4610958Y1024209D01*
X-4588535Y1098127D01*
X-4580964Y1175000D01*
X-4580964Y1325000D01*
X-4588535Y1401873D01*
X-4610958Y1475791D01*
X-4647371Y1543915D01*
X-4696374Y1603626D01*
X-4708908Y1613912D01*
X-4709500Y1638875D01*
X-4757125Y1686500D01*
X-4819453Y1686500D01*
X-4824209Y1689042D01*
X-4898127Y1711465D01*
X-4975000Y1719036D01*
X-6375000Y1719036D01*
X-6451873Y1711465D01*
X-6525791Y1689042D01*
X-6530547Y1686500D01*
X-6592875Y1686500D01*
X-6635675Y1643700D01*
X-7169164Y1643700D01*
X-7169164Y2029400D01*
X-7179137Y2130659D01*
X-7208673Y2228026D01*
X-7256637Y2317761D01*
X-7321186Y2396414D01*
X-7399839Y2460963D01*
X-7489574Y2508927D01*
X-7586941Y2538463D01*
X-7688200Y2548436D01*
X-8088200Y2548436D01*
X-8189459Y2538463D01*
X-8286826Y2508927D01*
X-8376561Y2460963D01*
X-8455214Y2396414D01*
X-8519763Y2317761D01*
X-8567727Y2228026D01*
X-8597263Y2130659D01*
X-8607236Y2029400D01*
X-8607236Y1479400D01*
X-8597263Y1378141D01*
X-8567727Y1280774D01*
X-8519763Y1191039D01*
X-8455214Y1112386D01*
X-8376561Y1047837D01*
X-8373311Y1046100D01*
X-9543803Y1046100D01*
X-9563128Y1048003D01*
X-9582453Y1046100D01*
X-9582461Y1046100D01*
X-9640307Y1040403D01*
X-9714519Y1017890D01*
X-9782914Y981333D01*
X-9827846Y944458D01*
X-9827849Y944455D01*
X-9842862Y932134D01*
X-9855184Y917120D01*
X-11101203Y-328900D01*
X-14071755Y-328900D01*
X-14043933Y-306067D01*
X-14026030Y-284252D01*
X-13735814Y5964D01*
X-13525000Y5964D01*
X-13418864Y16417D01*
X-13316806Y47376D01*
X-13222750Y97651D01*
X-13140308Y165308D01*
X-13072651Y247750D01*
X-13031360Y325000D01*
X-12841422Y325000D01*
X-12837744Y287655D01*
X-12826851Y251746D01*
X-12809162Y218652D01*
X-12785356Y189644D01*
X-12756348Y165838D01*
X-12723254Y148149D01*
X-12687345Y137256D01*
X-12650000Y133578D01*
X-12311125Y134500D01*
X-12263500Y182125D01*
X-12263500Y736500D01*
X-12136500Y736500D01*
X-12136500Y182125D01*
X-12088875Y134500D01*
X-11750000Y133578D01*
X-11712655Y137256D01*
X-11676746Y148149D01*
X-11643652Y165838D01*
X-11614644Y189644D01*
X-11590838Y218652D01*
X-11573149Y251746D01*
X-11562256Y287655D01*
X-11558578Y325000D01*
X-11559500Y688875D01*
X-11607125Y736500D01*
X-12136500Y736500D01*
X-12263500Y736500D01*
X-12792875Y736500D01*
X-12840500Y688875D01*
X-12841422Y325000D01*
X-13031360Y325000D01*
X-13022376Y341806D01*
X-12991417Y443864D01*
X-12980964Y550000D01*
X-12980964Y1050000D01*
X-12991417Y1156136D01*
X-13022376Y1258194D01*
X-13031359Y1275000D01*
X-12841422Y1275000D01*
X-12840500Y911125D01*
X-12792875Y863500D01*
X-12263500Y863500D01*
X-12263500Y1417875D01*
X-12136500Y1417875D01*
X-12136500Y863500D01*
X-11607125Y863500D01*
X-11559500Y911125D01*
X-11558578Y1275000D01*
X-11559011Y1279400D01*
X-10129622Y1279400D01*
X-10125944Y1242055D01*
X-10115051Y1206146D01*
X-10097362Y1173052D01*
X-10073556Y1144044D01*
X-10044548Y1120238D01*
X-10011454Y1102549D01*
X-9975545Y1091656D01*
X-9938200Y1087978D01*
X-9649325Y1088900D01*
X-9601700Y1136525D01*
X-9601700Y1690900D01*
X-9474700Y1690900D01*
X-9474700Y1136525D01*
X-9427075Y1088900D01*
X-9138200Y1087978D01*
X-9100855Y1091656D01*
X-9064946Y1102549D01*
X-9031852Y1120238D01*
X-9002844Y1144044D01*
X-8979038Y1173052D01*
X-8961349Y1206146D01*
X-8950456Y1242055D01*
X-8946778Y1279400D01*
X-8947700Y1643275D01*
X-8995325Y1690900D01*
X-9474700Y1690900D01*
X-9601700Y1690900D01*
X-10081075Y1690900D01*
X-10128700Y1643275D01*
X-10129622Y1279400D01*
X-11559011Y1279400D01*
X-11562256Y1312345D01*
X-11573149Y1348254D01*
X-11590838Y1381348D01*
X-11614644Y1410356D01*
X-11643652Y1434162D01*
X-11676746Y1451851D01*
X-11712655Y1462744D01*
X-11750000Y1466422D01*
X-12088875Y1465500D01*
X-12136500Y1417875D01*
X-12263500Y1417875D01*
X-12311125Y1465500D01*
X-12650000Y1466422D01*
X-12687345Y1462744D01*
X-12723254Y1451851D01*
X-12756348Y1434162D01*
X-12785356Y1410356D01*
X-12809162Y1381348D01*
X-12826851Y1348254D01*
X-12837744Y1312345D01*
X-12841422Y1275000D01*
X-13031359Y1275000D01*
X-13072651Y1352250D01*
X-13140308Y1434692D01*
X-13178500Y1466035D01*
X-13178500Y1670390D01*
X-13139403Y1764777D01*
X-13115000Y1887458D01*
X-13115000Y2012542D01*
X-13139403Y2135223D01*
X-13178413Y2229400D01*
X-10129622Y2229400D01*
X-10128700Y1865525D01*
X-10081075Y1817900D01*
X-9601700Y1817900D01*
X-9601700Y2372275D01*
X-9474700Y2372275D01*
X-9474700Y1817900D01*
X-8995325Y1817900D01*
X-8947700Y1865525D01*
X-8946778Y2229400D01*
X-8950456Y2266745D01*
X-8961349Y2302654D01*
X-8979038Y2335748D01*
X-9002844Y2364756D01*
X-9031852Y2388562D01*
X-9064946Y2406251D01*
X-9100855Y2417144D01*
X-9138200Y2420822D01*
X-9427075Y2419900D01*
X-9474700Y2372275D01*
X-9601700Y2372275D01*
X-9649325Y2419900D01*
X-9938200Y2420822D01*
X-9975545Y2417144D01*
X-10011454Y2406251D01*
X-10044548Y2388562D01*
X-10073556Y2364756D01*
X-10097362Y2335748D01*
X-10115051Y2302654D01*
X-10125944Y2266745D01*
X-10129622Y2229400D01*
X-13178413Y2229400D01*
X-13178500Y2229610D01*
X-13178500Y2405964D01*
X-13170000Y2405964D01*
X-13107759Y2412094D01*
X-13047910Y2430249D01*
X-12992753Y2459731D01*
X-12944407Y2499407D01*
X-12904731Y2547753D01*
X-12875249Y2602910D01*
X-12857094Y2662759D01*
X-12850964Y2725000D01*
X-12850964Y3375000D01*
X-12349036Y3375000D01*
X-12349036Y2725000D01*
X-12342906Y2662759D01*
X-12324751Y2602910D01*
X-12295269Y2547753D01*
X-12255593Y2499407D01*
X-12207247Y2459731D01*
X-12152090Y2430249D01*
X-12092241Y2412094D01*
X-12030000Y2405964D01*
X-10970000Y2405964D01*
X-10907759Y2412094D01*
X-10847910Y2430249D01*
X-10792753Y2459731D01*
X-10744407Y2499407D01*
X-10704731Y2547753D01*
X-10675249Y2602910D01*
X-10657094Y2662759D01*
X-10650964Y2725000D01*
X-10650964Y3042800D01*
X-10104622Y3042800D01*
X-10100944Y3005455D01*
X-10090051Y2969546D01*
X-10072362Y2936452D01*
X-10048556Y2907444D01*
X-10019548Y2883638D01*
X-9986454Y2865949D01*
X-9950545Y2855056D01*
X-9913200Y2851378D01*
X-9599325Y2852300D01*
X-9551700Y2899925D01*
X-9551700Y3304300D01*
X-9424700Y3304300D01*
X-9424700Y2899925D01*
X-9377075Y2852300D01*
X-9063200Y2851378D01*
X-9025855Y2855056D01*
X-8989946Y2865949D01*
X-8956852Y2883638D01*
X-8927844Y2907444D01*
X-8904038Y2936452D01*
X-8886349Y2969546D01*
X-8875456Y3005455D01*
X-8871778Y3042800D01*
X-8872700Y3256675D01*
X-8920325Y3304300D01*
X-9424700Y3304300D01*
X-9551700Y3304300D01*
X-10056075Y3304300D01*
X-10103700Y3256675D01*
X-10104622Y3042800D01*
X-10650964Y3042800D01*
X-10650964Y3375000D01*
X-10657094Y3437241D01*
X-10675249Y3497090D01*
X-10704731Y3552247D01*
X-10744407Y3600593D01*
X-10792753Y3640269D01*
X-10847910Y3669751D01*
X-10907759Y3687906D01*
X-10957450Y3692800D01*
X-10104622Y3692800D01*
X-10103700Y3478925D01*
X-10056075Y3431300D01*
X-9551700Y3431300D01*
X-9551700Y3835675D01*
X-9424700Y3835675D01*
X-9424700Y3431300D01*
X-8920325Y3431300D01*
X-8872700Y3478925D01*
X-8871778Y3692800D01*
X-8875456Y3730145D01*
X-8886349Y3766054D01*
X-8904038Y3799148D01*
X-8927844Y3828156D01*
X-8956852Y3851962D01*
X-8989946Y3869651D01*
X-9025855Y3880544D01*
X-9063200Y3884222D01*
X-9377075Y3883300D01*
X-9424700Y3835675D01*
X-9551700Y3835675D01*
X-9599325Y3883300D01*
X-9913200Y3884222D01*
X-9950545Y3880544D01*
X-9986454Y3869651D01*
X-10019548Y3851962D01*
X-10048556Y3828156D01*
X-10072362Y3799148D01*
X-10090051Y3766054D01*
X-10100944Y3730145D01*
X-10104622Y3692800D01*
X-10957450Y3692800D01*
X-10970000Y3694036D01*
X-12030000Y3694036D01*
X-12092241Y3687906D01*
X-12152090Y3669751D01*
X-12207247Y3640269D01*
X-12255593Y3600593D01*
X-12295269Y3552247D01*
X-12324751Y3497090D01*
X-12342906Y3437241D01*
X-12349036Y3375000D01*
X-12850964Y3375000D01*
X-12857094Y3437241D01*
X-12875249Y3497090D01*
X-12904731Y3552247D01*
X-12944407Y3600593D01*
X-12983713Y3632851D01*
X-12982256Y3637655D01*
X-12978578Y3675000D01*
X-12979500Y3888875D01*
X-13027125Y3936500D01*
X-13636500Y3936500D01*
X-13636500Y3916500D01*
X-13763500Y3916500D01*
X-13763500Y3936500D01*
X-14372875Y3936500D01*
X-14420500Y3888875D01*
X-14421422Y3675000D01*
X-14417744Y3637655D01*
X-14416287Y3632851D01*
X-14455593Y3600593D01*
X-14495269Y3552247D01*
X-14524751Y3497090D01*
X-14542906Y3437241D01*
X-14549036Y3375000D01*
X-14549036Y2725000D01*
X-14542906Y2662759D01*
X-14524751Y2602910D01*
X-14495269Y2547753D01*
X-14455593Y2499407D01*
X-14407247Y2459731D01*
X-14352090Y2430249D01*
X-14321500Y2420969D01*
X-14321500Y2229611D01*
X-14360597Y2135223D01*
X-14385000Y2012542D01*
X-14385000Y1887458D01*
X-14360597Y1764777D01*
X-14321499Y1670388D01*
X-14321499Y1466035D01*
X-14359692Y1434692D01*
X-14427349Y1352250D01*
X-14477624Y1258194D01*
X-14508583Y1156136D01*
X-14519036Y1050000D01*
X-14519036Y839186D01*
X-14686722Y671500D01*
X-15069682Y671500D01*
X-15064246Y673149D01*
X-15031152Y690838D01*
X-15002144Y714644D01*
X-14978338Y743652D01*
X-14960649Y776746D01*
X-14949756Y812655D01*
X-14946078Y850000D01*
X-14947000Y1788875D01*
X-14994625Y1836500D01*
X-15874000Y1836500D01*
X-15874000Y707125D01*
X-15838375Y671500D01*
X-15840574Y671500D01*
X-15924534Y663231D01*
X-16032262Y630552D01*
X-16053807Y619036D01*
X-16487500Y619036D01*
X-16549741Y612906D01*
X-16609590Y594751D01*
X-16664747Y565269D01*
X-16713093Y525593D01*
X-16752769Y477247D01*
X-16782251Y422090D01*
X-16800406Y362241D01*
X-16806536Y300000D01*
X-17346793Y300000D01*
X-17346188Y850000D01*
X-16928922Y850000D01*
X-16925244Y812655D01*
X-16914351Y776746D01*
X-16896662Y743652D01*
X-16872856Y714644D01*
X-16843848Y690838D01*
X-16810754Y673149D01*
X-16774845Y662256D01*
X-16737500Y658578D01*
X-16048625Y659500D01*
X-16001000Y707125D01*
X-16001000Y1836500D01*
X-16880375Y1836500D01*
X-16928000Y1788875D01*
X-16928922Y850000D01*
X-17346188Y850000D01*
X-17346078Y950000D01*
X-17349756Y987345D01*
X-17360649Y1023254D01*
X-17378338Y1056348D01*
X-17402144Y1085356D01*
X-17431152Y1109162D01*
X-17464246Y1126851D01*
X-17500155Y1137744D01*
X-17537500Y1141422D01*
X-18376375Y1140500D01*
X-18424000Y1092875D01*
X-18551000Y1092875D01*
X-18598625Y1140500D01*
X-19437500Y1141422D01*
X-19474845Y1137744D01*
X-19510754Y1126851D01*
X-19543848Y1109162D01*
X-19572856Y1085356D01*
X-19596662Y1056348D01*
X-19614351Y1023254D01*
X-19625244Y987345D01*
X-19628922Y950000D01*
X-19632500Y950000D01*
X-19632500Y1700000D01*
X-19628922Y1700000D01*
X-19625244Y1662655D01*
X-19614351Y1626746D01*
X-19596662Y1593652D01*
X-19572856Y1564644D01*
X-19543848Y1540838D01*
X-19510754Y1523149D01*
X-19474845Y1512256D01*
X-19437500Y1508578D01*
X-18598625Y1509500D01*
X-18551000Y1557125D01*
X-18551000Y2536500D01*
X-18424000Y2536500D01*
X-18424000Y1557125D01*
X-18376375Y1509500D01*
X-17537500Y1508578D01*
X-17500155Y1512256D01*
X-17464246Y1523149D01*
X-17431152Y1540838D01*
X-17402144Y1564644D01*
X-17378338Y1593652D01*
X-17360649Y1626746D01*
X-17349756Y1662655D01*
X-17346078Y1700000D01*
X-17347000Y2488875D01*
X-17394625Y2536500D01*
X-18424000Y2536500D01*
X-18551000Y2536500D01*
X-19580375Y2536500D01*
X-19628000Y2488875D01*
X-19628922Y1700000D01*
X-19632500Y1700000D01*
X-19632500Y3500000D01*
X-19628922Y3500000D01*
X-19628000Y2711125D01*
X-19580375Y2663500D01*
X-18551000Y2663500D01*
X-18551000Y3642875D01*
X-18424000Y3642875D01*
X-18424000Y2663500D01*
X-17394625Y2663500D01*
X-17347000Y2711125D01*
X-17346721Y2950000D01*
X-16928922Y2950000D01*
X-16928000Y2011125D01*
X-16880375Y1963500D01*
X-16001000Y1963500D01*
X-16001000Y3092875D01*
X-15874000Y3092875D01*
X-15874000Y1963500D01*
X-14994625Y1963500D01*
X-14947000Y2011125D01*
X-14946078Y2950000D01*
X-14949756Y2987345D01*
X-14960649Y3023254D01*
X-14978338Y3056348D01*
X-15002144Y3085356D01*
X-15031152Y3109162D01*
X-15064246Y3126851D01*
X-15100155Y3137744D01*
X-15137500Y3141422D01*
X-15826375Y3140500D01*
X-15874000Y3092875D01*
X-16001000Y3092875D01*
X-16048625Y3140500D01*
X-16737500Y3141422D01*
X-16774845Y3137744D01*
X-16810754Y3126851D01*
X-16843848Y3109162D01*
X-16872856Y3085356D01*
X-16896662Y3056348D01*
X-16914351Y3023254D01*
X-16925244Y2987345D01*
X-16928922Y2950000D01*
X-17346721Y2950000D01*
X-17346078Y3500000D01*
X-17349756Y3537345D01*
X-17360649Y3573254D01*
X-17378338Y3606348D01*
X-17402144Y3635356D01*
X-17431152Y3659162D01*
X-17464246Y3676851D01*
X-17500155Y3687744D01*
X-17537500Y3691422D01*
X-18376375Y3690500D01*
X-18424000Y3642875D01*
X-18551000Y3642875D01*
X-18598625Y3690500D01*
X-19437500Y3691422D01*
X-19474845Y3687744D01*
X-19510754Y3676851D01*
X-19543848Y3659162D01*
X-19572856Y3635356D01*
X-19596662Y3606348D01*
X-19614351Y3573254D01*
X-19625244Y3537345D01*
X-19628922Y3500000D01*
X-19632500Y3500000D01*
X-19632500Y5662542D01*
X-15635000Y5662542D01*
X-15635000Y5537458D01*
X-15610597Y5414777D01*
X-15562729Y5299215D01*
X-15493236Y5195211D01*
X-15404789Y5106764D01*
X-15300785Y5037271D01*
X-15185223Y4989403D01*
X-15062542Y4965000D01*
X-14937458Y4965000D01*
X-14924377Y4967602D01*
X-14642056Y4685280D01*
X-14629734Y4670266D01*
X-14614721Y4657945D01*
X-14614718Y4657942D01*
X-14581352Y4630559D01*
X-14569786Y4621067D01*
X-14547474Y4609141D01*
X-14542906Y4562759D01*
X-14524751Y4502910D01*
X-14495269Y4447753D01*
X-14455593Y4399407D01*
X-14416287Y4367149D01*
X-14417744Y4362345D01*
X-14421422Y4325000D01*
X-14420500Y4111125D01*
X-14372875Y4063500D01*
X-13763500Y4063500D01*
X-13763500Y4083500D01*
X-13636500Y4083500D01*
X-13636500Y4063500D01*
X-13027125Y4063500D01*
X-12979500Y4111125D01*
X-12978578Y4325000D01*
X-12982256Y4362345D01*
X-12983713Y4367149D01*
X-12944407Y4399407D01*
X-12904731Y4447753D01*
X-12875249Y4502910D01*
X-12857094Y4562759D01*
X-12850964Y4625000D01*
X-12850964Y5275000D01*
X-12857094Y5337241D01*
X-12875249Y5397090D01*
X-12904731Y5452247D01*
X-12944407Y5500593D01*
X-12992753Y5540269D01*
X-13047910Y5569751D01*
X-13107759Y5587906D01*
X-13170000Y5594036D01*
X-14230000Y5594036D01*
X-14292241Y5587906D01*
X-14352090Y5569751D01*
X-14365000Y5562850D01*
X-14365000Y5662542D01*
X-14389403Y5785223D01*
X-14437271Y5900785D01*
X-14506764Y6004789D01*
X-14595211Y6093236D01*
X-14699215Y6162729D01*
X-14814777Y6210597D01*
X-14937458Y6235000D01*
X-15062542Y6235000D01*
X-15185223Y6210597D01*
X-15300785Y6162729D01*
X-15404789Y6093236D01*
X-15493236Y6004789D01*
X-15562729Y5900785D01*
X-15610597Y5785223D01*
X-15635000Y5662542D01*
X-19632500Y5662542D01*
X-19632500Y6325000D01*
X-13616422Y6325000D01*
X-13612744Y6287655D01*
X-13601851Y6251746D01*
X-13584162Y6218652D01*
X-13560356Y6189644D01*
X-13531348Y6165838D01*
X-13498254Y6148149D01*
X-13462345Y6137256D01*
X-13425000Y6133578D01*
X-13086125Y6134500D01*
X-13038500Y6182125D01*
X-13038500Y6736500D01*
X-12911500Y6736500D01*
X-12911500Y6182125D01*
X-12863875Y6134500D01*
X-12525000Y6133578D01*
X-12487655Y6137256D01*
X-12451746Y6148149D01*
X-12418652Y6165838D01*
X-12389644Y6189644D01*
X-12365838Y6218652D01*
X-12348149Y6251746D01*
X-12337256Y6287655D01*
X-12333578Y6325000D01*
X-12334500Y6688875D01*
X-12382125Y6736500D01*
X-12911500Y6736500D01*
X-13038500Y6736500D01*
X-13567875Y6736500D01*
X-13615500Y6688875D01*
X-13616422Y6325000D01*
X-19632500Y6325000D01*
X-19632500Y7275000D01*
X-13616422Y7275000D01*
X-13615500Y6911125D01*
X-13567875Y6863500D01*
X-13038500Y6863500D01*
X-13038500Y7417875D01*
X-12911500Y7417875D01*
X-12911500Y6863500D01*
X-12382125Y6863500D01*
X-12334500Y6911125D01*
X-12333578Y7275000D01*
X-12337256Y7312345D01*
X-12348149Y7348254D01*
X-12365838Y7381348D01*
X-12389644Y7410356D01*
X-12418652Y7434162D01*
X-12451746Y7451851D01*
X-12487655Y7462744D01*
X-12525000Y7466422D01*
X-12863875Y7465500D01*
X-12911500Y7417875D01*
X-13038500Y7417875D01*
X-13086125Y7465500D01*
X-13425000Y7466422D01*
X-13462345Y7462744D01*
X-13498254Y7451851D01*
X-13531348Y7434162D01*
X-13560356Y7410356D01*
X-13584162Y7381348D01*
X-13601851Y7348254D01*
X-13612744Y7312345D01*
X-13616422Y7275000D01*
X-19632500Y7275000D01*
X-19632500Y9632500D01*
X19632501Y9632500D01*
X19632500Y-9632500D01*
G37*
G04 #@! TD.AperFunction*
D24*
X2936500Y1063500D02*
X63500Y1063500D01*
X63500Y2936500D01*
X2936500Y2936500D01*
X2936500Y1063500D01*
G04 #@! TA.AperFunction,Conductor*
D23*
G36*
X2936500Y1063500D02*
G01*
X63500Y1063500D01*
X63500Y2936500D01*
X2936500Y2936500D01*
X2936500Y1063500D01*
G37*
G04 #@! TD.AperFunction*
D24*
X2936500Y-2936500D02*
X63500Y-2936500D01*
X63500Y-1063500D01*
X2936500Y-1063500D01*
X2936500Y-2936500D01*
G04 #@! TA.AperFunction,Conductor*
D23*
G36*
X2936500Y-2936500D02*
G01*
X63500Y-2936500D01*
X63500Y-1063500D01*
X2936500Y-1063500D01*
X2936500Y-2936500D01*
G37*
G04 #@! TD.AperFunction*
M02*
