G04 #@! TF.GenerationSoftware,KiCad,Pcbnew,(5.1.7)-1*
G04 #@! TF.CreationDate,2020-12-02T09:59:19-08:00*
G04 #@! TF.ProjectId,programmer,70726f67-7261-46d6-9d65-722e6b696361,rev?*
G04 #@! TF.SameCoordinates,Original*
G04 #@! TF.FileFunction,Soldermask,Top*
G04 #@! TF.FilePolarity,Negative*
%FSLAX46Y46*%
G04 Gerber Fmt 4.6, Leading zero omitted, Abs format (unit mm)*
G04 Created by KiCad (PCBNEW (5.1.7)-1) date 2020-12-02 09:59:19*
%MOMM*%
%LPD*%
G01*
G04 APERTURE LIST*
%ADD10R,0.900000X0.800000*%
%ADD11R,1.350000X0.400000*%
%ADD12R,1.600000X2.100000*%
%ADD13R,1.900000X1.800000*%
%ADD14R,1.900000X1.900000*%
%ADD15R,1.060000X0.650000*%
%ADD16R,0.850000X0.650000*%
%ADD17O,1.000000X1.000000*%
%ADD18R,1.000000X1.000000*%
G04 APERTURE END LIST*
D10*
X-7025000Y-7475000D03*
X-9025000Y-8425000D03*
X-9025000Y-6525000D03*
D11*
X-15812500Y-1200000D03*
X-15812500Y-550000D03*
X-15812500Y-1850000D03*
X-15812500Y100000D03*
X-15812500Y-2500000D03*
D12*
X-15937500Y1900000D03*
X-15937500Y-4300000D03*
D13*
X-18487500Y2600000D03*
X-18487500Y-5000000D03*
D14*
X-18487500Y0D03*
X-18487500Y-2400000D03*
D15*
X-13700000Y4950000D03*
X-13700000Y4000000D03*
X-13700000Y3050000D03*
X-11500000Y3050000D03*
X-11500000Y4950000D03*
G36*
G01*
X-9138200Y2029400D02*
X-9138200Y1479400D01*
G75*
G02*
X-9338200Y1279400I-200000J0D01*
G01*
X-9738200Y1279400D01*
G75*
G02*
X-9938200Y1479400I0J200000D01*
G01*
X-9938200Y2029400D01*
G75*
G02*
X-9738200Y2229400I200000J0D01*
G01*
X-9338200Y2229400D01*
G75*
G02*
X-9138200Y2029400I0J-200000D01*
G01*
G37*
G36*
G01*
X-7488200Y2029400D02*
X-7488200Y1479400D01*
G75*
G02*
X-7688200Y1279400I-200000J0D01*
G01*
X-8088200Y1279400D01*
G75*
G02*
X-8288200Y1479400I0J200000D01*
G01*
X-8288200Y2029400D01*
G75*
G02*
X-8088200Y2229400I200000J0D01*
G01*
X-7688200Y2229400D01*
G75*
G02*
X-7488200Y2029400I0J-200000D01*
G01*
G37*
G36*
G01*
X-9038200Y6982800D02*
X-9038200Y6482800D01*
G75*
G02*
X-9263200Y6257800I-225000J0D01*
G01*
X-9713200Y6257800D01*
G75*
G02*
X-9938200Y6482800I0J225000D01*
G01*
X-9938200Y6982800D01*
G75*
G02*
X-9713200Y7207800I225000J0D01*
G01*
X-9263200Y7207800D01*
G75*
G02*
X-9038200Y6982800I0J-225000D01*
G01*
G37*
G36*
G01*
X-7488200Y6982800D02*
X-7488200Y6482800D01*
G75*
G02*
X-7713200Y6257800I-225000J0D01*
G01*
X-8163200Y6257800D01*
G75*
G02*
X-8388200Y6482800I0J225000D01*
G01*
X-8388200Y6982800D01*
G75*
G02*
X-8163200Y7207800I225000J0D01*
G01*
X-7713200Y7207800D01*
G75*
G02*
X-7488200Y6982800I0J-225000D01*
G01*
G37*
G36*
G01*
X-3900000Y4975000D02*
X-3900000Y6375000D01*
G75*
G02*
X-3825000Y6450000I75000J0D01*
G01*
X-3675000Y6450000D01*
G75*
G02*
X-3600000Y6375000I0J-75000D01*
G01*
X-3600000Y4975000D01*
G75*
G02*
X-3675000Y4900000I-75000J0D01*
G01*
X-3825000Y4900000D01*
G75*
G02*
X-3900000Y4975000I0J75000D01*
G01*
G37*
G36*
G01*
X-3400000Y4975000D02*
X-3400000Y6375000D01*
G75*
G02*
X-3325000Y6450000I75000J0D01*
G01*
X-3175000Y6450000D01*
G75*
G02*
X-3100000Y6375000I0J-75000D01*
G01*
X-3100000Y4975000D01*
G75*
G02*
X-3175000Y4900000I-75000J0D01*
G01*
X-3325000Y4900000D01*
G75*
G02*
X-3400000Y4975000I0J75000D01*
G01*
G37*
G36*
G01*
X-2900000Y4975000D02*
X-2900000Y6375000D01*
G75*
G02*
X-2825000Y6450000I75000J0D01*
G01*
X-2675000Y6450000D01*
G75*
G02*
X-2600000Y6375000I0J-75000D01*
G01*
X-2600000Y4975000D01*
G75*
G02*
X-2675000Y4900000I-75000J0D01*
G01*
X-2825000Y4900000D01*
G75*
G02*
X-2900000Y4975000I0J75000D01*
G01*
G37*
G36*
G01*
X-2400000Y4975000D02*
X-2400000Y6375000D01*
G75*
G02*
X-2325000Y6450000I75000J0D01*
G01*
X-2175000Y6450000D01*
G75*
G02*
X-2100000Y6375000I0J-75000D01*
G01*
X-2100000Y4975000D01*
G75*
G02*
X-2175000Y4900000I-75000J0D01*
G01*
X-2325000Y4900000D01*
G75*
G02*
X-2400000Y4975000I0J75000D01*
G01*
G37*
G36*
G01*
X-1900000Y4975000D02*
X-1900000Y6375000D01*
G75*
G02*
X-1825000Y6450000I75000J0D01*
G01*
X-1675000Y6450000D01*
G75*
G02*
X-1600000Y6375000I0J-75000D01*
G01*
X-1600000Y4975000D01*
G75*
G02*
X-1675000Y4900000I-75000J0D01*
G01*
X-1825000Y4900000D01*
G75*
G02*
X-1900000Y4975000I0J75000D01*
G01*
G37*
G36*
G01*
X-1400000Y4975000D02*
X-1400000Y6375000D01*
G75*
G02*
X-1325000Y6450000I75000J0D01*
G01*
X-1175000Y6450000D01*
G75*
G02*
X-1100000Y6375000I0J-75000D01*
G01*
X-1100000Y4975000D01*
G75*
G02*
X-1175000Y4900000I-75000J0D01*
G01*
X-1325000Y4900000D01*
G75*
G02*
X-1400000Y4975000I0J75000D01*
G01*
G37*
G36*
G01*
X-900000Y4975000D02*
X-900000Y6375000D01*
G75*
G02*
X-825000Y6450000I75000J0D01*
G01*
X-675000Y6450000D01*
G75*
G02*
X-600000Y6375000I0J-75000D01*
G01*
X-600000Y4975000D01*
G75*
G02*
X-675000Y4900000I-75000J0D01*
G01*
X-825000Y4900000D01*
G75*
G02*
X-900000Y4975000I0J75000D01*
G01*
G37*
G36*
G01*
X-400000Y4975000D02*
X-400000Y6375000D01*
G75*
G02*
X-325000Y6450000I75000J0D01*
G01*
X-175000Y6450000D01*
G75*
G02*
X-100000Y6375000I0J-75000D01*
G01*
X-100000Y4975000D01*
G75*
G02*
X-175000Y4900000I-75000J0D01*
G01*
X-325000Y4900000D01*
G75*
G02*
X-400000Y4975000I0J75000D01*
G01*
G37*
G36*
G01*
X100000Y4975000D02*
X100000Y6375000D01*
G75*
G02*
X175000Y6450000I75000J0D01*
G01*
X325000Y6450000D01*
G75*
G02*
X400000Y6375000I0J-75000D01*
G01*
X400000Y4975000D01*
G75*
G02*
X325000Y4900000I-75000J0D01*
G01*
X175000Y4900000D01*
G75*
G02*
X100000Y4975000I0J75000D01*
G01*
G37*
G36*
G01*
X600000Y4975000D02*
X600000Y6375000D01*
G75*
G02*
X675000Y6450000I75000J0D01*
G01*
X825000Y6450000D01*
G75*
G02*
X900000Y6375000I0J-75000D01*
G01*
X900000Y4975000D01*
G75*
G02*
X825000Y4900000I-75000J0D01*
G01*
X675000Y4900000D01*
G75*
G02*
X600000Y4975000I0J75000D01*
G01*
G37*
G36*
G01*
X1100000Y4975000D02*
X1100000Y6375000D01*
G75*
G02*
X1175000Y6450000I75000J0D01*
G01*
X1325000Y6450000D01*
G75*
G02*
X1400000Y6375000I0J-75000D01*
G01*
X1400000Y4975000D01*
G75*
G02*
X1325000Y4900000I-75000J0D01*
G01*
X1175000Y4900000D01*
G75*
G02*
X1100000Y4975000I0J75000D01*
G01*
G37*
G36*
G01*
X1600000Y4975000D02*
X1600000Y6375000D01*
G75*
G02*
X1675000Y6450000I75000J0D01*
G01*
X1825000Y6450000D01*
G75*
G02*
X1900000Y6375000I0J-75000D01*
G01*
X1900000Y4975000D01*
G75*
G02*
X1825000Y4900000I-75000J0D01*
G01*
X1675000Y4900000D01*
G75*
G02*
X1600000Y4975000I0J75000D01*
G01*
G37*
G36*
G01*
X2100000Y4975000D02*
X2100000Y6375000D01*
G75*
G02*
X2175000Y6450000I75000J0D01*
G01*
X2325000Y6450000D01*
G75*
G02*
X2400000Y6375000I0J-75000D01*
G01*
X2400000Y4975000D01*
G75*
G02*
X2325000Y4900000I-75000J0D01*
G01*
X2175000Y4900000D01*
G75*
G02*
X2100000Y4975000I0J75000D01*
G01*
G37*
G36*
G01*
X2600000Y4975000D02*
X2600000Y6375000D01*
G75*
G02*
X2675000Y6450000I75000J0D01*
G01*
X2825000Y6450000D01*
G75*
G02*
X2900000Y6375000I0J-75000D01*
G01*
X2900000Y4975000D01*
G75*
G02*
X2825000Y4900000I-75000J0D01*
G01*
X2675000Y4900000D01*
G75*
G02*
X2600000Y4975000I0J75000D01*
G01*
G37*
G36*
G01*
X3100000Y4975000D02*
X3100000Y6375000D01*
G75*
G02*
X3175000Y6450000I75000J0D01*
G01*
X3325000Y6450000D01*
G75*
G02*
X3400000Y6375000I0J-75000D01*
G01*
X3400000Y4975000D01*
G75*
G02*
X3325000Y4900000I-75000J0D01*
G01*
X3175000Y4900000D01*
G75*
G02*
X3100000Y4975000I0J75000D01*
G01*
G37*
G36*
G01*
X3600000Y4975000D02*
X3600000Y6375000D01*
G75*
G02*
X3675000Y6450000I75000J0D01*
G01*
X3825000Y6450000D01*
G75*
G02*
X3900000Y6375000I0J-75000D01*
G01*
X3900000Y4975000D01*
G75*
G02*
X3825000Y4900000I-75000J0D01*
G01*
X3675000Y4900000D01*
G75*
G02*
X3600000Y4975000I0J75000D01*
G01*
G37*
G36*
G01*
X4900000Y3675000D02*
X4900000Y3825000D01*
G75*
G02*
X4975000Y3900000I75000J0D01*
G01*
X6375000Y3900000D01*
G75*
G02*
X6450000Y3825000I0J-75000D01*
G01*
X6450000Y3675000D01*
G75*
G02*
X6375000Y3600000I-75000J0D01*
G01*
X4975000Y3600000D01*
G75*
G02*
X4900000Y3675000I0J75000D01*
G01*
G37*
G36*
G01*
X4900000Y3175000D02*
X4900000Y3325000D01*
G75*
G02*
X4975000Y3400000I75000J0D01*
G01*
X6375000Y3400000D01*
G75*
G02*
X6450000Y3325000I0J-75000D01*
G01*
X6450000Y3175000D01*
G75*
G02*
X6375000Y3100000I-75000J0D01*
G01*
X4975000Y3100000D01*
G75*
G02*
X4900000Y3175000I0J75000D01*
G01*
G37*
G36*
G01*
X4900000Y2675000D02*
X4900000Y2825000D01*
G75*
G02*
X4975000Y2900000I75000J0D01*
G01*
X6375000Y2900000D01*
G75*
G02*
X6450000Y2825000I0J-75000D01*
G01*
X6450000Y2675000D01*
G75*
G02*
X6375000Y2600000I-75000J0D01*
G01*
X4975000Y2600000D01*
G75*
G02*
X4900000Y2675000I0J75000D01*
G01*
G37*
G36*
G01*
X4900000Y2175000D02*
X4900000Y2325000D01*
G75*
G02*
X4975000Y2400000I75000J0D01*
G01*
X6375000Y2400000D01*
G75*
G02*
X6450000Y2325000I0J-75000D01*
G01*
X6450000Y2175000D01*
G75*
G02*
X6375000Y2100000I-75000J0D01*
G01*
X4975000Y2100000D01*
G75*
G02*
X4900000Y2175000I0J75000D01*
G01*
G37*
G36*
G01*
X4900000Y1675000D02*
X4900000Y1825000D01*
G75*
G02*
X4975000Y1900000I75000J0D01*
G01*
X6375000Y1900000D01*
G75*
G02*
X6450000Y1825000I0J-75000D01*
G01*
X6450000Y1675000D01*
G75*
G02*
X6375000Y1600000I-75000J0D01*
G01*
X4975000Y1600000D01*
G75*
G02*
X4900000Y1675000I0J75000D01*
G01*
G37*
G36*
G01*
X4900000Y1175000D02*
X4900000Y1325000D01*
G75*
G02*
X4975000Y1400000I75000J0D01*
G01*
X6375000Y1400000D01*
G75*
G02*
X6450000Y1325000I0J-75000D01*
G01*
X6450000Y1175000D01*
G75*
G02*
X6375000Y1100000I-75000J0D01*
G01*
X4975000Y1100000D01*
G75*
G02*
X4900000Y1175000I0J75000D01*
G01*
G37*
G36*
G01*
X4900000Y675000D02*
X4900000Y825000D01*
G75*
G02*
X4975000Y900000I75000J0D01*
G01*
X6375000Y900000D01*
G75*
G02*
X6450000Y825000I0J-75000D01*
G01*
X6450000Y675000D01*
G75*
G02*
X6375000Y600000I-75000J0D01*
G01*
X4975000Y600000D01*
G75*
G02*
X4900000Y675000I0J75000D01*
G01*
G37*
G36*
G01*
X4900000Y175000D02*
X4900000Y325000D01*
G75*
G02*
X4975000Y400000I75000J0D01*
G01*
X6375000Y400000D01*
G75*
G02*
X6450000Y325000I0J-75000D01*
G01*
X6450000Y175000D01*
G75*
G02*
X6375000Y100000I-75000J0D01*
G01*
X4975000Y100000D01*
G75*
G02*
X4900000Y175000I0J75000D01*
G01*
G37*
G36*
G01*
X4900000Y-325000D02*
X4900000Y-175000D01*
G75*
G02*
X4975000Y-100000I75000J0D01*
G01*
X6375000Y-100000D01*
G75*
G02*
X6450000Y-175000I0J-75000D01*
G01*
X6450000Y-325000D01*
G75*
G02*
X6375000Y-400000I-75000J0D01*
G01*
X4975000Y-400000D01*
G75*
G02*
X4900000Y-325000I0J75000D01*
G01*
G37*
G36*
G01*
X4900000Y-825000D02*
X4900000Y-675000D01*
G75*
G02*
X4975000Y-600000I75000J0D01*
G01*
X6375000Y-600000D01*
G75*
G02*
X6450000Y-675000I0J-75000D01*
G01*
X6450000Y-825000D01*
G75*
G02*
X6375000Y-900000I-75000J0D01*
G01*
X4975000Y-900000D01*
G75*
G02*
X4900000Y-825000I0J75000D01*
G01*
G37*
G36*
G01*
X4900000Y-1325000D02*
X4900000Y-1175000D01*
G75*
G02*
X4975000Y-1100000I75000J0D01*
G01*
X6375000Y-1100000D01*
G75*
G02*
X6450000Y-1175000I0J-75000D01*
G01*
X6450000Y-1325000D01*
G75*
G02*
X6375000Y-1400000I-75000J0D01*
G01*
X4975000Y-1400000D01*
G75*
G02*
X4900000Y-1325000I0J75000D01*
G01*
G37*
G36*
G01*
X4900000Y-1825000D02*
X4900000Y-1675000D01*
G75*
G02*
X4975000Y-1600000I75000J0D01*
G01*
X6375000Y-1600000D01*
G75*
G02*
X6450000Y-1675000I0J-75000D01*
G01*
X6450000Y-1825000D01*
G75*
G02*
X6375000Y-1900000I-75000J0D01*
G01*
X4975000Y-1900000D01*
G75*
G02*
X4900000Y-1825000I0J75000D01*
G01*
G37*
G36*
G01*
X4900000Y-2325000D02*
X4900000Y-2175000D01*
G75*
G02*
X4975000Y-2100000I75000J0D01*
G01*
X6375000Y-2100000D01*
G75*
G02*
X6450000Y-2175000I0J-75000D01*
G01*
X6450000Y-2325000D01*
G75*
G02*
X6375000Y-2400000I-75000J0D01*
G01*
X4975000Y-2400000D01*
G75*
G02*
X4900000Y-2325000I0J75000D01*
G01*
G37*
G36*
G01*
X4900000Y-2825000D02*
X4900000Y-2675000D01*
G75*
G02*
X4975000Y-2600000I75000J0D01*
G01*
X6375000Y-2600000D01*
G75*
G02*
X6450000Y-2675000I0J-75000D01*
G01*
X6450000Y-2825000D01*
G75*
G02*
X6375000Y-2900000I-75000J0D01*
G01*
X4975000Y-2900000D01*
G75*
G02*
X4900000Y-2825000I0J75000D01*
G01*
G37*
G36*
G01*
X4900000Y-3325000D02*
X4900000Y-3175000D01*
G75*
G02*
X4975000Y-3100000I75000J0D01*
G01*
X6375000Y-3100000D01*
G75*
G02*
X6450000Y-3175000I0J-75000D01*
G01*
X6450000Y-3325000D01*
G75*
G02*
X6375000Y-3400000I-75000J0D01*
G01*
X4975000Y-3400000D01*
G75*
G02*
X4900000Y-3325000I0J75000D01*
G01*
G37*
G36*
G01*
X4900000Y-3825000D02*
X4900000Y-3675000D01*
G75*
G02*
X4975000Y-3600000I75000J0D01*
G01*
X6375000Y-3600000D01*
G75*
G02*
X6450000Y-3675000I0J-75000D01*
G01*
X6450000Y-3825000D01*
G75*
G02*
X6375000Y-3900000I-75000J0D01*
G01*
X4975000Y-3900000D01*
G75*
G02*
X4900000Y-3825000I0J75000D01*
G01*
G37*
G36*
G01*
X3600000Y-6375000D02*
X3600000Y-4975000D01*
G75*
G02*
X3675000Y-4900000I75000J0D01*
G01*
X3825000Y-4900000D01*
G75*
G02*
X3900000Y-4975000I0J-75000D01*
G01*
X3900000Y-6375000D01*
G75*
G02*
X3825000Y-6450000I-75000J0D01*
G01*
X3675000Y-6450000D01*
G75*
G02*
X3600000Y-6375000I0J75000D01*
G01*
G37*
G36*
G01*
X3100000Y-6375000D02*
X3100000Y-4975000D01*
G75*
G02*
X3175000Y-4900000I75000J0D01*
G01*
X3325000Y-4900000D01*
G75*
G02*
X3400000Y-4975000I0J-75000D01*
G01*
X3400000Y-6375000D01*
G75*
G02*
X3325000Y-6450000I-75000J0D01*
G01*
X3175000Y-6450000D01*
G75*
G02*
X3100000Y-6375000I0J75000D01*
G01*
G37*
G36*
G01*
X2600000Y-6375000D02*
X2600000Y-4975000D01*
G75*
G02*
X2675000Y-4900000I75000J0D01*
G01*
X2825000Y-4900000D01*
G75*
G02*
X2900000Y-4975000I0J-75000D01*
G01*
X2900000Y-6375000D01*
G75*
G02*
X2825000Y-6450000I-75000J0D01*
G01*
X2675000Y-6450000D01*
G75*
G02*
X2600000Y-6375000I0J75000D01*
G01*
G37*
G36*
G01*
X2100000Y-6375000D02*
X2100000Y-4975000D01*
G75*
G02*
X2175000Y-4900000I75000J0D01*
G01*
X2325000Y-4900000D01*
G75*
G02*
X2400000Y-4975000I0J-75000D01*
G01*
X2400000Y-6375000D01*
G75*
G02*
X2325000Y-6450000I-75000J0D01*
G01*
X2175000Y-6450000D01*
G75*
G02*
X2100000Y-6375000I0J75000D01*
G01*
G37*
G36*
G01*
X1600000Y-6375000D02*
X1600000Y-4975000D01*
G75*
G02*
X1675000Y-4900000I75000J0D01*
G01*
X1825000Y-4900000D01*
G75*
G02*
X1900000Y-4975000I0J-75000D01*
G01*
X1900000Y-6375000D01*
G75*
G02*
X1825000Y-6450000I-75000J0D01*
G01*
X1675000Y-6450000D01*
G75*
G02*
X1600000Y-6375000I0J75000D01*
G01*
G37*
G36*
G01*
X1100000Y-6375000D02*
X1100000Y-4975000D01*
G75*
G02*
X1175000Y-4900000I75000J0D01*
G01*
X1325000Y-4900000D01*
G75*
G02*
X1400000Y-4975000I0J-75000D01*
G01*
X1400000Y-6375000D01*
G75*
G02*
X1325000Y-6450000I-75000J0D01*
G01*
X1175000Y-6450000D01*
G75*
G02*
X1100000Y-6375000I0J75000D01*
G01*
G37*
G36*
G01*
X600000Y-6375000D02*
X600000Y-4975000D01*
G75*
G02*
X675000Y-4900000I75000J0D01*
G01*
X825000Y-4900000D01*
G75*
G02*
X900000Y-4975000I0J-75000D01*
G01*
X900000Y-6375000D01*
G75*
G02*
X825000Y-6450000I-75000J0D01*
G01*
X675000Y-6450000D01*
G75*
G02*
X600000Y-6375000I0J75000D01*
G01*
G37*
G36*
G01*
X100000Y-6375000D02*
X100000Y-4975000D01*
G75*
G02*
X175000Y-4900000I75000J0D01*
G01*
X325000Y-4900000D01*
G75*
G02*
X400000Y-4975000I0J-75000D01*
G01*
X400000Y-6375000D01*
G75*
G02*
X325000Y-6450000I-75000J0D01*
G01*
X175000Y-6450000D01*
G75*
G02*
X100000Y-6375000I0J75000D01*
G01*
G37*
G36*
G01*
X-400000Y-6375000D02*
X-400000Y-4975000D01*
G75*
G02*
X-325000Y-4900000I75000J0D01*
G01*
X-175000Y-4900000D01*
G75*
G02*
X-100000Y-4975000I0J-75000D01*
G01*
X-100000Y-6375000D01*
G75*
G02*
X-175000Y-6450000I-75000J0D01*
G01*
X-325000Y-6450000D01*
G75*
G02*
X-400000Y-6375000I0J75000D01*
G01*
G37*
G36*
G01*
X-900000Y-6375000D02*
X-900000Y-4975000D01*
G75*
G02*
X-825000Y-4900000I75000J0D01*
G01*
X-675000Y-4900000D01*
G75*
G02*
X-600000Y-4975000I0J-75000D01*
G01*
X-600000Y-6375000D01*
G75*
G02*
X-675000Y-6450000I-75000J0D01*
G01*
X-825000Y-6450000D01*
G75*
G02*
X-900000Y-6375000I0J75000D01*
G01*
G37*
G36*
G01*
X-1400000Y-6375000D02*
X-1400000Y-4975000D01*
G75*
G02*
X-1325000Y-4900000I75000J0D01*
G01*
X-1175000Y-4900000D01*
G75*
G02*
X-1100000Y-4975000I0J-75000D01*
G01*
X-1100000Y-6375000D01*
G75*
G02*
X-1175000Y-6450000I-75000J0D01*
G01*
X-1325000Y-6450000D01*
G75*
G02*
X-1400000Y-6375000I0J75000D01*
G01*
G37*
G36*
G01*
X-1900000Y-6375000D02*
X-1900000Y-4975000D01*
G75*
G02*
X-1825000Y-4900000I75000J0D01*
G01*
X-1675000Y-4900000D01*
G75*
G02*
X-1600000Y-4975000I0J-75000D01*
G01*
X-1600000Y-6375000D01*
G75*
G02*
X-1675000Y-6450000I-75000J0D01*
G01*
X-1825000Y-6450000D01*
G75*
G02*
X-1900000Y-6375000I0J75000D01*
G01*
G37*
G36*
G01*
X-2400000Y-6375000D02*
X-2400000Y-4975000D01*
G75*
G02*
X-2325000Y-4900000I75000J0D01*
G01*
X-2175000Y-4900000D01*
G75*
G02*
X-2100000Y-4975000I0J-75000D01*
G01*
X-2100000Y-6375000D01*
G75*
G02*
X-2175000Y-6450000I-75000J0D01*
G01*
X-2325000Y-6450000D01*
G75*
G02*
X-2400000Y-6375000I0J75000D01*
G01*
G37*
G36*
G01*
X-2900000Y-6375000D02*
X-2900000Y-4975000D01*
G75*
G02*
X-2825000Y-4900000I75000J0D01*
G01*
X-2675000Y-4900000D01*
G75*
G02*
X-2600000Y-4975000I0J-75000D01*
G01*
X-2600000Y-6375000D01*
G75*
G02*
X-2675000Y-6450000I-75000J0D01*
G01*
X-2825000Y-6450000D01*
G75*
G02*
X-2900000Y-6375000I0J75000D01*
G01*
G37*
G36*
G01*
X-3400000Y-6375000D02*
X-3400000Y-4975000D01*
G75*
G02*
X-3325000Y-4900000I75000J0D01*
G01*
X-3175000Y-4900000D01*
G75*
G02*
X-3100000Y-4975000I0J-75000D01*
G01*
X-3100000Y-6375000D01*
G75*
G02*
X-3175000Y-6450000I-75000J0D01*
G01*
X-3325000Y-6450000D01*
G75*
G02*
X-3400000Y-6375000I0J75000D01*
G01*
G37*
G36*
G01*
X-3900000Y-6375000D02*
X-3900000Y-4975000D01*
G75*
G02*
X-3825000Y-4900000I75000J0D01*
G01*
X-3675000Y-4900000D01*
G75*
G02*
X-3600000Y-4975000I0J-75000D01*
G01*
X-3600000Y-6375000D01*
G75*
G02*
X-3675000Y-6450000I-75000J0D01*
G01*
X-3825000Y-6450000D01*
G75*
G02*
X-3900000Y-6375000I0J75000D01*
G01*
G37*
G36*
G01*
X-6450000Y-3825000D02*
X-6450000Y-3675000D01*
G75*
G02*
X-6375000Y-3600000I75000J0D01*
G01*
X-4975000Y-3600000D01*
G75*
G02*
X-4900000Y-3675000I0J-75000D01*
G01*
X-4900000Y-3825000D01*
G75*
G02*
X-4975000Y-3900000I-75000J0D01*
G01*
X-6375000Y-3900000D01*
G75*
G02*
X-6450000Y-3825000I0J75000D01*
G01*
G37*
G36*
G01*
X-6450000Y-3325000D02*
X-6450000Y-3175000D01*
G75*
G02*
X-6375000Y-3100000I75000J0D01*
G01*
X-4975000Y-3100000D01*
G75*
G02*
X-4900000Y-3175000I0J-75000D01*
G01*
X-4900000Y-3325000D01*
G75*
G02*
X-4975000Y-3400000I-75000J0D01*
G01*
X-6375000Y-3400000D01*
G75*
G02*
X-6450000Y-3325000I0J75000D01*
G01*
G37*
G36*
G01*
X-6450000Y-2825000D02*
X-6450000Y-2675000D01*
G75*
G02*
X-6375000Y-2600000I75000J0D01*
G01*
X-4975000Y-2600000D01*
G75*
G02*
X-4900000Y-2675000I0J-75000D01*
G01*
X-4900000Y-2825000D01*
G75*
G02*
X-4975000Y-2900000I-75000J0D01*
G01*
X-6375000Y-2900000D01*
G75*
G02*
X-6450000Y-2825000I0J75000D01*
G01*
G37*
G36*
G01*
X-6450000Y-2325000D02*
X-6450000Y-2175000D01*
G75*
G02*
X-6375000Y-2100000I75000J0D01*
G01*
X-4975000Y-2100000D01*
G75*
G02*
X-4900000Y-2175000I0J-75000D01*
G01*
X-4900000Y-2325000D01*
G75*
G02*
X-4975000Y-2400000I-75000J0D01*
G01*
X-6375000Y-2400000D01*
G75*
G02*
X-6450000Y-2325000I0J75000D01*
G01*
G37*
G36*
G01*
X-6450000Y-1825000D02*
X-6450000Y-1675000D01*
G75*
G02*
X-6375000Y-1600000I75000J0D01*
G01*
X-4975000Y-1600000D01*
G75*
G02*
X-4900000Y-1675000I0J-75000D01*
G01*
X-4900000Y-1825000D01*
G75*
G02*
X-4975000Y-1900000I-75000J0D01*
G01*
X-6375000Y-1900000D01*
G75*
G02*
X-6450000Y-1825000I0J75000D01*
G01*
G37*
G36*
G01*
X-6450000Y-1325000D02*
X-6450000Y-1175000D01*
G75*
G02*
X-6375000Y-1100000I75000J0D01*
G01*
X-4975000Y-1100000D01*
G75*
G02*
X-4900000Y-1175000I0J-75000D01*
G01*
X-4900000Y-1325000D01*
G75*
G02*
X-4975000Y-1400000I-75000J0D01*
G01*
X-6375000Y-1400000D01*
G75*
G02*
X-6450000Y-1325000I0J75000D01*
G01*
G37*
G36*
G01*
X-6450000Y-825000D02*
X-6450000Y-675000D01*
G75*
G02*
X-6375000Y-600000I75000J0D01*
G01*
X-4975000Y-600000D01*
G75*
G02*
X-4900000Y-675000I0J-75000D01*
G01*
X-4900000Y-825000D01*
G75*
G02*
X-4975000Y-900000I-75000J0D01*
G01*
X-6375000Y-900000D01*
G75*
G02*
X-6450000Y-825000I0J75000D01*
G01*
G37*
G36*
G01*
X-6450000Y-325000D02*
X-6450000Y-175000D01*
G75*
G02*
X-6375000Y-100000I75000J0D01*
G01*
X-4975000Y-100000D01*
G75*
G02*
X-4900000Y-175000I0J-75000D01*
G01*
X-4900000Y-325000D01*
G75*
G02*
X-4975000Y-400000I-75000J0D01*
G01*
X-6375000Y-400000D01*
G75*
G02*
X-6450000Y-325000I0J75000D01*
G01*
G37*
G36*
G01*
X-6450000Y175000D02*
X-6450000Y325000D01*
G75*
G02*
X-6375000Y400000I75000J0D01*
G01*
X-4975000Y400000D01*
G75*
G02*
X-4900000Y325000I0J-75000D01*
G01*
X-4900000Y175000D01*
G75*
G02*
X-4975000Y100000I-75000J0D01*
G01*
X-6375000Y100000D01*
G75*
G02*
X-6450000Y175000I0J75000D01*
G01*
G37*
G36*
G01*
X-6450000Y675000D02*
X-6450000Y825000D01*
G75*
G02*
X-6375000Y900000I75000J0D01*
G01*
X-4975000Y900000D01*
G75*
G02*
X-4900000Y825000I0J-75000D01*
G01*
X-4900000Y675000D01*
G75*
G02*
X-4975000Y600000I-75000J0D01*
G01*
X-6375000Y600000D01*
G75*
G02*
X-6450000Y675000I0J75000D01*
G01*
G37*
G36*
G01*
X-6450000Y1175000D02*
X-6450000Y1325000D01*
G75*
G02*
X-6375000Y1400000I75000J0D01*
G01*
X-4975000Y1400000D01*
G75*
G02*
X-4900000Y1325000I0J-75000D01*
G01*
X-4900000Y1175000D01*
G75*
G02*
X-4975000Y1100000I-75000J0D01*
G01*
X-6375000Y1100000D01*
G75*
G02*
X-6450000Y1175000I0J75000D01*
G01*
G37*
G36*
G01*
X-6450000Y1675000D02*
X-6450000Y1825000D01*
G75*
G02*
X-6375000Y1900000I75000J0D01*
G01*
X-4975000Y1900000D01*
G75*
G02*
X-4900000Y1825000I0J-75000D01*
G01*
X-4900000Y1675000D01*
G75*
G02*
X-4975000Y1600000I-75000J0D01*
G01*
X-6375000Y1600000D01*
G75*
G02*
X-6450000Y1675000I0J75000D01*
G01*
G37*
G36*
G01*
X-6450000Y2175000D02*
X-6450000Y2325000D01*
G75*
G02*
X-6375000Y2400000I75000J0D01*
G01*
X-4975000Y2400000D01*
G75*
G02*
X-4900000Y2325000I0J-75000D01*
G01*
X-4900000Y2175000D01*
G75*
G02*
X-4975000Y2100000I-75000J0D01*
G01*
X-6375000Y2100000D01*
G75*
G02*
X-6450000Y2175000I0J75000D01*
G01*
G37*
G36*
G01*
X-6450000Y2675000D02*
X-6450000Y2825000D01*
G75*
G02*
X-6375000Y2900000I75000J0D01*
G01*
X-4975000Y2900000D01*
G75*
G02*
X-4900000Y2825000I0J-75000D01*
G01*
X-4900000Y2675000D01*
G75*
G02*
X-4975000Y2600000I-75000J0D01*
G01*
X-6375000Y2600000D01*
G75*
G02*
X-6450000Y2675000I0J75000D01*
G01*
G37*
G36*
G01*
X-6450000Y3175000D02*
X-6450000Y3325000D01*
G75*
G02*
X-6375000Y3400000I75000J0D01*
G01*
X-4975000Y3400000D01*
G75*
G02*
X-4900000Y3325000I0J-75000D01*
G01*
X-4900000Y3175000D01*
G75*
G02*
X-4975000Y3100000I-75000J0D01*
G01*
X-6375000Y3100000D01*
G75*
G02*
X-6450000Y3175000I0J75000D01*
G01*
G37*
G36*
G01*
X-6450000Y3675000D02*
X-6450000Y3825000D01*
G75*
G02*
X-6375000Y3900000I75000J0D01*
G01*
X-4975000Y3900000D01*
G75*
G02*
X-4900000Y3825000I0J-75000D01*
G01*
X-4900000Y3675000D01*
G75*
G02*
X-4975000Y3600000I-75000J0D01*
G01*
X-6375000Y3600000D01*
G75*
G02*
X-6450000Y3675000I0J75000D01*
G01*
G37*
D16*
X-7938200Y5017800D03*
X-7938200Y3367800D03*
X-9488200Y3367800D03*
X-9488200Y5017800D03*
G36*
G01*
X9796600Y-7670400D02*
X9246600Y-7670400D01*
G75*
G02*
X9046600Y-7470400I0J200000D01*
G01*
X9046600Y-7070400D01*
G75*
G02*
X9246600Y-6870400I200000J0D01*
G01*
X9796600Y-6870400D01*
G75*
G02*
X9996600Y-7070400I0J-200000D01*
G01*
X9996600Y-7470400D01*
G75*
G02*
X9796600Y-7670400I-200000J0D01*
G01*
G37*
G36*
G01*
X9796600Y-9320400D02*
X9246600Y-9320400D01*
G75*
G02*
X9046600Y-9120400I0J200000D01*
G01*
X9046600Y-8720400D01*
G75*
G02*
X9246600Y-8520400I200000J0D01*
G01*
X9796600Y-8520400D01*
G75*
G02*
X9996600Y-8720400I0J-200000D01*
G01*
X9996600Y-9120400D01*
G75*
G02*
X9796600Y-9320400I-200000J0D01*
G01*
G37*
G36*
G01*
X9295800Y-4940000D02*
X9845800Y-4940000D01*
G75*
G02*
X10045800Y-5140000I0J-200000D01*
G01*
X10045800Y-5540000D01*
G75*
G02*
X9845800Y-5740000I-200000J0D01*
G01*
X9295800Y-5740000D01*
G75*
G02*
X9095800Y-5540000I0J200000D01*
G01*
X9095800Y-5140000D01*
G75*
G02*
X9295800Y-4940000I200000J0D01*
G01*
G37*
G36*
G01*
X9295800Y-3290000D02*
X9845800Y-3290000D01*
G75*
G02*
X10045800Y-3490000I0J-200000D01*
G01*
X10045800Y-3890000D01*
G75*
G02*
X9845800Y-4090000I-200000J0D01*
G01*
X9295800Y-4090000D01*
G75*
G02*
X9095800Y-3890000I0J200000D01*
G01*
X9095800Y-3490000D01*
G75*
G02*
X9295800Y-3290000I200000J0D01*
G01*
G37*
G36*
G01*
X-7930200Y-2784800D02*
X-8480200Y-2784800D01*
G75*
G02*
X-8680200Y-2584800I0J200000D01*
G01*
X-8680200Y-2184800D01*
G75*
G02*
X-8480200Y-1984800I200000J0D01*
G01*
X-7930200Y-1984800D01*
G75*
G02*
X-7730200Y-2184800I0J-200000D01*
G01*
X-7730200Y-2584800D01*
G75*
G02*
X-7930200Y-2784800I-200000J0D01*
G01*
G37*
G36*
G01*
X-7930200Y-1134800D02*
X-8480200Y-1134800D01*
G75*
G02*
X-8680200Y-934800I0J200000D01*
G01*
X-8680200Y-534800D01*
G75*
G02*
X-8480200Y-334800I200000J0D01*
G01*
X-7930200Y-334800D01*
G75*
G02*
X-7730200Y-534800I0J-200000D01*
G01*
X-7730200Y-934800D01*
G75*
G02*
X-7930200Y-1134800I-200000J0D01*
G01*
G37*
D10*
X-13765600Y-7467200D03*
X-11765600Y-6517200D03*
X-11765600Y-8417200D03*
D17*
X17070000Y1380000D03*
X15800000Y1380000D03*
X17070000Y110000D03*
X15800000Y110000D03*
X17070000Y-1160000D03*
X15800000Y-1160000D03*
X17070000Y-2430000D03*
X15800000Y-2430000D03*
X17070000Y-3700000D03*
D18*
X15800000Y-3700000D03*
G36*
G01*
X11454250Y-7758700D02*
X10941750Y-7758700D01*
G75*
G02*
X10723000Y-7539950I0J218750D01*
G01*
X10723000Y-7102450D01*
G75*
G02*
X10941750Y-6883700I218750J0D01*
G01*
X11454250Y-6883700D01*
G75*
G02*
X11673000Y-7102450I0J-218750D01*
G01*
X11673000Y-7539950D01*
G75*
G02*
X11454250Y-7758700I-218750J0D01*
G01*
G37*
G36*
G01*
X11454250Y-9333700D02*
X10941750Y-9333700D01*
G75*
G02*
X10723000Y-9114950I0J218750D01*
G01*
X10723000Y-8677450D01*
G75*
G02*
X10941750Y-8458700I218750J0D01*
G01*
X11454250Y-8458700D01*
G75*
G02*
X11673000Y-8677450I0J-218750D01*
G01*
X11673000Y-9114950D01*
G75*
G02*
X11454250Y-9333700I-218750J0D01*
G01*
G37*
G36*
G01*
X10990950Y-3276900D02*
X11503450Y-3276900D01*
G75*
G02*
X11722200Y-3495650I0J-218750D01*
G01*
X11722200Y-3933150D01*
G75*
G02*
X11503450Y-4151900I-218750J0D01*
G01*
X10990950Y-4151900D01*
G75*
G02*
X10772200Y-3933150I0J218750D01*
G01*
X10772200Y-3495650D01*
G75*
G02*
X10990950Y-3276900I218750J0D01*
G01*
G37*
G36*
G01*
X10990950Y-4851900D02*
X11503450Y-4851900D01*
G75*
G02*
X11722200Y-5070650I0J-218750D01*
G01*
X11722200Y-5508150D01*
G75*
G02*
X11503450Y-5726900I-218750J0D01*
G01*
X10990950Y-5726900D01*
G75*
G02*
X10772200Y-5508150I0J218750D01*
G01*
X10772200Y-5070650D01*
G75*
G02*
X10990950Y-4851900I218750J0D01*
G01*
G37*
G36*
G01*
X-10975000Y7050000D02*
X-10975000Y6550000D01*
G75*
G02*
X-11200000Y6325000I-225000J0D01*
G01*
X-11650000Y6325000D01*
G75*
G02*
X-11875000Y6550000I0J225000D01*
G01*
X-11875000Y7050000D01*
G75*
G02*
X-11650000Y7275000I225000J0D01*
G01*
X-11200000Y7275000D01*
G75*
G02*
X-10975000Y7050000I0J-225000D01*
G01*
G37*
G36*
G01*
X-12525000Y7050000D02*
X-12525000Y6550000D01*
G75*
G02*
X-12750000Y6325000I-225000J0D01*
G01*
X-13200000Y6325000D01*
G75*
G02*
X-13425000Y6550000I0J225000D01*
G01*
X-13425000Y7050000D01*
G75*
G02*
X-13200000Y7275000I225000J0D01*
G01*
X-12750000Y7275000D01*
G75*
G02*
X-12525000Y7050000I0J-225000D01*
G01*
G37*
G36*
G01*
X-12650000Y550000D02*
X-12650000Y1050000D01*
G75*
G02*
X-12425000Y1275000I225000J0D01*
G01*
X-11975000Y1275000D01*
G75*
G02*
X-11750000Y1050000I0J-225000D01*
G01*
X-11750000Y550000D01*
G75*
G02*
X-11975000Y325000I-225000J0D01*
G01*
X-12425000Y325000D01*
G75*
G02*
X-12650000Y550000I0J225000D01*
G01*
G37*
G36*
G01*
X-14200000Y550000D02*
X-14200000Y1050000D01*
G75*
G02*
X-13975000Y1275000I225000J0D01*
G01*
X-13525000Y1275000D01*
G75*
G02*
X-13300000Y1050000I0J-225000D01*
G01*
X-13300000Y550000D01*
G75*
G02*
X-13525000Y325000I-225000J0D01*
G01*
X-13975000Y325000D01*
G75*
G02*
X-14200000Y550000I0J225000D01*
G01*
G37*
M02*
