G04 #@! TF.GenerationSoftware,KiCad,Pcbnew,(5.1.7)-1*
G04 #@! TF.CreationDate,2020-12-02T09:59:19-08:00*
G04 #@! TF.ProjectId,programmer,70726f67-7261-46d6-9d65-722e6b696361,rev?*
G04 #@! TF.SameCoordinates,Original*
G04 #@! TF.FileFunction,Legend,Bot*
G04 #@! TF.FilePolarity,Positive*
%FSLAX46Y46*%
G04 Gerber Fmt 4.6, Leading zero omitted, Abs format (unit mm)*
G04 Created by KiCad (PCBNEW (5.1.7)-1) date 2020-12-02 09:59:19*
%MOMM*%
%LPD*%
G01*
G04 APERTURE LIST*
%ADD10C,0.120000*%
%ADD11C,0.150000*%
G04 APERTURE END LIST*
D10*
X3084420Y2510000D02*
X3365580Y2510000D01*
X3084420Y1490000D02*
X3365580Y1490000D01*
X-3084420Y1490000D02*
X-3365580Y1490000D01*
X-3084420Y2510000D02*
X-3365580Y2510000D01*
X-3084420Y-2510000D02*
X-3365580Y-2510000D01*
X-3084420Y-1490000D02*
X-3365580Y-1490000D01*
X-3084420Y-510000D02*
X-3365580Y-510000D01*
X-3084420Y510000D02*
X-3365580Y510000D01*
X3084420Y-1490000D02*
X3365580Y-1490000D01*
X3084420Y-2510000D02*
X3365580Y-2510000D01*
D11*
X6166666Y1642857D02*
X6214285Y1595238D01*
X6357142Y1547619D01*
X6452380Y1547619D01*
X6595238Y1595238D01*
X6690476Y1690476D01*
X6738095Y1785714D01*
X6785714Y1976190D01*
X6785714Y2119047D01*
X6738095Y2309523D01*
X6690476Y2404761D01*
X6595238Y2500000D01*
X6452380Y2547619D01*
X6357142Y2547619D01*
X6214285Y2500000D01*
X6166666Y2452380D01*
X5833333Y2547619D02*
X5214285Y2547619D01*
X5547619Y2166666D01*
X5404761Y2166666D01*
X5309523Y2119047D01*
X5261904Y2071428D01*
X5214285Y1976190D01*
X5214285Y1738095D01*
X5261904Y1642857D01*
X5309523Y1595238D01*
X5404761Y1547619D01*
X5690476Y1547619D01*
X5785714Y1595238D01*
X5833333Y1642857D01*
X-5833333Y1642857D02*
X-5785714Y1595238D01*
X-5642857Y1547619D01*
X-5547619Y1547619D01*
X-5404761Y1595238D01*
X-5309523Y1690476D01*
X-5261904Y1785714D01*
X-5214285Y1976190D01*
X-5214285Y2119047D01*
X-5261904Y2309523D01*
X-5309523Y2404761D01*
X-5404761Y2500000D01*
X-5547619Y2547619D01*
X-5642857Y2547619D01*
X-5785714Y2500000D01*
X-5833333Y2452380D01*
X-6309523Y1547619D02*
X-6499999Y1547619D01*
X-6595238Y1595238D01*
X-6642857Y1642857D01*
X-6738095Y1785714D01*
X-6785714Y1976190D01*
X-6785714Y2357142D01*
X-6738095Y2452380D01*
X-6690476Y2500000D01*
X-6595238Y2547619D01*
X-6404761Y2547619D01*
X-6309523Y2500000D01*
X-6261904Y2452380D01*
X-6214285Y2357142D01*
X-6214285Y2119047D01*
X-6261904Y2023809D01*
X-6309523Y1976190D01*
X-6404761Y1928571D01*
X-6595238Y1928571D01*
X-6690476Y1976190D01*
X-6738095Y2023809D01*
X-6785714Y2119047D01*
X-5833333Y-357142D02*
X-5785714Y-404761D01*
X-5642857Y-452380D01*
X-5547619Y-452380D01*
X-5404761Y-404761D01*
X-5309523Y-309523D01*
X-5261904Y-214285D01*
X-5214285Y-23809D01*
X-5214285Y119047D01*
X-5261904Y309523D01*
X-5309523Y404761D01*
X-5404761Y500000D01*
X-5547619Y547619D01*
X-5642857Y547619D01*
X-5785714Y500000D01*
X-5833333Y452380D01*
X-6166666Y547619D02*
X-6833333Y547619D01*
X-6404761Y-452380D01*
X-5833333Y-2357142D02*
X-5785714Y-2404761D01*
X-5642857Y-2452380D01*
X-5547619Y-2452380D01*
X-5404761Y-2404761D01*
X-5309523Y-2309523D01*
X-5261904Y-2214285D01*
X-5214285Y-2023809D01*
X-5214285Y-1880952D01*
X-5261904Y-1690476D01*
X-5309523Y-1595238D01*
X-5404761Y-1500000D01*
X-5547619Y-1452380D01*
X-5642857Y-1452380D01*
X-5785714Y-1500000D01*
X-5833333Y-1547619D01*
X-6690476Y-1452380D02*
X-6499999Y-1452380D01*
X-6404761Y-1500000D01*
X-6357142Y-1547619D01*
X-6261904Y-1690476D01*
X-6214285Y-1880952D01*
X-6214285Y-2261904D01*
X-6261904Y-2357142D01*
X-6309523Y-2404761D01*
X-6404761Y-2452380D01*
X-6595238Y-2452380D01*
X-6690476Y-2404761D01*
X-6738095Y-2357142D01*
X-6785714Y-2261904D01*
X-6785714Y-2023809D01*
X-6738095Y-1928571D01*
X-6690476Y-1880952D01*
X-6595238Y-1833333D01*
X-6404761Y-1833333D01*
X-6309523Y-1880952D01*
X-6261904Y-1928571D01*
X-6214285Y-2023809D01*
X6166666Y-2357142D02*
X6214285Y-2404761D01*
X6357142Y-2452380D01*
X6452380Y-2452380D01*
X6595238Y-2404761D01*
X6690476Y-2309523D01*
X6738095Y-2214285D01*
X6785714Y-2023809D01*
X6785714Y-1880952D01*
X6738095Y-1690476D01*
X6690476Y-1595238D01*
X6595238Y-1500000D01*
X6452380Y-1452380D01*
X6357142Y-1452380D01*
X6214285Y-1500000D01*
X6166666Y-1547619D01*
X5261904Y-1452380D02*
X5738095Y-1452380D01*
X5785714Y-1928571D01*
X5738095Y-1880952D01*
X5642857Y-1833333D01*
X5404761Y-1833333D01*
X5309523Y-1880952D01*
X5261904Y-1928571D01*
X5214285Y-2023809D01*
X5214285Y-2261904D01*
X5261904Y-2357142D01*
X5309523Y-2404761D01*
X5404761Y-2452380D01*
X5642857Y-2452380D01*
X5738095Y-2404761D01*
X5785714Y-2357142D01*
M02*
