G04 #@! TF.GenerationSoftware,KiCad,Pcbnew,(5.1.7)-1*
G04 #@! TF.CreationDate,2020-12-02T09:59:19-08:00*
G04 #@! TF.ProjectId,programmer,70726f67-7261-46d6-9d65-722e6b696361,rev?*
G04 #@! TF.SameCoordinates,Original*
G04 #@! TF.FileFunction,Legend,Top*
G04 #@! TF.FilePolarity,Positive*
%FSLAX46Y46*%
G04 Gerber Fmt 4.6, Leading zero omitted, Abs format (unit mm)*
G04 Created by KiCad (PCBNEW (5.1.7)-1) date 2020-12-02 09:59:19*
%MOMM*%
%LPD*%
G01*
G04 APERTURE LIST*
%ADD10C,0.300000*%
%ADD11C,0.500000*%
%ADD12C,0.120000*%
%ADD13C,0.127000*%
%ADD14C,0.150000*%
G04 APERTURE END LIST*
D10*
X-10272358Y5526600D02*
G75*
G03*
X-10272358Y5526600I-71842J0D01*
G01*
D11*
X17077842Y3786400D02*
G75*
G03*
X17077842Y3786400I-71842J0D01*
G01*
X-5847358Y4751600D02*
G75*
G03*
X-5847358Y4751600I-71842J0D01*
G01*
D12*
X-7265000Y-9055000D02*
X-8725000Y-9055000D01*
X-7265000Y-5895000D02*
X-9425000Y-5895000D01*
X-7265000Y-5895000D02*
X-7265000Y-6825000D01*
X-7265000Y-9055000D02*
X-7265000Y-8125000D01*
D10*
X-14412500Y200000D02*
G75*
G03*
X-14412500Y200000I-100000J0D01*
G01*
D13*
X-15587500Y-2920000D02*
X-15587500Y-3030000D01*
X-15587500Y630000D02*
X-15587500Y520000D01*
X-19937500Y-4950000D02*
X-19662500Y-4950000D01*
X-19937500Y2550000D02*
X-19937500Y-4950000D01*
X-19662500Y2550000D02*
X-19937500Y2550000D01*
X-16962500Y-4950000D02*
X-17312500Y-4950000D01*
X-16962500Y2550000D02*
X-17312500Y2550000D01*
D12*
X-13500000Y2390000D02*
X-11700000Y2390000D01*
X-11700000Y5610000D02*
X-14150000Y5610000D01*
X-8475942Y2276900D02*
X-8950458Y2276900D01*
X-8475942Y1231900D02*
X-8950458Y1231900D01*
X-8572620Y7242800D02*
X-8853780Y7242800D01*
X-8572620Y6222800D02*
X-8853780Y6222800D01*
X-5110000Y4160000D02*
X-6450000Y4160000D01*
X-5110000Y5110000D02*
X-5110000Y4160000D01*
X-4160000Y5110000D02*
X-5110000Y5110000D01*
X5110000Y5110000D02*
X5110000Y4160000D01*
X4160000Y5110000D02*
X5110000Y5110000D01*
X-5110000Y-5110000D02*
X-5110000Y-4160000D01*
X-4160000Y-5110000D02*
X-5110000Y-5110000D01*
X5110000Y-5110000D02*
X5110000Y-4160000D01*
X4160000Y-5110000D02*
X5110000Y-5110000D01*
X-8713200Y5542800D02*
X-9853200Y5542800D01*
X10044100Y-8332658D02*
X10044100Y-7858142D01*
X8999100Y-8332658D02*
X8999100Y-7858142D01*
X9048300Y-4277742D02*
X9048300Y-4752258D01*
X10093300Y-4277742D02*
X10093300Y-4752258D01*
X-8727700Y-1797058D02*
X-8727700Y-1322542D01*
X-7682700Y-1797058D02*
X-7682700Y-1322542D01*
X-13525600Y-5887200D02*
X-12065600Y-5887200D01*
X-13525600Y-9047200D02*
X-11365600Y-9047200D01*
X-13525600Y-9047200D02*
X-13525600Y-8117200D01*
X-13525600Y-5887200D02*
X-13525600Y-6817200D01*
X19000000Y5300000D02*
X19000000Y-7600000D01*
X13800000Y5300000D02*
X19000000Y5300000D01*
X13800000Y-7600000D02*
X13800000Y5300000D01*
X19000000Y-7600000D02*
X13800000Y-7600000D01*
X11933000Y-9593700D02*
X11933000Y-7308700D01*
X10463000Y-9593700D02*
X11933000Y-9593700D01*
X10463000Y-7308700D02*
X10463000Y-9593700D01*
X11982200Y-5301900D02*
X11982200Y-3016900D01*
X11982200Y-3016900D02*
X10512200Y-3016900D01*
X10512200Y-3016900D02*
X10512200Y-5301900D01*
X-12059420Y6290000D02*
X-12340580Y6290000D01*
X-12059420Y7310000D02*
X-12340580Y7310000D01*
X-13115580Y290000D02*
X-12834420Y290000D01*
X-13115580Y1310000D02*
X-12834420Y1310000D01*
D14*
X-8120238Y-5522619D02*
X-8215476Y-5475000D01*
X-8310714Y-5379761D01*
X-8453571Y-5236904D01*
X-8548809Y-5189285D01*
X-8644047Y-5189285D01*
X-8596428Y-5427380D02*
X-8691666Y-5379761D01*
X-8786904Y-5284523D01*
X-8834523Y-5094047D01*
X-8834523Y-4760714D01*
X-8786904Y-4570238D01*
X-8691666Y-4475000D01*
X-8596428Y-4427380D01*
X-8405952Y-4427380D01*
X-8310714Y-4475000D01*
X-8215476Y-4570238D01*
X-8167857Y-4760714D01*
X-8167857Y-5094047D01*
X-8215476Y-5284523D01*
X-8310714Y-5379761D01*
X-8405952Y-5427380D01*
X-8596428Y-5427380D01*
X-7786904Y-4522619D02*
X-7739285Y-4475000D01*
X-7644047Y-4427380D01*
X-7405952Y-4427380D01*
X-7310714Y-4475000D01*
X-7263095Y-4522619D01*
X-7215476Y-4617857D01*
X-7215476Y-4713095D01*
X-7263095Y-4855952D01*
X-7834523Y-5427380D01*
X-7215476Y-5427380D01*
X-18747619Y4366666D02*
X-18033333Y4366666D01*
X-17890476Y4319047D01*
X-17795238Y4223809D01*
X-17747619Y4080952D01*
X-17747619Y3985714D01*
X-17747619Y5366666D02*
X-17747619Y4795238D01*
X-17747619Y5080952D02*
X-18747619Y5080952D01*
X-18604761Y4985714D01*
X-18509523Y4890476D01*
X-18461904Y4795238D01*
X-15861904Y7247619D02*
X-15861904Y6438095D01*
X-15814285Y6342857D01*
X-15766666Y6295238D01*
X-15671428Y6247619D01*
X-15480952Y6247619D01*
X-15385714Y6295238D01*
X-15338095Y6342857D01*
X-15290476Y6438095D01*
X-15290476Y7247619D01*
X-14290476Y6247619D02*
X-14861904Y6247619D01*
X-14576190Y6247619D02*
X-14576190Y7247619D01*
X-14671428Y7104761D01*
X-14766666Y7009523D01*
X-14861904Y6961904D01*
X-9747619Y-166666D02*
X-10223809Y-500000D01*
X-9747619Y-738095D02*
X-10747619Y-738095D01*
X-10747619Y-357142D01*
X-10700000Y-261904D01*
X-10652380Y-214285D01*
X-10557142Y-166666D01*
X-10414285Y-166666D01*
X-10319047Y-214285D01*
X-10271428Y-261904D01*
X-10223809Y-357142D01*
X-10223809Y-738095D01*
X-9747619Y785714D02*
X-9747619Y214285D01*
X-9747619Y500000D02*
X-10747619Y500000D01*
X-10604761Y404761D01*
X-10509523Y309523D01*
X-10461904Y214285D01*
X-7566666Y8042857D02*
X-7614285Y7995238D01*
X-7757142Y7947619D01*
X-7852380Y7947619D01*
X-7995238Y7995238D01*
X-8090476Y8090476D01*
X-8138095Y8185714D01*
X-8185714Y8376190D01*
X-8185714Y8519047D01*
X-8138095Y8709523D01*
X-8090476Y8804761D01*
X-7995238Y8900000D01*
X-7852380Y8947619D01*
X-7757142Y8947619D01*
X-7614285Y8900000D01*
X-7566666Y8852380D01*
X-6995238Y8519047D02*
X-7090476Y8566666D01*
X-7138095Y8614285D01*
X-7185714Y8709523D01*
X-7185714Y8757142D01*
X-7138095Y8852380D01*
X-7090476Y8900000D01*
X-6995238Y8947619D01*
X-6804761Y8947619D01*
X-6709523Y8900000D01*
X-6661904Y8852380D01*
X-6614285Y8757142D01*
X-6614285Y8709523D01*
X-6661904Y8614285D01*
X-6709523Y8566666D01*
X-6804761Y8519047D01*
X-6995238Y8519047D01*
X-7090476Y8471428D01*
X-7138095Y8423809D01*
X-7185714Y8328571D01*
X-7185714Y8138095D01*
X-7138095Y8042857D01*
X-7090476Y7995238D01*
X-6995238Y7947619D01*
X-6804761Y7947619D01*
X-6709523Y7995238D01*
X-6661904Y8042857D01*
X-6614285Y8138095D01*
X-6614285Y8328571D01*
X-6661904Y8423809D01*
X-6709523Y8471428D01*
X-6804761Y8519047D01*
X-5969904Y6467619D02*
X-5969904Y5658095D01*
X-5922285Y5562857D01*
X-5874666Y5515238D01*
X-5779428Y5467619D01*
X-5588952Y5467619D01*
X-5493714Y5515238D01*
X-5446095Y5562857D01*
X-5398476Y5658095D01*
X-5398476Y6467619D01*
X-4969904Y6372380D02*
X-4922285Y6420000D01*
X-4827047Y6467619D01*
X-4588952Y6467619D01*
X-4493714Y6420000D01*
X-4446095Y6372380D01*
X-4398476Y6277142D01*
X-4398476Y6181904D01*
X-4446095Y6039047D01*
X-5017523Y5467619D01*
X-4398476Y5467619D01*
X-10361904Y8947619D02*
X-10361904Y8138095D01*
X-10314285Y8042857D01*
X-10266666Y7995238D01*
X-10171428Y7947619D01*
X-9980952Y7947619D01*
X-9885714Y7995238D01*
X-9838095Y8042857D01*
X-9790476Y8138095D01*
X-9790476Y8947619D01*
X-9409523Y8947619D02*
X-8790476Y8947619D01*
X-9123809Y8566666D01*
X-8980952Y8566666D01*
X-8885714Y8519047D01*
X-8838095Y8471428D01*
X-8790476Y8376190D01*
X-8790476Y8138095D01*
X-8838095Y8042857D01*
X-8885714Y7995238D01*
X-8980952Y7947619D01*
X-9266666Y7947619D01*
X-9361904Y7995238D01*
X-9409523Y8042857D01*
X8543980Y-8262066D02*
X8067790Y-8595400D01*
X8543980Y-8833495D02*
X7543980Y-8833495D01*
X7543980Y-8452542D01*
X7591600Y-8357304D01*
X7639219Y-8309685D01*
X7734457Y-8262066D01*
X7877314Y-8262066D01*
X7972552Y-8309685D01*
X8020171Y-8357304D01*
X8067790Y-8452542D01*
X8067790Y-8833495D01*
X7877314Y-7404923D02*
X8543980Y-7404923D01*
X7496361Y-7643019D02*
X8210647Y-7881114D01*
X8210647Y-7262066D01*
X8600780Y-4681666D02*
X8124590Y-5015000D01*
X8600780Y-5253095D02*
X7600780Y-5253095D01*
X7600780Y-4872142D01*
X7648400Y-4776904D01*
X7696019Y-4729285D01*
X7791257Y-4681666D01*
X7934114Y-4681666D01*
X8029352Y-4729285D01*
X8076971Y-4776904D01*
X8124590Y-4872142D01*
X8124590Y-5253095D01*
X7600780Y-4348333D02*
X7600780Y-3729285D01*
X7981733Y-4062619D01*
X7981733Y-3919761D01*
X8029352Y-3824523D01*
X8076971Y-3776904D01*
X8172209Y-3729285D01*
X8410304Y-3729285D01*
X8505542Y-3776904D01*
X8553161Y-3824523D01*
X8600780Y-3919761D01*
X8600780Y-4205476D01*
X8553161Y-4300714D01*
X8505542Y-4348333D01*
X-9547619Y-2866666D02*
X-10023809Y-3200000D01*
X-9547619Y-3438095D02*
X-10547619Y-3438095D01*
X-10547619Y-3057142D01*
X-10500000Y-2961904D01*
X-10452380Y-2914285D01*
X-10357142Y-2866666D01*
X-10214285Y-2866666D01*
X-10119047Y-2914285D01*
X-10071428Y-2961904D01*
X-10023809Y-3057142D01*
X-10023809Y-3438095D01*
X-10452380Y-2485714D02*
X-10500000Y-2438095D01*
X-10547619Y-2342857D01*
X-10547619Y-2104761D01*
X-10500000Y-2009523D01*
X-10452380Y-1961904D01*
X-10357142Y-1914285D01*
X-10261904Y-1914285D01*
X-10119047Y-1961904D01*
X-9547619Y-2533333D01*
X-9547619Y-1914285D01*
X-12860838Y-5474819D02*
X-12956076Y-5427200D01*
X-13051314Y-5331961D01*
X-13194171Y-5189104D01*
X-13289409Y-5141485D01*
X-13384647Y-5141485D01*
X-13337028Y-5379580D02*
X-13432266Y-5331961D01*
X-13527504Y-5236723D01*
X-13575123Y-5046247D01*
X-13575123Y-4712914D01*
X-13527504Y-4522438D01*
X-13432266Y-4427200D01*
X-13337028Y-4379580D01*
X-13146552Y-4379580D01*
X-13051314Y-4427200D01*
X-12956076Y-4522438D01*
X-12908457Y-4712914D01*
X-12908457Y-5046247D01*
X-12956076Y-5236723D01*
X-13051314Y-5331961D01*
X-13146552Y-5379580D01*
X-13337028Y-5379580D01*
X-11956076Y-5379580D02*
X-12527504Y-5379580D01*
X-12241790Y-5379580D02*
X-12241790Y-4379580D01*
X-12337028Y-4522438D01*
X-12432266Y-4617676D01*
X-12527504Y-4665295D01*
X15866666Y-7852380D02*
X15866666Y-8566666D01*
X15819047Y-8709523D01*
X15723809Y-8804761D01*
X15580952Y-8852380D01*
X15485714Y-8852380D01*
X16295238Y-7947619D02*
X16342857Y-7900000D01*
X16438095Y-7852380D01*
X16676190Y-7852380D01*
X16771428Y-7900000D01*
X16819047Y-7947619D01*
X16866666Y-8042857D01*
X16866666Y-8138095D01*
X16819047Y-8280952D01*
X16247619Y-8852380D01*
X16866666Y-8852380D01*
X13174380Y-8846795D02*
X12174380Y-8846795D01*
X12174380Y-8608700D01*
X12222000Y-8465842D01*
X12317238Y-8370604D01*
X12412476Y-8322985D01*
X12602952Y-8275366D01*
X12745809Y-8275366D01*
X12936285Y-8322985D01*
X13031523Y-8370604D01*
X13126761Y-8465842D01*
X13174380Y-8608700D01*
X13174380Y-8846795D01*
X12269619Y-7894414D02*
X12222000Y-7846795D01*
X12174380Y-7751557D01*
X12174380Y-7513461D01*
X12222000Y-7418223D01*
X12269619Y-7370604D01*
X12364857Y-7322985D01*
X12460095Y-7322985D01*
X12602952Y-7370604D01*
X13174380Y-7942033D01*
X13174380Y-7322985D01*
X13223580Y-5239995D02*
X12223580Y-5239995D01*
X12223580Y-5001900D01*
X12271200Y-4859042D01*
X12366438Y-4763804D01*
X12461676Y-4716185D01*
X12652152Y-4668566D01*
X12795009Y-4668566D01*
X12985485Y-4716185D01*
X13080723Y-4763804D01*
X13175961Y-4859042D01*
X13223580Y-5001900D01*
X13223580Y-5239995D01*
X13223580Y-3716185D02*
X13223580Y-4287614D01*
X13223580Y-4001900D02*
X12223580Y-4001900D01*
X12366438Y-4097138D01*
X12461676Y-4192376D01*
X12509295Y-4287614D01*
X-11966666Y8042857D02*
X-12014285Y7995238D01*
X-12157142Y7947619D01*
X-12252380Y7947619D01*
X-12395238Y7995238D01*
X-12490476Y8090476D01*
X-12538095Y8185714D01*
X-12585714Y8376190D01*
X-12585714Y8519047D01*
X-12538095Y8709523D01*
X-12490476Y8804761D01*
X-12395238Y8900000D01*
X-12252380Y8947619D01*
X-12157142Y8947619D01*
X-12014285Y8900000D01*
X-11966666Y8852380D01*
X-11585714Y8852380D02*
X-11538095Y8900000D01*
X-11442857Y8947619D01*
X-11204761Y8947619D01*
X-11109523Y8900000D01*
X-11061904Y8852380D01*
X-11014285Y8757142D01*
X-11014285Y8661904D01*
X-11061904Y8519047D01*
X-11633333Y7947619D01*
X-11014285Y7947619D01*
X-13141666Y-1157142D02*
X-13189285Y-1204761D01*
X-13332142Y-1252380D01*
X-13427380Y-1252380D01*
X-13570238Y-1204761D01*
X-13665476Y-1109523D01*
X-13713095Y-1014285D01*
X-13760714Y-823809D01*
X-13760714Y-680952D01*
X-13713095Y-490476D01*
X-13665476Y-395238D01*
X-13570238Y-300000D01*
X-13427380Y-252380D01*
X-13332142Y-252380D01*
X-13189285Y-300000D01*
X-13141666Y-347619D01*
X-12189285Y-1252380D02*
X-12760714Y-1252380D01*
X-12475000Y-1252380D02*
X-12475000Y-252380D01*
X-12570238Y-395238D01*
X-12665476Y-490476D01*
X-12760714Y-538095D01*
M02*
