G04 #@! TF.GenerationSoftware,KiCad,Pcbnew,(5.1.5)-3*
G04 #@! TF.CreationDate,2020-09-29T21:06:49-07:00*
G04 #@! TF.ProjectId,EsperDNS,45737065-7244-44e5-932e-6b696361645f,rev?*
G04 #@! TF.SameCoordinates,Original*
G04 #@! TF.FileFunction,Legend,Top*
G04 #@! TF.FilePolarity,Positive*
%FSLAX46Y46*%
G04 Gerber Fmt 4.6, Leading zero omitted, Abs format (unit mm)*
G04 Created by KiCad (PCBNEW (5.1.5)-3) date 2020-09-29 21:06:49*
%MOMM*%
%LPD*%
G04 APERTURE LIST*
%ADD10C,0.120000*%
%ADD11C,0.127000*%
%ADD12C,0.100000*%
%ADD13C,0.152400*%
%ADD14C,0.050000*%
%ADD15C,0.150000*%
G04 APERTURE END LIST*
D10*
X1800000Y-36950000D02*
G75*
G03X1800000Y-36950000I-4950000J0D01*
G01*
X42900000Y1150000D02*
G75*
G03X42900000Y1150000I-4950000J0D01*
G01*
X13550000Y-38700000D02*
X13400000Y-38850000D01*
X13250000Y-38700000D02*
X13550000Y-38700000D01*
X13400000Y-38850000D02*
X13250000Y-38700000D01*
X13400000Y-38450000D02*
X13400000Y-38850000D01*
D11*
X16650000Y-43100000D02*
X16650000Y-20600000D01*
X16650000Y-20600000D02*
X35400000Y-20600000D01*
X35400000Y-20600000D02*
X35400000Y-43100000D01*
X35400000Y-43100000D02*
X16650000Y-43100000D01*
D10*
X28765563Y-13710000D02*
G75*
G03X28765563Y-13710000I-155563J0D01*
G01*
X24390000Y-9490000D02*
X24390000Y-9965000D01*
X24865000Y-9490000D02*
X24390000Y-9490000D01*
X28610000Y-9490000D02*
X28610000Y-9965000D01*
X28135000Y-9490000D02*
X28610000Y-9490000D01*
X24390000Y-13710000D02*
X24390000Y-13235000D01*
X24865000Y-13710000D02*
X24390000Y-13710000D01*
D12*
X11250000Y-38900000D02*
X11250000Y-39400000D01*
X8850000Y-37150000D02*
X9150000Y-37150000D01*
X3150000Y-38900000D02*
X3150000Y-39350000D01*
X5300000Y-37150000D02*
X5600000Y-37150000D01*
X3150000Y-42100000D02*
X3150000Y-42900000D01*
X3150000Y-42900000D02*
X3650000Y-42900000D01*
X10800000Y-42900000D02*
X11250000Y-42900000D01*
X11250000Y-42900000D02*
X11250000Y-42050000D01*
D10*
X36200000Y-14870000D02*
G75*
G03X36200000Y-14870000I-100000J0D01*
G01*
X36400000Y-15170000D02*
X36400000Y-10170000D01*
X42500000Y-15170000D02*
X42500000Y-10170000D01*
D12*
X41245000Y-4590000D02*
X41245000Y-4890000D01*
X40870000Y-4590000D02*
X41245000Y-4590000D01*
X41245000Y-7890000D02*
X40795000Y-7890000D01*
X41245000Y-7590000D02*
X41245000Y-7890000D01*
X41245000Y-7665000D02*
X41245000Y-7540000D01*
X39595000Y-7890000D02*
X39595000Y-7540000D01*
X40070000Y-7890000D02*
X39595000Y-7890000D01*
X39595000Y-4915000D02*
X38820000Y-4915000D01*
X39595000Y-4865000D02*
X39595000Y-4915000D01*
X39970000Y-4590000D02*
X39595000Y-4865000D01*
X40245000Y-4590000D02*
X39970000Y-4590000D01*
X25455000Y5000000D02*
X25455000Y4700000D01*
X25080000Y5000000D02*
X25455000Y5000000D01*
X25455000Y1700000D02*
X25005000Y1700000D01*
X25455000Y2000000D02*
X25455000Y1700000D01*
X25455000Y1925000D02*
X25455000Y2050000D01*
X23805000Y1700000D02*
X23805000Y2050000D01*
X24280000Y1700000D02*
X23805000Y1700000D01*
X23805000Y4675000D02*
X23030000Y4675000D01*
X23805000Y4725000D02*
X23805000Y4675000D01*
X24180000Y5000000D02*
X23805000Y4725000D01*
X24455000Y5000000D02*
X24180000Y5000000D01*
X31115000Y5010000D02*
X31115000Y4710000D01*
X30740000Y5010000D02*
X31115000Y5010000D01*
X31115000Y1710000D02*
X30665000Y1710000D01*
X31115000Y2010000D02*
X31115000Y1710000D01*
X31115000Y1935000D02*
X31115000Y2060000D01*
X29465000Y1710000D02*
X29465000Y2060000D01*
X29940000Y1710000D02*
X29465000Y1710000D01*
X29465000Y4685000D02*
X28690000Y4685000D01*
X29465000Y4735000D02*
X29465000Y4685000D01*
X29840000Y5010000D02*
X29465000Y4735000D01*
X30115000Y5010000D02*
X29840000Y5010000D01*
D13*
X-867000Y-31083001D02*
X-412801Y-31083001D01*
X-3394326Y-23717001D02*
X-8020101Y-23717001D01*
X-412801Y-23717001D02*
X-867000Y-23717001D01*
X-412801Y-31083001D02*
X-412801Y-23717001D01*
X-8020101Y-31083001D02*
X-3394326Y-31083001D01*
X-8020101Y-23717001D02*
X-8020101Y-31083001D01*
D10*
X-2110000Y-27049721D02*
X-2110000Y-27375279D01*
X-1090000Y-27049721D02*
X-1090000Y-27375279D01*
X38090000Y-30342779D02*
X38090000Y-30017221D01*
X37070000Y-30342779D02*
X37070000Y-30017221D01*
X39715000Y-30297779D02*
X39715000Y-29972221D01*
X38695000Y-30297779D02*
X38695000Y-29972221D01*
X41340000Y-30297779D02*
X41340000Y-29972221D01*
X40320000Y-30297779D02*
X40320000Y-29972221D01*
X18062779Y-13490000D02*
X17737221Y-13490000D01*
X18062779Y-14510000D02*
X17737221Y-14510000D01*
X-3620000Y-905000D02*
X-4000000Y-905000D01*
X-3620000Y5515000D02*
X-3620000Y-905000D01*
X14620000Y5515000D02*
X14620000Y-905000D01*
X-3620000Y5515000D02*
X14620000Y5515000D01*
X14620000Y-20230000D02*
X13620000Y-20230000D01*
X14620000Y-19450000D02*
X14620000Y-20230000D01*
X-3620000Y-20230000D02*
X-2620000Y-20230000D01*
X-3620000Y-19450000D02*
X-3620000Y-20230000D01*
X25792000Y-5825279D02*
X25792000Y-5499721D01*
X24772000Y-5825279D02*
X24772000Y-5499721D01*
X31737221Y-15910000D02*
X32062779Y-15910000D01*
X31737221Y-14890000D02*
X32062779Y-14890000D01*
X31724721Y-9560000D02*
X32050279Y-9560000D01*
X31724721Y-8540000D02*
X32050279Y-8540000D01*
X17237221Y-5110000D02*
X17562779Y-5110000D01*
X17237221Y-4090000D02*
X17562779Y-4090000D01*
X17237221Y-8960000D02*
X17562779Y-8960000D01*
X17237221Y-7940000D02*
X17562779Y-7940000D01*
X17237221Y-11460000D02*
X17562779Y-11460000D01*
X17237221Y-10440000D02*
X17562779Y-10440000D01*
X-5974721Y-7060000D02*
X-6300279Y-7060000D01*
X-5974721Y-6040000D02*
X-6300279Y-6040000D01*
X37837221Y-25670000D02*
X38162779Y-25670000D01*
X37837221Y-24650000D02*
X38162779Y-24650000D01*
X38202779Y-19960000D02*
X37877221Y-19960000D01*
X38202779Y-20980000D02*
X37877221Y-20980000D01*
X28460000Y-18962779D02*
X28460000Y-18637221D01*
X27440000Y-18962779D02*
X27440000Y-18637221D01*
X30760000Y-18962779D02*
X30760000Y-18637221D01*
X29740000Y-18962779D02*
X29740000Y-18637221D01*
X23310000Y-18962779D02*
X23310000Y-18637221D01*
X22290000Y-18962779D02*
X22290000Y-18637221D01*
X25660000Y-18962779D02*
X25660000Y-18637221D01*
X24640000Y-18962779D02*
X24640000Y-18637221D01*
X31724721Y-14310000D02*
X32050279Y-14310000D01*
X31724721Y-13290000D02*
X32050279Y-13290000D01*
X27342000Y-5825279D02*
X27342000Y-5499721D01*
X26322000Y-5825279D02*
X26322000Y-5499721D01*
X21626000Y-5487221D02*
X21626000Y-5812779D01*
X22646000Y-5487221D02*
X22646000Y-5812779D01*
X20076000Y-5487221D02*
X20076000Y-5812779D01*
X21096000Y-5487221D02*
X21096000Y-5812779D01*
X23222000Y-5487221D02*
X23222000Y-5812779D01*
X24242000Y-5487221D02*
X24242000Y-5812779D01*
X31992000Y-5812779D02*
X31992000Y-5487221D01*
X30972000Y-5812779D02*
X30972000Y-5487221D01*
X30442000Y-5825279D02*
X30442000Y-5499721D01*
X29422000Y-5825279D02*
X29422000Y-5499721D01*
X-6300279Y-3960000D02*
X-5974721Y-3960000D01*
X-6300279Y-2940000D02*
X-5974721Y-2940000D01*
X-6300279Y-5510000D02*
X-5974721Y-5510000D01*
X-6300279Y-4490000D02*
X-5974721Y-4490000D01*
X31724721Y-11110000D02*
X32050279Y-11110000D01*
X31724721Y-10090000D02*
X32050279Y-10090000D01*
X28892000Y-5825279D02*
X28892000Y-5499721D01*
X27872000Y-5825279D02*
X27872000Y-5499721D01*
X21990000Y-14637221D02*
X21990000Y-14962779D01*
X23010000Y-14637221D02*
X23010000Y-14962779D01*
X31724721Y-12760000D02*
X32050279Y-12760000D01*
X31724721Y-11740000D02*
X32050279Y-11740000D01*
X18062779Y-18776000D02*
X17737221Y-18776000D01*
X18062779Y-19796000D02*
X17737221Y-19796000D01*
X13710000Y-35460000D02*
X13710000Y-34200000D01*
X13710000Y-28640000D02*
X13710000Y-29900000D01*
X9950000Y-35460000D02*
X13710000Y-35460000D01*
X7700000Y-28640000D02*
X13710000Y-28640000D01*
X14990000Y-38437221D02*
X14990000Y-38762779D01*
X16010000Y-38437221D02*
X16010000Y-38762779D01*
X5087779Y-36110000D02*
X4762221Y-36110000D01*
X5087779Y-35090000D02*
X4762221Y-35090000D01*
X14050000Y-26200000D02*
X14050000Y-27530000D01*
X14050000Y-27530000D02*
X12720000Y-27530000D01*
X14050000Y-24930000D02*
X11450000Y-24930000D01*
X11450000Y-24930000D02*
X11450000Y-27530000D01*
X11450000Y-27530000D02*
X1230000Y-27530000D01*
X1230000Y-22330000D02*
X1230000Y-27530000D01*
X14050000Y-22330000D02*
X1230000Y-22330000D01*
X14050000Y-22330000D02*
X14050000Y-24930000D01*
X18062779Y-16998000D02*
X17737221Y-16998000D01*
X18062779Y-18018000D02*
X17737221Y-18018000D01*
X14160000Y-40085000D02*
X14160000Y-37800000D01*
X12690000Y-40085000D02*
X14160000Y-40085000D01*
X12690000Y-37800000D02*
X12690000Y-40085000D01*
X18062779Y-15220000D02*
X17737221Y-15220000D01*
X18062779Y-16240000D02*
X17737221Y-16240000D01*
X6810000Y-30800279D02*
X6810000Y-30474721D01*
X5790000Y-30800279D02*
X5790000Y-30474721D01*
X3450279Y-30510000D02*
X3124721Y-30510000D01*
X3450279Y-29490000D02*
X3124721Y-29490000D01*
X3450279Y-32410000D02*
X3124721Y-32410000D01*
X3450279Y-31390000D02*
X3124721Y-31390000D01*
X5087779Y-34360000D02*
X4762221Y-34360000D01*
X5087779Y-33340000D02*
X4762221Y-33340000D01*
D14*
X25500000Y-30552380D02*
X25500000Y-31266666D01*
X25457142Y-31409523D01*
X25371428Y-31504761D01*
X25242857Y-31552380D01*
X25157142Y-31552380D01*
X25885714Y-30647619D02*
X25928571Y-30600000D01*
X26014285Y-30552380D01*
X26228571Y-30552380D01*
X26314285Y-30600000D01*
X26357142Y-30647619D01*
X26400000Y-30742857D01*
X26400000Y-30838095D01*
X26357142Y-30980952D01*
X25842857Y-31552380D01*
X26400000Y-31552380D01*
X22707142Y-32516666D02*
X23135714Y-32516666D01*
X22621428Y-32802380D02*
X22921428Y-31802380D01*
X23221428Y-32802380D01*
X24035714Y-32802380D02*
X23735714Y-32326190D01*
X23521428Y-32802380D02*
X23521428Y-31802380D01*
X23864285Y-31802380D01*
X23950000Y-31850000D01*
X23992857Y-31897619D01*
X24035714Y-31992857D01*
X24035714Y-32135714D01*
X23992857Y-32230952D01*
X23950000Y-32278571D01*
X23864285Y-32326190D01*
X23521428Y-32326190D01*
X24678571Y-31802380D02*
X24678571Y-32516666D01*
X24635714Y-32659523D01*
X24550000Y-32754761D01*
X24421428Y-32802380D01*
X24335714Y-32802380D01*
X25107142Y-32802380D02*
X25107142Y-31802380D01*
X25407142Y-32516666D01*
X25707142Y-31802380D01*
X25707142Y-32802380D01*
X26607142Y-32802380D02*
X26092857Y-32802380D01*
X26350000Y-32802380D02*
X26350000Y-31802380D01*
X26264285Y-31945238D01*
X26178571Y-32040476D01*
X26092857Y-32088095D01*
X27464285Y-32802380D02*
X26950000Y-32802380D01*
X27207142Y-32802380D02*
X27207142Y-31802380D01*
X27121428Y-31945238D01*
X27035714Y-32040476D01*
X26950000Y-32088095D01*
X27807142Y-32516666D02*
X28235714Y-32516666D01*
X27721428Y-32802380D02*
X28021428Y-31802380D01*
X28321428Y-32802380D01*
X28535714Y-31802380D02*
X29092857Y-31802380D01*
X28792857Y-32183333D01*
X28921428Y-32183333D01*
X29007142Y-32230952D01*
X29050000Y-32278571D01*
X29092857Y-32373809D01*
X29092857Y-32611904D01*
X29050000Y-32707142D01*
X29007142Y-32754761D01*
X28921428Y-32802380D01*
X28664285Y-32802380D01*
X28578571Y-32754761D01*
X28535714Y-32707142D01*
D15*
X25788095Y-15552380D02*
X25788095Y-16361904D01*
X25835714Y-16457142D01*
X25883333Y-16504761D01*
X25978571Y-16552380D01*
X26169047Y-16552380D01*
X26264285Y-16504761D01*
X26311904Y-16457142D01*
X26359523Y-16361904D01*
X26359523Y-15552380D01*
X26788095Y-15647619D02*
X26835714Y-15600000D01*
X26930952Y-15552380D01*
X27169047Y-15552380D01*
X27264285Y-15600000D01*
X27311904Y-15647619D01*
X27359523Y-15742857D01*
X27359523Y-15838095D01*
X27311904Y-15980952D01*
X26740476Y-16552380D01*
X27359523Y-16552380D01*
X566666Y-40202380D02*
X566666Y-40916666D01*
X519047Y-41059523D01*
X423809Y-41154761D01*
X280952Y-41202380D01*
X185714Y-41202380D01*
X1566666Y-41202380D02*
X995238Y-41202380D01*
X1280952Y-41202380D02*
X1280952Y-40202380D01*
X1185714Y-40345238D01*
X1090476Y-40440476D01*
X995238Y-40488095D01*
X38541904Y-17852380D02*
X38541904Y-16852380D01*
X38780000Y-16852380D01*
X38922857Y-16900000D01*
X39018095Y-16995238D01*
X39065714Y-17090476D01*
X39113333Y-17280952D01*
X39113333Y-17423809D01*
X39065714Y-17614285D01*
X39018095Y-17709523D01*
X38922857Y-17804761D01*
X38780000Y-17852380D01*
X38541904Y-17852380D01*
X39446666Y-16852380D02*
X40065714Y-16852380D01*
X39732380Y-17233333D01*
X39875238Y-17233333D01*
X39970476Y-17280952D01*
X40018095Y-17328571D01*
X40065714Y-17423809D01*
X40065714Y-17661904D01*
X40018095Y-17757142D01*
X39970476Y-17804761D01*
X39875238Y-17852380D01*
X39589523Y-17852380D01*
X39494285Y-17804761D01*
X39446666Y-17757142D01*
X38437618Y-6075238D02*
X38389999Y-6170476D01*
X38294760Y-6265714D01*
X38151903Y-6408571D01*
X38104284Y-6503809D01*
X38104284Y-6599047D01*
X38342379Y-6551428D02*
X38294760Y-6646666D01*
X38199522Y-6741904D01*
X38009046Y-6789523D01*
X37675713Y-6789523D01*
X37485237Y-6741904D01*
X37389999Y-6646666D01*
X37342379Y-6551428D01*
X37342379Y-6360952D01*
X37389999Y-6265714D01*
X37485237Y-6170476D01*
X37675713Y-6122857D01*
X38009046Y-6122857D01*
X38199522Y-6170476D01*
X38294760Y-6265714D01*
X38342379Y-6360952D01*
X38342379Y-6551428D01*
X38342379Y-5170476D02*
X38342379Y-5741904D01*
X38342379Y-5456190D02*
X37342379Y-5456190D01*
X37485237Y-5551428D01*
X37580475Y-5646666D01*
X37628094Y-5741904D01*
X22384761Y377380D02*
X22289523Y425000D01*
X22194285Y520238D01*
X22051428Y663095D01*
X21956190Y710714D01*
X21860952Y710714D01*
X21908571Y472619D02*
X21813333Y520238D01*
X21718095Y615476D01*
X21670476Y805952D01*
X21670476Y1139285D01*
X21718095Y1329761D01*
X21813333Y1425000D01*
X21908571Y1472619D01*
X22099047Y1472619D01*
X22194285Y1425000D01*
X22289523Y1329761D01*
X22337142Y1139285D01*
X22337142Y805952D01*
X22289523Y615476D01*
X22194285Y520238D01*
X22099047Y472619D01*
X21908571Y472619D01*
X22670476Y1472619D02*
X23289523Y1472619D01*
X22956190Y1091666D01*
X23099047Y1091666D01*
X23194285Y1044047D01*
X23241904Y996428D01*
X23289523Y901190D01*
X23289523Y663095D01*
X23241904Y567857D01*
X23194285Y520238D01*
X23099047Y472619D01*
X22813333Y472619D01*
X22718095Y520238D01*
X22670476Y567857D01*
X30839760Y422380D02*
X30744522Y470000D01*
X30649284Y565238D01*
X30506427Y708095D01*
X30411189Y755714D01*
X30315951Y755714D01*
X30363570Y517619D02*
X30268332Y565238D01*
X30173094Y660476D01*
X30125475Y850952D01*
X30125475Y1184285D01*
X30173094Y1374761D01*
X30268332Y1470000D01*
X30363570Y1517619D01*
X30554046Y1517619D01*
X30649284Y1470000D01*
X30744522Y1374761D01*
X30792141Y1184285D01*
X30792141Y850952D01*
X30744522Y660476D01*
X30649284Y565238D01*
X30554046Y517619D01*
X30363570Y517619D01*
X31173094Y1422380D02*
X31220713Y1470000D01*
X31315951Y1517619D01*
X31554046Y1517619D01*
X31649284Y1470000D01*
X31696903Y1422380D01*
X31744522Y1327142D01*
X31744522Y1231904D01*
X31696903Y1089047D01*
X31125475Y517619D01*
X31744522Y517619D01*
X-5883333Y-28104761D02*
X-5740476Y-28152380D01*
X-5502380Y-28152380D01*
X-5407142Y-28104761D01*
X-5359523Y-28057142D01*
X-5311904Y-27961904D01*
X-5311904Y-27866666D01*
X-5359523Y-27771428D01*
X-5407142Y-27723809D01*
X-5502380Y-27676190D01*
X-5692857Y-27628571D01*
X-5788095Y-27580952D01*
X-5835714Y-27533333D01*
X-5883333Y-27438095D01*
X-5883333Y-27342857D01*
X-5835714Y-27247619D01*
X-5788095Y-27200000D01*
X-5692857Y-27152380D01*
X-5454761Y-27152380D01*
X-5311904Y-27200000D01*
X-4978571Y-27152380D02*
X-4740476Y-28152380D01*
X-4550000Y-27438095D01*
X-4359523Y-28152380D01*
X-4121428Y-27152380D01*
X-3216666Y-28152380D02*
X-3788095Y-28152380D01*
X-3502380Y-28152380D02*
X-3502380Y-27152380D01*
X-3597619Y-27295238D01*
X-3692857Y-27390476D01*
X-3788095Y-27438095D01*
X-5097619Y-22610000D02*
X-4859523Y-22610000D01*
X-4954761Y-22848095D02*
X-4859523Y-22610000D01*
X-4954761Y-22371904D01*
X-4669047Y-22752857D02*
X-4859523Y-22610000D01*
X-4669047Y-22467142D01*
X-5097619Y-22610000D02*
X-4859523Y-22610000D01*
X-4954761Y-22848095D02*
X-4859523Y-22610000D01*
X-4954761Y-22371904D01*
X-4669047Y-22752857D02*
X-4859523Y-22610000D01*
X-4669047Y-22467142D01*
X37188095Y3897619D02*
X37188095Y4897619D01*
X37188095Y4421428D02*
X37759523Y4421428D01*
X37759523Y3897619D02*
X37759523Y4897619D01*
X38188095Y4802380D02*
X38235714Y4850000D01*
X38330952Y4897619D01*
X38569047Y4897619D01*
X38664285Y4850000D01*
X38711904Y4802380D01*
X38759523Y4707142D01*
X38759523Y4611904D01*
X38711904Y4469047D01*
X38140476Y3897619D01*
X38759523Y3897619D01*
X238095Y-38752380D02*
X238095Y-37752380D01*
X238095Y-38228571D02*
X809523Y-38228571D01*
X809523Y-38752380D02*
X809523Y-37752380D01*
X1809523Y-38752380D02*
X1238095Y-38752380D01*
X1523809Y-38752380D02*
X1523809Y-37752380D01*
X1428571Y-37895238D01*
X1333333Y-37990476D01*
X1238095Y-38038095D01*
X1252380Y-26542857D02*
X776190Y-26876190D01*
X1252380Y-27114285D02*
X252380Y-27114285D01*
X252380Y-26733333D01*
X299999Y-26638095D01*
X347619Y-26590476D01*
X442857Y-26542857D01*
X585714Y-26542857D01*
X680952Y-26590476D01*
X728571Y-26638095D01*
X776190Y-26733333D01*
X776190Y-27114285D01*
X347619Y-26161904D02*
X300000Y-26114285D01*
X252380Y-26019047D01*
X252380Y-25780952D01*
X300000Y-25685714D01*
X347619Y-25638095D01*
X442857Y-25590476D01*
X538095Y-25590476D01*
X680952Y-25638095D01*
X1252380Y-26209523D01*
X1252380Y-25590476D01*
X252380Y-24685714D02*
X252380Y-25161904D01*
X728571Y-25209523D01*
X680952Y-25161904D01*
X633333Y-25066666D01*
X633333Y-24828571D01*
X680952Y-24733333D01*
X728571Y-24685714D01*
X823809Y-24638095D01*
X1061904Y-24638095D01*
X1157142Y-24685714D01*
X1204761Y-24733333D01*
X1252380Y-24828571D01*
X1252380Y-25066666D01*
X1204761Y-25161904D01*
X1157142Y-25209523D01*
X38032380Y-33957857D02*
X37556190Y-34291190D01*
X38032380Y-34529285D02*
X37032380Y-34529285D01*
X37032380Y-34148333D01*
X37080000Y-34053095D01*
X37127619Y-34005476D01*
X37222857Y-33957857D01*
X37365714Y-33957857D01*
X37460952Y-34005476D01*
X37508571Y-34053095D01*
X37556190Y-34148333D01*
X37556190Y-34529285D01*
X37127619Y-33576904D02*
X37080000Y-33529285D01*
X37032380Y-33434047D01*
X37032380Y-33195952D01*
X37080000Y-33100714D01*
X37127619Y-33053095D01*
X37222857Y-33005476D01*
X37318095Y-33005476D01*
X37460952Y-33053095D01*
X38032380Y-33624523D01*
X38032380Y-33005476D01*
X37365714Y-32148333D02*
X38032380Y-32148333D01*
X36984761Y-32386428D02*
X37699047Y-32624523D01*
X37699047Y-32005476D01*
X39652380Y-33872857D02*
X39176190Y-34206190D01*
X39652380Y-34444285D02*
X38652380Y-34444285D01*
X38652380Y-34063333D01*
X38700000Y-33968095D01*
X38747619Y-33920476D01*
X38842857Y-33872857D01*
X38985714Y-33872857D01*
X39080952Y-33920476D01*
X39128571Y-33968095D01*
X39176190Y-34063333D01*
X39176190Y-34444285D01*
X38747619Y-33491904D02*
X38700000Y-33444285D01*
X38652380Y-33349047D01*
X38652380Y-33110952D01*
X38700000Y-33015714D01*
X38747619Y-32968095D01*
X38842857Y-32920476D01*
X38938095Y-32920476D01*
X39080952Y-32968095D01*
X39652380Y-33539523D01*
X39652380Y-32920476D01*
X38652380Y-32587142D02*
X38652380Y-31968095D01*
X39033333Y-32301428D01*
X39033333Y-32158571D01*
X39080952Y-32063333D01*
X39128571Y-32015714D01*
X39223809Y-31968095D01*
X39461904Y-31968095D01*
X39557142Y-32015714D01*
X39604761Y-32063333D01*
X39652380Y-32158571D01*
X39652380Y-32444285D01*
X39604761Y-32539523D01*
X39557142Y-32587142D01*
X41272380Y-33852857D02*
X40796190Y-34186190D01*
X41272380Y-34424285D02*
X40272380Y-34424285D01*
X40272380Y-34043333D01*
X40320000Y-33948095D01*
X40367619Y-33900476D01*
X40462857Y-33852857D01*
X40605714Y-33852857D01*
X40700952Y-33900476D01*
X40748571Y-33948095D01*
X40796190Y-34043333D01*
X40796190Y-34424285D01*
X40367619Y-33471904D02*
X40320000Y-33424285D01*
X40272380Y-33329047D01*
X40272380Y-33090952D01*
X40320000Y-32995714D01*
X40367619Y-32948095D01*
X40462857Y-32900476D01*
X40558095Y-32900476D01*
X40700952Y-32948095D01*
X41272380Y-33519523D01*
X41272380Y-32900476D01*
X40367619Y-32519523D02*
X40320000Y-32471904D01*
X40272380Y-32376666D01*
X40272380Y-32138571D01*
X40320000Y-32043333D01*
X40367619Y-31995714D01*
X40462857Y-31948095D01*
X40558095Y-31948095D01*
X40700952Y-31995714D01*
X41272380Y-32567142D01*
X41272380Y-31948095D01*
X20107142Y-14502380D02*
X19773809Y-14026190D01*
X19535714Y-14502380D02*
X19535714Y-13502380D01*
X19916666Y-13502380D01*
X20011904Y-13550000D01*
X20059523Y-13597619D01*
X20107142Y-13692857D01*
X20107142Y-13835714D01*
X20059523Y-13930952D01*
X20011904Y-13978571D01*
X19916666Y-14026190D01*
X19535714Y-14026190D01*
X20488095Y-13597619D02*
X20535714Y-13550000D01*
X20630952Y-13502380D01*
X20869047Y-13502380D01*
X20964285Y-13550000D01*
X21011904Y-13597619D01*
X21059523Y-13692857D01*
X21059523Y-13788095D01*
X21011904Y-13930952D01*
X20440476Y-14502380D01*
X21059523Y-14502380D01*
X21678571Y-13502380D02*
X21773809Y-13502380D01*
X21869047Y-13550000D01*
X21916666Y-13597619D01*
X21964285Y-13692857D01*
X22011904Y-13883333D01*
X22011904Y-14121428D01*
X21964285Y-14311904D01*
X21916666Y-14407142D01*
X21869047Y-14454761D01*
X21773809Y-14502380D01*
X21678571Y-14502380D01*
X21583333Y-14454761D01*
X21535714Y-14407142D01*
X21488095Y-14311904D01*
X21440476Y-14121428D01*
X21440476Y-13883333D01*
X21488095Y-13692857D01*
X21535714Y-13597619D01*
X21583333Y-13550000D01*
X21678571Y-13502380D01*
X-6261904Y-19677380D02*
X-6261904Y-20486904D01*
X-6214285Y-20582142D01*
X-6166666Y-20629761D01*
X-6071428Y-20677380D01*
X-5880952Y-20677380D01*
X-5785714Y-20629761D01*
X-5738095Y-20582142D01*
X-5690476Y-20486904D01*
X-5690476Y-19677380D01*
X-5309523Y-19677380D02*
X-4690476Y-19677380D01*
X-5023809Y-20058333D01*
X-4880952Y-20058333D01*
X-4785714Y-20105952D01*
X-4738095Y-20153571D01*
X-4690476Y-20248809D01*
X-4690476Y-20486904D01*
X-4738095Y-20582142D01*
X-4785714Y-20629761D01*
X-4880952Y-20677380D01*
X-5166666Y-20677380D01*
X-5261904Y-20629761D01*
X-5309523Y-20582142D01*
X25734380Y-3355357D02*
X25258190Y-3688690D01*
X25734380Y-3926785D02*
X24734380Y-3926785D01*
X24734380Y-3545833D01*
X24782000Y-3450595D01*
X24829619Y-3402976D01*
X24924857Y-3355357D01*
X25067714Y-3355357D01*
X25162952Y-3402976D01*
X25210571Y-3450595D01*
X25258190Y-3545833D01*
X25258190Y-3926785D01*
X24829619Y-2974404D02*
X24782000Y-2926785D01*
X24734380Y-2831547D01*
X24734380Y-2593452D01*
X24782000Y-2498214D01*
X24829619Y-2450595D01*
X24924857Y-2402976D01*
X25020095Y-2402976D01*
X25162952Y-2450595D01*
X25734380Y-3022023D01*
X25734380Y-2402976D01*
X25734380Y-1450595D02*
X25734380Y-2022023D01*
X25734380Y-1736309D02*
X24734380Y-1736309D01*
X24877238Y-1831547D01*
X24972476Y-1926785D01*
X25020095Y-2022023D01*
X34257142Y-15757142D02*
X34209523Y-15804761D01*
X34066666Y-15852380D01*
X33971428Y-15852380D01*
X33828571Y-15804761D01*
X33733333Y-15709523D01*
X33685714Y-15614285D01*
X33638095Y-15423809D01*
X33638095Y-15280952D01*
X33685714Y-15090476D01*
X33733333Y-14995238D01*
X33828571Y-14900000D01*
X33971428Y-14852380D01*
X34066666Y-14852380D01*
X34209523Y-14900000D01*
X34257142Y-14947619D01*
X35209523Y-15852380D02*
X34638095Y-15852380D01*
X34923809Y-15852380D02*
X34923809Y-14852380D01*
X34828571Y-14995238D01*
X34733333Y-15090476D01*
X34638095Y-15138095D01*
X35542857Y-14852380D02*
X36209523Y-14852380D01*
X35780952Y-15852380D01*
X34182142Y-9407142D02*
X34134523Y-9454761D01*
X33991666Y-9502380D01*
X33896428Y-9502380D01*
X33753571Y-9454761D01*
X33658333Y-9359523D01*
X33610714Y-9264285D01*
X33563095Y-9073809D01*
X33563095Y-8930952D01*
X33610714Y-8740476D01*
X33658333Y-8645238D01*
X33753571Y-8550000D01*
X33896428Y-8502380D01*
X33991666Y-8502380D01*
X34134523Y-8550000D01*
X34182142Y-8597619D01*
X35134523Y-9502380D02*
X34563095Y-9502380D01*
X34848809Y-9502380D02*
X34848809Y-8502380D01*
X34753571Y-8645238D01*
X34658333Y-8740476D01*
X34563095Y-8788095D01*
X35991666Y-8502380D02*
X35801190Y-8502380D01*
X35705952Y-8550000D01*
X35658333Y-8597619D01*
X35563095Y-8740476D01*
X35515476Y-8930952D01*
X35515476Y-9311904D01*
X35563095Y-9407142D01*
X35610714Y-9454761D01*
X35705952Y-9502380D01*
X35896428Y-9502380D01*
X35991666Y-9454761D01*
X36039285Y-9407142D01*
X36086904Y-9311904D01*
X36086904Y-9073809D01*
X36039285Y-8978571D01*
X35991666Y-8930952D01*
X35896428Y-8883333D01*
X35705952Y-8883333D01*
X35610714Y-8930952D01*
X35563095Y-8978571D01*
X35515476Y-9073809D01*
X16807142Y-3602380D02*
X16473809Y-3126190D01*
X16235714Y-3602380D02*
X16235714Y-2602380D01*
X16616666Y-2602380D01*
X16711904Y-2650000D01*
X16759523Y-2697619D01*
X16807142Y-2792857D01*
X16807142Y-2935714D01*
X16759523Y-3030952D01*
X16711904Y-3078571D01*
X16616666Y-3126190D01*
X16235714Y-3126190D01*
X17759523Y-3602380D02*
X17188095Y-3602380D01*
X17473809Y-3602380D02*
X17473809Y-2602380D01*
X17378571Y-2745238D01*
X17283333Y-2840476D01*
X17188095Y-2888095D01*
X18235714Y-3602380D02*
X18426190Y-3602380D01*
X18521428Y-3554761D01*
X18569047Y-3507142D01*
X18664285Y-3364285D01*
X18711904Y-3173809D01*
X18711904Y-2792857D01*
X18664285Y-2697619D01*
X18616666Y-2650000D01*
X18521428Y-2602380D01*
X18330952Y-2602380D01*
X18235714Y-2650000D01*
X18188095Y-2697619D01*
X18140476Y-2792857D01*
X18140476Y-3030952D01*
X18188095Y-3126190D01*
X18235714Y-3173809D01*
X18330952Y-3221428D01*
X18521428Y-3221428D01*
X18616666Y-3173809D01*
X18664285Y-3126190D01*
X18711904Y-3030952D01*
X19682142Y-8977380D02*
X19348809Y-8501190D01*
X19110714Y-8977380D02*
X19110714Y-7977380D01*
X19491666Y-7977380D01*
X19586904Y-8025000D01*
X19634523Y-8072619D01*
X19682142Y-8167857D01*
X19682142Y-8310714D01*
X19634523Y-8405952D01*
X19586904Y-8453571D01*
X19491666Y-8501190D01*
X19110714Y-8501190D01*
X20634523Y-8977380D02*
X20063095Y-8977380D01*
X20348809Y-8977380D02*
X20348809Y-7977380D01*
X20253571Y-8120238D01*
X20158333Y-8215476D01*
X20063095Y-8263095D01*
X21205952Y-8405952D02*
X21110714Y-8358333D01*
X21063095Y-8310714D01*
X21015476Y-8215476D01*
X21015476Y-8167857D01*
X21063095Y-8072619D01*
X21110714Y-8025000D01*
X21205952Y-7977380D01*
X21396428Y-7977380D01*
X21491666Y-8025000D01*
X21539285Y-8072619D01*
X21586904Y-8167857D01*
X21586904Y-8215476D01*
X21539285Y-8310714D01*
X21491666Y-8358333D01*
X21396428Y-8405952D01*
X21205952Y-8405952D01*
X21110714Y-8453571D01*
X21063095Y-8501190D01*
X21015476Y-8596428D01*
X21015476Y-8786904D01*
X21063095Y-8882142D01*
X21110714Y-8929761D01*
X21205952Y-8977380D01*
X21396428Y-8977380D01*
X21491666Y-8929761D01*
X21539285Y-8882142D01*
X21586904Y-8786904D01*
X21586904Y-8596428D01*
X21539285Y-8501190D01*
X21491666Y-8453571D01*
X21396428Y-8405952D01*
X19682142Y-11477380D02*
X19348809Y-11001190D01*
X19110714Y-11477380D02*
X19110714Y-10477380D01*
X19491666Y-10477380D01*
X19586904Y-10525000D01*
X19634523Y-10572619D01*
X19682142Y-10667857D01*
X19682142Y-10810714D01*
X19634523Y-10905952D01*
X19586904Y-10953571D01*
X19491666Y-11001190D01*
X19110714Y-11001190D01*
X20634523Y-11477380D02*
X20063095Y-11477380D01*
X20348809Y-11477380D02*
X20348809Y-10477380D01*
X20253571Y-10620238D01*
X20158333Y-10715476D01*
X20063095Y-10763095D01*
X20967857Y-10477380D02*
X21634523Y-10477380D01*
X21205952Y-11477380D01*
X-6792857Y-2402380D02*
X-7126190Y-1926190D01*
X-7364285Y-2402380D02*
X-7364285Y-1402380D01*
X-6983333Y-1402380D01*
X-6888095Y-1450000D01*
X-6840476Y-1497619D01*
X-6792857Y-1592857D01*
X-6792857Y-1735714D01*
X-6840476Y-1830952D01*
X-6888095Y-1878571D01*
X-6983333Y-1926190D01*
X-7364285Y-1926190D01*
X-5840476Y-2402380D02*
X-6411904Y-2402380D01*
X-6126190Y-2402380D02*
X-6126190Y-1402380D01*
X-6221428Y-1545238D01*
X-6316666Y-1640476D01*
X-6411904Y-1688095D01*
X-4983333Y-1402380D02*
X-5173809Y-1402380D01*
X-5269047Y-1450000D01*
X-5316666Y-1497619D01*
X-5411904Y-1640476D01*
X-5459523Y-1830952D01*
X-5459523Y-2211904D01*
X-5411904Y-2307142D01*
X-5364285Y-2354761D01*
X-5269047Y-2402380D01*
X-5078571Y-2402380D01*
X-4983333Y-2354761D01*
X-4935714Y-2307142D01*
X-4888095Y-2211904D01*
X-4888095Y-1973809D01*
X-4935714Y-1878571D01*
X-4983333Y-1830952D01*
X-5078571Y-1783333D01*
X-5269047Y-1783333D01*
X-5364285Y-1830952D01*
X-5411904Y-1878571D01*
X-5459523Y-1973809D01*
X37357142Y-24042380D02*
X37023809Y-23566190D01*
X36785714Y-24042380D02*
X36785714Y-23042380D01*
X37166666Y-23042380D01*
X37261904Y-23090000D01*
X37309523Y-23137619D01*
X37357142Y-23232857D01*
X37357142Y-23375714D01*
X37309523Y-23470952D01*
X37261904Y-23518571D01*
X37166666Y-23566190D01*
X36785714Y-23566190D01*
X38309523Y-24042380D02*
X37738095Y-24042380D01*
X38023809Y-24042380D02*
X38023809Y-23042380D01*
X37928571Y-23185238D01*
X37833333Y-23280476D01*
X37738095Y-23328095D01*
X39214285Y-23042380D02*
X38738095Y-23042380D01*
X38690476Y-23518571D01*
X38738095Y-23470952D01*
X38833333Y-23423333D01*
X39071428Y-23423333D01*
X39166666Y-23470952D01*
X39214285Y-23518571D01*
X39261904Y-23613809D01*
X39261904Y-23851904D01*
X39214285Y-23947142D01*
X39166666Y-23994761D01*
X39071428Y-24042380D01*
X38833333Y-24042380D01*
X38738095Y-23994761D01*
X38690476Y-23947142D01*
X37402142Y-19462380D02*
X37068809Y-18986190D01*
X36830714Y-19462380D02*
X36830714Y-18462380D01*
X37211666Y-18462380D01*
X37306904Y-18510000D01*
X37354523Y-18557619D01*
X37402142Y-18652857D01*
X37402142Y-18795714D01*
X37354523Y-18890952D01*
X37306904Y-18938571D01*
X37211666Y-18986190D01*
X36830714Y-18986190D01*
X38354523Y-19462380D02*
X37783095Y-19462380D01*
X38068809Y-19462380D02*
X38068809Y-18462380D01*
X37973571Y-18605238D01*
X37878333Y-18700476D01*
X37783095Y-18748095D01*
X39211666Y-18795714D02*
X39211666Y-19462380D01*
X38973571Y-18414761D02*
X38735476Y-19129047D01*
X39354523Y-19129047D01*
X32202380Y-19442857D02*
X31726190Y-19776190D01*
X32202380Y-20014285D02*
X31202380Y-20014285D01*
X31202380Y-19633333D01*
X31250000Y-19538095D01*
X31297619Y-19490476D01*
X31392857Y-19442857D01*
X31535714Y-19442857D01*
X31630952Y-19490476D01*
X31678571Y-19538095D01*
X31726190Y-19633333D01*
X31726190Y-20014285D01*
X32202380Y-18490476D02*
X32202380Y-19061904D01*
X32202380Y-18776190D02*
X31202380Y-18776190D01*
X31345238Y-18871428D01*
X31440476Y-18966666D01*
X31488095Y-19061904D01*
X31202380Y-18157142D02*
X31202380Y-17538095D01*
X31583333Y-17871428D01*
X31583333Y-17728571D01*
X31630952Y-17633333D01*
X31678571Y-17585714D01*
X31773809Y-17538095D01*
X32011904Y-17538095D01*
X32107142Y-17585714D01*
X32154761Y-17633333D01*
X32202380Y-17728571D01*
X32202380Y-18014285D01*
X32154761Y-18109523D01*
X32107142Y-18157142D01*
X33552380Y-19442857D02*
X33076190Y-19776190D01*
X33552380Y-20014285D02*
X32552380Y-20014285D01*
X32552380Y-19633333D01*
X32600000Y-19538095D01*
X32647619Y-19490476D01*
X32742857Y-19442857D01*
X32885714Y-19442857D01*
X32980952Y-19490476D01*
X33028571Y-19538095D01*
X33076190Y-19633333D01*
X33076190Y-20014285D01*
X33552380Y-18490476D02*
X33552380Y-19061904D01*
X33552380Y-18776190D02*
X32552380Y-18776190D01*
X32695238Y-18871428D01*
X32790476Y-18966666D01*
X32838095Y-19061904D01*
X32647619Y-18109523D02*
X32600000Y-18061904D01*
X32552380Y-17966666D01*
X32552380Y-17728571D01*
X32600000Y-17633333D01*
X32647619Y-17585714D01*
X32742857Y-17538095D01*
X32838095Y-17538095D01*
X32980952Y-17585714D01*
X33552380Y-18157142D01*
X33552380Y-17538095D01*
X24402380Y-19442857D02*
X23926190Y-19776190D01*
X24402380Y-20014285D02*
X23402380Y-20014285D01*
X23402380Y-19633333D01*
X23450000Y-19538095D01*
X23497619Y-19490476D01*
X23592857Y-19442857D01*
X23735714Y-19442857D01*
X23830952Y-19490476D01*
X23878571Y-19538095D01*
X23926190Y-19633333D01*
X23926190Y-20014285D01*
X24402380Y-18490476D02*
X24402380Y-19061904D01*
X24402380Y-18776190D02*
X23402380Y-18776190D01*
X23545238Y-18871428D01*
X23640476Y-18966666D01*
X23688095Y-19061904D01*
X24402380Y-17538095D02*
X24402380Y-18109523D01*
X24402380Y-17823809D02*
X23402380Y-17823809D01*
X23545238Y-17919047D01*
X23640476Y-18014285D01*
X23688095Y-18109523D01*
X27052380Y-19492857D02*
X26576190Y-19826190D01*
X27052380Y-20064285D02*
X26052380Y-20064285D01*
X26052380Y-19683333D01*
X26100000Y-19588095D01*
X26147619Y-19540476D01*
X26242857Y-19492857D01*
X26385714Y-19492857D01*
X26480952Y-19540476D01*
X26528571Y-19588095D01*
X26576190Y-19683333D01*
X26576190Y-20064285D01*
X27052380Y-18540476D02*
X27052380Y-19111904D01*
X27052380Y-18826190D02*
X26052380Y-18826190D01*
X26195238Y-18921428D01*
X26290476Y-19016666D01*
X26338095Y-19111904D01*
X26052380Y-17921428D02*
X26052380Y-17826190D01*
X26100000Y-17730952D01*
X26147619Y-17683333D01*
X26242857Y-17635714D01*
X26433333Y-17588095D01*
X26671428Y-17588095D01*
X26861904Y-17635714D01*
X26957142Y-17683333D01*
X27004761Y-17730952D01*
X27052380Y-17826190D01*
X27052380Y-17921428D01*
X27004761Y-18016666D01*
X26957142Y-18064285D01*
X26861904Y-18111904D01*
X26671428Y-18159523D01*
X26433333Y-18159523D01*
X26242857Y-18111904D01*
X26147619Y-18064285D01*
X26100000Y-18016666D01*
X26052380Y-17921428D01*
X34208333Y-14252380D02*
X33875000Y-13776190D01*
X33636904Y-14252380D02*
X33636904Y-13252380D01*
X34017857Y-13252380D01*
X34113095Y-13300000D01*
X34160714Y-13347619D01*
X34208333Y-13442857D01*
X34208333Y-13585714D01*
X34160714Y-13680952D01*
X34113095Y-13728571D01*
X34017857Y-13776190D01*
X33636904Y-13776190D01*
X34684523Y-14252380D02*
X34875000Y-14252380D01*
X34970238Y-14204761D01*
X35017857Y-14157142D01*
X35113095Y-14014285D01*
X35160714Y-13823809D01*
X35160714Y-13442857D01*
X35113095Y-13347619D01*
X35065476Y-13300000D01*
X34970238Y-13252380D01*
X34779761Y-13252380D01*
X34684523Y-13300000D01*
X34636904Y-13347619D01*
X34589285Y-13442857D01*
X34589285Y-13680952D01*
X34636904Y-13776190D01*
X34684523Y-13823809D01*
X34779761Y-13871428D01*
X34970238Y-13871428D01*
X35065476Y-13823809D01*
X35113095Y-13776190D01*
X35160714Y-13680952D01*
X27284380Y-3379166D02*
X26808190Y-3712500D01*
X27284380Y-3950595D02*
X26284380Y-3950595D01*
X26284380Y-3569642D01*
X26332000Y-3474404D01*
X26379619Y-3426785D01*
X26474857Y-3379166D01*
X26617714Y-3379166D01*
X26712952Y-3426785D01*
X26760571Y-3474404D01*
X26808190Y-3569642D01*
X26808190Y-3950595D01*
X26712952Y-2807738D02*
X26665333Y-2902976D01*
X26617714Y-2950595D01*
X26522476Y-2998214D01*
X26474857Y-2998214D01*
X26379619Y-2950595D01*
X26332000Y-2902976D01*
X26284380Y-2807738D01*
X26284380Y-2617261D01*
X26332000Y-2522023D01*
X26379619Y-2474404D01*
X26474857Y-2426785D01*
X26522476Y-2426785D01*
X26617714Y-2474404D01*
X26665333Y-2522023D01*
X26712952Y-2617261D01*
X26712952Y-2807738D01*
X26760571Y-2902976D01*
X26808190Y-2950595D01*
X26903428Y-2998214D01*
X27093904Y-2998214D01*
X27189142Y-2950595D01*
X27236761Y-2902976D01*
X27284380Y-2807738D01*
X27284380Y-2617261D01*
X27236761Y-2522023D01*
X27189142Y-2474404D01*
X27093904Y-2426785D01*
X26903428Y-2426785D01*
X26808190Y-2474404D01*
X26760571Y-2522023D01*
X26712952Y-2617261D01*
X22588380Y-3329166D02*
X22112190Y-3662500D01*
X22588380Y-3900595D02*
X21588380Y-3900595D01*
X21588380Y-3519642D01*
X21636000Y-3424404D01*
X21683619Y-3376785D01*
X21778857Y-3329166D01*
X21921714Y-3329166D01*
X22016952Y-3376785D01*
X22064571Y-3424404D01*
X22112190Y-3519642D01*
X22112190Y-3900595D01*
X21588380Y-2995833D02*
X21588380Y-2329166D01*
X22588380Y-2757738D01*
X21038380Y-3304166D02*
X20562190Y-3637500D01*
X21038380Y-3875595D02*
X20038380Y-3875595D01*
X20038380Y-3494642D01*
X20086000Y-3399404D01*
X20133619Y-3351785D01*
X20228857Y-3304166D01*
X20371714Y-3304166D01*
X20466952Y-3351785D01*
X20514571Y-3399404D01*
X20562190Y-3494642D01*
X20562190Y-3875595D01*
X20038380Y-2447023D02*
X20038380Y-2637500D01*
X20086000Y-2732738D01*
X20133619Y-2780357D01*
X20276476Y-2875595D01*
X20466952Y-2923214D01*
X20847904Y-2923214D01*
X20943142Y-2875595D01*
X20990761Y-2827976D01*
X21038380Y-2732738D01*
X21038380Y-2542261D01*
X20990761Y-2447023D01*
X20943142Y-2399404D01*
X20847904Y-2351785D01*
X20609809Y-2351785D01*
X20514571Y-2399404D01*
X20466952Y-2447023D01*
X20419333Y-2542261D01*
X20419333Y-2732738D01*
X20466952Y-2827976D01*
X20514571Y-2875595D01*
X20609809Y-2923214D01*
X24184380Y-3366666D02*
X23708190Y-3700000D01*
X24184380Y-3938095D02*
X23184380Y-3938095D01*
X23184380Y-3557142D01*
X23232000Y-3461904D01*
X23279619Y-3414285D01*
X23374857Y-3366666D01*
X23517714Y-3366666D01*
X23612952Y-3414285D01*
X23660571Y-3461904D01*
X23708190Y-3557142D01*
X23708190Y-3938095D01*
X23184380Y-2461904D02*
X23184380Y-2938095D01*
X23660571Y-2985714D01*
X23612952Y-2938095D01*
X23565333Y-2842857D01*
X23565333Y-2604761D01*
X23612952Y-2509523D01*
X23660571Y-2461904D01*
X23755809Y-2414285D01*
X23993904Y-2414285D01*
X24089142Y-2461904D01*
X24136761Y-2509523D01*
X24184380Y-2604761D01*
X24184380Y-2842857D01*
X24136761Y-2938095D01*
X24089142Y-2985714D01*
X31934380Y-3254166D02*
X31458190Y-3587500D01*
X31934380Y-3825595D02*
X30934380Y-3825595D01*
X30934380Y-3444642D01*
X30982000Y-3349404D01*
X31029619Y-3301785D01*
X31124857Y-3254166D01*
X31267714Y-3254166D01*
X31362952Y-3301785D01*
X31410571Y-3349404D01*
X31458190Y-3444642D01*
X31458190Y-3825595D01*
X31267714Y-2397023D02*
X31934380Y-2397023D01*
X30886761Y-2635119D02*
X31601047Y-2873214D01*
X31601047Y-2254166D01*
X30384380Y-3316666D02*
X29908190Y-3650000D01*
X30384380Y-3888095D02*
X29384380Y-3888095D01*
X29384380Y-3507142D01*
X29432000Y-3411904D01*
X29479619Y-3364285D01*
X29574857Y-3316666D01*
X29717714Y-3316666D01*
X29812952Y-3364285D01*
X29860571Y-3411904D01*
X29908190Y-3507142D01*
X29908190Y-3888095D01*
X29384380Y-2983333D02*
X29384380Y-2364285D01*
X29765333Y-2697619D01*
X29765333Y-2554761D01*
X29812952Y-2459523D01*
X29860571Y-2411904D01*
X29955809Y-2364285D01*
X30193904Y-2364285D01*
X30289142Y-2411904D01*
X30336761Y-2459523D01*
X30384380Y-2554761D01*
X30384380Y-2840476D01*
X30336761Y-2935714D01*
X30289142Y-2983333D01*
X-6792857Y367857D02*
X-6840476Y320238D01*
X-6983333Y272619D01*
X-7078571Y272619D01*
X-7221428Y320238D01*
X-7316666Y415476D01*
X-7364285Y510714D01*
X-7411904Y701190D01*
X-7411904Y844047D01*
X-7364285Y1034523D01*
X-7316666Y1129761D01*
X-7221428Y1225000D01*
X-7078571Y1272619D01*
X-6983333Y1272619D01*
X-6840476Y1225000D01*
X-6792857Y1177380D01*
X-5840476Y272619D02*
X-6411904Y272619D01*
X-6126190Y272619D02*
X-6126190Y1272619D01*
X-6221428Y1129761D01*
X-6316666Y1034523D01*
X-6411904Y986904D01*
X-4983333Y939285D02*
X-4983333Y272619D01*
X-5221428Y1320238D02*
X-5459523Y605952D01*
X-4840476Y605952D01*
X-6817857Y-957142D02*
X-6865476Y-1004761D01*
X-7008333Y-1052380D01*
X-7103571Y-1052380D01*
X-7246428Y-1004761D01*
X-7341666Y-909523D01*
X-7389285Y-814285D01*
X-7436904Y-623809D01*
X-7436904Y-480952D01*
X-7389285Y-290476D01*
X-7341666Y-195238D01*
X-7246428Y-100000D01*
X-7103571Y-52380D01*
X-7008333Y-52380D01*
X-6865476Y-100000D01*
X-6817857Y-147619D01*
X-5865476Y-1052380D02*
X-6436904Y-1052380D01*
X-6151190Y-1052380D02*
X-6151190Y-52380D01*
X-6246428Y-195238D01*
X-6341666Y-290476D01*
X-6436904Y-338095D01*
X-5532142Y-52380D02*
X-4913095Y-52380D01*
X-5246428Y-433333D01*
X-5103571Y-433333D01*
X-5008333Y-480952D01*
X-4960714Y-528571D01*
X-4913095Y-623809D01*
X-4913095Y-861904D01*
X-4960714Y-957142D01*
X-5008333Y-1004761D01*
X-5103571Y-1052380D01*
X-5389285Y-1052380D01*
X-5484523Y-1004761D01*
X-5532142Y-957142D01*
X34182142Y-10957142D02*
X34134523Y-11004761D01*
X33991666Y-11052380D01*
X33896428Y-11052380D01*
X33753571Y-11004761D01*
X33658333Y-10909523D01*
X33610714Y-10814285D01*
X33563095Y-10623809D01*
X33563095Y-10480952D01*
X33610714Y-10290476D01*
X33658333Y-10195238D01*
X33753571Y-10100000D01*
X33896428Y-10052380D01*
X33991666Y-10052380D01*
X34134523Y-10100000D01*
X34182142Y-10147619D01*
X35134523Y-11052380D02*
X34563095Y-11052380D01*
X34848809Y-11052380D02*
X34848809Y-10052380D01*
X34753571Y-10195238D01*
X34658333Y-10290476D01*
X34563095Y-10338095D01*
X35515476Y-10147619D02*
X35563095Y-10100000D01*
X35658333Y-10052380D01*
X35896428Y-10052380D01*
X35991666Y-10100000D01*
X36039285Y-10147619D01*
X36086904Y-10242857D01*
X36086904Y-10338095D01*
X36039285Y-10480952D01*
X35467857Y-11052380D01*
X36086904Y-11052380D01*
X28739142Y-3305357D02*
X28786761Y-3352976D01*
X28834380Y-3495833D01*
X28834380Y-3591071D01*
X28786761Y-3733928D01*
X28691523Y-3829166D01*
X28596285Y-3876785D01*
X28405809Y-3924404D01*
X28262952Y-3924404D01*
X28072476Y-3876785D01*
X27977238Y-3829166D01*
X27882000Y-3733928D01*
X27834380Y-3591071D01*
X27834380Y-3495833D01*
X27882000Y-3352976D01*
X27929619Y-3305357D01*
X28834380Y-2352976D02*
X28834380Y-2924404D01*
X28834380Y-2638690D02*
X27834380Y-2638690D01*
X27977238Y-2733928D01*
X28072476Y-2829166D01*
X28120095Y-2924404D01*
X28834380Y-1400595D02*
X28834380Y-1972023D01*
X28834380Y-1686309D02*
X27834380Y-1686309D01*
X27977238Y-1781547D01*
X28072476Y-1876785D01*
X28120095Y-1972023D01*
X24507142Y-16142857D02*
X24554761Y-16190476D01*
X24602380Y-16333333D01*
X24602380Y-16428571D01*
X24554761Y-16571428D01*
X24459523Y-16666666D01*
X24364285Y-16714285D01*
X24173809Y-16761904D01*
X24030952Y-16761904D01*
X23840476Y-16714285D01*
X23745238Y-16666666D01*
X23650000Y-16571428D01*
X23602380Y-16428571D01*
X23602380Y-16333333D01*
X23650000Y-16190476D01*
X23697619Y-16142857D01*
X24602380Y-15190476D02*
X24602380Y-15761904D01*
X24602380Y-15476190D02*
X23602380Y-15476190D01*
X23745238Y-15571428D01*
X23840476Y-15666666D01*
X23888095Y-15761904D01*
X23602380Y-14571428D02*
X23602380Y-14476190D01*
X23650000Y-14380952D01*
X23697619Y-14333333D01*
X23792857Y-14285714D01*
X23983333Y-14238095D01*
X24221428Y-14238095D01*
X24411904Y-14285714D01*
X24507142Y-14333333D01*
X24554761Y-14380952D01*
X24602380Y-14476190D01*
X24602380Y-14571428D01*
X24554761Y-14666666D01*
X24507142Y-14714285D01*
X24411904Y-14761904D01*
X24221428Y-14809523D01*
X23983333Y-14809523D01*
X23792857Y-14761904D01*
X23697619Y-14714285D01*
X23650000Y-14666666D01*
X23602380Y-14571428D01*
X34208333Y-12607142D02*
X34160714Y-12654761D01*
X34017857Y-12702380D01*
X33922619Y-12702380D01*
X33779761Y-12654761D01*
X33684523Y-12559523D01*
X33636904Y-12464285D01*
X33589285Y-12273809D01*
X33589285Y-12130952D01*
X33636904Y-11940476D01*
X33684523Y-11845238D01*
X33779761Y-11750000D01*
X33922619Y-11702380D01*
X34017857Y-11702380D01*
X34160714Y-11750000D01*
X34208333Y-11797619D01*
X34684523Y-12702380D02*
X34875000Y-12702380D01*
X34970238Y-12654761D01*
X35017857Y-12607142D01*
X35113095Y-12464285D01*
X35160714Y-12273809D01*
X35160714Y-11892857D01*
X35113095Y-11797619D01*
X35065476Y-11750000D01*
X34970238Y-11702380D01*
X34779761Y-11702380D01*
X34684523Y-11750000D01*
X34636904Y-11797619D01*
X34589285Y-11892857D01*
X34589285Y-12130952D01*
X34636904Y-12226190D01*
X34684523Y-12273809D01*
X34779761Y-12321428D01*
X34970238Y-12321428D01*
X35065476Y-12273809D01*
X35113095Y-12226190D01*
X35160714Y-12130952D01*
X20183333Y-19657142D02*
X20135714Y-19704761D01*
X19992857Y-19752380D01*
X19897619Y-19752380D01*
X19754761Y-19704761D01*
X19659523Y-19609523D01*
X19611904Y-19514285D01*
X19564285Y-19323809D01*
X19564285Y-19180952D01*
X19611904Y-18990476D01*
X19659523Y-18895238D01*
X19754761Y-18800000D01*
X19897619Y-18752380D01*
X19992857Y-18752380D01*
X20135714Y-18800000D01*
X20183333Y-18847619D01*
X20754761Y-19180952D02*
X20659523Y-19133333D01*
X20611904Y-19085714D01*
X20564285Y-18990476D01*
X20564285Y-18942857D01*
X20611904Y-18847619D01*
X20659523Y-18800000D01*
X20754761Y-18752380D01*
X20945238Y-18752380D01*
X21040476Y-18800000D01*
X21088095Y-18847619D01*
X21135714Y-18942857D01*
X21135714Y-18990476D01*
X21088095Y-19085714D01*
X21040476Y-19133333D01*
X20945238Y-19180952D01*
X20754761Y-19180952D01*
X20659523Y-19228571D01*
X20611904Y-19276190D01*
X20564285Y-19371428D01*
X20564285Y-19561904D01*
X20611904Y-19657142D01*
X20659523Y-19704761D01*
X20754761Y-19752380D01*
X20945238Y-19752380D01*
X21040476Y-19704761D01*
X21088095Y-19657142D01*
X21135714Y-19561904D01*
X21135714Y-19371428D01*
X21088095Y-19276190D01*
X21040476Y-19228571D01*
X20945238Y-19180952D01*
X11013095Y-27227380D02*
X11013095Y-28036904D01*
X11060714Y-28132142D01*
X11108333Y-28179761D01*
X11203571Y-28227380D01*
X11394047Y-28227380D01*
X11489285Y-28179761D01*
X11536904Y-28132142D01*
X11584523Y-28036904D01*
X11584523Y-27227380D01*
X12584523Y-28227380D02*
X12013095Y-28227380D01*
X12298809Y-28227380D02*
X12298809Y-27227380D01*
X12203571Y-27370238D01*
X12108333Y-27465476D01*
X12013095Y-27513095D01*
X15383333Y-41289880D02*
X15050000Y-40813690D01*
X14811904Y-41289880D02*
X14811904Y-40289880D01*
X15192857Y-40289880D01*
X15288095Y-40337500D01*
X15335714Y-40385119D01*
X15383333Y-40480357D01*
X15383333Y-40623214D01*
X15335714Y-40718452D01*
X15288095Y-40766071D01*
X15192857Y-40813690D01*
X14811904Y-40813690D01*
X15764285Y-40385119D02*
X15811904Y-40337500D01*
X15907142Y-40289880D01*
X16145238Y-40289880D01*
X16240476Y-40337500D01*
X16288095Y-40385119D01*
X16335714Y-40480357D01*
X16335714Y-40575595D01*
X16288095Y-40718452D01*
X15716666Y-41289880D01*
X16335714Y-41289880D01*
X3202380Y-35841666D02*
X2726190Y-36175000D01*
X3202380Y-36413095D02*
X2202380Y-36413095D01*
X2202380Y-36032142D01*
X2250000Y-35936904D01*
X2297619Y-35889285D01*
X2392857Y-35841666D01*
X2535714Y-35841666D01*
X2630952Y-35889285D01*
X2678571Y-35936904D01*
X2726190Y-36032142D01*
X2726190Y-36413095D01*
X2202380Y-35222619D02*
X2202380Y-35127380D01*
X2250000Y-35032142D01*
X2297619Y-34984523D01*
X2392857Y-34936904D01*
X2583333Y-34889285D01*
X2821428Y-34889285D01*
X3011904Y-34936904D01*
X3107142Y-34984523D01*
X3154761Y-35032142D01*
X3202380Y-35127380D01*
X3202380Y-35222619D01*
X3154761Y-35317857D01*
X3107142Y-35365476D01*
X3011904Y-35413095D01*
X2821428Y-35460714D01*
X2583333Y-35460714D01*
X2392857Y-35413095D01*
X2297619Y-35365476D01*
X2250000Y-35317857D01*
X2202380Y-35222619D01*
X14942380Y-25263333D02*
X15656666Y-25263333D01*
X15799523Y-25310952D01*
X15894761Y-25406190D01*
X15942380Y-25549047D01*
X15942380Y-25644285D01*
X14942380Y-24882380D02*
X14942380Y-24263333D01*
X15323333Y-24596666D01*
X15323333Y-24453809D01*
X15370952Y-24358571D01*
X15418571Y-24310952D01*
X15513809Y-24263333D01*
X15751904Y-24263333D01*
X15847142Y-24310952D01*
X15894761Y-24358571D01*
X15942380Y-24453809D01*
X15942380Y-24739523D01*
X15894761Y-24834761D01*
X15847142Y-24882380D01*
X19966666Y-17528571D02*
X19633333Y-17528571D01*
X19633333Y-18052380D02*
X19633333Y-17052380D01*
X20109523Y-17052380D01*
X20823809Y-17528571D02*
X20966666Y-17576190D01*
X21014285Y-17623809D01*
X21061904Y-17719047D01*
X21061904Y-17861904D01*
X21014285Y-17957142D01*
X20966666Y-18004761D01*
X20871428Y-18052380D01*
X20490476Y-18052380D01*
X20490476Y-17052380D01*
X20823809Y-17052380D01*
X20919047Y-17100000D01*
X20966666Y-17147619D01*
X21014285Y-17242857D01*
X21014285Y-17338095D01*
X20966666Y-17433333D01*
X20919047Y-17480952D01*
X20823809Y-17528571D01*
X20490476Y-17528571D01*
X22014285Y-18052380D02*
X21442857Y-18052380D01*
X21728571Y-18052380D02*
X21728571Y-17052380D01*
X21633333Y-17195238D01*
X21538095Y-17290476D01*
X21442857Y-17338095D01*
X12686904Y-41314880D02*
X12686904Y-40314880D01*
X12925000Y-40314880D01*
X13067857Y-40362500D01*
X13163095Y-40457738D01*
X13210714Y-40552976D01*
X13258333Y-40743452D01*
X13258333Y-40886309D01*
X13210714Y-41076785D01*
X13163095Y-41172023D01*
X13067857Y-41267261D01*
X12925000Y-41314880D01*
X12686904Y-41314880D01*
X13639285Y-40410119D02*
X13686904Y-40362500D01*
X13782142Y-40314880D01*
X14020238Y-40314880D01*
X14115476Y-40362500D01*
X14163095Y-40410119D01*
X14210714Y-40505357D01*
X14210714Y-40600595D01*
X14163095Y-40743452D01*
X13591666Y-41314880D01*
X14210714Y-41314880D01*
X20273333Y-16157142D02*
X20225714Y-16204761D01*
X20082857Y-16252380D01*
X19987619Y-16252380D01*
X19844761Y-16204761D01*
X19749523Y-16109523D01*
X19701904Y-16014285D01*
X19654285Y-15823809D01*
X19654285Y-15680952D01*
X19701904Y-15490476D01*
X19749523Y-15395238D01*
X19844761Y-15300000D01*
X19987619Y-15252380D01*
X20082857Y-15252380D01*
X20225714Y-15300000D01*
X20273333Y-15347619D01*
X21130476Y-15252380D02*
X20940000Y-15252380D01*
X20844761Y-15300000D01*
X20797142Y-15347619D01*
X20701904Y-15490476D01*
X20654285Y-15680952D01*
X20654285Y-16061904D01*
X20701904Y-16157142D01*
X20749523Y-16204761D01*
X20844761Y-16252380D01*
X21035238Y-16252380D01*
X21130476Y-16204761D01*
X21178095Y-16157142D01*
X21225714Y-16061904D01*
X21225714Y-15823809D01*
X21178095Y-15728571D01*
X21130476Y-15680952D01*
X21035238Y-15633333D01*
X20844761Y-15633333D01*
X20749523Y-15680952D01*
X20701904Y-15728571D01*
X20654285Y-15823809D01*
X5983333Y-28757142D02*
X5935714Y-28804761D01*
X5792857Y-28852380D01*
X5697619Y-28852380D01*
X5554761Y-28804761D01*
X5459523Y-28709523D01*
X5411904Y-28614285D01*
X5364285Y-28423809D01*
X5364285Y-28280952D01*
X5411904Y-28090476D01*
X5459523Y-27995238D01*
X5554761Y-27900000D01*
X5697619Y-27852380D01*
X5792857Y-27852380D01*
X5935714Y-27900000D01*
X5983333Y-27947619D01*
X6840476Y-28185714D02*
X6840476Y-28852380D01*
X6602380Y-27804761D02*
X6364285Y-28519047D01*
X6983333Y-28519047D01*
X1494642Y-30166666D02*
X1542261Y-30214285D01*
X1589880Y-30357142D01*
X1589880Y-30452380D01*
X1542261Y-30595238D01*
X1447023Y-30690476D01*
X1351785Y-30738095D01*
X1161309Y-30785714D01*
X1018452Y-30785714D01*
X827976Y-30738095D01*
X732738Y-30690476D01*
X637500Y-30595238D01*
X589880Y-30452380D01*
X589880Y-30357142D01*
X637500Y-30214285D01*
X685119Y-30166666D01*
X589880Y-29833333D02*
X589880Y-29214285D01*
X970833Y-29547619D01*
X970833Y-29404761D01*
X1018452Y-29309523D01*
X1066071Y-29261904D01*
X1161309Y-29214285D01*
X1399404Y-29214285D01*
X1494642Y-29261904D01*
X1542261Y-29309523D01*
X1589880Y-29404761D01*
X1589880Y-29690476D01*
X1542261Y-29785714D01*
X1494642Y-29833333D01*
X1482142Y-32066666D02*
X1529761Y-32114285D01*
X1577380Y-32257142D01*
X1577380Y-32352380D01*
X1529761Y-32495238D01*
X1434523Y-32590476D01*
X1339285Y-32638095D01*
X1148809Y-32685714D01*
X1005952Y-32685714D01*
X815476Y-32638095D01*
X720238Y-32590476D01*
X625000Y-32495238D01*
X577380Y-32352380D01*
X577380Y-32257142D01*
X625000Y-32114285D01*
X672619Y-32066666D01*
X672619Y-31685714D02*
X625000Y-31638095D01*
X577380Y-31542857D01*
X577380Y-31304761D01*
X625000Y-31209523D01*
X672619Y-31161904D01*
X767857Y-31114285D01*
X863095Y-31114285D01*
X1005952Y-31161904D01*
X1577380Y-31733333D01*
X1577380Y-31114285D01*
X3132142Y-34016666D02*
X3179761Y-34064285D01*
X3227380Y-34207142D01*
X3227380Y-34302380D01*
X3179761Y-34445238D01*
X3084523Y-34540476D01*
X2989285Y-34588095D01*
X2798809Y-34635714D01*
X2655952Y-34635714D01*
X2465476Y-34588095D01*
X2370238Y-34540476D01*
X2275000Y-34445238D01*
X2227380Y-34302380D01*
X2227380Y-34207142D01*
X2275000Y-34064285D01*
X2322619Y-34016666D01*
X3227380Y-33064285D02*
X3227380Y-33635714D01*
X3227380Y-33350000D02*
X2227380Y-33350000D01*
X2370238Y-33445238D01*
X2465476Y-33540476D01*
X2513095Y-33635714D01*
M02*
