M48
; DRILL file {KiCad (5.1.5)-3} date 9/29/2020 9:06:51 PM
; FORMAT={-:-/ absolute / inch / decimal}
; #@! TF.CreationDate,2020-09-29T21:06:51-07:00
; #@! TF.GenerationSoftware,Kicad,Pcbnew,(5.1.5)-3
FMAT,2
INCH
T1C0.0118
T2C0.0350
T3C0.0390
T4C0.0394
T5C0.0402
T6C0.0510
T7C0.0618
T8C0.0866
T9C0.1280
%
G90
G05
T1
X-0.2281Y-0.0825
X-0.19Y-0.5
X-0.1874Y-0.7618
X-0.1295Y-0.7984
X-0.1031Y-0.8362
X-0.065Y-0.7937
X-0.0411Y-0.5825
X-0.0256Y-0.4626
X-0.0205Y-1.2874
X-0.0071Y-0.6929
X0.0689Y-1.3504
X0.1004Y-0.4528
X0.1024Y-0.3839
X0.1043Y-0.3091
X0.1201Y-0.4193
X0.126Y-0.3465
X0.1437Y-0.3091
X0.1437Y-0.4528
X0.1457Y-0.3839
X0.1594Y-0.4193
X0.1654Y-0.3465
X0.1791Y-0.4528
X0.1811Y-0.3839
X0.1831Y-0.3091
X0.1969Y-0.4193
X0.2028Y-0.3465
X0.2146Y-0.4508
X0.2165Y-0.3819
X0.2185Y-0.3091
X0.2303Y-0.4193
X0.2362Y-0.3465
X0.2453Y-0.8791
X0.252Y-0.4528
X0.2539Y-0.3839
X0.2559Y-0.3091
X0.3366Y-1.4252
X0.3504Y-0.0846
X0.4037Y-1.258
X0.4448Y-1.3972
X0.4724Y-0.1142
X0.4813Y-0.4124
X0.5516Y-0.7795
X0.6236Y-0.6224
X0.64Y-0.5
X0.66Y-0.23
X0.6634Y-0.29
X0.68Y-0.82
X0.6851Y-1.5795
X0.6932Y-0.0768
X0.7075Y-1.5988
X0.7425Y-1.6181
X0.76Y-0.27
X0.77Y-0.39
X0.81Y-0.88
X0.811Y-0.5807
X0.84Y-0.01
X0.85Y-0.6677
X0.8634Y0.1102
X0.8715Y-0.1215
X0.88Y0.02
X0.9Y-0.01
X0.9Y-0.33
X0.9343Y-0.3057
X1.0098Y-0.4272
X1.0098Y-0.4882
X1.0276Y-0.4567
X1.03Y-0.11
X1.0406Y0.2063
X1.0433Y-0.4272
X1.0453Y-0.4882
X1.0512Y-0.6683
X1.0512Y-0.8376
X1.061Y-0.4567
X1.0787Y-0.4272
X1.0787Y-0.4882
X1.0941Y0.1291
X1.13Y-0.58
X1.165Y-0.498
X1.1772Y-0.4272
X1.1843Y-0.4713
X1.2874Y-0.6614
X1.298Y0.185
X1.3346Y-0.8709
X1.3396Y-0.4793
X1.36Y-0.78
X1.3696Y-0.6806
X1.3736Y-0.2136
X1.3736Y-0.3064
X1.3878Y-0.8425
X1.4531Y-1.0453
X1.4665Y-0.8587
X1.4827Y-0.6874
X1.4941Y-1.3996
X1.5374Y-1.4012
X1.5386Y-0.8878
X1.587Y-1.3976
X1.5878Y-0.3441
X1.624Y-0.1724
X1.6614Y-1.3575
T2
X0.8447Y-1.0236
X0.8947Y-0.9236
X0.9447Y-1.0236
X0.9947Y-0.9236
X1.0447Y-1.0236
X1.0947Y-0.9236
X1.1447Y-1.0236
X1.1947Y-0.9236
T3
X-0.1791Y-0.9902
X-0.1791Y-1.1673
T4
X0.1008Y-0.9315
X0.1008Y-1.0315
X0.2008Y-0.9315
X0.2008Y-1.0315
X0.3008Y-0.9315
X0.3008Y-1.0315
X0.4008Y-0.9315
X0.4008Y-1.0315
X0.5008Y-0.9315
X0.5008Y-1.0315
T5
X0.7707Y-1.4665
X0.8671Y-1.4067
X1.1722Y-1.4665
X1.2687Y-1.4067
T6
X-0.0811Y-0.9407
X-0.0811Y-1.2167
T7
X0.7096Y-1.1535
X1.3297Y-1.1535
T8
X1.4941Y0.0453
X-0.124Y-1.4547
T9
X0.7947Y-1.2736
X1.2447Y-1.2736
T0
M30
