G04 #@! TF.GenerationSoftware,KiCad,Pcbnew,(5.1.5)-3*
G04 #@! TF.CreationDate,2019-12-12T17:13:38-08:00*
G04 #@! TF.ProjectId,EsperDNS,45737065-7244-44e5-932e-6b696361645f,rev?*
G04 #@! TF.SameCoordinates,Original*
G04 #@! TF.FileFunction,Legend,Top*
G04 #@! TF.FilePolarity,Positive*
%FSLAX46Y46*%
G04 Gerber Fmt 4.6, Leading zero omitted, Abs format (unit mm)*
G04 Created by KiCad (PCBNEW (5.1.5)-3) date 2019-12-12 17:13:38*
%MOMM*%
%LPD*%
G04 APERTURE LIST*
%ADD10C,0.120000*%
%ADD11C,0.100000*%
%ADD12C,0.127000*%
%ADD13C,0.150000*%
%ADD14C,0.050000*%
G04 APERTURE END LIST*
D10*
X154783800Y-66584700D02*
X154783800Y-66204700D01*
X161203800Y-66584700D02*
X154783800Y-66584700D01*
X161203800Y-84824700D02*
X154783800Y-84824700D01*
X161203800Y-66584700D02*
X161203800Y-84824700D01*
X135458800Y-84824700D02*
X135458800Y-83824700D01*
X136238800Y-84824700D02*
X135458800Y-84824700D01*
X135458800Y-66584700D02*
X135458800Y-67584700D01*
X136238800Y-66584700D02*
X135458800Y-66584700D01*
X145645600Y-97673379D02*
X145645600Y-97347821D01*
X144625600Y-97673379D02*
X144625600Y-97347821D01*
X128870100Y-98548900D02*
G75*
G02X129070100Y-98328900I320000J-90000D01*
G01*
X128870100Y-98548900D02*
X128870100Y-99238900D01*
X130750100Y-99278900D02*
X130110100Y-99278900D01*
X130750100Y-97058900D02*
X130110100Y-97058900D01*
X129070100Y-98328900D02*
X129070100Y-97998900D01*
X131790100Y-98338900D02*
X131790100Y-97998900D01*
X148650200Y-108739200D02*
X149125200Y-108739200D01*
X144905200Y-104519200D02*
X144905200Y-104994200D01*
X145380200Y-104519200D02*
X144905200Y-104519200D01*
X149125200Y-104519200D02*
X149125200Y-104994200D01*
X148650200Y-104519200D02*
X149125200Y-104519200D01*
X144905200Y-108739200D02*
X144905200Y-108264200D01*
X145380200Y-108739200D02*
X144905200Y-108739200D01*
X128158200Y-114254200D02*
X134168200Y-114254200D01*
X130408200Y-121074200D02*
X134168200Y-121074200D01*
X134168200Y-114254200D02*
X134168200Y-115514200D01*
X134168200Y-121074200D02*
X134168200Y-119814200D01*
X131136200Y-59563100D02*
X131136200Y-65663100D01*
X124936200Y-59563100D02*
X131136200Y-59563100D01*
X124936200Y-65663100D02*
X124936200Y-59563100D01*
X131136200Y-65663100D02*
X124936200Y-65663100D01*
X131159300Y-67424400D02*
X131159300Y-73524400D01*
X124959300Y-67424400D02*
X131159300Y-67424400D01*
X124959300Y-73524400D02*
X124959300Y-67424400D01*
X131159300Y-73524400D02*
X124959300Y-73524400D01*
X134837900Y-95603379D02*
X134837900Y-95277821D01*
X133817900Y-95603379D02*
X133817900Y-95277821D01*
X133665400Y-99557621D02*
X133665400Y-99883179D01*
X134685400Y-99557621D02*
X134685400Y-99883179D01*
X135981121Y-61851000D02*
X136306679Y-61851000D01*
X135981121Y-60831000D02*
X136306679Y-60831000D01*
X135993821Y-64314800D02*
X136319379Y-64314800D01*
X135993821Y-63294800D02*
X136319379Y-63294800D01*
X122057479Y-78090300D02*
X121731921Y-78090300D01*
X122057479Y-79110300D02*
X121731921Y-79110300D01*
X122095579Y-88529700D02*
X121770021Y-88529700D01*
X122095579Y-89549700D02*
X121770021Y-89549700D01*
X122222579Y-83259200D02*
X121897021Y-83259200D01*
X122222579Y-84279200D02*
X121897021Y-84279200D01*
X149667279Y-86751700D02*
X149341721Y-86751700D01*
X149667279Y-87771700D02*
X149341721Y-87771700D01*
X146085679Y-86802500D02*
X145760121Y-86802500D01*
X146085679Y-87822500D02*
X145760121Y-87822500D01*
X142580579Y-86802500D02*
X142255021Y-86802500D01*
X142580579Y-87822500D02*
X142255021Y-87822500D01*
X151361021Y-60796900D02*
X151686579Y-60796900D01*
X151361021Y-59776900D02*
X151686579Y-59776900D01*
X155475400Y-115910479D02*
X155475400Y-115584921D01*
X154455400Y-115910479D02*
X154455400Y-115584921D01*
X134440200Y-131078921D02*
X134440200Y-131404479D01*
X135460200Y-131078921D02*
X135460200Y-131404479D01*
X149277800Y-116012179D02*
X149277800Y-115686621D01*
X148257800Y-116012179D02*
X148257800Y-115686621D01*
X151589200Y-115961379D02*
X151589200Y-115635821D01*
X150569200Y-115961379D02*
X150569200Y-115635821D01*
X144121600Y-115935979D02*
X144121600Y-115610421D01*
X143101600Y-115935979D02*
X143101600Y-115610421D01*
X146407600Y-115935979D02*
X146407600Y-115610421D01*
X145387600Y-115935979D02*
X145387600Y-115610421D01*
X153418000Y-109560679D02*
X153418000Y-109235121D01*
X152398000Y-109560679D02*
X152398000Y-109235121D01*
X147931600Y-97698779D02*
X147931600Y-97373221D01*
X146911600Y-97698779D02*
X146911600Y-97373221D01*
X134508021Y-107990100D02*
X134833579Y-107990100D01*
X134508021Y-106970100D02*
X134833579Y-106970100D01*
X134508021Y-109869700D02*
X134833579Y-109869700D01*
X134508021Y-108849700D02*
X134833579Y-108849700D01*
X134508021Y-106034300D02*
X134833579Y-106034300D01*
X134508021Y-105014300D02*
X134833579Y-105014300D01*
X152427400Y-97698779D02*
X152427400Y-97373221D01*
X151407400Y-97698779D02*
X151407400Y-97373221D01*
X150446200Y-97647979D02*
X150446200Y-97322421D01*
X149426200Y-97647979D02*
X149426200Y-97322421D01*
X119403400Y-120601621D02*
X119403400Y-120927179D01*
X120423400Y-120601621D02*
X120423400Y-120927179D01*
X119327200Y-131688521D02*
X119327200Y-132014079D01*
X120347200Y-131688521D02*
X120347200Y-132014079D01*
X126900400Y-131201279D02*
X126900400Y-130875721D01*
X125880400Y-131201279D02*
X125880400Y-130875721D01*
D11*
X126204500Y-79059000D02*
X126204500Y-78759000D01*
X126579500Y-79059000D02*
X126204500Y-79059000D01*
X126204500Y-75759000D02*
X126654500Y-75759000D01*
X126204500Y-76059000D02*
X126204500Y-75759000D01*
X126204500Y-75984000D02*
X126204500Y-76109000D01*
X127854500Y-75759000D02*
X127854500Y-76109000D01*
X127379500Y-75759000D02*
X127854500Y-75759000D01*
X127854500Y-78734000D02*
X128629500Y-78734000D01*
X127854500Y-78784000D02*
X127854500Y-78734000D01*
X127479500Y-79059000D02*
X127854500Y-78784000D01*
X127204500Y-79059000D02*
X127479500Y-79059000D01*
X126280700Y-89125100D02*
X126280700Y-88825100D01*
X126655700Y-89125100D02*
X126280700Y-89125100D01*
X126280700Y-85825100D02*
X126730700Y-85825100D01*
X126280700Y-86125100D02*
X126280700Y-85825100D01*
X126280700Y-86050100D02*
X126280700Y-86175100D01*
X127930700Y-85825100D02*
X127930700Y-86175100D01*
X127455700Y-85825100D02*
X127930700Y-85825100D01*
X127930700Y-88800100D02*
X128705700Y-88800100D01*
X127930700Y-88850100D02*
X127930700Y-88800100D01*
X127555700Y-89125100D02*
X127930700Y-88850100D01*
X127280700Y-89125100D02*
X127555700Y-89125100D01*
X126285200Y-84377800D02*
X126285200Y-84077800D01*
X126660200Y-84377800D02*
X126285200Y-84377800D01*
X126285200Y-81077800D02*
X126735200Y-81077800D01*
X126285200Y-81377800D02*
X126285200Y-81077800D01*
X126285200Y-81302800D02*
X126285200Y-81427800D01*
X127935200Y-81077800D02*
X127935200Y-81427800D01*
X127460200Y-81077800D02*
X127935200Y-81077800D01*
X127935200Y-84052800D02*
X128710200Y-84052800D01*
X127935200Y-84102800D02*
X127935200Y-84052800D01*
X127560200Y-84377800D02*
X127935200Y-84102800D01*
X127285200Y-84377800D02*
X127560200Y-84377800D01*
D10*
X124536200Y-98898400D02*
X125866200Y-98898400D01*
X125866200Y-98898400D02*
X125866200Y-100228400D01*
X123266200Y-98898400D02*
X123266200Y-101498400D01*
X123266200Y-101498400D02*
X125866200Y-101498400D01*
X125866200Y-101498400D02*
X125866200Y-111718400D01*
X120666200Y-111718400D02*
X125866200Y-111718400D01*
X120666200Y-98898400D02*
X120666200Y-111718400D01*
X120666200Y-98898400D02*
X123266200Y-98898400D01*
D12*
X137435000Y-142830000D02*
X137435000Y-122330000D01*
X137435000Y-122330000D02*
X156185000Y-122330000D01*
X156185000Y-122330000D02*
X156185000Y-142830000D01*
X156185000Y-142830000D02*
X137435000Y-142830000D01*
D11*
X131734600Y-139646200D02*
X131734600Y-138796200D01*
X131284600Y-139646200D02*
X131734600Y-139646200D01*
X123634600Y-139646200D02*
X124134600Y-139646200D01*
X123634600Y-138846200D02*
X123634600Y-139646200D01*
X125784600Y-133896200D02*
X126084600Y-133896200D01*
X123634600Y-135646200D02*
X123634600Y-136096200D01*
X129334600Y-133896200D02*
X129634600Y-133896200D01*
X131734600Y-135646200D02*
X131734600Y-136146200D01*
D10*
X128534279Y-106589100D02*
X128208721Y-106589100D01*
X128534279Y-107609100D02*
X128208721Y-107609100D01*
X123366800Y-75744400D02*
X121081800Y-75744400D01*
X123366800Y-77214400D02*
X123366800Y-75744400D01*
X121081800Y-77214400D02*
X123366800Y-77214400D01*
X123417600Y-85815500D02*
X121132600Y-85815500D01*
X123417600Y-87285500D02*
X123417600Y-85815500D01*
X121132600Y-87285500D02*
X123417600Y-87285500D01*
X123544600Y-80926000D02*
X121259600Y-80926000D01*
X123544600Y-82396000D02*
X123544600Y-80926000D01*
X121259600Y-82396000D02*
X123544600Y-82396000D01*
X120673800Y-127100800D02*
X120673800Y-124815800D01*
X119203800Y-127100800D02*
X120673800Y-127100800D01*
X119203800Y-124815800D02*
X119203800Y-127100800D01*
X120572200Y-137806900D02*
X120572200Y-135521900D01*
X119102200Y-137806900D02*
X120572200Y-137806900D01*
X119102200Y-135521900D02*
X119102200Y-137806900D01*
X134533421Y-111723900D02*
X134858979Y-111723900D01*
X134533421Y-110703900D02*
X134858979Y-110703900D01*
X154230800Y-104328179D02*
X154230800Y-104002621D01*
X153210800Y-104328179D02*
X153210800Y-104002621D01*
X127137700Y-96484121D02*
X127137700Y-96809679D01*
X128157700Y-96484121D02*
X128157700Y-96809679D01*
X151373721Y-64708500D02*
X151699279Y-64708500D01*
X151373721Y-63688500D02*
X151699279Y-63688500D01*
X151373721Y-62803500D02*
X151699279Y-62803500D01*
X151373721Y-61783500D02*
X151699279Y-61783500D01*
X152402000Y-104328179D02*
X152402000Y-104002621D01*
X151382000Y-104328179D02*
X151382000Y-104002621D01*
X147779200Y-101915179D02*
X147779200Y-101589621D01*
X146759200Y-101915179D02*
X146759200Y-101589621D01*
X143875979Y-109980000D02*
X143550421Y-109980000D01*
X143875979Y-111000000D02*
X143550421Y-111000000D01*
X150493000Y-109235021D02*
X150493000Y-109560579D01*
X151513000Y-109235021D02*
X151513000Y-109560579D01*
X134033800Y-125719721D02*
X134033800Y-126045279D01*
X135053800Y-125719721D02*
X135053800Y-126045279D01*
X130681000Y-107698221D02*
X130681000Y-108023779D01*
X131701000Y-107698221D02*
X131701000Y-108023779D01*
X122527600Y-120627021D02*
X122527600Y-120952579D01*
X123547600Y-120627021D02*
X123547600Y-120952579D01*
X129326521Y-123344400D02*
X129652079Y-123344400D01*
X129326521Y-122324400D02*
X129652079Y-122324400D01*
X129351921Y-127510000D02*
X129677479Y-127510000D01*
X129351921Y-126490000D02*
X129677479Y-126490000D01*
X129351921Y-125427200D02*
X129677479Y-125427200D01*
X129351921Y-124407200D02*
X129677479Y-124407200D01*
D13*
X132816695Y-66330580D02*
X132816695Y-67140104D01*
X132864314Y-67235342D01*
X132911933Y-67282961D01*
X133007171Y-67330580D01*
X133197647Y-67330580D01*
X133292885Y-67282961D01*
X133340504Y-67235342D01*
X133388123Y-67140104D01*
X133388123Y-66330580D01*
X133769076Y-66330580D02*
X134388123Y-66330580D01*
X134054790Y-66711533D01*
X134197647Y-66711533D01*
X134292885Y-66759152D01*
X134340504Y-66806771D01*
X134388123Y-66902009D01*
X134388123Y-67140104D01*
X134340504Y-67235342D01*
X134292885Y-67282961D01*
X134197647Y-67330580D01*
X133911933Y-67330580D01*
X133816695Y-67282961D01*
X133769076Y-67235342D01*
X145638780Y-95181657D02*
X145162590Y-95514990D01*
X145638780Y-95753085D02*
X144638780Y-95753085D01*
X144638780Y-95372133D01*
X144686400Y-95276895D01*
X144734019Y-95229276D01*
X144829257Y-95181657D01*
X144972114Y-95181657D01*
X145067352Y-95229276D01*
X145114971Y-95276895D01*
X145162590Y-95372133D01*
X145162590Y-95753085D01*
X144734019Y-94800704D02*
X144686400Y-94753085D01*
X144638780Y-94657847D01*
X144638780Y-94419752D01*
X144686400Y-94324514D01*
X144734019Y-94276895D01*
X144829257Y-94229276D01*
X144924495Y-94229276D01*
X145067352Y-94276895D01*
X145638780Y-94848323D01*
X145638780Y-94229276D01*
X144638780Y-93895942D02*
X144638780Y-93229276D01*
X145638780Y-93657847D01*
X129192756Y-99863660D02*
X129859422Y-100863660D01*
X129859422Y-99863660D02*
X129192756Y-100863660D01*
X130764184Y-100863660D02*
X130192756Y-100863660D01*
X130478470Y-100863660D02*
X130478470Y-99863660D01*
X130383232Y-100006518D01*
X130287994Y-100101756D01*
X130192756Y-100149375D01*
X146253295Y-109381580D02*
X146253295Y-110191104D01*
X146300914Y-110286342D01*
X146348533Y-110333961D01*
X146443771Y-110381580D01*
X146634247Y-110381580D01*
X146729485Y-110333961D01*
X146777104Y-110286342D01*
X146824723Y-110191104D01*
X146824723Y-109381580D01*
X147253295Y-109476819D02*
X147300914Y-109429200D01*
X147396152Y-109381580D01*
X147634247Y-109381580D01*
X147729485Y-109429200D01*
X147777104Y-109476819D01*
X147824723Y-109572057D01*
X147824723Y-109667295D01*
X147777104Y-109810152D01*
X147205676Y-110381580D01*
X147824723Y-110381580D01*
X131496295Y-112616580D02*
X131496295Y-113426104D01*
X131543914Y-113521342D01*
X131591533Y-113568961D01*
X131686771Y-113616580D01*
X131877247Y-113616580D01*
X131972485Y-113568961D01*
X132020104Y-113521342D01*
X132067723Y-113426104D01*
X132067723Y-112616580D01*
X133067723Y-113616580D02*
X132496295Y-113616580D01*
X132782009Y-113616580D02*
X132782009Y-112616580D01*
X132686771Y-112759438D01*
X132591533Y-112854676D01*
X132496295Y-112902295D01*
X121525398Y-61358946D02*
X121477779Y-61501803D01*
X121477779Y-61739899D01*
X121525398Y-61835137D01*
X121573017Y-61882756D01*
X121668255Y-61930375D01*
X121763493Y-61930375D01*
X121858731Y-61882756D01*
X121906350Y-61835137D01*
X121953969Y-61739899D01*
X122001588Y-61549422D01*
X122049207Y-61454184D01*
X122096826Y-61406565D01*
X122192064Y-61358946D01*
X122287302Y-61358946D01*
X122382540Y-61406565D01*
X122430160Y-61454184D01*
X122477779Y-61549422D01*
X122477779Y-61787518D01*
X122430160Y-61930375D01*
X122477779Y-62263708D02*
X121477779Y-62501803D01*
X122192064Y-62692280D01*
X121477779Y-62882756D01*
X122477779Y-63120851D01*
X122382540Y-63454184D02*
X122430160Y-63501803D01*
X122477779Y-63597041D01*
X122477779Y-63835137D01*
X122430160Y-63930375D01*
X122382540Y-63977994D01*
X122287302Y-64025613D01*
X122192064Y-64025613D01*
X122049207Y-63977994D01*
X121477779Y-63406565D01*
X121477779Y-64025613D01*
X121657478Y-69111026D02*
X121609859Y-69253883D01*
X121609859Y-69491979D01*
X121657478Y-69587217D01*
X121705097Y-69634836D01*
X121800335Y-69682455D01*
X121895573Y-69682455D01*
X121990811Y-69634836D01*
X122038430Y-69587217D01*
X122086049Y-69491979D01*
X122133668Y-69301502D01*
X122181287Y-69206264D01*
X122228906Y-69158645D01*
X122324144Y-69111026D01*
X122419382Y-69111026D01*
X122514620Y-69158645D01*
X122562240Y-69206264D01*
X122609859Y-69301502D01*
X122609859Y-69539598D01*
X122562240Y-69682455D01*
X122609859Y-70015788D02*
X121609859Y-70253883D01*
X122324144Y-70444360D01*
X121609859Y-70634836D01*
X122609859Y-70872931D01*
X121609859Y-71777693D02*
X121609859Y-71206264D01*
X121609859Y-71491979D02*
X122609859Y-71491979D01*
X122467001Y-71396740D01*
X122371763Y-71301502D01*
X122324144Y-71206264D01*
X136431280Y-96083457D02*
X135955090Y-96416790D01*
X136431280Y-96654885D02*
X135431280Y-96654885D01*
X135431280Y-96273933D01*
X135478900Y-96178695D01*
X135526519Y-96131076D01*
X135621757Y-96083457D01*
X135764614Y-96083457D01*
X135859852Y-96131076D01*
X135907471Y-96178695D01*
X135955090Y-96273933D01*
X135955090Y-96654885D01*
X135526519Y-95702504D02*
X135478900Y-95654885D01*
X135431280Y-95559647D01*
X135431280Y-95321552D01*
X135478900Y-95226314D01*
X135526519Y-95178695D01*
X135621757Y-95131076D01*
X135716995Y-95131076D01*
X135859852Y-95178695D01*
X136431280Y-95750123D01*
X136431280Y-95131076D01*
X135431280Y-94273933D02*
X135431280Y-94464409D01*
X135478900Y-94559647D01*
X135526519Y-94607266D01*
X135669376Y-94702504D01*
X135859852Y-94750123D01*
X136240804Y-94750123D01*
X136336042Y-94702504D01*
X136383661Y-94654885D01*
X136431280Y-94559647D01*
X136431280Y-94369171D01*
X136383661Y-94273933D01*
X136336042Y-94226314D01*
X136240804Y-94178695D01*
X136002709Y-94178695D01*
X135907471Y-94226314D01*
X135859852Y-94273933D01*
X135812233Y-94369171D01*
X135812233Y-94559647D01*
X135859852Y-94654885D01*
X135907471Y-94702504D01*
X136002709Y-94750123D01*
X136215380Y-100375957D02*
X135739190Y-100709290D01*
X136215380Y-100947385D02*
X135215380Y-100947385D01*
X135215380Y-100566433D01*
X135263000Y-100471195D01*
X135310619Y-100423576D01*
X135405857Y-100375957D01*
X135548714Y-100375957D01*
X135643952Y-100423576D01*
X135691571Y-100471195D01*
X135739190Y-100566433D01*
X135739190Y-100947385D01*
X135310619Y-99995004D02*
X135263000Y-99947385D01*
X135215380Y-99852147D01*
X135215380Y-99614052D01*
X135263000Y-99518814D01*
X135310619Y-99471195D01*
X135405857Y-99423576D01*
X135501095Y-99423576D01*
X135643952Y-99471195D01*
X136215380Y-100042623D01*
X136215380Y-99423576D01*
X135215380Y-98518814D02*
X135215380Y-98995004D01*
X135691571Y-99042623D01*
X135643952Y-98995004D01*
X135596333Y-98899766D01*
X135596333Y-98661671D01*
X135643952Y-98566433D01*
X135691571Y-98518814D01*
X135786809Y-98471195D01*
X136024904Y-98471195D01*
X136120142Y-98518814D01*
X136167761Y-98566433D01*
X136215380Y-98661671D01*
X136215380Y-98899766D01*
X136167761Y-98995004D01*
X136120142Y-99042623D01*
X138714242Y-61755280D02*
X138380909Y-61279090D01*
X138142814Y-61755280D02*
X138142814Y-60755280D01*
X138523766Y-60755280D01*
X138619004Y-60802900D01*
X138666623Y-60850519D01*
X138714242Y-60945757D01*
X138714242Y-61088614D01*
X138666623Y-61183852D01*
X138619004Y-61231471D01*
X138523766Y-61279090D01*
X138142814Y-61279090D01*
X139095195Y-60850519D02*
X139142814Y-60802900D01*
X139238052Y-60755280D01*
X139476147Y-60755280D01*
X139571385Y-60802900D01*
X139619004Y-60850519D01*
X139666623Y-60945757D01*
X139666623Y-61040995D01*
X139619004Y-61183852D01*
X139047576Y-61755280D01*
X139666623Y-61755280D01*
X140523766Y-61088614D02*
X140523766Y-61755280D01*
X140285671Y-60707661D02*
X140047576Y-61421947D01*
X140666623Y-61421947D01*
X138688742Y-64295280D02*
X138355409Y-63819090D01*
X138117314Y-64295280D02*
X138117314Y-63295280D01*
X138498266Y-63295280D01*
X138593504Y-63342900D01*
X138641123Y-63390519D01*
X138688742Y-63485757D01*
X138688742Y-63628614D01*
X138641123Y-63723852D01*
X138593504Y-63771471D01*
X138498266Y-63819090D01*
X138117314Y-63819090D01*
X139069695Y-63390519D02*
X139117314Y-63342900D01*
X139212552Y-63295280D01*
X139450647Y-63295280D01*
X139545885Y-63342900D01*
X139593504Y-63390519D01*
X139641123Y-63485757D01*
X139641123Y-63580995D01*
X139593504Y-63723852D01*
X139022076Y-64295280D01*
X139641123Y-64295280D01*
X139974457Y-63295280D02*
X140593504Y-63295280D01*
X140260171Y-63676233D01*
X140403028Y-63676233D01*
X140498266Y-63723852D01*
X140545885Y-63771471D01*
X140593504Y-63866709D01*
X140593504Y-64104804D01*
X140545885Y-64200042D01*
X140498266Y-64247661D01*
X140403028Y-64295280D01*
X140117314Y-64295280D01*
X140022076Y-64247661D01*
X139974457Y-64200042D01*
X117949742Y-79039980D02*
X117616409Y-78563790D01*
X117378314Y-79039980D02*
X117378314Y-78039980D01*
X117759266Y-78039980D01*
X117854504Y-78087600D01*
X117902123Y-78135219D01*
X117949742Y-78230457D01*
X117949742Y-78373314D01*
X117902123Y-78468552D01*
X117854504Y-78516171D01*
X117759266Y-78563790D01*
X117378314Y-78563790D01*
X118330695Y-78135219D02*
X118378314Y-78087600D01*
X118473552Y-78039980D01*
X118711647Y-78039980D01*
X118806885Y-78087600D01*
X118854504Y-78135219D01*
X118902123Y-78230457D01*
X118902123Y-78325695D01*
X118854504Y-78468552D01*
X118283076Y-79039980D01*
X118902123Y-79039980D01*
X119283076Y-78135219D02*
X119330695Y-78087600D01*
X119425933Y-78039980D01*
X119664028Y-78039980D01*
X119759266Y-78087600D01*
X119806885Y-78135219D01*
X119854504Y-78230457D01*
X119854504Y-78325695D01*
X119806885Y-78468552D01*
X119235457Y-79039980D01*
X119854504Y-79039980D01*
X118140242Y-89492080D02*
X117806909Y-89015890D01*
X117568814Y-89492080D02*
X117568814Y-88492080D01*
X117949766Y-88492080D01*
X118045004Y-88539700D01*
X118092623Y-88587319D01*
X118140242Y-88682557D01*
X118140242Y-88825414D01*
X118092623Y-88920652D01*
X118045004Y-88968271D01*
X117949766Y-89015890D01*
X117568814Y-89015890D01*
X118521195Y-88587319D02*
X118568814Y-88539700D01*
X118664052Y-88492080D01*
X118902147Y-88492080D01*
X118997385Y-88539700D01*
X119045004Y-88587319D01*
X119092623Y-88682557D01*
X119092623Y-88777795D01*
X119045004Y-88920652D01*
X118473576Y-89492080D01*
X119092623Y-89492080D01*
X120045004Y-89492080D02*
X119473576Y-89492080D01*
X119759290Y-89492080D02*
X119759290Y-88492080D01*
X119664052Y-88634938D01*
X119568814Y-88730176D01*
X119473576Y-88777795D01*
X118114842Y-84208880D02*
X117781509Y-83732690D01*
X117543414Y-84208880D02*
X117543414Y-83208880D01*
X117924366Y-83208880D01*
X118019604Y-83256500D01*
X118067223Y-83304119D01*
X118114842Y-83399357D01*
X118114842Y-83542214D01*
X118067223Y-83637452D01*
X118019604Y-83685071D01*
X117924366Y-83732690D01*
X117543414Y-83732690D01*
X118495795Y-83304119D02*
X118543414Y-83256500D01*
X118638652Y-83208880D01*
X118876747Y-83208880D01*
X118971985Y-83256500D01*
X119019604Y-83304119D01*
X119067223Y-83399357D01*
X119067223Y-83494595D01*
X119019604Y-83637452D01*
X118448176Y-84208880D01*
X119067223Y-84208880D01*
X119686271Y-83208880D02*
X119781509Y-83208880D01*
X119876747Y-83256500D01*
X119924366Y-83304119D01*
X119971985Y-83399357D01*
X120019604Y-83589833D01*
X120019604Y-83827928D01*
X119971985Y-84018404D01*
X119924366Y-84113642D01*
X119876747Y-84161261D01*
X119781509Y-84208880D01*
X119686271Y-84208880D01*
X119591033Y-84161261D01*
X119543414Y-84113642D01*
X119495795Y-84018404D01*
X119448176Y-83827928D01*
X119448176Y-83589833D01*
X119495795Y-83399357D01*
X119543414Y-83304119D01*
X119591033Y-83256500D01*
X119686271Y-83208880D01*
X150426182Y-89281260D02*
X150092849Y-88805070D01*
X149854754Y-89281260D02*
X149854754Y-88281260D01*
X150235706Y-88281260D01*
X150330944Y-88328880D01*
X150378563Y-88376499D01*
X150426182Y-88471737D01*
X150426182Y-88614594D01*
X150378563Y-88709832D01*
X150330944Y-88757451D01*
X150235706Y-88805070D01*
X149854754Y-88805070D01*
X151378563Y-89281260D02*
X150807135Y-89281260D01*
X151092849Y-89281260D02*
X151092849Y-88281260D01*
X150997611Y-88424118D01*
X150902373Y-88519356D01*
X150807135Y-88566975D01*
X151854754Y-89281260D02*
X152045230Y-89281260D01*
X152140468Y-89233641D01*
X152188087Y-89186022D01*
X152283325Y-89043165D01*
X152330944Y-88852689D01*
X152330944Y-88471737D01*
X152283325Y-88376499D01*
X152235706Y-88328880D01*
X152140468Y-88281260D01*
X151949992Y-88281260D01*
X151854754Y-88328880D01*
X151807135Y-88376499D01*
X151759516Y-88471737D01*
X151759516Y-88709832D01*
X151807135Y-88805070D01*
X151854754Y-88852689D01*
X151949992Y-88900308D01*
X152140468Y-88900308D01*
X152235706Y-88852689D01*
X152283325Y-88805070D01*
X152330944Y-88709832D01*
X146265662Y-89377780D02*
X145932329Y-88901590D01*
X145694234Y-89377780D02*
X145694234Y-88377780D01*
X146075186Y-88377780D01*
X146170424Y-88425400D01*
X146218043Y-88473019D01*
X146265662Y-88568257D01*
X146265662Y-88711114D01*
X146218043Y-88806352D01*
X146170424Y-88853971D01*
X146075186Y-88901590D01*
X145694234Y-88901590D01*
X147218043Y-89377780D02*
X146646615Y-89377780D01*
X146932329Y-89377780D02*
X146932329Y-88377780D01*
X146837091Y-88520638D01*
X146741853Y-88615876D01*
X146646615Y-88663495D01*
X147789472Y-88806352D02*
X147694234Y-88758733D01*
X147646615Y-88711114D01*
X147598996Y-88615876D01*
X147598996Y-88568257D01*
X147646615Y-88473019D01*
X147694234Y-88425400D01*
X147789472Y-88377780D01*
X147979948Y-88377780D01*
X148075186Y-88425400D01*
X148122805Y-88473019D01*
X148170424Y-88568257D01*
X148170424Y-88615876D01*
X148122805Y-88711114D01*
X148075186Y-88758733D01*
X147979948Y-88806352D01*
X147789472Y-88806352D01*
X147694234Y-88853971D01*
X147646615Y-88901590D01*
X147598996Y-88996828D01*
X147598996Y-89187304D01*
X147646615Y-89282542D01*
X147694234Y-89330161D01*
X147789472Y-89377780D01*
X147979948Y-89377780D01*
X148075186Y-89330161D01*
X148122805Y-89282542D01*
X148170424Y-89187304D01*
X148170424Y-88996828D01*
X148122805Y-88901590D01*
X148075186Y-88853971D01*
X147979948Y-88806352D01*
X138645662Y-87310220D02*
X138312329Y-86834030D01*
X138074234Y-87310220D02*
X138074234Y-86310220D01*
X138455186Y-86310220D01*
X138550424Y-86357840D01*
X138598043Y-86405459D01*
X138645662Y-86500697D01*
X138645662Y-86643554D01*
X138598043Y-86738792D01*
X138550424Y-86786411D01*
X138455186Y-86834030D01*
X138074234Y-86834030D01*
X139598043Y-87310220D02*
X139026615Y-87310220D01*
X139312329Y-87310220D02*
X139312329Y-86310220D01*
X139217091Y-86453078D01*
X139121853Y-86548316D01*
X139026615Y-86595935D01*
X139931377Y-86310220D02*
X140598043Y-86310220D01*
X140169472Y-87310220D01*
X147124182Y-60848500D02*
X146790849Y-60372310D01*
X146552754Y-60848500D02*
X146552754Y-59848500D01*
X146933706Y-59848500D01*
X147028944Y-59896120D01*
X147076563Y-59943739D01*
X147124182Y-60038977D01*
X147124182Y-60181834D01*
X147076563Y-60277072D01*
X147028944Y-60324691D01*
X146933706Y-60372310D01*
X146552754Y-60372310D01*
X148076563Y-60848500D02*
X147505135Y-60848500D01*
X147790849Y-60848500D02*
X147790849Y-59848500D01*
X147695611Y-59991358D01*
X147600373Y-60086596D01*
X147505135Y-60134215D01*
X148933706Y-59848500D02*
X148743230Y-59848500D01*
X148647992Y-59896120D01*
X148600373Y-59943739D01*
X148505135Y-60086596D01*
X148457516Y-60277072D01*
X148457516Y-60658024D01*
X148505135Y-60753262D01*
X148552754Y-60800881D01*
X148647992Y-60848500D01*
X148838468Y-60848500D01*
X148933706Y-60800881D01*
X148981325Y-60753262D01*
X149028944Y-60658024D01*
X149028944Y-60419929D01*
X148981325Y-60324691D01*
X148933706Y-60277072D01*
X148838468Y-60229453D01*
X148647992Y-60229453D01*
X148552754Y-60277072D01*
X148505135Y-60324691D01*
X148457516Y-60419929D01*
X153987780Y-116390557D02*
X153511590Y-116723890D01*
X153987780Y-116961985D02*
X152987780Y-116961985D01*
X152987780Y-116581033D01*
X153035400Y-116485795D01*
X153083019Y-116438176D01*
X153178257Y-116390557D01*
X153321114Y-116390557D01*
X153416352Y-116438176D01*
X153463971Y-116485795D01*
X153511590Y-116581033D01*
X153511590Y-116961985D01*
X153987780Y-115438176D02*
X153987780Y-116009604D01*
X153987780Y-115723890D02*
X152987780Y-115723890D01*
X153130638Y-115819128D01*
X153225876Y-115914366D01*
X153273495Y-116009604D01*
X152987780Y-114533414D02*
X152987780Y-115009604D01*
X153463971Y-115057223D01*
X153416352Y-115009604D01*
X153368733Y-114914366D01*
X153368733Y-114676271D01*
X153416352Y-114581033D01*
X153463971Y-114533414D01*
X153559209Y-114485795D01*
X153797304Y-114485795D01*
X153892542Y-114533414D01*
X153940161Y-114581033D01*
X153987780Y-114676271D01*
X153987780Y-114914366D01*
X153940161Y-115009604D01*
X153892542Y-115057223D01*
X134530862Y-134203700D02*
X134197529Y-133727510D01*
X133959434Y-134203700D02*
X133959434Y-133203700D01*
X134340386Y-133203700D01*
X134435624Y-133251320D01*
X134483243Y-133298939D01*
X134530862Y-133394177D01*
X134530862Y-133537034D01*
X134483243Y-133632272D01*
X134435624Y-133679891D01*
X134340386Y-133727510D01*
X133959434Y-133727510D01*
X135483243Y-134203700D02*
X134911815Y-134203700D01*
X135197529Y-134203700D02*
X135197529Y-133203700D01*
X135102291Y-133346558D01*
X135007053Y-133441796D01*
X134911815Y-133489415D01*
X136340386Y-133537034D02*
X136340386Y-134203700D01*
X136102291Y-133156081D02*
X135864196Y-133870367D01*
X136483243Y-133870367D01*
X149296380Y-119591057D02*
X148820190Y-119924390D01*
X149296380Y-120162485D02*
X148296380Y-120162485D01*
X148296380Y-119781533D01*
X148344000Y-119686295D01*
X148391619Y-119638676D01*
X148486857Y-119591057D01*
X148629714Y-119591057D01*
X148724952Y-119638676D01*
X148772571Y-119686295D01*
X148820190Y-119781533D01*
X148820190Y-120162485D01*
X149296380Y-118638676D02*
X149296380Y-119210104D01*
X149296380Y-118924390D02*
X148296380Y-118924390D01*
X148439238Y-119019628D01*
X148534476Y-119114866D01*
X148582095Y-119210104D01*
X148296380Y-118305342D02*
X148296380Y-117686295D01*
X148677333Y-118019628D01*
X148677333Y-117876771D01*
X148724952Y-117781533D01*
X148772571Y-117733914D01*
X148867809Y-117686295D01*
X149105904Y-117686295D01*
X149201142Y-117733914D01*
X149248761Y-117781533D01*
X149296380Y-117876771D01*
X149296380Y-118162485D01*
X149248761Y-118257723D01*
X149201142Y-118305342D01*
X151546980Y-119584657D02*
X151070790Y-119917990D01*
X151546980Y-120156085D02*
X150546980Y-120156085D01*
X150546980Y-119775133D01*
X150594600Y-119679895D01*
X150642219Y-119632276D01*
X150737457Y-119584657D01*
X150880314Y-119584657D01*
X150975552Y-119632276D01*
X151023171Y-119679895D01*
X151070790Y-119775133D01*
X151070790Y-120156085D01*
X151546980Y-118632276D02*
X151546980Y-119203704D01*
X151546980Y-118917990D02*
X150546980Y-118917990D01*
X150689838Y-119013228D01*
X150785076Y-119108466D01*
X150832695Y-119203704D01*
X150642219Y-118251323D02*
X150594600Y-118203704D01*
X150546980Y-118108466D01*
X150546980Y-117870371D01*
X150594600Y-117775133D01*
X150642219Y-117727514D01*
X150737457Y-117679895D01*
X150832695Y-117679895D01*
X150975552Y-117727514D01*
X151546980Y-118298942D01*
X151546980Y-117679895D01*
X144013180Y-119413257D02*
X143536990Y-119746590D01*
X144013180Y-119984685D02*
X143013180Y-119984685D01*
X143013180Y-119603733D01*
X143060800Y-119508495D01*
X143108419Y-119460876D01*
X143203657Y-119413257D01*
X143346514Y-119413257D01*
X143441752Y-119460876D01*
X143489371Y-119508495D01*
X143536990Y-119603733D01*
X143536990Y-119984685D01*
X144013180Y-118460876D02*
X144013180Y-119032304D01*
X144013180Y-118746590D02*
X143013180Y-118746590D01*
X143156038Y-118841828D01*
X143251276Y-118937066D01*
X143298895Y-119032304D01*
X144013180Y-117508495D02*
X144013180Y-118079923D01*
X144013180Y-117794209D02*
X143013180Y-117794209D01*
X143156038Y-117889447D01*
X143251276Y-117984685D01*
X143298895Y-118079923D01*
X146451580Y-119489457D02*
X145975390Y-119822790D01*
X146451580Y-120060885D02*
X145451580Y-120060885D01*
X145451580Y-119679933D01*
X145499200Y-119584695D01*
X145546819Y-119537076D01*
X145642057Y-119489457D01*
X145784914Y-119489457D01*
X145880152Y-119537076D01*
X145927771Y-119584695D01*
X145975390Y-119679933D01*
X145975390Y-120060885D01*
X146451580Y-118537076D02*
X146451580Y-119108504D01*
X146451580Y-118822790D02*
X145451580Y-118822790D01*
X145594438Y-118918028D01*
X145689676Y-119013266D01*
X145737295Y-119108504D01*
X145451580Y-117918028D02*
X145451580Y-117822790D01*
X145499200Y-117727552D01*
X145546819Y-117679933D01*
X145642057Y-117632314D01*
X145832533Y-117584695D01*
X146070628Y-117584695D01*
X146261104Y-117632314D01*
X146356342Y-117679933D01*
X146403961Y-117727552D01*
X146451580Y-117822790D01*
X146451580Y-117918028D01*
X146403961Y-118013266D01*
X146356342Y-118060885D01*
X146261104Y-118108504D01*
X146070628Y-118156123D01*
X145832533Y-118156123D01*
X145642057Y-118108504D01*
X145546819Y-118060885D01*
X145499200Y-118013266D01*
X145451580Y-117918028D01*
X154858980Y-109539066D02*
X154382790Y-109872400D01*
X154858980Y-110110495D02*
X153858980Y-110110495D01*
X153858980Y-109729542D01*
X153906600Y-109634304D01*
X153954219Y-109586685D01*
X154049457Y-109539066D01*
X154192314Y-109539066D01*
X154287552Y-109586685D01*
X154335171Y-109634304D01*
X154382790Y-109729542D01*
X154382790Y-110110495D01*
X154858980Y-109062876D02*
X154858980Y-108872400D01*
X154811361Y-108777161D01*
X154763742Y-108729542D01*
X154620885Y-108634304D01*
X154430409Y-108586685D01*
X154049457Y-108586685D01*
X153954219Y-108634304D01*
X153906600Y-108681923D01*
X153858980Y-108777161D01*
X153858980Y-108967638D01*
X153906600Y-109062876D01*
X153954219Y-109110495D01*
X154049457Y-109158114D01*
X154287552Y-109158114D01*
X154382790Y-109110495D01*
X154430409Y-109062876D01*
X154478028Y-108967638D01*
X154478028Y-108777161D01*
X154430409Y-108681923D01*
X154382790Y-108634304D01*
X154287552Y-108586685D01*
X147924780Y-95086466D02*
X147448590Y-95419800D01*
X147924780Y-95657895D02*
X146924780Y-95657895D01*
X146924780Y-95276942D01*
X146972400Y-95181704D01*
X147020019Y-95134085D01*
X147115257Y-95086466D01*
X147258114Y-95086466D01*
X147353352Y-95134085D01*
X147400971Y-95181704D01*
X147448590Y-95276942D01*
X147448590Y-95657895D01*
X147353352Y-94515038D02*
X147305733Y-94610276D01*
X147258114Y-94657895D01*
X147162876Y-94705514D01*
X147115257Y-94705514D01*
X147020019Y-94657895D01*
X146972400Y-94610276D01*
X146924780Y-94515038D01*
X146924780Y-94324561D01*
X146972400Y-94229323D01*
X147020019Y-94181704D01*
X147115257Y-94134085D01*
X147162876Y-94134085D01*
X147258114Y-94181704D01*
X147305733Y-94229323D01*
X147353352Y-94324561D01*
X147353352Y-94515038D01*
X147400971Y-94610276D01*
X147448590Y-94657895D01*
X147543828Y-94705514D01*
X147734304Y-94705514D01*
X147829542Y-94657895D01*
X147877161Y-94610276D01*
X147924780Y-94515038D01*
X147924780Y-94324561D01*
X147877161Y-94229323D01*
X147829542Y-94181704D01*
X147734304Y-94134085D01*
X147543828Y-94134085D01*
X147448590Y-94181704D01*
X147400971Y-94229323D01*
X147353352Y-94324561D01*
X138283653Y-107932480D02*
X137950320Y-107456290D01*
X137712224Y-107932480D02*
X137712224Y-106932480D01*
X138093177Y-106932480D01*
X138188415Y-106980100D01*
X138236034Y-107027719D01*
X138283653Y-107122957D01*
X138283653Y-107265814D01*
X138236034Y-107361052D01*
X138188415Y-107408671D01*
X138093177Y-107456290D01*
X137712224Y-107456290D01*
X138616986Y-106932480D02*
X139283653Y-106932480D01*
X138855081Y-107932480D01*
X138334453Y-109743500D02*
X138001120Y-109267310D01*
X137763024Y-109743500D02*
X137763024Y-108743500D01*
X138143977Y-108743500D01*
X138239215Y-108791120D01*
X138286834Y-108838739D01*
X138334453Y-108933977D01*
X138334453Y-109076834D01*
X138286834Y-109172072D01*
X138239215Y-109219691D01*
X138143977Y-109267310D01*
X137763024Y-109267310D01*
X139191596Y-108743500D02*
X139001120Y-108743500D01*
X138905881Y-108791120D01*
X138858262Y-108838739D01*
X138763024Y-108981596D01*
X138715405Y-109172072D01*
X138715405Y-109553024D01*
X138763024Y-109648262D01*
X138810643Y-109695881D01*
X138905881Y-109743500D01*
X139096358Y-109743500D01*
X139191596Y-109695881D01*
X139239215Y-109648262D01*
X139286834Y-109553024D01*
X139286834Y-109314929D01*
X139239215Y-109219691D01*
X139191596Y-109172072D01*
X139096358Y-109124453D01*
X138905881Y-109124453D01*
X138810643Y-109172072D01*
X138763024Y-109219691D01*
X138715405Y-109314929D01*
X133909773Y-104353620D02*
X133576440Y-103877430D01*
X133338344Y-104353620D02*
X133338344Y-103353620D01*
X133719297Y-103353620D01*
X133814535Y-103401240D01*
X133862154Y-103448859D01*
X133909773Y-103544097D01*
X133909773Y-103686954D01*
X133862154Y-103782192D01*
X133814535Y-103829811D01*
X133719297Y-103877430D01*
X133338344Y-103877430D01*
X134814535Y-103353620D02*
X134338344Y-103353620D01*
X134290725Y-103829811D01*
X134338344Y-103782192D01*
X134433582Y-103734573D01*
X134671678Y-103734573D01*
X134766916Y-103782192D01*
X134814535Y-103829811D01*
X134862154Y-103925049D01*
X134862154Y-104163144D01*
X134814535Y-104258382D01*
X134766916Y-104306001D01*
X134671678Y-104353620D01*
X134433582Y-104353620D01*
X134338344Y-104306001D01*
X134290725Y-104258382D01*
X152420580Y-95061066D02*
X151944390Y-95394400D01*
X152420580Y-95632495D02*
X151420580Y-95632495D01*
X151420580Y-95251542D01*
X151468200Y-95156304D01*
X151515819Y-95108685D01*
X151611057Y-95061066D01*
X151753914Y-95061066D01*
X151849152Y-95108685D01*
X151896771Y-95156304D01*
X151944390Y-95251542D01*
X151944390Y-95632495D01*
X151753914Y-94203923D02*
X152420580Y-94203923D01*
X151372961Y-94442019D02*
X152087247Y-94680114D01*
X152087247Y-94061066D01*
X150464780Y-94857866D02*
X149988590Y-95191200D01*
X150464780Y-95429295D02*
X149464780Y-95429295D01*
X149464780Y-95048342D01*
X149512400Y-94953104D01*
X149560019Y-94905485D01*
X149655257Y-94857866D01*
X149798114Y-94857866D01*
X149893352Y-94905485D01*
X149940971Y-94953104D01*
X149988590Y-95048342D01*
X149988590Y-95429295D01*
X149464780Y-94524533D02*
X149464780Y-93905485D01*
X149845733Y-94238819D01*
X149845733Y-94095961D01*
X149893352Y-94000723D01*
X149940971Y-93953104D01*
X150036209Y-93905485D01*
X150274304Y-93905485D01*
X150369542Y-93953104D01*
X150417161Y-94000723D01*
X150464780Y-94095961D01*
X150464780Y-94381676D01*
X150417161Y-94476914D01*
X150369542Y-94524533D01*
X121795780Y-120931066D02*
X121319590Y-121264400D01*
X121795780Y-121502495D02*
X120795780Y-121502495D01*
X120795780Y-121121542D01*
X120843400Y-121026304D01*
X120891019Y-120978685D01*
X120986257Y-120931066D01*
X121129114Y-120931066D01*
X121224352Y-120978685D01*
X121271971Y-121026304D01*
X121319590Y-121121542D01*
X121319590Y-121502495D01*
X120891019Y-120550114D02*
X120843400Y-120502495D01*
X120795780Y-120407257D01*
X120795780Y-120169161D01*
X120843400Y-120073923D01*
X120891019Y-120026304D01*
X120986257Y-119978685D01*
X121081495Y-119978685D01*
X121224352Y-120026304D01*
X121795780Y-120597733D01*
X121795780Y-119978685D01*
X121719580Y-132017966D02*
X121243390Y-132351300D01*
X121719580Y-132589395D02*
X120719580Y-132589395D01*
X120719580Y-132208442D01*
X120767200Y-132113204D01*
X120814819Y-132065585D01*
X120910057Y-132017966D01*
X121052914Y-132017966D01*
X121148152Y-132065585D01*
X121195771Y-132113204D01*
X121243390Y-132208442D01*
X121243390Y-132589395D01*
X121719580Y-131065585D02*
X121719580Y-131637014D01*
X121719580Y-131351300D02*
X120719580Y-131351300D01*
X120862438Y-131446538D01*
X120957676Y-131541776D01*
X121005295Y-131637014D01*
X125412780Y-131205166D02*
X124936590Y-131538500D01*
X125412780Y-131776595D02*
X124412780Y-131776595D01*
X124412780Y-131395642D01*
X124460400Y-131300404D01*
X124508019Y-131252785D01*
X124603257Y-131205166D01*
X124746114Y-131205166D01*
X124841352Y-131252785D01*
X124888971Y-131300404D01*
X124936590Y-131395642D01*
X124936590Y-131776595D01*
X124412780Y-130586119D02*
X124412780Y-130490880D01*
X124460400Y-130395642D01*
X124508019Y-130348023D01*
X124603257Y-130300404D01*
X124793733Y-130252785D01*
X125031828Y-130252785D01*
X125222304Y-130300404D01*
X125317542Y-130348023D01*
X125365161Y-130395642D01*
X125412780Y-130490880D01*
X125412780Y-130586119D01*
X125365161Y-130681357D01*
X125317542Y-130728976D01*
X125222304Y-130776595D01*
X125031828Y-130824214D01*
X124793733Y-130824214D01*
X124603257Y-130776595D01*
X124508019Y-130728976D01*
X124460400Y-130681357D01*
X124412780Y-130586119D01*
X130323601Y-77174339D02*
X130228363Y-77126720D01*
X130133125Y-77031481D01*
X129990268Y-76888624D01*
X129895030Y-76841005D01*
X129799792Y-76841005D01*
X129847411Y-77079100D02*
X129752173Y-77031481D01*
X129656935Y-76936243D01*
X129609316Y-76745767D01*
X129609316Y-76412434D01*
X129656935Y-76221958D01*
X129752173Y-76126720D01*
X129847411Y-76079100D01*
X130037887Y-76079100D01*
X130133125Y-76126720D01*
X130228363Y-76221958D01*
X130275982Y-76412434D01*
X130275982Y-76745767D01*
X130228363Y-76936243D01*
X130133125Y-77031481D01*
X130037887Y-77079100D01*
X129847411Y-77079100D01*
X130609316Y-76079100D02*
X131228363Y-76079100D01*
X130895030Y-76460053D01*
X131037887Y-76460053D01*
X131133125Y-76507672D01*
X131180744Y-76555291D01*
X131228363Y-76650529D01*
X131228363Y-76888624D01*
X131180744Y-76983862D01*
X131133125Y-77031481D01*
X131037887Y-77079100D01*
X130752173Y-77079100D01*
X130656935Y-77031481D01*
X130609316Y-76983862D01*
X130323601Y-87354659D02*
X130228363Y-87307040D01*
X130133125Y-87211801D01*
X129990268Y-87068944D01*
X129895030Y-87021325D01*
X129799792Y-87021325D01*
X129847411Y-87259420D02*
X129752173Y-87211801D01*
X129656935Y-87116563D01*
X129609316Y-86926087D01*
X129609316Y-86592754D01*
X129656935Y-86402278D01*
X129752173Y-86307040D01*
X129847411Y-86259420D01*
X130037887Y-86259420D01*
X130133125Y-86307040D01*
X130228363Y-86402278D01*
X130275982Y-86592754D01*
X130275982Y-86926087D01*
X130228363Y-87116563D01*
X130133125Y-87211801D01*
X130037887Y-87259420D01*
X129847411Y-87259420D01*
X130656935Y-86354659D02*
X130704554Y-86307040D01*
X130799792Y-86259420D01*
X131037887Y-86259420D01*
X131133125Y-86307040D01*
X131180744Y-86354659D01*
X131228363Y-86449897D01*
X131228363Y-86545135D01*
X131180744Y-86687992D01*
X130609316Y-87259420D01*
X131228363Y-87259420D01*
X130379481Y-82726779D02*
X130284243Y-82679160D01*
X130189005Y-82583921D01*
X130046148Y-82441064D01*
X129950910Y-82393445D01*
X129855672Y-82393445D01*
X129903291Y-82631540D02*
X129808053Y-82583921D01*
X129712815Y-82488683D01*
X129665196Y-82298207D01*
X129665196Y-81964874D01*
X129712815Y-81774398D01*
X129808053Y-81679160D01*
X129903291Y-81631540D01*
X130093767Y-81631540D01*
X130189005Y-81679160D01*
X130284243Y-81774398D01*
X130331862Y-81964874D01*
X130331862Y-82298207D01*
X130284243Y-82488683D01*
X130189005Y-82583921D01*
X130093767Y-82631540D01*
X129903291Y-82631540D01*
X131284243Y-82631540D02*
X130712815Y-82631540D01*
X130998529Y-82631540D02*
X130998529Y-81631540D01*
X130903291Y-81774398D01*
X130808053Y-81869636D01*
X130712815Y-81917255D01*
X123105586Y-97161100D02*
X123105586Y-97875386D01*
X123057967Y-98018243D01*
X122962729Y-98113481D01*
X122819872Y-98161100D01*
X122724634Y-98161100D01*
X123486539Y-97161100D02*
X124105586Y-97161100D01*
X123772253Y-97542053D01*
X123915110Y-97542053D01*
X124010348Y-97589672D01*
X124057967Y-97637291D01*
X124105586Y-97732529D01*
X124105586Y-97970624D01*
X124057967Y-98065862D01*
X124010348Y-98113481D01*
X123915110Y-98161100D01*
X123629396Y-98161100D01*
X123534158Y-98113481D01*
X123486539Y-98065862D01*
D14*
X137977600Y-121062500D02*
X137977600Y-121776786D01*
X137934742Y-121919643D01*
X137849028Y-122014881D01*
X137720457Y-122062500D01*
X137634742Y-122062500D01*
X138363314Y-121157739D02*
X138406171Y-121110120D01*
X138491885Y-121062500D01*
X138706171Y-121062500D01*
X138791885Y-121110120D01*
X138834742Y-121157739D01*
X138877600Y-121252977D01*
X138877600Y-121348215D01*
X138834742Y-121491072D01*
X138320457Y-122062500D01*
X138877600Y-122062500D01*
X143492142Y-132246666D02*
X143920714Y-132246666D01*
X143406428Y-132532380D02*
X143706428Y-131532380D01*
X144006428Y-132532380D01*
X144820714Y-132532380D02*
X144520714Y-132056190D01*
X144306428Y-132532380D02*
X144306428Y-131532380D01*
X144649285Y-131532380D01*
X144735000Y-131580000D01*
X144777857Y-131627619D01*
X144820714Y-131722857D01*
X144820714Y-131865714D01*
X144777857Y-131960952D01*
X144735000Y-132008571D01*
X144649285Y-132056190D01*
X144306428Y-132056190D01*
X145463571Y-131532380D02*
X145463571Y-132246666D01*
X145420714Y-132389523D01*
X145335000Y-132484761D01*
X145206428Y-132532380D01*
X145120714Y-132532380D01*
X145892142Y-132532380D02*
X145892142Y-131532380D01*
X146192142Y-132246666D01*
X146492142Y-131532380D01*
X146492142Y-132532380D01*
X147392142Y-132532380D02*
X146877857Y-132532380D01*
X147135000Y-132532380D02*
X147135000Y-131532380D01*
X147049285Y-131675238D01*
X146963571Y-131770476D01*
X146877857Y-131818095D01*
X148249285Y-132532380D02*
X147735000Y-132532380D01*
X147992142Y-132532380D02*
X147992142Y-131532380D01*
X147906428Y-131675238D01*
X147820714Y-131770476D01*
X147735000Y-131818095D01*
X148592142Y-132246666D02*
X149020714Y-132246666D01*
X148506428Y-132532380D02*
X148806428Y-131532380D01*
X149106428Y-132532380D01*
X149320714Y-131532380D02*
X149877857Y-131532380D01*
X149577857Y-131913333D01*
X149706428Y-131913333D01*
X149792142Y-131960952D01*
X149835000Y-132008571D01*
X149877857Y-132103809D01*
X149877857Y-132341904D01*
X149835000Y-132437142D01*
X149792142Y-132484761D01*
X149706428Y-132532380D01*
X149449285Y-132532380D01*
X149363571Y-132484761D01*
X149320714Y-132437142D01*
D13*
X123136066Y-132294380D02*
X123136066Y-133008666D01*
X123088447Y-133151523D01*
X122993209Y-133246761D01*
X122850352Y-133294380D01*
X122755114Y-133294380D01*
X124136066Y-133294380D02*
X123564638Y-133294380D01*
X123850352Y-133294380D02*
X123850352Y-132294380D01*
X123755114Y-132437238D01*
X123659876Y-132532476D01*
X123564638Y-132580095D01*
X127538166Y-108457671D02*
X127204833Y-108457671D01*
X127204833Y-108981480D02*
X127204833Y-107981480D01*
X127681023Y-107981480D01*
X128395309Y-108457671D02*
X128538166Y-108505290D01*
X128585785Y-108552909D01*
X128633404Y-108648147D01*
X128633404Y-108791004D01*
X128585785Y-108886242D01*
X128538166Y-108933861D01*
X128442928Y-108981480D01*
X128061976Y-108981480D01*
X128061976Y-107981480D01*
X128395309Y-107981480D01*
X128490547Y-108029100D01*
X128538166Y-108076719D01*
X128585785Y-108171957D01*
X128585785Y-108267195D01*
X128538166Y-108362433D01*
X128490547Y-108410052D01*
X128395309Y-108457671D01*
X128061976Y-108457671D01*
X129585785Y-108981480D02*
X129014357Y-108981480D01*
X129300071Y-108981480D02*
X129300071Y-107981480D01*
X129204833Y-108124338D01*
X129109595Y-108219576D01*
X129014357Y-108267195D01*
X117976424Y-76936860D02*
X117976424Y-75936860D01*
X118214520Y-75936860D01*
X118357377Y-75984480D01*
X118452615Y-76079718D01*
X118500234Y-76174956D01*
X118547853Y-76365432D01*
X118547853Y-76508289D01*
X118500234Y-76698765D01*
X118452615Y-76794003D01*
X118357377Y-76889241D01*
X118214520Y-76936860D01*
X117976424Y-76936860D01*
X119452615Y-75936860D02*
X118976424Y-75936860D01*
X118928805Y-76413051D01*
X118976424Y-76365432D01*
X119071662Y-76317813D01*
X119309758Y-76317813D01*
X119404996Y-76365432D01*
X119452615Y-76413051D01*
X119500234Y-76508289D01*
X119500234Y-76746384D01*
X119452615Y-76841622D01*
X119404996Y-76889241D01*
X119309758Y-76936860D01*
X119071662Y-76936860D01*
X118976424Y-76889241D01*
X118928805Y-76841622D01*
X118088184Y-86964780D02*
X118088184Y-85964780D01*
X118326280Y-85964780D01*
X118469137Y-86012400D01*
X118564375Y-86107638D01*
X118611994Y-86202876D01*
X118659613Y-86393352D01*
X118659613Y-86536209D01*
X118611994Y-86726685D01*
X118564375Y-86821923D01*
X118469137Y-86917161D01*
X118326280Y-86964780D01*
X118088184Y-86964780D01*
X119516756Y-86298114D02*
X119516756Y-86964780D01*
X119278660Y-85917161D02*
X119040565Y-86631447D01*
X119659613Y-86631447D01*
X118062784Y-82108300D02*
X118062784Y-81108300D01*
X118300880Y-81108300D01*
X118443737Y-81155920D01*
X118538975Y-81251158D01*
X118586594Y-81346396D01*
X118634213Y-81536872D01*
X118634213Y-81679729D01*
X118586594Y-81870205D01*
X118538975Y-81965443D01*
X118443737Y-82060681D01*
X118300880Y-82108300D01*
X118062784Y-82108300D01*
X118967546Y-81108300D02*
X119586594Y-81108300D01*
X119253260Y-81489253D01*
X119396118Y-81489253D01*
X119491356Y-81536872D01*
X119538975Y-81584491D01*
X119586594Y-81679729D01*
X119586594Y-81917824D01*
X119538975Y-82013062D01*
X119491356Y-82060681D01*
X119396118Y-82108300D01*
X119110403Y-82108300D01*
X119015165Y-82060681D01*
X118967546Y-82013062D01*
X118961180Y-126353895D02*
X117961180Y-126353895D01*
X117961180Y-126115800D01*
X118008800Y-125972942D01*
X118104038Y-125877704D01*
X118199276Y-125830085D01*
X118389752Y-125782466D01*
X118532609Y-125782466D01*
X118723085Y-125830085D01*
X118818323Y-125877704D01*
X118913561Y-125972942D01*
X118961180Y-126115800D01*
X118961180Y-126353895D01*
X118056419Y-125401514D02*
X118008800Y-125353895D01*
X117961180Y-125258657D01*
X117961180Y-125020561D01*
X118008800Y-124925323D01*
X118056419Y-124877704D01*
X118151657Y-124830085D01*
X118246895Y-124830085D01*
X118389752Y-124877704D01*
X118961180Y-125449133D01*
X118961180Y-124830085D01*
X118859580Y-137059995D02*
X117859580Y-137059995D01*
X117859580Y-136821900D01*
X117907200Y-136679042D01*
X118002438Y-136583804D01*
X118097676Y-136536185D01*
X118288152Y-136488566D01*
X118431009Y-136488566D01*
X118621485Y-136536185D01*
X118716723Y-136583804D01*
X118811961Y-136679042D01*
X118859580Y-136821900D01*
X118859580Y-137059995D01*
X118859580Y-135536185D02*
X118859580Y-136107614D01*
X118859580Y-135821900D02*
X117859580Y-135821900D01*
X118002438Y-135917138D01*
X118097676Y-136012376D01*
X118145295Y-136107614D01*
X137121662Y-112046022D02*
X137074043Y-112093641D01*
X136931186Y-112141260D01*
X136835948Y-112141260D01*
X136693091Y-112093641D01*
X136597853Y-111998403D01*
X136550234Y-111903165D01*
X136502615Y-111712689D01*
X136502615Y-111569832D01*
X136550234Y-111379356D01*
X136597853Y-111284118D01*
X136693091Y-111188880D01*
X136835948Y-111141260D01*
X136931186Y-111141260D01*
X137074043Y-111188880D01*
X137121662Y-111236499D01*
X138074043Y-112141260D02*
X137502615Y-112141260D01*
X137788329Y-112141260D02*
X137788329Y-111141260D01*
X137693091Y-111284118D01*
X137597853Y-111379356D01*
X137502615Y-111426975D01*
X138407377Y-111141260D02*
X139074043Y-111141260D01*
X138645472Y-112141260D01*
X154509742Y-101734857D02*
X154557361Y-101782476D01*
X154604980Y-101925333D01*
X154604980Y-102020571D01*
X154557361Y-102163428D01*
X154462123Y-102258666D01*
X154366885Y-102306285D01*
X154176409Y-102353904D01*
X154033552Y-102353904D01*
X153843076Y-102306285D01*
X153747838Y-102258666D01*
X153652600Y-102163428D01*
X153604980Y-102020571D01*
X153604980Y-101925333D01*
X153652600Y-101782476D01*
X153700219Y-101734857D01*
X154604980Y-100782476D02*
X154604980Y-101353904D01*
X154604980Y-101068190D02*
X153604980Y-101068190D01*
X153747838Y-101163428D01*
X153843076Y-101258666D01*
X153890695Y-101353904D01*
X153604980Y-99925333D02*
X153604980Y-100115809D01*
X153652600Y-100211047D01*
X153700219Y-100258666D01*
X153843076Y-100353904D01*
X154033552Y-100401523D01*
X154414504Y-100401523D01*
X154509742Y-100353904D01*
X154557361Y-100306285D01*
X154604980Y-100211047D01*
X154604980Y-100020571D01*
X154557361Y-99925333D01*
X154509742Y-99877714D01*
X154414504Y-99830095D01*
X154176409Y-99830095D01*
X154081171Y-99877714D01*
X154033552Y-99925333D01*
X153985933Y-100020571D01*
X153985933Y-100211047D01*
X154033552Y-100306285D01*
X154081171Y-100353904D01*
X154176409Y-100401523D01*
X128042942Y-94025757D02*
X128090561Y-94073376D01*
X128138180Y-94216233D01*
X128138180Y-94311471D01*
X128090561Y-94454328D01*
X127995323Y-94549566D01*
X127900085Y-94597185D01*
X127709609Y-94644804D01*
X127566752Y-94644804D01*
X127376276Y-94597185D01*
X127281038Y-94549566D01*
X127185800Y-94454328D01*
X127138180Y-94311471D01*
X127138180Y-94216233D01*
X127185800Y-94073376D01*
X127233419Y-94025757D01*
X128138180Y-93073376D02*
X128138180Y-93644804D01*
X128138180Y-93359090D02*
X127138180Y-93359090D01*
X127281038Y-93454328D01*
X127376276Y-93549566D01*
X127423895Y-93644804D01*
X127138180Y-92168614D02*
X127138180Y-92644804D01*
X127614371Y-92692423D01*
X127566752Y-92644804D01*
X127519133Y-92549566D01*
X127519133Y-92311471D01*
X127566752Y-92216233D01*
X127614371Y-92168614D01*
X127709609Y-92120995D01*
X127947704Y-92120995D01*
X128042942Y-92168614D01*
X128090561Y-92216233D01*
X128138180Y-92311471D01*
X128138180Y-92549566D01*
X128090561Y-92644804D01*
X128042942Y-92692423D01*
X146931142Y-64555642D02*
X146883523Y-64603261D01*
X146740666Y-64650880D01*
X146645428Y-64650880D01*
X146502571Y-64603261D01*
X146407333Y-64508023D01*
X146359714Y-64412785D01*
X146312095Y-64222309D01*
X146312095Y-64079452D01*
X146359714Y-63888976D01*
X146407333Y-63793738D01*
X146502571Y-63698500D01*
X146645428Y-63650880D01*
X146740666Y-63650880D01*
X146883523Y-63698500D01*
X146931142Y-63746119D01*
X147883523Y-64650880D02*
X147312095Y-64650880D01*
X147597809Y-64650880D02*
X147597809Y-63650880D01*
X147502571Y-63793738D01*
X147407333Y-63888976D01*
X147312095Y-63936595D01*
X148740666Y-63984214D02*
X148740666Y-64650880D01*
X148502571Y-63603261D02*
X148264476Y-64317547D01*
X148883523Y-64317547D01*
X147134342Y-62701442D02*
X147086723Y-62749061D01*
X146943866Y-62796680D01*
X146848628Y-62796680D01*
X146705771Y-62749061D01*
X146610533Y-62653823D01*
X146562914Y-62558585D01*
X146515295Y-62368109D01*
X146515295Y-62225252D01*
X146562914Y-62034776D01*
X146610533Y-61939538D01*
X146705771Y-61844300D01*
X146848628Y-61796680D01*
X146943866Y-61796680D01*
X147086723Y-61844300D01*
X147134342Y-61891919D01*
X148086723Y-62796680D02*
X147515295Y-62796680D01*
X147801009Y-62796680D02*
X147801009Y-61796680D01*
X147705771Y-61939538D01*
X147610533Y-62034776D01*
X147515295Y-62082395D01*
X148420057Y-61796680D02*
X149039104Y-61796680D01*
X148705771Y-62177633D01*
X148848628Y-62177633D01*
X148943866Y-62225252D01*
X148991485Y-62272871D01*
X149039104Y-62368109D01*
X149039104Y-62606204D01*
X148991485Y-62701442D01*
X148943866Y-62749061D01*
X148848628Y-62796680D01*
X148562914Y-62796680D01*
X148467676Y-62749061D01*
X148420057Y-62701442D01*
X152223742Y-101709457D02*
X152271361Y-101757076D01*
X152318980Y-101899933D01*
X152318980Y-101995171D01*
X152271361Y-102138028D01*
X152176123Y-102233266D01*
X152080885Y-102280885D01*
X151890409Y-102328504D01*
X151747552Y-102328504D01*
X151557076Y-102280885D01*
X151461838Y-102233266D01*
X151366600Y-102138028D01*
X151318980Y-101995171D01*
X151318980Y-101899933D01*
X151366600Y-101757076D01*
X151414219Y-101709457D01*
X152318980Y-100757076D02*
X152318980Y-101328504D01*
X152318980Y-101042790D02*
X151318980Y-101042790D01*
X151461838Y-101138028D01*
X151557076Y-101233266D01*
X151604695Y-101328504D01*
X151414219Y-100376123D02*
X151366600Y-100328504D01*
X151318980Y-100233266D01*
X151318980Y-99995171D01*
X151366600Y-99899933D01*
X151414219Y-99852314D01*
X151509457Y-99804695D01*
X151604695Y-99804695D01*
X151747552Y-99852314D01*
X152318980Y-100423742D01*
X152318980Y-99804695D01*
X144172702Y-101819982D02*
X144125083Y-101867601D01*
X143982226Y-101915220D01*
X143886988Y-101915220D01*
X143744131Y-101867601D01*
X143648893Y-101772363D01*
X143601274Y-101677125D01*
X143553655Y-101486649D01*
X143553655Y-101343792D01*
X143601274Y-101153316D01*
X143648893Y-101058078D01*
X143744131Y-100962840D01*
X143886988Y-100915220D01*
X143982226Y-100915220D01*
X144125083Y-100962840D01*
X144172702Y-101010459D01*
X145125083Y-101915220D02*
X144553655Y-101915220D01*
X144839369Y-101915220D02*
X144839369Y-100915220D01*
X144744131Y-101058078D01*
X144648893Y-101153316D01*
X144553655Y-101200935D01*
X146077464Y-101915220D02*
X145506036Y-101915220D01*
X145791750Y-101915220D02*
X145791750Y-100915220D01*
X145696512Y-101058078D01*
X145601274Y-101153316D01*
X145506036Y-101200935D01*
X141927342Y-112447342D02*
X141879723Y-112494961D01*
X141736866Y-112542580D01*
X141641628Y-112542580D01*
X141498771Y-112494961D01*
X141403533Y-112399723D01*
X141355914Y-112304485D01*
X141308295Y-112114009D01*
X141308295Y-111971152D01*
X141355914Y-111780676D01*
X141403533Y-111685438D01*
X141498771Y-111590200D01*
X141641628Y-111542580D01*
X141736866Y-111542580D01*
X141879723Y-111590200D01*
X141927342Y-111637819D01*
X142879723Y-112542580D02*
X142308295Y-112542580D01*
X142594009Y-112542580D02*
X142594009Y-111542580D01*
X142498771Y-111685438D01*
X142403533Y-111780676D01*
X142308295Y-111828295D01*
X143498771Y-111542580D02*
X143594009Y-111542580D01*
X143689247Y-111590200D01*
X143736866Y-111637819D01*
X143784485Y-111733057D01*
X143832104Y-111923533D01*
X143832104Y-112161628D01*
X143784485Y-112352104D01*
X143736866Y-112447342D01*
X143689247Y-112494961D01*
X143594009Y-112542580D01*
X143498771Y-112542580D01*
X143403533Y-112494961D01*
X143355914Y-112447342D01*
X143308295Y-112352104D01*
X143260676Y-112161628D01*
X143260676Y-111923533D01*
X143308295Y-111733057D01*
X143355914Y-111637819D01*
X143403533Y-111590200D01*
X143498771Y-111542580D01*
X151547533Y-112142542D02*
X151499914Y-112190161D01*
X151357057Y-112237780D01*
X151261819Y-112237780D01*
X151118961Y-112190161D01*
X151023723Y-112094923D01*
X150976104Y-111999685D01*
X150928485Y-111809209D01*
X150928485Y-111666352D01*
X150976104Y-111475876D01*
X151023723Y-111380638D01*
X151118961Y-111285400D01*
X151261819Y-111237780D01*
X151357057Y-111237780D01*
X151499914Y-111285400D01*
X151547533Y-111333019D01*
X152023723Y-112237780D02*
X152214200Y-112237780D01*
X152309438Y-112190161D01*
X152357057Y-112142542D01*
X152452295Y-111999685D01*
X152499914Y-111809209D01*
X152499914Y-111428257D01*
X152452295Y-111333019D01*
X152404676Y-111285400D01*
X152309438Y-111237780D01*
X152118961Y-111237780D01*
X152023723Y-111285400D01*
X151976104Y-111333019D01*
X151928485Y-111428257D01*
X151928485Y-111666352D01*
X151976104Y-111761590D01*
X152023723Y-111809209D01*
X152118961Y-111856828D01*
X152309438Y-111856828D01*
X152404676Y-111809209D01*
X152452295Y-111761590D01*
X152499914Y-111666352D01*
X134255213Y-128616982D02*
X134207594Y-128664601D01*
X134064737Y-128712220D01*
X133969499Y-128712220D01*
X133826641Y-128664601D01*
X133731403Y-128569363D01*
X133683784Y-128474125D01*
X133636165Y-128283649D01*
X133636165Y-128140792D01*
X133683784Y-127950316D01*
X133731403Y-127855078D01*
X133826641Y-127759840D01*
X133969499Y-127712220D01*
X134064737Y-127712220D01*
X134207594Y-127759840D01*
X134255213Y-127807459D01*
X134826641Y-128140792D02*
X134731403Y-128093173D01*
X134683784Y-128045554D01*
X134636165Y-127950316D01*
X134636165Y-127902697D01*
X134683784Y-127807459D01*
X134731403Y-127759840D01*
X134826641Y-127712220D01*
X135017118Y-127712220D01*
X135112356Y-127759840D01*
X135159975Y-127807459D01*
X135207594Y-127902697D01*
X135207594Y-127950316D01*
X135159975Y-128045554D01*
X135112356Y-128093173D01*
X135017118Y-128140792D01*
X134826641Y-128140792D01*
X134731403Y-128188411D01*
X134683784Y-128236030D01*
X134636165Y-128331268D01*
X134636165Y-128521744D01*
X134683784Y-128616982D01*
X134731403Y-128664601D01*
X134826641Y-128712220D01*
X135017118Y-128712220D01*
X135112356Y-128664601D01*
X135159975Y-128616982D01*
X135207594Y-128521744D01*
X135207594Y-128331268D01*
X135159975Y-128236030D01*
X135112356Y-128188411D01*
X135017118Y-128140792D01*
X130775413Y-105629982D02*
X130727794Y-105677601D01*
X130584937Y-105725220D01*
X130489699Y-105725220D01*
X130346841Y-105677601D01*
X130251603Y-105582363D01*
X130203984Y-105487125D01*
X130156365Y-105296649D01*
X130156365Y-105153792D01*
X130203984Y-104963316D01*
X130251603Y-104868078D01*
X130346841Y-104772840D01*
X130489699Y-104725220D01*
X130584937Y-104725220D01*
X130727794Y-104772840D01*
X130775413Y-104820459D01*
X131632556Y-104725220D02*
X131442080Y-104725220D01*
X131346841Y-104772840D01*
X131299222Y-104820459D01*
X131203984Y-104963316D01*
X131156365Y-105153792D01*
X131156365Y-105534744D01*
X131203984Y-105629982D01*
X131251603Y-105677601D01*
X131346841Y-105725220D01*
X131537318Y-105725220D01*
X131632556Y-105677601D01*
X131680175Y-105629982D01*
X131727794Y-105534744D01*
X131727794Y-105296649D01*
X131680175Y-105201411D01*
X131632556Y-105153792D01*
X131537318Y-105106173D01*
X131346841Y-105106173D01*
X131251603Y-105153792D01*
X131203984Y-105201411D01*
X131156365Y-105296649D01*
X124824742Y-120956466D02*
X124872361Y-121004085D01*
X124919980Y-121146942D01*
X124919980Y-121242180D01*
X124872361Y-121385038D01*
X124777123Y-121480276D01*
X124681885Y-121527895D01*
X124491409Y-121575514D01*
X124348552Y-121575514D01*
X124158076Y-121527895D01*
X124062838Y-121480276D01*
X123967600Y-121385038D01*
X123919980Y-121242180D01*
X123919980Y-121146942D01*
X123967600Y-121004085D01*
X124015219Y-120956466D01*
X124253314Y-120099323D02*
X124919980Y-120099323D01*
X123872361Y-120337419D02*
X124586647Y-120575514D01*
X124586647Y-119956466D01*
X132040333Y-123191542D02*
X131992714Y-123239161D01*
X131849857Y-123286780D01*
X131754619Y-123286780D01*
X131611761Y-123239161D01*
X131516523Y-123143923D01*
X131468904Y-123048685D01*
X131421285Y-122858209D01*
X131421285Y-122715352D01*
X131468904Y-122524876D01*
X131516523Y-122429638D01*
X131611761Y-122334400D01*
X131754619Y-122286780D01*
X131849857Y-122286780D01*
X131992714Y-122334400D01*
X132040333Y-122382019D01*
X132373666Y-122286780D02*
X132992714Y-122286780D01*
X132659380Y-122667733D01*
X132802238Y-122667733D01*
X132897476Y-122715352D01*
X132945095Y-122762971D01*
X132992714Y-122858209D01*
X132992714Y-123096304D01*
X132945095Y-123191542D01*
X132897476Y-123239161D01*
X132802238Y-123286780D01*
X132516523Y-123286780D01*
X132421285Y-123239161D01*
X132373666Y-123191542D01*
X131989533Y-127331742D02*
X131941914Y-127379361D01*
X131799057Y-127426980D01*
X131703819Y-127426980D01*
X131560961Y-127379361D01*
X131465723Y-127284123D01*
X131418104Y-127188885D01*
X131370485Y-126998409D01*
X131370485Y-126855552D01*
X131418104Y-126665076D01*
X131465723Y-126569838D01*
X131560961Y-126474600D01*
X131703819Y-126426980D01*
X131799057Y-126426980D01*
X131941914Y-126474600D01*
X131989533Y-126522219D01*
X132370485Y-126522219D02*
X132418104Y-126474600D01*
X132513342Y-126426980D01*
X132751438Y-126426980D01*
X132846676Y-126474600D01*
X132894295Y-126522219D01*
X132941914Y-126617457D01*
X132941914Y-126712695D01*
X132894295Y-126855552D01*
X132322866Y-127426980D01*
X132941914Y-127426980D01*
X131964133Y-125274342D02*
X131916514Y-125321961D01*
X131773657Y-125369580D01*
X131678419Y-125369580D01*
X131535561Y-125321961D01*
X131440323Y-125226723D01*
X131392704Y-125131485D01*
X131345085Y-124941009D01*
X131345085Y-124798152D01*
X131392704Y-124607676D01*
X131440323Y-124512438D01*
X131535561Y-124417200D01*
X131678419Y-124369580D01*
X131773657Y-124369580D01*
X131916514Y-124417200D01*
X131964133Y-124464819D01*
X132916514Y-125369580D02*
X132345085Y-125369580D01*
X132630800Y-125369580D02*
X132630800Y-124369580D01*
X132535561Y-124512438D01*
X132440323Y-124607676D01*
X132345085Y-124655295D01*
M02*
