G04 #@! TF.GenerationSoftware,KiCad,Pcbnew,(5.1.5)-3*
G04 #@! TF.CreationDate,2019-12-12T17:13:38-08:00*
G04 #@! TF.ProjectId,EsperDNS,45737065-7244-44e5-932e-6b696361645f,rev?*
G04 #@! TF.SameCoordinates,Original*
G04 #@! TF.FileFunction,Soldermask,Top*
G04 #@! TF.FilePolarity,Negative*
%FSLAX46Y46*%
G04 Gerber Fmt 4.6, Leading zero omitted, Abs format (unit mm)*
G04 Created by KiCad (PCBNEW (5.1.5)-3) date 2019-12-12 17:13:38*
%MOMM*%
%LPD*%
G04 APERTURE LIST*
%ADD10C,0.100000*%
G04 APERTURE END LIST*
D10*
G36*
X127485600Y-138247200D02*
G01*
X125483600Y-138247200D01*
X125483600Y-136245200D01*
X127485600Y-136245200D01*
X127485600Y-138247200D01*
G37*
G36*
X129885600Y-138247200D02*
G01*
X127883600Y-138247200D01*
X127883600Y-136245200D01*
X129885600Y-136245200D01*
X129885600Y-138247200D01*
G37*
G36*
X132435600Y-138247200D02*
G01*
X130533600Y-138247200D01*
X130533600Y-136245200D01*
X132435600Y-136245200D01*
X132435600Y-138247200D01*
G37*
G36*
X124835600Y-138247200D02*
G01*
X122933600Y-138247200D01*
X122933600Y-136245200D01*
X124835600Y-136245200D01*
X124835600Y-138247200D01*
G37*
G36*
X150798017Y-136195358D02*
G01*
X150872270Y-136226115D01*
X150946521Y-136256870D01*
X150946522Y-136256871D01*
X151080167Y-136346169D01*
X151193831Y-136459833D01*
X151260804Y-136560067D01*
X151283130Y-136593479D01*
X151302189Y-136639492D01*
X151344642Y-136741983D01*
X151376000Y-136899630D01*
X151376000Y-137060370D01*
X151344642Y-137218017D01*
X151313885Y-137292270D01*
X151283130Y-137366521D01*
X151283129Y-137366522D01*
X151193831Y-137500167D01*
X151080167Y-137613831D01*
X150979933Y-137680805D01*
X150946521Y-137703130D01*
X150872270Y-137733885D01*
X150798017Y-137764642D01*
X150640370Y-137796000D01*
X150479630Y-137796000D01*
X150321983Y-137764642D01*
X150247730Y-137733885D01*
X150173479Y-137703130D01*
X150140067Y-137680805D01*
X150039833Y-137613831D01*
X149926169Y-137500167D01*
X149836871Y-137366522D01*
X149836870Y-137366521D01*
X149806115Y-137292270D01*
X149775358Y-137218017D01*
X149744000Y-137060370D01*
X149744000Y-136899630D01*
X149775358Y-136741983D01*
X149817811Y-136639492D01*
X149836870Y-136593479D01*
X149859195Y-136560067D01*
X149926169Y-136459833D01*
X150039833Y-136346169D01*
X150173478Y-136256871D01*
X150173479Y-136256870D01*
X150247730Y-136226115D01*
X150321983Y-136195358D01*
X150479630Y-136164000D01*
X150640370Y-136164000D01*
X150798017Y-136195358D01*
G37*
G36*
X140598017Y-136195358D02*
G01*
X140672270Y-136226115D01*
X140746521Y-136256870D01*
X140746522Y-136256871D01*
X140880167Y-136346169D01*
X140993831Y-136459833D01*
X141060804Y-136560067D01*
X141083130Y-136593479D01*
X141102189Y-136639492D01*
X141144642Y-136741983D01*
X141176000Y-136899630D01*
X141176000Y-137060370D01*
X141144642Y-137218017D01*
X141113885Y-137292270D01*
X141083130Y-137366521D01*
X141083129Y-137366522D01*
X140993831Y-137500167D01*
X140880167Y-137613831D01*
X140779933Y-137680805D01*
X140746521Y-137703130D01*
X140672270Y-137733885D01*
X140598017Y-137764642D01*
X140440370Y-137796000D01*
X140279630Y-137796000D01*
X140121983Y-137764642D01*
X140047730Y-137733885D01*
X139973479Y-137703130D01*
X139940067Y-137680805D01*
X139839833Y-137613831D01*
X139726169Y-137500167D01*
X139636871Y-137366522D01*
X139636870Y-137366521D01*
X139606115Y-137292270D01*
X139575358Y-137218017D01*
X139544000Y-137060370D01*
X139544000Y-136899630D01*
X139575358Y-136741983D01*
X139617811Y-136639492D01*
X139636870Y-136593479D01*
X139659195Y-136560067D01*
X139726169Y-136459833D01*
X139839833Y-136346169D01*
X139973478Y-136256871D01*
X139973479Y-136256870D01*
X140047730Y-136226115D01*
X140121983Y-136195358D01*
X140279630Y-136164000D01*
X140440370Y-136164000D01*
X140598017Y-136195358D01*
G37*
G36*
X120216791Y-136624985D02*
G01*
X120250769Y-136635293D01*
X120282090Y-136652034D01*
X120309539Y-136674561D01*
X120332066Y-136702010D01*
X120348807Y-136733331D01*
X120359115Y-136767309D01*
X120363200Y-136808790D01*
X120363200Y-137410010D01*
X120359115Y-137451491D01*
X120348807Y-137485469D01*
X120332066Y-137516790D01*
X120309539Y-137544239D01*
X120282090Y-137566766D01*
X120250769Y-137583507D01*
X120216791Y-137593815D01*
X120175310Y-137597900D01*
X119499090Y-137597900D01*
X119457609Y-137593815D01*
X119423631Y-137583507D01*
X119392310Y-137566766D01*
X119364861Y-137544239D01*
X119342334Y-137516790D01*
X119325593Y-137485469D01*
X119315285Y-137451491D01*
X119311200Y-137410010D01*
X119311200Y-136808790D01*
X119315285Y-136767309D01*
X119325593Y-136733331D01*
X119342334Y-136702010D01*
X119364861Y-136674561D01*
X119392310Y-136652034D01*
X119423631Y-136635293D01*
X119457609Y-136624985D01*
X119499090Y-136620900D01*
X120175310Y-136620900D01*
X120216791Y-136624985D01*
G37*
G36*
X143048017Y-134675358D02*
G01*
X143196521Y-134736870D01*
X143196522Y-134736871D01*
X143330167Y-134826169D01*
X143443831Y-134939833D01*
X143510804Y-135040067D01*
X143533130Y-135073479D01*
X143555303Y-135127010D01*
X143594642Y-135221983D01*
X143626000Y-135379630D01*
X143626000Y-135540370D01*
X143594642Y-135698017D01*
X143533130Y-135846521D01*
X143533129Y-135846522D01*
X143443831Y-135980167D01*
X143330167Y-136093831D01*
X143229933Y-136160804D01*
X143196521Y-136183130D01*
X143122270Y-136213885D01*
X143048017Y-136244642D01*
X142890370Y-136276000D01*
X142729630Y-136276000D01*
X142571983Y-136244642D01*
X142497730Y-136213885D01*
X142423479Y-136183130D01*
X142390067Y-136160805D01*
X142289833Y-136093831D01*
X142176169Y-135980167D01*
X142086871Y-135846522D01*
X142086870Y-135846521D01*
X142025358Y-135698017D01*
X141994000Y-135540370D01*
X141994000Y-135379630D01*
X142025358Y-135221983D01*
X142064697Y-135127010D01*
X142086870Y-135073479D01*
X142109195Y-135040067D01*
X142176169Y-134939833D01*
X142289833Y-134826169D01*
X142423478Y-134736871D01*
X142423479Y-134736870D01*
X142571983Y-134675358D01*
X142729630Y-134644000D01*
X142890370Y-134644000D01*
X143048017Y-134675358D01*
G37*
G36*
X153248017Y-134675358D02*
G01*
X153396521Y-134736870D01*
X153396522Y-134736871D01*
X153530167Y-134826169D01*
X153643831Y-134939833D01*
X153710804Y-135040067D01*
X153733130Y-135073479D01*
X153755303Y-135127010D01*
X153794642Y-135221983D01*
X153826000Y-135379630D01*
X153826000Y-135540370D01*
X153794642Y-135698017D01*
X153733130Y-135846521D01*
X153733129Y-135846522D01*
X153643831Y-135980167D01*
X153530167Y-136093831D01*
X153429933Y-136160804D01*
X153396521Y-136183130D01*
X153322270Y-136213885D01*
X153248017Y-136244642D01*
X153090370Y-136276000D01*
X152929630Y-136276000D01*
X152771983Y-136244642D01*
X152697730Y-136213885D01*
X152623479Y-136183130D01*
X152590067Y-136160805D01*
X152489833Y-136093831D01*
X152376169Y-135980167D01*
X152286871Y-135846522D01*
X152286870Y-135846521D01*
X152225358Y-135698017D01*
X152194000Y-135540370D01*
X152194000Y-135379630D01*
X152225358Y-135221983D01*
X152264697Y-135127010D01*
X152286870Y-135073479D01*
X152309195Y-135040067D01*
X152376169Y-134939833D01*
X152489833Y-134826169D01*
X152623478Y-134736871D01*
X152623479Y-134736870D01*
X152771983Y-134675358D01*
X152929630Y-134644000D01*
X153090370Y-134644000D01*
X153248017Y-134675358D01*
G37*
G36*
X120216791Y-135049985D02*
G01*
X120250769Y-135060293D01*
X120282090Y-135077034D01*
X120309539Y-135099561D01*
X120332066Y-135127010D01*
X120348807Y-135158331D01*
X120359115Y-135192309D01*
X120363200Y-135233790D01*
X120363200Y-135835010D01*
X120359115Y-135876491D01*
X120348807Y-135910469D01*
X120332066Y-135941790D01*
X120309539Y-135969239D01*
X120282090Y-135991766D01*
X120250769Y-136008507D01*
X120216791Y-136018815D01*
X120175310Y-136022900D01*
X119499090Y-136022900D01*
X119457609Y-136018815D01*
X119423631Y-136008507D01*
X119392310Y-135991766D01*
X119364861Y-135969239D01*
X119342334Y-135941790D01*
X119325593Y-135910469D01*
X119315285Y-135876491D01*
X119311200Y-135835010D01*
X119311200Y-135233790D01*
X119315285Y-135192309D01*
X119325593Y-135158331D01*
X119342334Y-135127010D01*
X119364861Y-135099561D01*
X119392310Y-135077034D01*
X119423631Y-135060293D01*
X119457609Y-135049985D01*
X119499090Y-135045900D01*
X120175310Y-135045900D01*
X120216791Y-135049985D01*
G37*
G36*
X125685600Y-135547200D02*
G01*
X123483600Y-135547200D01*
X123483600Y-133845200D01*
X125685600Y-133845200D01*
X125685600Y-135547200D01*
G37*
G36*
X131885600Y-135547200D02*
G01*
X129683600Y-135547200D01*
X129683600Y-133845200D01*
X131885600Y-133845200D01*
X131885600Y-135547200D01*
G37*
G36*
X129235600Y-135297200D02*
G01*
X126133600Y-135297200D01*
X126133600Y-133845200D01*
X129235600Y-133845200D01*
X129235600Y-135297200D01*
G37*
G36*
X141458542Y-129950390D02*
G01*
X141607049Y-129979930D01*
X141888097Y-130096344D01*
X141942028Y-130118683D01*
X142004512Y-130144565D01*
X142362219Y-130383577D01*
X142666423Y-130687781D01*
X142905435Y-131045488D01*
X143070070Y-131442951D01*
X143090326Y-131544785D01*
X143154000Y-131864893D01*
X143154000Y-132295107D01*
X143125857Y-132436590D01*
X143070070Y-132717049D01*
X142905435Y-133114512D01*
X142666423Y-133472219D01*
X142362219Y-133776423D01*
X142004512Y-134015435D01*
X141607049Y-134180070D01*
X141466401Y-134208047D01*
X141185107Y-134264000D01*
X140754893Y-134264000D01*
X140473599Y-134208047D01*
X140332951Y-134180070D01*
X139935488Y-134015435D01*
X139577781Y-133776423D01*
X139273577Y-133472219D01*
X139034565Y-133114512D01*
X138869930Y-132717049D01*
X138814143Y-132436590D01*
X138786000Y-132295107D01*
X138786000Y-131864893D01*
X138849674Y-131544785D01*
X138869930Y-131442951D01*
X139034565Y-131045488D01*
X139273577Y-130687781D01*
X139577781Y-130383577D01*
X139935488Y-130144565D01*
X139997973Y-130118683D01*
X140051903Y-130096344D01*
X140332951Y-129979930D01*
X140481458Y-129950390D01*
X140754893Y-129896000D01*
X141185107Y-129896000D01*
X141458542Y-129950390D01*
G37*
G36*
X152888542Y-129950390D02*
G01*
X153037049Y-129979930D01*
X153318097Y-130096344D01*
X153372028Y-130118683D01*
X153434512Y-130144565D01*
X153792219Y-130383577D01*
X154096423Y-130687781D01*
X154335435Y-131045488D01*
X154500070Y-131442951D01*
X154520326Y-131544785D01*
X154584000Y-131864893D01*
X154584000Y-132295107D01*
X154555857Y-132436590D01*
X154500070Y-132717049D01*
X154335435Y-133114512D01*
X154096423Y-133472219D01*
X153792219Y-133776423D01*
X153434512Y-134015435D01*
X153037049Y-134180070D01*
X152896401Y-134208047D01*
X152615107Y-134264000D01*
X152184893Y-134264000D01*
X151903599Y-134208047D01*
X151762951Y-134180070D01*
X151365488Y-134015435D01*
X151007781Y-133776423D01*
X150703577Y-133472219D01*
X150464565Y-133114512D01*
X150299930Y-132717049D01*
X150244143Y-132436590D01*
X150216000Y-132295107D01*
X150216000Y-131864893D01*
X150279674Y-131544785D01*
X150299930Y-131442951D01*
X150464565Y-131045488D01*
X150703577Y-130687781D01*
X151007781Y-130383577D01*
X151365488Y-130144565D01*
X151427973Y-130118683D01*
X151481903Y-130096344D01*
X151762951Y-129979930D01*
X151911458Y-129950390D01*
X152184893Y-129896000D01*
X152615107Y-129896000D01*
X152888542Y-129950390D01*
G37*
G36*
X120216791Y-132154385D02*
G01*
X120250769Y-132164693D01*
X120282090Y-132181434D01*
X120309539Y-132203961D01*
X120332066Y-132231410D01*
X120348807Y-132262731D01*
X120359115Y-132296709D01*
X120363200Y-132338190D01*
X120363200Y-132939410D01*
X120359115Y-132980891D01*
X120348807Y-133014869D01*
X120332066Y-133046190D01*
X120309539Y-133073639D01*
X120282090Y-133096166D01*
X120250769Y-133112907D01*
X120216791Y-133123215D01*
X120175310Y-133127300D01*
X119499090Y-133127300D01*
X119457609Y-133123215D01*
X119423631Y-133112907D01*
X119392310Y-133096166D01*
X119364861Y-133073639D01*
X119342334Y-133046190D01*
X119325593Y-133014869D01*
X119315285Y-132980891D01*
X119311200Y-132939410D01*
X119311200Y-132338190D01*
X119315285Y-132296709D01*
X119325593Y-132262731D01*
X119342334Y-132231410D01*
X119364861Y-132203961D01*
X119392310Y-132181434D01*
X119423631Y-132164693D01*
X119457609Y-132154385D01*
X119499090Y-132150300D01*
X120175310Y-132150300D01*
X120216791Y-132154385D01*
G37*
G36*
X135329791Y-131544785D02*
G01*
X135363769Y-131555093D01*
X135395090Y-131571834D01*
X135422539Y-131594361D01*
X135445066Y-131621810D01*
X135461807Y-131653131D01*
X135472115Y-131687109D01*
X135476200Y-131728590D01*
X135476200Y-132329810D01*
X135472115Y-132371291D01*
X135461807Y-132405269D01*
X135445066Y-132436590D01*
X135422539Y-132464039D01*
X135395090Y-132486566D01*
X135363769Y-132503307D01*
X135329791Y-132513615D01*
X135288310Y-132517700D01*
X134612090Y-132517700D01*
X134570609Y-132513615D01*
X134536631Y-132503307D01*
X134505310Y-132486566D01*
X134477861Y-132464039D01*
X134455334Y-132436590D01*
X134438593Y-132405269D01*
X134428285Y-132371291D01*
X134424200Y-132329810D01*
X134424200Y-131728590D01*
X134428285Y-131687109D01*
X134438593Y-131653131D01*
X134455334Y-131621810D01*
X134477861Y-131594361D01*
X134505310Y-131571834D01*
X134536631Y-131555093D01*
X134570609Y-131544785D01*
X134612090Y-131540700D01*
X135288310Y-131540700D01*
X135329791Y-131544785D01*
G37*
G36*
X126769991Y-131341585D02*
G01*
X126803969Y-131351893D01*
X126835290Y-131368634D01*
X126862739Y-131391161D01*
X126885266Y-131418610D01*
X126902007Y-131449931D01*
X126912315Y-131483909D01*
X126916400Y-131525390D01*
X126916400Y-132126610D01*
X126912315Y-132168091D01*
X126902007Y-132202069D01*
X126885266Y-132233390D01*
X126862739Y-132260839D01*
X126835290Y-132283366D01*
X126803969Y-132300107D01*
X126769991Y-132310415D01*
X126728510Y-132314500D01*
X126052290Y-132314500D01*
X126010809Y-132310415D01*
X125976831Y-132300107D01*
X125945510Y-132283366D01*
X125918061Y-132260839D01*
X125895534Y-132233390D01*
X125878793Y-132202069D01*
X125868485Y-132168091D01*
X125864400Y-132126610D01*
X125864400Y-131525390D01*
X125868485Y-131483909D01*
X125878793Y-131449931D01*
X125895534Y-131418610D01*
X125918061Y-131391161D01*
X125945510Y-131368634D01*
X125976831Y-131351893D01*
X126010809Y-131341585D01*
X126052290Y-131337500D01*
X126728510Y-131337500D01*
X126769991Y-131341585D01*
G37*
G36*
X120216791Y-130579385D02*
G01*
X120250769Y-130589693D01*
X120282090Y-130606434D01*
X120309539Y-130628961D01*
X120332066Y-130656410D01*
X120348807Y-130687731D01*
X120359115Y-130721709D01*
X120363200Y-130763190D01*
X120363200Y-131364410D01*
X120359115Y-131405891D01*
X120348807Y-131439869D01*
X120332066Y-131471190D01*
X120309539Y-131498639D01*
X120282090Y-131521166D01*
X120250769Y-131537907D01*
X120216791Y-131548215D01*
X120175310Y-131552300D01*
X119499090Y-131552300D01*
X119457609Y-131548215D01*
X119423631Y-131537907D01*
X119392310Y-131521166D01*
X119364861Y-131498639D01*
X119342334Y-131471190D01*
X119325593Y-131439869D01*
X119315285Y-131405891D01*
X119311200Y-131364410D01*
X119311200Y-130763190D01*
X119315285Y-130721709D01*
X119325593Y-130687731D01*
X119342334Y-130656410D01*
X119364861Y-130628961D01*
X119392310Y-130606434D01*
X119423631Y-130589693D01*
X119457609Y-130579385D01*
X119499090Y-130575300D01*
X120175310Y-130575300D01*
X120216791Y-130579385D01*
G37*
G36*
X135329791Y-129969785D02*
G01*
X135363769Y-129980093D01*
X135395090Y-129996834D01*
X135422539Y-130019361D01*
X135445066Y-130046810D01*
X135461807Y-130078131D01*
X135472115Y-130112109D01*
X135476200Y-130153590D01*
X135476200Y-130754810D01*
X135472115Y-130796291D01*
X135461807Y-130830269D01*
X135445066Y-130861590D01*
X135422539Y-130889039D01*
X135395090Y-130911566D01*
X135363769Y-130928307D01*
X135329791Y-130938615D01*
X135288310Y-130942700D01*
X134612090Y-130942700D01*
X134570609Y-130938615D01*
X134536631Y-130928307D01*
X134505310Y-130911566D01*
X134477861Y-130889039D01*
X134455334Y-130861590D01*
X134438593Y-130830269D01*
X134428285Y-130796291D01*
X134424200Y-130754810D01*
X134424200Y-130153590D01*
X134428285Y-130112109D01*
X134438593Y-130078131D01*
X134455334Y-130046810D01*
X134477861Y-130019361D01*
X134505310Y-129996834D01*
X134536631Y-129980093D01*
X134570609Y-129969785D01*
X134612090Y-129965700D01*
X135288310Y-129965700D01*
X135329791Y-129969785D01*
G37*
G36*
X126769991Y-129766585D02*
G01*
X126803969Y-129776893D01*
X126835290Y-129793634D01*
X126862739Y-129816161D01*
X126885266Y-129843610D01*
X126902007Y-129874931D01*
X126912315Y-129908909D01*
X126916400Y-129950390D01*
X126916400Y-130551610D01*
X126912315Y-130593091D01*
X126902007Y-130627069D01*
X126885266Y-130658390D01*
X126862739Y-130685839D01*
X126835290Y-130708366D01*
X126803969Y-130725107D01*
X126769991Y-130735415D01*
X126728510Y-130739500D01*
X126052290Y-130739500D01*
X126010809Y-130735415D01*
X125976831Y-130725107D01*
X125945510Y-130708366D01*
X125918061Y-130685839D01*
X125895534Y-130658390D01*
X125878793Y-130627069D01*
X125868485Y-130593091D01*
X125864400Y-130551610D01*
X125864400Y-129950390D01*
X125868485Y-129908909D01*
X125878793Y-129874931D01*
X125895534Y-129843610D01*
X125918061Y-129816161D01*
X125945510Y-129793634D01*
X125976831Y-129776893D01*
X126010809Y-129766585D01*
X126052290Y-129762500D01*
X126728510Y-129762500D01*
X126769991Y-129766585D01*
G37*
G36*
X139168339Y-127848710D02*
G01*
X139391911Y-127941317D01*
X139391913Y-127941318D01*
X139593123Y-128075762D01*
X139764238Y-128246877D01*
X139898682Y-128448087D01*
X139898683Y-128448089D01*
X139991290Y-128671661D01*
X140038500Y-128909002D01*
X140038500Y-129150998D01*
X139991290Y-129388339D01*
X139898683Y-129611911D01*
X139898682Y-129611913D01*
X139764238Y-129813123D01*
X139593123Y-129984238D01*
X139391913Y-130118682D01*
X139391912Y-130118683D01*
X139391911Y-130118683D01*
X139168339Y-130211290D01*
X138930998Y-130258500D01*
X138689002Y-130258500D01*
X138451661Y-130211290D01*
X138228089Y-130118683D01*
X138228088Y-130118683D01*
X138228087Y-130118682D01*
X138026877Y-129984238D01*
X137855762Y-129813123D01*
X137721318Y-129611913D01*
X137721317Y-129611911D01*
X137628710Y-129388339D01*
X137581500Y-129150998D01*
X137581500Y-128909002D01*
X137628710Y-128671661D01*
X137721317Y-128448089D01*
X137721318Y-128448087D01*
X137855762Y-128246877D01*
X138026877Y-128075762D01*
X138228087Y-127941318D01*
X138228089Y-127941317D01*
X138451661Y-127848710D01*
X138689002Y-127801500D01*
X138930998Y-127801500D01*
X139168339Y-127848710D01*
G37*
G36*
X154918339Y-127848710D02*
G01*
X155141911Y-127941317D01*
X155141913Y-127941318D01*
X155343123Y-128075762D01*
X155514238Y-128246877D01*
X155648682Y-128448087D01*
X155648683Y-128448089D01*
X155741290Y-128671661D01*
X155788500Y-128909002D01*
X155788500Y-129150998D01*
X155741290Y-129388339D01*
X155648683Y-129611911D01*
X155648682Y-129611913D01*
X155514238Y-129813123D01*
X155343123Y-129984238D01*
X155141913Y-130118682D01*
X155141912Y-130118683D01*
X155141911Y-130118683D01*
X154918339Y-130211290D01*
X154680998Y-130258500D01*
X154439002Y-130258500D01*
X154201661Y-130211290D01*
X153978089Y-130118683D01*
X153978088Y-130118683D01*
X153978087Y-130118682D01*
X153776877Y-129984238D01*
X153605762Y-129813123D01*
X153471318Y-129611913D01*
X153471317Y-129611911D01*
X153378710Y-129388339D01*
X153331500Y-129150998D01*
X153331500Y-128909002D01*
X153378710Y-128671661D01*
X153471317Y-128448089D01*
X153471318Y-128448087D01*
X153605762Y-128246877D01*
X153776877Y-128075762D01*
X153978087Y-127941318D01*
X153978089Y-127941317D01*
X154201661Y-127848710D01*
X154439002Y-127801500D01*
X154680998Y-127801500D01*
X154918339Y-127848710D01*
G37*
G36*
X130644291Y-126478085D02*
G01*
X130678269Y-126488393D01*
X130709590Y-126505134D01*
X130737039Y-126527661D01*
X130759566Y-126555110D01*
X130776307Y-126586431D01*
X130786615Y-126620409D01*
X130790700Y-126661890D01*
X130790700Y-127338110D01*
X130786615Y-127379591D01*
X130776307Y-127413569D01*
X130759566Y-127444890D01*
X130737039Y-127472339D01*
X130709590Y-127494866D01*
X130678269Y-127511607D01*
X130644291Y-127521915D01*
X130602810Y-127526000D01*
X130001590Y-127526000D01*
X129960109Y-127521915D01*
X129926131Y-127511607D01*
X129894810Y-127494866D01*
X129867361Y-127472339D01*
X129844834Y-127444890D01*
X129828093Y-127413569D01*
X129817785Y-127379591D01*
X129813700Y-127338110D01*
X129813700Y-126661890D01*
X129817785Y-126620409D01*
X129828093Y-126586431D01*
X129844834Y-126555110D01*
X129867361Y-126527661D01*
X129894810Y-126505134D01*
X129926131Y-126488393D01*
X129960109Y-126478085D01*
X130001590Y-126474000D01*
X130602810Y-126474000D01*
X130644291Y-126478085D01*
G37*
G36*
X129069291Y-126478085D02*
G01*
X129103269Y-126488393D01*
X129134590Y-126505134D01*
X129162039Y-126527661D01*
X129184566Y-126555110D01*
X129201307Y-126586431D01*
X129211615Y-126620409D01*
X129215700Y-126661890D01*
X129215700Y-127338110D01*
X129211615Y-127379591D01*
X129201307Y-127413569D01*
X129184566Y-127444890D01*
X129162039Y-127472339D01*
X129134590Y-127494866D01*
X129103269Y-127511607D01*
X129069291Y-127521915D01*
X129027810Y-127526000D01*
X128426590Y-127526000D01*
X128385109Y-127521915D01*
X128351131Y-127511607D01*
X128319810Y-127494866D01*
X128292361Y-127472339D01*
X128269834Y-127444890D01*
X128253093Y-127413569D01*
X128242785Y-127379591D01*
X128238700Y-127338110D01*
X128238700Y-126661890D01*
X128242785Y-126620409D01*
X128253093Y-126586431D01*
X128269834Y-126555110D01*
X128292361Y-126527661D01*
X128319810Y-126505134D01*
X128351131Y-126488393D01*
X128385109Y-126478085D01*
X128426590Y-126474000D01*
X129027810Y-126474000D01*
X129069291Y-126478085D01*
G37*
G36*
X134923391Y-126185585D02*
G01*
X134957369Y-126195893D01*
X134988690Y-126212634D01*
X135016139Y-126235161D01*
X135038666Y-126262610D01*
X135055407Y-126293931D01*
X135065715Y-126327909D01*
X135069800Y-126369390D01*
X135069800Y-126970610D01*
X135065715Y-127012091D01*
X135055407Y-127046069D01*
X135038666Y-127077390D01*
X135016139Y-127104839D01*
X134988690Y-127127366D01*
X134957369Y-127144107D01*
X134923391Y-127154415D01*
X134881910Y-127158500D01*
X134205690Y-127158500D01*
X134164209Y-127154415D01*
X134130231Y-127144107D01*
X134098910Y-127127366D01*
X134071461Y-127104839D01*
X134048934Y-127077390D01*
X134032193Y-127046069D01*
X134021885Y-127012091D01*
X134017800Y-126970610D01*
X134017800Y-126369390D01*
X134021885Y-126327909D01*
X134032193Y-126293931D01*
X134048934Y-126262610D01*
X134071461Y-126235161D01*
X134098910Y-126212634D01*
X134130231Y-126195893D01*
X134164209Y-126185585D01*
X134205690Y-126181500D01*
X134881910Y-126181500D01*
X134923391Y-126185585D01*
G37*
G36*
X120318391Y-125918885D02*
G01*
X120352369Y-125929193D01*
X120383690Y-125945934D01*
X120411139Y-125968461D01*
X120433666Y-125995910D01*
X120450407Y-126027231D01*
X120460715Y-126061209D01*
X120464800Y-126102690D01*
X120464800Y-126703910D01*
X120460715Y-126745391D01*
X120450407Y-126779369D01*
X120433666Y-126810690D01*
X120411139Y-126838139D01*
X120383690Y-126860666D01*
X120352369Y-126877407D01*
X120318391Y-126887715D01*
X120276910Y-126891800D01*
X119600690Y-126891800D01*
X119559209Y-126887715D01*
X119525231Y-126877407D01*
X119493910Y-126860666D01*
X119466461Y-126838139D01*
X119443934Y-126810690D01*
X119427193Y-126779369D01*
X119416885Y-126745391D01*
X119412800Y-126703910D01*
X119412800Y-126102690D01*
X119416885Y-126061209D01*
X119427193Y-126027231D01*
X119443934Y-125995910D01*
X119466461Y-125968461D01*
X119493910Y-125945934D01*
X119525231Y-125929193D01*
X119559209Y-125918885D01*
X119600690Y-125914800D01*
X120276910Y-125914800D01*
X120318391Y-125918885D01*
G37*
G36*
X142458766Y-125008821D02*
G01*
X142595257Y-125065358D01*
X142718097Y-125147437D01*
X142822563Y-125251903D01*
X142904642Y-125374743D01*
X142961179Y-125511234D01*
X142990000Y-125656130D01*
X142990000Y-125803870D01*
X142961179Y-125948766D01*
X142904642Y-126085257D01*
X142822563Y-126208097D01*
X142718097Y-126312563D01*
X142595257Y-126394642D01*
X142458766Y-126451179D01*
X142313870Y-126480000D01*
X142166130Y-126480000D01*
X142021234Y-126451179D01*
X141884743Y-126394642D01*
X141761903Y-126312563D01*
X141657437Y-126208097D01*
X141575358Y-126085257D01*
X141518821Y-125948766D01*
X141490000Y-125803870D01*
X141490000Y-125656130D01*
X141518821Y-125511234D01*
X141575358Y-125374743D01*
X141657437Y-125251903D01*
X141761903Y-125147437D01*
X141884743Y-125065358D01*
X142021234Y-125008821D01*
X142166130Y-124980000D01*
X142313870Y-124980000D01*
X142458766Y-125008821D01*
G37*
G36*
X144998766Y-125008821D02*
G01*
X145135257Y-125065358D01*
X145258097Y-125147437D01*
X145362563Y-125251903D01*
X145444642Y-125374743D01*
X145501179Y-125511234D01*
X145530000Y-125656130D01*
X145530000Y-125803870D01*
X145501179Y-125948766D01*
X145444642Y-126085257D01*
X145362563Y-126208097D01*
X145258097Y-126312563D01*
X145135257Y-126394642D01*
X144998766Y-126451179D01*
X144853870Y-126480000D01*
X144706130Y-126480000D01*
X144561234Y-126451179D01*
X144424743Y-126394642D01*
X144301903Y-126312563D01*
X144197437Y-126208097D01*
X144115358Y-126085257D01*
X144058821Y-125948766D01*
X144030000Y-125803870D01*
X144030000Y-125656130D01*
X144058821Y-125511234D01*
X144115358Y-125374743D01*
X144197437Y-125251903D01*
X144301903Y-125147437D01*
X144424743Y-125065358D01*
X144561234Y-125008821D01*
X144706130Y-124980000D01*
X144853870Y-124980000D01*
X144998766Y-125008821D01*
G37*
G36*
X150078766Y-125008821D02*
G01*
X150215257Y-125065358D01*
X150338097Y-125147437D01*
X150442563Y-125251903D01*
X150524642Y-125374743D01*
X150581179Y-125511234D01*
X150610000Y-125656130D01*
X150610000Y-125803870D01*
X150581179Y-125948766D01*
X150524642Y-126085257D01*
X150442563Y-126208097D01*
X150338097Y-126312563D01*
X150215257Y-126394642D01*
X150078766Y-126451179D01*
X149933870Y-126480000D01*
X149786130Y-126480000D01*
X149641234Y-126451179D01*
X149504743Y-126394642D01*
X149381903Y-126312563D01*
X149277437Y-126208097D01*
X149195358Y-126085257D01*
X149138821Y-125948766D01*
X149110000Y-125803870D01*
X149110000Y-125656130D01*
X149138821Y-125511234D01*
X149195358Y-125374743D01*
X149277437Y-125251903D01*
X149381903Y-125147437D01*
X149504743Y-125065358D01*
X149641234Y-125008821D01*
X149786130Y-124980000D01*
X149933870Y-124980000D01*
X150078766Y-125008821D01*
G37*
G36*
X147538766Y-125008821D02*
G01*
X147675257Y-125065358D01*
X147798097Y-125147437D01*
X147902563Y-125251903D01*
X147984642Y-125374743D01*
X148041179Y-125511234D01*
X148070000Y-125656130D01*
X148070000Y-125803870D01*
X148041179Y-125948766D01*
X147984642Y-126085257D01*
X147902563Y-126208097D01*
X147798097Y-126312563D01*
X147675257Y-126394642D01*
X147538766Y-126451179D01*
X147393870Y-126480000D01*
X147246130Y-126480000D01*
X147101234Y-126451179D01*
X146964743Y-126394642D01*
X146841903Y-126312563D01*
X146737437Y-126208097D01*
X146655358Y-126085257D01*
X146598821Y-125948766D01*
X146570000Y-125803870D01*
X146570000Y-125656130D01*
X146598821Y-125511234D01*
X146655358Y-125374743D01*
X146737437Y-125251903D01*
X146841903Y-125147437D01*
X146964743Y-125065358D01*
X147101234Y-125008821D01*
X147246130Y-124980000D01*
X147393870Y-124980000D01*
X147538766Y-125008821D01*
G37*
G36*
X134923391Y-124610585D02*
G01*
X134957369Y-124620893D01*
X134988690Y-124637634D01*
X135016139Y-124660161D01*
X135038666Y-124687610D01*
X135055407Y-124718931D01*
X135065715Y-124752909D01*
X135069800Y-124794390D01*
X135069800Y-125395610D01*
X135065715Y-125437091D01*
X135055407Y-125471069D01*
X135038666Y-125502390D01*
X135016139Y-125529839D01*
X134988690Y-125552366D01*
X134957369Y-125569107D01*
X134923391Y-125579415D01*
X134881910Y-125583500D01*
X134205690Y-125583500D01*
X134164209Y-125579415D01*
X134130231Y-125569107D01*
X134098910Y-125552366D01*
X134071461Y-125529839D01*
X134048934Y-125502390D01*
X134032193Y-125471069D01*
X134021885Y-125437091D01*
X134017800Y-125395610D01*
X134017800Y-124794390D01*
X134021885Y-124752909D01*
X134032193Y-124718931D01*
X134048934Y-124687610D01*
X134071461Y-124660161D01*
X134098910Y-124637634D01*
X134130231Y-124620893D01*
X134164209Y-124610585D01*
X134205690Y-124606500D01*
X134881910Y-124606500D01*
X134923391Y-124610585D01*
G37*
G36*
X130644291Y-124395285D02*
G01*
X130678269Y-124405593D01*
X130709590Y-124422334D01*
X130737039Y-124444861D01*
X130759566Y-124472310D01*
X130776307Y-124503631D01*
X130786615Y-124537609D01*
X130790700Y-124579090D01*
X130790700Y-125255310D01*
X130786615Y-125296791D01*
X130776307Y-125330769D01*
X130759566Y-125362090D01*
X130737039Y-125389539D01*
X130709590Y-125412066D01*
X130678269Y-125428807D01*
X130644291Y-125439115D01*
X130602810Y-125443200D01*
X130001590Y-125443200D01*
X129960109Y-125439115D01*
X129926131Y-125428807D01*
X129894810Y-125412066D01*
X129867361Y-125389539D01*
X129844834Y-125362090D01*
X129828093Y-125330769D01*
X129817785Y-125296791D01*
X129813700Y-125255310D01*
X129813700Y-124579090D01*
X129817785Y-124537609D01*
X129828093Y-124503631D01*
X129844834Y-124472310D01*
X129867361Y-124444861D01*
X129894810Y-124422334D01*
X129926131Y-124405593D01*
X129960109Y-124395285D01*
X130001590Y-124391200D01*
X130602810Y-124391200D01*
X130644291Y-124395285D01*
G37*
G36*
X129069291Y-124395285D02*
G01*
X129103269Y-124405593D01*
X129134590Y-124422334D01*
X129162039Y-124444861D01*
X129184566Y-124472310D01*
X129201307Y-124503631D01*
X129211615Y-124537609D01*
X129215700Y-124579090D01*
X129215700Y-125255310D01*
X129211615Y-125296791D01*
X129201307Y-125330769D01*
X129184566Y-125362090D01*
X129162039Y-125389539D01*
X129134590Y-125412066D01*
X129103269Y-125428807D01*
X129069291Y-125439115D01*
X129027810Y-125443200D01*
X128426590Y-125443200D01*
X128385109Y-125439115D01*
X128351131Y-125428807D01*
X128319810Y-125412066D01*
X128292361Y-125389539D01*
X128269834Y-125362090D01*
X128253093Y-125330769D01*
X128242785Y-125296791D01*
X128238700Y-125255310D01*
X128238700Y-124579090D01*
X128242785Y-124537609D01*
X128253093Y-124503631D01*
X128269834Y-124472310D01*
X128292361Y-124444861D01*
X128319810Y-124422334D01*
X128351131Y-124405593D01*
X128385109Y-124395285D01*
X128426590Y-124391200D01*
X129027810Y-124391200D01*
X129069291Y-124395285D01*
G37*
G36*
X120318391Y-124343885D02*
G01*
X120352369Y-124354193D01*
X120383690Y-124370934D01*
X120411139Y-124393461D01*
X120433666Y-124420910D01*
X120450407Y-124452231D01*
X120460715Y-124486209D01*
X120464800Y-124527690D01*
X120464800Y-125128910D01*
X120460715Y-125170391D01*
X120450407Y-125204369D01*
X120433666Y-125235690D01*
X120411139Y-125263139D01*
X120383690Y-125285666D01*
X120352369Y-125302407D01*
X120318391Y-125312715D01*
X120276910Y-125316800D01*
X119600690Y-125316800D01*
X119559209Y-125312715D01*
X119525231Y-125302407D01*
X119493910Y-125285666D01*
X119466461Y-125263139D01*
X119443934Y-125235690D01*
X119427193Y-125204369D01*
X119416885Y-125170391D01*
X119412800Y-125128910D01*
X119412800Y-124527690D01*
X119416885Y-124486209D01*
X119427193Y-124452231D01*
X119443934Y-124420910D01*
X119466461Y-124393461D01*
X119493910Y-124370934D01*
X119525231Y-124354193D01*
X119559209Y-124343885D01*
X119600690Y-124339800D01*
X120276910Y-124339800D01*
X120318391Y-124343885D01*
G37*
G36*
X148808766Y-122468821D02*
G01*
X148945257Y-122525358D01*
X149068097Y-122607437D01*
X149172563Y-122711903D01*
X149254642Y-122834743D01*
X149311179Y-122971234D01*
X149340000Y-123116130D01*
X149340000Y-123263870D01*
X149311179Y-123408766D01*
X149254642Y-123545257D01*
X149172563Y-123668097D01*
X149068097Y-123772563D01*
X148945257Y-123854642D01*
X148808766Y-123911179D01*
X148663870Y-123940000D01*
X148516130Y-123940000D01*
X148371234Y-123911179D01*
X148234743Y-123854642D01*
X148111903Y-123772563D01*
X148007437Y-123668097D01*
X147925358Y-123545257D01*
X147868821Y-123408766D01*
X147840000Y-123263870D01*
X147840000Y-123116130D01*
X147868821Y-122971234D01*
X147925358Y-122834743D01*
X148007437Y-122711903D01*
X148111903Y-122607437D01*
X148234743Y-122525358D01*
X148371234Y-122468821D01*
X148516130Y-122440000D01*
X148663870Y-122440000D01*
X148808766Y-122468821D01*
G37*
G36*
X151348766Y-122468821D02*
G01*
X151485257Y-122525358D01*
X151608097Y-122607437D01*
X151712563Y-122711903D01*
X151794642Y-122834743D01*
X151851179Y-122971234D01*
X151880000Y-123116130D01*
X151880000Y-123263870D01*
X151851179Y-123408766D01*
X151794642Y-123545257D01*
X151712563Y-123668097D01*
X151608097Y-123772563D01*
X151485257Y-123854642D01*
X151348766Y-123911179D01*
X151203870Y-123940000D01*
X151056130Y-123940000D01*
X150911234Y-123911179D01*
X150774743Y-123854642D01*
X150651903Y-123772563D01*
X150547437Y-123668097D01*
X150465358Y-123545257D01*
X150408821Y-123408766D01*
X150380000Y-123263870D01*
X150380000Y-123116130D01*
X150408821Y-122971234D01*
X150465358Y-122834743D01*
X150547437Y-122711903D01*
X150651903Y-122607437D01*
X150774743Y-122525358D01*
X150911234Y-122468821D01*
X151056130Y-122440000D01*
X151203870Y-122440000D01*
X151348766Y-122468821D01*
G37*
G36*
X146268766Y-122468821D02*
G01*
X146405257Y-122525358D01*
X146528097Y-122607437D01*
X146632563Y-122711903D01*
X146714642Y-122834743D01*
X146771179Y-122971234D01*
X146800000Y-123116130D01*
X146800000Y-123263870D01*
X146771179Y-123408766D01*
X146714642Y-123545257D01*
X146632563Y-123668097D01*
X146528097Y-123772563D01*
X146405257Y-123854642D01*
X146268766Y-123911179D01*
X146123870Y-123940000D01*
X145976130Y-123940000D01*
X145831234Y-123911179D01*
X145694743Y-123854642D01*
X145571903Y-123772563D01*
X145467437Y-123668097D01*
X145385358Y-123545257D01*
X145328821Y-123408766D01*
X145300000Y-123263870D01*
X145300000Y-123116130D01*
X145328821Y-122971234D01*
X145385358Y-122834743D01*
X145467437Y-122711903D01*
X145571903Y-122607437D01*
X145694743Y-122525358D01*
X145831234Y-122468821D01*
X145976130Y-122440000D01*
X146123870Y-122440000D01*
X146268766Y-122468821D01*
G37*
G36*
X143728766Y-122468821D02*
G01*
X143865257Y-122525358D01*
X143988097Y-122607437D01*
X144092563Y-122711903D01*
X144174642Y-122834743D01*
X144231179Y-122971234D01*
X144260000Y-123116130D01*
X144260000Y-123263870D01*
X144231179Y-123408766D01*
X144174642Y-123545257D01*
X144092563Y-123668097D01*
X143988097Y-123772563D01*
X143865257Y-123854642D01*
X143728766Y-123911179D01*
X143583870Y-123940000D01*
X143436130Y-123940000D01*
X143291234Y-123911179D01*
X143154743Y-123854642D01*
X143031903Y-123772563D01*
X142927437Y-123668097D01*
X142845358Y-123545257D01*
X142788821Y-123408766D01*
X142760000Y-123263870D01*
X142760000Y-123116130D01*
X142788821Y-122971234D01*
X142845358Y-122834743D01*
X142927437Y-122711903D01*
X143031903Y-122607437D01*
X143154743Y-122525358D01*
X143291234Y-122468821D01*
X143436130Y-122440000D01*
X143583870Y-122440000D01*
X143728766Y-122468821D01*
G37*
G36*
X130618891Y-122312485D02*
G01*
X130652869Y-122322793D01*
X130684190Y-122339534D01*
X130711639Y-122362061D01*
X130734166Y-122389510D01*
X130750907Y-122420831D01*
X130761215Y-122454809D01*
X130765300Y-122496290D01*
X130765300Y-123172510D01*
X130761215Y-123213991D01*
X130750907Y-123247969D01*
X130734166Y-123279290D01*
X130711639Y-123306739D01*
X130684190Y-123329266D01*
X130652869Y-123346007D01*
X130618891Y-123356315D01*
X130577410Y-123360400D01*
X129976190Y-123360400D01*
X129934709Y-123356315D01*
X129900731Y-123346007D01*
X129869410Y-123329266D01*
X129841961Y-123306739D01*
X129819434Y-123279290D01*
X129802693Y-123247969D01*
X129792385Y-123213991D01*
X129788300Y-123172510D01*
X129788300Y-122496290D01*
X129792385Y-122454809D01*
X129802693Y-122420831D01*
X129819434Y-122389510D01*
X129841961Y-122362061D01*
X129869410Y-122339534D01*
X129900731Y-122322793D01*
X129934709Y-122312485D01*
X129976190Y-122308400D01*
X130577410Y-122308400D01*
X130618891Y-122312485D01*
G37*
G36*
X129043891Y-122312485D02*
G01*
X129077869Y-122322793D01*
X129109190Y-122339534D01*
X129136639Y-122362061D01*
X129159166Y-122389510D01*
X129175907Y-122420831D01*
X129186215Y-122454809D01*
X129190300Y-122496290D01*
X129190300Y-123172510D01*
X129186215Y-123213991D01*
X129175907Y-123247969D01*
X129159166Y-123279290D01*
X129136639Y-123306739D01*
X129109190Y-123329266D01*
X129077869Y-123346007D01*
X129043891Y-123356315D01*
X129002410Y-123360400D01*
X128401190Y-123360400D01*
X128359709Y-123356315D01*
X128325731Y-123346007D01*
X128294410Y-123329266D01*
X128266961Y-123306739D01*
X128244434Y-123279290D01*
X128227693Y-123247969D01*
X128217385Y-123213991D01*
X128213300Y-123172510D01*
X128213300Y-122496290D01*
X128217385Y-122454809D01*
X128227693Y-122420831D01*
X128244434Y-122389510D01*
X128266961Y-122362061D01*
X128294410Y-122339534D01*
X128325731Y-122322793D01*
X128359709Y-122312485D01*
X128401190Y-122308400D01*
X129002410Y-122308400D01*
X129043891Y-122312485D01*
G37*
G36*
X123417191Y-121092885D02*
G01*
X123451169Y-121103193D01*
X123482490Y-121119934D01*
X123509939Y-121142461D01*
X123532466Y-121169910D01*
X123549207Y-121201231D01*
X123559515Y-121235209D01*
X123563600Y-121276690D01*
X123563600Y-121877910D01*
X123559515Y-121919391D01*
X123549207Y-121953369D01*
X123532466Y-121984690D01*
X123509939Y-122012139D01*
X123482490Y-122034666D01*
X123451169Y-122051407D01*
X123417191Y-122061715D01*
X123375710Y-122065800D01*
X122699490Y-122065800D01*
X122658009Y-122061715D01*
X122624031Y-122051407D01*
X122592710Y-122034666D01*
X122565261Y-122012139D01*
X122542734Y-121984690D01*
X122525993Y-121953369D01*
X122515685Y-121919391D01*
X122511600Y-121877910D01*
X122511600Y-121276690D01*
X122515685Y-121235209D01*
X122525993Y-121201231D01*
X122542734Y-121169910D01*
X122565261Y-121142461D01*
X122592710Y-121119934D01*
X122624031Y-121103193D01*
X122658009Y-121092885D01*
X122699490Y-121088800D01*
X123375710Y-121088800D01*
X123417191Y-121092885D01*
G37*
G36*
X120292991Y-121067485D02*
G01*
X120326969Y-121077793D01*
X120358290Y-121094534D01*
X120385739Y-121117061D01*
X120408266Y-121144510D01*
X120425007Y-121175831D01*
X120435315Y-121209809D01*
X120439400Y-121251290D01*
X120439400Y-121852510D01*
X120435315Y-121893991D01*
X120425007Y-121927969D01*
X120408266Y-121959290D01*
X120385739Y-121986739D01*
X120358290Y-122009266D01*
X120326969Y-122026007D01*
X120292991Y-122036315D01*
X120251510Y-122040400D01*
X119575290Y-122040400D01*
X119533809Y-122036315D01*
X119499831Y-122026007D01*
X119468510Y-122009266D01*
X119441061Y-121986739D01*
X119418534Y-121959290D01*
X119401793Y-121927969D01*
X119391485Y-121893991D01*
X119387400Y-121852510D01*
X119387400Y-121251290D01*
X119391485Y-121209809D01*
X119401793Y-121175831D01*
X119418534Y-121144510D01*
X119441061Y-121117061D01*
X119468510Y-121094534D01*
X119499831Y-121077793D01*
X119533809Y-121067485D01*
X119575290Y-121063400D01*
X120251510Y-121063400D01*
X120292991Y-121067485D01*
G37*
G36*
X130159200Y-120765200D02*
G01*
X128057200Y-120765200D01*
X128057200Y-119163200D01*
X130159200Y-119163200D01*
X130159200Y-120765200D01*
G37*
G36*
X123417191Y-119517885D02*
G01*
X123451169Y-119528193D01*
X123482490Y-119544934D01*
X123509939Y-119567461D01*
X123532466Y-119594910D01*
X123549207Y-119626231D01*
X123559515Y-119660209D01*
X123563600Y-119701690D01*
X123563600Y-120302910D01*
X123559515Y-120344391D01*
X123549207Y-120378369D01*
X123532466Y-120409690D01*
X123509939Y-120437139D01*
X123482490Y-120459666D01*
X123451169Y-120476407D01*
X123417191Y-120486715D01*
X123375710Y-120490800D01*
X122699490Y-120490800D01*
X122658009Y-120486715D01*
X122624031Y-120476407D01*
X122592710Y-120459666D01*
X122565261Y-120437139D01*
X122542734Y-120409690D01*
X122525993Y-120378369D01*
X122515685Y-120344391D01*
X122511600Y-120302910D01*
X122511600Y-119701690D01*
X122515685Y-119660209D01*
X122525993Y-119626231D01*
X122542734Y-119594910D01*
X122565261Y-119567461D01*
X122592710Y-119544934D01*
X122624031Y-119528193D01*
X122658009Y-119517885D01*
X122699490Y-119513800D01*
X123375710Y-119513800D01*
X123417191Y-119517885D01*
G37*
G36*
X120292991Y-119492485D02*
G01*
X120326969Y-119502793D01*
X120358290Y-119519534D01*
X120385739Y-119542061D01*
X120408266Y-119569510D01*
X120425007Y-119600831D01*
X120435315Y-119634809D01*
X120439400Y-119676290D01*
X120439400Y-120277510D01*
X120435315Y-120318991D01*
X120425007Y-120352969D01*
X120408266Y-120384290D01*
X120385739Y-120411739D01*
X120358290Y-120434266D01*
X120326969Y-120451007D01*
X120292991Y-120461315D01*
X120251510Y-120465400D01*
X119575290Y-120465400D01*
X119533809Y-120461315D01*
X119499831Y-120451007D01*
X119468510Y-120434266D01*
X119441061Y-120411739D01*
X119418534Y-120384290D01*
X119401793Y-120352969D01*
X119391485Y-120318991D01*
X119387400Y-120277510D01*
X119387400Y-119676290D01*
X119391485Y-119634809D01*
X119401793Y-119600831D01*
X119418534Y-119569510D01*
X119441061Y-119542061D01*
X119468510Y-119519534D01*
X119499831Y-119502793D01*
X119533809Y-119492485D01*
X119575290Y-119488400D01*
X120251510Y-119488400D01*
X120292991Y-119492485D01*
G37*
G36*
X136459200Y-119615200D02*
G01*
X134357200Y-119615200D01*
X134357200Y-115713200D01*
X136459200Y-115713200D01*
X136459200Y-119615200D01*
G37*
G36*
X130159200Y-118465200D02*
G01*
X128057200Y-118465200D01*
X128057200Y-116863200D01*
X130159200Y-116863200D01*
X130159200Y-118465200D01*
G37*
G36*
X149147391Y-116152485D02*
G01*
X149181369Y-116162793D01*
X149212690Y-116179534D01*
X149240139Y-116202061D01*
X149262666Y-116229510D01*
X149279407Y-116260831D01*
X149289715Y-116294809D01*
X149293800Y-116336290D01*
X149293800Y-116937510D01*
X149289715Y-116978991D01*
X149279407Y-117012969D01*
X149262666Y-117044290D01*
X149240139Y-117071739D01*
X149212690Y-117094266D01*
X149181369Y-117111007D01*
X149147391Y-117121315D01*
X149105910Y-117125400D01*
X148429690Y-117125400D01*
X148388209Y-117121315D01*
X148354231Y-117111007D01*
X148322910Y-117094266D01*
X148295461Y-117071739D01*
X148272934Y-117044290D01*
X148256193Y-117012969D01*
X148245885Y-116978991D01*
X148241800Y-116937510D01*
X148241800Y-116336290D01*
X148245885Y-116294809D01*
X148256193Y-116260831D01*
X148272934Y-116229510D01*
X148295461Y-116202061D01*
X148322910Y-116179534D01*
X148354231Y-116162793D01*
X148388209Y-116152485D01*
X148429690Y-116148400D01*
X149105910Y-116148400D01*
X149147391Y-116152485D01*
G37*
G36*
X151458791Y-116101685D02*
G01*
X151492769Y-116111993D01*
X151524090Y-116128734D01*
X151551539Y-116151261D01*
X151574066Y-116178710D01*
X151590807Y-116210031D01*
X151601115Y-116244009D01*
X151605200Y-116285490D01*
X151605200Y-116886710D01*
X151601115Y-116928191D01*
X151590807Y-116962169D01*
X151574066Y-116993490D01*
X151551539Y-117020939D01*
X151524090Y-117043466D01*
X151492769Y-117060207D01*
X151458791Y-117070515D01*
X151417310Y-117074600D01*
X150741090Y-117074600D01*
X150699609Y-117070515D01*
X150665631Y-117060207D01*
X150634310Y-117043466D01*
X150606861Y-117020939D01*
X150584334Y-116993490D01*
X150567593Y-116962169D01*
X150557285Y-116928191D01*
X150553200Y-116886710D01*
X150553200Y-116285490D01*
X150557285Y-116244009D01*
X150567593Y-116210031D01*
X150584334Y-116178710D01*
X150606861Y-116151261D01*
X150634310Y-116128734D01*
X150665631Y-116111993D01*
X150699609Y-116101685D01*
X150741090Y-116097600D01*
X151417310Y-116097600D01*
X151458791Y-116101685D01*
G37*
G36*
X146277191Y-116076285D02*
G01*
X146311169Y-116086593D01*
X146342490Y-116103334D01*
X146369939Y-116125861D01*
X146392466Y-116153310D01*
X146409207Y-116184631D01*
X146419515Y-116218609D01*
X146423600Y-116260090D01*
X146423600Y-116861310D01*
X146419515Y-116902791D01*
X146409207Y-116936769D01*
X146392466Y-116968090D01*
X146369939Y-116995539D01*
X146342490Y-117018066D01*
X146311169Y-117034807D01*
X146277191Y-117045115D01*
X146235710Y-117049200D01*
X145559490Y-117049200D01*
X145518009Y-117045115D01*
X145484031Y-117034807D01*
X145452710Y-117018066D01*
X145425261Y-116995539D01*
X145402734Y-116968090D01*
X145385993Y-116936769D01*
X145375685Y-116902791D01*
X145371600Y-116861310D01*
X145371600Y-116260090D01*
X145375685Y-116218609D01*
X145385993Y-116184631D01*
X145402734Y-116153310D01*
X145425261Y-116125861D01*
X145452710Y-116103334D01*
X145484031Y-116086593D01*
X145518009Y-116076285D01*
X145559490Y-116072200D01*
X146235710Y-116072200D01*
X146277191Y-116076285D01*
G37*
G36*
X143991191Y-116076285D02*
G01*
X144025169Y-116086593D01*
X144056490Y-116103334D01*
X144083939Y-116125861D01*
X144106466Y-116153310D01*
X144123207Y-116184631D01*
X144133515Y-116218609D01*
X144137600Y-116260090D01*
X144137600Y-116861310D01*
X144133515Y-116902791D01*
X144123207Y-116936769D01*
X144106466Y-116968090D01*
X144083939Y-116995539D01*
X144056490Y-117018066D01*
X144025169Y-117034807D01*
X143991191Y-117045115D01*
X143949710Y-117049200D01*
X143273490Y-117049200D01*
X143232009Y-117045115D01*
X143198031Y-117034807D01*
X143166710Y-117018066D01*
X143139261Y-116995539D01*
X143116734Y-116968090D01*
X143099993Y-116936769D01*
X143089685Y-116902791D01*
X143085600Y-116861310D01*
X143085600Y-116260090D01*
X143089685Y-116218609D01*
X143099993Y-116184631D01*
X143116734Y-116153310D01*
X143139261Y-116125861D01*
X143166710Y-116103334D01*
X143198031Y-116086593D01*
X143232009Y-116076285D01*
X143273490Y-116072200D01*
X143949710Y-116072200D01*
X143991191Y-116076285D01*
G37*
G36*
X155344991Y-116050785D02*
G01*
X155378969Y-116061093D01*
X155410290Y-116077834D01*
X155437739Y-116100361D01*
X155460266Y-116127810D01*
X155477007Y-116159131D01*
X155487315Y-116193109D01*
X155491400Y-116234590D01*
X155491400Y-116835810D01*
X155487315Y-116877291D01*
X155477007Y-116911269D01*
X155460266Y-116942590D01*
X155437739Y-116970039D01*
X155410290Y-116992566D01*
X155378969Y-117009307D01*
X155344991Y-117019615D01*
X155303510Y-117023700D01*
X154627290Y-117023700D01*
X154585809Y-117019615D01*
X154551831Y-117009307D01*
X154520510Y-116992566D01*
X154493061Y-116970039D01*
X154470534Y-116942590D01*
X154453793Y-116911269D01*
X154443485Y-116877291D01*
X154439400Y-116835810D01*
X154439400Y-116234590D01*
X154443485Y-116193109D01*
X154453793Y-116159131D01*
X154470534Y-116127810D01*
X154493061Y-116100361D01*
X154520510Y-116077834D01*
X154551831Y-116061093D01*
X154585809Y-116050785D01*
X154627290Y-116046700D01*
X155303510Y-116046700D01*
X155344991Y-116050785D01*
G37*
G36*
X130159200Y-116165200D02*
G01*
X128057200Y-116165200D01*
X128057200Y-114563200D01*
X130159200Y-114563200D01*
X130159200Y-116165200D01*
G37*
G36*
X149147391Y-114577485D02*
G01*
X149181369Y-114587793D01*
X149212690Y-114604534D01*
X149240139Y-114627061D01*
X149262666Y-114654510D01*
X149279407Y-114685831D01*
X149289715Y-114719809D01*
X149293800Y-114761290D01*
X149293800Y-115362510D01*
X149289715Y-115403991D01*
X149279407Y-115437969D01*
X149262666Y-115469290D01*
X149240139Y-115496739D01*
X149212690Y-115519266D01*
X149181369Y-115536007D01*
X149147391Y-115546315D01*
X149105910Y-115550400D01*
X148429690Y-115550400D01*
X148388209Y-115546315D01*
X148354231Y-115536007D01*
X148322910Y-115519266D01*
X148295461Y-115496739D01*
X148272934Y-115469290D01*
X148256193Y-115437969D01*
X148245885Y-115403991D01*
X148241800Y-115362510D01*
X148241800Y-114761290D01*
X148245885Y-114719809D01*
X148256193Y-114685831D01*
X148272934Y-114654510D01*
X148295461Y-114627061D01*
X148322910Y-114604534D01*
X148354231Y-114587793D01*
X148388209Y-114577485D01*
X148429690Y-114573400D01*
X149105910Y-114573400D01*
X149147391Y-114577485D01*
G37*
G36*
X151458791Y-114526685D02*
G01*
X151492769Y-114536993D01*
X151524090Y-114553734D01*
X151551539Y-114576261D01*
X151574066Y-114603710D01*
X151590807Y-114635031D01*
X151601115Y-114669009D01*
X151605200Y-114710490D01*
X151605200Y-115311710D01*
X151601115Y-115353191D01*
X151590807Y-115387169D01*
X151574066Y-115418490D01*
X151551539Y-115445939D01*
X151524090Y-115468466D01*
X151492769Y-115485207D01*
X151458791Y-115495515D01*
X151417310Y-115499600D01*
X150741090Y-115499600D01*
X150699609Y-115495515D01*
X150665631Y-115485207D01*
X150634310Y-115468466D01*
X150606861Y-115445939D01*
X150584334Y-115418490D01*
X150567593Y-115387169D01*
X150557285Y-115353191D01*
X150553200Y-115311710D01*
X150553200Y-114710490D01*
X150557285Y-114669009D01*
X150567593Y-114635031D01*
X150584334Y-114603710D01*
X150606861Y-114576261D01*
X150634310Y-114553734D01*
X150665631Y-114536993D01*
X150699609Y-114526685D01*
X150741090Y-114522600D01*
X151417310Y-114522600D01*
X151458791Y-114526685D01*
G37*
G36*
X146277191Y-114501285D02*
G01*
X146311169Y-114511593D01*
X146342490Y-114528334D01*
X146369939Y-114550861D01*
X146392466Y-114578310D01*
X146409207Y-114609631D01*
X146419515Y-114643609D01*
X146423600Y-114685090D01*
X146423600Y-115286310D01*
X146419515Y-115327791D01*
X146409207Y-115361769D01*
X146392466Y-115393090D01*
X146369939Y-115420539D01*
X146342490Y-115443066D01*
X146311169Y-115459807D01*
X146277191Y-115470115D01*
X146235710Y-115474200D01*
X145559490Y-115474200D01*
X145518009Y-115470115D01*
X145484031Y-115459807D01*
X145452710Y-115443066D01*
X145425261Y-115420539D01*
X145402734Y-115393090D01*
X145385993Y-115361769D01*
X145375685Y-115327791D01*
X145371600Y-115286310D01*
X145371600Y-114685090D01*
X145375685Y-114643609D01*
X145385993Y-114609631D01*
X145402734Y-114578310D01*
X145425261Y-114550861D01*
X145452710Y-114528334D01*
X145484031Y-114511593D01*
X145518009Y-114501285D01*
X145559490Y-114497200D01*
X146235710Y-114497200D01*
X146277191Y-114501285D01*
G37*
G36*
X143991191Y-114501285D02*
G01*
X144025169Y-114511593D01*
X144056490Y-114528334D01*
X144083939Y-114550861D01*
X144106466Y-114578310D01*
X144123207Y-114609631D01*
X144133515Y-114643609D01*
X144137600Y-114685090D01*
X144137600Y-115286310D01*
X144133515Y-115327791D01*
X144123207Y-115361769D01*
X144106466Y-115393090D01*
X144083939Y-115420539D01*
X144056490Y-115443066D01*
X144025169Y-115459807D01*
X143991191Y-115470115D01*
X143949710Y-115474200D01*
X143273490Y-115474200D01*
X143232009Y-115470115D01*
X143198031Y-115459807D01*
X143166710Y-115443066D01*
X143139261Y-115420539D01*
X143116734Y-115393090D01*
X143099993Y-115361769D01*
X143089685Y-115327791D01*
X143085600Y-115286310D01*
X143085600Y-114685090D01*
X143089685Y-114643609D01*
X143099993Y-114609631D01*
X143116734Y-114578310D01*
X143139261Y-114550861D01*
X143166710Y-114528334D01*
X143198031Y-114511593D01*
X143232009Y-114501285D01*
X143273490Y-114497200D01*
X143949710Y-114497200D01*
X143991191Y-114501285D01*
G37*
G36*
X155344991Y-114475785D02*
G01*
X155378969Y-114486093D01*
X155410290Y-114502834D01*
X155437739Y-114525361D01*
X155460266Y-114552810D01*
X155477007Y-114584131D01*
X155487315Y-114618109D01*
X155491400Y-114659590D01*
X155491400Y-115260810D01*
X155487315Y-115302291D01*
X155477007Y-115336269D01*
X155460266Y-115367590D01*
X155437739Y-115395039D01*
X155410290Y-115417566D01*
X155378969Y-115434307D01*
X155344991Y-115444615D01*
X155303510Y-115448700D01*
X154627290Y-115448700D01*
X154585809Y-115444615D01*
X154551831Y-115434307D01*
X154520510Y-115417566D01*
X154493061Y-115395039D01*
X154470534Y-115367590D01*
X154453793Y-115336269D01*
X154443485Y-115302291D01*
X154439400Y-115260810D01*
X154439400Y-114659590D01*
X154443485Y-114618109D01*
X154453793Y-114584131D01*
X154470534Y-114552810D01*
X154493061Y-114525361D01*
X154520510Y-114502834D01*
X154551831Y-114486093D01*
X154585809Y-114475785D01*
X154627290Y-114471700D01*
X155303510Y-114471700D01*
X155344991Y-114475785D01*
G37*
G36*
X135825791Y-110691985D02*
G01*
X135859769Y-110702293D01*
X135891090Y-110719034D01*
X135918539Y-110741561D01*
X135941066Y-110769010D01*
X135957807Y-110800331D01*
X135968115Y-110834309D01*
X135972200Y-110875790D01*
X135972200Y-111552010D01*
X135968115Y-111593491D01*
X135957807Y-111627469D01*
X135941066Y-111658790D01*
X135918539Y-111686239D01*
X135891090Y-111708766D01*
X135859769Y-111725507D01*
X135825791Y-111735815D01*
X135784310Y-111739900D01*
X135183090Y-111739900D01*
X135141609Y-111735815D01*
X135107631Y-111725507D01*
X135076310Y-111708766D01*
X135048861Y-111686239D01*
X135026334Y-111658790D01*
X135009593Y-111627469D01*
X134999285Y-111593491D01*
X134995200Y-111552010D01*
X134995200Y-110875790D01*
X134999285Y-110834309D01*
X135009593Y-110800331D01*
X135026334Y-110769010D01*
X135048861Y-110741561D01*
X135076310Y-110719034D01*
X135107631Y-110702293D01*
X135141609Y-110691985D01*
X135183090Y-110687900D01*
X135784310Y-110687900D01*
X135825791Y-110691985D01*
G37*
G36*
X134250791Y-110691985D02*
G01*
X134284769Y-110702293D01*
X134316090Y-110719034D01*
X134343539Y-110741561D01*
X134366066Y-110769010D01*
X134382807Y-110800331D01*
X134393115Y-110834309D01*
X134397200Y-110875790D01*
X134397200Y-111552010D01*
X134393115Y-111593491D01*
X134382807Y-111627469D01*
X134366066Y-111658790D01*
X134343539Y-111686239D01*
X134316090Y-111708766D01*
X134284769Y-111725507D01*
X134250791Y-111735815D01*
X134209310Y-111739900D01*
X133608090Y-111739900D01*
X133566609Y-111735815D01*
X133532631Y-111725507D01*
X133501310Y-111708766D01*
X133473861Y-111686239D01*
X133451334Y-111658790D01*
X133434593Y-111627469D01*
X133424285Y-111593491D01*
X133420200Y-111552010D01*
X133420200Y-110875790D01*
X133424285Y-110834309D01*
X133434593Y-110800331D01*
X133451334Y-110769010D01*
X133473861Y-110741561D01*
X133501310Y-110719034D01*
X133532631Y-110702293D01*
X133566609Y-110691985D01*
X133608090Y-110687900D01*
X134209310Y-110687900D01*
X134250791Y-110691985D01*
G37*
G36*
X122109712Y-109492327D02*
G01*
X122259012Y-109522024D01*
X122422984Y-109589944D01*
X122570554Y-109688547D01*
X122696053Y-109814046D01*
X122794656Y-109961616D01*
X122862576Y-110125588D01*
X122897200Y-110299659D01*
X122897200Y-110477141D01*
X122862576Y-110651212D01*
X122794656Y-110815184D01*
X122696053Y-110962754D01*
X122570554Y-111088253D01*
X122422984Y-111186856D01*
X122259012Y-111254776D01*
X122109712Y-111284473D01*
X122084942Y-111289400D01*
X121907458Y-111289400D01*
X121882688Y-111284473D01*
X121733388Y-111254776D01*
X121569416Y-111186856D01*
X121421846Y-111088253D01*
X121296347Y-110962754D01*
X121197744Y-110815184D01*
X121129824Y-110651212D01*
X121095200Y-110477141D01*
X121095200Y-110299659D01*
X121129824Y-110125588D01*
X121197744Y-109961616D01*
X121296347Y-109814046D01*
X121421846Y-109688547D01*
X121569416Y-109589944D01*
X121733388Y-109522024D01*
X121882688Y-109492327D01*
X121907458Y-109487400D01*
X122084942Y-109487400D01*
X122109712Y-109492327D01*
G37*
G36*
X124649712Y-109492327D02*
G01*
X124799012Y-109522024D01*
X124962984Y-109589944D01*
X125110554Y-109688547D01*
X125236053Y-109814046D01*
X125334656Y-109961616D01*
X125402576Y-110125588D01*
X125437200Y-110299659D01*
X125437200Y-110477141D01*
X125402576Y-110651212D01*
X125334656Y-110815184D01*
X125236053Y-110962754D01*
X125110554Y-111088253D01*
X124962984Y-111186856D01*
X124799012Y-111254776D01*
X124649712Y-111284473D01*
X124624942Y-111289400D01*
X124447458Y-111289400D01*
X124422688Y-111284473D01*
X124273388Y-111254776D01*
X124109416Y-111186856D01*
X123961846Y-111088253D01*
X123836347Y-110962754D01*
X123737744Y-110815184D01*
X123669824Y-110651212D01*
X123635200Y-110477141D01*
X123635200Y-110299659D01*
X123669824Y-110125588D01*
X123737744Y-109961616D01*
X123836347Y-109814046D01*
X123961846Y-109688547D01*
X124109416Y-109589944D01*
X124273388Y-109522024D01*
X124422688Y-109492327D01*
X124447458Y-109487400D01*
X124624942Y-109487400D01*
X124649712Y-109492327D01*
G37*
G36*
X144842791Y-109968085D02*
G01*
X144876769Y-109978393D01*
X144908090Y-109995134D01*
X144935539Y-110017661D01*
X144958066Y-110045110D01*
X144974807Y-110076431D01*
X144985115Y-110110409D01*
X144989200Y-110151890D01*
X144989200Y-110828110D01*
X144985115Y-110869591D01*
X144974807Y-110903569D01*
X144958066Y-110934890D01*
X144935539Y-110962339D01*
X144908090Y-110984866D01*
X144876769Y-111001607D01*
X144842791Y-111011915D01*
X144801310Y-111016000D01*
X144200090Y-111016000D01*
X144158609Y-111011915D01*
X144124631Y-111001607D01*
X144093310Y-110984866D01*
X144065861Y-110962339D01*
X144043334Y-110934890D01*
X144026593Y-110903569D01*
X144016285Y-110869591D01*
X144012200Y-110828110D01*
X144012200Y-110151890D01*
X144016285Y-110110409D01*
X144026593Y-110076431D01*
X144043334Y-110045110D01*
X144065861Y-110017661D01*
X144093310Y-109995134D01*
X144124631Y-109978393D01*
X144158609Y-109968085D01*
X144200090Y-109964000D01*
X144801310Y-109964000D01*
X144842791Y-109968085D01*
G37*
G36*
X143267791Y-109968085D02*
G01*
X143301769Y-109978393D01*
X143333090Y-109995134D01*
X143360539Y-110017661D01*
X143383066Y-110045110D01*
X143399807Y-110076431D01*
X143410115Y-110110409D01*
X143414200Y-110151890D01*
X143414200Y-110828110D01*
X143410115Y-110869591D01*
X143399807Y-110903569D01*
X143383066Y-110934890D01*
X143360539Y-110962339D01*
X143333090Y-110984866D01*
X143301769Y-111001607D01*
X143267791Y-111011915D01*
X143226310Y-111016000D01*
X142625090Y-111016000D01*
X142583609Y-111011915D01*
X142549631Y-111001607D01*
X142518310Y-110984866D01*
X142490861Y-110962339D01*
X142468334Y-110934890D01*
X142451593Y-110903569D01*
X142441285Y-110869591D01*
X142437200Y-110828110D01*
X142437200Y-110151890D01*
X142441285Y-110110409D01*
X142451593Y-110076431D01*
X142468334Y-110045110D01*
X142490861Y-110017661D01*
X142518310Y-109995134D01*
X142549631Y-109978393D01*
X142583609Y-109968085D01*
X142625090Y-109964000D01*
X143226310Y-109964000D01*
X143267791Y-109968085D01*
G37*
G36*
X153287591Y-109700985D02*
G01*
X153321569Y-109711293D01*
X153352890Y-109728034D01*
X153380339Y-109750561D01*
X153402866Y-109778010D01*
X153419607Y-109809331D01*
X153429915Y-109843309D01*
X153434000Y-109884790D01*
X153434000Y-110486010D01*
X153429915Y-110527491D01*
X153419607Y-110561469D01*
X153402866Y-110592790D01*
X153380339Y-110620239D01*
X153352890Y-110642766D01*
X153321569Y-110659507D01*
X153287591Y-110669815D01*
X153246110Y-110673900D01*
X152569890Y-110673900D01*
X152528409Y-110669815D01*
X152494431Y-110659507D01*
X152463110Y-110642766D01*
X152435661Y-110620239D01*
X152413134Y-110592790D01*
X152396393Y-110561469D01*
X152386085Y-110527491D01*
X152382000Y-110486010D01*
X152382000Y-109884790D01*
X152386085Y-109843309D01*
X152396393Y-109809331D01*
X152413134Y-109778010D01*
X152435661Y-109750561D01*
X152463110Y-109728034D01*
X152494431Y-109711293D01*
X152528409Y-109700985D01*
X152569890Y-109696900D01*
X153246110Y-109696900D01*
X153287591Y-109700985D01*
G37*
G36*
X151382591Y-109700885D02*
G01*
X151416569Y-109711193D01*
X151447890Y-109727934D01*
X151475339Y-109750461D01*
X151497866Y-109777910D01*
X151514607Y-109809231D01*
X151524915Y-109843209D01*
X151529000Y-109884690D01*
X151529000Y-110485910D01*
X151524915Y-110527391D01*
X151514607Y-110561369D01*
X151497866Y-110592690D01*
X151475339Y-110620139D01*
X151447890Y-110642666D01*
X151416569Y-110659407D01*
X151382591Y-110669715D01*
X151341110Y-110673800D01*
X150664890Y-110673800D01*
X150623409Y-110669715D01*
X150589431Y-110659407D01*
X150558110Y-110642666D01*
X150530661Y-110620139D01*
X150508134Y-110592690D01*
X150491393Y-110561369D01*
X150481085Y-110527391D01*
X150477000Y-110485910D01*
X150477000Y-109884690D01*
X150481085Y-109843209D01*
X150491393Y-109809231D01*
X150508134Y-109777910D01*
X150530661Y-109750461D01*
X150558110Y-109727934D01*
X150589431Y-109711193D01*
X150623409Y-109700885D01*
X150664890Y-109696800D01*
X151341110Y-109696800D01*
X151382591Y-109700885D01*
G37*
G36*
X134225391Y-108837785D02*
G01*
X134259369Y-108848093D01*
X134290690Y-108864834D01*
X134318139Y-108887361D01*
X134340666Y-108914810D01*
X134357407Y-108946131D01*
X134367715Y-108980109D01*
X134371800Y-109021590D01*
X134371800Y-109697810D01*
X134367715Y-109739291D01*
X134357407Y-109773269D01*
X134340666Y-109804590D01*
X134318139Y-109832039D01*
X134290690Y-109854566D01*
X134259369Y-109871307D01*
X134225391Y-109881615D01*
X134183910Y-109885700D01*
X133582690Y-109885700D01*
X133541209Y-109881615D01*
X133507231Y-109871307D01*
X133475910Y-109854566D01*
X133448461Y-109832039D01*
X133425934Y-109804590D01*
X133409193Y-109773269D01*
X133398885Y-109739291D01*
X133394800Y-109697810D01*
X133394800Y-109021590D01*
X133398885Y-108980109D01*
X133409193Y-108946131D01*
X133425934Y-108914810D01*
X133448461Y-108887361D01*
X133475910Y-108864834D01*
X133507231Y-108848093D01*
X133541209Y-108837785D01*
X133582690Y-108833700D01*
X134183910Y-108833700D01*
X134225391Y-108837785D01*
G37*
G36*
X135800391Y-108837785D02*
G01*
X135834369Y-108848093D01*
X135865690Y-108864834D01*
X135893139Y-108887361D01*
X135915666Y-108914810D01*
X135932407Y-108946131D01*
X135942715Y-108980109D01*
X135946800Y-109021590D01*
X135946800Y-109697810D01*
X135942715Y-109739291D01*
X135932407Y-109773269D01*
X135915666Y-109804590D01*
X135893139Y-109832039D01*
X135865690Y-109854566D01*
X135834369Y-109871307D01*
X135800391Y-109881615D01*
X135758910Y-109885700D01*
X135157690Y-109885700D01*
X135116209Y-109881615D01*
X135082231Y-109871307D01*
X135050910Y-109854566D01*
X135023461Y-109832039D01*
X135000934Y-109804590D01*
X134984193Y-109773269D01*
X134973885Y-109739291D01*
X134969800Y-109697810D01*
X134969800Y-109021590D01*
X134973885Y-108980109D01*
X134984193Y-108946131D01*
X135000934Y-108914810D01*
X135023461Y-108887361D01*
X135050910Y-108864834D01*
X135082231Y-108848093D01*
X135116209Y-108837785D01*
X135157690Y-108833700D01*
X135758910Y-108833700D01*
X135800391Y-108837785D01*
G37*
G36*
X131570591Y-108164085D02*
G01*
X131604569Y-108174393D01*
X131635890Y-108191134D01*
X131663339Y-108213661D01*
X131685866Y-108241110D01*
X131702607Y-108272431D01*
X131712915Y-108306409D01*
X131717000Y-108347890D01*
X131717000Y-108949110D01*
X131712915Y-108990591D01*
X131702607Y-109024569D01*
X131685866Y-109055890D01*
X131663339Y-109083339D01*
X131635890Y-109105866D01*
X131604569Y-109122607D01*
X131570591Y-109132915D01*
X131529110Y-109137000D01*
X130852890Y-109137000D01*
X130811409Y-109132915D01*
X130777431Y-109122607D01*
X130746110Y-109105866D01*
X130718661Y-109083339D01*
X130696134Y-109055890D01*
X130679393Y-109024569D01*
X130669085Y-108990591D01*
X130665000Y-108949110D01*
X130665000Y-108347890D01*
X130669085Y-108306409D01*
X130679393Y-108272431D01*
X130696134Y-108241110D01*
X130718661Y-108213661D01*
X130746110Y-108191134D01*
X130777431Y-108174393D01*
X130811409Y-108164085D01*
X130852890Y-108160000D01*
X131529110Y-108160000D01*
X131570591Y-108164085D01*
G37*
G36*
X153287591Y-108125985D02*
G01*
X153321569Y-108136293D01*
X153352890Y-108153034D01*
X153380339Y-108175561D01*
X153402866Y-108203010D01*
X153419607Y-108234331D01*
X153429915Y-108268309D01*
X153434000Y-108309790D01*
X153434000Y-108911010D01*
X153429915Y-108952491D01*
X153419607Y-108986469D01*
X153402866Y-109017790D01*
X153380339Y-109045239D01*
X153352890Y-109067766D01*
X153321569Y-109084507D01*
X153287591Y-109094815D01*
X153246110Y-109098900D01*
X152569890Y-109098900D01*
X152528409Y-109094815D01*
X152494431Y-109084507D01*
X152463110Y-109067766D01*
X152435661Y-109045239D01*
X152413134Y-109017790D01*
X152396393Y-108986469D01*
X152386085Y-108952491D01*
X152382000Y-108911010D01*
X152382000Y-108309790D01*
X152386085Y-108268309D01*
X152396393Y-108234331D01*
X152413134Y-108203010D01*
X152435661Y-108175561D01*
X152463110Y-108153034D01*
X152494431Y-108136293D01*
X152528409Y-108125985D01*
X152569890Y-108121900D01*
X153246110Y-108121900D01*
X153287591Y-108125985D01*
G37*
G36*
X151382591Y-108125885D02*
G01*
X151416569Y-108136193D01*
X151447890Y-108152934D01*
X151475339Y-108175461D01*
X151497866Y-108202910D01*
X151514607Y-108234231D01*
X151524915Y-108268209D01*
X151529000Y-108309690D01*
X151529000Y-108910910D01*
X151524915Y-108952391D01*
X151514607Y-108986369D01*
X151497866Y-109017690D01*
X151475339Y-109045139D01*
X151447890Y-109067666D01*
X151416569Y-109084407D01*
X151382591Y-109094715D01*
X151341110Y-109098800D01*
X150664890Y-109098800D01*
X150623409Y-109094715D01*
X150589431Y-109084407D01*
X150558110Y-109067666D01*
X150530661Y-109045139D01*
X150508134Y-109017690D01*
X150491393Y-108986369D01*
X150481085Y-108952391D01*
X150477000Y-108910910D01*
X150477000Y-108309690D01*
X150481085Y-108268209D01*
X150491393Y-108234231D01*
X150508134Y-108202910D01*
X150530661Y-108175461D01*
X150558110Y-108152934D01*
X150589431Y-108136193D01*
X150623409Y-108125885D01*
X150664890Y-108121800D01*
X151341110Y-108121800D01*
X151382591Y-108125885D01*
G37*
G36*
X145920555Y-104229283D02*
G01*
X145925229Y-104230701D01*
X145929530Y-104233000D01*
X145935902Y-104238229D01*
X145956276Y-104251843D01*
X145978915Y-104261220D01*
X146002949Y-104266000D01*
X146027453Y-104266000D01*
X146051486Y-104261219D01*
X146074125Y-104251842D01*
X146094498Y-104238229D01*
X146100870Y-104233000D01*
X146105171Y-104230701D01*
X146109845Y-104229283D01*
X146120841Y-104228200D01*
X146409559Y-104228200D01*
X146420555Y-104229283D01*
X146425229Y-104230701D01*
X146429530Y-104233000D01*
X146435902Y-104238229D01*
X146456276Y-104251843D01*
X146478915Y-104261220D01*
X146502949Y-104266000D01*
X146527453Y-104266000D01*
X146551486Y-104261219D01*
X146574125Y-104251842D01*
X146594498Y-104238229D01*
X146600870Y-104233000D01*
X146605171Y-104230701D01*
X146609845Y-104229283D01*
X146620841Y-104228200D01*
X146909559Y-104228200D01*
X146920555Y-104229283D01*
X146925229Y-104230701D01*
X146929530Y-104233000D01*
X146935902Y-104238229D01*
X146956276Y-104251843D01*
X146978915Y-104261220D01*
X147002949Y-104266000D01*
X147027453Y-104266000D01*
X147051486Y-104261219D01*
X147074125Y-104251842D01*
X147094498Y-104238229D01*
X147100870Y-104233000D01*
X147105171Y-104230701D01*
X147109845Y-104229283D01*
X147120841Y-104228200D01*
X147409559Y-104228200D01*
X147420555Y-104229283D01*
X147425229Y-104230701D01*
X147429530Y-104233000D01*
X147435902Y-104238229D01*
X147456276Y-104251843D01*
X147478915Y-104261220D01*
X147502949Y-104266000D01*
X147527453Y-104266000D01*
X147551486Y-104261219D01*
X147574125Y-104251842D01*
X147594498Y-104238229D01*
X147600870Y-104233000D01*
X147605171Y-104230701D01*
X147609845Y-104229283D01*
X147620841Y-104228200D01*
X147909559Y-104228200D01*
X147920555Y-104229283D01*
X147925229Y-104230701D01*
X147929530Y-104233000D01*
X147935902Y-104238229D01*
X147956276Y-104251843D01*
X147978915Y-104261220D01*
X148002949Y-104266000D01*
X148027453Y-104266000D01*
X148051486Y-104261219D01*
X148074125Y-104251842D01*
X148094498Y-104238229D01*
X148100870Y-104233000D01*
X148105171Y-104230701D01*
X148109845Y-104229283D01*
X148120841Y-104228200D01*
X148409559Y-104228200D01*
X148420555Y-104229283D01*
X148425229Y-104230701D01*
X148429531Y-104233000D01*
X148433304Y-104236096D01*
X148436400Y-104239869D01*
X148438699Y-104244171D01*
X148440117Y-104248845D01*
X148441200Y-104259841D01*
X148441200Y-105078201D01*
X148443602Y-105102587D01*
X148450715Y-105126036D01*
X148462266Y-105147647D01*
X148477811Y-105166589D01*
X148496753Y-105182134D01*
X148518364Y-105193685D01*
X148541813Y-105200798D01*
X148566199Y-105203200D01*
X149384559Y-105203200D01*
X149395555Y-105204283D01*
X149400229Y-105205701D01*
X149404531Y-105208000D01*
X149408304Y-105211096D01*
X149411400Y-105214869D01*
X149413699Y-105219171D01*
X149415117Y-105223845D01*
X149416200Y-105234841D01*
X149416200Y-105523559D01*
X149415117Y-105534555D01*
X149413699Y-105539229D01*
X149411400Y-105543530D01*
X149406171Y-105549902D01*
X149392557Y-105570276D01*
X149383180Y-105592915D01*
X149378400Y-105616949D01*
X149378400Y-105641453D01*
X149383181Y-105665486D01*
X149392558Y-105688125D01*
X149406171Y-105708498D01*
X149411400Y-105714870D01*
X149413699Y-105719171D01*
X149415117Y-105723845D01*
X149416200Y-105734841D01*
X149416200Y-106023559D01*
X149415117Y-106034555D01*
X149413699Y-106039229D01*
X149411400Y-106043530D01*
X149406171Y-106049902D01*
X149392557Y-106070276D01*
X149383180Y-106092915D01*
X149378400Y-106116949D01*
X149378400Y-106141453D01*
X149383181Y-106165486D01*
X149392558Y-106188125D01*
X149406171Y-106208498D01*
X149411400Y-106214870D01*
X149413699Y-106219171D01*
X149415117Y-106223845D01*
X149416200Y-106234841D01*
X149416200Y-106523559D01*
X149415117Y-106534555D01*
X149413699Y-106539229D01*
X149411400Y-106543530D01*
X149406171Y-106549902D01*
X149392557Y-106570276D01*
X149383180Y-106592915D01*
X149378400Y-106616949D01*
X149378400Y-106641453D01*
X149383181Y-106665486D01*
X149392558Y-106688125D01*
X149406171Y-106708498D01*
X149411400Y-106714870D01*
X149413699Y-106719171D01*
X149415117Y-106723845D01*
X149416200Y-106734841D01*
X149416200Y-107023559D01*
X149415117Y-107034555D01*
X149413699Y-107039229D01*
X149411400Y-107043530D01*
X149406171Y-107049902D01*
X149392557Y-107070276D01*
X149383180Y-107092915D01*
X149378400Y-107116949D01*
X149378400Y-107141453D01*
X149383181Y-107165486D01*
X149392558Y-107188125D01*
X149406171Y-107208498D01*
X149411400Y-107214870D01*
X149413699Y-107219171D01*
X149415117Y-107223845D01*
X149416200Y-107234841D01*
X149416200Y-107523559D01*
X149415117Y-107534555D01*
X149413699Y-107539229D01*
X149411400Y-107543530D01*
X149406171Y-107549902D01*
X149392557Y-107570276D01*
X149383180Y-107592915D01*
X149378400Y-107616949D01*
X149378400Y-107641453D01*
X149383181Y-107665486D01*
X149392558Y-107688125D01*
X149406171Y-107708498D01*
X149411400Y-107714870D01*
X149413699Y-107719171D01*
X149415117Y-107723845D01*
X149416200Y-107734841D01*
X149416200Y-108023559D01*
X149415117Y-108034555D01*
X149413699Y-108039229D01*
X149411400Y-108043531D01*
X149408304Y-108047304D01*
X149404531Y-108050400D01*
X149400229Y-108052699D01*
X149395555Y-108054117D01*
X149384559Y-108055200D01*
X148566199Y-108055200D01*
X148541813Y-108057602D01*
X148518364Y-108064715D01*
X148496753Y-108076266D01*
X148477811Y-108091811D01*
X148462266Y-108110753D01*
X148450715Y-108132364D01*
X148443602Y-108155813D01*
X148441200Y-108180199D01*
X148441200Y-108998559D01*
X148440117Y-109009555D01*
X148438699Y-109014229D01*
X148436400Y-109018531D01*
X148433304Y-109022304D01*
X148429531Y-109025400D01*
X148425229Y-109027699D01*
X148420555Y-109029117D01*
X148409559Y-109030200D01*
X148120841Y-109030200D01*
X148109845Y-109029117D01*
X148105171Y-109027699D01*
X148100870Y-109025400D01*
X148094498Y-109020171D01*
X148074124Y-109006557D01*
X148051485Y-108997180D01*
X148027451Y-108992400D01*
X148002947Y-108992400D01*
X147978914Y-108997181D01*
X147956275Y-109006558D01*
X147935902Y-109020171D01*
X147929530Y-109025400D01*
X147925229Y-109027699D01*
X147920555Y-109029117D01*
X147909559Y-109030200D01*
X147620841Y-109030200D01*
X147609845Y-109029117D01*
X147605171Y-109027699D01*
X147600870Y-109025400D01*
X147594498Y-109020171D01*
X147574124Y-109006557D01*
X147551485Y-108997180D01*
X147527451Y-108992400D01*
X147502947Y-108992400D01*
X147478914Y-108997181D01*
X147456275Y-109006558D01*
X147435902Y-109020171D01*
X147429530Y-109025400D01*
X147425229Y-109027699D01*
X147420555Y-109029117D01*
X147409559Y-109030200D01*
X147120841Y-109030200D01*
X147109845Y-109029117D01*
X147105171Y-109027699D01*
X147100870Y-109025400D01*
X147094498Y-109020171D01*
X147074124Y-109006557D01*
X147051485Y-108997180D01*
X147027451Y-108992400D01*
X147002947Y-108992400D01*
X146978914Y-108997181D01*
X146956275Y-109006558D01*
X146935902Y-109020171D01*
X146929530Y-109025400D01*
X146925229Y-109027699D01*
X146920555Y-109029117D01*
X146909559Y-109030200D01*
X146620841Y-109030200D01*
X146609845Y-109029117D01*
X146605171Y-109027699D01*
X146600870Y-109025400D01*
X146594498Y-109020171D01*
X146574124Y-109006557D01*
X146551485Y-108997180D01*
X146527451Y-108992400D01*
X146502947Y-108992400D01*
X146478914Y-108997181D01*
X146456275Y-109006558D01*
X146435902Y-109020171D01*
X146429530Y-109025400D01*
X146425229Y-109027699D01*
X146420555Y-109029117D01*
X146409559Y-109030200D01*
X146120841Y-109030200D01*
X146109845Y-109029117D01*
X146105171Y-109027699D01*
X146100870Y-109025400D01*
X146094498Y-109020171D01*
X146074124Y-109006557D01*
X146051485Y-108997180D01*
X146027451Y-108992400D01*
X146002947Y-108992400D01*
X145978914Y-108997181D01*
X145956275Y-109006558D01*
X145935902Y-109020171D01*
X145929530Y-109025400D01*
X145925229Y-109027699D01*
X145920555Y-109029117D01*
X145909559Y-109030200D01*
X145620841Y-109030200D01*
X145609845Y-109029117D01*
X145605171Y-109027699D01*
X145600869Y-109025400D01*
X145597096Y-109022304D01*
X145594000Y-109018531D01*
X145591701Y-109014229D01*
X145590283Y-109009555D01*
X145589200Y-108998559D01*
X145589200Y-108180199D01*
X145586798Y-108155813D01*
X145579685Y-108132364D01*
X145568134Y-108110753D01*
X145552589Y-108091811D01*
X145533647Y-108076266D01*
X145512036Y-108064715D01*
X145488587Y-108057602D01*
X145464201Y-108055200D01*
X144645841Y-108055200D01*
X144634845Y-108054117D01*
X144630171Y-108052699D01*
X144625869Y-108050400D01*
X144622096Y-108047304D01*
X144619000Y-108043531D01*
X144616701Y-108039229D01*
X144615283Y-108034555D01*
X144614200Y-108023559D01*
X144614200Y-107734841D01*
X144615283Y-107723845D01*
X144616701Y-107719171D01*
X144619000Y-107714870D01*
X144624229Y-107708498D01*
X144637843Y-107688124D01*
X144647220Y-107665485D01*
X144652000Y-107641451D01*
X144652000Y-107616947D01*
X144647219Y-107592914D01*
X144637842Y-107570275D01*
X144624229Y-107549902D01*
X144619000Y-107543530D01*
X144616701Y-107539229D01*
X144615283Y-107534555D01*
X144614200Y-107523559D01*
X144614200Y-107234841D01*
X144615283Y-107223845D01*
X144616701Y-107219171D01*
X144619000Y-107214870D01*
X144624229Y-107208498D01*
X144637843Y-107188124D01*
X144647220Y-107165485D01*
X144652000Y-107141451D01*
X144652000Y-107116947D01*
X144647219Y-107092914D01*
X144637842Y-107070275D01*
X144624229Y-107049902D01*
X144619000Y-107043530D01*
X144616701Y-107039229D01*
X144615283Y-107034555D01*
X144614200Y-107023559D01*
X144614200Y-106734841D01*
X144615283Y-106723845D01*
X144616701Y-106719171D01*
X144619000Y-106714870D01*
X144624229Y-106708498D01*
X144637843Y-106688124D01*
X144647220Y-106665485D01*
X144652000Y-106641451D01*
X144652000Y-106616947D01*
X144647219Y-106592914D01*
X144637842Y-106570275D01*
X144624229Y-106549902D01*
X144619000Y-106543530D01*
X144616701Y-106539229D01*
X144615283Y-106534555D01*
X144614200Y-106523559D01*
X144614200Y-106234841D01*
X144615283Y-106223845D01*
X144616701Y-106219171D01*
X144619000Y-106214870D01*
X144624229Y-106208498D01*
X144637843Y-106188124D01*
X144647220Y-106165485D01*
X144652000Y-106141451D01*
X144652000Y-106116947D01*
X144647219Y-106092914D01*
X144637842Y-106070275D01*
X144624229Y-106049902D01*
X144619000Y-106043530D01*
X144616701Y-106039229D01*
X144615283Y-106034555D01*
X144614200Y-106023559D01*
X144614200Y-105734841D01*
X144615283Y-105723845D01*
X144616701Y-105719171D01*
X144619000Y-105714870D01*
X144624229Y-105708498D01*
X144637843Y-105688124D01*
X144647220Y-105665485D01*
X144652000Y-105641451D01*
X144652000Y-105616947D01*
X144647219Y-105592914D01*
X144637842Y-105570275D01*
X144624229Y-105549902D01*
X144619000Y-105543530D01*
X144616701Y-105539229D01*
X144615283Y-105534555D01*
X144614200Y-105523559D01*
X144614200Y-105234841D01*
X144615283Y-105223845D01*
X144616701Y-105219171D01*
X144619000Y-105214869D01*
X144622096Y-105211096D01*
X144625869Y-105208000D01*
X144630171Y-105205701D01*
X144634845Y-105204283D01*
X144645841Y-105203200D01*
X145464201Y-105203200D01*
X145488587Y-105200798D01*
X145512036Y-105193685D01*
X145533647Y-105182134D01*
X145552589Y-105166589D01*
X145568134Y-105147647D01*
X145579685Y-105126036D01*
X145586798Y-105102587D01*
X145589200Y-105078201D01*
X145589200Y-104259841D01*
X145590283Y-104248845D01*
X145591701Y-104244171D01*
X145594000Y-104239869D01*
X145597096Y-104236096D01*
X145600869Y-104233000D01*
X145605171Y-104230701D01*
X145609845Y-104229283D01*
X145620841Y-104228200D01*
X145909559Y-104228200D01*
X145920555Y-104229283D01*
G37*
G36*
X122109712Y-106952327D02*
G01*
X122259012Y-106982024D01*
X122422984Y-107049944D01*
X122570554Y-107148547D01*
X122696053Y-107274046D01*
X122794656Y-107421616D01*
X122862576Y-107585588D01*
X122890076Y-107723845D01*
X122896776Y-107757524D01*
X122897200Y-107759659D01*
X122897200Y-107937141D01*
X122862576Y-108111212D01*
X122794656Y-108275184D01*
X122696053Y-108422754D01*
X122570554Y-108548253D01*
X122422984Y-108646856D01*
X122259012Y-108714776D01*
X122109712Y-108744473D01*
X122084942Y-108749400D01*
X121907458Y-108749400D01*
X121882688Y-108744473D01*
X121733388Y-108714776D01*
X121569416Y-108646856D01*
X121421846Y-108548253D01*
X121296347Y-108422754D01*
X121197744Y-108275184D01*
X121129824Y-108111212D01*
X121095200Y-107937141D01*
X121095200Y-107759659D01*
X121095625Y-107757524D01*
X121102324Y-107723845D01*
X121129824Y-107585588D01*
X121197744Y-107421616D01*
X121296347Y-107274046D01*
X121421846Y-107148547D01*
X121569416Y-107049944D01*
X121733388Y-106982024D01*
X121882688Y-106952327D01*
X121907458Y-106947400D01*
X122084942Y-106947400D01*
X122109712Y-106952327D01*
G37*
G36*
X124649712Y-106952327D02*
G01*
X124799012Y-106982024D01*
X124962984Y-107049944D01*
X125110554Y-107148547D01*
X125236053Y-107274046D01*
X125334656Y-107421616D01*
X125402576Y-107585588D01*
X125430076Y-107723845D01*
X125436776Y-107757524D01*
X125437200Y-107759659D01*
X125437200Y-107937141D01*
X125402576Y-108111212D01*
X125334656Y-108275184D01*
X125236053Y-108422754D01*
X125110554Y-108548253D01*
X124962984Y-108646856D01*
X124799012Y-108714776D01*
X124649712Y-108744473D01*
X124624942Y-108749400D01*
X124447458Y-108749400D01*
X124422688Y-108744473D01*
X124273388Y-108714776D01*
X124109416Y-108646856D01*
X123961846Y-108548253D01*
X123836347Y-108422754D01*
X123737744Y-108275184D01*
X123669824Y-108111212D01*
X123635200Y-107937141D01*
X123635200Y-107759659D01*
X123635625Y-107757524D01*
X123642324Y-107723845D01*
X123669824Y-107585588D01*
X123737744Y-107421616D01*
X123836347Y-107274046D01*
X123961846Y-107148547D01*
X124109416Y-107049944D01*
X124273388Y-106982024D01*
X124422688Y-106952327D01*
X124447458Y-106947400D01*
X124624942Y-106947400D01*
X124649712Y-106952327D01*
G37*
G36*
X134225391Y-106958185D02*
G01*
X134259369Y-106968493D01*
X134290690Y-106985234D01*
X134318139Y-107007761D01*
X134340666Y-107035210D01*
X134357407Y-107066531D01*
X134367715Y-107100509D01*
X134371800Y-107141990D01*
X134371800Y-107818210D01*
X134367715Y-107859691D01*
X134357407Y-107893669D01*
X134340666Y-107924990D01*
X134318139Y-107952439D01*
X134290690Y-107974966D01*
X134259369Y-107991707D01*
X134225391Y-108002015D01*
X134183910Y-108006100D01*
X133582690Y-108006100D01*
X133541209Y-108002015D01*
X133507231Y-107991707D01*
X133475910Y-107974966D01*
X133448461Y-107952439D01*
X133425934Y-107924990D01*
X133409193Y-107893669D01*
X133398885Y-107859691D01*
X133394800Y-107818210D01*
X133394800Y-107141990D01*
X133398885Y-107100509D01*
X133409193Y-107066531D01*
X133425934Y-107035210D01*
X133448461Y-107007761D01*
X133475910Y-106985234D01*
X133507231Y-106968493D01*
X133541209Y-106958185D01*
X133582690Y-106954100D01*
X134183910Y-106954100D01*
X134225391Y-106958185D01*
G37*
G36*
X135800391Y-106958185D02*
G01*
X135834369Y-106968493D01*
X135865690Y-106985234D01*
X135893139Y-107007761D01*
X135915666Y-107035210D01*
X135932407Y-107066531D01*
X135942715Y-107100509D01*
X135946800Y-107141990D01*
X135946800Y-107818210D01*
X135942715Y-107859691D01*
X135932407Y-107893669D01*
X135915666Y-107924990D01*
X135893139Y-107952439D01*
X135865690Y-107974966D01*
X135834369Y-107991707D01*
X135800391Y-108002015D01*
X135758910Y-108006100D01*
X135157690Y-108006100D01*
X135116209Y-108002015D01*
X135082231Y-107991707D01*
X135050910Y-107974966D01*
X135023461Y-107952439D01*
X135000934Y-107924990D01*
X134984193Y-107893669D01*
X134973885Y-107859691D01*
X134969800Y-107818210D01*
X134969800Y-107141990D01*
X134973885Y-107100509D01*
X134984193Y-107066531D01*
X135000934Y-107035210D01*
X135023461Y-107007761D01*
X135050910Y-106985234D01*
X135082231Y-106968493D01*
X135116209Y-106958185D01*
X135157690Y-106954100D01*
X135758910Y-106954100D01*
X135800391Y-106958185D01*
G37*
G36*
X129501091Y-106577185D02*
G01*
X129535069Y-106587493D01*
X129566390Y-106604234D01*
X129593839Y-106626761D01*
X129616366Y-106654210D01*
X129633107Y-106685531D01*
X129643415Y-106719509D01*
X129647500Y-106760990D01*
X129647500Y-107437210D01*
X129643415Y-107478691D01*
X129633107Y-107512669D01*
X129616366Y-107543990D01*
X129593839Y-107571439D01*
X129566390Y-107593966D01*
X129535069Y-107610707D01*
X129501091Y-107621015D01*
X129459610Y-107625100D01*
X128858390Y-107625100D01*
X128816909Y-107621015D01*
X128782931Y-107610707D01*
X128751610Y-107593966D01*
X128724161Y-107571439D01*
X128701634Y-107543990D01*
X128684893Y-107512669D01*
X128674585Y-107478691D01*
X128670500Y-107437210D01*
X128670500Y-106760990D01*
X128674585Y-106719509D01*
X128684893Y-106685531D01*
X128701634Y-106654210D01*
X128724161Y-106626761D01*
X128751610Y-106604234D01*
X128782931Y-106587493D01*
X128816909Y-106577185D01*
X128858390Y-106573100D01*
X129459610Y-106573100D01*
X129501091Y-106577185D01*
G37*
G36*
X127926091Y-106577185D02*
G01*
X127960069Y-106587493D01*
X127991390Y-106604234D01*
X128018839Y-106626761D01*
X128041366Y-106654210D01*
X128058107Y-106685531D01*
X128068415Y-106719509D01*
X128072500Y-106760990D01*
X128072500Y-107437210D01*
X128068415Y-107478691D01*
X128058107Y-107512669D01*
X128041366Y-107543990D01*
X128018839Y-107571439D01*
X127991390Y-107593966D01*
X127960069Y-107610707D01*
X127926091Y-107621015D01*
X127884610Y-107625100D01*
X127283390Y-107625100D01*
X127241909Y-107621015D01*
X127207931Y-107610707D01*
X127176610Y-107593966D01*
X127149161Y-107571439D01*
X127126634Y-107543990D01*
X127109893Y-107512669D01*
X127099585Y-107478691D01*
X127095500Y-107437210D01*
X127095500Y-106760990D01*
X127099585Y-106719509D01*
X127109893Y-106685531D01*
X127126634Y-106654210D01*
X127149161Y-106626761D01*
X127176610Y-106604234D01*
X127207931Y-106587493D01*
X127241909Y-106577185D01*
X127283390Y-106573100D01*
X127884610Y-106573100D01*
X127926091Y-106577185D01*
G37*
G36*
X131570591Y-106589085D02*
G01*
X131604569Y-106599393D01*
X131635890Y-106616134D01*
X131663339Y-106638661D01*
X131685866Y-106666110D01*
X131702607Y-106697431D01*
X131712915Y-106731409D01*
X131717000Y-106772890D01*
X131717000Y-107374110D01*
X131712915Y-107415591D01*
X131702607Y-107449569D01*
X131685866Y-107480890D01*
X131663339Y-107508339D01*
X131635890Y-107530866D01*
X131604569Y-107547607D01*
X131570591Y-107557915D01*
X131529110Y-107562000D01*
X130852890Y-107562000D01*
X130811409Y-107557915D01*
X130777431Y-107547607D01*
X130746110Y-107530866D01*
X130718661Y-107508339D01*
X130696134Y-107480890D01*
X130679393Y-107449569D01*
X130669085Y-107415591D01*
X130665000Y-107374110D01*
X130665000Y-106772890D01*
X130669085Y-106731409D01*
X130679393Y-106697431D01*
X130696134Y-106666110D01*
X130718661Y-106638661D01*
X130746110Y-106616134D01*
X130777431Y-106599393D01*
X130811409Y-106589085D01*
X130852890Y-106585000D01*
X131529110Y-106585000D01*
X131570591Y-106589085D01*
G37*
G36*
X124649712Y-104412327D02*
G01*
X124799012Y-104442024D01*
X124962984Y-104509944D01*
X125110554Y-104608547D01*
X125236053Y-104734046D01*
X125334656Y-104881616D01*
X125402576Y-105045588D01*
X125426644Y-105166589D01*
X125437200Y-105219658D01*
X125437200Y-105397142D01*
X125434589Y-105410266D01*
X125402576Y-105571212D01*
X125334656Y-105735184D01*
X125236053Y-105882754D01*
X125110554Y-106008253D01*
X124962984Y-106106856D01*
X124799012Y-106174776D01*
X124656111Y-106203200D01*
X124624942Y-106209400D01*
X124447458Y-106209400D01*
X124416289Y-106203200D01*
X124273388Y-106174776D01*
X124109416Y-106106856D01*
X123961846Y-106008253D01*
X123836347Y-105882754D01*
X123737744Y-105735184D01*
X123669824Y-105571212D01*
X123637811Y-105410266D01*
X123635200Y-105397142D01*
X123635200Y-105219658D01*
X123645756Y-105166589D01*
X123669824Y-105045588D01*
X123737744Y-104881616D01*
X123836347Y-104734046D01*
X123961846Y-104608547D01*
X124109416Y-104509944D01*
X124273388Y-104442024D01*
X124422688Y-104412327D01*
X124447458Y-104407400D01*
X124624942Y-104407400D01*
X124649712Y-104412327D01*
G37*
G36*
X122109712Y-104412327D02*
G01*
X122259012Y-104442024D01*
X122422984Y-104509944D01*
X122570554Y-104608547D01*
X122696053Y-104734046D01*
X122794656Y-104881616D01*
X122862576Y-105045588D01*
X122886644Y-105166589D01*
X122897200Y-105219658D01*
X122897200Y-105397142D01*
X122894589Y-105410266D01*
X122862576Y-105571212D01*
X122794656Y-105735184D01*
X122696053Y-105882754D01*
X122570554Y-106008253D01*
X122422984Y-106106856D01*
X122259012Y-106174776D01*
X122116111Y-106203200D01*
X122084942Y-106209400D01*
X121907458Y-106209400D01*
X121876289Y-106203200D01*
X121733388Y-106174776D01*
X121569416Y-106106856D01*
X121421846Y-106008253D01*
X121296347Y-105882754D01*
X121197744Y-105735184D01*
X121129824Y-105571212D01*
X121097811Y-105410266D01*
X121095200Y-105397142D01*
X121095200Y-105219658D01*
X121105756Y-105166589D01*
X121129824Y-105045588D01*
X121197744Y-104881616D01*
X121296347Y-104734046D01*
X121421846Y-104608547D01*
X121569416Y-104509944D01*
X121733388Y-104442024D01*
X121882688Y-104412327D01*
X121907458Y-104407400D01*
X122084942Y-104407400D01*
X122109712Y-104412327D01*
G37*
G36*
X135800391Y-105002385D02*
G01*
X135834369Y-105012693D01*
X135865690Y-105029434D01*
X135893139Y-105051961D01*
X135915666Y-105079410D01*
X135932407Y-105110731D01*
X135942715Y-105144709D01*
X135946800Y-105186190D01*
X135946800Y-105862410D01*
X135942715Y-105903891D01*
X135932407Y-105937869D01*
X135915666Y-105969190D01*
X135893139Y-105996639D01*
X135865690Y-106019166D01*
X135834369Y-106035907D01*
X135800391Y-106046215D01*
X135758910Y-106050300D01*
X135157690Y-106050300D01*
X135116209Y-106046215D01*
X135082231Y-106035907D01*
X135050910Y-106019166D01*
X135023461Y-105996639D01*
X135000934Y-105969190D01*
X134984193Y-105937869D01*
X134973885Y-105903891D01*
X134969800Y-105862410D01*
X134969800Y-105186190D01*
X134973885Y-105144709D01*
X134984193Y-105110731D01*
X135000934Y-105079410D01*
X135023461Y-105051961D01*
X135050910Y-105029434D01*
X135082231Y-105012693D01*
X135116209Y-105002385D01*
X135157690Y-104998300D01*
X135758910Y-104998300D01*
X135800391Y-105002385D01*
G37*
G36*
X134225391Y-105002385D02*
G01*
X134259369Y-105012693D01*
X134290690Y-105029434D01*
X134318139Y-105051961D01*
X134340666Y-105079410D01*
X134357407Y-105110731D01*
X134367715Y-105144709D01*
X134371800Y-105186190D01*
X134371800Y-105862410D01*
X134367715Y-105903891D01*
X134357407Y-105937869D01*
X134340666Y-105969190D01*
X134318139Y-105996639D01*
X134290690Y-106019166D01*
X134259369Y-106035907D01*
X134225391Y-106046215D01*
X134183910Y-106050300D01*
X133582690Y-106050300D01*
X133541209Y-106046215D01*
X133507231Y-106035907D01*
X133475910Y-106019166D01*
X133448461Y-105996639D01*
X133425934Y-105969190D01*
X133409193Y-105937869D01*
X133398885Y-105903891D01*
X133394800Y-105862410D01*
X133394800Y-105186190D01*
X133398885Y-105144709D01*
X133409193Y-105110731D01*
X133425934Y-105079410D01*
X133448461Y-105051961D01*
X133475910Y-105029434D01*
X133507231Y-105012693D01*
X133541209Y-105002385D01*
X133582690Y-104998300D01*
X134183910Y-104998300D01*
X134225391Y-105002385D01*
G37*
G36*
X152271591Y-104468485D02*
G01*
X152305569Y-104478793D01*
X152336890Y-104495534D01*
X152364339Y-104518061D01*
X152386866Y-104545510D01*
X152403607Y-104576831D01*
X152413915Y-104610809D01*
X152418000Y-104652290D01*
X152418000Y-105253510D01*
X152413915Y-105294991D01*
X152403607Y-105328969D01*
X152386866Y-105360290D01*
X152364339Y-105387739D01*
X152336890Y-105410266D01*
X152305569Y-105427007D01*
X152271591Y-105437315D01*
X152230110Y-105441400D01*
X151553890Y-105441400D01*
X151512409Y-105437315D01*
X151478431Y-105427007D01*
X151447110Y-105410266D01*
X151419661Y-105387739D01*
X151397134Y-105360290D01*
X151380393Y-105328969D01*
X151370085Y-105294991D01*
X151366000Y-105253510D01*
X151366000Y-104652290D01*
X151370085Y-104610809D01*
X151380393Y-104576831D01*
X151397134Y-104545510D01*
X151419661Y-104518061D01*
X151447110Y-104495534D01*
X151478431Y-104478793D01*
X151512409Y-104468485D01*
X151553890Y-104464400D01*
X152230110Y-104464400D01*
X152271591Y-104468485D01*
G37*
G36*
X154100391Y-104468485D02*
G01*
X154134369Y-104478793D01*
X154165690Y-104495534D01*
X154193139Y-104518061D01*
X154215666Y-104545510D01*
X154232407Y-104576831D01*
X154242715Y-104610809D01*
X154246800Y-104652290D01*
X154246800Y-105253510D01*
X154242715Y-105294991D01*
X154232407Y-105328969D01*
X154215666Y-105360290D01*
X154193139Y-105387739D01*
X154165690Y-105410266D01*
X154134369Y-105427007D01*
X154100391Y-105437315D01*
X154058910Y-105441400D01*
X153382690Y-105441400D01*
X153341209Y-105437315D01*
X153307231Y-105427007D01*
X153275910Y-105410266D01*
X153248461Y-105387739D01*
X153225934Y-105360290D01*
X153209193Y-105328969D01*
X153198885Y-105294991D01*
X153194800Y-105253510D01*
X153194800Y-104652290D01*
X153198885Y-104610809D01*
X153209193Y-104576831D01*
X153225934Y-104545510D01*
X153248461Y-104518061D01*
X153275910Y-104495534D01*
X153307231Y-104478793D01*
X153341209Y-104468485D01*
X153382690Y-104464400D01*
X154058910Y-104464400D01*
X154100391Y-104468485D01*
G37*
G36*
X152271591Y-102893485D02*
G01*
X152305569Y-102903793D01*
X152336890Y-102920534D01*
X152364339Y-102943061D01*
X152386866Y-102970510D01*
X152403607Y-103001831D01*
X152413915Y-103035809D01*
X152418000Y-103077290D01*
X152418000Y-103678510D01*
X152413915Y-103719991D01*
X152403607Y-103753969D01*
X152386866Y-103785290D01*
X152364339Y-103812739D01*
X152336890Y-103835266D01*
X152305569Y-103852007D01*
X152271591Y-103862315D01*
X152230110Y-103866400D01*
X151553890Y-103866400D01*
X151512409Y-103862315D01*
X151478431Y-103852007D01*
X151447110Y-103835266D01*
X151419661Y-103812739D01*
X151397134Y-103785290D01*
X151380393Y-103753969D01*
X151370085Y-103719991D01*
X151366000Y-103678510D01*
X151366000Y-103077290D01*
X151370085Y-103035809D01*
X151380393Y-103001831D01*
X151397134Y-102970510D01*
X151419661Y-102943061D01*
X151447110Y-102920534D01*
X151478431Y-102903793D01*
X151512409Y-102893485D01*
X151553890Y-102889400D01*
X152230110Y-102889400D01*
X152271591Y-102893485D01*
G37*
G36*
X154100391Y-102893485D02*
G01*
X154134369Y-102903793D01*
X154165690Y-102920534D01*
X154193139Y-102943061D01*
X154215666Y-102970510D01*
X154232407Y-103001831D01*
X154242715Y-103035809D01*
X154246800Y-103077290D01*
X154246800Y-103678510D01*
X154242715Y-103719991D01*
X154232407Y-103753969D01*
X154215666Y-103785290D01*
X154193139Y-103812739D01*
X154165690Y-103835266D01*
X154134369Y-103852007D01*
X154100391Y-103862315D01*
X154058910Y-103866400D01*
X153382690Y-103866400D01*
X153341209Y-103862315D01*
X153307231Y-103852007D01*
X153275910Y-103835266D01*
X153248461Y-103812739D01*
X153225934Y-103785290D01*
X153209193Y-103753969D01*
X153198885Y-103719991D01*
X153194800Y-103678510D01*
X153194800Y-103077290D01*
X153198885Y-103035809D01*
X153209193Y-103001831D01*
X153225934Y-102970510D01*
X153248461Y-102943061D01*
X153275910Y-102920534D01*
X153307231Y-102903793D01*
X153341209Y-102893485D01*
X153382690Y-102889400D01*
X154058910Y-102889400D01*
X154100391Y-102893485D01*
G37*
G36*
X122109712Y-101872327D02*
G01*
X122259012Y-101902024D01*
X122422984Y-101969944D01*
X122570554Y-102068547D01*
X122696053Y-102194046D01*
X122794656Y-102341616D01*
X122862576Y-102505588D01*
X122897200Y-102679659D01*
X122897200Y-102857141D01*
X122862576Y-103031212D01*
X122794656Y-103195184D01*
X122696053Y-103342754D01*
X122570554Y-103468253D01*
X122422984Y-103566856D01*
X122259012Y-103634776D01*
X122109712Y-103664473D01*
X122084942Y-103669400D01*
X121907458Y-103669400D01*
X121882688Y-103664473D01*
X121733388Y-103634776D01*
X121569416Y-103566856D01*
X121421846Y-103468253D01*
X121296347Y-103342754D01*
X121197744Y-103195184D01*
X121129824Y-103031212D01*
X121095200Y-102857141D01*
X121095200Y-102679659D01*
X121129824Y-102505588D01*
X121197744Y-102341616D01*
X121296347Y-102194046D01*
X121421846Y-102068547D01*
X121569416Y-101969944D01*
X121733388Y-101902024D01*
X121882688Y-101872327D01*
X121907458Y-101867400D01*
X122084942Y-101867400D01*
X122109712Y-101872327D01*
G37*
G36*
X124649712Y-101872327D02*
G01*
X124799012Y-101902024D01*
X124962984Y-101969944D01*
X125110554Y-102068547D01*
X125236053Y-102194046D01*
X125334656Y-102341616D01*
X125402576Y-102505588D01*
X125437200Y-102679659D01*
X125437200Y-102857141D01*
X125402576Y-103031212D01*
X125334656Y-103195184D01*
X125236053Y-103342754D01*
X125110554Y-103468253D01*
X124962984Y-103566856D01*
X124799012Y-103634776D01*
X124649712Y-103664473D01*
X124624942Y-103669400D01*
X124447458Y-103669400D01*
X124422688Y-103664473D01*
X124273388Y-103634776D01*
X124109416Y-103566856D01*
X123961846Y-103468253D01*
X123836347Y-103342754D01*
X123737744Y-103195184D01*
X123669824Y-103031212D01*
X123635200Y-102857141D01*
X123635200Y-102679659D01*
X123669824Y-102505588D01*
X123737744Y-102341616D01*
X123836347Y-102194046D01*
X123961846Y-102068547D01*
X124109416Y-101969944D01*
X124273388Y-101902024D01*
X124422688Y-101872327D01*
X124447458Y-101867400D01*
X124624942Y-101867400D01*
X124649712Y-101872327D01*
G37*
G36*
X147648791Y-102055485D02*
G01*
X147682769Y-102065793D01*
X147714090Y-102082534D01*
X147741539Y-102105061D01*
X147764066Y-102132510D01*
X147780807Y-102163831D01*
X147791115Y-102197809D01*
X147795200Y-102239290D01*
X147795200Y-102840510D01*
X147791115Y-102881991D01*
X147780807Y-102915969D01*
X147764066Y-102947290D01*
X147741539Y-102974739D01*
X147714090Y-102997266D01*
X147682769Y-103014007D01*
X147648791Y-103024315D01*
X147607310Y-103028400D01*
X146931090Y-103028400D01*
X146889609Y-103024315D01*
X146855631Y-103014007D01*
X146824310Y-102997266D01*
X146796861Y-102974739D01*
X146774334Y-102947290D01*
X146757593Y-102915969D01*
X146747285Y-102881991D01*
X146743200Y-102840510D01*
X146743200Y-102239290D01*
X146747285Y-102197809D01*
X146757593Y-102163831D01*
X146774334Y-102132510D01*
X146796861Y-102105061D01*
X146824310Y-102082534D01*
X146855631Y-102065793D01*
X146889609Y-102055485D01*
X146931090Y-102051400D01*
X147607310Y-102051400D01*
X147648791Y-102055485D01*
G37*
G36*
X147648791Y-100480485D02*
G01*
X147682769Y-100490793D01*
X147714090Y-100507534D01*
X147741539Y-100530061D01*
X147764066Y-100557510D01*
X147780807Y-100588831D01*
X147791115Y-100622809D01*
X147795200Y-100664290D01*
X147795200Y-101265510D01*
X147791115Y-101306991D01*
X147780807Y-101340969D01*
X147764066Y-101372290D01*
X147741539Y-101399739D01*
X147714090Y-101422266D01*
X147682769Y-101439007D01*
X147648791Y-101449315D01*
X147607310Y-101453400D01*
X146931090Y-101453400D01*
X146889609Y-101449315D01*
X146855631Y-101439007D01*
X146824310Y-101422266D01*
X146796861Y-101399739D01*
X146774334Y-101372290D01*
X146757593Y-101340969D01*
X146747285Y-101306991D01*
X146743200Y-101265510D01*
X146743200Y-100664290D01*
X146747285Y-100622809D01*
X146757593Y-100588831D01*
X146774334Y-100557510D01*
X146796861Y-100530061D01*
X146824310Y-100507534D01*
X146855631Y-100490793D01*
X146889609Y-100480485D01*
X146931090Y-100476400D01*
X147607310Y-100476400D01*
X147648791Y-100480485D01*
G37*
G36*
X122107736Y-99331934D02*
G01*
X122259012Y-99362024D01*
X122422984Y-99429944D01*
X122570554Y-99528547D01*
X122696053Y-99654046D01*
X122794656Y-99801616D01*
X122862576Y-99965588D01*
X122897200Y-100139659D01*
X122897200Y-100317141D01*
X122862576Y-100491212D01*
X122794656Y-100655184D01*
X122696053Y-100802754D01*
X122570554Y-100928253D01*
X122422984Y-101026856D01*
X122259012Y-101094776D01*
X122109712Y-101124473D01*
X122084942Y-101129400D01*
X121907458Y-101129400D01*
X121882688Y-101124473D01*
X121733388Y-101094776D01*
X121569416Y-101026856D01*
X121421846Y-100928253D01*
X121296347Y-100802754D01*
X121197744Y-100655184D01*
X121129824Y-100491212D01*
X121095200Y-100317141D01*
X121095200Y-100139659D01*
X121129824Y-99965588D01*
X121197744Y-99801616D01*
X121296347Y-99654046D01*
X121421846Y-99528547D01*
X121569416Y-99429944D01*
X121733388Y-99362024D01*
X121884664Y-99331934D01*
X121907458Y-99327400D01*
X122084942Y-99327400D01*
X122107736Y-99331934D01*
G37*
G36*
X125437200Y-101129400D02*
G01*
X123635200Y-101129400D01*
X123635200Y-99327400D01*
X125437200Y-99327400D01*
X125437200Y-101129400D01*
G37*
G36*
X134554991Y-100023485D02*
G01*
X134588969Y-100033793D01*
X134620290Y-100050534D01*
X134647739Y-100073061D01*
X134670266Y-100100510D01*
X134687007Y-100131831D01*
X134697315Y-100165809D01*
X134701400Y-100207290D01*
X134701400Y-100808510D01*
X134697315Y-100849991D01*
X134687007Y-100883969D01*
X134670266Y-100915290D01*
X134647739Y-100942739D01*
X134620290Y-100965266D01*
X134588969Y-100982007D01*
X134554991Y-100992315D01*
X134513510Y-100996400D01*
X133837290Y-100996400D01*
X133795809Y-100992315D01*
X133761831Y-100982007D01*
X133730510Y-100965266D01*
X133703061Y-100942739D01*
X133680534Y-100915290D01*
X133663793Y-100883969D01*
X133653485Y-100849991D01*
X133649400Y-100808510D01*
X133649400Y-100207290D01*
X133653485Y-100165809D01*
X133663793Y-100131831D01*
X133680534Y-100100510D01*
X133703061Y-100073061D01*
X133730510Y-100050534D01*
X133761831Y-100033793D01*
X133795809Y-100023485D01*
X133837290Y-100019400D01*
X134513510Y-100019400D01*
X134554991Y-100023485D01*
G37*
G36*
X134554991Y-98448485D02*
G01*
X134588969Y-98458793D01*
X134620290Y-98475534D01*
X134647739Y-98498061D01*
X134670266Y-98525510D01*
X134687007Y-98556831D01*
X134697315Y-98590809D01*
X134701400Y-98632290D01*
X134701400Y-99233510D01*
X134697315Y-99274991D01*
X134687007Y-99308969D01*
X134670266Y-99340290D01*
X134647739Y-99367739D01*
X134620290Y-99390266D01*
X134588969Y-99407007D01*
X134554991Y-99417315D01*
X134513510Y-99421400D01*
X133837290Y-99421400D01*
X133795809Y-99417315D01*
X133761831Y-99407007D01*
X133730510Y-99390266D01*
X133703061Y-99367739D01*
X133680534Y-99340290D01*
X133663793Y-99308969D01*
X133653485Y-99274991D01*
X133649400Y-99233510D01*
X133649400Y-98632290D01*
X133653485Y-98590809D01*
X133663793Y-98556831D01*
X133680534Y-98525510D01*
X133703061Y-98498061D01*
X133730510Y-98475534D01*
X133761831Y-98458793D01*
X133795809Y-98448485D01*
X133837290Y-98444400D01*
X134513510Y-98444400D01*
X134554991Y-98448485D01*
G37*
G36*
X129874783Y-98446625D02*
G01*
X129905243Y-98455866D01*
X129933323Y-98470874D01*
X129957931Y-98491069D01*
X129978126Y-98515677D01*
X129993134Y-98543757D01*
X130002375Y-98574217D01*
X130006100Y-98612040D01*
X130006100Y-99175760D01*
X130002375Y-99213583D01*
X129993134Y-99244043D01*
X129978126Y-99272123D01*
X129957931Y-99296731D01*
X129933323Y-99316926D01*
X129905243Y-99331934D01*
X129874783Y-99341175D01*
X129836960Y-99344900D01*
X129173240Y-99344900D01*
X129135417Y-99341175D01*
X129104957Y-99331934D01*
X129076877Y-99316926D01*
X129052269Y-99296731D01*
X129032074Y-99272123D01*
X129017066Y-99244043D01*
X129007825Y-99213583D01*
X129004100Y-99175760D01*
X129004100Y-98612040D01*
X129007825Y-98574217D01*
X129017066Y-98543757D01*
X129032074Y-98515677D01*
X129052269Y-98491069D01*
X129076877Y-98470874D01*
X129104957Y-98455866D01*
X129135417Y-98446625D01*
X129173240Y-98442900D01*
X129836960Y-98442900D01*
X129874783Y-98446625D01*
G37*
G36*
X131724783Y-98446625D02*
G01*
X131755243Y-98455866D01*
X131783323Y-98470874D01*
X131807931Y-98491069D01*
X131828126Y-98515677D01*
X131843134Y-98543757D01*
X131852375Y-98574217D01*
X131856100Y-98612040D01*
X131856100Y-99175760D01*
X131852375Y-99213583D01*
X131843134Y-99244043D01*
X131828126Y-99272123D01*
X131807931Y-99296731D01*
X131783323Y-99316926D01*
X131755243Y-99331934D01*
X131724783Y-99341175D01*
X131686960Y-99344900D01*
X131023240Y-99344900D01*
X130985417Y-99341175D01*
X130954957Y-99331934D01*
X130926877Y-99316926D01*
X130902269Y-99296731D01*
X130882074Y-99272123D01*
X130867066Y-99244043D01*
X130857825Y-99213583D01*
X130854100Y-99175760D01*
X130854100Y-98612040D01*
X130857825Y-98574217D01*
X130867066Y-98543757D01*
X130882074Y-98515677D01*
X130902269Y-98491069D01*
X130926877Y-98470874D01*
X130954957Y-98455866D01*
X130985417Y-98446625D01*
X131023240Y-98442900D01*
X131686960Y-98442900D01*
X131724783Y-98446625D01*
G37*
G36*
X147801191Y-97839085D02*
G01*
X147835169Y-97849393D01*
X147866490Y-97866134D01*
X147893939Y-97888661D01*
X147916466Y-97916110D01*
X147933207Y-97947431D01*
X147943515Y-97981409D01*
X147947600Y-98022890D01*
X147947600Y-98624110D01*
X147943515Y-98665591D01*
X147933207Y-98699569D01*
X147916466Y-98730890D01*
X147893939Y-98758339D01*
X147866490Y-98780866D01*
X147835169Y-98797607D01*
X147801191Y-98807915D01*
X147759710Y-98812000D01*
X147083490Y-98812000D01*
X147042009Y-98807915D01*
X147008031Y-98797607D01*
X146976710Y-98780866D01*
X146949261Y-98758339D01*
X146926734Y-98730890D01*
X146909993Y-98699569D01*
X146899685Y-98665591D01*
X146895600Y-98624110D01*
X146895600Y-98022890D01*
X146899685Y-97981409D01*
X146909993Y-97947431D01*
X146926734Y-97916110D01*
X146949261Y-97888661D01*
X146976710Y-97866134D01*
X147008031Y-97849393D01*
X147042009Y-97839085D01*
X147083490Y-97835000D01*
X147759710Y-97835000D01*
X147801191Y-97839085D01*
G37*
G36*
X152296991Y-97839085D02*
G01*
X152330969Y-97849393D01*
X152362290Y-97866134D01*
X152389739Y-97888661D01*
X152412266Y-97916110D01*
X152429007Y-97947431D01*
X152439315Y-97981409D01*
X152443400Y-98022890D01*
X152443400Y-98624110D01*
X152439315Y-98665591D01*
X152429007Y-98699569D01*
X152412266Y-98730890D01*
X152389739Y-98758339D01*
X152362290Y-98780866D01*
X152330969Y-98797607D01*
X152296991Y-98807915D01*
X152255510Y-98812000D01*
X151579290Y-98812000D01*
X151537809Y-98807915D01*
X151503831Y-98797607D01*
X151472510Y-98780866D01*
X151445061Y-98758339D01*
X151422534Y-98730890D01*
X151405793Y-98699569D01*
X151395485Y-98665591D01*
X151391400Y-98624110D01*
X151391400Y-98022890D01*
X151395485Y-97981409D01*
X151405793Y-97947431D01*
X151422534Y-97916110D01*
X151445061Y-97888661D01*
X151472510Y-97866134D01*
X151503831Y-97849393D01*
X151537809Y-97839085D01*
X151579290Y-97835000D01*
X152255510Y-97835000D01*
X152296991Y-97839085D01*
G37*
G36*
X145515191Y-97813685D02*
G01*
X145549169Y-97823993D01*
X145580490Y-97840734D01*
X145607939Y-97863261D01*
X145630466Y-97890710D01*
X145647207Y-97922031D01*
X145657515Y-97956009D01*
X145661600Y-97997490D01*
X145661600Y-98598710D01*
X145657515Y-98640191D01*
X145647207Y-98674169D01*
X145630466Y-98705490D01*
X145607939Y-98732939D01*
X145580490Y-98755466D01*
X145549169Y-98772207D01*
X145515191Y-98782515D01*
X145473710Y-98786600D01*
X144797490Y-98786600D01*
X144756009Y-98782515D01*
X144722031Y-98772207D01*
X144690710Y-98755466D01*
X144663261Y-98732939D01*
X144640734Y-98705490D01*
X144623993Y-98674169D01*
X144613685Y-98640191D01*
X144609600Y-98598710D01*
X144609600Y-97997490D01*
X144613685Y-97956009D01*
X144623993Y-97922031D01*
X144640734Y-97890710D01*
X144663261Y-97863261D01*
X144690710Y-97840734D01*
X144722031Y-97823993D01*
X144756009Y-97813685D01*
X144797490Y-97809600D01*
X145473710Y-97809600D01*
X145515191Y-97813685D01*
G37*
G36*
X150315791Y-97788285D02*
G01*
X150349769Y-97798593D01*
X150381090Y-97815334D01*
X150408539Y-97837861D01*
X150431066Y-97865310D01*
X150447807Y-97896631D01*
X150458115Y-97930609D01*
X150462200Y-97972090D01*
X150462200Y-98573310D01*
X150458115Y-98614791D01*
X150447807Y-98648769D01*
X150431066Y-98680090D01*
X150408539Y-98707539D01*
X150381090Y-98730066D01*
X150349769Y-98746807D01*
X150315791Y-98757115D01*
X150274310Y-98761200D01*
X149598090Y-98761200D01*
X149556609Y-98757115D01*
X149522631Y-98746807D01*
X149491310Y-98730066D01*
X149463861Y-98707539D01*
X149441334Y-98680090D01*
X149424593Y-98648769D01*
X149414285Y-98614791D01*
X149410200Y-98573310D01*
X149410200Y-97972090D01*
X149414285Y-97930609D01*
X149424593Y-97896631D01*
X149441334Y-97865310D01*
X149463861Y-97837861D01*
X149491310Y-97815334D01*
X149522631Y-97798593D01*
X149556609Y-97788285D01*
X149598090Y-97784200D01*
X150274310Y-97784200D01*
X150315791Y-97788285D01*
G37*
G36*
X128027291Y-96949985D02*
G01*
X128061269Y-96960293D01*
X128092590Y-96977034D01*
X128120039Y-96999561D01*
X128142566Y-97027010D01*
X128159307Y-97058331D01*
X128169615Y-97092309D01*
X128173700Y-97133790D01*
X128173700Y-97735010D01*
X128169615Y-97776491D01*
X128159307Y-97810469D01*
X128142566Y-97841790D01*
X128120039Y-97869239D01*
X128092590Y-97891766D01*
X128061269Y-97908507D01*
X128027291Y-97918815D01*
X127985810Y-97922900D01*
X127309590Y-97922900D01*
X127268109Y-97918815D01*
X127234131Y-97908507D01*
X127202810Y-97891766D01*
X127175361Y-97869239D01*
X127152834Y-97841790D01*
X127136093Y-97810469D01*
X127125785Y-97776491D01*
X127121700Y-97735010D01*
X127121700Y-97133790D01*
X127125785Y-97092309D01*
X127136093Y-97058331D01*
X127152834Y-97027010D01*
X127175361Y-96999561D01*
X127202810Y-96977034D01*
X127234131Y-96960293D01*
X127268109Y-96949985D01*
X127309590Y-96945900D01*
X127985810Y-96945900D01*
X128027291Y-96949985D01*
G37*
G36*
X129874783Y-96996625D02*
G01*
X129905243Y-97005866D01*
X129933323Y-97020874D01*
X129957931Y-97041069D01*
X129978126Y-97065677D01*
X129993134Y-97093757D01*
X130002375Y-97124217D01*
X130006100Y-97162040D01*
X130006100Y-97725760D01*
X130002375Y-97763583D01*
X129993134Y-97794043D01*
X129978126Y-97822123D01*
X129957931Y-97846731D01*
X129933323Y-97866926D01*
X129905243Y-97881934D01*
X129874783Y-97891175D01*
X129836960Y-97894900D01*
X129173240Y-97894900D01*
X129135417Y-97891175D01*
X129104957Y-97881934D01*
X129076877Y-97866926D01*
X129052269Y-97846731D01*
X129032074Y-97822123D01*
X129017066Y-97794043D01*
X129007825Y-97763583D01*
X129004100Y-97725760D01*
X129004100Y-97162040D01*
X129007825Y-97124217D01*
X129017066Y-97093757D01*
X129032074Y-97065677D01*
X129052269Y-97041069D01*
X129076877Y-97020874D01*
X129104957Y-97005866D01*
X129135417Y-96996625D01*
X129173240Y-96992900D01*
X129836960Y-96992900D01*
X129874783Y-96996625D01*
G37*
G36*
X131724783Y-96996625D02*
G01*
X131755243Y-97005866D01*
X131783323Y-97020874D01*
X131807931Y-97041069D01*
X131828126Y-97065677D01*
X131843134Y-97093757D01*
X131852375Y-97124217D01*
X131856100Y-97162040D01*
X131856100Y-97725760D01*
X131852375Y-97763583D01*
X131843134Y-97794043D01*
X131828126Y-97822123D01*
X131807931Y-97846731D01*
X131783323Y-97866926D01*
X131755243Y-97881934D01*
X131724783Y-97891175D01*
X131686960Y-97894900D01*
X131023240Y-97894900D01*
X130985417Y-97891175D01*
X130954957Y-97881934D01*
X130926877Y-97866926D01*
X130902269Y-97846731D01*
X130882074Y-97822123D01*
X130867066Y-97794043D01*
X130857825Y-97763583D01*
X130854100Y-97725760D01*
X130854100Y-97162040D01*
X130857825Y-97124217D01*
X130867066Y-97093757D01*
X130882074Y-97065677D01*
X130902269Y-97041069D01*
X130926877Y-97020874D01*
X130954957Y-97005866D01*
X130985417Y-96996625D01*
X131023240Y-96992900D01*
X131686960Y-96992900D01*
X131724783Y-96996625D01*
G37*
G36*
X147801191Y-96264085D02*
G01*
X147835169Y-96274393D01*
X147866490Y-96291134D01*
X147893939Y-96313661D01*
X147916466Y-96341110D01*
X147933207Y-96372431D01*
X147943515Y-96406409D01*
X147947600Y-96447890D01*
X147947600Y-97049110D01*
X147943515Y-97090591D01*
X147933207Y-97124569D01*
X147916466Y-97155890D01*
X147893939Y-97183339D01*
X147866490Y-97205866D01*
X147835169Y-97222607D01*
X147801191Y-97232915D01*
X147759710Y-97237000D01*
X147083490Y-97237000D01*
X147042009Y-97232915D01*
X147008031Y-97222607D01*
X146976710Y-97205866D01*
X146949261Y-97183339D01*
X146926734Y-97155890D01*
X146909993Y-97124569D01*
X146899685Y-97090591D01*
X146895600Y-97049110D01*
X146895600Y-96447890D01*
X146899685Y-96406409D01*
X146909993Y-96372431D01*
X146926734Y-96341110D01*
X146949261Y-96313661D01*
X146976710Y-96291134D01*
X147008031Y-96274393D01*
X147042009Y-96264085D01*
X147083490Y-96260000D01*
X147759710Y-96260000D01*
X147801191Y-96264085D01*
G37*
G36*
X152296991Y-96264085D02*
G01*
X152330969Y-96274393D01*
X152362290Y-96291134D01*
X152389739Y-96313661D01*
X152412266Y-96341110D01*
X152429007Y-96372431D01*
X152439315Y-96406409D01*
X152443400Y-96447890D01*
X152443400Y-97049110D01*
X152439315Y-97090591D01*
X152429007Y-97124569D01*
X152412266Y-97155890D01*
X152389739Y-97183339D01*
X152362290Y-97205866D01*
X152330969Y-97222607D01*
X152296991Y-97232915D01*
X152255510Y-97237000D01*
X151579290Y-97237000D01*
X151537809Y-97232915D01*
X151503831Y-97222607D01*
X151472510Y-97205866D01*
X151445061Y-97183339D01*
X151422534Y-97155890D01*
X151405793Y-97124569D01*
X151395485Y-97090591D01*
X151391400Y-97049110D01*
X151391400Y-96447890D01*
X151395485Y-96406409D01*
X151405793Y-96372431D01*
X151422534Y-96341110D01*
X151445061Y-96313661D01*
X151472510Y-96291134D01*
X151503831Y-96274393D01*
X151537809Y-96264085D01*
X151579290Y-96260000D01*
X152255510Y-96260000D01*
X152296991Y-96264085D01*
G37*
G36*
X145515191Y-96238685D02*
G01*
X145549169Y-96248993D01*
X145580490Y-96265734D01*
X145607939Y-96288261D01*
X145630466Y-96315710D01*
X145647207Y-96347031D01*
X145657515Y-96381009D01*
X145661600Y-96422490D01*
X145661600Y-97023710D01*
X145657515Y-97065191D01*
X145647207Y-97099169D01*
X145630466Y-97130490D01*
X145607939Y-97157939D01*
X145580490Y-97180466D01*
X145549169Y-97197207D01*
X145515191Y-97207515D01*
X145473710Y-97211600D01*
X144797490Y-97211600D01*
X144756009Y-97207515D01*
X144722031Y-97197207D01*
X144690710Y-97180466D01*
X144663261Y-97157939D01*
X144640734Y-97130490D01*
X144623993Y-97099169D01*
X144613685Y-97065191D01*
X144609600Y-97023710D01*
X144609600Y-96422490D01*
X144613685Y-96381009D01*
X144623993Y-96347031D01*
X144640734Y-96315710D01*
X144663261Y-96288261D01*
X144690710Y-96265734D01*
X144722031Y-96248993D01*
X144756009Y-96238685D01*
X144797490Y-96234600D01*
X145473710Y-96234600D01*
X145515191Y-96238685D01*
G37*
G36*
X150315791Y-96213285D02*
G01*
X150349769Y-96223593D01*
X150381090Y-96240334D01*
X150408539Y-96262861D01*
X150431066Y-96290310D01*
X150447807Y-96321631D01*
X150458115Y-96355609D01*
X150462200Y-96397090D01*
X150462200Y-96998310D01*
X150458115Y-97039791D01*
X150447807Y-97073769D01*
X150431066Y-97105090D01*
X150408539Y-97132539D01*
X150381090Y-97155066D01*
X150349769Y-97171807D01*
X150315791Y-97182115D01*
X150274310Y-97186200D01*
X149598090Y-97186200D01*
X149556609Y-97182115D01*
X149522631Y-97171807D01*
X149491310Y-97155066D01*
X149463861Y-97132539D01*
X149441334Y-97105090D01*
X149424593Y-97073769D01*
X149414285Y-97039791D01*
X149410200Y-96998310D01*
X149410200Y-96397090D01*
X149414285Y-96355609D01*
X149424593Y-96321631D01*
X149441334Y-96290310D01*
X149463861Y-96262861D01*
X149491310Y-96240334D01*
X149522631Y-96223593D01*
X149556609Y-96213285D01*
X149598090Y-96209200D01*
X150274310Y-96209200D01*
X150315791Y-96213285D01*
G37*
G36*
X134707491Y-95743685D02*
G01*
X134741469Y-95753993D01*
X134772790Y-95770734D01*
X134800239Y-95793261D01*
X134822766Y-95820710D01*
X134839507Y-95852031D01*
X134849815Y-95886009D01*
X134853900Y-95927490D01*
X134853900Y-96528710D01*
X134849815Y-96570191D01*
X134839507Y-96604169D01*
X134822766Y-96635490D01*
X134800239Y-96662939D01*
X134772790Y-96685466D01*
X134741469Y-96702207D01*
X134707491Y-96712515D01*
X134666010Y-96716600D01*
X133989790Y-96716600D01*
X133948309Y-96712515D01*
X133914331Y-96702207D01*
X133883010Y-96685466D01*
X133855561Y-96662939D01*
X133833034Y-96635490D01*
X133816293Y-96604169D01*
X133805985Y-96570191D01*
X133801900Y-96528710D01*
X133801900Y-95927490D01*
X133805985Y-95886009D01*
X133816293Y-95852031D01*
X133833034Y-95820710D01*
X133855561Y-95793261D01*
X133883010Y-95770734D01*
X133914331Y-95753993D01*
X133948309Y-95743685D01*
X133989790Y-95739600D01*
X134666010Y-95739600D01*
X134707491Y-95743685D01*
G37*
G36*
X128027291Y-95374985D02*
G01*
X128061269Y-95385293D01*
X128092590Y-95402034D01*
X128120039Y-95424561D01*
X128142566Y-95452010D01*
X128159307Y-95483331D01*
X128169615Y-95517309D01*
X128173700Y-95558790D01*
X128173700Y-96160010D01*
X128169615Y-96201491D01*
X128159307Y-96235469D01*
X128142566Y-96266790D01*
X128120039Y-96294239D01*
X128092590Y-96316766D01*
X128061269Y-96333507D01*
X128027291Y-96343815D01*
X127985810Y-96347900D01*
X127309590Y-96347900D01*
X127268109Y-96343815D01*
X127234131Y-96333507D01*
X127202810Y-96316766D01*
X127175361Y-96294239D01*
X127152834Y-96266790D01*
X127136093Y-96235469D01*
X127125785Y-96201491D01*
X127121700Y-96160010D01*
X127121700Y-95558790D01*
X127125785Y-95517309D01*
X127136093Y-95483331D01*
X127152834Y-95452010D01*
X127175361Y-95424561D01*
X127202810Y-95402034D01*
X127234131Y-95385293D01*
X127268109Y-95374985D01*
X127309590Y-95370900D01*
X127985810Y-95370900D01*
X128027291Y-95374985D01*
G37*
G36*
X134707491Y-94168685D02*
G01*
X134741469Y-94178993D01*
X134772790Y-94195734D01*
X134800239Y-94218261D01*
X134822766Y-94245710D01*
X134839507Y-94277031D01*
X134849815Y-94311009D01*
X134853900Y-94352490D01*
X134853900Y-94953710D01*
X134849815Y-94995191D01*
X134839507Y-95029169D01*
X134822766Y-95060490D01*
X134800239Y-95087939D01*
X134772790Y-95110466D01*
X134741469Y-95127207D01*
X134707491Y-95137515D01*
X134666010Y-95141600D01*
X133989790Y-95141600D01*
X133948309Y-95137515D01*
X133914331Y-95127207D01*
X133883010Y-95110466D01*
X133855561Y-95087939D01*
X133833034Y-95060490D01*
X133816293Y-95029169D01*
X133805985Y-94995191D01*
X133801900Y-94953710D01*
X133801900Y-94352490D01*
X133805985Y-94311009D01*
X133816293Y-94277031D01*
X133833034Y-94245710D01*
X133855561Y-94218261D01*
X133883010Y-94195734D01*
X133914331Y-94178993D01*
X133948309Y-94168685D01*
X133989790Y-94164600D01*
X134666010Y-94164600D01*
X134707491Y-94168685D01*
G37*
G36*
X123062391Y-88517785D02*
G01*
X123096369Y-88528093D01*
X123127690Y-88544834D01*
X123155139Y-88567361D01*
X123177666Y-88594810D01*
X123194407Y-88626131D01*
X123204715Y-88660109D01*
X123208800Y-88701590D01*
X123208800Y-89377810D01*
X123204715Y-89419291D01*
X123194407Y-89453269D01*
X123177666Y-89484590D01*
X123155139Y-89512039D01*
X123127690Y-89534566D01*
X123096369Y-89551307D01*
X123062391Y-89561615D01*
X123020910Y-89565700D01*
X122419690Y-89565700D01*
X122378209Y-89561615D01*
X122344231Y-89551307D01*
X122312910Y-89534566D01*
X122285461Y-89512039D01*
X122262934Y-89484590D01*
X122246193Y-89453269D01*
X122235885Y-89419291D01*
X122231800Y-89377810D01*
X122231800Y-88701590D01*
X122235885Y-88660109D01*
X122246193Y-88626131D01*
X122262934Y-88594810D01*
X122285461Y-88567361D01*
X122312910Y-88544834D01*
X122344231Y-88528093D01*
X122378209Y-88517785D01*
X122419690Y-88513700D01*
X123020910Y-88513700D01*
X123062391Y-88517785D01*
G37*
G36*
X121487391Y-88517785D02*
G01*
X121521369Y-88528093D01*
X121552690Y-88544834D01*
X121580139Y-88567361D01*
X121602666Y-88594810D01*
X121619407Y-88626131D01*
X121629715Y-88660109D01*
X121633800Y-88701590D01*
X121633800Y-89377810D01*
X121629715Y-89419291D01*
X121619407Y-89453269D01*
X121602666Y-89484590D01*
X121580139Y-89512039D01*
X121552690Y-89534566D01*
X121521369Y-89551307D01*
X121487391Y-89561615D01*
X121445910Y-89565700D01*
X120844690Y-89565700D01*
X120803209Y-89561615D01*
X120769231Y-89551307D01*
X120737910Y-89534566D01*
X120710461Y-89512039D01*
X120687934Y-89484590D01*
X120671193Y-89453269D01*
X120660885Y-89419291D01*
X120656800Y-89377810D01*
X120656800Y-88701590D01*
X120660885Y-88660109D01*
X120671193Y-88626131D01*
X120687934Y-88594810D01*
X120710461Y-88567361D01*
X120737910Y-88544834D01*
X120769231Y-88528093D01*
X120803209Y-88517785D01*
X120844690Y-88513700D01*
X121445910Y-88513700D01*
X121487391Y-88517785D01*
G37*
G36*
X128875700Y-88795100D02*
G01*
X127435700Y-88795100D01*
X127435700Y-88055100D01*
X128875700Y-88055100D01*
X128875700Y-88795100D01*
G37*
G36*
X126775700Y-87845100D02*
G01*
X125335700Y-87845100D01*
X125335700Y-87105100D01*
X126775700Y-87105100D01*
X126775700Y-87845100D01*
G37*
G36*
X145477491Y-86790585D02*
G01*
X145511469Y-86800893D01*
X145542790Y-86817634D01*
X145570239Y-86840161D01*
X145592766Y-86867610D01*
X145609507Y-86898931D01*
X145619815Y-86932909D01*
X145623900Y-86974390D01*
X145623900Y-87650610D01*
X145619815Y-87692091D01*
X145609507Y-87726069D01*
X145592766Y-87757390D01*
X145570239Y-87784839D01*
X145542790Y-87807366D01*
X145511469Y-87824107D01*
X145477491Y-87834415D01*
X145436010Y-87838500D01*
X144834790Y-87838500D01*
X144793309Y-87834415D01*
X144759331Y-87824107D01*
X144728010Y-87807366D01*
X144700561Y-87784839D01*
X144678034Y-87757390D01*
X144661293Y-87726069D01*
X144650985Y-87692091D01*
X144646900Y-87650610D01*
X144646900Y-86974390D01*
X144650985Y-86932909D01*
X144661293Y-86898931D01*
X144678034Y-86867610D01*
X144700561Y-86840161D01*
X144728010Y-86817634D01*
X144759331Y-86800893D01*
X144793309Y-86790585D01*
X144834790Y-86786500D01*
X145436010Y-86786500D01*
X145477491Y-86790585D01*
G37*
G36*
X147052491Y-86790585D02*
G01*
X147086469Y-86800893D01*
X147117790Y-86817634D01*
X147145239Y-86840161D01*
X147167766Y-86867610D01*
X147184507Y-86898931D01*
X147194815Y-86932909D01*
X147198900Y-86974390D01*
X147198900Y-87650610D01*
X147194815Y-87692091D01*
X147184507Y-87726069D01*
X147167766Y-87757390D01*
X147145239Y-87784839D01*
X147117790Y-87807366D01*
X147086469Y-87824107D01*
X147052491Y-87834415D01*
X147011010Y-87838500D01*
X146409790Y-87838500D01*
X146368309Y-87834415D01*
X146334331Y-87824107D01*
X146303010Y-87807366D01*
X146275561Y-87784839D01*
X146253034Y-87757390D01*
X146236293Y-87726069D01*
X146225985Y-87692091D01*
X146221900Y-87650610D01*
X146221900Y-86974390D01*
X146225985Y-86932909D01*
X146236293Y-86898931D01*
X146253034Y-86867610D01*
X146275561Y-86840161D01*
X146303010Y-86817634D01*
X146334331Y-86800893D01*
X146368309Y-86790585D01*
X146409790Y-86786500D01*
X147011010Y-86786500D01*
X147052491Y-86790585D01*
G37*
G36*
X143547391Y-86790585D02*
G01*
X143581369Y-86800893D01*
X143612690Y-86817634D01*
X143640139Y-86840161D01*
X143662666Y-86867610D01*
X143679407Y-86898931D01*
X143689715Y-86932909D01*
X143693800Y-86974390D01*
X143693800Y-87650610D01*
X143689715Y-87692091D01*
X143679407Y-87726069D01*
X143662666Y-87757390D01*
X143640139Y-87784839D01*
X143612690Y-87807366D01*
X143581369Y-87824107D01*
X143547391Y-87834415D01*
X143505910Y-87838500D01*
X142904690Y-87838500D01*
X142863209Y-87834415D01*
X142829231Y-87824107D01*
X142797910Y-87807366D01*
X142770461Y-87784839D01*
X142747934Y-87757390D01*
X142731193Y-87726069D01*
X142720885Y-87692091D01*
X142716800Y-87650610D01*
X142716800Y-86974390D01*
X142720885Y-86932909D01*
X142731193Y-86898931D01*
X142747934Y-86867610D01*
X142770461Y-86840161D01*
X142797910Y-86817634D01*
X142829231Y-86800893D01*
X142863209Y-86790585D01*
X142904690Y-86786500D01*
X143505910Y-86786500D01*
X143547391Y-86790585D01*
G37*
G36*
X141972391Y-86790585D02*
G01*
X142006369Y-86800893D01*
X142037690Y-86817634D01*
X142065139Y-86840161D01*
X142087666Y-86867610D01*
X142104407Y-86898931D01*
X142114715Y-86932909D01*
X142118800Y-86974390D01*
X142118800Y-87650610D01*
X142114715Y-87692091D01*
X142104407Y-87726069D01*
X142087666Y-87757390D01*
X142065139Y-87784839D01*
X142037690Y-87807366D01*
X142006369Y-87824107D01*
X141972391Y-87834415D01*
X141930910Y-87838500D01*
X141329690Y-87838500D01*
X141288209Y-87834415D01*
X141254231Y-87824107D01*
X141222910Y-87807366D01*
X141195461Y-87784839D01*
X141172934Y-87757390D01*
X141156193Y-87726069D01*
X141145885Y-87692091D01*
X141141800Y-87650610D01*
X141141800Y-86974390D01*
X141145885Y-86932909D01*
X141156193Y-86898931D01*
X141172934Y-86867610D01*
X141195461Y-86840161D01*
X141222910Y-86817634D01*
X141254231Y-86800893D01*
X141288209Y-86790585D01*
X141329690Y-86786500D01*
X141930910Y-86786500D01*
X141972391Y-86790585D01*
G37*
G36*
X150634091Y-86739785D02*
G01*
X150668069Y-86750093D01*
X150699390Y-86766834D01*
X150726839Y-86789361D01*
X150749366Y-86816810D01*
X150766107Y-86848131D01*
X150776415Y-86882109D01*
X150780500Y-86923590D01*
X150780500Y-87599810D01*
X150776415Y-87641291D01*
X150766107Y-87675269D01*
X150749366Y-87706590D01*
X150726839Y-87734039D01*
X150699390Y-87756566D01*
X150668069Y-87773307D01*
X150634091Y-87783615D01*
X150592610Y-87787700D01*
X149991390Y-87787700D01*
X149949909Y-87783615D01*
X149915931Y-87773307D01*
X149884610Y-87756566D01*
X149857161Y-87734039D01*
X149834634Y-87706590D01*
X149817893Y-87675269D01*
X149807585Y-87641291D01*
X149803500Y-87599810D01*
X149803500Y-86923590D01*
X149807585Y-86882109D01*
X149817893Y-86848131D01*
X149834634Y-86816810D01*
X149857161Y-86789361D01*
X149884610Y-86766834D01*
X149915931Y-86750093D01*
X149949909Y-86739785D01*
X149991390Y-86735700D01*
X150592610Y-86735700D01*
X150634091Y-86739785D01*
G37*
G36*
X149059091Y-86739785D02*
G01*
X149093069Y-86750093D01*
X149124390Y-86766834D01*
X149151839Y-86789361D01*
X149174366Y-86816810D01*
X149191107Y-86848131D01*
X149201415Y-86882109D01*
X149205500Y-86923590D01*
X149205500Y-87599810D01*
X149201415Y-87641291D01*
X149191107Y-87675269D01*
X149174366Y-87706590D01*
X149151839Y-87734039D01*
X149124390Y-87756566D01*
X149093069Y-87773307D01*
X149059091Y-87783615D01*
X149017610Y-87787700D01*
X148416390Y-87787700D01*
X148374909Y-87783615D01*
X148340931Y-87773307D01*
X148309610Y-87756566D01*
X148282161Y-87734039D01*
X148259634Y-87706590D01*
X148242893Y-87675269D01*
X148232585Y-87641291D01*
X148228500Y-87599810D01*
X148228500Y-86923590D01*
X148232585Y-86882109D01*
X148242893Y-86848131D01*
X148259634Y-86816810D01*
X148282161Y-86789361D01*
X148309610Y-86766834D01*
X148340931Y-86750093D01*
X148374909Y-86739785D01*
X148416390Y-86735700D01*
X149017610Y-86735700D01*
X149059091Y-86739785D01*
G37*
G36*
X121487191Y-86028585D02*
G01*
X121521169Y-86038893D01*
X121552490Y-86055634D01*
X121579939Y-86078161D01*
X121602466Y-86105610D01*
X121619207Y-86136931D01*
X121629515Y-86170909D01*
X121633600Y-86212390D01*
X121633600Y-86888610D01*
X121629515Y-86930091D01*
X121619207Y-86964069D01*
X121602466Y-86995390D01*
X121579939Y-87022839D01*
X121552490Y-87045366D01*
X121521169Y-87062107D01*
X121487191Y-87072415D01*
X121445710Y-87076500D01*
X120844490Y-87076500D01*
X120803009Y-87072415D01*
X120769031Y-87062107D01*
X120737710Y-87045366D01*
X120710261Y-87022839D01*
X120687734Y-86995390D01*
X120670993Y-86964069D01*
X120660685Y-86930091D01*
X120656600Y-86888610D01*
X120656600Y-86212390D01*
X120660685Y-86170909D01*
X120670993Y-86136931D01*
X120687734Y-86105610D01*
X120710261Y-86078161D01*
X120737710Y-86055634D01*
X120769031Y-86038893D01*
X120803009Y-86028585D01*
X120844490Y-86024500D01*
X121445710Y-86024500D01*
X121487191Y-86028585D01*
G37*
G36*
X123062191Y-86028585D02*
G01*
X123096169Y-86038893D01*
X123127490Y-86055634D01*
X123154939Y-86078161D01*
X123177466Y-86105610D01*
X123194207Y-86136931D01*
X123204515Y-86170909D01*
X123208600Y-86212390D01*
X123208600Y-86888610D01*
X123204515Y-86930091D01*
X123194207Y-86964069D01*
X123177466Y-86995390D01*
X123154939Y-87022839D01*
X123127490Y-87045366D01*
X123096169Y-87062107D01*
X123062191Y-87072415D01*
X123020710Y-87076500D01*
X122419490Y-87076500D01*
X122378009Y-87072415D01*
X122344031Y-87062107D01*
X122312710Y-87045366D01*
X122285261Y-87022839D01*
X122262734Y-86995390D01*
X122245993Y-86964069D01*
X122235685Y-86930091D01*
X122231600Y-86888610D01*
X122231600Y-86212390D01*
X122235685Y-86170909D01*
X122245993Y-86136931D01*
X122262734Y-86105610D01*
X122285261Y-86078161D01*
X122312710Y-86055634D01*
X122344031Y-86038893D01*
X122378009Y-86028585D01*
X122419490Y-86024500D01*
X123020710Y-86024500D01*
X123062191Y-86028585D01*
G37*
G36*
X128875700Y-86895100D02*
G01*
X127435700Y-86895100D01*
X127435700Y-86155100D01*
X128875700Y-86155100D01*
X128875700Y-86895100D01*
G37*
G36*
X150284800Y-85255700D02*
G01*
X149282800Y-85255700D01*
X149282800Y-83153700D01*
X150284800Y-83153700D01*
X150284800Y-85255700D01*
G37*
G36*
X140124800Y-85255700D02*
G01*
X139122800Y-85255700D01*
X139122800Y-83153700D01*
X140124800Y-83153700D01*
X140124800Y-85255700D01*
G37*
G36*
X142664800Y-85255700D02*
G01*
X141662800Y-85255700D01*
X141662800Y-83153700D01*
X142664800Y-83153700D01*
X142664800Y-85255700D01*
G37*
G36*
X138854800Y-85255700D02*
G01*
X137852800Y-85255700D01*
X137852800Y-83153700D01*
X138854800Y-83153700D01*
X138854800Y-85255700D01*
G37*
G36*
X137584800Y-85255700D02*
G01*
X136582800Y-85255700D01*
X136582800Y-83153700D01*
X137584800Y-83153700D01*
X137584800Y-85255700D01*
G37*
G36*
X141394800Y-85255700D02*
G01*
X140392800Y-85255700D01*
X140392800Y-83153700D01*
X141394800Y-83153700D01*
X141394800Y-85255700D01*
G37*
G36*
X152824800Y-85255700D02*
G01*
X151822800Y-85255700D01*
X151822800Y-83153700D01*
X152824800Y-83153700D01*
X152824800Y-85255700D01*
G37*
G36*
X151554800Y-85255700D02*
G01*
X150552800Y-85255700D01*
X150552800Y-83153700D01*
X151554800Y-83153700D01*
X151554800Y-85255700D01*
G37*
G36*
X149014800Y-85255700D02*
G01*
X148012800Y-85255700D01*
X148012800Y-83153700D01*
X149014800Y-83153700D01*
X149014800Y-85255700D01*
G37*
G36*
X147744800Y-85255700D02*
G01*
X146742800Y-85255700D01*
X146742800Y-83153700D01*
X147744800Y-83153700D01*
X147744800Y-85255700D01*
G37*
G36*
X146474800Y-85255700D02*
G01*
X145472800Y-85255700D01*
X145472800Y-83153700D01*
X146474800Y-83153700D01*
X146474800Y-85255700D01*
G37*
G36*
X145204800Y-85255700D02*
G01*
X144202800Y-85255700D01*
X144202800Y-83153700D01*
X145204800Y-83153700D01*
X145204800Y-85255700D01*
G37*
G36*
X143934800Y-85255700D02*
G01*
X142932800Y-85255700D01*
X142932800Y-83153700D01*
X143934800Y-83153700D01*
X143934800Y-85255700D01*
G37*
G36*
X154094800Y-85255700D02*
G01*
X153092800Y-85255700D01*
X153092800Y-83153700D01*
X154094800Y-83153700D01*
X154094800Y-85255700D01*
G37*
G36*
X121614391Y-83247285D02*
G01*
X121648369Y-83257593D01*
X121679690Y-83274334D01*
X121707139Y-83296861D01*
X121729666Y-83324310D01*
X121746407Y-83355631D01*
X121756715Y-83389609D01*
X121760800Y-83431090D01*
X121760800Y-84107310D01*
X121756715Y-84148791D01*
X121746407Y-84182769D01*
X121729666Y-84214090D01*
X121707139Y-84241539D01*
X121679690Y-84264066D01*
X121648369Y-84280807D01*
X121614391Y-84291115D01*
X121572910Y-84295200D01*
X120971690Y-84295200D01*
X120930209Y-84291115D01*
X120896231Y-84280807D01*
X120864910Y-84264066D01*
X120837461Y-84241539D01*
X120814934Y-84214090D01*
X120798193Y-84182769D01*
X120787885Y-84148791D01*
X120783800Y-84107310D01*
X120783800Y-83431090D01*
X120787885Y-83389609D01*
X120798193Y-83355631D01*
X120814934Y-83324310D01*
X120837461Y-83296861D01*
X120864910Y-83274334D01*
X120896231Y-83257593D01*
X120930209Y-83247285D01*
X120971690Y-83243200D01*
X121572910Y-83243200D01*
X121614391Y-83247285D01*
G37*
G36*
X123189391Y-83247285D02*
G01*
X123223369Y-83257593D01*
X123254690Y-83274334D01*
X123282139Y-83296861D01*
X123304666Y-83324310D01*
X123321407Y-83355631D01*
X123331715Y-83389609D01*
X123335800Y-83431090D01*
X123335800Y-84107310D01*
X123331715Y-84148791D01*
X123321407Y-84182769D01*
X123304666Y-84214090D01*
X123282139Y-84241539D01*
X123254690Y-84264066D01*
X123223369Y-84280807D01*
X123189391Y-84291115D01*
X123147910Y-84295200D01*
X122546690Y-84295200D01*
X122505209Y-84291115D01*
X122471231Y-84280807D01*
X122439910Y-84264066D01*
X122412461Y-84241539D01*
X122389934Y-84214090D01*
X122373193Y-84182769D01*
X122362885Y-84148791D01*
X122358800Y-84107310D01*
X122358800Y-83431090D01*
X122362885Y-83389609D01*
X122373193Y-83355631D01*
X122389934Y-83324310D01*
X122412461Y-83296861D01*
X122439910Y-83274334D01*
X122471231Y-83257593D01*
X122505209Y-83247285D01*
X122546690Y-83243200D01*
X123147910Y-83243200D01*
X123189391Y-83247285D01*
G37*
G36*
X128880200Y-84047800D02*
G01*
X127440200Y-84047800D01*
X127440200Y-83307800D01*
X128880200Y-83307800D01*
X128880200Y-84047800D01*
G37*
G36*
X126780200Y-83097800D02*
G01*
X125340200Y-83097800D01*
X125340200Y-82357800D01*
X126780200Y-82357800D01*
X126780200Y-83097800D01*
G37*
G36*
X121614191Y-81139085D02*
G01*
X121648169Y-81149393D01*
X121679490Y-81166134D01*
X121706939Y-81188661D01*
X121729466Y-81216110D01*
X121746207Y-81247431D01*
X121756515Y-81281409D01*
X121760600Y-81322890D01*
X121760600Y-81999110D01*
X121756515Y-82040591D01*
X121746207Y-82074569D01*
X121729466Y-82105890D01*
X121706939Y-82133339D01*
X121679490Y-82155866D01*
X121648169Y-82172607D01*
X121614191Y-82182915D01*
X121572710Y-82187000D01*
X120971490Y-82187000D01*
X120930009Y-82182915D01*
X120896031Y-82172607D01*
X120864710Y-82155866D01*
X120837261Y-82133339D01*
X120814734Y-82105890D01*
X120797993Y-82074569D01*
X120787685Y-82040591D01*
X120783600Y-81999110D01*
X120783600Y-81322890D01*
X120787685Y-81281409D01*
X120797993Y-81247431D01*
X120814734Y-81216110D01*
X120837261Y-81188661D01*
X120864710Y-81166134D01*
X120896031Y-81149393D01*
X120930009Y-81139085D01*
X120971490Y-81135000D01*
X121572710Y-81135000D01*
X121614191Y-81139085D01*
G37*
G36*
X123189191Y-81139085D02*
G01*
X123223169Y-81149393D01*
X123254490Y-81166134D01*
X123281939Y-81188661D01*
X123304466Y-81216110D01*
X123321207Y-81247431D01*
X123331515Y-81281409D01*
X123335600Y-81322890D01*
X123335600Y-81999110D01*
X123331515Y-82040591D01*
X123321207Y-82074569D01*
X123304466Y-82105890D01*
X123281939Y-82133339D01*
X123254490Y-82155866D01*
X123223169Y-82172607D01*
X123189191Y-82182915D01*
X123147710Y-82187000D01*
X122546490Y-82187000D01*
X122505009Y-82182915D01*
X122471031Y-82172607D01*
X122439710Y-82155866D01*
X122412261Y-82133339D01*
X122389734Y-82105890D01*
X122372993Y-82074569D01*
X122362685Y-82040591D01*
X122358600Y-81999110D01*
X122358600Y-81322890D01*
X122362685Y-81281409D01*
X122372993Y-81247431D01*
X122389734Y-81216110D01*
X122412261Y-81188661D01*
X122439710Y-81166134D01*
X122471031Y-81149393D01*
X122505009Y-81139085D01*
X122546490Y-81135000D01*
X123147710Y-81135000D01*
X123189191Y-81139085D01*
G37*
G36*
X128880200Y-82147800D02*
G01*
X127440200Y-82147800D01*
X127440200Y-81407800D01*
X128880200Y-81407800D01*
X128880200Y-82147800D01*
G37*
G36*
X137134800Y-81920700D02*
G01*
X135032800Y-81920700D01*
X135032800Y-80918700D01*
X137134800Y-80918700D01*
X137134800Y-81920700D01*
G37*
G36*
X137134800Y-80650700D02*
G01*
X135032800Y-80650700D01*
X135032800Y-79648700D01*
X137134800Y-79648700D01*
X137134800Y-80650700D01*
G37*
G36*
X137134800Y-79380700D02*
G01*
X135032800Y-79380700D01*
X135032800Y-78378700D01*
X137134800Y-78378700D01*
X137134800Y-79380700D01*
G37*
G36*
X121449291Y-78078385D02*
G01*
X121483269Y-78088693D01*
X121514590Y-78105434D01*
X121542039Y-78127961D01*
X121564566Y-78155410D01*
X121581307Y-78186731D01*
X121591615Y-78220709D01*
X121595700Y-78262190D01*
X121595700Y-78938410D01*
X121591615Y-78979891D01*
X121581307Y-79013869D01*
X121564566Y-79045190D01*
X121542039Y-79072639D01*
X121514590Y-79095166D01*
X121483269Y-79111907D01*
X121449291Y-79122215D01*
X121407810Y-79126300D01*
X120806590Y-79126300D01*
X120765109Y-79122215D01*
X120731131Y-79111907D01*
X120699810Y-79095166D01*
X120672361Y-79072639D01*
X120649834Y-79045190D01*
X120633093Y-79013869D01*
X120622785Y-78979891D01*
X120618700Y-78938410D01*
X120618700Y-78262190D01*
X120622785Y-78220709D01*
X120633093Y-78186731D01*
X120649834Y-78155410D01*
X120672361Y-78127961D01*
X120699810Y-78105434D01*
X120731131Y-78088693D01*
X120765109Y-78078385D01*
X120806590Y-78074300D01*
X121407810Y-78074300D01*
X121449291Y-78078385D01*
G37*
G36*
X123024291Y-78078385D02*
G01*
X123058269Y-78088693D01*
X123089590Y-78105434D01*
X123117039Y-78127961D01*
X123139566Y-78155410D01*
X123156307Y-78186731D01*
X123166615Y-78220709D01*
X123170700Y-78262190D01*
X123170700Y-78938410D01*
X123166615Y-78979891D01*
X123156307Y-79013869D01*
X123139566Y-79045190D01*
X123117039Y-79072639D01*
X123089590Y-79095166D01*
X123058269Y-79111907D01*
X123024291Y-79122215D01*
X122982810Y-79126300D01*
X122381590Y-79126300D01*
X122340109Y-79122215D01*
X122306131Y-79111907D01*
X122274810Y-79095166D01*
X122247361Y-79072639D01*
X122224834Y-79045190D01*
X122208093Y-79013869D01*
X122197785Y-78979891D01*
X122193700Y-78938410D01*
X122193700Y-78262190D01*
X122197785Y-78220709D01*
X122208093Y-78186731D01*
X122224834Y-78155410D01*
X122247361Y-78127961D01*
X122274810Y-78105434D01*
X122306131Y-78088693D01*
X122340109Y-78078385D01*
X122381590Y-78074300D01*
X122982810Y-78074300D01*
X123024291Y-78078385D01*
G37*
G36*
X128799500Y-78729000D02*
G01*
X127359500Y-78729000D01*
X127359500Y-77989000D01*
X128799500Y-77989000D01*
X128799500Y-78729000D01*
G37*
G36*
X137134800Y-78110700D02*
G01*
X135032800Y-78110700D01*
X135032800Y-77108700D01*
X137134800Y-77108700D01*
X137134800Y-78110700D01*
G37*
G36*
X126699500Y-77779000D02*
G01*
X125259500Y-77779000D01*
X125259500Y-77039000D01*
X126699500Y-77039000D01*
X126699500Y-77779000D01*
G37*
G36*
X148644800Y-77255700D02*
G01*
X143542800Y-77255700D01*
X143542800Y-72153700D01*
X148644800Y-72153700D01*
X148644800Y-77255700D01*
G37*
G36*
X121436391Y-75957485D02*
G01*
X121470369Y-75967793D01*
X121501690Y-75984534D01*
X121529139Y-76007061D01*
X121551666Y-76034510D01*
X121568407Y-76065831D01*
X121578715Y-76099809D01*
X121582800Y-76141290D01*
X121582800Y-76817510D01*
X121578715Y-76858991D01*
X121568407Y-76892969D01*
X121551666Y-76924290D01*
X121529139Y-76951739D01*
X121501690Y-76974266D01*
X121470369Y-76991007D01*
X121436391Y-77001315D01*
X121394910Y-77005400D01*
X120793690Y-77005400D01*
X120752209Y-77001315D01*
X120718231Y-76991007D01*
X120686910Y-76974266D01*
X120659461Y-76951739D01*
X120636934Y-76924290D01*
X120620193Y-76892969D01*
X120609885Y-76858991D01*
X120605800Y-76817510D01*
X120605800Y-76141290D01*
X120609885Y-76099809D01*
X120620193Y-76065831D01*
X120636934Y-76034510D01*
X120659461Y-76007061D01*
X120686910Y-75984534D01*
X120718231Y-75967793D01*
X120752209Y-75957485D01*
X120793690Y-75953400D01*
X121394910Y-75953400D01*
X121436391Y-75957485D01*
G37*
G36*
X123011391Y-75957485D02*
G01*
X123045369Y-75967793D01*
X123076690Y-75984534D01*
X123104139Y-76007061D01*
X123126666Y-76034510D01*
X123143407Y-76065831D01*
X123153715Y-76099809D01*
X123157800Y-76141290D01*
X123157800Y-76817510D01*
X123153715Y-76858991D01*
X123143407Y-76892969D01*
X123126666Y-76924290D01*
X123104139Y-76951739D01*
X123076690Y-76974266D01*
X123045369Y-76991007D01*
X123011391Y-77001315D01*
X122969910Y-77005400D01*
X122368690Y-77005400D01*
X122327209Y-77001315D01*
X122293231Y-76991007D01*
X122261910Y-76974266D01*
X122234461Y-76951739D01*
X122211934Y-76924290D01*
X122195193Y-76892969D01*
X122184885Y-76858991D01*
X122180800Y-76817510D01*
X122180800Y-76141290D01*
X122184885Y-76099809D01*
X122195193Y-76065831D01*
X122211934Y-76034510D01*
X122234461Y-76007061D01*
X122261910Y-75984534D01*
X122293231Y-75967793D01*
X122327209Y-75957485D01*
X122368690Y-75953400D01*
X122969910Y-75953400D01*
X123011391Y-75957485D01*
G37*
G36*
X137134800Y-76840700D02*
G01*
X135032800Y-76840700D01*
X135032800Y-75838700D01*
X137134800Y-75838700D01*
X137134800Y-76840700D01*
G37*
G36*
X128799500Y-76829000D02*
G01*
X127359500Y-76829000D01*
X127359500Y-76089000D01*
X128799500Y-76089000D01*
X128799500Y-76829000D01*
G37*
G36*
X137134800Y-75570700D02*
G01*
X135032800Y-75570700D01*
X135032800Y-74568700D01*
X137134800Y-74568700D01*
X137134800Y-75570700D01*
G37*
G36*
X137134800Y-74300700D02*
G01*
X135032800Y-74300700D01*
X135032800Y-73298700D01*
X137134800Y-73298700D01*
X137134800Y-74300700D01*
G37*
G36*
X132610300Y-73425400D02*
G01*
X130508300Y-73425400D01*
X130508300Y-72023400D01*
X132610300Y-72023400D01*
X132610300Y-73425400D01*
G37*
G36*
X125610300Y-73425400D02*
G01*
X123508300Y-73425400D01*
X123508300Y-72023400D01*
X125610300Y-72023400D01*
X125610300Y-73425400D01*
G37*
G36*
X137134800Y-73030700D02*
G01*
X135032800Y-73030700D01*
X135032800Y-72028700D01*
X137134800Y-72028700D01*
X137134800Y-73030700D01*
G37*
G36*
X137134800Y-71760700D02*
G01*
X135032800Y-71760700D01*
X135032800Y-70758700D01*
X137134800Y-70758700D01*
X137134800Y-71760700D01*
G37*
G36*
X137134800Y-70490700D02*
G01*
X135032800Y-70490700D01*
X135032800Y-69488700D01*
X137134800Y-69488700D01*
X137134800Y-70490700D01*
G37*
G36*
X132610300Y-68925400D02*
G01*
X130508300Y-68925400D01*
X130508300Y-67523400D01*
X132610300Y-67523400D01*
X132610300Y-68925400D01*
G37*
G36*
X125610300Y-68925400D02*
G01*
X123508300Y-68925400D01*
X123508300Y-67523400D01*
X125610300Y-67523400D01*
X125610300Y-68925400D01*
G37*
G36*
X152824800Y-68255700D02*
G01*
X151822800Y-68255700D01*
X151822800Y-66153700D01*
X152824800Y-66153700D01*
X152824800Y-68255700D01*
G37*
G36*
X151554800Y-68255700D02*
G01*
X150552800Y-68255700D01*
X150552800Y-66153700D01*
X151554800Y-66153700D01*
X151554800Y-68255700D01*
G37*
G36*
X138854800Y-68255700D02*
G01*
X137852800Y-68255700D01*
X137852800Y-66153700D01*
X138854800Y-66153700D01*
X138854800Y-68255700D01*
G37*
G36*
X150284800Y-68255700D02*
G01*
X149282800Y-68255700D01*
X149282800Y-66153700D01*
X150284800Y-66153700D01*
X150284800Y-68255700D01*
G37*
G36*
X149014800Y-68255700D02*
G01*
X148012800Y-68255700D01*
X148012800Y-66153700D01*
X149014800Y-66153700D01*
X149014800Y-68255700D01*
G37*
G36*
X147744800Y-68255700D02*
G01*
X146742800Y-68255700D01*
X146742800Y-66153700D01*
X147744800Y-66153700D01*
X147744800Y-68255700D01*
G37*
G36*
X146474800Y-68255700D02*
G01*
X145472800Y-68255700D01*
X145472800Y-66153700D01*
X146474800Y-66153700D01*
X146474800Y-68255700D01*
G37*
G36*
X143934800Y-68255700D02*
G01*
X142932800Y-68255700D01*
X142932800Y-66153700D01*
X143934800Y-66153700D01*
X143934800Y-68255700D01*
G37*
G36*
X142664800Y-68255700D02*
G01*
X141662800Y-68255700D01*
X141662800Y-66153700D01*
X142664800Y-66153700D01*
X142664800Y-68255700D01*
G37*
G36*
X141394800Y-68255700D02*
G01*
X140392800Y-68255700D01*
X140392800Y-66153700D01*
X141394800Y-66153700D01*
X141394800Y-68255700D01*
G37*
G36*
X140124800Y-68255700D02*
G01*
X139122800Y-68255700D01*
X139122800Y-66153700D01*
X140124800Y-66153700D01*
X140124800Y-68255700D01*
G37*
G36*
X137584800Y-68255700D02*
G01*
X136582800Y-68255700D01*
X136582800Y-66153700D01*
X137584800Y-66153700D01*
X137584800Y-68255700D01*
G37*
G36*
X154094800Y-68255700D02*
G01*
X153092800Y-68255700D01*
X153092800Y-66153700D01*
X154094800Y-66153700D01*
X154094800Y-68255700D01*
G37*
G36*
X145204800Y-68255700D02*
G01*
X144202800Y-68255700D01*
X144202800Y-66153700D01*
X145204800Y-66153700D01*
X145204800Y-68255700D01*
G37*
G36*
X132587200Y-65564100D02*
G01*
X130485200Y-65564100D01*
X130485200Y-64162100D01*
X132587200Y-64162100D01*
X132587200Y-65564100D01*
G37*
G36*
X125587200Y-65564100D02*
G01*
X123485200Y-65564100D01*
X123485200Y-64162100D01*
X125587200Y-64162100D01*
X125587200Y-65564100D01*
G37*
G36*
X152666091Y-63676585D02*
G01*
X152700069Y-63686893D01*
X152731390Y-63703634D01*
X152758839Y-63726161D01*
X152781366Y-63753610D01*
X152798107Y-63784931D01*
X152808415Y-63818909D01*
X152812500Y-63860390D01*
X152812500Y-64536610D01*
X152808415Y-64578091D01*
X152798107Y-64612069D01*
X152781366Y-64643390D01*
X152758839Y-64670839D01*
X152731390Y-64693366D01*
X152700069Y-64710107D01*
X152666091Y-64720415D01*
X152624610Y-64724500D01*
X152023390Y-64724500D01*
X151981909Y-64720415D01*
X151947931Y-64710107D01*
X151916610Y-64693366D01*
X151889161Y-64670839D01*
X151866634Y-64643390D01*
X151849893Y-64612069D01*
X151839585Y-64578091D01*
X151835500Y-64536610D01*
X151835500Y-63860390D01*
X151839585Y-63818909D01*
X151849893Y-63784931D01*
X151866634Y-63753610D01*
X151889161Y-63726161D01*
X151916610Y-63703634D01*
X151947931Y-63686893D01*
X151981909Y-63676585D01*
X152023390Y-63672500D01*
X152624610Y-63672500D01*
X152666091Y-63676585D01*
G37*
G36*
X151091091Y-63676585D02*
G01*
X151125069Y-63686893D01*
X151156390Y-63703634D01*
X151183839Y-63726161D01*
X151206366Y-63753610D01*
X151223107Y-63784931D01*
X151233415Y-63818909D01*
X151237500Y-63860390D01*
X151237500Y-64536610D01*
X151233415Y-64578091D01*
X151223107Y-64612069D01*
X151206366Y-64643390D01*
X151183839Y-64670839D01*
X151156390Y-64693366D01*
X151125069Y-64710107D01*
X151091091Y-64720415D01*
X151049610Y-64724500D01*
X150448390Y-64724500D01*
X150406909Y-64720415D01*
X150372931Y-64710107D01*
X150341610Y-64693366D01*
X150314161Y-64670839D01*
X150291634Y-64643390D01*
X150274893Y-64612069D01*
X150264585Y-64578091D01*
X150260500Y-64536610D01*
X150260500Y-63860390D01*
X150264585Y-63818909D01*
X150274893Y-63784931D01*
X150291634Y-63753610D01*
X150314161Y-63726161D01*
X150341610Y-63703634D01*
X150372931Y-63686893D01*
X150406909Y-63676585D01*
X150448390Y-63672500D01*
X151049610Y-63672500D01*
X151091091Y-63676585D01*
G37*
G36*
X137286191Y-63282885D02*
G01*
X137320169Y-63293193D01*
X137351490Y-63309934D01*
X137378939Y-63332461D01*
X137401466Y-63359910D01*
X137418207Y-63391231D01*
X137428515Y-63425209D01*
X137432600Y-63466690D01*
X137432600Y-64142910D01*
X137428515Y-64184391D01*
X137418207Y-64218369D01*
X137401466Y-64249690D01*
X137378939Y-64277139D01*
X137351490Y-64299666D01*
X137320169Y-64316407D01*
X137286191Y-64326715D01*
X137244710Y-64330800D01*
X136643490Y-64330800D01*
X136602009Y-64326715D01*
X136568031Y-64316407D01*
X136536710Y-64299666D01*
X136509261Y-64277139D01*
X136486734Y-64249690D01*
X136469993Y-64218369D01*
X136459685Y-64184391D01*
X136455600Y-64142910D01*
X136455600Y-63466690D01*
X136459685Y-63425209D01*
X136469993Y-63391231D01*
X136486734Y-63359910D01*
X136509261Y-63332461D01*
X136536710Y-63309934D01*
X136568031Y-63293193D01*
X136602009Y-63282885D01*
X136643490Y-63278800D01*
X137244710Y-63278800D01*
X137286191Y-63282885D01*
G37*
G36*
X135711191Y-63282885D02*
G01*
X135745169Y-63293193D01*
X135776490Y-63309934D01*
X135803939Y-63332461D01*
X135826466Y-63359910D01*
X135843207Y-63391231D01*
X135853515Y-63425209D01*
X135857600Y-63466690D01*
X135857600Y-64142910D01*
X135853515Y-64184391D01*
X135843207Y-64218369D01*
X135826466Y-64249690D01*
X135803939Y-64277139D01*
X135776490Y-64299666D01*
X135745169Y-64316407D01*
X135711191Y-64326715D01*
X135669710Y-64330800D01*
X135068490Y-64330800D01*
X135027009Y-64326715D01*
X134993031Y-64316407D01*
X134961710Y-64299666D01*
X134934261Y-64277139D01*
X134911734Y-64249690D01*
X134894993Y-64218369D01*
X134884685Y-64184391D01*
X134880600Y-64142910D01*
X134880600Y-63466690D01*
X134884685Y-63425209D01*
X134894993Y-63391231D01*
X134911734Y-63359910D01*
X134934261Y-63332461D01*
X134961710Y-63309934D01*
X134993031Y-63293193D01*
X135027009Y-63282885D01*
X135068490Y-63278800D01*
X135669710Y-63278800D01*
X135711191Y-63282885D01*
G37*
G36*
X151091091Y-61771585D02*
G01*
X151125069Y-61781893D01*
X151156390Y-61798634D01*
X151183839Y-61821161D01*
X151206366Y-61848610D01*
X151223107Y-61879931D01*
X151233415Y-61913909D01*
X151237500Y-61955390D01*
X151237500Y-62631610D01*
X151233415Y-62673091D01*
X151223107Y-62707069D01*
X151206366Y-62738390D01*
X151183839Y-62765839D01*
X151156390Y-62788366D01*
X151125069Y-62805107D01*
X151091091Y-62815415D01*
X151049610Y-62819500D01*
X150448390Y-62819500D01*
X150406909Y-62815415D01*
X150372931Y-62805107D01*
X150341610Y-62788366D01*
X150314161Y-62765839D01*
X150291634Y-62738390D01*
X150274893Y-62707069D01*
X150264585Y-62673091D01*
X150260500Y-62631610D01*
X150260500Y-61955390D01*
X150264585Y-61913909D01*
X150274893Y-61879931D01*
X150291634Y-61848610D01*
X150314161Y-61821161D01*
X150341610Y-61798634D01*
X150372931Y-61781893D01*
X150406909Y-61771585D01*
X150448390Y-61767500D01*
X151049610Y-61767500D01*
X151091091Y-61771585D01*
G37*
G36*
X152666091Y-61771585D02*
G01*
X152700069Y-61781893D01*
X152731390Y-61798634D01*
X152758839Y-61821161D01*
X152781366Y-61848610D01*
X152798107Y-61879931D01*
X152808415Y-61913909D01*
X152812500Y-61955390D01*
X152812500Y-62631610D01*
X152808415Y-62673091D01*
X152798107Y-62707069D01*
X152781366Y-62738390D01*
X152758839Y-62765839D01*
X152731390Y-62788366D01*
X152700069Y-62805107D01*
X152666091Y-62815415D01*
X152624610Y-62819500D01*
X152023390Y-62819500D01*
X151981909Y-62815415D01*
X151947931Y-62805107D01*
X151916610Y-62788366D01*
X151889161Y-62765839D01*
X151866634Y-62738390D01*
X151849893Y-62707069D01*
X151839585Y-62673091D01*
X151835500Y-62631610D01*
X151835500Y-61955390D01*
X151839585Y-61913909D01*
X151849893Y-61879931D01*
X151866634Y-61848610D01*
X151889161Y-61821161D01*
X151916610Y-61798634D01*
X151947931Y-61781893D01*
X151981909Y-61771585D01*
X152023390Y-61767500D01*
X152624610Y-61767500D01*
X152666091Y-61771585D01*
G37*
G36*
X137273491Y-60819085D02*
G01*
X137307469Y-60829393D01*
X137338790Y-60846134D01*
X137366239Y-60868661D01*
X137388766Y-60896110D01*
X137405507Y-60927431D01*
X137415815Y-60961409D01*
X137419900Y-61002890D01*
X137419900Y-61679110D01*
X137415815Y-61720591D01*
X137405507Y-61754569D01*
X137388766Y-61785890D01*
X137366239Y-61813339D01*
X137338790Y-61835866D01*
X137307469Y-61852607D01*
X137273491Y-61862915D01*
X137232010Y-61867000D01*
X136630790Y-61867000D01*
X136589309Y-61862915D01*
X136555331Y-61852607D01*
X136524010Y-61835866D01*
X136496561Y-61813339D01*
X136474034Y-61785890D01*
X136457293Y-61754569D01*
X136446985Y-61720591D01*
X136442900Y-61679110D01*
X136442900Y-61002890D01*
X136446985Y-60961409D01*
X136457293Y-60927431D01*
X136474034Y-60896110D01*
X136496561Y-60868661D01*
X136524010Y-60846134D01*
X136555331Y-60829393D01*
X136589309Y-60819085D01*
X136630790Y-60815000D01*
X137232010Y-60815000D01*
X137273491Y-60819085D01*
G37*
G36*
X135698491Y-60819085D02*
G01*
X135732469Y-60829393D01*
X135763790Y-60846134D01*
X135791239Y-60868661D01*
X135813766Y-60896110D01*
X135830507Y-60927431D01*
X135840815Y-60961409D01*
X135844900Y-61002890D01*
X135844900Y-61679110D01*
X135840815Y-61720591D01*
X135830507Y-61754569D01*
X135813766Y-61785890D01*
X135791239Y-61813339D01*
X135763790Y-61835866D01*
X135732469Y-61852607D01*
X135698491Y-61862915D01*
X135657010Y-61867000D01*
X135055790Y-61867000D01*
X135014309Y-61862915D01*
X134980331Y-61852607D01*
X134949010Y-61835866D01*
X134921561Y-61813339D01*
X134899034Y-61785890D01*
X134882293Y-61754569D01*
X134871985Y-61720591D01*
X134867900Y-61679110D01*
X134867900Y-61002890D01*
X134871985Y-60961409D01*
X134882293Y-60927431D01*
X134899034Y-60896110D01*
X134921561Y-60868661D01*
X134949010Y-60846134D01*
X134980331Y-60829393D01*
X135014309Y-60819085D01*
X135055790Y-60815000D01*
X135657010Y-60815000D01*
X135698491Y-60819085D01*
G37*
G36*
X132587200Y-61064100D02*
G01*
X130485200Y-61064100D01*
X130485200Y-59662100D01*
X132587200Y-59662100D01*
X132587200Y-61064100D01*
G37*
G36*
X125587200Y-61064100D02*
G01*
X123485200Y-61064100D01*
X123485200Y-59662100D01*
X125587200Y-59662100D01*
X125587200Y-61064100D01*
G37*
G36*
X152653391Y-59764985D02*
G01*
X152687369Y-59775293D01*
X152718690Y-59792034D01*
X152746139Y-59814561D01*
X152768666Y-59842010D01*
X152785407Y-59873331D01*
X152795715Y-59907309D01*
X152799800Y-59948790D01*
X152799800Y-60625010D01*
X152795715Y-60666491D01*
X152785407Y-60700469D01*
X152768666Y-60731790D01*
X152746139Y-60759239D01*
X152718690Y-60781766D01*
X152687369Y-60798507D01*
X152653391Y-60808815D01*
X152611910Y-60812900D01*
X152010690Y-60812900D01*
X151969209Y-60808815D01*
X151935231Y-60798507D01*
X151903910Y-60781766D01*
X151876461Y-60759239D01*
X151853934Y-60731790D01*
X151837193Y-60700469D01*
X151826885Y-60666491D01*
X151822800Y-60625010D01*
X151822800Y-59948790D01*
X151826885Y-59907309D01*
X151837193Y-59873331D01*
X151853934Y-59842010D01*
X151876461Y-59814561D01*
X151903910Y-59792034D01*
X151935231Y-59775293D01*
X151969209Y-59764985D01*
X152010690Y-59760900D01*
X152611910Y-59760900D01*
X152653391Y-59764985D01*
G37*
G36*
X151078391Y-59764985D02*
G01*
X151112369Y-59775293D01*
X151143690Y-59792034D01*
X151171139Y-59814561D01*
X151193666Y-59842010D01*
X151210407Y-59873331D01*
X151220715Y-59907309D01*
X151224800Y-59948790D01*
X151224800Y-60625010D01*
X151220715Y-60666491D01*
X151210407Y-60700469D01*
X151193666Y-60731790D01*
X151171139Y-60759239D01*
X151143690Y-60781766D01*
X151112369Y-60798507D01*
X151078391Y-60808815D01*
X151036910Y-60812900D01*
X150435690Y-60812900D01*
X150394209Y-60808815D01*
X150360231Y-60798507D01*
X150328910Y-60781766D01*
X150301461Y-60759239D01*
X150278934Y-60731790D01*
X150262193Y-60700469D01*
X150251885Y-60666491D01*
X150247800Y-60625010D01*
X150247800Y-59948790D01*
X150251885Y-59907309D01*
X150262193Y-59873331D01*
X150278934Y-59842010D01*
X150301461Y-59814561D01*
X150328910Y-59792034D01*
X150360231Y-59775293D01*
X150394209Y-59764985D01*
X150435690Y-59760900D01*
X151036910Y-59760900D01*
X151078391Y-59764985D01*
G37*
M02*
