M48
; DRILL file {KiCad (5.1.5)-3} date 12/12/2019 5:13:08 PM
; FORMAT={-:-/ absolute / inch / decimal}
; #@! TF.CreationDate,2019-12-12T17:13:08-08:00
; #@! TF.GenerationSoftware,Kicad,Pcbnew,(5.1.5)-3
; #@! TF.FileFunction,Plated,1,2,PTH
FMAT,2
INCH
T1C0.0130
T2C0.0200
T3C0.0350
T4C0.0394
T5C0.0402
T6C0.0618
T7C0.1280
%
G90
G05
T1
X4.6985Y-3.7825
X4.745Y-3.819
X4.803Y-3.8545
X4.8195Y-4.6645
X4.8542Y-4.4614
X5.0031Y-4.6324
X5.023Y-4.025
X5.099Y-3.085
X5.1135Y-3.4805
X5.1175Y-3.295
X5.154Y-5.197
X5.1735Y-3.9785
X5.187Y-4.3545
X5.208Y-4.9065
X5.233Y-3.739
X5.2445Y-2.7685
X5.3365Y-4.07
X5.382Y-4.2298
X5.3936Y-4.2738
X5.4265Y-3.9745
X5.4266Y-4.3454
X5.43Y-4.1162
X5.447Y-2.8585
X5.464Y-3.4972
X5.4806Y-3.5374
X5.4815Y-3.9745
X5.482Y-4.0832
X5.497Y-2.7125
X5.497Y-4.222
X5.499Y-4.3972
X5.505Y-2.859
X5.5186Y-3.4686
X5.5384Y-4.1902
X5.5435Y-3.974
X5.547Y-2.5865
X5.566Y-2.8585
X5.5672Y-3.5392
X5.5722Y-4.1222
X5.5722Y-4.7244
X5.5755Y-2.464
X5.598Y-2.7205
X5.608Y-4.176
X5.608Y-4.176
X5.647Y-3.249
X5.656Y-4.291
X5.6602Y-4.0986
X5.681Y-2.9415
X5.682Y-2.8705
X5.683Y-3.0155
X5.698Y-3.4972
X5.725Y-5.4215
X5.737Y-4.9
X5.747Y-2.9765
X5.7485Y-5.0015
X5.75Y-2.9015
X5.792Y-4.202
X5.795Y-4.4555
X5.798Y-3.931
X5.802Y-4.674
X5.8135Y-3.124
X5.814Y-2.9405
X5.815Y-2.8715
X5.816Y-3.0125
X5.822Y-2.3265
X5.844Y-4.018
X5.8455Y-4.7795
X5.886Y-3.1655
X5.893Y-4.322
X5.914Y-3.654
X5.921Y-3.5825
X5.929Y-4.1825
X5.9805Y-3.6605
X6.044Y-3.6615
X6.0565Y-2.533
X6.102Y-4.2925
T2
X4.9325Y-3.6885
X5.9478Y-2.2595
T3
X5.6Y-4.95
X5.65Y-4.85
X5.7Y-4.95
X5.75Y-4.85
X5.8Y-4.95
X5.85Y-4.85
X5.9Y-4.95
X5.95Y-4.85
T4
X4.803Y-3.946
X4.803Y-4.046
X4.803Y-4.146
X4.803Y-4.246
X4.803Y-4.346
X4.903Y-3.946
X4.903Y-4.046
X4.903Y-4.146
X4.903Y-4.246
X4.903Y-4.346
T5
X5.526Y-5.3929
X5.6224Y-5.3331
X5.9276Y-5.3929
X6.024Y-5.3331
T6
X5.465Y-5.0799
X6.085Y-5.0799
T7
X5.55Y-5.2
X6.0Y-5.2
T0
M30
