G04 #@! TF.GenerationSoftware,KiCad,Pcbnew,(5.1.5)-3*
G04 #@! TF.CreationDate,2019-12-12T17:13:38-08:00*
G04 #@! TF.ProjectId,EsperDNS,45737065-7244-44e5-932e-6b696361645f,rev?*
G04 #@! TF.SameCoordinates,Original*
G04 #@! TF.FileFunction,Soldermask,Bot*
G04 #@! TF.FilePolarity,Negative*
%FSLAX46Y46*%
G04 Gerber Fmt 4.6, Leading zero omitted, Abs format (unit mm)*
G04 Created by KiCad (PCBNEW (5.1.5)-3) date 2019-12-12 17:13:38*
%MOMM*%
%LPD*%
G04 APERTURE LIST*
%ADD10C,0.100000*%
G04 APERTURE END LIST*
D10*
G36*
X150798017Y-136195358D02*
G01*
X150872270Y-136226115D01*
X150946521Y-136256870D01*
X150946522Y-136256871D01*
X151080167Y-136346169D01*
X151193831Y-136459833D01*
X151260804Y-136560067D01*
X151283130Y-136593479D01*
X151313885Y-136667730D01*
X151344642Y-136741983D01*
X151376000Y-136899630D01*
X151376000Y-137060370D01*
X151344642Y-137218017D01*
X151313885Y-137292270D01*
X151283130Y-137366521D01*
X151283129Y-137366522D01*
X151193831Y-137500167D01*
X151080167Y-137613831D01*
X150979933Y-137680805D01*
X150946521Y-137703130D01*
X150872270Y-137733885D01*
X150798017Y-137764642D01*
X150640370Y-137796000D01*
X150479630Y-137796000D01*
X150321983Y-137764642D01*
X150247730Y-137733885D01*
X150173479Y-137703130D01*
X150140067Y-137680805D01*
X150039833Y-137613831D01*
X149926169Y-137500167D01*
X149836871Y-137366522D01*
X149836870Y-137366521D01*
X149806115Y-137292270D01*
X149775358Y-137218017D01*
X149744000Y-137060370D01*
X149744000Y-136899630D01*
X149775358Y-136741983D01*
X149806115Y-136667730D01*
X149836870Y-136593479D01*
X149859195Y-136560067D01*
X149926169Y-136459833D01*
X150039833Y-136346169D01*
X150173478Y-136256871D01*
X150173479Y-136256870D01*
X150247730Y-136226115D01*
X150321983Y-136195358D01*
X150479630Y-136164000D01*
X150640370Y-136164000D01*
X150798017Y-136195358D01*
G37*
G36*
X140598017Y-136195358D02*
G01*
X140672270Y-136226115D01*
X140746521Y-136256870D01*
X140746522Y-136256871D01*
X140880167Y-136346169D01*
X140993831Y-136459833D01*
X141060804Y-136560067D01*
X141083130Y-136593479D01*
X141113885Y-136667730D01*
X141144642Y-136741983D01*
X141176000Y-136899630D01*
X141176000Y-137060370D01*
X141144642Y-137218017D01*
X141113885Y-137292270D01*
X141083130Y-137366521D01*
X141083129Y-137366522D01*
X140993831Y-137500167D01*
X140880167Y-137613831D01*
X140779933Y-137680805D01*
X140746521Y-137703130D01*
X140672270Y-137733885D01*
X140598017Y-137764642D01*
X140440370Y-137796000D01*
X140279630Y-137796000D01*
X140121983Y-137764642D01*
X140047730Y-137733885D01*
X139973479Y-137703130D01*
X139940067Y-137680805D01*
X139839833Y-137613831D01*
X139726169Y-137500167D01*
X139636871Y-137366522D01*
X139636870Y-137366521D01*
X139606115Y-137292270D01*
X139575358Y-137218017D01*
X139544000Y-137060370D01*
X139544000Y-136899630D01*
X139575358Y-136741983D01*
X139606115Y-136667730D01*
X139636870Y-136593479D01*
X139659195Y-136560067D01*
X139726169Y-136459833D01*
X139839833Y-136346169D01*
X139973478Y-136256871D01*
X139973479Y-136256870D01*
X140047730Y-136226115D01*
X140121983Y-136195358D01*
X140279630Y-136164000D01*
X140440370Y-136164000D01*
X140598017Y-136195358D01*
G37*
G36*
X143048017Y-134675358D02*
G01*
X143196521Y-134736870D01*
X143196522Y-134736871D01*
X143330167Y-134826169D01*
X143443831Y-134939833D01*
X143510804Y-135040067D01*
X143533130Y-135073479D01*
X143594642Y-135221983D01*
X143626000Y-135379630D01*
X143626000Y-135540370D01*
X143594642Y-135698017D01*
X143533130Y-135846521D01*
X143533129Y-135846522D01*
X143443831Y-135980167D01*
X143330167Y-136093831D01*
X143229933Y-136160804D01*
X143196521Y-136183130D01*
X143122270Y-136213885D01*
X143048017Y-136244642D01*
X142890370Y-136276000D01*
X142729630Y-136276000D01*
X142571983Y-136244642D01*
X142497730Y-136213885D01*
X142423479Y-136183130D01*
X142390067Y-136160805D01*
X142289833Y-136093831D01*
X142176169Y-135980167D01*
X142086871Y-135846522D01*
X142086870Y-135846521D01*
X142025358Y-135698017D01*
X141994000Y-135540370D01*
X141994000Y-135379630D01*
X142025358Y-135221983D01*
X142086870Y-135073479D01*
X142109195Y-135040067D01*
X142176169Y-134939833D01*
X142289833Y-134826169D01*
X142423478Y-134736871D01*
X142423479Y-134736870D01*
X142571983Y-134675358D01*
X142729630Y-134644000D01*
X142890370Y-134644000D01*
X143048017Y-134675358D01*
G37*
G36*
X153248017Y-134675358D02*
G01*
X153396521Y-134736870D01*
X153396522Y-134736871D01*
X153530167Y-134826169D01*
X153643831Y-134939833D01*
X153710804Y-135040067D01*
X153733130Y-135073479D01*
X153794642Y-135221983D01*
X153826000Y-135379630D01*
X153826000Y-135540370D01*
X153794642Y-135698017D01*
X153733130Y-135846521D01*
X153733129Y-135846522D01*
X153643831Y-135980167D01*
X153530167Y-136093831D01*
X153429933Y-136160804D01*
X153396521Y-136183130D01*
X153322270Y-136213885D01*
X153248017Y-136244642D01*
X153090370Y-136276000D01*
X152929630Y-136276000D01*
X152771983Y-136244642D01*
X152697730Y-136213885D01*
X152623479Y-136183130D01*
X152590067Y-136160805D01*
X152489833Y-136093831D01*
X152376169Y-135980167D01*
X152286871Y-135846522D01*
X152286870Y-135846521D01*
X152225358Y-135698017D01*
X152194000Y-135540370D01*
X152194000Y-135379630D01*
X152225358Y-135221983D01*
X152286870Y-135073479D01*
X152309195Y-135040067D01*
X152376169Y-134939833D01*
X152489833Y-134826169D01*
X152623478Y-134736871D01*
X152623479Y-134736870D01*
X152771983Y-134675358D01*
X152929630Y-134644000D01*
X153090370Y-134644000D01*
X153248017Y-134675358D01*
G37*
G36*
X152896401Y-129951953D02*
G01*
X153037049Y-129979930D01*
X153318097Y-130096344D01*
X153372028Y-130118683D01*
X153434512Y-130144565D01*
X153792219Y-130383577D01*
X154096423Y-130687781D01*
X154335435Y-131045488D01*
X154500070Y-131442951D01*
X154584000Y-131864895D01*
X154584000Y-132295105D01*
X154500070Y-132717049D01*
X154335435Y-133114512D01*
X154096423Y-133472219D01*
X153792219Y-133776423D01*
X153434512Y-134015435D01*
X153037049Y-134180070D01*
X152896401Y-134208047D01*
X152615107Y-134264000D01*
X152184893Y-134264000D01*
X151903599Y-134208047D01*
X151762951Y-134180070D01*
X151365488Y-134015435D01*
X151007781Y-133776423D01*
X150703577Y-133472219D01*
X150464565Y-133114512D01*
X150299930Y-132717049D01*
X150216000Y-132295105D01*
X150216000Y-131864895D01*
X150299930Y-131442951D01*
X150464565Y-131045488D01*
X150703577Y-130687781D01*
X151007781Y-130383577D01*
X151365488Y-130144565D01*
X151427973Y-130118683D01*
X151481903Y-130096344D01*
X151762951Y-129979930D01*
X151903599Y-129951953D01*
X152184893Y-129896000D01*
X152615107Y-129896000D01*
X152896401Y-129951953D01*
G37*
G36*
X141466401Y-129951953D02*
G01*
X141607049Y-129979930D01*
X141888097Y-130096344D01*
X141942028Y-130118683D01*
X142004512Y-130144565D01*
X142362219Y-130383577D01*
X142666423Y-130687781D01*
X142905435Y-131045488D01*
X143070070Y-131442951D01*
X143154000Y-131864895D01*
X143154000Y-132295105D01*
X143070070Y-132717049D01*
X142905435Y-133114512D01*
X142666423Y-133472219D01*
X142362219Y-133776423D01*
X142004512Y-134015435D01*
X141607049Y-134180070D01*
X141466401Y-134208047D01*
X141185107Y-134264000D01*
X140754893Y-134264000D01*
X140473599Y-134208047D01*
X140332951Y-134180070D01*
X139935488Y-134015435D01*
X139577781Y-133776423D01*
X139273577Y-133472219D01*
X139034565Y-133114512D01*
X138869930Y-132717049D01*
X138786000Y-132295105D01*
X138786000Y-131864895D01*
X138869930Y-131442951D01*
X139034565Y-131045488D01*
X139273577Y-130687781D01*
X139577781Y-130383577D01*
X139935488Y-130144565D01*
X139997973Y-130118683D01*
X140051903Y-130096344D01*
X140332951Y-129979930D01*
X140473599Y-129951953D01*
X140754893Y-129896000D01*
X141185107Y-129896000D01*
X141466401Y-129951953D01*
G37*
G36*
X154918339Y-127848710D02*
G01*
X155141911Y-127941317D01*
X155141913Y-127941318D01*
X155343123Y-128075762D01*
X155514238Y-128246877D01*
X155648682Y-128448087D01*
X155648683Y-128448089D01*
X155741290Y-128671661D01*
X155788500Y-128909002D01*
X155788500Y-129150998D01*
X155741290Y-129388339D01*
X155648683Y-129611911D01*
X155648682Y-129611913D01*
X155514238Y-129813123D01*
X155343123Y-129984238D01*
X155141913Y-130118682D01*
X155141912Y-130118683D01*
X155141911Y-130118683D01*
X154918339Y-130211290D01*
X154680998Y-130258500D01*
X154439002Y-130258500D01*
X154201661Y-130211290D01*
X153978089Y-130118683D01*
X153978088Y-130118683D01*
X153978087Y-130118682D01*
X153776877Y-129984238D01*
X153605762Y-129813123D01*
X153471318Y-129611913D01*
X153471317Y-129611911D01*
X153378710Y-129388339D01*
X153331500Y-129150998D01*
X153331500Y-128909002D01*
X153378710Y-128671661D01*
X153471317Y-128448089D01*
X153471318Y-128448087D01*
X153605762Y-128246877D01*
X153776877Y-128075762D01*
X153978087Y-127941318D01*
X153978089Y-127941317D01*
X154201661Y-127848710D01*
X154439002Y-127801500D01*
X154680998Y-127801500D01*
X154918339Y-127848710D01*
G37*
G36*
X139168339Y-127848710D02*
G01*
X139391911Y-127941317D01*
X139391913Y-127941318D01*
X139593123Y-128075762D01*
X139764238Y-128246877D01*
X139898682Y-128448087D01*
X139898683Y-128448089D01*
X139991290Y-128671661D01*
X140038500Y-128909002D01*
X140038500Y-129150998D01*
X139991290Y-129388339D01*
X139898683Y-129611911D01*
X139898682Y-129611913D01*
X139764238Y-129813123D01*
X139593123Y-129984238D01*
X139391913Y-130118682D01*
X139391912Y-130118683D01*
X139391911Y-130118683D01*
X139168339Y-130211290D01*
X138930998Y-130258500D01*
X138689002Y-130258500D01*
X138451661Y-130211290D01*
X138228089Y-130118683D01*
X138228088Y-130118683D01*
X138228087Y-130118682D01*
X138026877Y-129984238D01*
X137855762Y-129813123D01*
X137721318Y-129611913D01*
X137721317Y-129611911D01*
X137628710Y-129388339D01*
X137581500Y-129150998D01*
X137581500Y-128909002D01*
X137628710Y-128671661D01*
X137721317Y-128448089D01*
X137721318Y-128448087D01*
X137855762Y-128246877D01*
X138026877Y-128075762D01*
X138228087Y-127941318D01*
X138228089Y-127941317D01*
X138451661Y-127848710D01*
X138689002Y-127801500D01*
X138930998Y-127801500D01*
X139168339Y-127848710D01*
G37*
G36*
X144998766Y-125008821D02*
G01*
X145135257Y-125065358D01*
X145258097Y-125147437D01*
X145362563Y-125251903D01*
X145444642Y-125374743D01*
X145501179Y-125511234D01*
X145530000Y-125656130D01*
X145530000Y-125803870D01*
X145501179Y-125948766D01*
X145444642Y-126085257D01*
X145362563Y-126208097D01*
X145258097Y-126312563D01*
X145135257Y-126394642D01*
X144998766Y-126451179D01*
X144853870Y-126480000D01*
X144706130Y-126480000D01*
X144561234Y-126451179D01*
X144424743Y-126394642D01*
X144301903Y-126312563D01*
X144197437Y-126208097D01*
X144115358Y-126085257D01*
X144058821Y-125948766D01*
X144030000Y-125803870D01*
X144030000Y-125656130D01*
X144058821Y-125511234D01*
X144115358Y-125374743D01*
X144197437Y-125251903D01*
X144301903Y-125147437D01*
X144424743Y-125065358D01*
X144561234Y-125008821D01*
X144706130Y-124980000D01*
X144853870Y-124980000D01*
X144998766Y-125008821D01*
G37*
G36*
X147538766Y-125008821D02*
G01*
X147675257Y-125065358D01*
X147798097Y-125147437D01*
X147902563Y-125251903D01*
X147984642Y-125374743D01*
X148041179Y-125511234D01*
X148070000Y-125656130D01*
X148070000Y-125803870D01*
X148041179Y-125948766D01*
X147984642Y-126085257D01*
X147902563Y-126208097D01*
X147798097Y-126312563D01*
X147675257Y-126394642D01*
X147538766Y-126451179D01*
X147393870Y-126480000D01*
X147246130Y-126480000D01*
X147101234Y-126451179D01*
X146964743Y-126394642D01*
X146841903Y-126312563D01*
X146737437Y-126208097D01*
X146655358Y-126085257D01*
X146598821Y-125948766D01*
X146570000Y-125803870D01*
X146570000Y-125656130D01*
X146598821Y-125511234D01*
X146655358Y-125374743D01*
X146737437Y-125251903D01*
X146841903Y-125147437D01*
X146964743Y-125065358D01*
X147101234Y-125008821D01*
X147246130Y-124980000D01*
X147393870Y-124980000D01*
X147538766Y-125008821D01*
G37*
G36*
X142458766Y-125008821D02*
G01*
X142595257Y-125065358D01*
X142718097Y-125147437D01*
X142822563Y-125251903D01*
X142904642Y-125374743D01*
X142961179Y-125511234D01*
X142990000Y-125656130D01*
X142990000Y-125803870D01*
X142961179Y-125948766D01*
X142904642Y-126085257D01*
X142822563Y-126208097D01*
X142718097Y-126312563D01*
X142595257Y-126394642D01*
X142458766Y-126451179D01*
X142313870Y-126480000D01*
X142166130Y-126480000D01*
X142021234Y-126451179D01*
X141884743Y-126394642D01*
X141761903Y-126312563D01*
X141657437Y-126208097D01*
X141575358Y-126085257D01*
X141518821Y-125948766D01*
X141490000Y-125803870D01*
X141490000Y-125656130D01*
X141518821Y-125511234D01*
X141575358Y-125374743D01*
X141657437Y-125251903D01*
X141761903Y-125147437D01*
X141884743Y-125065358D01*
X142021234Y-125008821D01*
X142166130Y-124980000D01*
X142313870Y-124980000D01*
X142458766Y-125008821D01*
G37*
G36*
X150078766Y-125008821D02*
G01*
X150215257Y-125065358D01*
X150338097Y-125147437D01*
X150442563Y-125251903D01*
X150524642Y-125374743D01*
X150581179Y-125511234D01*
X150610000Y-125656130D01*
X150610000Y-125803870D01*
X150581179Y-125948766D01*
X150524642Y-126085257D01*
X150442563Y-126208097D01*
X150338097Y-126312563D01*
X150215257Y-126394642D01*
X150078766Y-126451179D01*
X149933870Y-126480000D01*
X149786130Y-126480000D01*
X149641234Y-126451179D01*
X149504743Y-126394642D01*
X149381903Y-126312563D01*
X149277437Y-126208097D01*
X149195358Y-126085257D01*
X149138821Y-125948766D01*
X149110000Y-125803870D01*
X149110000Y-125656130D01*
X149138821Y-125511234D01*
X149195358Y-125374743D01*
X149277437Y-125251903D01*
X149381903Y-125147437D01*
X149504743Y-125065358D01*
X149641234Y-125008821D01*
X149786130Y-124980000D01*
X149933870Y-124980000D01*
X150078766Y-125008821D01*
G37*
G36*
X143728766Y-122468821D02*
G01*
X143865257Y-122525358D01*
X143988097Y-122607437D01*
X144092563Y-122711903D01*
X144174642Y-122834743D01*
X144231179Y-122971234D01*
X144260000Y-123116130D01*
X144260000Y-123263870D01*
X144231179Y-123408766D01*
X144174642Y-123545257D01*
X144092563Y-123668097D01*
X143988097Y-123772563D01*
X143865257Y-123854642D01*
X143728766Y-123911179D01*
X143583870Y-123940000D01*
X143436130Y-123940000D01*
X143291234Y-123911179D01*
X143154743Y-123854642D01*
X143031903Y-123772563D01*
X142927437Y-123668097D01*
X142845358Y-123545257D01*
X142788821Y-123408766D01*
X142760000Y-123263870D01*
X142760000Y-123116130D01*
X142788821Y-122971234D01*
X142845358Y-122834743D01*
X142927437Y-122711903D01*
X143031903Y-122607437D01*
X143154743Y-122525358D01*
X143291234Y-122468821D01*
X143436130Y-122440000D01*
X143583870Y-122440000D01*
X143728766Y-122468821D01*
G37*
G36*
X146268766Y-122468821D02*
G01*
X146405257Y-122525358D01*
X146528097Y-122607437D01*
X146632563Y-122711903D01*
X146714642Y-122834743D01*
X146771179Y-122971234D01*
X146800000Y-123116130D01*
X146800000Y-123263870D01*
X146771179Y-123408766D01*
X146714642Y-123545257D01*
X146632563Y-123668097D01*
X146528097Y-123772563D01*
X146405257Y-123854642D01*
X146268766Y-123911179D01*
X146123870Y-123940000D01*
X145976130Y-123940000D01*
X145831234Y-123911179D01*
X145694743Y-123854642D01*
X145571903Y-123772563D01*
X145467437Y-123668097D01*
X145385358Y-123545257D01*
X145328821Y-123408766D01*
X145300000Y-123263870D01*
X145300000Y-123116130D01*
X145328821Y-122971234D01*
X145385358Y-122834743D01*
X145467437Y-122711903D01*
X145571903Y-122607437D01*
X145694743Y-122525358D01*
X145831234Y-122468821D01*
X145976130Y-122440000D01*
X146123870Y-122440000D01*
X146268766Y-122468821D01*
G37*
G36*
X148808766Y-122468821D02*
G01*
X148945257Y-122525358D01*
X149068097Y-122607437D01*
X149172563Y-122711903D01*
X149254642Y-122834743D01*
X149311179Y-122971234D01*
X149340000Y-123116130D01*
X149340000Y-123263870D01*
X149311179Y-123408766D01*
X149254642Y-123545257D01*
X149172563Y-123668097D01*
X149068097Y-123772563D01*
X148945257Y-123854642D01*
X148808766Y-123911179D01*
X148663870Y-123940000D01*
X148516130Y-123940000D01*
X148371234Y-123911179D01*
X148234743Y-123854642D01*
X148111903Y-123772563D01*
X148007437Y-123668097D01*
X147925358Y-123545257D01*
X147868821Y-123408766D01*
X147840000Y-123263870D01*
X147840000Y-123116130D01*
X147868821Y-122971234D01*
X147925358Y-122834743D01*
X148007437Y-122711903D01*
X148111903Y-122607437D01*
X148234743Y-122525358D01*
X148371234Y-122468821D01*
X148516130Y-122440000D01*
X148663870Y-122440000D01*
X148808766Y-122468821D01*
G37*
G36*
X151348766Y-122468821D02*
G01*
X151485257Y-122525358D01*
X151608097Y-122607437D01*
X151712563Y-122711903D01*
X151794642Y-122834743D01*
X151851179Y-122971234D01*
X151880000Y-123116130D01*
X151880000Y-123263870D01*
X151851179Y-123408766D01*
X151794642Y-123545257D01*
X151712563Y-123668097D01*
X151608097Y-123772563D01*
X151485257Y-123854642D01*
X151348766Y-123911179D01*
X151203870Y-123940000D01*
X151056130Y-123940000D01*
X150911234Y-123911179D01*
X150774743Y-123854642D01*
X150651903Y-123772563D01*
X150547437Y-123668097D01*
X150465358Y-123545257D01*
X150408821Y-123408766D01*
X150380000Y-123263870D01*
X150380000Y-123116130D01*
X150408821Y-122971234D01*
X150465358Y-122834743D01*
X150547437Y-122711903D01*
X150651903Y-122607437D01*
X150774743Y-122525358D01*
X150911234Y-122468821D01*
X151056130Y-122440000D01*
X151203870Y-122440000D01*
X151348766Y-122468821D01*
G37*
G36*
X124649712Y-109492327D02*
G01*
X124799012Y-109522024D01*
X124962984Y-109589944D01*
X125110554Y-109688547D01*
X125236053Y-109814046D01*
X125334656Y-109961616D01*
X125402576Y-110125588D01*
X125437200Y-110299659D01*
X125437200Y-110477141D01*
X125402576Y-110651212D01*
X125334656Y-110815184D01*
X125236053Y-110962754D01*
X125110554Y-111088253D01*
X124962984Y-111186856D01*
X124799012Y-111254776D01*
X124649712Y-111284473D01*
X124624942Y-111289400D01*
X124447458Y-111289400D01*
X124422688Y-111284473D01*
X124273388Y-111254776D01*
X124109416Y-111186856D01*
X123961846Y-111088253D01*
X123836347Y-110962754D01*
X123737744Y-110815184D01*
X123669824Y-110651212D01*
X123635200Y-110477141D01*
X123635200Y-110299659D01*
X123669824Y-110125588D01*
X123737744Y-109961616D01*
X123836347Y-109814046D01*
X123961846Y-109688547D01*
X124109416Y-109589944D01*
X124273388Y-109522024D01*
X124422688Y-109492327D01*
X124447458Y-109487400D01*
X124624942Y-109487400D01*
X124649712Y-109492327D01*
G37*
G36*
X122109712Y-109492327D02*
G01*
X122259012Y-109522024D01*
X122422984Y-109589944D01*
X122570554Y-109688547D01*
X122696053Y-109814046D01*
X122794656Y-109961616D01*
X122862576Y-110125588D01*
X122897200Y-110299659D01*
X122897200Y-110477141D01*
X122862576Y-110651212D01*
X122794656Y-110815184D01*
X122696053Y-110962754D01*
X122570554Y-111088253D01*
X122422984Y-111186856D01*
X122259012Y-111254776D01*
X122109712Y-111284473D01*
X122084942Y-111289400D01*
X121907458Y-111289400D01*
X121882688Y-111284473D01*
X121733388Y-111254776D01*
X121569416Y-111186856D01*
X121421846Y-111088253D01*
X121296347Y-110962754D01*
X121197744Y-110815184D01*
X121129824Y-110651212D01*
X121095200Y-110477141D01*
X121095200Y-110299659D01*
X121129824Y-110125588D01*
X121197744Y-109961616D01*
X121296347Y-109814046D01*
X121421846Y-109688547D01*
X121569416Y-109589944D01*
X121733388Y-109522024D01*
X121882688Y-109492327D01*
X121907458Y-109487400D01*
X122084942Y-109487400D01*
X122109712Y-109492327D01*
G37*
G36*
X124649712Y-106952327D02*
G01*
X124799012Y-106982024D01*
X124962984Y-107049944D01*
X125110554Y-107148547D01*
X125236053Y-107274046D01*
X125334656Y-107421616D01*
X125402576Y-107585588D01*
X125437200Y-107759659D01*
X125437200Y-107937141D01*
X125402576Y-108111212D01*
X125334656Y-108275184D01*
X125236053Y-108422754D01*
X125110554Y-108548253D01*
X124962984Y-108646856D01*
X124799012Y-108714776D01*
X124649712Y-108744473D01*
X124624942Y-108749400D01*
X124447458Y-108749400D01*
X124422688Y-108744473D01*
X124273388Y-108714776D01*
X124109416Y-108646856D01*
X123961846Y-108548253D01*
X123836347Y-108422754D01*
X123737744Y-108275184D01*
X123669824Y-108111212D01*
X123635200Y-107937141D01*
X123635200Y-107759659D01*
X123669824Y-107585588D01*
X123737744Y-107421616D01*
X123836347Y-107274046D01*
X123961846Y-107148547D01*
X124109416Y-107049944D01*
X124273388Y-106982024D01*
X124422688Y-106952327D01*
X124447458Y-106947400D01*
X124624942Y-106947400D01*
X124649712Y-106952327D01*
G37*
G36*
X122109712Y-106952327D02*
G01*
X122259012Y-106982024D01*
X122422984Y-107049944D01*
X122570554Y-107148547D01*
X122696053Y-107274046D01*
X122794656Y-107421616D01*
X122862576Y-107585588D01*
X122897200Y-107759659D01*
X122897200Y-107937141D01*
X122862576Y-108111212D01*
X122794656Y-108275184D01*
X122696053Y-108422754D01*
X122570554Y-108548253D01*
X122422984Y-108646856D01*
X122259012Y-108714776D01*
X122109712Y-108744473D01*
X122084942Y-108749400D01*
X121907458Y-108749400D01*
X121882688Y-108744473D01*
X121733388Y-108714776D01*
X121569416Y-108646856D01*
X121421846Y-108548253D01*
X121296347Y-108422754D01*
X121197744Y-108275184D01*
X121129824Y-108111212D01*
X121095200Y-107937141D01*
X121095200Y-107759659D01*
X121129824Y-107585588D01*
X121197744Y-107421616D01*
X121296347Y-107274046D01*
X121421846Y-107148547D01*
X121569416Y-107049944D01*
X121733388Y-106982024D01*
X121882688Y-106952327D01*
X121907458Y-106947400D01*
X122084942Y-106947400D01*
X122109712Y-106952327D01*
G37*
G36*
X122109712Y-104412327D02*
G01*
X122259012Y-104442024D01*
X122422984Y-104509944D01*
X122570554Y-104608547D01*
X122696053Y-104734046D01*
X122794656Y-104881616D01*
X122862576Y-105045588D01*
X122897200Y-105219659D01*
X122897200Y-105397141D01*
X122862576Y-105571212D01*
X122794656Y-105735184D01*
X122696053Y-105882754D01*
X122570554Y-106008253D01*
X122422984Y-106106856D01*
X122259012Y-106174776D01*
X122109712Y-106204473D01*
X122084942Y-106209400D01*
X121907458Y-106209400D01*
X121882688Y-106204473D01*
X121733388Y-106174776D01*
X121569416Y-106106856D01*
X121421846Y-106008253D01*
X121296347Y-105882754D01*
X121197744Y-105735184D01*
X121129824Y-105571212D01*
X121095200Y-105397141D01*
X121095200Y-105219659D01*
X121129824Y-105045588D01*
X121197744Y-104881616D01*
X121296347Y-104734046D01*
X121421846Y-104608547D01*
X121569416Y-104509944D01*
X121733388Y-104442024D01*
X121882688Y-104412327D01*
X121907458Y-104407400D01*
X122084942Y-104407400D01*
X122109712Y-104412327D01*
G37*
G36*
X124649712Y-104412327D02*
G01*
X124799012Y-104442024D01*
X124962984Y-104509944D01*
X125110554Y-104608547D01*
X125236053Y-104734046D01*
X125334656Y-104881616D01*
X125402576Y-105045588D01*
X125437200Y-105219659D01*
X125437200Y-105397141D01*
X125402576Y-105571212D01*
X125334656Y-105735184D01*
X125236053Y-105882754D01*
X125110554Y-106008253D01*
X124962984Y-106106856D01*
X124799012Y-106174776D01*
X124649712Y-106204473D01*
X124624942Y-106209400D01*
X124447458Y-106209400D01*
X124422688Y-106204473D01*
X124273388Y-106174776D01*
X124109416Y-106106856D01*
X123961846Y-106008253D01*
X123836347Y-105882754D01*
X123737744Y-105735184D01*
X123669824Y-105571212D01*
X123635200Y-105397141D01*
X123635200Y-105219659D01*
X123669824Y-105045588D01*
X123737744Y-104881616D01*
X123836347Y-104734046D01*
X123961846Y-104608547D01*
X124109416Y-104509944D01*
X124273388Y-104442024D01*
X124422688Y-104412327D01*
X124447458Y-104407400D01*
X124624942Y-104407400D01*
X124649712Y-104412327D01*
G37*
G36*
X124649712Y-101872327D02*
G01*
X124799012Y-101902024D01*
X124962984Y-101969944D01*
X125110554Y-102068547D01*
X125236053Y-102194046D01*
X125334656Y-102341616D01*
X125402576Y-102505588D01*
X125437200Y-102679659D01*
X125437200Y-102857141D01*
X125402576Y-103031212D01*
X125334656Y-103195184D01*
X125236053Y-103342754D01*
X125110554Y-103468253D01*
X124962984Y-103566856D01*
X124799012Y-103634776D01*
X124649712Y-103664473D01*
X124624942Y-103669400D01*
X124447458Y-103669400D01*
X124422688Y-103664473D01*
X124273388Y-103634776D01*
X124109416Y-103566856D01*
X123961846Y-103468253D01*
X123836347Y-103342754D01*
X123737744Y-103195184D01*
X123669824Y-103031212D01*
X123635200Y-102857141D01*
X123635200Y-102679659D01*
X123669824Y-102505588D01*
X123737744Y-102341616D01*
X123836347Y-102194046D01*
X123961846Y-102068547D01*
X124109416Y-101969944D01*
X124273388Y-101902024D01*
X124422688Y-101872327D01*
X124447458Y-101867400D01*
X124624942Y-101867400D01*
X124649712Y-101872327D01*
G37*
G36*
X122109712Y-101872327D02*
G01*
X122259012Y-101902024D01*
X122422984Y-101969944D01*
X122570554Y-102068547D01*
X122696053Y-102194046D01*
X122794656Y-102341616D01*
X122862576Y-102505588D01*
X122897200Y-102679659D01*
X122897200Y-102857141D01*
X122862576Y-103031212D01*
X122794656Y-103195184D01*
X122696053Y-103342754D01*
X122570554Y-103468253D01*
X122422984Y-103566856D01*
X122259012Y-103634776D01*
X122109712Y-103664473D01*
X122084942Y-103669400D01*
X121907458Y-103669400D01*
X121882688Y-103664473D01*
X121733388Y-103634776D01*
X121569416Y-103566856D01*
X121421846Y-103468253D01*
X121296347Y-103342754D01*
X121197744Y-103195184D01*
X121129824Y-103031212D01*
X121095200Y-102857141D01*
X121095200Y-102679659D01*
X121129824Y-102505588D01*
X121197744Y-102341616D01*
X121296347Y-102194046D01*
X121421846Y-102068547D01*
X121569416Y-101969944D01*
X121733388Y-101902024D01*
X121882688Y-101872327D01*
X121907458Y-101867400D01*
X122084942Y-101867400D01*
X122109712Y-101872327D01*
G37*
G36*
X125437200Y-101129400D02*
G01*
X123635200Y-101129400D01*
X123635200Y-99327400D01*
X125437200Y-99327400D01*
X125437200Y-101129400D01*
G37*
G36*
X122109712Y-99332327D02*
G01*
X122259012Y-99362024D01*
X122422984Y-99429944D01*
X122570554Y-99528547D01*
X122696053Y-99654046D01*
X122794656Y-99801616D01*
X122862576Y-99965588D01*
X122897200Y-100139659D01*
X122897200Y-100317141D01*
X122862576Y-100491212D01*
X122794656Y-100655184D01*
X122696053Y-100802754D01*
X122570554Y-100928253D01*
X122422984Y-101026856D01*
X122259012Y-101094776D01*
X122109712Y-101124473D01*
X122084942Y-101129400D01*
X121907458Y-101129400D01*
X121882688Y-101124473D01*
X121733388Y-101094776D01*
X121569416Y-101026856D01*
X121421846Y-100928253D01*
X121296347Y-100802754D01*
X121197744Y-100655184D01*
X121129824Y-100491212D01*
X121095200Y-100317141D01*
X121095200Y-100139659D01*
X121129824Y-99965588D01*
X121197744Y-99801616D01*
X121296347Y-99654046D01*
X121421846Y-99528547D01*
X121569416Y-99429944D01*
X121733388Y-99362024D01*
X121882688Y-99332327D01*
X121907458Y-99327400D01*
X122084942Y-99327400D01*
X122109712Y-99332327D01*
G37*
M02*
